<?xml version="1.0" standalone="no"?>
<!DOCTYPE svg PUBLIC "-//W3C//DTD SVG 20010904//EN"
 "http://www.w3.org/TR/2001/REC-SVG-20010904/DTD/svg10.dtd">
<svg version="1.0" xmlns="http://www.w3.org/2000/svg"
 width="1024.000000pt" height="1024.000000pt" viewBox="0 0 1024.000000 1024.000000"
 preserveAspectRatio="xMidYMid meet">

<g transform="translate(0.000000,1024.000000) scale(0.100000,-0.100000)"
fill="#000000" stroke="none">
<path d="M0 5120 l0 -5120 5120 0 5120 0 0 5120 0 5120 -5120 0 -5120 0 0
-5120z m5675 2805 c239 -250 597 -615 748 -763 191 -187 314 -400 346 -602 28
-173 20 -330 -24 -469 -14 -43 -179 -387 -376 -782 -353 -705 -424 -865 -469
-1046 l-22 -93 -74 0 c-41 0 -74 3 -74 7 0 27 98 351 126 417 20 44 186 383
369 752 378 758 370 741 396 849 87 363 -99 752 -476 1000 -196 129 -856 427
-1045 472 -116 27 -338 25 -450 -5 -114 -31 -212 -80 -310 -153 -122 -92 -207
-206 -281 -379 l-36 -85 -96 -60 c-52 -33 -116 -79 -141 -103 -206 -191 -306
-482 -267 -771 12 -84 23 -134 70 -296 67 -235 101 -379 101 -428 0 -62 -57
-275 -165 -612 -82 -257 -125 -403 -125 -425 0 -10 27 -36 63 -60 34 -24 83
-59 109 -77 l47 -34 -20 -52 c-34 -86 -33 -86 -139 4 -153 130 -209 188 -204
213 7 42 86 313 149 516 145 464 159 525 136 596 -40 121 -135 458 -151 534
-31 144 -24 374 15 536 40 162 180 383 304 478 67 52 145 90 166 83 8 -4 19
11 30 41 104 275 306 505 536 611 55 25 82 48 193 167 72 77 219 231 328 344
l199 205 142 -145 c78 -80 246 -253 372 -385z m-1890 0 l25 -24 0 -291 0 -291
-25 -24 -24 -25 -739 0 c-713 0 -741 1 -763 19 l-24 19 -3 288 c-3 303 -1 322
42 342 14 7 271 11 754 11 l733 1 24 -25z m2931 -169 c10 -17 15 -42 13 -78
l-3 -53 69 -5 c62 -4 71 -8 82 -30 7 -14 11 -36 7 -50 -10 -45 -32 -59 -97
-62 l-60 -3 -1 -63 c-1 -51 -5 -66 -20 -78 -26 -19 -76 -18 -104 2 -19 13 -22
24 -22 80 l0 64 -64 0 c-58 0 -67 3 -86 27 -15 20 -19 34 -14 57 11 54 28 64
117 65 l47 1 0 55 c0 69 22 95 80 95 31 0 43 -5 56 -24z m894 -200 c0 -123 3
-232 6 -241 6 -16 54 -45 74 -45 6 0 22 11 35 25 l25 24 0 232 0 232 43 -7
c147 -22 319 -173 368 -323 62 -187 17 -378 -123 -529 -267 -286 -764 -145
-853 241 -61 261 86 520 340 601 22 7 50 13 63 13 l22 1 0 -224z m-2529 -82
c123 -39 569 -233 805 -352 332 -167 506 -347 569 -590 17 -69 23 -187 11
-251 -9 -50 -49 -145 -65 -155 -17 -11 -19 4 -29 174 -10 169 -24 221 -93 337
-44 73 -151 179 -239 238 -68 45 -316 165 -341 165 -6 0 44 -37 112 -81 91
-60 154 -112 235 -193 101 -101 116 -121 162 -216 28 -57 49 -106 47 -108 -3
-3 -38 27 -78 65 -95 90 -157 135 -320 235 -212 129 -576 300 -838 394 -96 34
-113 37 -219 38 -104 1 -120 -1 -171 -25 -58 -28 -119 -29 -119 -3 0 22 72 88
121 112 93 45 161 55 342 50 l167 -5 -52 18 c-79 26 -162 39 -252 39 -161 0
-285 -49 -394 -156 -65 -62 -68 -64 -120 -64 l-53 0 32 61 c44 82 159 189 253
234 159 76 360 91 527 39z m-2487 -506 c3 -13 7 -144 8 -291 l3 -269 33 -29
c40 -36 59 -36 95 -4 l27 26 0 289 c0 170 4 290 9 290 13 0 81 -80 92 -108 5
-12 30 -37 56 -54 76 -52 165 -148 198 -213 29 -57 30 -66 30 -185 -1 -106 -4
-134 -23 -182 -52 -130 -158 -230 -286 -270 -48 -15 -82 -19 -161 -16 -92 3
-106 7 -180 42 -134 65 -215 166 -250 314 -47 193 30 379 209 507 30 22 56 47
56 55 0 21 58 120 70 120 5 0 12 -10 14 -22z m1986 -54 c91 -43 162 -111 202
-191 42 -85 51 -203 22 -284 -18 -50 -88 -140 -124 -159 -15 -8 -14 -1 7 51
67 166 20 354 -106 422 -27 15 -58 27 -70 27 -18 0 -15 -5 19 -36 42 -38 84
-116 94 -174 l6 -35 -45 52 c-55 63 -112 92 -198 100 -197 18 -402 -99 -491
-279 -62 -125 -76 -253 -44 -418 10 -55 74 -270 121 -410 66 -194 107 -366
107 -447 l0 -33 -64 32 -63 31 -6 61 c-9 85 -10 88 -76 295 -33 102 -71 231
-86 286 -15 55 -33 119 -41 143 -33 100 -46 196 -41 297 3 55 8 109 10 120 18
77 35 121 75 200 83 161 249 307 410 360 68 22 91 25 197 22 111 -2 125 -5
185 -33z m3170 -1021 c377 -378 718 -725 758 -769 l72 -82 -537 -529 c-512
-504 -1016 -994 -1219 -1186 l-94 -89 0 77 c0 67 3 80 27 111 15 20 301 304
637 632 844 826 1010 991 1005 996 -2 3 -347 349 -766 769 -585 586 -763 770
-763 788 0 14 -9 57 -20 97 -11 39 -20 77 -20 83 0 20 223 -197 920 -898z
m-621 -190 c126 -82 238 -153 248 -159 16 -11 1 -28 -137 -160 -262 -251 -787
-760 -937 -908 l-143 -141 0 81 0 80 365 364 365 365 0 312 c0 172 2 313 4
313 3 0 108 -66 235 -147z m-4562 121 c8 -25 -80 -125 -383 -435 -178 -183
-324 -335 -324 -338 0 -4 118 -123 263 -266 144 -143 538 -534 875 -869 l612
-609 0 -85 0 -85 -62 58 c-171 159 -1868 1844 -1868 1855 0 4 157 168 350 363
272 276 362 361 405 383 30 16 55 32 55 35 0 11 73 4 77 -7z m2526 -471 c31
-28 57 -93 57 -145 0 -37 -18 -92 -82 -245 -45 -109 -84 -201 -88 -206 -5 -6
-196 56 -208 68 -5 5 34 132 71 228 17 47 34 76 41 73 87 -37 105 -32 132 40
23 62 11 87 -55 109 -28 9 -53 20 -55 24 -9 15 27 53 67 71 44 20 85 14 120
-17z m-2356 -77 c100 -50 157 -146 157 -262 -1 -159 -115 -280 -274 -292 -57
-4 -76 -1 -122 20 -118 54 -180 146 -182 267 -1 175 136 308 306 297 43 -3 83
-13 115 -30z m5033 -301 l0 -266 -102 3 -103 3 -3 263 -2 262 105 0 105 0 0
-265z m-320 -12 c0 -90 -4 -163 -8 -163 -13 0 -162 156 -162 170 0 7 34 50 77
96 54 61 79 81 84 72 5 -7 9 -86 9 -175z m504 111 c100 -109 99 -93 11 -189
-42 -47 -79 -85 -81 -85 -2 0 -4 77 -4 170 0 94 3 170 6 170 4 0 34 -30 68
-66z m-3916 -168 c101 -47 344 -147 540 -222 196 -75 360 -138 364 -140 4 -3
-3 -25 -15 -49 -19 -40 -25 -45 -49 -41 -75 14 -682 247 -873 336 l-102 48
-16 -47 c-55 -163 -139 -395 -147 -412 -11 -19 -11 -19 -48 1 -20 10 -43 23
-50 28 -10 7 -2 42 41 168 92 271 151 425 162 420 5 -3 92 -43 193 -90z m77
-321 c52 -36 186 -95 530 -232 105 -41 191 -77 193 -78 8 -7 -38 -100 -50 -98
-56 6 -768 291 -800 320 -26 23 -23 69 7 98 33 34 59 31 120 -10z m990 -105
c3 -6 -1 -7 -9 -4 -18 7 -21 14 -7 14 6 0 13 -4 16 -10z m458 -147 c-7 -2 -19
-2 -25 0 -7 3 -2 5 12 5 14 0 19 -2 13 -5z m-1102 -454 c110 -14 221 -66 307
-144 l62 -57 0 106 0 106 215 0 214 0 3 -497 c3 -477 4 -499 23 -532 28 -47
77 -71 146 -71 66 0 112 26 140 80 18 32 19 67 19 527 l0 493 215 0 215 0 0
-474 c0 -532 -3 -566 -66 -695 -25 -49 -57 -95 -99 -136 -103 -104 -200 -148
-354 -164 -373 -39 -670 213 -671 568 l0 64 -30 -42 c-39 -53 -134 -115 -219
-142 -52 -17 -101 -22 -233 -26 l-168 -6 0 -208 0 -209 -210 0 -210 0 0 735 0
735 308 0 c170 0 347 -5 393 -11z m2119 -724 l0 -735 -215 0 -215 0 0 735 0
735 215 0 215 0 0 -735z m-3636 394 c29 -23 35 -63 12 -95 -13 -18 -30 -19
-270 -22 -225 -3 -258 -1 -281 14 -46 30 -42 94 8 114 12 5 131 9 263 9 229 1
243 0 268 -20z m4890 0 c17 -13 26 -30 26 -49 0 -19 -9 -36 -26 -49 -25 -20
-39 -21 -268 -21 -230 0 -243 1 -264 20 -22 20 -29 64 -14 86 20 30 52 33 283
34 224 0 238 -1 263 -21z m-4672 -306 c22 -20 23 -70 1 -95 -15 -16 -36 -18
-259 -18 -240 0 -243 0 -258 22 -22 31 -20 58 6 85 21 23 24 23 256 23 205 0
238 -2 254 -17z m4440 -14 c21 -28 18 -57 -8 -84 -13 -12 -54 -15 -243 -15
-214 0 -229 1 -246 20 -23 25 -22 65 0 91 18 18 30 19 248 17 l230 -3 19 -26z
m-4179 -184 c68 -47 67 -38 67 -495 l0 -410 460 0 461 0 89 -60 c50 -33 90
-63 90 -65 0 -3 -277 -5 -615 -5 l-615 0 0 523 c0 288 3 527 7 530 10 11 16 9
56 -18z m3537 -511 l0 -524 -622 0 -622 0 23 21 c12 11 52 41 88 65 l66 44
468 0 469 0 0 405 c0 440 -1 433 57 486 29 28 53 39 66 32 4 -2 7 -240 7 -529z
m-2229 -291 c107 -109 249 -255 315 -324 l119 -125 153 162 152 163 85 3 c47
2 85 0 85 -4 0 -7 -355 -381 -434 -458 l-47 -45 -112 115 c-62 63 -249 255
-415 427 l-302 312 0 55 0 55 103 -69 c79 -53 146 -114 298 -267z"/>
<path d="M4964 8065 c-109 -112 -201 -210 -205 -217 -6 -11 20 -14 135 -14
226 -2 358 -44 820 -261 87 -41 160 -72 163 -69 11 11 -43 70 -573 618 l-143
148 -197 -205z"/>
<path d="M2360 7610 l0 -210 659 0 660 0 3 198 c2 108 1 203 -1 210 -2 9 -143
12 -662 12 l-659 0 0 -210z m1188 31 c8 -5 12 -21 10 -37 l-3 -29 -535 0 -535
0 -3 23 c-8 55 -34 52 530 52 288 0 529 -4 536 -9z"/>
<path d="M7482 7350 c-38 -80 -20 -162 49 -226 94 -86 260 -66 328 41 39 62
46 104 26 171 -17 60 -35 71 -35 22 0 -52 -39 -110 -90 -135 -112 -57 -225 1
-249 128 l-8 44 -21 -45z"/>
<path d="M2872 6507 l3 -155 -30 -43 c-57 -80 -162 -106 -250 -61 -87 44 -105
96 -98 282 l5 125 -40 -39 c-89 -85 -114 -228 -59 -334 41 -78 89 -126 159
-158 82 -37 188 -40 260 -7 59 27 135 104 161 163 31 69 34 175 8 234 -24 55
-74 122 -103 137 -19 10 -19 7 -16 -144z"/>
<path d="M2555 5178 c-38 -13 -92 -53 -104 -77 -6 -10 -13 -39 -16 -65 -19
-134 137 -239 254 -171 116 68 115 243 -2 299 -46 21 -96 27 -132 14z"/>
<path d="M4180 3359 l0 -182 115 5 c95 4 120 8 142 24 47 36 63 66 69 135 5
53 3 74 -14 112 -32 73 -64 87 -199 87 l-113 0 0 -181z"/>
</g>
</svg>
