<?xml version="1.0"?>
<svg width="1024" height="1024" xmlns="http://www.w3.org/2000/svg" xmlns:svg="http://www.w3.org/2000/svg" version="1.1">

 <g class="layer">
  <title>Layer 1</title>
  <path d="m0,0c76.81,0 76.81,0 87.13,5.5c0.66,0.34 1.32,0.68 2.01,1.03c6.61,3.57 11.56,8.17 16.86,13.47c0.33,-6.6 0.66,-13.2 1,-20c14.19,0 28.38,0 43,0c0.04,10.35 0.04,10.35 0.08,20.9c0.02,4.38 0.05,8.76 0.08,13.14c0.05,6.95 0.09,13.89 0.11,20.84c0.02,5.6 0.05,11.2 0.1,16.8c0.01,2.14 0.02,4.27 0.02,6.4c0,3 0.03,6 0.06,8.99c0,0.88 -0.01,1.75 -0.01,2.65c0.1,6.07 1.39,11.06 4.56,16.28c4.94,3.97 10.94,3.64 17,3c4.8,-1.48 6.77,-3.52 9.16,-7.9c1.56,-3.91 1.41,-7.83 1.39,-11.98c0.01,-1.45 0.01,-1.45 0.03,-2.93c0.03,-3.18 0.03,-6.35 0.03,-9.53c0.01,-2.21 0.03,-4.42 0.05,-6.63c0.04,-5.8 0.06,-11.6 0.08,-17.4c0.02,-6.97 0.07,-13.94 0.12,-20.91c0.07,-10.57 0.1,-21.15 0.14,-31.72c14.19,0 28.38,0 43,0c0.16,23.57 0.16,23.57 0.2,33.7c0.02,6.88 0.05,13.77 0.1,20.65c0.05,5.56 0.07,11.11 0.08,16.67c0.01,2.11 0.02,4.22 0.04,6.32c0.21,20.74 -2.1,38.67 -17.01,54.37c-12.58,11.94 -27.44,16.31 -44.45,16.29c-2.7,-0.19 -5.29,-0.54 -7.96,-1c-1.7,-0.28 -1.7,-0.28 -3.43,-0.57c-7.56,-1.42 -13.96,-3.51 -20.57,-7.43c-0.64,-0.38 -1.28,-0.75 -1.95,-1.14c-1.67,-1.05 -1.67,-1.05 -4.05,-2.86c0,-0.66 0,-1.32 0,-2c-0.58,-0.24 -1.16,-0.47 -1.75,-0.72c-8.19,-4.67 -13.55,-15.65 -16.18,-24.38c-1.81,-7.25 -2.68,-14.44 -3.07,-21.9c-0.37,0.5 -0.73,0.99 -1.11,1.5c-8.71,10.93 -20.86,15.7 -34.45,17.31c-5.3,0.41 -10.62,0.29 -15.94,0.25c-4.12,-0.02 -8.25,-0.04 -12.5,-0.06c0,13.86 0,27.72 0,42c-13.86,0 -27.72,0 -42,0c0,-48.51 0,-97.02 0,-147z" fill="#FCFCFD" id="svg_2" transform="translate(376,635)"/>
  <path d="m0,0c1.16,0.39 1.16,0.39 2.34,0.79c8.41,2.88 16.48,6.44 24.56,10.12c1.57,0.71 3.13,1.41 4.7,2.12c3.91,1.76 7.82,3.53 11.72,5.31c2.09,0.96 4.18,1.91 6.27,2.85c40.31,18.31 40.31,18.31 56.93,31.16c0.67,0.48 1.34,0.97 2.03,1.47c12.66,9.77 23.83,27.69 25.97,43.53c0.99,12.36 1.14,25.3 -6,36c-0.66,0 -1.32,0 -2,0c-0.99,-14.85 -0.99,-14.85 -2,-30c-0.66,0 -1.32,0 -2,0c-0.01,0.58 -0.02,1.16 -0.04,1.76c-0.67,11.53 -5.89,22.19 -12.96,31.24c-0.66,0 -1.32,0 -2,0c-0.24,0.55 -0.49,1.1 -0.74,1.67c-7.93,14.69 -23.42,28.05 -39.26,33.33c-16.07,2.45 -29.98,-3.74 -44.57,-9.63c-2.89,-1.16 -5.78,-2.28 -8.69,-3.38c-4.27,-1.61 -8.51,-3.28 -12.74,-4.99c-0.82,-0.33 -1.64,-0.66 -2.49,-1.01c-2.59,-1.05 -5.17,-2.11 -7.76,-3.18c-0.78,-0.32 -1.57,-0.64 -2.38,-0.97c-6.4,-2.68 -11.73,-5.68 -16.24,-11.09c-0.6,-0.71 -1.19,-1.42 -1.81,-2.14c-0.43,-0.53 -0.87,-1.07 -1.32,-1.61c0.92,-1.23 1.84,-2.46 2.75,-3.69c0.51,-0.68 1.02,-1.37 1.55,-2.07c1.2,-1.58 2.44,-3.13 3.71,-4.66c9.3,-12.07 11.02,-25.28 9.79,-40.07c-2.12,-13.87 -9.63,-28.1 -20.67,-36.76c-1.36,-0.94 -2.74,-1.85 -4.13,-2.75c-0.73,-0.52 -1.47,-1.03 -2.23,-1.56c-6.82,-4.48 -13.92,-6.52 -21.77,-8.44c1.07,-5.19 4.01,-7.61 8.21,-10.55c10.59,-6.73 19.93,-7.91 32.36,-7.7c1.89,0.01 1.89,0.01 3.82,0.01c6.61,0.06 13.06,0.36 19.61,1.24c-17.51,-5.79 -38.69,-9.35 -56,-1c-8,4.25 -14.93,9.4 -20,17c-2.6,0.29 -2.6,0.29 -5.62,0.19c-1.51,-0.05 -1.51,-0.05 -3.04,-0.09c-0.77,-0.03 -1.54,-0.07 -2.34,-0.1c1.61,-10.48 10.48,-18.91 18.68,-24.98c19.96,-13.23 43.43,-14.88 65.8,-7.37z" fill="#F73C37" id="svg_3" transform="translate(512.4765625,277.65234375)"/>
  <path d="m0,0c6.19,5.12 11.84,10.69 17.5,16.38c0.91,0.9 1.82,1.81 2.76,2.75c4.54,4.54 8.93,9.15 13.11,14.03c3.25,3.67 6.82,7.03 10.35,10.43c1.46,1.44 2.88,2.92 4.28,4.41c0,0.66 0,1.32 0,2c0.99,0.33 1.98,0.66 3,1c1.53,1.55 1.53,1.55 3.16,3.53c3.88,4.58 8.06,8.77 12.34,12.97c1.45,1.42 2.9,2.85 4.34,4.28c0.63,0.62 1.27,1.24 1.92,1.88c1.9,1.99 3.7,4.02 5.5,6.1c3.72,4.28 7.66,8.29 11.69,12.28c0.73,0.73 1.46,1.47 2.22,2.22c2.31,2.31 4.63,4.62 6.96,6.93c1.56,1.56 3.12,3.12 4.69,4.68c3.49,3.48 6.98,6.95 10.48,10.43c1.48,1.49 2.97,2.97 4.45,4.46c1.93,1.92 3.88,3.82 5.85,5.7c22.11,21.38 37.63,46.61 38.74,78.13c0.34,21.02 -6.05,37.81 -15.34,56.41c-0.88,1.79 -1.76,3.57 -2.65,5.36c-3.23,6.55 -6.52,13.07 -9.81,19.6c-1.65,3.26 -3.28,6.54 -4.9,9.81c-2.91,5.86 -5.92,11.65 -9.01,17.42c-3.89,7.26 -7.46,14.65 -10.98,22.1c-2.41,5.12 -4.86,10.21 -7.4,15.27c-0.31,0.62 -0.62,1.24 -0.93,1.87c-2.17,4.32 -4.38,8.62 -6.61,12.91c-10.39,20.14 -18.76,40.47 -23.71,62.66c-4.95,0 -9.9,0 -15,0c1.28,-7.74 3.04,-15.08 5.38,-22.56c0.43,-1.45 0.43,-1.45 0.88,-2.92c3.22,-10.47 7.45,-20.24 12.24,-30.08c0.95,-1.96 1.9,-3.92 2.84,-5.88c0.56,-1.14 1.11,-2.28 1.68,-3.46c1.48,-3.06 2.94,-6.12 4.4,-9.19c8.79,-18.46 17.93,-36.73 27.09,-55c2.07,-4.14 4.15,-8.28 6.22,-12.42c3.05,-6.09 6.1,-12.19 9.16,-18.28c3.73,-7.44 7.46,-14.88 11.17,-22.34c0.67,-1.33 1.34,-2.66 2.02,-3.98c0.35,-0.7 0.71,-1.4 1.07,-2.12c0.33,-0.63 0.65,-1.27 0.98,-1.92c8.17,-17.43 7.07,-41.02 0.87,-58.85c-6.78,-17.11 -17.68,-32.44 -32,-44c-0.86,-0.7 -1.72,-1.4 -2.61,-2.12c-13.95,-10.89 -29.83,-18.19 -45.79,-25.66c-2.18,-1.02 -4.35,-2.05 -6.53,-3.09c-55.96,-26.84 -55.96,-26.84 -116.26,-21.94c-22.29,8.48 -37.62,24.73 -47.81,45.81c-0.77,2.23 -1.54,4.46 -2.31,6.69c-3.6,8.29 -11.46,11.95 -18.94,16.34c-4.28,2.53 -7.33,5.39 -10.75,8.97c-0.66,0 -1.32,0 -2,0c-0.25,0.55 -0.5,1.11 -0.76,1.68c-1.45,2.71 -3.19,5 -5.05,7.45c-11.12,15.16 -16.37,33.03 -16.57,51.75c-0.01,0.75 -0.02,1.5 -0.04,2.28c0.12,14.51 4.24,28.61 8.36,42.4c1.5,5.1 3,10.2 4.45,15.32c0.41,1.4 0.81,2.81 1.22,4.21c4.24,14.67 4.39,26.81 -0.24,41.47c-0.74,2.47 -1.48,4.94 -2.23,7.41c-0.36,1.2 -0.73,2.4 -1.11,3.63c-1.15,3.81 -2.23,7.64 -3.28,11.48c-2.48,8.97 -5.33,17.79 -8.31,26.61c-2.66,7.85 -5.26,15.7 -7.5,23.69c-0.21,0.71 -0.41,1.42 -0.62,2.15c-0.49,1.81 -0.91,3.64 -1.32,5.47c-0.2,0.87 -0.4,1.74 -0.6,2.63c1.05,4.14 4.81,5.71 8.29,7.87c4.95,3.16 9.32,6.16 13.31,10.5c-1.65,3.96 -3.3,7.92 -5,12c-10.61,-5.3 -19.44,-14.88 -28,-23c-1.24,-0.83 -1.24,-0.83 -2.5,-1.67c-1.9,-2.95 -1.51,-3.99 -0.94,-7.4c0.45,-1.98 0.93,-3.96 1.44,-5.93c0.34,-1.32 0.34,-1.32 0.69,-2.67c0.75,-2.75 1.55,-5.48 2.37,-8.2c0.3,-1.02 0.6,-2.03 0.91,-3.08c4.69,-15.74 9.42,-31.5 14.72,-47.05c1.97,-5.87 3.84,-11.76 5.62,-17.69c0.27,-0.84 0.54,-1.68 0.81,-2.55c3.17,-10.77 2.23,-20.42 -1.11,-31.01c-0.46,-1.53 -0.46,-1.53 -0.93,-3.09c-0.97,-3.23 -1.96,-6.44 -2.96,-9.66c-0.98,-3.22 -1.96,-6.44 -2.93,-9.66c-0.6,-1.99 -1.21,-3.98 -1.83,-5.97c-1.81,-5.94 -3.04,-11.8 -3.94,-17.95c-0.3,-2.42 -0.3,-2.42 -1.42,-4.42c-0.87,-13.64 -0.37,-27.54 2,-41c0.17,-1.09 0.34,-2.18 0.52,-3.3c1.78,-9.41 5.86,-17.41 10.48,-25.7c0.56,-1 1.12,-2.01 1.69,-3.04c7.54,-12.6 18.48,-24.36 32.31,-29.96c1.32,0 2.64,0 4,0c0.31,-0.68 0.62,-1.37 0.94,-2.07c12.12,-26.46 26.66,-50.71 54.44,-62.98c6.68,-3.05 10.99,-6.84 15.81,-12.32c1.32,-1.47 2.65,-2.94 3.98,-4.4c0.64,-0.72 1.28,-1.43 1.94,-2.17c1.77,-1.92 3.58,-3.77 5.44,-5.6c2.38,-2.35 4.62,-4.76 6.79,-7.3c4.9,-5.67 10.3,-10.84 15.63,-16.09c4.37,-4.33 8.56,-8.71 12.56,-13.37c1.69,-1.96 3.45,-3.82 5.28,-5.64c0.57,-0.56 1.13,-1.13 1.71,-1.71c1.48,-1.35 1.48,-1.35 3.48,-2.35z" fill="#F9F9FA" id="svg_4" transform="translate(516,179)"/>
  <path d="m0,0c1.17,0.64 1.17,0.64 2.37,1.29c8.99,5.43 15.85,13.45 19.21,23.43c1.53,8.28 1.88,18.82 -2.24,26.36c-6.43,9.25 -14.17,16.44 -25.53,18.5c-8.71,0.93 -13.95,0.45 -20.86,-4.97c-2.14,-1.77 -4.23,-3.59 -6.31,-5.43c-2.51,-2.34 -2.51,-2.34 -5.64,-3.18c1.37,4 3.26,6.8 6,10c-0.33,0.66 -0.66,1.32 -1,2c-0.95,-0.5 -1.9,-0.99 -2.88,-1.5c-2.84,-1.64 -2.84,-1.64 -5.12,-1.5c-0.59,2.66 -0.59,2.66 0,6c1.68,2.2 3.5,4.12 5.47,6.07c1.53,1.93 1.53,1.93 1.53,5.93c-2.31,0 -4.62,0 -7,0c0.49,3.47 0.49,3.47 1,7c2.97,0.99 5.94,1.98 9,3c-0.1,1.38 -0.21,2.76 -0.31,4.19c0.04,6.93 2.54,12.57 5.31,18.81c0.33,0.76 0.66,1.51 1.01,2.29c3.54,8.05 7.19,16.05 10.96,24c5.54,11.69 9.75,22.25 5.97,35.4c-7.58,12.95 -7.58,12.95 -10.94,16.31c-5.69,-0.27 -10.73,-2.81 -15.88,-5.06c-1.37,-0.6 -1.37,-0.6 -2.78,-1.21c-8.27,-3.62 -16.33,-7.58 -24.34,-11.73c-0.66,-0.33 -1.32,-0.66 -2,-1c-0.25,-2.1 -0.42,-4.2 -0.56,-6.31c-1.14,-11.9 -5.57,-23.03 -9.33,-34.29c-1.56,-4.77 -2.95,-9.57 -4.3,-14.4c-2.16,-7.73 -4.42,-15.42 -6.81,-23.08c-6.53,-21.33 -6.12,-42.79 4.19,-62.79c3.76,-6.91 8.11,-12.68 13.81,-18.13c0.76,-0.77 1.52,-1.53 2.3,-2.32c16.44,-15.85 44.23,-25.69 65.7,-13.68z" fill="#F63E3A" id="svg_5" transform="translate(460,333)"/>
  <path d="m0,0c1.45,-0.01 2.9,-0.01 4.35,-0.02c3.94,-0.02 7.87,-0.01 11.8,0.01c4.12,0.02 8.24,0.01 12.36,0c6.92,0 13.83,0.02 20.75,0.04c7.99,0.04 15.99,0.04 23.98,0.02c7.7,-0.02 15.39,-0.01 23.08,0.01c3.28,0 6.55,0 9.82,0c3.86,-0.01 7.71,0 11.56,0.03c1.42,0 2.83,0 4.25,0c1.93,-0.01 3.86,0.01 5.79,0.03c1.08,0 2.16,0 3.27,0c3.63,0.64 5.32,1.94 7.92,4.51c0.62,2.65 0.62,2.65 0.61,5.7c0.01,1.72 0.01,1.72 0.03,3.47c-0.03,1.85 -0.03,1.85 -0.05,3.73c0,1.27 0,2.54 0,3.85c-0.01,2.69 -0.02,5.37 -0.05,8.06c-0.04,3.43 -0.05,6.87 -0.04,10.3c0.01,3.29 -0.02,6.57 -0.04,9.86c0,1.23 0,2.46 0,3.72c-0.01,1.15 -0.03,2.3 -0.04,3.48c-0.01,1.01 -0.02,2.02 -0.03,3.05c-0.46,3.24 -1.48,5.15 -3.39,7.78c-2.7,1.35 -4.81,1.14 -7.83,1.16c-1.24,0 -2.48,0.01 -3.76,0.02c-1.38,0.01 -2.77,0.01 -4.15,0.01c-1.45,0.01 -2.9,0.02 -4.35,0.03c-4.77,0.02 -9.54,0.04 -14.31,0.05c-1.64,0.01 -3.28,0.02 -4.92,0.02c-6.83,0.02 -13.65,0.04 -20.48,0.05c-9.79,0.02 -19.57,0.05 -29.36,0.11c-6.88,0.04 -13.76,0.06 -20.64,0.06c-4.11,0.01 -8.22,0.02 -12.33,0.05c-3.86,0.03 -7.73,0.04 -11.6,0.02c-1.42,0 -2.84,0.01 -4.25,0.03c-10.89,0.13 -10.89,0.13 -15.37,-2.78c-1.86,-3.18 -2.29,-4.97 -2.3,-8.64c-0.02,-1.15 -0.03,-2.29 -0.05,-3.47c0.01,-1.23 0.02,-2.45 0.03,-3.72c0,-1.27 -0.01,-2.54 -0.01,-3.84c-0.01,-2.68 0,-5.36 0.02,-8.04c0.03,-3.43 0.02,-6.85 -0.01,-10.28c-0.03,-3.28 -0.01,-6.56 0,-9.84c-0.01,-1.23 -0.02,-2.45 -0.03,-3.72c0.02,-1.14 0.03,-2.29 0.05,-3.47c0,-1 0.01,-2 0.01,-3.04c2.28,-9.96 11.45,-8.47 19.71,-8.4z" fill="#04031E" id="svg_6" transform="translate(242.07421875,228.368896484375)"/>
  <path d="m0,0c0.01,0.85 0.01,0.85 0.02,1.73c0.09,5.92 0.19,11.84 0.3,17.76c0.04,2.21 0.07,4.42 0.1,6.63c0.05,3.18 0.11,6.35 0.17,9.52c0.01,1 0.02,1.99 0.03,3.01c0.02,0.92 0.04,1.84 0.06,2.79c0.01,0.81 0.03,1.62 0.04,2.45c0.16,2.41 0.16,2.41 2.28,5.11c3.57,0.74 3.57,0.74 7,1c2.55,-2.96 3.38,-4.78 3.43,-8.68c0.02,-0.92 0.04,-1.84 0.06,-2.79c0.01,-0.98 0.02,-1.97 0.02,-2.98c0.02,-1.02 0.04,-2.03 0.06,-3.08c0.05,-3.24 0.08,-6.48 0.12,-9.72c0.03,-2.2 0.07,-4.4 0.1,-6.59c0.09,-5.39 0.15,-10.77 0.21,-16.16c1.43,0.13 2.85,0.27 4.27,0.42c1.19,0.11 1.19,0.11 2.41,0.23c11.8,1.78 22.29,11 29.13,20.23c5.54,8.41 7.83,16.1 8.19,26.12c0.06,0.81 0.13,1.62 0.19,2.46c0.66,13.06 -5.35,25.38 -13.44,35.3c-9.65,10.36 -21.6,15.12 -35.56,16.52c-14.52,0.51 -27.91,-4.75 -38.6,-14.56c-10.17,-11.01 -15.15,-23.94 -14.77,-38.87c0.98,-15.59 6.56,-27.24 18.18,-37.85c7.66,-5.72 16.37,-10.14 26,-10z" fill="#FBFBFC" id="svg_7" transform="translate(761,246)"/>
  <path d="m0,0c1.16,0.39 1.16,0.39 2.34,0.79c8.41,2.88 16.48,6.44 24.56,10.12c1.57,0.71 3.13,1.41 4.7,2.12c3.91,1.76 7.82,3.53 11.72,5.31c2.09,0.96 4.18,1.91 6.27,2.85c40.31,18.31 40.31,18.31 56.93,31.16c0.67,0.48 1.34,0.97 2.03,1.47c12.66,9.77 23.83,27.69 25.97,43.53c0.99,12.36 1.14,25.3 -6,36c-0.66,0 -1.32,0 -2,0c-0.04,-0.75 -0.08,-1.5 -0.12,-2.27c-0.68,-19.32 -0.68,-19.32 -5.88,-37.73c-0.42,-1.01 -0.84,-2.01 -1.27,-3.05c-10.9,-23.82 -33.53,-36.31 -56.73,-45.95c-1.32,-0.37 -2.65,-0.71 -4,-1c0.6,0.39 1.2,0.78 1.82,1.18c11.89,7.83 23.23,15.59 33.18,25.82c1.28,1.29 1.28,1.29 2.57,2.61c6.7,7.11 12.22,15.11 15.43,24.39c-0.33,0.99 -0.66,1.98 -1,3c-0.7,-0.68 -1.4,-1.36 -2.13,-2.06c-19.44,-18.44 -43.07,-30.99 -66.87,-42.94c-0.85,-0.43 -1.7,-0.86 -2.58,-1.31c-11.04,-5.54 -22.34,-10.43 -33.79,-15.07c-0.62,-0.25 -1.24,-0.5 -1.88,-0.76c-11.69,-4.78 -24.17,-9.7 -37,-9.36c-1.13,0.01 -1.13,0.01 -2.29,0.02c-5.51,0.17 -10.04,1.36 -15.11,3.59c-3.57,1.35 -6.57,1.17 -10.35,0.89c0.38,-3.41 1.82,-5.34 4.3,-7.64c11.27,-9 22.13,-10.84 36.27,-10.61c1.89,0.01 1.89,0.01 3.82,0.01c6.61,0.06 13.06,0.36 19.61,1.24c-17.51,-5.79 -38.69,-9.35 -56,-1c-8,4.25 -14.93,9.4 -20,17c-2.6,0.29 -2.6,0.29 -5.62,0.19c-1.51,-0.05 -1.51,-0.05 -3.04,-0.09c-0.77,-0.03 -1.54,-0.07 -2.34,-0.1c1.61,-10.48 10.48,-18.91 18.68,-24.98c19.96,-13.23 43.43,-14.88 65.8,-7.37z" fill="#FCF9F9" id="svg_8" transform="translate(512.4765625,277.65234375)"/>
  <path d="m0,0c14.19,0 28.38,0 43,0c0,48.51 0,97.02 0,147c-14.19,0 -28.38,0 -43,0c0,-48.51 0,-97.02 0,-147z" fill="#FCFCFD" id="svg_9" transform="translate(615,635)"/>
  <path d="m0,0c4.81,4.06 9.49,8.23 14.08,12.53c0.65,0.6 1.3,1.21 1.97,1.84c6.68,6.28 13.19,12.73 19.68,19.21c1.29,1.29 2.58,2.58 3.88,3.87c3.45,3.45 6.91,6.9 10.36,10.36c2.16,2.16 4.33,4.32 6.49,6.48c7.55,7.54 15.1,15.08 22.64,22.63c7.03,7.02 14.06,14.05 21.1,21.07c6.06,6.05 12.11,12.1 18.17,18.15c3.6,3.61 7.21,7.21 10.83,10.82c3.38,3.37 6.76,6.75 10.14,10.13c1.24,1.24 2.48,2.48 3.73,3.72c1.69,1.69 3.37,3.38 5.06,5.07c0.5,0.49 1,0.99 1.51,1.5c3.36,3.39 3.36,3.39 3.36,5.62c0.6,0.26 1.19,0.52 1.81,0.79c2.35,1.3 3.55,2.52 5.25,4.59c3.21,3.79 6.51,7.47 9.88,11.12c0.49,0.54 0.99,1.08 1.5,1.64c1.19,1.29 2.37,2.57 3.56,3.86c-5.61,6.84 -11.86,13.01 -18.12,19.25c-1.18,1.18 -2.36,2.37 -3.55,3.55c-2.47,2.47 -4.94,4.95 -7.41,7.41c-3.16,3.15 -6.3,6.3 -9.45,9.46c-2.44,2.44 -4.88,4.88 -7.33,7.32c-1.16,1.16 -2.32,2.32 -3.48,3.48c-5.44,5.45 -10.89,10.83 -16.74,15.83c-3.9,3.45 -7.51,7.19 -11.17,10.89c-1.29,1.29 -1.29,1.29 -2.6,2.61c-2.72,2.73 -5.43,5.46 -8.15,8.2c-3.58,3.61 -7.16,7.21 -10.75,10.81c-0.81,0.82 -1.62,1.64 -2.45,2.48c-4.21,4.23 -8.5,8.27 -13.03,12.16c-2.39,2.09 -4.63,4.32 -6.86,6.58c-0.89,0.89 -1.77,1.79 -2.69,2.71c-1.35,1.37 -1.35,1.37 -2.72,2.76c-10.02,10.16 -10.02,10.16 -14.37,13.88c-5.87,5.02 -11.2,10.63 -16.63,16.12c-13.26,13.43 -13.26,13.43 -20.5,19.5c-1.33,1.15 -2.67,2.29 -4,3.44c-0.99,0.84 -1.98,1.69 -3,2.56c-0.3,-2.43 -0.52,-4.81 -0.69,-7.25c-0.09,-0.66 -0.18,-1.33 -0.28,-2.01c-0.2,-3.96 0.55,-6.16 2.9,-9.39c2.37,-2.62 4.79,-5.13 7.3,-7.61c1.87,-1.84 3.71,-3.71 5.55,-5.58c3.4,-3.47 6.84,-6.92 10.28,-10.35c2.14,-2.13 4.27,-4.27 6.4,-6.41c1.38,-1.38 2.76,-2.76 4.15,-4.14c0.62,-0.62 1.24,-1.25 1.89,-1.9c3.07,-3.05 6.2,-6 9.48,-8.84c4.1,-3.54 7.93,-7.32 11.74,-11.18c0.7,-0.7 1.4,-1.41 2.13,-2.14c2.22,-2.23 4.43,-4.46 6.65,-6.7c2.92,-2.95 5.85,-5.9 8.78,-8.84c0.66,-0.67 1.31,-1.33 1.99,-2.02c3.11,-3.12 6.26,-6.14 9.61,-9.02c4.84,-4.18 9.31,-8.7 13.81,-13.24c0.9,-0.91 1.8,-1.82 2.73,-2.75c2.86,-2.87 5.72,-5.75 8.58,-8.63c3.77,-3.79 7.54,-7.59 11.31,-11.37c0.85,-0.87 1.71,-1.73 2.59,-2.61c4.31,-4.34 8.7,-8.51 13.35,-12.5c4.2,-3.64 8.07,-7.65 12,-11.58c0.88,-0.87 1.77,-1.75 2.68,-2.65c0.85,-0.85 1.71,-1.7 2.59,-2.58c0.76,-0.76 1.53,-1.52 2.32,-2.3c2.37,-2.64 4.22,-5.45 6.16,-8.41c-0.43,-0.43 -0.87,-0.86 -1.31,-1.31c-10.52,-10.47 -21.04,-20.95 -31.55,-31.44c-5.08,-5.07 -10.16,-10.14 -15.25,-15.21c-4.44,-4.41 -8.87,-8.83 -13.29,-13.25c-2.35,-2.35 -4.69,-4.69 -7.04,-7.02c-2.62,-2.61 -5.24,-5.22 -7.85,-7.83c-0.78,-0.78 -1.57,-1.56 -2.38,-2.36c-0.71,-0.71 -1.41,-1.42 -2.14,-2.15c-0.62,-0.62 -1.24,-1.24 -1.88,-1.87c-1.31,-1.56 -1.31,-1.56 -1.31,-3.56c-0.59,-0.26 -1.18,-0.53 -1.78,-0.8c-2.3,-1.24 -3.83,-2.55 -5.67,-4.39c-0.93,-0.92 -0.93,-0.92 -1.88,-1.86c-0.63,-0.65 -1.27,-1.29 -1.92,-1.95c-0.97,-0.96 -0.97,-0.96 -1.97,-1.95c-0.61,-0.61 -1.23,-1.23 -1.86,-1.86c-0.56,-0.57 -1.12,-1.13 -1.7,-1.71c-1.22,-1.48 -1.22,-1.48 -1.22,-3.48c-0.99,-0.33 -1.98,-0.66 -3,-1c-1.73,-1.63 -3.36,-3.29 -5,-5c-1.14,-1.14 -2.28,-2.28 -3.43,-3.41c-3.45,-3.43 -6.9,-6.87 -10.34,-10.31c-1.49,-1.48 -2.97,-2.95 -4.46,-4.43c-2.15,-2.14 -4.31,-4.29 -6.46,-6.44c-0.66,-0.65 -1.31,-1.31 -1.99,-1.98c-3.67,-3.66 -7.03,-7.43 -10.32,-11.43c-1.34,-1.21 -1.34,-1.21 -2.7,-2.45c-2.81,-3.11 -3.31,-5.33 -4.05,-9.42c-0.22,-1.18 -0.44,-2.35 -0.67,-3.56c-0.57,-3.52 -1.09,-7.04 -1.58,-10.57z" fill="#F8F9FA" id="svg_10" transform="translate(683,344)"/>
  <path d="m0,0c4.27,1.33 8.2,2.97 12.21,4.95c1.24,0.6 2.48,1.2 3.71,1.8c0.65,0.31 1.31,0.63 1.98,0.95c17.76,8.57 35.97,15.67 54.44,22.56c4.47,1.67 8.94,3.36 13.41,5.06c0.67,0.25 1.35,0.51 2.05,0.78c1.31,0.5 2.63,1 3.94,1.5c3.88,1.47 7.77,2.94 11.65,4.4c2.55,0.98 5.08,1.98 7.61,3c-0.57,3.96 -1.81,6.67 -4,10c-7.66,-1.48 -14.76,-3.93 -22.06,-6.62c-1.15,-0.43 -2.31,-0.85 -3.49,-1.28c-2.82,-1.03 -5.64,-2.06 -8.45,-3.1c-0.14,0.77 -0.29,1.53 -0.44,2.32c-0.62,2.96 -1.56,5.66 -2.62,8.49c-0.55,1.47 -0.55,1.47 -1.1,2.96c-0.42,1.1 -0.42,1.1 -0.84,2.23c0.58,0.16 1.16,0.32 1.76,0.49c6.96,2.01 13.64,4.52 20.37,7.2c1.57,0.62 1.57,0.62 3.18,1.26c2.57,1.01 5.13,2.03 7.69,3.05c-0.48,1.46 -0.96,2.92 -1.44,4.38c-0.26,0.81 -0.53,1.62 -0.81,2.46c-0.75,2.16 -0.75,2.16 -1.75,4.16c-7.7,-2.17 -15.15,-4.84 -22.62,-7.69c-1.1,-0.41 -2.2,-0.83 -3.34,-1.26c-2.68,-1.01 -5.36,-2.03 -8.04,-3.05c-0.2,0.61 -0.39,1.22 -0.6,1.84c-0.26,0.81 -0.52,1.61 -0.79,2.44c-0.26,0.79 -0.52,1.59 -0.79,2.4c-1.03,2.91 -2.36,5.61 -3.82,8.32c0.56,0.17 1.11,0.34 1.69,0.52c5.41,1.71 10.29,3.83 15.31,6.48c0,0.33 0,0.66 0,1c-18.1,1.9 -30.88,-3.19 -47,-11c-1.86,-0.88 -3.72,-1.74 -5.58,-2.61c-14.1,-6.59 -27.95,-13.57 -41.42,-21.39c0.76,-4.5 2.16,-8.75 3.62,-13.06c0.27,-0.79 0.53,-1.57 0.8,-2.38c4.94,-14.61 10.08,-29.14 15.58,-43.56z" fill="#F1403E" id="svg_11" transform="translate(383,524)"/>
  <path d="m0,0c0.66,0 1.32,0 2,0c1.21,2.42 1.15,4 1.19,6.71c0.02,0.97 0.03,1.95 0.05,2.96c0.01,1.06 0.03,2.12 0.04,3.22c0.02,1.09 0.04,2.18 0.06,3.3c0.06,3.5 0.11,7 0.16,10.5c0.07,4.58 0.14,9.17 0.22,13.76c0.01,1.05 0.03,2.1 0.04,3.18c-0.33,9.62 -0.33,9.62 3.49,17.87c2.61,1.75 2.61,1.75 5.38,1.31c0.78,-0.27 1.56,-0.53 2.37,-0.81c0.99,-0.33 1.98,-0.66 3,-1c0.33,-19.8 0.66,-39.6 1,-60c3.5,1.75 4.72,2.49 7.06,5.31c0.73,0.86 0.73,0.86 1.48,1.74c1.46,1.95 1.46,1.95 2.82,4.44c1.94,2.97 3.95,4.41 6.89,6.39c8.41,5.94 13.98,11.93 18.75,21.12c0.38,0.71 0.76,1.42 1.14,2.14c3.83,12.77 1.41,28.27 -4.68,39.77c-6.43,10.92 -15.05,17.59 -27.19,21.2c-11.9,2.81 -24.65,2.09 -35.27,-4.11c-0.89,-0.52 -1.78,-1.04 -2.7,-1.57c-6.08,-3.91 -10.29,-8.46 -14.3,-14.43c-0.4,-0.56 -0.8,-1.13 -1.21,-1.71c-6.48,-10.01 -7.26,-23.24 -5.17,-34.68c3.74,-14.03 13.57,-24.53 25.38,-32.61c0.66,0 1.32,0 2,0c0.09,-1.24 0.09,-1.24 0.19,-2.5c1.02,-4.41 2.95,-7.98 5.81,-11.5z" fill="#F9FAFB" id="svg_12" transform="translate(257,325)"/>
  <path d="m0,0c1.45,-0.01 2.9,-0.01 4.35,-0.02c3.94,-0.02 7.87,-0.01 11.8,0.01c4.12,0.02 8.24,0.01 12.36,0c6.92,0 13.83,0.02 20.75,0.04c7.99,0.04 15.99,0.04 23.98,0.02c7.7,-0.02 15.39,-0.01 23.08,0.01c3.28,0 6.55,0 9.82,0c3.86,-0.01 7.71,0 11.56,0.03c1.42,0 2.83,0 4.25,0c1.93,-0.01 3.86,0.01 5.79,0.03c1.08,0 2.16,0 3.27,0c3.63,0.64 5.32,1.94 7.92,4.51c0.62,2.65 0.62,2.65 0.61,5.7c0.01,1.72 0.01,1.72 0.03,3.47c-0.03,1.85 -0.03,1.85 -0.05,3.73c0,1.27 0,2.54 0,3.85c-0.01,2.69 -0.02,5.37 -0.05,8.06c-0.04,3.43 -0.05,6.87 -0.04,10.3c0.01,3.29 -0.02,6.57 -0.04,9.86c0,1.23 0,2.46 0,3.72c-0.01,1.15 -0.03,2.3 -0.04,3.48c-0.01,1.01 -0.02,2.02 -0.03,3.05c-0.46,3.24 -1.48,5.15 -3.39,7.78c-2.7,1.35 -4.81,1.14 -7.83,1.16c-1.24,0 -2.48,0.01 -3.76,0.02c-1.38,0.01 -2.77,0.01 -4.15,0.01c-1.45,0.01 -2.9,0.02 -4.35,0.03c-4.77,0.02 -9.54,0.04 -14.31,0.05c-1.64,0.01 -3.28,0.02 -4.92,0.02c-6.83,0.02 -13.65,0.04 -20.48,0.05c-9.79,0.02 -19.57,0.05 -29.36,0.11c-6.88,0.04 -13.76,0.06 -20.64,0.06c-4.11,0.01 -8.22,0.02 -12.33,0.05c-3.86,0.03 -7.73,0.04 -11.6,0.02c-1.42,0 -2.84,0.01 -4.25,0.03c-10.89,0.13 -10.89,0.13 -15.37,-2.78c-1.86,-3.18 -2.29,-4.97 -2.3,-8.64c-0.02,-1.15 -0.03,-2.29 -0.05,-3.47c0.01,-1.23 0.02,-2.45 0.03,-3.72c0,-1.27 -0.01,-2.54 -0.01,-3.84c-0.01,-2.68 0,-5.36 0.02,-8.04c0.03,-3.43 0.02,-6.85 -0.01,-10.28c-0.03,-3.28 -0.01,-6.56 0,-9.84c-0.01,-1.23 -0.02,-2.45 -0.03,-3.72c0.02,-1.14 0.03,-2.29 0.05,-3.47c0,-1 0.01,-2 0.01,-3.04c2.28,-9.96 11.45,-8.47 19.71,-8.4zm-6.07,13.63c0,13.86 0,27.72 0,42c43.89,0 87.78,0 133,0c0,-13.86 0,-27.72 0,-42c-43.89,0 -87.78,0 -133,0z" fill="#F9FAFB" id="svg_13" transform="translate(242.07421875,228.368896484375)"/>
  <path d="m0,0c-1.3,5.01 -3.51,8.12 -7.06,11.75c-0.9,0.94 -1.8,1.89 -2.73,2.86c-0.51,0.53 -1.02,1.06 -1.54,1.61c-1.84,1.96 -3.6,3.98 -5.38,6.01c-7.6,8.48 -15.83,16.38 -23.92,24.4c-3.3,3.28 -6.61,6.56 -9.91,9.85c-0.74,0.73 -1.49,1.47 -2.26,2.23c-4.08,4.06 -7.98,8.22 -11.73,12.6c-1.73,1.99 -3.56,3.86 -5.47,5.69c1.33,2.95 2.78,5.03 5.07,7.31c0.62,0.63 1.24,1.25 1.88,1.89c0.67,0.67 1.34,1.33 2.03,2.01c1.04,1.04 1.04,1.04 2.11,2.1c1.46,1.47 2.93,2.93 4.4,4.39c2.24,2.22 4.47,4.45 6.71,6.68c1.42,1.43 2.85,2.85 4.28,4.27c0.67,0.66 1.33,1.33 2.01,2.01c3.7,3.65 7.49,7.05 11.51,10.34c1.62,1.77 1.62,1.77 2.87,3.38c2.08,2.51 4.23,4.65 6.72,6.75c4.91,4.24 9.47,8.8 14.05,13.4c0.93,0.93 1.86,1.86 2.82,2.81c2.52,2.53 5.05,5.06 7.57,7.59c2.65,2.66 5.31,5.31 7.96,7.97c5.02,5.02 10.04,10.05 15.06,15.08c5.7,5.71 11.4,11.41 17.1,17.11c9.74,9.76 19.48,19.51 29.22,29.27c0.81,0.81 1.61,1.61 2.44,2.44c0.73,0.74 1.47,1.47 2.23,2.23c1.63,1.64 3.27,3.28 4.9,4.91c1.42,1.42 2.82,2.84 4.23,4.26c0.66,0.68 1.33,1.35 2.02,2.05c1.01,1.03 1.01,1.03 2.04,2.08c1.68,1.74 1.68,1.74 3.77,2.67c0,0.66 0,1.32 0,2c0.99,0.33 1.98,0.66 3,1c2.91,1.87 4.54,3.86 6,7c0.76,5.63 0.34,11.35 0,17c-15.62,-13.08 -29.78,-27.69 -44.12,-42.12c-3.75,-3.77 -7.5,-7.54 -11.25,-11.3c-1.49,-1.5 -2.97,-3 -4.46,-4.5c-1.35,-1.35 -1.35,-1.35 -2.72,-2.73c-0.79,-0.79 -1.58,-1.59 -2.39,-2.41c-2.1,-2.09 -2.1,-2.09 -5.06,-3.94c0,-0.66 0,-1.32 0,-2c-0.66,0 -1.32,0 -2,0c-1.17,-1.41 -2.33,-2.82 -3.47,-4.25c-1.59,-1.82 -3.26,-3.32 -5.11,-4.87c-4.9,-4.24 -9.45,-8.78 -14.01,-13.38c-1.42,-1.42 -2.84,-2.84 -4.26,-4.26c-1.51,-1.51 -3.02,-3.03 -4.53,-4.54c-3.16,-3.18 -6.32,-6.35 -9.49,-9.51c-7.28,-7.3 -14.56,-14.6 -21.84,-21.9c-6.68,-6.7 -13.35,-13.4 -20.04,-20.09c-3.13,-3.14 -6.27,-6.29 -9.4,-9.43c-1.49,-1.49 -2.97,-2.98 -4.45,-4.47c-1.81,-1.8 -3.6,-3.61 -5.4,-5.41c-4.84,-4.84 -9.78,-9.47 -15,-13.89c-2.56,-2.19 -2.56,-2.19 -4,-4c0.15,-4.43 3.62,-6.91 6.62,-9.75c3.28,-3.13 6.45,-6.28 9.38,-9.73c7.95,-9.13 16.71,-17.57 25.23,-26.16c2.3,-2.32 4.6,-4.65 6.89,-6.98c2.79,-2.85 5.59,-5.69 8.4,-8.51c1.06,-1.07 2.12,-2.14 3.17,-3.22c18.69,-19.19 18.69,-19.19 29.31,-15.65z" fill="#F9FAFB" id="svg_14" transform="translate(257,441)"/>
  <path d="m0,0c1.17,0.64 1.17,0.64 2.37,1.29c8.99,5.43 15.85,13.45 19.21,23.43c1.53,8.28 1.88,18.82 -2.24,26.35c-3.43,4.94 -6.72,9.48 -12.34,11.93c0.2,-0.68 0.41,-1.35 0.62,-2.05c0.27,-0.89 0.54,-1.78 0.82,-2.7c0.26,-0.88 0.53,-1.76 0.81,-2.67c0.24,-0.85 0.49,-1.7 0.75,-2.58c0.19,-0.63 0.38,-1.27 0.58,-1.92c2.05,-10.13 0.53,-20.08 -4.68,-28.95c-4.08,-5.55 -10.67,-7.79 -16.9,-10.13c0.7,0.66 1.4,1.32 2.12,2c5.4,5.41 10.71,11.42 11.01,19.31c-0.05,0.89 -0.09,1.78 -0.13,2.69c-0.7,-0.72 -1.4,-1.44 -2.13,-2.19c-8.91,-8.79 -15.85,-11.31 -28.49,-11.23c-6.37,0.2 -11.64,1.59 -17.38,4.42c-1.15,0.53 -1.15,0.53 -2.32,1.06c-11.62,5.83 -19.97,15.14 -24.43,27.32c-7.3,24.52 -0.05,46.28 7.75,69.62c11.98,36.07 11.98,36.07 13,55c-4.98,-0.49 -9.15,-1.75 -13,-5c-0.8,-2.91 -0.8,-2.91 -0.88,-6.5c-0.52,-8.15 -2.79,-15.47 -5.37,-23.19c-0.4,-1.21 -0.81,-2.42 -1.22,-3.67c-0.81,-2.41 -1.61,-4.83 -2.42,-7.24c-1.56,-4.77 -2.95,-9.57 -4.3,-14.4c-2.16,-7.73 -4.42,-15.42 -6.81,-23.08c-6.53,-21.33 -6.12,-42.79 4.19,-62.79c3.76,-6.91 8.11,-12.68 13.81,-18.13c0.76,-0.77 1.52,-1.53 2.3,-2.32c16.44,-15.85 44.23,-25.69 65.7,-13.68z" fill="#FBF9F9" id="svg_15" transform="translate(460,333)"/>
  <path d="m0,0c3.28,1.28 6.16,2.6 9.09,4.55c0.77,0.51 1.55,1.01 2.35,1.54c1.23,0.82 1.23,0.82 2.5,1.66c1.78,1.17 3.55,2.34 5.33,3.5c1.4,0.92 1.4,0.92 2.82,1.85c4.96,3.24 9.97,6.41 14.97,9.59c1.85,1.17 3.69,2.34 5.54,3.51c0.78,0.49 1.56,0.99 2.36,1.49c1.69,1.09 3.37,2.2 5.04,3.31c-1.35,3.05 -2.81,5.01 -5.27,7.25c-0.66,0.6 -1.31,1.21 -1.99,1.83c-0.7,0.63 -1.39,1.27 -2.11,1.92c-6.09,5.6 -12.01,11.3 -17.79,17.22c-2.1,2.06 -4.2,3.97 -6.43,5.87c-5.77,5 -11.06,10.49 -16.41,15.91c-5.82,5.9 -11.61,11.76 -17.92,17.14c-4.74,4.23 -9.12,8.84 -13.58,13.36c-5.66,5.74 -11.3,11.42 -17.44,16.66c-4.53,4.04 -8.73,8.45 -13,12.78c-1.88,1.91 -3.76,3.81 -5.65,5.71c-1.24,1.26 -1.24,1.26 -2.5,2.53c-1.91,1.82 -1.91,1.82 -2.91,1.82c-1.38,-13.9 -1.38,-13.9 1.97,-19c2.25,-2.16 4.56,-4.09 7.03,-6c0.49,-0.99 0.49,-0.99 1,-2c0.66,0 1.32,0 2,0c0,-0.66 0,-1.32 0,-2c1.32,-1.38 1.32,-1.38 3.24,-3.01c0.74,-0.63 1.47,-1.25 2.23,-1.9c2.71,-2.24 5.45,-4.45 8.2,-6.66c7.12,-5.75 14.01,-11.75 20.77,-17.93c0.6,-0.55 1.21,-1.11 1.83,-1.68c15.83,-14.62 26.52,-27.54 27.64,-49.65c0.41,-13.74 -0.84,-27.6 -2.91,-41.17z" fill="#F9FAFB" id="svg_16" transform="translate(689,439)"/>
  <path d="m0,0c0.73,0.28 1.47,0.56 2.22,0.85c2.26,0.87 4.52,1.74 6.78,2.61c2.71,1.05 5.43,2.09 8.14,3.14c33.44,13.06 33.44,13.06 67.92,22.9c0.7,0.16 1.4,0.32 2.11,0.49c11.08,2.34 21.94,0.56 31.83,-4.99c1.66,-0.69 3.32,-1.36 5,-2c-9.35,12.87 -19.36,24.14 -34,31c-0.78,0.37 -1.56,0.73 -2.36,1.11c-16.09,5.43 -32.45,-2.78 -47.22,-8.73c-2.88,-1.16 -5.77,-2.29 -8.68,-3.39c-4.27,-1.61 -8.51,-3.28 -12.74,-4.99c-0.82,-0.33 -1.64,-0.66 -2.49,-1c-2.59,-1.06 -5.18,-2.12 -7.76,-3.19c-0.79,-0.32 -1.57,-0.64 -2.39,-0.97c-6.4,-2.68 -11.73,-5.68 -16.24,-11.09c-0.59,-0.71 -1.19,-1.41 -1.8,-2.14c-0.65,-0.8 -0.65,-0.8 -1.32,-1.61c5.48,-7.36 5.48,-7.36 8.19,-10.69c1.83,-2.34 3.3,-4.75 4.81,-7.31z" fill="#B82220" id="svg_17" transform="translate(495,393)"/>
  <path d="m0,0c6.84,4.17 12.03,10.83 14.32,18.53c1.95,9.29 -0.04,16.42 -4.87,24.32c-4.44,6.49 -10.26,10.34 -17.68,12.84c-9.73,1.25 -17.14,-0.06 -25,-6c-6.88,-6.17 -10.54,-14.08 -11.25,-23.19c0.6,-9.13 3.64,-16.39 10.25,-22.81c11.01,-7.95 21.67,-9.48 34.23,-3.69z" fill="#F8F9FA" id="svg_18" transform="translate(275.23046875,496.3125)"/>
  <path d="m0,0c0.99,0.49 0.99,0.49 2,1c0,34.65 0,69.3 0,105c-40.92,0 -81.84,0 -124,0c3.48,-3.48 6.24,-6.05 10.19,-8.75c1.29,-0.89 1.29,-0.89 2.6,-1.8c4.34,-2.85 8,-2.58 13.07,-2.56c0.91,0 1.83,0 2.78,0c3.04,0 6.08,0 9.12,0.01c2.1,0 4.21,0.01 6.31,0.01c5.55,0 11.1,0.01 16.64,0.02c5.66,0.01 11.32,0.02 16.97,0.02c11.11,0.01 22.21,0.03 33.32,0.05c-0.01,-1.01 -0.02,-2.03 -0.03,-3.07c-0.08,-9.57 -0.14,-19.13 -0.18,-28.69c-0.02,-4.92 -0.05,-9.84 -0.09,-14.75c-0.05,-4.75 -0.07,-9.5 -0.08,-14.24c-0.01,-1.81 -0.02,-3.62 -0.04,-5.43c-0.03,-2.54 -0.04,-5.07 -0.03,-7.61c-0.02,-0.75 -0.03,-1.49 -0.05,-2.26c0.05,-6.32 2.48,-9.69 6.56,-14.26c1.94,-1.69 1.94,-1.69 4.94,-2.69z" fill="#F9FAFB" id="svg_19" transform="translate(694,717)"/>
  <path d="m0,0c5.38,1.9 8.97,3.93 12,9c0.46,3 0.64,5.41 0.57,8.39c0,1.23 0,1.23 0,2.49c0,2.69 -0.04,5.39 -0.08,8.08c-0.01,1.88 -0.02,3.75 -0.02,5.63c-0.02,4.92 -0.07,9.84 -0.13,14.76c-0.05,5.03 -0.07,10.06 -0.1,15.08c-0.05,9.86 -0.13,19.71 -0.24,29.57c1.13,-0.02 2.26,-0.05 3.42,-0.07c10.71,-0.23 21.42,-0.39 32.13,-0.5c5.5,-0.06 11.01,-0.13 16.51,-0.26c5.32,-0.12 10.64,-0.19 15.97,-0.21c2.02,-0.02 4.04,-0.06 6.06,-0.12c14.7,-0.42 23.87,2.15 34.91,12.16c0.33,0.66 0.66,1.32 1,2c-40.59,0 -81.18,0 -123,0c-0.02,-17.3 -0.04,-34.61 -0.06,-52.44c-0.01,-5.47 -0.02,-10.94 -0.03,-16.58c0,-6.66 0,-6.66 -0.01,-9.78c0,-2.18 0,-4.36 -0.01,-6.55c0,-3.3 0,-6.6 0,-9.9c-0.01,-0.98 -0.01,-1.96 -0.01,-2.97c0,-0.88 0,-1.76 0,-2.67c0,-0.78 0,-1.55 0,-2.35c0.12,-1.76 0.12,-1.76 1.12,-2.76z" fill="#FAFBFC" id="svg_20" transform="translate(337,717)"/>
  <path d="m0,0c3.08,2.37 5.77,4.7 8.25,7.69c4.01,4.69 8.35,8.99 12.75,13.31c8.57,8.42 8.57,8.42 12.47,12.97c4.09,4.76 8.56,9.13 13.03,13.53c5.2,5.11 10.25,10.25 15,15.79c2.45,2.8 5.18,5.31 7.9,7.85c1.74,2.02 2.06,3.31 2.6,5.86c-6.77,-2.03 -12.93,-4.79 -19.25,-7.94c-9.25,-4.51 -18.61,-8.64 -28.12,-12.56c-1.22,-0.5 -2.44,-1.01 -3.69,-1.53c-6.25,-2.55 -12.49,-4.96 -18.94,-6.97c-0.94,-0.3 -1.89,-0.6 -2.86,-0.91c-13.15,-3.82 -26.58,-3.21 -40.14,-3.09c2.23,-4.12 4.89,-7.07 8.25,-10.31c3.14,-3.04 6.12,-6.08 8.96,-9.39c4.48,-5.19 9.36,-9.98 14.23,-14.8c0.92,-0.92 1.84,-1.84 2.79,-2.78c2.26,-2.24 4.51,-4.48 6.77,-6.72z" fill="#03031E" id="svg_21" transform="translate(516,197)"/>
  <path d="m0,0c0.33,0 0.66,0 1,0c0.69,9.02 1.15,17.94 1,27c0.66,0.33 1.32,0.66 2,1c-12.13,25.43 -28.54,49.7 -55.89,60.02c-17.02,5.36 -32.12,1.14 -48.11,-5.02c-1.51,-0.57 -3.01,-1.14 -4.52,-1.71c-47.94,-18.08 -47.94,-18.08 -58.48,-26.29c-1.03,-0.74 -2.06,-1.48 -3.13,-2.25c-4.82,-4.62 -9.74,-10.35 -11.87,-16.75c1.27,-0.51 2.54,-1 3.81,-1.5c0.71,-0.28 1.42,-0.56 2.15,-0.84c2.04,-0.66 2.04,-0.66 5.04,-0.66c1.32,1.54 1.32,1.54 2.69,3.63c8.04,11.2 20.97,15.37 33.52,19.65c5.4,1.85 10.67,3.85 15.91,6.1c7.44,3.15 15,5.85 22.63,8.5c1.7,0.59 1.7,0.59 3.43,1.19c14.95,5.12 28.96,5.9 43.82,-0.07c0.73,-0.28 1.47,-0.55 2.23,-0.84c15.14,-6.54 24.9,-22.62 32.75,-36.38c0.69,-1.2 1.39,-2.4 2.09,-3.59c5.87,-10 7.59,-19.69 7.93,-31.19z" fill="#C12425" id="svg_22" transform="translate(637,384)"/>
  <path d="m0,0c1.61,0.99 3.21,2 4.81,3c0.9,0.56 1.79,1.11 2.71,1.69c1.16,0.77 2.32,1.54 3.48,2.31c0.72,0.46 1.44,0.91 2.18,1.38c9.42,6.36 17.12,14.54 25.07,22.59c2.5,2.53 5.01,5.05 7.52,7.57c1.61,1.62 3.23,3.24 4.84,4.87c1.11,1.11 1.11,1.11 2.24,2.25c4.02,4.07 7.88,8.23 11.61,12.58c2.42,2.76 5.03,5.32 7.67,7.89c3.88,3.78 7.45,7.65 10.87,11.87c1.11,-1.11 2.21,-2.21 3.32,-3.32c1.25,-1.25 2.51,-2.49 3.77,-3.73c3.57,-3.54 7.08,-7.07 10.35,-10.89c0.57,-0.64 1.13,-1.27 1.72,-1.93c1.36,-1.57 2.65,-3.2 3.9,-4.85c5.68,-6.81 5.68,-6.81 10.05,-7.72c5,-0.42 9.91,-0.08 14.89,0.44c-4.27,6.28 -9.29,11.45 -14.71,16.72c-2.99,2.93 -5.86,5.88 -8.58,9.06c-4.45,5.17 -9.3,9.92 -14.15,14.72c-0.92,0.92 -1.84,1.84 -2.79,2.78c-2.26,2.24 -4.51,4.48 -6.77,6.72c-3.64,-1.54 -5.96,-3.72 -8.74,-6.51c-0.9,-0.9 -1.8,-1.81 -2.73,-2.74c-0.47,-0.47 -0.94,-0.95 -1.42,-1.43c-1.4,-1.42 -2.81,-2.84 -4.23,-4.25c-3.91,-3.94 -7.78,-7.88 -11.39,-12.09c-4.38,-5.11 -9.2,-9.76 -13.99,-14.48c-10.16,-10.02 -10.16,-10.02 -13.95,-14.45c-4.64,-5.42 -9.79,-10.36 -14.86,-15.36c-1.98,-1.95 -3.96,-3.91 -5.93,-5.87c-0.86,-0.85 -1.73,-1.71 -2.62,-2.59c-2.51,-2.61 -4.07,-4.25 -4.34,-7.93c0.03,-0.99 0.05,-1.97 0.07,-2.99c0.02,-0.99 0.04,-1.99 0.06,-3.01c0.02,-0.76 0.05,-1.52 0.07,-2.3z" fill="#F9F9FB" id="svg_23" transform="translate(433,766)"/>
  <path d="m0,0c4.27,1.33 8.2,2.97 12.21,4.95c1.24,0.6 2.48,1.2 3.71,1.8c0.65,0.31 1.31,0.63 1.98,0.95c17.76,8.57 35.97,15.67 54.44,22.56c4.47,1.67 8.94,3.36 13.41,5.06c0.67,0.25 1.35,0.51 2.05,0.78c1.31,0.5 2.63,1 3.94,1.5c3.88,1.47 7.77,2.94 11.65,4.4c2.55,0.98 5.08,1.98 7.61,3c-0.57,3.96 -1.81,6.67 -4,10c-6.84,-1.36 -13.17,-3.36 -19.69,-5.81c-1.81,-0.68 -3.63,-1.35 -5.45,-2.02c-0.94,-0.36 -1.89,-0.71 -2.87,-1.07c-3.13,-1.15 -6.27,-2.24 -9.42,-3.34c-8.57,-3.05 -16.97,-6.52 -25.37,-10.02c-2.69,-1.11 -5.39,-2.22 -8.08,-3.33c-9.92,-4.1 -19.61,-8.42 -29.12,-13.41c-0.36,1.26 -0.72,2.51 -1.09,3.81c-2.3,7.64 -4.95,15.17 -7.58,22.7c-0.9,2.58 -1.79,5.16 -2.68,7.74c-0.57,1.64 -1.14,3.27 -1.72,4.91c-0.26,0.77 -0.53,1.55 -0.8,2.34c-1.9,5.39 -1.9,5.39 -4.13,6.5c-2.16,-1 -2.16,-1 -4.63,-2.44c-0.81,-0.47 -1.63,-0.94 -2.47,-1.43c-0.63,-0.37 -1.25,-0.75 -1.9,-1.13c0.76,-4.5 2.16,-8.75 3.62,-13.06c0.27,-0.79 0.53,-1.57 0.8,-2.38c4.94,-14.61 10.08,-29.14 15.58,-43.56z" fill="#FAF8F8" id="svg_24" transform="translate(383,524)"/>
  <path d="m0,0c0.66,0.19 1.32,0.38 2,0.57c12.77,3.64 25.69,6.91 39,7.43c-2.25,3.1 -4.59,5.51 -7.56,7.88c-14.02,12.11 -22.21,30.46 -29.44,47.12c-6.09,-0.55 -11.29,-1.93 -17,-4.06c-0.77,-0.28 -1.55,-0.57 -2.35,-0.86c-1.88,-0.68 -3.77,-1.38 -5.65,-2.08c0.66,-5.33 2.32,-10 4.2,-14.98c0.32,-0.86 0.64,-1.72 0.97,-2.6c0.68,-1.8 1.36,-3.61 2.04,-5.41c1.03,-2.73 2.05,-5.47 3.07,-8.21c6.34,-16.94 6.34,-16.94 10.72,-24.8z" fill="#BA261D" id="svg_25" transform="translate(540,498)"/>
  <path d="m0,0c7.03,4.07 11.68,10.13 14,18c1.03,9.55 -0.09,18.21 -5.54,26.29c-5.57,6.82 -12.98,12.03 -21.89,12.96c-9.39,0.42 -18.23,-2.27 -25.57,-8.25c-6.39,-6.3 -10.99,-13.94 -11.31,-23.06c0.14,-8.94 3.71,-16.04 9.72,-22.48c1.59,-1.46 1.59,-1.46 3.59,-2.46c-0.02,0.74 -0.03,1.48 -0.05,2.24c-0.06,3.4 -0.1,6.8 -0.14,10.2c-0.02,1.16 -0.05,2.33 -0.07,3.53c-0.07,7.75 -0.05,15.44 5.45,21.41c6.71,3.87 12.11,5.64 19.81,3.62c5.28,-2.02 8.27,-5.06 11,-10c1.14,-3.42 1.11,-6.03 1.1,-9.64c-0.01,-1.3 -0.01,-2.59 -0.01,-3.93c-0.01,-1.37 -0.02,-2.75 -0.03,-4.12c0,-1.38 -0.01,-2.76 -0.01,-4.15c-0.01,-3.39 -0.03,-6.77 -0.05,-10.16z" fill="#05051E" id="svg_26" transform="translate(287,358)"/>
  <path d="m0,0c3.88,3.04 6.38,5.95 7.31,10.81c0.94,8.62 -1.07,14.98 -4.62,22.75c-0.92,2.1 -1.84,4.2 -2.76,6.3c-0.45,1.01 -0.9,2.03 -1.37,3.07c-2.18,5.04 -4.08,10.19 -5.99,15.35c-0.42,0.83 -0.83,1.67 -1.26,2.53c-3.75,1.25 -5.06,0.54 -8.75,-0.75c-1.06,-0.37 -2.12,-0.74 -3.22,-1.12c-3.4,-1.27 -6.72,-2.62 -10.03,-4.13c0.61,-6.08 2.37,-11.45 4.44,-17.18c0.31,-0.89 0.63,-1.78 0.95,-2.7c1.36,-3.83 2.73,-7.51 4.61,-11.12c1.58,0.53 1.58,0.53 3.19,1.07c4.54,1.21 4.54,1.21 8.81,-0.07c2.04,-3.46 2.92,-6.19 3.31,-10.18c-1.64,-3.53 -2.76,-3.69 -6.31,-5.07c-0.91,-0.29 -1.81,-0.59 -2.75,-0.89c-2.25,-0.86 -2.25,-0.86 -3.25,-2.86c4.73,-6.41 9.72,-9.33 17.69,-5.81z" fill="#F9F9FA" id="svg_27" transform="translate(507.6875,487.1875)"/>
  <path d="m0,0c0.33,0 0.66,0 1,0c0.69,9.02 1.15,17.94 1,27c0.66,0.33 1.32,0.66 2,1c-6.07,12.71 -12.79,24.27 -21.69,35.25c-0.67,0.86 -0.67,0.86 -1.37,1.74c-2.19,2.61 -3.32,3.93 -6.77,4.37c-1.08,-0.18 -1.08,-0.18 -2.17,-0.36c-0.33,0.66 -0.66,1.32 -1,2c-0.33,-0.99 -0.66,-1.98 -1,-3c-0.6,0.54 -1.2,1.07 -1.81,1.63c-13.35,9.94 -26.87,12.79 -43.19,11.37c-12.35,-1.81 -24.01,-6.8 -35.61,-11.21c-5.09,-1.94 -10.2,-3.8 -15.34,-5.61c-2,-0.7 -3.99,-1.41 -5.99,-2.12c-1.87,-0.66 -3.74,-1.31 -5.62,-1.95c-11.9,-4.26 -24.61,-10.46 -32.44,-20.73c-1,-2.38 -1,-2.38 -0.69,-4.69c0.23,-0.56 0.46,-1.12 0.69,-1.69c0.99,0 1.98,0 3,0c1.32,1.54 1.32,1.54 2.69,3.63c8.04,11.2 20.97,15.37 33.52,19.65c5.4,1.85 10.67,3.85 15.91,6.1c7.44,3.15 15,5.85 22.63,8.5c1.7,0.59 1.7,0.59 3.43,1.19c14.95,5.12 28.96,5.9 43.82,-0.07c0.73,-0.28 1.47,-0.55 2.23,-0.84c15.14,-6.54 24.9,-22.62 32.75,-36.38c0.69,-1.2 1.39,-2.4 2.09,-3.59c5.87,-10 7.59,-19.69 7.93,-31.19z" fill="#E34B47" id="svg_28" transform="translate(637,384)"/>
  <path d="m0,0c6.93,0 13.86,0 21,0c0,17.49 0,34.98 0,53c-6.6,0 -13.2,0 -20,0c-1,-1 -1,-1 -1.12,-3.09c0,-1.39 0,-1.39 0.01,-2.8c0,-1.04 0,-2.08 0,-3.15c0,-1.13 0.01,-2.27 0.01,-3.43c0,-1.16 0.01,-2.31 0.01,-3.5c0,-3.69 0.01,-7.39 0.03,-11.09c0,-2.5 0.01,-5 0.01,-7.5c0.01,-6.15 0.03,-12.29 0.05,-18.44z" fill="#FBFBFD" id="svg_29" transform="translate(756,500)"/>
  <path d="m0,0c3.5,1.06 3.5,1.06 5.73,2.9c3.34,2.61 6.71,4.13 10.58,5.79c0.78,0.34 1.57,0.68 2.37,1.03c2.6,1.12 5.21,2.23 7.82,3.34c0.9,0.39 1.81,0.77 2.73,1.17c16.3,6.92 32.77,13.42 49.27,19.83c-0.48,1.46 -0.96,2.92 -1.44,4.38c-0.26,0.81 -0.53,1.62 -0.81,2.46c-0.75,2.16 -0.75,2.16 -1.75,4.16c-8.92,-2.44 -17.5,-5.74 -26.12,-9.06c-0.75,-0.29 -1.5,-0.57 -2.26,-0.87c-12.41,-4.76 -24.73,-9.7 -36.94,-14.94c-1.95,-0.82 -3.92,-1.61 -5.9,-2.38c-1.61,-0.63 -1.61,-0.63 -3.26,-1.28c-0.98,-0.38 -1.96,-0.75 -2.98,-1.14c-2.77,-1.45 -3.95,-2.66 -5.54,-5.33c-0.5,-2.43 -0.5,-2.43 0,-5c2.67,-3.72 3.85,-4.98 8.5,-5.06z" fill="#FBF6F7" id="svg_30" transform="translate(405.5,561.9375)"/>
  <path d="m0,0c0.77,-0.02 1.55,-0.04 2.34,-0.06c2.16,0.5 2.16,0.5 3.93,2.17c1.53,2.89 1.53,4.83 1.42,8.08c-0.03,0.98 -0.06,1.97 -0.08,2.98c-0.04,0.75 -0.07,1.5 -0.11,2.27c0.66,-0.04 1.33,-0.07 2.01,-0.11c3.99,-0.12 7.26,-0.15 11.05,1.17c1.94,1.94 1.94,1.94 3,5.31c-0.06,3.63 -0.06,3.63 -1.25,6.57c-4.52,3.31 -9.39,2.44 -14.81,2.06c0.05,0.82 0.09,1.64 0.14,2.48c0.05,1.62 0.05,1.62 0.11,3.27c0.05,1.06 0.09,2.13 0.14,3.23c-0.39,3.02 -0.39,3.02 -2.15,5.38c-3.63,2.65 -5.82,2.13 -10.24,1.64c-1.73,-1.11 -1.73,-1.11 -3,-3c-0.29,-3.14 -0.29,-3.14 -0.19,-6.69c0.03,-1.18 0.06,-2.36 0.08,-3.57c0.04,-0.91 0.07,-1.81 0.11,-2.74c-1.36,0.05 -1.36,0.05 -2.74,0.1c-1.18,0.03 -2.36,0.06 -3.57,0.09c-1.17,0.03 -2.35,0.06 -3.55,0.1c-3.14,-0.29 -3.14,-0.29 -5.03,-1.52c-1.39,-2.22 -1.54,-3.66 -1.55,-6.27c-0.02,-0.78 -0.04,-1.55 -0.06,-2.35c0.5,-2.15 0.5,-2.15 2.14,-3.92c3.04,-1.58 5.2,-1.53 8.61,-1.42c1.62,0.04 1.62,0.04 3.27,0.08c0.82,0.04 1.64,0.07 2.48,0.11c-0.03,-0.83 -0.07,-1.67 -0.11,-2.52c-0.02,-1.09 -0.05,-2.18 -0.08,-3.29c-0.05,-1.62 -0.05,-1.62 -0.1,-3.27c0.29,-2.92 0.29,-2.92 1.52,-4.78c2.22,-1.43 3.64,-1.58 6.27,-1.58z" fill="#F6F6F7" id="svg_31" transform="translate(665.5,245.5625)"/>
  <path d="m0,0c5.51,-0.12 5.51,-0.12 11.13,-0.25c1.14,-0.04 2.29,-0.07 3.47,-0.11c6.14,-0.07 9.75,0.22 14.4,4.36c4.22,4.66 4.25,9.42 4.14,15.47c-0.31,5.61 -1.34,9.13 -5.51,12.91c-3.94,3.23 -7.38,3.75 -12.4,3.72c-0.8,0 -1.6,-0.01 -2.43,-0.01c-1,-0.01 -2.01,-0.02 -3.05,-0.03c-3.22,-0.02 -6.44,-0.04 -9.75,-0.06c0,-11.88 0,-23.76 0,-36z" fill="#03031F" id="svg_32" transform="translate(418,670)"/>
  <path d="m0,0c4.46,0.99 4.46,0.99 9,2c-0.15,2.07 -0.15,2.07 -0.31,4.19c0.04,6.93 2.54,12.57 5.31,18.81c0.33,0.76 0.66,1.51 1.01,2.29c3.54,8.05 7.19,16.05 10.96,24c5.54,11.69 9.75,22.25 5.97,35.4c-8.01,13.69 -8.01,13.69 -11.94,16.31c0,-0.84 -0.01,-1.69 -0.01,-2.56c-0.07,-22.25 -0.07,-22.25 -5.06,-43.78c-1.87,-5.35 -3.58,-10.76 -5.32,-16.15c-0.67,-2.05 -1.34,-4.1 -2,-6.15c-7.94,-24.44 -7.94,-24.44 -7.61,-34.36z" fill="#BB2223" id="svg_33" transform="translate(419,424)"/>
  <path d="m0,0c4.36,2.26 6.78,4.91 9,9.25c1.39,5.39 1.08,9.89 -1,15c-3.28,4.96 -6.26,7.4 -12,9c-5.93,0.32 -10.89,-0.6 -15.53,-4.42c-3.68,-3.94 -5.66,-8.31 -5.91,-13.7c0.56,-5 1.48,-8.14 5.31,-11.55c6.63,-5.13 12.05,-6.6 20.13,-3.58z" fill="#05041F" id="svg_34" transform="translate(268.00390625,506.75)"/>
  <path d="m0,0c1.32,0 1.32,0 2.67,-0.01c0.98,0 1.95,0.01 2.96,0.01c1.02,0 2.04,-0.01 3.09,-0.01c3.4,0 6.79,0 10.18,0c2.35,0 4.7,0 7.05,0c4.93,0 9.85,0 14.78,0.01c6.33,0 12.66,0 18.99,-0.01c4.85,0 9.71,0 14.56,0c2.33,0 4.67,0 7,0c3.26,0 6.52,0 9.78,0.01c0.97,0 1.94,-0.01 2.95,-0.01c0.88,0 1.77,0.01 2.68,0.01c1.15,0 1.15,0 2.33,0c1.89,0.13 1.89,0.13 3.89,1.13c0.04,2 0.04,4 0,6c-1.55,1.54 -2.99,1.12 -5.14,1.12c-0.89,0.01 -1.78,0.01 -2.7,0.01c-0.99,0 -1.98,0 -2.99,0c-1.03,0 -2.07,0 -3.13,0c-3.43,0.01 -6.86,0 -10.29,0c-2.38,0 -4.75,0 -7.12,0c-4.98,0 -9.96,0 -14.94,0c-6.4,-0.01 -12.8,-0.01 -19.2,0c-4.9,0 -9.8,0 -14.71,0c-2.36,0 -4.72,0 -7.08,0c-3.29,0.01 -6.58,0 -9.87,0c-0.99,0 -1.98,0 -2.99,0c-0.89,0 -1.79,0 -2.71,-0.01c-0.77,0 -1.55,0 -2.36,0c-1.77,-0.12 -1.77,-0.12 -2.77,-1.12c-0.13,-3 -0.13,-3 0,-6c1.54,-1.54 2.95,-1.13 5.09,-1.13z" fill="#F6F6F8" id="svg_35" transform="translate(253.09300231933594,258.8730163574219)"/>
  <path d="m0,0c0.98,-0.01 1.97,-0.03 2.98,-0.04c1.59,0.01 1.59,0.01 3.21,0.01c1.09,0 2.18,-0.01 3.31,-0.02c2.31,0 4.62,0 6.92,0.01c3.54,0.01 7.07,-0.02 10.6,-0.05c2.24,-0.01 4.49,-0.01 6.73,0c1.58,-0.02 1.58,-0.02 3.2,-0.04c4.51,0.05 7.3,0.08 11.26,2.38c1.83,2.15 1.83,2.15 2.39,5.15c-0.69,3.68 -1.69,4.68 -4.56,7c-2.39,0.52 -2.39,0.52 -5.06,0.54c-1.01,0.01 -2.01,0.03 -3.05,0.05c-1.07,-0.01 -2.15,-0.01 -3.27,-0.02c-1.67,0.01 -1.67,0.01 -3.37,0.02c-2.36,0.01 -4.72,0 -7.07,-0.01c-3.61,-0.01 -7.21,0.02 -10.81,0.06c-2.29,0 -4.58,0 -6.87,-0.01c-1.08,0.02 -2.16,0.03 -3.26,0.04c-7.45,-0.09 -7.45,-0.09 -11.46,-3.01c-1.78,-2.66 -1.78,-2.66 -1.85,-5.78c1.86,-5.02 4.87,-6.25 10.03,-6.28z" fill="#F0F0F3" id="svg_36" transform="translate(246.964599609375,666.595947265625)"/>
  <path d="m0,0c1.64,-0.01 1.64,-0.01 3.32,-0.01c2.31,0 4.62,0 6.94,0.02c3.54,0.02 7.08,0 10.62,-0.03c2.25,0.01 4.5,0.01 6.75,0.02c1.06,-0.01 2.12,-0.02 3.21,-0.02c7.3,0.09 7.3,0.09 10.64,2.4c1.84,2.97 1.9,4.72 1.33,8.15c-1.33,2.16 -1.33,2.16 -4,4c-3.72,0.61 -7.42,0.56 -11.18,0.53c-1.1,0.01 -2.19,0.01 -3.32,0.01c-2.32,0.01 -4.63,0 -6.94,-0.02c-3.54,-0.02 -7.09,0 -10.63,0.03c-2.25,0 -4.49,-0.01 -6.74,-0.02c-1.06,0.01 -2.12,0.02 -3.21,0.03c-7.31,-0.1 -7.31,-0.1 -10.65,-2.4c-1.83,-2.97 -1.9,-4.73 -1.33,-8.16c3.49,-5.63 9.28,-4.58 15.19,-4.53z" fill="#F3F4F6" id="svg_37" transform="translate(743.1875,666.46875)"/>
  <path d="m0,0c2.86,2.51 4.35,5.27 6.07,8.64c0.59,1.12 1.17,2.25 1.77,3.41c0.61,1.21 1.23,2.43 1.85,3.64c0.63,1.24 1.27,2.47 1.9,3.71c1.25,2.44 2.49,4.88 3.73,7.32c1.37,2.68 2.76,5.36 4.17,8.03c8.27,15.83 15.55,32.24 10.51,50.25c-2.25,6.78 -4.64,13.68 -8,20c-3.12,-0.49 -6,-1 -9,-2c0.64,-3.42 1.99,-5.78 3.88,-8.69c6.29,-10.41 7.69,-20.17 5.6,-32.32c-2.64,-9.72 -7.41,-18.78 -11.64,-27.88c-2.56,-5.49 -5.09,-10.99 -7.53,-16.55c-0.34,-0.74 -0.67,-1.47 -1.02,-2.23c-2.3,-5.32 -2.59,-9.54 -2.29,-15.33z" fill="#BB2B28" id="svg_38" transform="translate(441,431)"/>
  <path d="m0,0c1.05,0 2.11,0 3.19,0c2.22,0 4.45,0.01 6.67,0.03c3.41,0.03 6.82,0.02 10.22,0.01c2.16,0 4.32,0.01 6.48,0.02c1.54,0 1.54,0 3.1,-0.01c0.95,0.02 1.89,0.03 2.87,0.04c0.84,0.01 1.67,0.01 2.53,0.02c2.68,0.48 3.57,1.2 5.15,3.39c0.66,6.09 0.66,6.09 -1.22,8.69c-2.31,1.7 -3.71,1.69 -6.57,1.71c-0.97,0.01 -1.94,0.03 -2.94,0.04c-1.05,0 -2.09,-0.01 -3.17,-0.01c-1.08,0 -2.15,0.01 -3.26,0.02c-2.28,0 -4.56,0 -6.83,-0.01c-3.49,-0.01 -6.98,0.02 -10.47,0.05c-2.21,0.01 -4.42,0.01 -6.63,0c-1.05,0.01 -2.09,0.02 -3.17,0.04c-0.97,-0.01 -1.94,-0.02 -2.94,-0.03c-0.86,0 -1.71,0 -2.59,0c-2.21,-0.5 -2.21,-0.5 -3.98,-2.38c-1.54,-2.68 -1.76,-4.08 -1.23,-7.12c3.52,-5.53 8.91,-4.56 14.79,-4.5z" fill="#F8F9FA" id="svg_39" transform="translate(277.78515625,697.50390625)"/>
  <path d="m0,0c1.57,0.57 1.57,0.57 3.18,1.14c14.98,5.34 30.11,10.2 45.25,15.06c4.87,1.57 9.72,3.17 14.57,4.8c-0.99,4.45 -0.99,4.45 -2,9c-7.44,-0.59 -14.17,-2.74 -21.25,-5c-1.25,-0.4 -2.51,-0.79 -3.8,-1.2c-3.99,-1.25 -7.97,-2.53 -11.95,-3.8c-1.36,-0.44 -2.72,-0.87 -4.09,-1.31c-7.97,-2.54 -15.94,-5.11 -23.91,-7.69c1.23,-3.72 2.51,-7.38 4,-11z" fill="#BF2928" id="svg_40" transform="translate(494,569)"/>
  <path d="m0,0c1.36,-0.02 1.36,-0.02 2.75,-0.04c1.47,0.01 1.47,0.01 2.97,0.01c1.51,-0.01 1.51,-0.01 3.05,-0.02c2.13,0 4.26,0 6.39,0.01c3.26,0.01 6.52,-0.02 9.78,-0.05c2.07,-0.01 4.14,-0.01 6.21,0c1.47,-0.02 1.47,-0.02 2.96,-0.04c6.73,0.07 6.73,0.07 10.04,2.37c1.35,2.16 1.35,2.16 1.29,5.23c-0.97,3.02 -1.49,4.03 -3.94,5.93c-2.09,0.39 -2.09,0.39 -4.52,0.39c-1.36,0.02 -1.36,0.02 -2.76,0.03c-0.98,-0.01 -1.96,-0.01 -2.97,-0.02c-1.01,0.01 -2.02,0.01 -3.06,0.01c-2.13,0 -4.27,0 -6.4,-0.01c-3.28,-0.02 -6.55,0 -9.82,0.01c-2.07,0 -4.15,0 -6.22,-0.01c-0.98,0.01 -1.96,0.01 -2.97,0.02c-0.91,-0.01 -1.83,-0.02 -2.76,-0.03c-0.81,0 -1.61,0 -2.43,0c-2.64,-0.49 -3.52,-1.24 -5.09,-3.39c-0.65,-6.1 -0.65,-6.1 1.24,-8.69c2.23,-1.66 3.5,-1.69 6.26,-1.71z" fill="#F9FAFB" id="svg_41" transform="translate(716.499755859375,697.595947265625)"/>
  <path d="m0,0c3.49,2.7 4.18,5.77 5,10c0.32,6.29 -1.42,10.94 -5.15,15.98c-3.96,4.32 -8.01,6.64 -13.85,7.42c-5.93,0.19 -10.87,-0.18 -16,-3.4c-5.34,-5.05 -8.65,-9.4 -9.38,-16.81c0.09,-4.69 2.02,-8.23 4.38,-12.19c0.33,0 0.66,0 1,0c0.16,0.74 0.32,1.47 0.48,2.23c1.41,5.91 2.47,9.96 7.52,13.77c4.33,2.51 8.1,2.64 13,2c4.52,-1.33 7.88,-3.23 10.44,-7.25c1.88,-3.83 2.26,-7.52 2.56,-11.75z" fill="#09081E" id="svg_42" transform="translate(785,284)"/>
  <path d="m0,0c7.36,2.07 14.47,4.59 21.56,7.44c1,0.38 1.99,0.76 3.02,1.16c0.94,0.38 1.89,0.75 2.86,1.15c0.85,0.33 1.71,0.67 2.59,1.02c1.97,1.23 1.97,1.23 2.82,3.18c0.23,3.17 -1.01,5.43 -2.29,8.3c-0.47,1.08 -0.94,2.16 -1.43,3.27c-0.37,0.82 -0.75,1.64 -1.13,2.48c-6.46,-1.07 -12.25,-3.85 -18.25,-6.37c-1.21,-0.5 -2.42,-0.99 -3.66,-1.5c-1.15,-0.49 -2.3,-0.97 -3.48,-1.47c-1.05,-0.43 -2.11,-0.87 -3.19,-1.33c-2.42,-1.33 -2.42,-1.33 -3.42,-4.33c0.78,-3.14 0.78,-3.14 1.94,-6.69c0.38,-1.18 0.76,-2.36 1.15,-3.57c0.3,-0.91 0.6,-1.81 0.91,-2.74z" fill="#C22A27" id="svg_43" transform="translate(423,555)"/>
  <path d="m0,0c6.68,1.29 12.54,3.27 18.75,6c1.64,0.71 3.28,1.42 4.92,2.13c1.13,0.49 1.13,0.49 2.28,0.99c2.33,1 4.68,1.96 7.05,2.88c-0.6,3.85 -1.77,6.86 -3.56,10.31c-0.46,0.89 -0.91,1.77 -1.38,2.68c-0.35,0.66 -0.7,1.33 -1.06,2.01c-3.29,-1.39 -6.58,-2.79 -9.87,-4.19c-0.92,-0.38 -1.84,-0.77 -2.79,-1.17c-6.23,-2.66 -12.31,-5.54 -18.34,-8.64c0.59,-4.85 1.98,-8.61 4,-13z" fill="#B92725" id="svg_44" transform="translate(413,582)"/>
  <path d="m0,0c0.99,0.99 0.99,0.99 2,2c-0.63,-0.07 -1.25,-0.14 -1.9,-0.21c-7.85,-0.79 -15.65,-1.04 -23.54,-1.1c-1.23,-0.03 -2.46,-0.06 -3.73,-0.09c-10.63,-0.07 -19.9,1.96 -28.89,7.84c-0.88,0.55 -1.76,1.11 -2.66,1.68c-2.49,2.06 -3.79,4.04 -5.28,6.88c-3.63,-0.33 -7.26,-0.66 -11,-1c4.96,-9.92 14.5,-15.54 24.62,-19.38c16.37,-4.57 34.61,-2.41 50.38,3.38z" fill="#DA383B" id="svg_45" transform="translate(515,293)"/>
  <path d="m0,0c0.66,0.33 1.32,0.66 2,1c0,11.22 0,22.44 0,34c-4.47,-2.24 -7.29,-4.85 -10.81,-8.31c-0.61,-0.57 -1.22,-1.14 -1.85,-1.73c-0.86,-0.84 -0.86,-0.84 -1.73,-1.7c-0.79,-0.76 -0.79,-0.76 -1.59,-1.53c-1.02,-1.73 -1.02,-1.73 -0.88,-4.2c0.95,-2.79 1.98,-4.19 4.02,-6.3c0.63,-0.66 1.26,-1.32 1.9,-2c0.66,-0.68 1.32,-1.35 2,-2.04c0.67,-0.7 1.33,-1.39 2.01,-2.1c1.64,-1.71 3.28,-3.4 4.93,-5.09z" fill="#F0F1F4" id="svg_46" transform="translate(743,509)"/>
  <path d="m0,0c0.99,0.33 1.98,0.66 3,1c0,0.66 0,1.32 0,2c0.66,0 1.32,0 2,0c1.59,1.57 1.59,1.57 3.38,3.69c0.61,0.72 1.23,1.45 1.87,2.2c1.94,2.34 3.87,4.71 5.75,7.11c-1.33,2.92 -2.81,5.11 -5,7.45c-0.58,0.62 -1.16,1.24 -1.75,1.88c-0.6,0.63 -1.2,1.27 -1.81,1.92c-0.61,0.65 -1.21,1.3 -1.83,1.97c-3.29,3.51 -3.29,3.51 -4.61,4.78c-0.33,0 -0.66,0 -1,0c0,-11.22 0,-22.44 0,-34z" fill="#F8F9FA" id="svg_47" transform="translate(788,510)"/>
  <path d="m0,0c2.92,1.07 4.78,1.78 7,4c0.33,-0.99 0.66,-1.98 1,-3c3.9,0.53 7.55,1.44 11.31,2.56c9.09,2.5 15.86,1.54 24.69,-1.56c0,1.98 0,3.96 0,6c-8.6,4.67 -18.25,8.02 -28.06,5.19c-5.98,-2.72 -11.16,-7.74 -15.94,-12.19c0,-0.33 0,-0.66 0,-1z" fill="#B72728" id="svg_48" transform="translate(424,389)"/>
  <path d="m0,0c0.33,0 0.66,0 1,0c2.14,14.92 -1.98,28.8 -9,42c-3.12,-0.49 -6,-1 -9,-2c0.64,-3.42 1.99,-5.78 3.87,-8.69c5.81,-9.58 6.71,-18.25 7.13,-29.31c0.66,0.33 1.32,0.66 2,1c0.4,3.1 0.51,6.19 0.66,9.31c0.11,0.89 0.22,1.78 0.34,2.69c0.66,0.33 1.32,0.66 2,1c0.33,-5.28 0.66,-10.56 1,-16z" fill="#AD312D" id="svg_49" transform="translate(471,494)"/>
  <path d="m0,0c4.46,0.99 4.46,0.99 9,2c-0.15,2.07 -0.15,2.07 -0.31,4.19c0.01,10.37 5.77,20.06 10.17,29.23c1.14,2.58 1.14,2.58 1.14,4.58c-0.66,0 -1.32,0 -2,0c-2.31,-4.95 -4.62,-9.9 -7,-15c-1.32,0 -2.64,0 -4,0c-0.33,1.32 -0.66,2.64 -1,4c-3.1,-9.67 -5.78,-18.75 -6,-29z" fill="#B12623" id="svg_50" transform="translate(419,424)"/>
  <path d="m0,0c1.57,0.57 1.57,0.57 3.18,1.14c14.98,5.34 30.11,10.2 45.25,15.06c4.87,1.57 9.72,3.17 14.57,4.8c0,0.33 0,0.66 0,1c-5.09,0.16 -9.69,-0.35 -14.62,-1.55c-0.73,-0.17 -1.45,-0.35 -2.2,-0.52c-9.62,-2.42 -18.92,-5.83 -28.24,-9.18c-1.85,-0.66 -3.7,-1.31 -5.55,-1.97c-4.47,-1.58 -8.93,-3.18 -13.39,-4.78c0.33,-1.32 0.66,-2.64 1,-4z" fill="#E6514C" id="svg_51" transform="translate(494,569)"/>
  <path d="m0,0c5.63,0.85 11.11,2.18 16.63,3.54c4.45,1.07 8.83,1.89 13.37,2.46c-0.66,2.64 -1.32,5.28 -2,8c-5.24,-0.55 -9.97,-1.43 -15,-3c0,-0.99 0,-1.98 0,-3c-1.98,0 -3.96,0 -6,0c0,-0.66 0,-1.32 0,-2c-0.95,0.02 -1.9,0.04 -2.87,0.06c-3.13,-0.06 -3.13,-0.06 -5.13,-1.06c0.33,-1.65 0.66,-3.3 1,-5z" fill="#C3211D" id="svg_52" transform="translate(527,585)"/>
  <path d="m0,0c5.24,0.53 10.05,2.23 15,3.94c0.78,0.26 1.56,0.53 2.37,0.8c1.51,0.51 3.03,1.03 4.54,1.55c2.69,0.92 5.39,1.81 8.09,2.71c0,0.33 0,0.66 0,1c-11.22,0 -22.44,0 -34,0c3,-9 3,-9 4,-10z" fill="#A1323C" id="svg_53" transform="translate(484,597)"/>
  <path d="m0,0c4.66,4.09 6.95,10.15 9.75,15.56c0.92,1.75 0.92,1.75 1.86,3.52c0.58,1.11 1.16,2.22 1.75,3.36c0.53,1.02 1.06,2.04 1.61,3.09c0.34,0.81 0.68,1.63 1.03,2.47c-0.33,0.66 -0.66,1.32 -1,2c-0.33,-0.99 -0.66,-1.98 -1,-3c-0.66,0 -1.32,0 -2,0c0.66,3.63 1.32,7.26 2,11c-2.28,-3.04 -3.7,-5.23 -5.19,-8.59c-0.39,-0.87 -0.78,-1.73 -1.18,-2.63c-0.39,-0.89 -0.79,-1.79 -1.19,-2.72c-0.4,-0.89 -0.8,-1.79 -1.21,-2.71c-5.5,-12.36 -5.5,-12.36 -5.36,-17.16c0.02,-0.79 0.04,-1.58 0.06,-2.4c0.03,-0.88 0.03,-0.88 0.07,-1.79z" fill="#B23130" id="svg_54" transform="translate(441,431)"/>
  <path d="m0,0c0.66,0 1.32,0 2,0c0.6,11.05 1.21,23.99 -6.67,32.88c-0.44,0.37 -0.88,0.74 -1.33,1.12c-0.33,-1.65 -0.66,-3.3 -1,-5c-0.66,0.66 -1.32,1.32 -2,2c-0.99,-0.33 -1.98,-0.66 -3,-1c0.53,-0.82 1.06,-1.65 1.61,-2.5c5.5,-8.87 8.37,-17.28 10.39,-27.5z" fill="#100115" id="svg_55" transform="translate(635,381)"/>
  <path d="m0,0c-0.25,3.33 -1.21,4.2 -3.69,6.56c-2.9,2.28 -5.95,3.92 -9.31,5.44c0,-0.66 0,-1.32 0,-2c-0.99,0 -1.98,0 -3,0c0,0.66 0,1.32 0,2c-0.78,0.2 -1.56,0.41 -2.37,0.62c-1.01,0.27 -2.02,0.54 -3.07,0.82c-1.01,0.26 -2.02,0.53 -3.06,0.81c-2.42,0.51 -2.42,0.51 -3.5,1.75c-2.82,0.13 -5.61,0.19 -8.44,0.19c-0.79,0.01 -1.58,0.02 -2.39,0.03c-2.06,0.01 -4.12,-0.1 -6.17,-0.22c-0.66,-0.66 -1.32,-1.32 -2,-2c1.61,-0.04 1.61,-0.04 3.26,-0.08c13.49,-0.46 27.49,-2.53 38.05,-11.67c2.69,-2.25 2.69,-2.25 5.69,-2.25z" fill="#E25147" id="svg_56" transform="translate(609,447)"/>
  <path d="m0,0c9.12,2.65 17.48,6.88 26,11c0,0.99 0,1.98 0,3c0.66,0 1.32,0 2,0c-0.33,1.32 -0.66,2.64 -1,4c-3.82,-1.38 -6.95,-3.15 -10.3,-5.44c-0.98,-0.67 -1.95,-1.33 -2.96,-2.02c-1.01,-0.69 -2.01,-1.39 -3.05,-2.1c-1.03,-0.7 -2.06,-1.4 -3.11,-2.12c-5.6,-3.83 -5.6,-3.83 -7.58,-5.32c0,-0.33 0,-0.66 0,-1z" fill="#E33B3B" id="svg_57" transform="translate(568,319)"/>
  <path d="m0,0c3.78,3.27 5.69,6.98 7.63,11.5c0.3,0.71 0.61,1.42 0.92,2.15c2.49,6.03 3.96,11.83 4.45,18.35c0.07,0.9 0.14,1.8 0.21,2.73c0.38,9.99 -1.58,19.92 -7.21,28.27c-0.33,-1.32 -0.66,-2.64 -1,-4c0.66,0 1.32,0 2,0c0,-1.32 0,-2.64 0,-4c0.66,0 1.32,0 2,0c0.89,-6.17 1.21,-12.2 1.25,-18.44c0.02,-0.89 0.04,-1.78 0.06,-2.69c0.03,-5.47 -0.66,-9.88 -2.66,-14.98c-0.65,-1.89 -0.65,-1.89 -0.65,-4.89c-0.66,0 -1.32,0 -2,0c-0.19,-0.59 -0.39,-1.18 -0.59,-1.79c-1.35,-4.12 -2.73,-8.21 -4.41,-12.21z" fill="#2A0210" id="svg_58" transform="translate(488,333)"/>
  <path d="m0,0c0.99,0 1.98,0 3,0c-0.62,1.86 -0.62,1.86 -2,4c-10.78,5.2 -25.45,5.81 -37,3c0,-0.99 0,-1.98 0,-3c1.47,0.24 1.47,0.24 2.97,0.48c4.18,0.6 8.31,0.74 12.53,0.77c0.72,0.02 1.44,0.04 2.18,0.06c5.21,0.04 8.63,-1.08 13.32,-3.31c2.94,-0.19 2.94,-0.19 5,0c0,-0.66 0,-1.32 0,-2z" fill="#F04C41" id="svg_59" transform="translate(593,457)"/>
  <path d="m0,0c2.56,1.28 2.87,2.42 4,5c1.88,6.06 2.23,11.83 2.31,18.13c0.02,0.76 0.04,1.52 0.06,2.31c-0.01,5.29 -1.1,8.79 -3.37,13.56c-0.42,3.21 -0.42,3.21 0,6c0.66,0.66 1.32,1.32 2,2c-1.98,-0.33 -3.96,-0.66 -6,-1c0.5,-2.65 1.07,-5.26 1.75,-7.87c2.96,-11.43 3.01,-21.69 0.25,-33.13c-0.34,-1.67 -0.67,-3.33 -1,-5z" fill="#D54345" id="svg_60" transform="translate(497,348)"/>
  <path d="m0,0c6.02,1.88 11.43,4.06 17,7c0,0.33 0,0.66 0,1c-6.93,0 -13.86,0 -21,0c1.32,-2.64 2.64,-5.28 4,-8z" fill="#852028" id="svg_61" transform="translate(440,610)"/>
  <path d="m0,0c2.9,0.37 5.38,0.69 8,2c0,0.66 0,1.32 0,2c0.64,0.12 1.28,0.24 1.93,0.37c1.24,0.25 1.24,0.25 2.51,0.51c0.82,0.16 1.64,0.32 2.49,0.49c0.69,0.21 1.37,0.41 2.07,0.63c0.33,0.66 0.66,1.32 1,2c-6.27,0 -12.54,0 -19,0c0,-7 0,-7 1,-8z" fill="#CD2929" id="svg_62" transform="translate(484,597)"/>
  <path d="m0,0c0.66,0 1.32,0 2,0c0,0.66 0,1.32 0,2c2.97,0.33 5.94,0.66 9,1c0,0.66 0,1.32 0,2c0.61,0.13 1.23,0.27 1.86,0.4c1.22,0.27 1.22,0.27 2.45,0.54c0.8,0.17 1.6,0.35 2.43,0.52c2.26,0.54 2.26,0.54 5.26,1.54c0,0.99 0,1.98 0,3c-5.64,-0.66 -10.61,-2.56 -15.87,-4.56c-0.88,-0.33 -1.76,-0.66 -2.67,-1c-2.15,-0.81 -4.31,-1.62 -6.46,-2.44c0.66,-0.33 1.32,-0.66 2,-1c0,-0.66 0,-1.32 0,-2z" fill="#F74845" id="svg_63" transform="translate(513,445)"/>
  <path d="m0,0c1.45,0 1.45,0 2.93,-0.01c1.5,0.01 1.5,0.01 3.03,0.03c1.51,-0.02 1.51,-0.02 3.06,-0.03c0.96,0 1.92,0.01 2.92,0.01c0.88,0 1.76,0 2.66,0.01c2.17,0.26 2.17,0.26 4.17,2.26c-1.93,0.09 -1.93,0.09 -3.9,0.18c-1.68,0.08 -3.36,0.17 -5.04,0.25c-1.27,0.06 -1.27,0.06 -2.57,0.12c-0.81,0.04 -1.62,0.09 -2.46,0.13c-0.74,0.04 -1.49,0.07 -2.26,0.11c-1.8,0.02 -1.8,0.02 -2.77,1.21c-1.52,0.07 -3.04,0.08 -4.56,0.06c-0.83,-0.01 -1.66,-0.02 -2.51,-0.03c-0.63,-0.01 -1.27,-0.02 -1.93,-0.03c0,0.66 0,1.32 0,2c-0.99,0 -1.98,0 -3,0c1.01,-2.75 1.59,-3.8 4.25,-5.12c2.83,-0.91 5.02,-1.14 7.98,-1.15z" fill="#E82D30" id="svg_64" transform="translate(478.23046875,288.734375)"/>
  <path d="m0,0c1.13,0.18 1.13,0.18 2.28,0.37c8.89,1.4 17.79,2.55 26.72,3.63c-2.74,3.58 -4.99,5.88 -9,8c0,-2.31 0,-4.62 0,-7c-1.39,0.09 -1.39,0.09 -2.81,0.19c-5.23,0.01 -10.3,-1.42 -15.19,-3.19c-0.66,-0.66 -1.32,-1.32 -2,-2z" fill="#9B2C2F" id="svg_65" transform="translate(552,502)"/>
  <path d="m0,0c2.33,8.29 -3.14,16.83 -7,24c0.76,-0.03 1.53,-0.06 2.31,-0.09c3.48,0.12 5.63,1.5 8.69,3.09c2.74,0.7 2.74,0.7 5,1c0,0.66 0,1.32 0,2c-6.18,-0.54 -11.33,-2.55 -17,-5c0.66,-5.64 2.56,-10.61 4.56,-15.87c0.33,-0.88 0.66,-1.76 1,-2.67c0.81,-2.15 1.62,-4.31 2.44,-6.46z" fill="#972E2F" id="svg_66" transform="translate(527,529)"/>
  <path d="m0,0c0.66,0 1.32,0 2,0c0.03,0.61 0.06,1.22 0.09,1.85c1.14,10.94 6.27,20.32 11.02,30.09c0.89,2.06 0.89,2.06 0.89,4.06c-0.66,0 -1.32,0 -2,0c-8.52,-16.12 -8.52,-16.12 -10.53,-25.06c-0.29,-1.93 -0.29,-1.93 -1.47,-2.94c-0.14,-2.67 -0.04,-5.32 0,-8z" fill="#9B2C32" id="svg_67" transform="translate(425,428)"/>
  <path d="m0,0c1.32,0.33 2.64,0.66 4,1c-17.21,15 -17.21,15 -23,15c0,-0.66 0,-1.32 0,-2c0.99,0 1.98,0 3,0c0,-0.66 0,-1.32 0,-2c1.32,0 2.64,0 4,0c0,-0.66 0,-1.32 0,-2c0.99,0 1.98,0 3,0c0,-0.66 0,-1.32 0,-2c0.66,0 1.32,0 2,0c0.1,-0.62 0.21,-1.24 0.31,-1.87c0.69,-2.13 0.69,-2.13 3.69,-4.13c0.99,0 1.98,0 3,0c0,-0.66 0,-1.32 0,-2z" fill="#BA2D33" id="svg_68" transform="translate(609,453)"/>
  <path d="m0,0c0.99,0 1.98,0 3,0c0.84,1.46 1.67,2.91 2.5,4.38c0.7,1.21 0.7,1.21 1.41,2.46c1.09,2.16 1.09,2.16 1.09,4.16c0.66,0.33 1.32,0.66 2,1c-1.32,0.33 -2.64,0.66 -4,1c-6.86,-7.28 -6.86,-7.28 -7,-12c0.33,-0.33 0.66,-0.66 1,-1z" fill="#E84A43" id="svg_69" transform="translate(467,417)"/>
  <path d="m0,0c0.66,0.33 1.32,0.66 2,1c0,4.95 0,9.9 0,15c-0.99,0 -1.98,0 -3,0c-1.72,-1.72 -1.17,-3.97 -1.19,-6.31c-0.01,-0.97 -0.03,-1.93 -0.04,-2.93c0.23,-2.78 0.81,-4.39 2.23,-6.76z" fill="#BB2922" id="svg_70" transform="translate(469,494)"/>
  <path d="m0,0c3.66,0.69 7.22,1.57 10.81,2.56c1.47,0.41 1.47,0.41 2.96,0.82c1.1,0.31 1.1,0.31 2.23,0.62c0,0.66 0,1.32 0,2c1.67,0.33 3.33,0.67 5,1c1.67,0.33 3.33,0.67 5,1c0,0.66 0,1.32 0,2c1.65,0 3.3,0 5,0c0,0.66 0,1.32 0,2c-4.32,-0.59 -8.02,-1.64 -12.05,-3.29c-1.67,-0.67 -1.67,-0.67 -3.36,-1.35c-1.15,-0.47 -2.29,-0.94 -3.46,-1.42c-1.17,-0.47 -2.34,-0.95 -3.54,-1.43c-2.86,-1.17 -5.73,-2.34 -8.59,-3.51c0,-0.33 0,-0.66 0,-1z" fill="#97292F" id="svg_71" transform="translate(497,423)"/>
  <path d="m0,0c0.66,0 1.32,0 2,0c1.33,2.67 2.67,5.33 4,8c0.38,0.69 0.76,1.38 1.16,2.09c1.14,2.59 0.58,4.24 -0.16,6.91c-0.33,-0.99 -0.66,-1.98 -1,-3c-0.99,-0.33 -1.98,-0.66 -3,-1c-2.41,-4.56 -3.38,-7.77 -3,-13z" fill="#C82B26" id="svg_72" transform="translate(453,458)"/>
  <path d="m0,0c1.67,1.67 3.33,3.33 5,5c0.6,0.52 1.2,1.03 1.81,1.56c1.19,1.44 1.19,1.44 1.19,5.44c-2.31,0 -4.62,0 -7,0c-0.33,-3.96 -0.66,-7.92 -1,-12z" fill="#A82424" id="svg_73" transform="translate(417,404)"/>
  <path d="m0,0c1.65,0 3.3,0 5,0c0.33,0.66 0.66,1.32 1,2c-0.99,0 -1.98,0 -3,0c1.37,4 3.26,6.8 6,10c-0.33,0.66 -0.66,1.32 -1,2c-2.64,-1.32 -5.28,-2.64 -8,-4c0,-3.3 0,-6.6 0,-10z" fill="#80212B" id="svg_74" transform="translate(418,387)"/>
  <path d="m0,0c6.94,2.16 13.43,4.89 20,8c-0.99,0.66 -1.98,1.32 -3,2c-0.33,0.66 -0.66,1.32 -1,2c-2.67,-1.81 -5.34,-3.62 -8,-5.44c-0.76,-0.51 -1.53,-1.03 -2.31,-1.56c-0.72,-0.5 -1.45,-0.99 -2.19,-1.5c-0.67,-0.45 -1.34,-0.91 -2.03,-1.38c-0.49,-0.37 -0.97,-0.74 -1.47,-1.12c0,-0.33 0,-0.66 0,-1z" fill="#DE4B4B" id="svg_75" transform="translate(568,319)"/>
  <path d="m0,0c0.33,0 0.66,0 1,0c0.69,9.02 1.15,17.94 1,27c-2,-3 -2,-3 -3,-5c-0.33,0.66 -0.66,1.32 -1,2c-0.66,0 -1.32,0 -2,0c0.2,-0.56 0.41,-1.12 0.62,-1.7c2.48,-7.38 3.06,-14.54 3.38,-22.3z" fill="#C66C6D" id="svg_76" transform="translate(637,384)"/>
  <path d="m0,0c0.66,0 1.32,0 2,0c0.05,2.75 0.09,5.5 0.13,8.25c0.02,1.17 0.02,1.17 0.05,2.36c0.06,7.11 0.06,7.11 -2.18,10.39c0,-2.31 0,-4.62 0,-7c-0.66,0 -1.32,0 -2,0c-0.33,1.32 -0.66,2.64 -1,4c-1.66,-3.33 0.02,-6.68 0.94,-10.12c0.19,-0.76 0.39,-1.51 0.59,-2.29c0.48,-1.87 0.98,-3.73 1.47,-5.59z" fill="#24040D" id="svg_77" transform="translate(635,381)"/>
  <path d="m0,0c0.33,0.66 0.66,1.32 1,2c-6.27,3.45 -11.96,4.39 -19,4.38c-1.13,0 -1.13,0 -2.28,0c-5.45,-0.11 -5.45,-0.11 -7.72,-2.38c1.1,-0.04 2.2,-0.07 3.33,-0.11c8.59,-0.36 16.47,-1.07 24.67,-3.89z" fill="#CA5252" id="svg_78" transform="translate(590,457)"/>
  <path d="m0,0c1.96,0.45 3.92,0.91 5.88,1.38c1.63,0.38 1.63,0.38 3.3,0.77c2.82,0.85 2.82,0.85 4.82,2.85c-0.95,-0.1 -0.95,-0.1 -1.93,-0.2c-7.58,-0.74 -15.14,-1.1 -22.76,-1.36c-1.19,-0.05 -2.38,-0.09 -3.6,-0.13c-2.91,-0.11 -5.81,-0.21 -8.71,-0.31c0,-0.33 0,-0.66 0,-1c7.59,-0.33 15.18,-0.66 23,-1c0,-0.33 0,-0.66 0,-1z" fill="#CD5152" id="svg_79" transform="translate(503,290)"/>
  <path d="m0,0c2.95,2.95 3.09,5.96 4,10c-0.66,0 -1.32,0 -2,0c-0.03,0.61 -0.05,1.21 -0.08,1.84c-0.45,6.68 -2.14,12.09 -4.92,18.16c-0.33,0 -0.66,0 -1,0c0,-1.65 0,-3.3 0,-5c0.66,0 1.32,0 2,0c1.92,-8.4 2.23,-16.4 2,-25z" fill="#D5484B" id="svg_80" transform="translate(633,371)"/>
  <path d="m0,0c0.33,1.32 0.66,2.64 1,4c-0.99,0.5 -0.99,0.5 -2,1c0,1.65 0,3.3 0,5c0.99,0 1.98,0 3,0c-0.33,1.32 -0.66,2.64 -1,4c-6.52,-7.11 -6.52,-7.11 -8,-12c4.75,-2 4.75,-2 7,-2z" fill="#AA2C2B" id="svg_81" transform="translate(466,418)"/>
  <path d="m0,0c0.66,0.33 1.32,0.66 2,1c0,0.66 0,1.32 0,2c-0.66,0 -1.32,0 -2,0c-0.09,0.58 -0.19,1.16 -0.28,1.75c-1.12,3.5 -3.61,5.56 -6.13,8.15c-1.84,2.42 -2.31,4.09 -2.59,7.1c0.84,2.27 0.84,2.27 2,4c-2.5,-2.31 -2.5,-2.31 -5,-5c0,-3.88 1.12,-4.5 3.75,-7.25c3.44,-3.73 5.95,-7.24 8.25,-11.75z" fill="#942C33" id="svg_82" transform="translate(495,393)"/>
  <path d="m0,0c4.07,0.63 8.01,1.48 12,2.5c6.97,1.65 13.86,2.19 21,2.5c0,0.33 0,0.66 0,1c-12.15,0.63 -21.68,-0.33 -33,-5c0,-0.33 0,-0.66 0,-1z" fill="#982532" id="svg_83" transform="translate(543,468)"/>
  <path d="m0,0c1.11,0.6 2.23,1.2 3.38,1.81c0.62,0.34 1.25,0.68 1.89,1.02c1.73,1.17 1.73,1.17 3.73,4.17c-0.66,0 -1.32,0 -2,0c-0.66,1.32 -1.32,2.64 -2,4c-1.03,-1.26 -2.05,-2.53 -3.06,-3.81c-0.86,-1.06 -0.86,-1.06 -1.73,-2.15c-0.4,-0.67 -0.8,-1.35 -1.21,-2.04c0.33,-0.99 0.66,-1.98 1,-3z" fill="#1A0112" id="svg_84" transform="translate(421,388)"/>
  <path d="m0,0c0.66,0.66 1.32,1.32 2,2c-0.99,2.64 -1.98,5.28 -3,8c-1.65,0 -3.3,0 -5,0c-0.33,0.66 -0.66,1.32 -1,2c-0.31,-2.19 -0.31,-2.19 0,-5c2.37,-2.69 2.37,-2.69 5,-5c0.66,-0.66 1.32,-1.32 2,-2z" fill="#E43C37" id="svg_85" transform="translate(615,443)"/>
  <path d="m0,0c0,3.7 -0.67,4.2 -3,7c-0.45,0.55 -0.9,1.1 -1.36,1.67c-2.95,3.56 -5.89,6.58 -9.64,9.33c3.32,-7.05 8.4,-12.67 14,-18z" fill="#1C0110" id="svg_86" transform="translate(575,511)"/>
  <path d="m0,0c0,0.66 0,1.32 0,2c-1.27,0.67 -2.54,1.34 -3.81,2c-0.71,0.37 -1.42,0.74 -2.15,1.13c-2.04,0.87 -2.04,0.87 -5.04,0.87c-0.66,1.65 -1.32,3.3 -2,5c-1.32,-0.33 -2.64,-0.66 -4,-1c0,0.66 0,1.32 0,2c-0.99,-0.33 -1.98,-0.66 -3,-1c13.53,-11 13.53,-11 20,-11z" fill="#E24C48" id="svg_87" transform="translate(420,357)"/>
  <path d="m0,0c10.74,2.71 10.74,2.71 14,7c-2.97,-0.5 -2.97,-0.5 -6,-1c-0.33,0.66 -0.66,1.32 -1,2c-1.17,-0.95 -2.34,-1.91 -3.5,-2.87c-0.65,-0.54 -1.3,-1.07 -1.97,-1.62c-0.5,-0.5 -1.01,-1 -1.53,-1.51c0,-0.66 0,-1.32 0,-2z" fill="#E23F40" id="svg_88" transform="translate(449,345)"/>
  <path d="m0,0c-0.97,0.45 -1.94,0.91 -2.94,1.38c-3.13,1.28 -3.13,1.28 -4.06,3.62c0.6,0.14 1.2,0.29 1.81,0.44c1.75,0.45 3.48,0.99 5.19,1.56c0,0.66 0,1.32 0,2c-0.64,-0.27 -1.28,-0.54 -1.94,-0.81c-3.97,-1.54 -8.01,-2.87 -12.06,-4.19c9.18,-6.12 9.18,-6.12 14,-4z" fill="#C35059" id="svg_89" transform="translate(470,308)"/>
  <path d="m0,0c0.33,0 0.66,0 1,0c0.66,19.51 0.66,19.51 -3,27c-0.99,0.33 -1.98,0.66 -3,1c0.48,-1.6 0.96,-3.21 1.44,-4.81c0.26,-0.9 0.53,-1.79 0.81,-2.71c0.55,-1.83 1.14,-3.66 1.75,-5.48c0.23,-2.57 0.42,-5.12 0.56,-7.69c0.07,-1.05 0.07,-1.05 0.13,-2.12c0.11,-1.73 0.21,-3.46 0.31,-5.19z" fill="#9A363B" id="svg_90" transform="translate(465,496)"/>
  <path d="m0,0c0.66,0.33 1.32,0.66 2,1c-0.66,2.31 -1.32,4.62 -2,7c-5.24,-0.55 -9.97,-1.43 -15,-3c0,-0.33 0,-0.66 0,-1c4.92,-0.17 8.5,-0.25 13,2c0,-0.99 0,-1.98 0,-3c0.66,0 1.32,0 2,0c0,-0.99 0,-1.98 0,-3z" fill="#9A272D" id="svg_91" transform="translate(555,591)"/>
  <path d="m0,0c3.53,2.22 4.61,3.86 5.63,7.88c0.73,2.76 1.44,5.29 2.56,7.93c0.93,2.52 0.96,4.53 0.81,7.19c-2.04,-3.95 -3.83,-8 -5.62,-12.06c-0.33,-0.72 -0.65,-1.44 -0.99,-2.18c-2.39,-5.41 -2.39,-5.41 -2.39,-8.76z" fill="#9D3034" id="svg_92" transform="translate(455,469)"/>
  <path d="m0,0c3.18,1.59 3.87,4.8 5.19,7.94c0.28,0.64 0.57,1.29 0.86,1.96c0.72,1.67 1.34,3.38 1.95,5.1c-0.33,0.66 -0.66,1.32 -1,2c-0.33,-0.99 -0.66,-1.98 -1,-3c-0.99,0 -1.98,0 -3,0c-2.11,-9.41 -2.11,-9.41 -3,-14z" fill="#A02731" id="svg_93" transform="translate(441,469)"/>
  <path d="m0,0c0.66,0.33 1.32,0.66 2,1c-5.45,6.44 -5.45,6.44 -11,13c-0.33,-0.99 -0.66,-1.98 -1,-3c0.66,0 1.32,0 2,0c-0.33,-1.32 -0.66,-2.64 -1,-4c0.78,-0.25 1.57,-0.5 2.37,-0.75c3.01,-1.43 3.38,-2.28 4.63,-5.25c0.66,-0.33 1.32,-0.66 2,-1z" fill="#AA3133" id="svg_94" transform="translate(617,416)"/>
  <path d="m0,0c0.33,0.99 0.66,1.98 1,3c0.74,-0.06 1.48,-0.12 2.25,-0.19c2.75,0.19 2.75,0.19 6.75,3.19c-3.96,0 -7.92,0 -12,0c1,-5 1,-5 2,-6z" fill="#B1221F" id="svg_95" transform="translate(440,610)"/>
  <path d="m0,0c5.11,1.07 10.07,2.23 15,4c0,0.66 0,1.32 0,2c-5.53,-0.73 -10.7,-2.33 -16,-4c0.33,-0.66 0.66,-1.32 1,-2z" fill="#F65049" id="svg_96" transform="translate(522,581)"/>
  <path d="m0,0c4.62,1.65 9.24,3.3 14,5c-3.99,1 -5.19,0.91 -9,0c-2,-0.34 -4,-0.67 -6,-1c0.33,-1.32 0.66,-2.64 1,-4z" fill="#D85A59" id="svg_97" transform="translate(494,569)"/>
  <path d="m0,0c2.23,0.11 4.46,0.24 6.69,0.38c1.24,0.06 2.48,0.13 3.76,0.21c3.24,0.37 5.62,1.03 8.55,2.41c0,0.33 0,0.66 0,1c-6.67,0.46 -12.59,-1.23 -19,-3c0,-0.33 0,-0.66 0,-1z" fill="#E75450" id="svg_98" transform="translate(538,587)"/>
  <path d="m0,0c5.75,1.75 5.75,1.75 8,4c-2.97,-0.5 -2.97,-0.5 -6,-1c-0.2,3.63 0.14,5.87 2,9c-4.9,-4.17 -4.9,-4.17 -5.38,-8.25c0.38,-2.75 0.38,-2.75 1.38,-3.75z" fill="#270109" id="svg_99" transform="translate(418,397)"/>
  <path d="m0,0c3.3,1.65 3.76,4.67 5,8c0,1.32 0,2.64 0,4c-2.94,-0.75 -2.94,-0.75 -6,-2c-0.88,-2.12 -0.88,-2.12 -1,-4c1.32,0.99 2.64,1.98 4,3c-0.66,-2.97 -1.32,-5.94 -2,-9z" fill="#E95C5C" id="svg_100" transform="translate(621,368)"/>
  <path d="m0,0c1.65,0.33 3.3,0.66 5,1c0.04,2 0.04,4 0,6c-1,1 -1,1 -4.56,1.06c-1.14,-0.02 -2.27,-0.04 -3.44,-0.06c0,1.98 0,3.96 0,6c-0.33,0 -0.66,0 -1,0c0,-2.31 0,-4.62 0,-7c2.31,0 4.62,0 7,0c-1.4,-3.55 -1.4,-3.55 -3,-7z" fill="#28030E" id="svg_101" transform="translate(422,409)"/>
  <path d="m0,0c5.26,0.67 10.03,2.24 15,4c-0.33,0.99 -0.66,1.98 -1,3c-1.32,-0.33 -2.64,-0.66 -4,-1c0.33,-0.66 0.66,-1.32 1,-2c-3.63,-0.66 -7.26,-1.32 -11,-2c0,-0.66 0,-1.32 0,-2z" fill="#DA5653" id="svg_102" transform="translate(508,575)"/>
  <path d="m0,0c7.75,0.88 7.75,0.88 10,2c0,0.99 0,1.98 0,3c-7.75,-1.87 -7.75,-1.87 -10,-3c0,-0.66 0,-1.32 0,-2z" fill="#F84A45" id="svg_103" transform="translate(542,457)"/>
  <path d="m0,0c2.97,2.71 3.88,5.13 5,9c-0.99,-0.33 -1.98,-0.66 -3,-1c-0.33,0.99 -0.66,1.98 -1,3c-1.2,-2.41 -1.1,-3.95 -1.06,-6.62c0.01,-0.82 0.02,-1.64 0.02,-2.48c0.02,-0.63 0.03,-1.25 0.04,-1.9z" fill="#9E3B3F" id="svg_104" transform="translate(441,431)"/>
  <path d="m0,0c0,3.96 -1.21,6.49 -3,10c-2.19,1.44 -2.19,1.44 -4,2c1.56,-4.67 4.08,-8.09 7,-12z" fill="#E44F4F" id="svg_105" transform="translate(396,372)"/>
  <path d="m0,0c1.98,0 3.96,0 6,0c-0.19,1.81 -0.19,1.81 -1,4c-2.56,1.75 -2.56,1.75 -5,3c0,-2.31 0,-4.62 0,-7z" fill="#AB2929" id="svg_106" transform="translate(572,507)"/>
  <path d="m0,0c9.59,2.89 9.59,2.89 13,6c-1.7,0.68 -1.7,0.68 -4,1c-2.36,-1.18 -2.36,-1.18 -4.75,-2.87c-0.8,-0.56 -1.6,-1.11 -2.42,-1.68c-0.61,-0.48 -1.21,-0.96 -1.83,-1.45c0,-0.33 0,-0.66 0,-1z" fill="#C74B50" id="svg_107" transform="translate(568,319)"/>
  <path d="m0,0c0.99,0 1.98,0 3,0c-0.58,2.39 -1.22,4.67 -2,7c-1.32,0 -2.64,0 -4,0c1.87,-5.87 1.87,-5.87 3,-7z" fill="#BC3235" id="svg_108" transform="translate(493,573)"/>
  <path d="m0,0c4.38,1.23 8.7,2.53 13,4c0,0.66 0,1.32 0,2c-4.27,-0.5 -8.17,-0.97 -12,-3c-0.33,-0.99 -0.66,-1.98 -1,-3z" fill="#A22C2A" id="svg_109" transform="translate(523,553)"/>
  <path d="m0,0c2.44,0.75 2.44,0.75 5,2c0.81,2.13 0.81,2.13 1,4c-1.32,-0.66 -2.64,-1.32 -4,-2c-0.33,1.32 -0.66,2.64 -1,4c-1.35,-2.71 -1.07,-5.01 -1,-8z" fill="#B53431" id="svg_110" transform="translate(443,439)"/>
  <path d="m0,0c2.97,0.49 2.97,0.49 6,1c0,1.32 0,2.64 0,4c-2.97,-0.5 -2.97,-0.5 -6,-1c0,-1.32 0,-2.64 0,-4z" fill="#F43535" id="svg_111" transform="translate(457,351)"/>
  <path d="m0,0c2.66,1.33 2.98,2.69 4.19,5.38c0.36,0.79 0.73,1.58 1.1,2.39c0.71,2.23 0.71,2.23 -0.29,5.23c-0.27,-0.56 -0.54,-1.11 -0.81,-1.69c-1.18,-2.39 -1.18,-2.39 -2.81,-4.81c-1.38,-2.5 -1.38,-2.5 -1.38,-6.5z" fill="#A52F33" id="svg_112" transform="translate(457,461)"/>
  <path d="m0,0c1.65,0 3.3,0 5,0c0.33,0.66 0.66,1.32 1,2c-1.65,-0.33 -3.3,-0.66 -5,-1c0,1.98 0,3.96 0,6c0.99,0.33 1.98,0.66 3,1c0,0.66 0,1.32 0,2c-1.32,0 -2.64,0 -4,0c0,-3.3 0,-6.6 0,-10z" fill="#AD2124" id="svg_113" transform="translate(418,387)"/>
  <path d="m0,0c0.33,0 0.66,0 1,0c0,1.65 0,3.3 0,5c0.66,0 1.32,0 2,0c0,0.66 0,1.32 0,2c1.32,0.33 2.64,0.66 4,1c-0.99,0.49 -0.99,0.49 -2,1c-2.36,-0.94 -4.7,-1.93 -7,-3c0.66,-1.98 1.32,-3.96 2,-6z" fill="#270211" id="svg_114" transform="translate(442,604)"/>
  <path d="m0,0c1.98,0.99 1.98,0.99 4,2c0,1.65 0,3.3 0,5c-0.99,0.5 -0.99,0.5 -2,1c-2.15,-3.23 -2.2,-4.28 -2,-8z" fill="#CC2F2A" id="svg_115" transform="translate(445,443)"/>
  <path d="m0,0c1.32,0 2.64,0 4,0c0,0.66 0,1.32 0,2c0.66,0 1.32,0 2,0c-0.33,1.32 -0.66,2.64 -1,4c-1.94,-0.75 -1.94,-0.75 -4,-2c-0.75,-2.12 -0.75,-2.12 -1,-4z" fill="#EA312E" id="svg_116" transform="translate(590,331)"/>
  <path d="m0,0c0.66,0 1.32,0 2,0c-0.66,4.39 -2.19,7.98 -4,12c-0.33,0 -0.66,0 -1,0c0,-1.65 0,-3.3 0,-5c0.66,0 1.32,0 2,0c0.33,-2.31 0.66,-4.62 1,-7z" fill="#9D2E32" id="svg_117" transform="translate(444,594)"/>
  <path d="m0,0c0.66,0.33 1.32,0.66 2,1c-1,3 -1,3 -3.88,4.75c-3.12,1.25 -3.12,1.25 -6.12,0.25c2.64,-1.98 5.28,-3.96 8,-6z" fill="#D4312B" id="svg_118" transform="translate(607,451)"/>
  <path d="m0,0c0.66,0.33 1.32,0.66 2,1c-2.97,2.64 -5.94,5.28 -9,8c-0.66,-0.33 -1.32,-0.66 -2,-1c2.85,-2.93 5.65,-5.64 9,-8z" fill="#FEE4E7" id="svg_119" transform="translate(461,299)"/>
  <path d="m0,0c1.32,0.33 2.64,0.66 4,1c-2.31,2.97 -4.62,5.94 -7,9c0,-3 0,-3 1,-6c0.66,0 1.32,0 2,0c0,-1.32 0,-2.64 0,-4z" fill="#9F2C2A" id="svg_120" transform="translate(565,517)"/>
  <path d="m0,0c1.32,0.33 2.64,0.66 4,1c-1.46,0.84 -2.91,1.67 -4.38,2.5c-1.21,0.7 -1.21,0.7 -2.46,1.41c-2.16,1.09 -2.16,1.09 -4.16,1.09c0,-0.66 0,-1.32 0,-2c0.99,0 1.98,0 3,0c0,-0.66 0,-1.32 0,-2c1.32,0 2.64,0 4,0c0,-0.66 0,-1.32 0,-2z" fill="#A72932" id="svg_121" transform="translate(597,463)"/>
  <path d="m0,0c0.66,0.33 1.32,0.66 2,1c-1.48,2.48 -1.48,2.48 -3,5c-0.33,-0.66 -0.66,-1.32 -1,-2c-0.99,0 -1.98,0 -3,0c0,0.66 0,1.32 0,2c-0.66,0 -1.32,0 -2,0c1,-3 1,-3 3.94,-4.75c1.01,-0.41 2.02,-0.82 3.06,-1.25z" fill="#DB554D" id="svg_122" transform="translate(598,453)"/>
  <path d="m0,0c0.33,0.99 0.66,1.98 1,3c-0.99,0.33 -1.98,0.66 -3,1c-0.73,2.02 -0.73,2.02 -1,4c-1.32,-0.33 -2.64,-0.66 -4,-1c2.31,-2.31 4.62,-4.62 7,-7z" fill="#CC4B48" id="svg_123" transform="translate(614,439)"/>
  <path d="m0,0c-0.64,0.29 -1.28,0.58 -1.94,0.88c-2.21,0.95 -2.21,0.95 -3.06,3.12c-1.65,-0.33 -3.3,-0.66 -5,-1c6.05,-4.97 6.05,-4.97 10,-3z" fill="#C52924" id="svg_124" transform="translate(615,420)"/>
  <path d="m0,0c0.33,0 0.66,0 1,0c0.2,4.22 -0.2,7.17 -2,11c-0.66,0 -1.32,0 -2,0c0.31,-1.46 0.62,-2.92 0.94,-4.37c0.17,-0.82 0.35,-1.63 0.52,-2.47c0.54,-2.16 0.54,-2.16 1.54,-4.16z" fill="#DF5051" id="svg_125" transform="translate(380,568)"/>
  <path d="m0,0c2.35,2.35 2.73,3.96 3.63,7.13c0.26,0.91 0.52,1.82 0.78,2.75c0.29,1.05 0.29,1.05 0.59,2.12c-2.3,-1.78 -3.8,-3.16 -4.49,-6.05c-0.23,-1.97 -0.38,-3.96 -0.51,-5.95z" fill="#9E2C32" id="svg_126" transform="translate(464,475)"/>
  <path d="m0,0c1.32,0.33 2.64,0.66 4,1c-2.97,2.48 -2.97,2.48 -6,5c-0.66,-0.99 -1.32,-1.98 -2,-3c1.32,-0.33 2.64,-0.66 4,-1c0,-0.66 0,-1.32 0,-2z" fill="#BE363A" id="svg_127" transform="translate(609,453)"/>
  <path d="m0,0c0.33,0.66 0.66,1.32 1,2c-1.27,2.04 -2.61,4.04 -4,6c-0.66,0 -1.32,0 -2,0c0,0.66 0,1.32 0,2c-0.66,-0.33 -1.32,-0.66 -2,-1c2.31,-2.97 4.62,-5.94 7,-9z" fill="#2D0412" id="svg_128" transform="translate(624,440)"/>
  <path d="m0,0c2.29,3.44 2.18,4.99 2,9c-1.65,-1.65 -3.3,-3.3 -5,-5c0.99,-1.32 1.98,-2.64 3,-4z" fill="#FECECE" id="svg_129" transform="translate(460,360)"/>
  <path d="m0,0c1.32,0.33 2.64,0.66 4,1c0.66,2.31 1.32,4.62 2,7c-0.99,0.49 -0.99,0.49 -2,1c-4,-6.75 -4,-6.75 -4,-9z" fill="#E9494F" id="svg_130" transform="translate(615,358)"/>
  <path d="m0,0c0.33,0 0.66,0 1,0c0.49,6.4 0.49,6.4 -2,9.44c-0.99,0.77 -0.99,0.77 -2,1.56c0.67,-3.81 1.73,-7.35 3,-11z" fill="#240417" id="svg_131" transform="translate(454,573)"/>
  <path d="m0,0c0.33,0.99 0.66,1.98 1,3c-2.31,1.65 -4.62,3.3 -7,5c-0.66,-0.33 -1.32,-0.66 -2,-1c2.64,-2.31 5.28,-4.62 8,-7z" fill="#1E000E" id="svg_132" transform="translate(604,433)"/>
  <path d="m0,0c0.75,1.69 0.75,1.69 1,4c-1.94,2.75 -1.94,2.75 -4,5c0,-1.98 0,-3.96 0,-6c0.66,0 1.32,0 2,0c0.33,-0.99 0.66,-1.98 1,-3z" fill="#1F0210" id="svg_133" transform="translate(632,406)"/>
  <path d="m0,0c1.56,1.81 1.56,1.81 3,4c-0.33,0.99 -0.66,1.98 -1,3c-1.98,-1.65 -3.96,-3.3 -6,-5c1.32,-0.66 2.64,-1.32 4,-2z" fill="#FEE0DE" id="svg_134" transform="translate(621,371)"/>
  <path d="m0,0c0.66,0.33 1.32,0.66 2,1c-1.65,1.32 -3.3,2.64 -5,4c-1.32,-0.66 -2.64,-1.32 -4,-2c2.3,-1.07 4.64,-2.06 7,-3z" fill="#0D0E1D" id="svg_135" transform="translate(465,734)"/>
  <path d="m0,0c2.64,0.66 5.28,1.32 8,2c-1.32,0.99 -2.64,1.98 -4,3c-2,-1.37 -2,-1.37 -4,-3c0,-0.66 0,-1.32 0,-2z" fill="#D2494A" id="svg_136" transform="translate(449,345)"/>
  <path d="m0,0c0.54,0.23 1.07,0.45 1.63,0.69c-3.3,1.72 -6.34,3.29 -10.01,4c0,-0.66 0,-1.32 0,-2c5.42,-3.08 5.42,-3.08 8.38,-2.69z" fill="#E14A4B" id="svg_137" transform="translate(468.375,307.3125)"/>
  <path d="m0,0c1.94,0.75 1.94,0.75 4,2c0.75,2.13 0.75,2.13 1,4c-1.32,-0.33 -2.64,-0.66 -4,-1c-0.33,-1.65 -0.66,-3.3 -1,-5z" fill="#17162B" id="svg_138" transform="translate(583,268)"/>
  <path d="m0,0c0.33,1.32 0.66,2.64 1,4c-1.98,1.32 -3.96,2.64 -6,4c1.37,-2.95 2.99,-5.44 5,-8z" fill="#0A091A" id="svg_139" transform="translate(482,720)"/>
  <path d="m0,0c0.99,0.33 1.98,0.66 3,1c-0.55,3.37 -1.05,5.08 -3,8c0,-2.97 0,-5.94 0,-9z" fill="#AA3135" id="svg_140" transform="translate(453,567)"/>
  <path d="m0,0c0.66,0.33 1.32,0.66 2,1c0,0.66 0,1.32 0,2c-0.66,0 -1.32,0 -2,0c-0.12,0.62 -0.25,1.24 -0.38,1.88c-0.62,2.12 -0.62,2.12 -2.62,4.12c0.5,-3.73 0.87,-5.81 3,-9z" fill="#A4292C" id="svg_141" transform="translate(495,393)"/>
  <path d="m0,0c3.26,1.8 4.89,2.83 7,6c-0.99,0.5 -0.99,0.5 -2,1c0,-0.66 0,-1.32 0,-2c-1.32,-0.33 -2.64,-0.66 -4,-1c-0.33,-1.32 -0.66,-2.64 -1,-4z" fill="#DF494D" id="svg_142" transform="translate(611,342)"/>
 </g>
</svg>