<?xml version="1.0" standalone="no"?>
<!DOCTYPE svg PUBLIC "-//W3C//DTD SVG 1.1//EN" "http://www.w3.org/Graphics/SVG/1.1/DTD/svg11.dtd" >
<svg xmlns="http://www.w3.org/2000/svg" xmlns:xlink="http://www.w3.org/1999/xlink" version="1.1">
<metadata>
Created by FontForge 20170731 at Wed Aug 19 17:24:59 2020
 By Aleksey,,,
Copyright 2011 Google Inc. All Rights Reserved.
</metadata>
<defs>
<font id="Roboto-BoldItalic" horiz-adv-x="1121" >
  <font-face 
    font-family="Roboto"
    font-weight="700"
    font-style="italic"
    font-stretch="normal"
    units-per-em="2048"
    panose-1="2 0 0 0 0 0 0 0 0 0"
    ascent="1536"
    descent="-512"
    x-height="1082"
    cap-height="1456"
    bbox="-1458 -555 2457 2163"
    underline-thickness="100"
    underline-position="-300"
    slope="-12"
    unicode-range="U+0002-FFFD"
  />
<missing-glyph horiz-adv-x="918" 
d="M777 1456v-54h-650v54h650zM154 1456v-1456h-54v1456h54zM808 1456v-1456h-54v1456h54zM777 54v-54h-650v54h650zM777 1426l-593 -1396h-58l593 1396h58zM719 30l-593 1396h58l593 -1396h-58z" />
    <glyph glyph-name="uniFB01" unicode="fi" horiz-adv-x="1211" 
d="M355 0h-283l193 1130q19 141 89 237t180.5 144.5t249.5 46.5q83 -1 163.5 -19t160.5 -40l-64 -231q-62 21 -126 35t-130 14q-93 1 -157.5 -45.5t-81.5 -140.5zM751 1082l-36 -204h-647l37 204h646zM1172 1082l-188 -1082h-281l187 1082h282z" />
    <glyph glyph-name="uniFB02" unicode="fl" horiz-adv-x="1217" 
d="M361 0h-282l198 1164q17 131 83 220t170 133t234 42q81 -1 163 -6.5t163 -14t161 -16.5l-140 -225q-79 14 -159.5 25.5t-160.5 11.5q-56 0 -104 -18t-81.5 -55.5t-43.5 -95.5zM709 0l264 1523h282l-264 -1523h-282zM759 1082l-36 -204h-648l36 204h648z" />
    <glyph glyph-name="uniFB03" unicode="ffi" horiz-adv-x="1847" 
d="M361 0h-282l200 1178q16 119 72.5 205.5t149 133t214.5 43.5q38 0 76.5 -6.5t75.5 -14.5l-24 -218q-20 6 -41 9t-43 3q-51 0 -91.5 -17.5t-67 -52t-36.5 -85.5zM763 1082l-37 -204h-651l36 204h652zM991 0h-282l192 1130q19 141 88.5 236.5t180 144.5t249.5 47
q83 -1 163 -19t159 -39l-62 -232q-61 21 -125 34.5t-131 13.5q-92 0 -156.5 -45.5t-81.5 -139.5zM1387 1082l-36 -204h-647l36 204h647zM1808 1082l-188 -1082h-282l188 1082h282z" />
    <glyph glyph-name="uniFB04" unicode="ffl" horiz-adv-x="1847" 
d="M361 0h-282l200 1178q16 119 72.5 205.5t149 132.5t214.5 44q38 -1 76.5 -7t75.5 -14l-24 -218q-20 6 -41.5 9t-42.5 3q-51 0 -91 -17.5t-67 -52t-37 -85.5zM763 1082l-37 -204h-651l36 204h652zM991 0h-282l197 1163q17 133 83 220.5t170 131.5t233 43q82 0 163.5 -6
t163.5 -14t162 -16l-139 -225q-80 13 -160.5 24t-160.5 11q-57 1 -105 -17t-81 -55t-44 -95zM1338 0l264 1523h283l-265 -1523h-282zM1389 1082l-36 -204h-649l36 204h649z" />
    <glyph glyph-name=".notdef" horiz-adv-x="918" 
d="M777 1456v-54h-650v54h650zM154 1456v-1456h-54v1456h54zM808 1456v-1456h-54v1456h54zM777 54v-54h-650v54h650zM777 1426l-593 -1396h-58l593 1396h58zM719 30l-593 1396h58l593 -1396h-58z" />
    <glyph glyph-name="uni0000" horiz-adv-x="0" 
 />
    <glyph glyph-name="uni0000" horiz-adv-x="0" 
 />
    <glyph glyph-name="uni000D" unicode="&#xd;" horiz-adv-x="504" 
 />
    <glyph glyph-name="uni0002" horiz-adv-x="0" 
 />
    <glyph glyph-name="space" unicode=" " horiz-adv-x="504" 
 />
    <glyph glyph-name="exclam" unicode="!" horiz-adv-x="537" 
d="M574 1456l-208 -1011h-234l143 1011h299zM38 127q-2 68 44.5 111.5t112.5 43.5q64 1 110 -39.5t47 -105.5q1 -67 -45.5 -110.5t-112.5 -43.5q-63 -1 -109 39t-47 105z" />
    <glyph glyph-name="quotedbl" unicode="&#x22;" horiz-adv-x="633" 
d="M403 1537l-24 -152l-98 -392h-161l62 393l24 151h197zM718 1537l-24 -152l-98 -392h-160l63 402l22 142h197z" />
    <glyph glyph-name="numbersign" unicode="#" horiz-adv-x="1176" 
d="M101 0l499 1456h183l-499 -1456h-183zM465 0l499 1456h183l-499 -1456h-183zM1187 871h-1011l30 169h1011zM1034 410h-1011l29 168h1011z" />
    <glyph glyph-name="dollar" unicode="$" horiz-adv-x="1140" 
d="M852 1687l-48 -295h-153l47 295h154zM577 54l-42 -269h-153l43 269h152zM736 390q8 58 -11.5 99t-57.5 70t-86 51q-102 47 -188.5 104t-136 140t-41.5 210q8 132 79.5 225.5t181.5 142t237 46.5q104 -2 181.5 -39t128 -100.5t74 -148.5t19.5 -184l-281 1q2 38 -1.5 80.5
t-18 79t-44 60t-78.5 24.5q-57 2 -99 -23t-67.5 -67.5t-32.5 -96.5q-8 -58 12 -97.5t59 -67.5t86 -51q100 -48 186 -106t135.5 -141.5t42.5 -208.5q-10 -137 -82.5 -230t-186 -139.5t-241.5 -44.5q-109 2 -193 36.5t-140.5 97.5t-84.5 150t-24 193h281q-2 -47 4.5 -92
t26 -80t55 -56.5t90.5 -21.5q57 -1 103.5 22t76 64.5t36.5 98.5z" />
    <glyph glyph-name="percent" unicode="%" horiz-adv-x="1469" 
d="M182 1099l6 77q9 90 54 159t118 106.5t165 35.5q88 -1 152 -40t97.5 -106.5t27.5 -154.5l-6 -77q-9 -90 -54 -158.5t-117.5 -105.5t-163.5 -35q-87 1 -151.5 39.5t-98.5 106t-29 153.5zM379 1176l-10 -80q-2 -33 5.5 -63.5t29 -50.5t60.5 -21q41 -1 70.5 18.5t47.5 51.5
t24 68l11 78q3 34 -5 65.5t-29.5 52t-60.5 21.5q-41 1 -71 -19t-48 -52.5t-24 -68.5zM716 279l6 78q8 90 54 158.5t119 106t164 36.5q89 -2 153 -41t97.5 -106t28.5 -154l-7 -78q-9 -90 -53.5 -158.5t-117.5 -106t-164 -35.5q-88 2 -152.5 40.5t-98.5 106t-29 153.5z
M913 357l-8 -81q-3 -32 5.5 -63t30.5 -51t58 -21q44 -2 73.5 16.5t47 51t22.5 71.5l11 78q2 34 -5.5 65t-29.5 51.5t-61 21.5q-40 1 -70.5 -18.5t-49 -51.5t-24.5 -69zM1259 1239l-878 -1127l-136 82l879 1126z" />
    <glyph glyph-name="ampersand" unicode="&#x26;" horiz-adv-x="1306" 
d="M346 780l302 181q48 30 85.5 71t44.5 101q6 49 -22.5 84t-80.5 36q-44 1 -78.5 -21.5t-55.5 -59t-27 -77.5q-8 -54 12 -106t52 -99.5t60 -89.5l543 -800h-302l-442 648q-42 64 -83.5 135t-66.5 148t-19 158q8 115 64.5 204t149.5 138t210 46q92 -2 168 -44t119.5 -115
t38.5 -169q-4 -73 -36.5 -133.5t-82 -109t-106.5 -87.5l-349 -227q-28 -23 -53.5 -54t-42.5 -66.5t-22 -72.5q-7 -52 9 -95.5t52.5 -70.5t90.5 -30q102 -4 187 40t149.5 119.5t104.5 166.5t52 181l236 1q-9 -108 -41.5 -209.5t-92 -188.5t-147.5 -154q-10 -7 -19.5 -14.5
t-18.5 -15.5q-97 -71 -207 -111.5t-232 -37.5q-119 2 -215.5 51t-151 138.5t-46.5 214.5q5 93 52 165t116 128.5t142 102.5z" />
    <glyph glyph-name="quotesingle" unicode="'" horiz-adv-x="320" 
d="M414 1536l-25 -158l-89 -386h-178l62 393l23 151h207z" />
    <glyph glyph-name="parenleft" unicode="(" horiz-adv-x="694" 
d="M117 565l3 23q20 146 66.5 301t123 298.5t186 257t255.5 175.5l43 -156q-103 -76 -177.5 -176t-126 -214t-84 -236t-50.5 -246l-3 -26q-14 -98 -22 -218.5t2.5 -244.5t52.5 -232t129 -181l-64 -146q-127 71 -202 190.5t-109 263.5t-37 292t14 275z" />
    <glyph glyph-name="parenright" unicode=")" horiz-adv-x="697" 
d="M588 597l-3 -23q-20 -146 -69 -301.5t-127.5 -300t-190.5 -257.5t-259 -173l-44 152q103 77 177.5 177t126 215t84 237.5t49.5 245.5l4 26q14 97 22 218t-3 245t-52.5 232.5t-127.5 178.5l65 149q127 -71 203.5 -190t113.5 -263t42 -292t-11 -276z" />
    <glyph glyph-name="asterisk" unicode="*" horiz-adv-x="902" 
d="M138 702l255 269l-291 89l84 168l289 -127l42 355h190l-81 -348l311 118l27 -187l-331 -91l163 -272l-160 -102l-128 293l-225 -279z" />
    <glyph glyph-name="plus" unicode="+" horiz-adv-x="1082" 
d="M1060 811l-44 -251h-970l44 251h970zM778 1206l-184 -1060h-267l184 1060h267z" />
    <glyph glyph-name="comma" unicode="," horiz-adv-x="489" 
d="M313 243l-33 -192q-19 -123 -85 -228.5t-163 -181.5l-145 78q31 52 62 101.5t55 102t36 113.5l36 207h237z" />
    <glyph glyph-name="hyphen" unicode="-" horiz-adv-x="782" 
d="M685 738l-40 -226h-549l39 226h550z" />
    <glyph glyph-name="period" unicode="." horiz-adv-x="576" 
d="M42 134q-1 68 45.5 112t113.5 44q64 1 110.5 -39.5t47.5 -106.5q1 -68 -45.5 -112t-113.5 -44q-64 -1 -110.5 39.5t-47.5 106.5z" />
    <glyph glyph-name="slash" unicode="/" horiz-adv-x="737" 
d="M866 1456l-792 -1581h-219l792 1581h219z" />
    <glyph glyph-name="zero" unicode="0" horiz-adv-x="1140" 
d="M1089 856l-38 -251q-18 -120 -57.5 -232.5t-106.5 -202.5t-166 -141.5t-237 -48.5q-105 2 -178.5 39t-120 98.5t-70 141t-27 168t7.5 177.5l37 252q18 119 58 231t107 201.5t166.5 140t236.5 47.5q105 -2 178.5 -38.5t120 -97.5t70 -140t27 -167t-7.5 -177zM765 566
l49 331q4 36 8.5 81.5t2 92.5t-16 87.5t-43.5 66.5t-82 28q-72 3 -119.5 -30.5t-76 -89.5t-43.5 -119t-24 -119l-48 -330q-4 -36 -8.5 -82t-2 -94t15.5 -89t43 -67.5t82 -29.5q72 -3 120 31.5t76.5 91t43.5 121t23 119.5z" />
    <glyph glyph-name="one" unicode="1" horiz-adv-x="1140" 
d="M920 1459l-246 -1459h-281l195 1121l-354 -109l41 238l609 209h36z" />
    <glyph glyph-name="two" unicode="2" horiz-adv-x="1140" 
d="M1006 225l-36 -225h-967l31 203l525 495q46 45 98.5 100t93 117.5t50.5 131.5q7 53 -5 99.5t-46 76.5t-94 31q-72 2 -122 -34.5t-79 -95t-37 -122.5l-279 -2q9 142 84.5 250.5t194 169t258.5 57.5q124 -2 222 -48.5t151 -136t42 -220.5q-8 -90 -46.5 -168t-96 -147
t-122.5 -130.5t-126 -118.5l-293 -281z" />
    <glyph glyph-name="three" unicode="3" horiz-adv-x="1140" 
d="M422 853l138 -2q67 2 121.5 26.5t88.5 72.5t42 116q7 55 -9.5 96.5t-53.5 65.5t-93 26q-55 1 -99.5 -21t-74.5 -61t-40 -92l-282 -2q8 129 82.5 219t186.5 136t233 45q124 -2 226 -48.5t160 -137t49 -223.5q-5 -92 -51 -161.5t-117.5 -115.5t-155 -69.5t-166.5 -23.5
l-209 1zM388 634l24 149l179 -1q85 -2 163.5 -24t139 -65.5t93.5 -112.5t28 -164q-7 -108 -55.5 -191t-126 -138t-173 -82t-195.5 -26q-95 2 -175.5 31.5t-140.5 83.5t-92 131t-31 175l279 -1q-1 -56 20.5 -99t62 -68t98.5 -26q65 -1 119 25t88.5 74.5t42.5 113.5
q9 68 -10.5 114.5t-63.5 72t-110 27.5z" />
    <glyph glyph-name="four" unicode="4" horiz-adv-x="1140" 
d="M1078 544l-39 -226h-1019l19 189l744 949h241l-321 -426l-375 -485zM1075 1456l-252 -1456h-281l253 1456h280z" />
    <glyph glyph-name="five" unicode="5" horiz-adv-x="1140" 
d="M383 665l-229 57l195 734h797l-37 -233h-561l-97 -325q48 29 103.5 43t109.5 14q104 0 178.5 -39.5t120.5 -106.5t64.5 -153.5t10.5 -181.5q-9 -108 -52 -199.5t-114.5 -158.5t-165.5 -103t-204 -34q-93 2 -172 33t-138 87.5t-92 134t-33 171.5h277q3 -54 21 -98.5
t54.5 -71.5t96.5 -29q60 -1 103 23t72 66t45 93t21 102q5 48 -1.5 93.5t-26.5 81.5t-57 57t-92 22q-58 1 -107.5 -19t-89.5 -60z" />
    <glyph glyph-name="six" unicode="6" horiz-adv-x="1140" 
d="M942 1472h47l-23 -231h-13q-111 2 -204 -32t-165.5 -97.5t-119 -152t-62.5 -196.5l-33 -243q-5 -45 -3.5 -99t16.5 -102.5t49.5 -80t95.5 -33.5q56 -1 99.5 23.5t74 66t48 91.5t23.5 99q5 43 -0.5 89t-23.5 86t-52 65t-87 26q-64 1 -117 -28t-89 -78.5t-50 -110.5l-79 56
q11 83 48 153.5t94.5 123t131.5 81t160 26.5q100 -2 169 -45t111 -113.5t57.5 -156t8.5 -172.5q-9 -106 -53 -199t-115.5 -163t-165 -109t-202.5 -37q-120 3 -205.5 52.5t-138.5 132t-73.5 184t-8.5 209.5l14 112q23 167 90 312.5t174 255.5t251 172t321 63z" />
    <glyph glyph-name="seven" unicode="7" horiz-adv-x="1140" 
d="M1191 1456l-26 -169l-742 -1287h-308l739 1231h-698l36 225h999z" />
    <glyph glyph-name="eight" unicode="8" horiz-adv-x="1140" 
d="M1013 407q-9 -141 -85 -237.5t-193.5 -144.5t-250.5 -45q-123 2 -223.5 49.5t-157 138.5t-47.5 223q7 102 54.5 180t122.5 130.5t166 78.5t186 24q117 -2 217.5 -48.5t159.5 -134t51 -214.5zM735 427q6 54 -9 101t-51.5 76.5t-96.5 30.5q-65 1 -116 -29t-82.5 -82
t-38.5 -114q-6 -55 9.5 -101.5t53 -75t97.5 -29.5q65 -1 115.5 28.5t81 80.5t37.5 114zM1102 1078q-9 -127 -82.5 -213.5t-184 -131t-227.5 -41.5q-108 2 -202.5 45t-150.5 125t-50 200q8 134 78 227.5t180 142t238 45.5q119 -2 212.5 -50t144.5 -136.5t44 -212.5zM817 1065
q5 47 -6.5 90t-43 70t-84.5 28q-58 1 -101 -27.5t-68 -75.5t-31 -101q-5 -48 6.5 -91t42.5 -71.5t85 -28.5q59 -1 101.5 28t67.5 77t31 102z" />
    <glyph glyph-name="nine" unicode="9" horiz-adv-x="1140" 
d="M228 219h15q108 -2 197.5 26t157.5 84t111 138.5t59 189.5l38 277q5 42 4 96t-14.5 104t-46 83.5t-92.5 34.5q-55 2 -97 -26t-71.5 -73t-46 -97t-20.5 -98q-5 -43 -1 -89.5t21 -88t49.5 -68t85.5 -27.5q49 -1 90 16.5t73 49t53 72t29 85.5l88 -52q-9 -77 -44.5 -146.5
t-91.5 -123.5t-127 -85t-151 -30q-100 2 -171 43.5t-114.5 111t-61 154.5t-9.5 175q9 106 52.5 201t114.5 168t165.5 114.5t204.5 38.5q121 -3 203 -55.5t130.5 -139t65 -190t5.5 -208.5l-13 -101q-17 -137 -63 -258.5t-117.5 -220t-168.5 -170t-218.5 -110.5t-266.5 -39
h-29z" />
    <glyph glyph-name="colon" unicode=":" horiz-adv-x="570" 
d="M39 134q-1 68 45.5 112t113.5 44q64 1 110.5 -39.5t47.5 -106.5q1 -68 -45.5 -112t-113.5 -44q-64 -1 -110.5 39.5t-47.5 106.5zM182 959q-1 68 45.5 112t113.5 44q64 1 110.5 -39.5t47.5 -106.5q1 -68 -45.5 -112t-113.5 -44q-64 -1 -110.5 39.5t-47.5 106.5z" />
    <glyph glyph-name="semicolon" unicode=";" horiz-adv-x="533" 
d="M167 959q-1 68 45.5 112t113.5 44q64 1 110.5 -39.5t47.5 -106.5q1 -68 -45.5 -112t-113.5 -44q-64 -1 -110.5 39.5t-47.5 106.5zM333 243l-33 -192q-19 -123 -85 -228.5t-163 -181.5l-145 78q31 52 62 101.5t55 102t36 113.5l36 207h237z" />
    <glyph glyph-name="less" unicode="&#x3c;" horiz-adv-x="1013" 
d="M268 644l590 -235l-45 -260l-775 367l31 181zM930 826l-643 -228l-245 -57l35 202l903 365z" />
    <glyph glyph-name="equal" unicode="=" horiz-adv-x="1140" 
d="M1069 980l-40 -228h-872l40 228h872zM994 548l-40 -228h-872l40 228h872z" />
    <glyph glyph-name="greater" unicode="&#x3e;" horiz-adv-x="1025" 
d="M751 605l-595 233l45 259l783 -367l-32 -183zM83 417l649 229l248 59l-35 -202l-912 -367z" />
    <glyph glyph-name="question" unicode="?" horiz-adv-x="989" 
d="M565 445l-244 -2q6 80 27 147t60 125.5t102 109.5q42 34 85.5 72t75.5 83.5t40 103.5q7 43 -1.5 81t-35.5 61.5t-76 24.5q-53 1 -91 -23.5t-61 -65.5t-33 -88l-281 -2q12 132 78.5 223.5t172 137.5t233.5 44q117 -3 207.5 -47.5t139.5 -129t39 -207.5q-7 -93 -52.5 -165
t-111 -130.5t-132.5 -112.5q-62 -48 -95 -105.5t-46 -134.5zM228 131q-1 68 45 111t112 44q64 1 110.5 -39.5t46.5 -105.5q2 -68 -45 -111t-113 -43q-63 -1 -109 39t-47 105z" />
    <glyph glyph-name="at" unicode="@" horiz-adv-x="1781" 
d="M1690 541q-16 -98 -53.5 -198.5t-98.5 -184t-147.5 -133.5t-200.5 -46q-67 2 -114.5 29.5t-75.5 73.5t-37.5 103t-0.5 118l144 578h199l-144 -578q-6 -25 -8 -54t3 -54t22 -42t52 -19q69 -3 118.5 38.5t83 107t53 134.5t28.5 120q19 110 18.5 215t-26.5 196t-81 161
t-145 110t-219 42q-133 3 -247.5 -41t-208 -122t-165.5 -180.5t-120 -219.5t-71 -237q-21 -110 -21 -216.5t25.5 -200.5t81.5 -167t146.5 -114.5t220.5 -42.5q87 -1 172.5 17.5t165.5 51.5l27 -153q-78 -50 -176.5 -68.5t-189.5 -17.5q-161 1 -281.5 49.5t-202 134
t-125.5 199.5t-52.5 248.5t15.5 280.5q27 150 87 291.5t150 263t207.5 213t259 142t303.5 48.5q152 -2 267.5 -49t195 -130t123.5 -193t54.5 -238.5t-11.5 -265.5zM695 422q-6 -30 -11.5 -74t-2 -87.5t24 -74t67.5 -32.5q42 -3 76 20.5t59.5 60.5t44.5 76.5t32 71.5l73 -101
q-23 -58 -56 -113t-77.5 -98t-100 -67.5t-125.5 -22.5q-85 3 -136 46t-74.5 110.5t-25 143t10.5 141.5q14 78 44.5 159t76.5 155t107 132t137 91t166 32q87 -2 157.5 -32.5t139.5 -81.5l-109 -134q-36 36 -78.5 56t-93.5 22q-79 2 -135.5 -35.5t-94.5 -98.5t-61.5 -131.5
t-34.5 -133.5z" />
    <glyph glyph-name="A" unicode="A" horiz-adv-x="1335" 
d="M804 1192l-586 -1192h-322l778 1456h206zM920 0l-178 1223l11 233h193l275 -1456h-301zM994 542l-41 -235h-749l41 235h749z" />
    <glyph glyph-name="B" unicode="B" horiz-adv-x="1268" 
d="M698 639h-376l35 206l290 -1q66 0 126.5 18.5t102 61t52.5 114.5q9 68 -12 107t-66.5 56.5t-107.5 18.5l-216 1l-212 -1221h-293l252 1456l478 -1q94 -1 182 -22t156 -66t105.5 -119t30.5 -182q-7 -118 -68 -193.5t-155.5 -113.5t-202.5 -44zM579 0h-454l154 234l309 -1
q66 0 123.5 22.5t96.5 67.5t49 115q9 59 -5 103.5t-51.5 69t-99.5 27.5l-296 1l37 206l340 -1l50 -80q98 -5 170.5 -44.5t110.5 -111.5t31 -173q-10 -156 -91 -252t-206.5 -140t-267.5 -43z" />
    <glyph glyph-name="C" unicode="C" horiz-adv-x="1300" 
d="M918 482l286 4q-19 -161 -108.5 -275.5t-224.5 -174t-293 -56.5q-146 3 -246 62.5t-157 159.5t-75 223t-2 252l14 101q20 136 73.5 263t140.5 226t206 156t270 54q158 -3 267.5 -67.5t169 -179t66.5 -267.5l-291 1q1 81 -19.5 142.5t-70.5 96t-138 37.5q-96 3 -163 -37.5
t-110.5 -110t-68 -151.5t-36.5 -161l-14 -104q-8 -65 -11 -143.5t13 -149.5t62 -117.5t137 -49.5q90 -3 155.5 28t107 92t60.5 146z" />
    <glyph glyph-name="D" unicode="D" horiz-adv-x="1291" 
d="M472 0h-324l42 234l291 -2q136 0 229 64.5t146.5 170t72.5 228.5l9 71q9 76 6 154.5t-28.5 145.5t-80.5 109t-149 45l-332 1l41 235l300 -1q146 -3 254 -59.5t177 -152.5t96 -219.5t11 -259.5l-8 -71q-20 -146 -82.5 -273t-161 -221.5t-227.5 -147t-282 -51.5zM567 1456
l-253 -1456h-293l252 1456h294z" />
    <glyph glyph-name="E" unicode="E" horiz-adv-x="1117" 
d="M1012 234l-41 -234h-753l40 234h754zM567 1456l-253 -1456h-293l252 1456h294zM1023 863l-40 -228h-655l40 228h655zM1222 1456l-41 -235h-752l42 235h751z" />
    <glyph glyph-name="F" unicode="F" horiz-adv-x="1090" 
d="M567 1456l-253 -1456h-293l252 1456h294zM1022 834l-41 -234h-644l41 234h644zM1197 1456l-40 -235h-712l41 235h711z" />
    <glyph glyph-name="G" unicode="G" horiz-adv-x="1354" 
d="M1274 761l-91 -578q-65 -79 -161.5 -123.5t-203.5 -62.5t-204 -16q-149 2 -253.5 60.5t-166 157.5t-82.5 223.5t-4 259.5l13 91q19 140 73 267.5t141 227t208 156t275 53.5t262 -60t168.5 -163.5t70.5 -258.5l-282 1q-5 72 -29 127t-72 86t-126 34q-96 4 -165 -38
t-115.5 -112.5t-73.5 -154t-38 -163.5l-13 -94q-9 -73 -8.5 -153.5t23 -151t75.5 -115t148 -46.5q46 -1 90 5.5t85 23.5t77 44l50 259h-266l37 214h558z" />
    <glyph glyph-name="H" unicode="H" horiz-adv-x="1403" 
d="M1115 863l-41 -234h-739l41 234h739zM567 1456l-253 -1456h-293l252 1456h294zM1425 1456l-253 -1456h-291l252 1456h292z" />
    <glyph glyph-name="I" unicode="I" horiz-adv-x="581" 
d="M585 1456l-252 -1456h-293l253 1456h292z" />
    <glyph glyph-name="J" unicode="J" horiz-adv-x="1110" 
d="M673 446l172 1010h292l-171 -1009q-19 -140 -92.5 -246.5t-188.5 -165t-257 -56.5q-139 3 -235 57.5t-144 154.5t-42 238l294 -1q-4 -56 6 -104.5t42.5 -79t97.5 -31.5q68 -2 115 31.5t74.5 87.5t36.5 114z" />
    <glyph glyph-name="K" unicode="K" horiz-adv-x="1263" 
d="M567 1456l-253 -1456h-293l252 1456h294zM1423 1456l-690 -725l-390 -360l-2 306l267 302l436 477h379zM836 0l-304 684l236 177l400 -861h-332z" />
    <glyph glyph-name="L" unicode="L" horiz-adv-x="1075" 
d="M972 234l-41 -234h-713l41 234h713zM567 1456l-253 -1456h-293l252 1456h294z" />
    <glyph glyph-name="M" unicode="M" horiz-adv-x="1739" 
d="M412 1456h238l177 -1066l547 1066h258l-762 -1456h-200zM273 1456h248l-137 -1055l-71 -401h-292zM1512 1456h249l-252 -1456h-294l75 426z" />
    <glyph glyph-name="N" unicode="N" horiz-adv-x="1402" 
d="M1425 1456l-253 -1456h-284l-403 987l-171 -987h-293l252 1456h285l404 -988l171 988h292z" />
    <glyph glyph-name="O" unicode="O" horiz-adv-x="1370" 
d="M1313 767l-8 -70q-20 -140 -75 -270t-144 -231.5t-211.5 -160t-277.5 -55.5q-148 3 -250.5 64.5t-162 163.5t-79.5 227.5t-4 257.5l8 69q20 140 75.5 269t145 230.5t212 159.5t275.5 55q148 -2 250.5 -63.5t162 -163t79.5 -227t4 -255.5zM1009 693l9 72q8 68 8.5 147.5
t-18.5 153t-67.5 121t-139.5 51.5q-98 3 -167.5 -39t-116 -113.5t-73.5 -156t-38 -165.5l-9 -72q-9 -67 -9.5 -147.5t18.5 -154t68 -121.5t140 -52q97 -3 166.5 40t116.5 114.5t74 156t38 165.5z" />
    <glyph glyph-name="P" unicode="P" horiz-adv-x="1281" 
d="M678 518l-377 1l41 234l346 -1q74 0 136 26.5t102 77.5t51 128q10 65 -7 117.5t-60 84t-111 34.5l-273 1l-212 -1221h-293l252 1456l535 -1q139 -3 248 -59.5t168.5 -160t47.5 -249.5q-13 -159 -99 -263t-216.5 -154.5t-278.5 -50.5z" />
    <glyph glyph-name="Q" unicode="Q" horiz-adv-x="1370" 
d="M814 216l341 -323l-199 -153l-334 323zM1313 767l-10 -70q-19 -140 -74 -270t-144.5 -231.5t-212 -160t-276.5 -55.5q-148 3 -250.5 64.5t-162.5 163.5t-80 227.5t-4 257.5l9 69q20 140 75.5 269t145 230.5t212 159.5t275.5 55q148 -2 250 -63.5t162 -163t80.5 -227
t4.5 -255.5zM1007 693l10 72q8 68 8.5 147.5t-18.5 153t-68 121t-139 51.5q-98 3 -167.5 -39t-116 -113.5t-73.5 -156t-38 -165.5l-10 -72q-8 -67 -8.5 -147.5t18.5 -154t68 -121.5t140 -52q97 -3 166.5 40t116.5 114.5t73.5 156t37.5 165.5z" />
    <glyph glyph-name="R" unicode="R" horiz-adv-x="1273" 
d="M273 1456l513 -1q133 -2 241.5 -49t169 -141t50.5 -239q-10 -119 -57.5 -201t-127 -139t-182.5 -98l-102 -49h-474l40 234l326 -2q73 1 133 28t99.5 78.5t49.5 125.5q9 65 -8.5 113t-59.5 75t-107 29l-251 1l-212 -1221h-293zM818 0l-210 649l295 2l227 -635v-16h-312z
" />
    <glyph glyph-name="S" unicode="S" horiz-adv-x="1223" 
d="M824 388q9 53 -8.5 89.5t-52 62t-77 43.5t-84.5 33q-77 30 -151.5 68t-135.5 90.5t-95 123t-28 165.5q7 108 61 187t137.5 129.5t182 74.5t193.5 22q136 -2 242 -56.5t166.5 -154t56.5 -238.5h-290q4 66 -16.5 114.5t-65 75.5t-113.5 28q-59 1 -115.5 -18.5t-97 -60
t-50.5 -104.5q-8 -47 13.5 -81t59 -58t80 -40.5t76.5 -29.5q81 -29 156.5 -69t133.5 -94.5t89 -128t25 -170.5q-9 -111 -60 -189.5t-132 -128t-177 -72.5t-195 -22q-108 2 -203 34t-166 92.5t-109.5 149t-35.5 202.5l293 -1q-4 -61 9.5 -106.5t44 -76.5t76 -47t106.5 -16
q59 0 114 18t94 57.5t49 102.5z" />
    <glyph glyph-name="T" unicode="T" horiz-adv-x="1231" 
d="M907 1456l-252 -1456h-293l253 1456h292zM1341 1456l-41 -235h-1153l41 235h1153z" />
    <glyph glyph-name="U" unicode="U" horiz-adv-x="1310" 
d="M1054 1456h292l-164 -961q-23 -162 -106.5 -278.5t-214 -178t-293.5 -59.5q-152 3 -264.5 66.5t-168.5 178t-37 270.5l164 962h292l-163 -963q-9 -75 5.5 -137.5t60 -101t129.5 -40.5q89 -3 152 32t101 99.5t51 148.5z" />
    <glyph glyph-name="V" unicode="V" horiz-adv-x="1298" 
d="M589 316l509 1140h334l-720 -1456h-221zM460 1456l153 -1166l3 -290h-211l-261 1456h316z" />
    <glyph glyph-name="W" unicode="W" horiz-adv-x="1738" 
d="M410 245l467 1211h156l10 -216l-492 -1240h-170zM455 1456l42 -1238l-50 -218h-191l-86 1456h285zM1132 249l417 1207h296l-541 -1456h-189zM1125 1456l93 -1244l-38 -212h-171l-107 1265l63 191h160z" />
    <glyph glyph-name="X" unicode="X" horiz-adv-x="1261" 
d="M493 1456l186 -506l345 506h348l-533 -735l302 -721h-324l-192 516l-353 -516h-353l547 747l-295 709h322z" />
    <glyph glyph-name="Y" unicode="Y" horiz-adv-x="1230" 
d="M463 1456l179 -662l409 662h333l-636 -940l-88 -516h-298l95 545l-303 910z" />
    <glyph glyph-name="Z" unicode="Z" horiz-adv-x="1206" 
d="M1085 234l-40 -234h-1003l41 234h1002zM1251 1276l-1070 -1276h-215l33 185l1075 1271h209zM1183 1456l-41 -235h-964l42 235h963z" />
    <glyph glyph-name="bracketleft" unicode="[" horiz-adv-x="550" 
d="M707 1692l-35 -215h-137l-249 -1599h138l-34 -215h-420l317 2029h420z" />
    <glyph glyph-name="backslash" unicode="\" horiz-adv-x="838" 
d="M468 -125l-315 1581h277l316 -1581h-278z" />
    <glyph glyph-name="bracketright" unicode="]" horiz-adv-x="550" 
d="M148 1477l35 215h420l-317 -2029h-421l34 215h139l249 1599h-139z" />
    <glyph glyph-name="asciicircum" unicode="^" horiz-adv-x="870" 
d="M550 1201l-257 -472h-234l417 727h169zM634 729l-98 499l-5 228h150l164 -727h-211z" />
    <glyph glyph-name="underscore" unicode="_" horiz-adv-x="884" 
d="M779 0l-38 -219h-883l39 219h882z" />
    <glyph glyph-name="grave" unicode="`" horiz-adv-x="655" 
d="M497 1536l143 -308l-212 1l-221 306z" />
    <glyph glyph-name="a" unicode="a" horiz-adv-x="1063" 
d="M616 244l76 485q5 44 -4 82t-36.5 60.5t-77.5 24.5q-45 1 -80.5 -15.5t-58.5 -47t-32 -72.5l-282 -2q5 90 50.5 155.5t115.5 107.5t152.5 62t161.5 18q113 -2 201.5 -47t136 -128.5t35.5 -202.5l-75 -464q-9 -58 -14 -121.5t18 -120.5l-2 -18l-276 -1q-18 59 -18 121.5
t9 123.5zM724 659l-27 -163l-143 1q-43 -1 -85.5 -11.5t-78.5 -32t-59.5 -55.5t-29.5 -83q-5 -35 7 -62.5t37.5 -43.5t61.5 -17q51 -1 100 19.5t85 58.5t50 88l60 -125q-24 -56 -60.5 -103t-83.5 -81.5t-103 -53t-120 -17.5q-89 2 -163.5 42.5t-118 111t-39.5 164.5
q4 106 53 176.5t126.5 111.5t169 58.5t181.5 17.5z" />
    <glyph glyph-name="b" unicode="b" horiz-adv-x="1117" 
d="M270 1536h282l-227 -1304l-67 -232h-255zM1044 558l-2 -22q-13 -100 -45.5 -200t-90 -181.5t-143 -130t-202.5 -45.5q-103 3 -170 54.5t-104 132t-50 173t-10 177.5l5 47q16 90 53 186t95.5 177t140 130.5t187.5 46.5q112 -2 182.5 -52t107.5 -130.5t46.5 -175.5
t-0.5 -187zM761 537l2 22q4 45 5.5 99t-9.5 103t-43 81.5t-94 34.5q-61 3 -106.5 -19t-77.5 -61t-52 -88.5t-29 -102.5l-19 -132q-4 -63 7 -124t49.5 -101.5t113.5 -42.5q69 -3 115 27.5t74 80.5t42.5 109.5t21.5 113.5z" />
    <glyph glyph-name="c" unicode="c" horiz-adv-x="1035" 
d="M478 204q53 -1 94.5 20t68.5 59t36 88l265 1q-9 -121 -77.5 -210t-173 -137t-221.5 -45q-117 2 -200.5 47t-134.5 120.5t-71.5 172.5t-10.5 204l3 30q12 112 54 212.5t112.5 177t166.5 119t217 39.5q125 -2 214 -56.5t135.5 -148.5t44.5 -216l-264 1q1 49 -13 93.5
t-47.5 72.5t-90.5 30q-67 2 -112 -27.5t-73 -79t-43 -107t-21 -111.5l-2 -29q-5 -45 -6 -99.5t11 -104t44.5 -82t94.5 -34.5z" />
    <glyph glyph-name="d" unicode="d" horiz-adv-x="1118" 
d="M668 252l222 1284h283l-266 -1536h-253zM52 520l2 22q13 99 46.5 200t92 184t144.5 132t204 45q101 -4 167 -56.5t102.5 -135t50 -175t10.5 -175.5l-5 -48q-16 -89 -53.5 -183.5t-97 -175t-141 -129.5t-185.5 -46q-109 3 -178.5 53.5t-107.5 130.5t-49 174t-2 183z
M337 543l-2 -21q-4 -43 -4.5 -96.5t11 -103t43 -82t91.5 -35.5q76 -3 131 35.5t88.5 99.5t45.5 128l18 133q5 46 0 93t-22.5 88t-52 67t-89.5 27q-67 3 -113.5 -28.5t-75.5 -82t-45.5 -109.5t-23.5 -113z" />
    <glyph glyph-name="e" unicode="e" horiz-adv-x="1073" 
d="M512 -20q-111 2 -200 42.5t-148.5 111.5t-87.5 165t-20 202l4 41q12 113 55 215t115 180.5t170.5 123t219.5 41.5q113 -2 193 -46t129 -118t67 -168.5t7 -197.5l-16 -120h-836l31 192l552 -1l5 25q8 55 -5 102.5t-49 76.5t-96 31q-69 2 -116 -29t-77 -82t-46 -110.5
t-23 -114.5l-4 -40q-5 -53 3 -105.5t31.5 -94.5t65 -68t104.5 -28q80 -2 147.5 31.5t121.5 89.5l126 -152q-45 -68 -114.5 -111.5t-149.5 -64t-159 -19.5z" />
    <glyph glyph-name="f" unicode="f" horiz-adv-x="711" 
d="M361 0h-282l200 1178q16 119 72.5 205t148.5 132.5t214 44.5q39 -1 77.5 -7t75.5 -14l-24 -218q-20 5 -41.5 8t-42.5 4q-51 0 -91.5 -18t-67 -52t-36.5 -85zM759 1082l-36 -204h-648l36 204h648z" />
    <glyph glyph-name="g" unicode="g" horiz-adv-x="1135" 
d="M854 1082h258l-179 -1045q-20 -149 -99 -254t-200.5 -159t-269.5 -51q-72 2 -142 22t-131 58.5t-106 95.5l139 166q44 -58 104 -90.5t133 -34.5q78 -2 138 28t99 85t52 131l138 812zM55 521l3 21q12 102 48 202.5t97 182.5t149 130t205 45q108 -3 175 -53.5t102 -131
t46.5 -174.5t7.5 -183l-5 -47q-16 -90 -53 -185t-96 -175.5t-141.5 -128.5t-187.5 -45q-109 3 -180.5 53t-112 129.5t-53.5 174t-4 185.5zM339 543l-2 -22q-5 -45 -3.5 -98.5t16 -102.5t48.5 -80.5t94 -33.5q79 -4 135.5 33t90.5 98.5t47 130.5l19 133q4 48 -1 96t-23.5 88
t-54 65t-93.5 26q-67 3 -115.5 -28t-80.5 -81.5t-51 -109.5t-26 -114z" />
    <glyph glyph-name="h" unicode="h" horiz-adv-x="1112" 
d="M545 1536l-267 -1536h-281l267 1536h281zM341 579l-73 -1q11 92 43.5 186t88.5 171.5t137.5 124t189.5 43.5q91 -2 151.5 -36.5t94.5 -93t45 -133t2 -156.5l-114 -684h-283l116 687q6 53 -2.5 95.5t-39 68t-89.5 26.5q-65 2 -111.5 -23t-78.5 -68.5t-50 -97t-27 -109.5z
" />
    <glyph glyph-name="i" unicode="i" horiz-adv-x="526" 
d="M488 1082l-188 -1082h-281l188 1082h281zM238 1359q-2 68 44.5 109t112.5 42q63 1 110 -37.5t47 -103.5q2 -68 -45 -109t-112 -42q-63 -1 -109.5 37t-47.5 104z" />
    <glyph glyph-name="j" unicode="j" horiz-adv-x="517" 
d="M207 1082h283l-195 -1147q-15 -114 -67 -199t-139 -131t-206 -45q-38 1 -76 6t-75 13l24 221q22 -4 44.5 -8t44.5 -4q47 0 81 18t55.5 51t29.5 78zM235 1359q-2 67 45 108.5t111 42.5t111 -37.5t47 -103.5q1 -68 -45.5 -109t-111.5 -42q-63 0 -109.5 37.5t-47.5 103.5z
" />
    <glyph glyph-name="k" unicode="k" horiz-adv-x="1061" 
d="M552 1537l-267 -1537h-281l267 1537h281zM1145 1082l-549 -537l-294 -258l-70 225l231 247l324 323h358zM663 0l-229 512l213 164l326 -676h-310z" />
    <glyph glyph-name="l" unicode="l" horiz-adv-x="526" 
d="M567 1536l-267 -1536h-281l266 1536h282z" />
    <glyph glyph-name="m" unicode="m" horiz-adv-x="1721" 
d="M430 842l-146 -842h-281l188 1082h263zM349 579l-75 -1q12 98 44.5 193t90 171t141.5 120t196 41q83 -2 138 -34t87 -85t42.5 -121t3.5 -141l-120 -722h-281l115 691q6 50 -1 92t-35 67.5t-85 27.5q-62 2 -108 -24.5t-76.5 -70.5t-49.5 -97.5t-27 -106.5zM980 612
l-101 -14q11 96 44 186.5t90 163.5t139 115t190 40q89 -3 148 -37t91.5 -92t42.5 -130.5t2 -152.5l-116 -691h-282l116 692q6 50 -1 91.5t-34.5 67t-84.5 26.5q-57 2 -99.5 -20.5t-71.5 -61t-47 -86.5t-26 -97z" />
    <glyph glyph-name="n" unicode="n" horiz-adv-x="1113" 
d="M424 835l-145 -835h-282l188 1082h264zM341 579l-70 -2q11 97 44 192t90.5 171.5t141 120.5t194.5 42q90 -3 148.5 -37.5t90 -92.5t41 -131t1.5 -152l-116 -690h-283l117 693q6 53 -3 94t-39.5 65t-88.5 25q-64 2 -110.5 -24t-78.5 -70t-51 -97t-28 -107z" />
    <glyph glyph-name="o" unicode="o" 
d="M53 524l3 21q12 115 55.5 216.5t116 179t171 121t221.5 40.5q117 -2 202 -47t139.5 -121t77 -174t12.5 -207l-2 -22q-13 -114 -57.5 -214.5t-117 -177t-171.5 -119.5t-220 -40q-115 2 -201 46.5t-140 120t-76 172.5t-13 205zM337 545l-2 -22q-5 -48 -3 -102.5
t17.5 -103.5t51.5 -80.5t99 -33.5q67 -2 115 27.5t79 79t49 108t24 114.5l2 21q4 48 2.5 103.5t-17.5 105t-52 82t-99 34.5q-67 2 -115 -28.5t-79 -80.5t-48.5 -109t-23.5 -115z" />
    <glyph glyph-name="p" unicode="p" horiz-adv-x="1117" 
d="M434 858l-221 -1274h-282l260 1498h260zM1044 559l-3 -21q-12 -98 -45.5 -198t-91.5 -182.5t-143 -132t-200 -46.5q-101 3 -168 53t-105 128.5t-53 169.5t-12 174l7 56q15 91 52 187.5t96 178t141 131t189 46.5q111 -3 181.5 -53t107.5 -130t46.5 -174.5t0.5 -186.5z
M760 539l3 21q4 44 4 97.5t-12 102.5t-44 82t-92 35q-61 3 -107 -19t-77.5 -61.5t-51.5 -89.5t-29 -103l-20 -140q-5 -61 8 -120.5t51.5 -98.5t111.5 -41q66 -1 112 30t75.5 82.5t45.5 110.5t22 112z" />
    <glyph glyph-name="q" unicode="q" horiz-adv-x="1120" 
d="M551 -416l225 1293l68 205h250l-260 -1498h-283zM53 523l2 21q12 101 45.5 201t92 182t145 130.5t203.5 44.5q103 -3 169 -54.5t103 -133t50.5 -174.5t9.5 -178l-5 -47q-16 -91 -53 -186t-97 -175.5t-142 -129t-187 -45.5q-108 3 -178.5 53.5t-108 131.5t-48.5 175
t-1 184zM338 545l-3 -21q-4 -44 -4.5 -97.5t11 -103.5t43 -83.5t91.5 -35.5q79 -4 133.5 34.5t87 101t45.5 131.5l19 132q4 47 0 95t-21.5 88t-52.5 65.5t-92 26.5q-66 2 -112.5 -29t-76 -81.5t-46 -109.5t-22.5 -113z" />
    <glyph glyph-name="r" unicode="r" horiz-adv-x="727" 
d="M429 831l-144 -831h-281l188 1082h264zM782 1091l-35 -269q-24 4 -48.5 7t-49.5 4q-58 1 -105 -15t-81.5 -46.5t-58 -74.5t-35.5 -99l-55 18q10 77 33.5 162.5t66 160t109 121t162.5 45.5q25 0 48.5 -4t48.5 -10z" />
    <glyph glyph-name="s" unicode="s" horiz-adv-x="1021" 
d="M631 305q8 48 -24 74.5t-78.5 40.5t-80.5 22q-60 16 -120.5 40.5t-109.5 61.5t-78 90.5t-26 126.5q3 87 44.5 151.5t107.5 107t144 63.5t155 19q108 -1 200.5 -40t150 -116t57.5 -192l-279 1q1 44 -14 77t-46 51t-79 18q-38 0 -75.5 -14.5t-64.5 -42.5t-34 -69
q-6 -34 10 -56t43 -35.5t57 -22t54 -13.5q88 -23 172 -59t137 -100.5t49 -171.5q-3 -91 -48 -155.5t-115.5 -105t-152 -59t-159.5 -17.5q-109 2 -204.5 44t-154.5 122.5t-60 197.5l264 -1q1 -52 21 -88t57.5 -54.5t89.5 -18.5q41 -1 81.5 11t70.5 39.5t38 72.5z" />
    <glyph glyph-name="t" unicode="t" horiz-adv-x="672" 
d="M708 1082l-36 -204h-613l36 204h613zM293 1349h281l-176 -1025q-4 -35 0.5 -59.5t22.5 -37.5t56 -15q21 -1 42 1.5t43 5.5l-20 -215q-40 -12 -80.5 -17.5t-82.5 -5.5q-96 2 -157.5 42t-88 110.5t-17.5 163.5z" />
    <glyph glyph-name="u" unicode="u" horiz-adv-x="1113" 
d="M672 274l140 808h282l-188 -1082h-264zM736 482l81 2q-11 -95 -42 -186t-85 -164t-134 -115t-189 -40q-89 2 -150 34.5t-97 88t-48.5 127.5t-4.5 154l117 699h281l-118 -703q-3 -34 0 -64.5t16 -54.5t37 -38.5t64 -15.5q85 -3 141 34.5t87.5 101.5t43.5 140z" />
    <glyph glyph-name="v" unicode="v" horiz-adv-x="1005" 
d="M405 222l365 860h302l-524 -1082h-183zM378 1082l99 -887l-26 -195h-174l-186 1082h287z" />
    <glyph glyph-name="w" unicode="w" horiz-adv-x="1458" 
d="M354 294l352 788h185l-116 -328l-345 -754h-156zM380 1082l17 -816l-33 -266h-170l-80 1082h266zM953 308l284 774h278l-453 -1082h-180zM909 1082l81 -811l-19 -271h-145l-87 779v303h170z" />
    <glyph glyph-name="x" unicode="x" horiz-adv-x="1011" 
d="M404 1082l120 -327l230 327h313l-389 -542l219 -540h-286l-135 346l-242 -346h-314l406 566l-210 516h288z" />
    <glyph glyph-name="y" unicode="y" horiz-adv-x="1000" 
d="M339 137l438 945h310l-634 -1246q-28 -59 -63.5 -109.5t-80.5 -88t-101 -58t-126 -20.5q-35 0 -68 6t-66 14l20 213q11 -1 21.5 -2t20.5 -1q50 -1 88.5 11.5t67.5 40t52 71.5zM384 1082l94 -799l-13 -291l-188 -22l-185 1112h292z" />
    <glyph glyph-name="z" unicode="z" horiz-adv-x="1011" 
d="M880 225l-39 -225h-799l39 225h799zM982 903l-817 -903h-198l32 184l813 898h201zM914 1082l-39 -225h-744l40 225h743z" />
    <glyph glyph-name="braceleft" unicode="{" horiz-adv-x="654" 
d="M713 1600l42 -160q-100 -39 -144 -123.5t-58 -184.5l-28 -204q-15 -131 -82.5 -209.5t-170.5 -115t-225 -39.5l13 152q96 4 147 62.5t64 149.5l28 204q17 125 69 217t138.5 154t206.5 97zM496 -205l-59 -157q-108 36 -177.5 102.5t-99 158.5t-17.5 205l28 205
q7 56 -1.5 101t-39.5 73t-93 33l11 153q109 -4 198 -44.5t138 -119.5t38 -197l-27 -205q-7 -59 -6.5 -119t24 -110t83.5 -79z" />
    <glyph glyph-name="bar" unicode="|" horiz-adv-x="501" 
d="M470 1456l-270 -1726h-168l270 1726h168z" />
    <glyph glyph-name="braceright" unicode="}" horiz-adv-x="654" 
d="M164 1441l61 155q107 -36 176.5 -102t99 -158t16.5 -204l-27 -206q-7 -56 1 -101t39.5 -73t92.5 -32l-11 -150q-108 4 -197 44t-138 117.5t-38 196.5l27 205q7 59 6 119.5t-24.5 110.5t-83.5 78zM-52 -365l-43 161q67 25 108 72.5t63 108.5t32 127l27 204
q16 130 83.5 208.5t170.5 113.5t224 38l-11 -149q-97 -4 -147.5 -62.5t-65.5 -148.5l-28 -204q-16 -125 -68 -217t-138.5 -154.5t-206.5 -97.5z" />
    <glyph glyph-name="asciitilde" unicode="~" horiz-adv-x="1287" 
d="M1001 792l203 1q-5 -76 -29.5 -150.5t-68 -135t-108.5 -96t-151 -34.5q-81 2 -143.5 40t-116.5 95q-29 31 -63.5 58.5t-80.5 27.5q-50 1 -82 -27.5t-49.5 -71t-24.5 -83.5l-206 1q5 76 29.5 150t68 133.5t108.5 93.5t152 33q79 -2 143.5 -40t116.5 -95q29 -30 63.5 -57.5
t79.5 -28.5q51 0 83 29t50.5 72t25.5 85z" />
    <glyph glyph-name="uni00A0" unicode="&#xa0;" horiz-adv-x="504" 
 />
    <glyph glyph-name="exclamdown" unicode="&#xa1;" horiz-adv-x="562" 
d="M-36 -368l208 1011h234l-142 -1011h-300zM500 958q1 -68 -45.5 -111t-111.5 -43q-64 -1 -110 39t-48 105q-1 68 46 111t113 44q63 1 109 -39t47 -106z" />
    <glyph glyph-name="cent" unicode="&#xa2;" horiz-adv-x="1146" 
d="M803 1318l-52 -291h-191l52 291h191zM582 45l-51 -290h-191l51 290h191zM506 204q53 -2 95 19t69 59.5t37 88.5l266 1q-11 -122 -80 -211t-174 -136.5t-224 -44.5q-116 2 -198.5 47t-133 121t-69.5 172.5t-8 202.5l3 30q14 113 57 213.5t114 177t168 119t218 39.5
q125 -2 213.5 -56.5t134 -148.5t42.5 -216h-264q2 50 -11.5 94.5t-46.5 73t-90 29.5q-67 3 -112.5 -27t-74.5 -79t-45 -107t-22 -112l-3 -29q-5 -44 -6.5 -98.5t9 -104t42.5 -83t94 -34.5z" />
    <glyph glyph-name="sterling" unicode="&#xa3;" horiz-adv-x="1181" 
d="M1023 0h-1029l41 234h1028zM840 581h-748l40 227h748zM604 1039l-72 -603q-11 -105 -67.5 -174t-148.5 -114l-187 87q36 14 56 44.5t29.5 68t14.5 71.5l84 620q16 132 82.5 231.5t173 153.5t241.5 51q127 -3 216.5 -54t136 -143.5t42.5 -217.5l-278 1q2 48 -9 89
t-41 66.5t-85 26.5q-57 1 -96 -29t-61.5 -77.5t-30.5 -97.5z" />
    <glyph glyph-name="currency" unicode="&#xa4;" horiz-adv-x="1376" 
d="M292 599q-11 -79 4.5 -155t55 -137.5t104 -100t150.5 -40.5q94 -3 176 33.5t147 101t106.5 146.5t54.5 170q11 79 -4 154.5t-55 137t-104 99.5t-150 40q-94 3 -176.5 -33t-147.5 -100t-107 -145.5t-54 -170.5zM113 600q14 126 70 241t146 205t205 140.5t247 48.5
q124 -3 220.5 -55.5t160 -140.5t91.5 -197.5t15 -225.5q-13 -126 -69 -241t-145.5 -205.5t-204.5 -142t-247 -48.5q-124 3 -220.5 56t-160.5 141t-92 198t-16 226zM1396 1111l-220 -194l-119 154l219 194zM334 168l-220 -194l-118 153l219 193zM1074 -27l-169 217l146 130
l171 -216zM340 917l-170 217l146 130l170 -218z" />
    <glyph glyph-name="yen" unicode="&#xa5;" horiz-adv-x="1065" 
d="M980 740l-29 -169h-872l31 169h870zM930 450l-29 -168h-872l31 168h870zM487 721l408 735h315l-549 -895l-164 -1zM456 1456l166 -769l-56 -126h-162l-239 895h291zM703 759l-132 -759h-292l132 759h292z" />
    <glyph glyph-name="brokenbar" unicode="&#xa6;" horiz-adv-x="499" 
d="M224 -270h-251l138 794h251zM524 1456l-132 -758h-252l132 758h252z" />
    <glyph glyph-name="section" unicode="&#xa7;" horiz-adv-x="1248" 
d="M583 135l11 141q57 2 109.5 22t89 60t47.5 101q8 49 -13 83t-59 57t-81 38t-80 28q-79 27 -154 60.5t-134 81t-90.5 116t-25.5 166.5q6 105 58 179.5t132 121t174 67.5t186 19q135 -2 239.5 -50t161.5 -142t53 -235h-279q2 61 -19 106t-63.5 69t-105.5 26
q-54 1 -109 -13.5t-96 -49.5t-51 -95q-9 -50 11.5 -82.5t58 -53t80.5 -33.5t80 -25q79 -24 154.5 -56t135.5 -79t93 -114.5t27 -163.5q-6 -105 -57.5 -173t-131.5 -106t-172.5 -53.5t-179.5 -17.5zM605 878l-11 -143q-57 -3 -105 -23t-79.5 -58.5t-41.5 -98.5
q-8 -51 11 -85.5t54.5 -56.5t78.5 -37t83 -28q81 -27 156.5 -59.5t134 -80t90.5 -116t25 -167.5q-6 -107 -57 -180.5t-130 -118t-173 -64.5t-186 -19q-101 2 -189 27t-154.5 75.5t-103 129.5t-33.5 188h281q-2 -51 12.5 -87.5t42.5 -59t68 -34t89 -11.5q52 0 106.5 13
t95.5 46.5t51 92.5q9 47 -13.5 78.5t-61 53t-82 35.5t-76.5 25q-77 25 -152 57t-135 79t-93 114.5t-28 162.5q6 103 55.5 170t127 106.5t167 56t175.5 17.5z" />
    <glyph glyph-name="dieresis" unicode="&#xa8;" horiz-adv-x="934" 
d="M213 1364q-1 54 39 91t93 38t94 -33.5t42 -89.5t-38.5 -91t-93.5 -37q-52 -1 -93 33t-43 89zM690 1363q-2 55 37.5 91.5t93.5 37.5q53 1 94 -33t42 -89q2 -55 -38 -91t-94 -37q-52 -1 -93 32.5t-42 88.5z" />
    <glyph glyph-name="copyright" unicode="&#xa9;" horiz-adv-x="1561" 
d="M931 596l149 1q-12 -150 -103.5 -234.5t-243.5 -79.5q-108 3 -176.5 58t-98 142.5t-22.5 186.5l12 117q11 105 58 194t128 142.5t195 51.5q145 -3 224 -87.5t75 -228.5l-149 2q5 82 -27.5 131.5t-121.5 50.5q-72 2 -120.5 -35.5t-75.5 -96.5t-36 -123l-14 -119
q-5 -55 3.5 -112.5t41.5 -98t100 -43.5q93 -4 140.5 46t61.5 135zM223 722q-15 -115 8.5 -224t83 -197.5t152.5 -142t218 -55.5q131 -3 247 48t207 141t149.5 205t75.5 239q16 114 -7.5 223t-83 197.5t-153 141.5t-217.5 55q-131 3 -247 -47.5t-207 -140.5t-150 -204.5
t-76 -238.5zM105 722q16 149 82.5 285.5t173 243t242.5 167.5t292 58q149 -2 265 -65t193.5 -168t111 -236.5t18.5 -271.5q-16 -148 -82 -284.5t-172.5 -244t-243 -168.5t-291.5 -58q-150 2 -266 65t-193 169t-110.5 237.5t-19.5 270.5z" />
    <glyph glyph-name="ordfeminine" unicode="&#xaa;" horiz-adv-x="882" 
d="M613 861l52 342q4 34 -1.5 62t-24.5 46t-57 20q-56 2 -96 -23t-55 -78l-167 13q6 82 52.5 134.5t116.5 77t146 22.5q82 -1 140.5 -36t88 -96.5t23.5 -144.5l-49 -314q-7 -46 -8.5 -91t7.5 -92l-162 1q-16 79 -6 157zM703 1150l-20 -115h-128q-39 -1 -81.5 -12.5
t-74.5 -37t-40 -70.5q-7 -46 22 -65t70 -20q38 0 78 15t73.5 42t48.5 62l8 -117q-23 -46 -61 -77.5t-84 -48t-98 -16.5q-100 0 -164 59t-63 162q2 96 57 148t136 72t161 20z" />
    <glyph glyph-name="guillemotleft" unicode="&#xab;" horiz-adv-x="1003" 
d="M590 925l-306 -402l-219 -4l-1 19l328 387h198zM271 531l168 -403l-167 -1l-215 387v19zM965 925l-306 -402l-219 -4l-1 19l328 387h198zM646 531l168 -403l-167 -1l-215 387v19z" />
    <glyph glyph-name="logicalnot" unicode="&#xac;" horiz-adv-x="1094" 
d="M968 804l-30 -168h-810l29 168h811zM955 727l-62 -352h-191l62 352h191z" />
    <glyph glyph-name="uni00AD" unicode="&#xad;" horiz-adv-x="782" 
d="M685 738l-40 -226h-549l39 226h550z" />
    <glyph glyph-name="registered" unicode="&#xae;" horiz-adv-x="1561" 
d="M820 654h-224l20 132l165 -1q41 1 83.5 13t75 39t40.5 73q10 50 -7.5 76.5t-52 36.5t-77.5 11l-141 1l-113 -719h-144l133 850l256 -1q79 -3 146 -30t107 -82t37 -141q-3 -76 -39 -113t-89 -59.5t-105 -52.5q-5 -2 -8.5 -6t-7.5 -7q-9 -7 -17 -11.5t-17 -6.5t-21 -2z
M797 653l22 107q116 -3 179 -64.5t55 -180.5l-5 -56q-3 -33 -1.5 -63t4.5 -63l-1 -18h-145q-6 37 -4 73t6 73l7 55q6 72 -21 101t-96 36zM223 722q-16 -115 7.5 -224t83 -197.5t153.5 -142t218 -56.5q131 -2 247 49t207 141t149.5 205t75.5 239q15 114 -8 223t-83 197.5
t-153 141.5t-217 55q-131 3 -247 -47.5t-207 -140.5t-150 -204.5t-76 -238.5zM105 722q16 149 82.5 285.5t172.5 243t242.5 167.5t292.5 58q149 -2 264.5 -65t193 -168t111.5 -236.5t19 -271.5q-16 -148 -82.5 -285t-172.5 -244t-242.5 -168t-292.5 -59q-149 3 -265 66
t-193 168.5t-111 237.5t-19 271z" />
    <glyph glyph-name="macron" unicode="&#xaf;" horiz-adv-x="994" 
d="M964 1454l-25 -163h-669l27 163h667z" />
    <glyph glyph-name="degree" unicode="&#xb0;" horiz-adv-x="775" 
d="M229 1193q1 76 40 141t103 104.5t141 38.5q71 -1 125.5 -39t84.5 -98t29 -129q-2 -75 -39.5 -139.5t-100.5 -103t-140 -37.5q-71 1 -126.5 37.5t-87 96t-29.5 128.5zM369 1195q-5 -47 22 -83.5t76 -35.5q56 0 96 40t48 93q6 46 -18.5 84t-75.5 39q-55 0 -97.5 -41.5
t-50.5 -95.5z" />
    <glyph glyph-name="plusminus" unicode="&#xb1;" horiz-adv-x="1067" 
d="M1028 936l-37 -233h-891l37 233h891zM764 1285l-149 -951h-247l149 951h247zM891 229l-36 -228h-841l36 228h841z" />
    <glyph glyph-name="uni00B2" unicode="&#xb2;" horiz-adv-x="750" 
d="M713 827l-30 -160h-600l25 145l308 250q25 21 54 47.5t52 57t30 64.5q6 36 -12.5 58.5t-55.5 21.5q-53 0 -82.5 -34.5t-39.5 -81.5l-201 -1q6 85 49 147t112 96t153 33q76 -1 140 -26.5t103.5 -78.5t36.5 -136q-3 -74 -42.5 -129t-96 -98.5t-110.5 -81.5l-129 -92z" />
    <glyph glyph-name="uni00B3" unicode="&#xb3;" horiz-adv-x="750" 
d="M357 1136h73q31 1 61 11t51 31t27 56q6 39 -20 56t-61 18q-36 0 -65.5 -15.5t-43.5 -48.5l-203 -1q5 79 49.5 129.5t112 74t140.5 22.5q68 -1 136.5 -22.5t113 -69.5t43.5 -128q-2 -76 -49 -120t-115 -63t-130 -19l-135 1zM333 1003l16 85l102 -1q64 -1 127 -16.5
t104 -56.5t40 -119q0 -88 -53.5 -141t-132 -76.5t-152.5 -21.5q-77 2 -142 29.5t-104 82t-41 136.5l194 -1q3 -45 32 -64.5t73 -20.5q46 0 86.5 24t48.5 72q6 33 -6 52t-36 27t-53 9z" />
    <glyph glyph-name="acute" unicode="&#xb4;" horiz-adv-x="656" 
d="M187 1228l239 308h323l-315 -308h-247z" />
    <glyph glyph-name="mu" unicode="&#xb5;" horiz-adv-x="1227" 
d="M875 1082h282l-188 -1082h-262l26 266zM804 504l106 4q-9 -89 -33.5 -182.5t-71 -173.5t-121.5 -128t-183 -45q-65 1 -123.5 28.5t-99.5 77t-50 117.5l16 259h146q-4 -43 -3 -87t12.5 -81.5t40.5 -61.5t83 -25q70 -2 119.5 21t82 65t52 97t27.5 115zM219 1082h281
l-260 -1498h-281z" />
    <glyph glyph-name="paragraph" unicode="&#xb6;" horiz-adv-x="971" 
d="M740 0h-211l91 520l-64 1q-136 3 -233 61t-145 160.5t-35 237.5q13 148 87 254.5t192 164.5t263 58l307 -1z" />
    <glyph glyph-name="periodcentered" unicode="&#xb7;" horiz-adv-x="600" 
d="M154 694q-1 69 46 112.5t114 44.5q64 1 110 -40t48 -107q1 -68 -46 -111.5t-113 -43.5q-65 -1 -111.5 39t-47.5 106z" />
    <glyph glyph-name="cedilla" unicode="&#xb8;" horiz-adv-x="534" 
d="M14 6l209 2l-20 -63q62 -14 94 -57t31 -106q-1 -74 -36.5 -121.5t-92.5 -73.5t-122 -37t-124 -12l9 162q29 3 56.5 11.5t47.5 28t25 52.5q6 34 -15 48.5t-52 18t-54 6.5z" />
    <glyph glyph-name="uni00B9" unicode="&#xb9;" horiz-adv-x="750" 
d="M653 1455l-129 -788h-198l96 551l-191 -43l29 164l369 115z" />
    <glyph glyph-name="ordmasculine" unicode="&#xba;" horiz-adv-x="909" 
d="M196 1044l6 77q10 101 59.5 182.5t130 128.5t186.5 45q100 -3 169 -51.5t101 -128t26 -175.5l-8 -78q-10 -101 -58.5 -182.5t-128.5 -128t-186 -44.5q-101 3 -169.5 51t-101.5 128t-26 176zM373 1122l-9 -81q-5 -49 4 -96.5t39 -79t88 -33.5q61 -2 103.5 28.5t67 79.5
t32.5 104l9 79q5 48 -4.5 96t-39 79.5t-86.5 33.5q-61 2 -104 -28t-68 -78.5t-32 -103.5z" />
    <glyph glyph-name="guillemotright" unicode="&#xbb;" horiz-adv-x="1003" 
d="M-7 128l306 402l221 3v-19l-328 -387zM145 925h167l216 -387l-1 -19l-214 3zM374 128l306 402l221 3v-19l-328 -387zM526 925h167l216 -387l-1 -19l-214 3z" />
    <glyph glyph-name="onequarter" unicode="&#xbc;" horiz-adv-x="1433" 
d="M621 1452l-129 -788h-198l95 551l-191 -43l29 164l370 115zM1249 1246l-879 -1126l-135 82l878 1126zM1298 324l-29 -163h-619l12 145l422 483l174 -1l-221 -275l-177 -188zM1292 789l-137 -789h-199l138 789h198z" />
    <glyph glyph-name="onehalf" unicode="&#xbd;" horiz-adv-x="1517" 
d="M1208 1246l-879 -1126l-135 82l878 1126zM604 1457l-129 -788h-198l95 551l-191 -43l29 164l370 115zM1356 160l-30 -160h-600l25 145l308 250q25 21 54 47.5t52 57t30 64.5q6 36 -12.5 58.5t-55.5 21.5q-53 0 -82.5 -34.5t-39.5 -81.5l-201 -1q6 85 49 147t112 96
t153 33q75 -1 139.5 -26.5t104 -78.5t35.5 -136q-2 -74 -41.5 -129t-96.5 -98.5t-111 -81.5l-128 -92z" />
    <glyph glyph-name="threequarters" unicode="&#xbe;" horiz-adv-x="1618" 
d="M1408 1246l-879 -1126l-135 82l878 1126zM1457 324l-29 -163h-619l12 145l422 483l174 -1l-221 -275l-177 -188zM1451 789l-137 -789h-199l138 789h198zM402 1136h73q31 1 61 11t50.5 31t26.5 56q7 39 -19 56t-61 18q-37 0 -66 -15.5t-43 -48.5l-204 -1q6 79 50.5 129.5
t112 74t140.5 22.5q68 -1 136 -22.5t112.5 -69.5t43.5 -128q-1 -76 -48 -120t-115 -63t-130 -19l-136 1zM378 1003l16 85l102 -1q64 -1 127 -16.5t103.5 -56.5t40.5 -119q-1 -88 -54.5 -141t-131.5 -76.5t-153 -21.5q-77 2 -141.5 29.5t-104 82t-40.5 136.5l194 -1
q2 -45 31.5 -64.5t73.5 -20.5q45 0 86 24t49 72q6 33 -6 52t-36 27t-53 9z" />
    <glyph glyph-name="questiondown" unicode="&#xbf;" horiz-adv-x="990" 
d="M401 646l242 2q-6 -79 -25.5 -145.5t-57 -123t-99.5 -109.5q-44 -37 -88.5 -77t-77 -87.5t-40.5 -108.5q-6 -43 3 -78t35.5 -56.5t73.5 -22.5q55 -2 94 22.5t62.5 65.5t33.5 90l281 2q-11 -132 -77.5 -223.5t-171.5 -138t-234 -44.5q-117 3 -208 47t-140 128t-40 208
q7 94 53.5 167.5t114 133.5t135.5 115q40 32 66 67t41.5 76t23.5 90zM746 959q0 -68 -46.5 -111t-112.5 -43q-63 -1 -109 39t-48 105q-1 68 45.5 111t113.5 44q63 0 109.5 -40t47.5 -105z" />
    <glyph glyph-name="Agrave" unicode="&#xc0;" horiz-adv-x="1335" 
d="M804 1192l-586 -1192h-322l778 1456h206zM920 0l-178 1223l11 233h193l275 -1456h-301zM994 542l-41 -235h-749l41 235h749zM821 1846l143 -308l-212 1l-221 306z" />
    <glyph glyph-name="Aacute" unicode="&#xc1;" horiz-adv-x="1335" 
d="M804 1192l-586 -1192h-322l778 1456h206zM920 0l-178 1223l11 233h193l275 -1456h-301zM994 542l-41 -235h-749l41 235h749zM691 1538l239 308h323l-315 -308h-247z" />
    <glyph glyph-name="Acircumflex" unicode="&#xc2;" horiz-adv-x="1335" 
d="M804 1192l-586 -1192h-322l778 1456h206zM920 0l-178 1223l11 233h193l275 -1456h-301zM994 542l-41 -235h-749l41 235h749zM953 1846l261 -275v-19l-216 4l-125 145l-177 -144l-226 -4l-1 21l324 272h160z" />
    <glyph glyph-name="Atilde" unicode="&#xc3;" horiz-adv-x="1335" 
d="M804 1192l-586 -1192h-322l778 1456h206zM920 0l-178 1223l11 233h193l275 -1456h-301zM994 542l-41 -235h-749l41 235h749zM1077 1841l161 -10q-4 -67 -31.5 -128.5t-78.5 -100.5t-126 -38q-37 0 -69.5 14.5t-63 33t-62 32t-66.5 12.5q-45 -2 -66.5 -31.5t-32.5 -66.5
l-167 8q5 66 33.5 127.5t79.5 101.5t125 39q36 -1 68 -15.5t63 -32.5t63 -31.5t68 -11.5q44 1 67 30t35 68z" />
    <glyph glyph-name="Adieresis" unicode="&#xc4;" horiz-adv-x="1335" 
d="M804 1192l-586 -1192h-322l778 1456h206zM920 0l-178 1223l11 233h193l275 -1456h-301zM994 542l-41 -235h-749l41 235h749zM482 1674q-1 54 39 91t93 38t94 -33.5t42 -89.5t-38.5 -91t-93.5 -37q-52 -1 -93 33t-43 89zM959 1673q-2 55 37.5 91.5t93.5 37.5q53 1 94 -33
t42 -89q2 -55 -38 -91t-94 -37q-52 -1 -93 32.5t-42 88.5z" />
    <glyph glyph-name="Aring" unicode="&#xc5;" horiz-adv-x="1335" 
d="M804 1192l-586 -1192h-322l778 1456h206zM920 0l-178 1223l11 233h193l275 -1456h-301zM994 542l-41 -235h-749l41 235h749zM652 1723q0 60 31 108.5t82 76.5t110 28q83 0 145 -56.5t62 -142.5q0 -60 -31 -107.5t-82 -74.5t-110 -27q-83 0 -144.5 54.5t-62.5 140.5z
M763 1724q-5 -41 17 -71t64 -30q48 0 84 33.5t43 79.5q6 41 -16.5 72.5t-66.5 31.5q-47 0 -82.5 -35.5t-42.5 -80.5z" />
    <glyph glyph-name="AE" unicode="&#xc6;" horiz-adv-x="1864" 
d="M1085 1286l-848 -1286h-343l1011 1456h183zM1061 576l-43 -239h-728l42 239h729zM1742 228l-40 -228h-712l40 228h712zM1308 1456l-193 -1456h-280l194 1456h279zM1714 862l-40 -227h-613l39 227h614zM1895 1456l-39 -228h-712l40 228h711z" />
    <glyph glyph-name="Ccedilla" unicode="&#xc7;" horiz-adv-x="1300" 
d="M918 482l286 4q-19 -161 -108.5 -275.5t-224.5 -174t-293 -56.5q-146 3 -246 62.5t-157 159.5t-75 223t-2 252l14 101q20 136 73.5 263t140.5 226t206 156t270 54q158 -3 267.5 -67.5t169 -179t66.5 -267.5l-291 1q1 81 -19.5 142.5t-70.5 96t-138 37.5q-96 3 -163 -37.5
t-110.5 -110t-68 -151.5t-36.5 -161l-14 -104q-8 -65 -11 -143.5t13 -149.5t62 -117.5t137 -49.5q90 -3 155.5 28t107 92t60.5 146zM452 3l209 2l-20 -63q62 -14 94 -57t31 -106q-1 -74 -36.5 -121.5t-92.5 -73.5t-122 -37t-124 -12l9 162q29 3 56.5 11.5t47.5 28t25 52.5
q6 34 -15 48.5t-52 18t-54 6.5z" />
    <glyph glyph-name="Egrave" unicode="&#xc8;" horiz-adv-x="1117" 
d="M1012 234l-41 -234h-753l40 234h754zM567 1456l-253 -1456h-293l252 1456h294zM1023 863l-40 -228h-655l40 228h655zM1222 1456l-41 -235h-752l42 235h751zM768 1850l143 -308l-212 1l-221 306z" />
    <glyph glyph-name="Eacute" unicode="&#xc9;" horiz-adv-x="1117" 
d="M1012 234l-41 -234h-753l40 234h754zM567 1456l-253 -1456h-293l252 1456h294zM1023 863l-40 -228h-655l40 228h655zM1222 1456l-41 -235h-752l42 235h751zM639 1542l239 308h323l-315 -308h-247z" />
    <glyph glyph-name="Ecircumflex" unicode="&#xca;" horiz-adv-x="1117" 
d="M1012 234l-41 -234h-753l40 234h754zM567 1456l-253 -1456h-293l252 1456h294zM1023 863l-40 -228h-655l40 228h655zM1222 1456l-41 -235h-752l42 235h751zM901 1850l261 -275v-19l-216 4l-125 145l-177 -144l-226 -4l-1 21l324 272h160z" />
    <glyph glyph-name="Edieresis" unicode="&#xcb;" horiz-adv-x="1117" 
d="M1012 234l-41 -234h-753l40 234h754zM567 1456l-253 -1456h-293l252 1456h294zM1023 863l-40 -228h-655l40 228h655zM1222 1456l-41 -235h-752l42 235h751zM429 1678q-1 54 39 91t93 38t94 -33.5t42 -89.5t-38.5 -91t-93.5 -37q-52 -1 -93 33t-43 89zM906 1677
q-2 55 37.5 91.5t93.5 37.5q53 1 94 -33t42 -89q2 -55 -38 -91t-94 -37q-52 -1 -93 32.5t-42 88.5z" />
    <glyph glyph-name="Igrave" unicode="&#xcc;" horiz-adv-x="581" 
d="M585 1456l-252 -1456h-293l253 1456h292zM442 1850l143 -308l-212 1l-221 306z" />
    <glyph glyph-name="Iacute" unicode="&#xcd;" horiz-adv-x="581" 
d="M585 1456l-252 -1456h-293l253 1456h292zM312 1542l239 308h323l-315 -308h-247z" />
    <glyph glyph-name="Icircumflex" unicode="&#xce;" horiz-adv-x="581" 
d="M585 1456l-252 -1456h-293l253 1456h292zM573 1850l261 -275v-19l-216 4l-125 145l-177 -144l-226 -4l-1 21l324 272h160z" />
    <glyph glyph-name="Idieresis" unicode="&#xcf;" horiz-adv-x="581" 
d="M585 1456l-252 -1456h-293l253 1456h292zM102 1678q-1 54 39 91t93 38t94 -33.5t42 -89.5t-38.5 -91t-93.5 -37q-52 -1 -93 33t-43 89zM579 1677q-2 55 37.5 91.5t93.5 37.5q53 1 94 -33t42 -89q2 -55 -38 -91t-94 -37q-52 -1 -93 32.5t-42 88.5z" />
    <glyph glyph-name="Eth" unicode="&#xd0;" horiz-adv-x="1321" 
d="M502 0h-324l42 234l291 -2q136 0 229 64.5t146.5 170t72.5 228.5l9 71q9 76 6 154.5t-28.5 145.5t-80.5 109t-149 45l-332 1l41 235l300 -1q146 -3 254 -59.5t177 -152.5t96 -219.5t11 -259.5l-8 -71q-20 -146 -82.5 -273t-161 -221.5t-227.5 -147t-282 -51.5zM597 1456
l-253 -1456h-293l252 1456h294zM732 823l-32 -178h-681l31 178h682z" />
    <glyph glyph-name="Ntilde" unicode="&#xd1;" horiz-adv-x="1402" 
d="M1425 1456l-253 -1456h-284l-403 987l-171 -987h-293l252 1456h285l404 -988l171 988h292zM1112 1841l161 -10q-4 -67 -31.5 -128.5t-78.5 -100.5t-126 -38q-37 0 -69.5 14.5t-63 33t-62 32t-66.5 12.5q-45 -2 -66.5 -31.5t-32.5 -66.5l-167 8q5 66 33.5 127.5
t79.5 101.5t125 39q36 -1 68 -15.5t63 -32.5t63 -31.5t68 -11.5q44 1 67 30t35 68z" />
    <glyph glyph-name="Ograve" unicode="&#xd2;" horiz-adv-x="1370" 
d="M1313 767l-8 -70q-20 -140 -75 -270t-144 -231.5t-211.5 -160t-277.5 -55.5q-148 3 -250.5 64.5t-162 163.5t-79.5 227.5t-4 257.5l8 69q20 140 75.5 269t145 230.5t212 159.5t275.5 55q148 -2 250.5 -63.5t162 -163t79.5 -227t4 -255.5zM1009 693l9 72q8 68 8.5 147.5
t-18.5 153t-67.5 121t-139.5 51.5q-98 3 -167.5 -39t-116 -113.5t-73.5 -156t-38 -165.5l-9 -72q-9 -67 -9.5 -147.5t18.5 -154t68 -121.5t140 -52q97 -3 166.5 40t116.5 114.5t74 156t38 165.5zM835 1847l143 -308l-212 1l-221 306z" />
    <glyph glyph-name="Oacute" unicode="&#xd3;" horiz-adv-x="1370" 
d="M1313 767l-8 -70q-20 -140 -75 -270t-144 -231.5t-211.5 -160t-277.5 -55.5q-148 3 -250.5 64.5t-162 163.5t-79.5 227.5t-4 257.5l8 69q20 140 75.5 269t145 230.5t212 159.5t275.5 55q148 -2 250.5 -63.5t162 -163t79.5 -227t4 -255.5zM1009 693l9 72q8 68 8.5 147.5
t-18.5 153t-67.5 121t-139.5 51.5q-98 3 -167.5 -39t-116 -113.5t-73.5 -156t-38 -165.5l-9 -72q-9 -67 -9.5 -147.5t18.5 -154t68 -121.5t140 -52q97 -3 166.5 40t116.5 114.5t74 156t38 165.5zM705 1539l239 308h323l-315 -308h-247z" />
    <glyph glyph-name="Ocircumflex" unicode="&#xd4;" horiz-adv-x="1370" 
d="M1313 767l-8 -70q-20 -140 -75 -270t-144 -231.5t-211.5 -160t-277.5 -55.5q-148 3 -250.5 64.5t-162 163.5t-79.5 227.5t-4 257.5l8 69q20 140 75.5 269t145 230.5t212 159.5t275.5 55q148 -2 250.5 -63.5t162 -163t79.5 -227t4 -255.5zM1009 693l9 72q8 68 8.5 147.5
t-18.5 153t-67.5 121t-139.5 51.5q-98 3 -167.5 -39t-116 -113.5t-73.5 -156t-38 -165.5l-9 -72q-9 -67 -9.5 -147.5t18.5 -154t68 -121.5t140 -52q97 -3 166.5 40t116.5 114.5t74 156t38 165.5zM967 1847l261 -275v-19l-216 4l-125 145l-177 -144l-226 -4l-1 21l324 272
h160z" />
    <glyph glyph-name="Otilde" unicode="&#xd5;" horiz-adv-x="1370" 
d="M1313 767l-8 -70q-20 -140 -75 -270t-144 -231.5t-211.5 -160t-277.5 -55.5q-148 3 -250.5 64.5t-162 163.5t-79.5 227.5t-4 257.5l8 69q20 140 75.5 269t145 230.5t212 159.5t275.5 55q148 -2 250.5 -63.5t162 -163t79.5 -227t4 -255.5zM1009 693l9 72q8 68 8.5 147.5
t-18.5 153t-67.5 121t-139.5 51.5q-98 3 -167.5 -39t-116 -113.5t-73.5 -156t-38 -165.5l-9 -72q-9 -67 -9.5 -147.5t18.5 -154t68 -121.5t140 -52q97 -3 166.5 40t116.5 114.5t74 156t38 165.5zM1091 1842l161 -10q-4 -67 -31.5 -128.5t-78.5 -100.5t-126 -38
q-37 0 -69.5 14.5t-63 33t-62 32t-66.5 12.5q-45 -2 -66.5 -31.5t-32.5 -66.5l-167 8q5 66 33.5 127.5t79.5 101.5t125 39q36 -1 68 -15.5t63 -32.5t63 -31.5t68 -11.5q44 1 67 30t35 68z" />
    <glyph glyph-name="Odieresis" unicode="&#xd6;" horiz-adv-x="1370" 
d="M1313 767l-8 -70q-20 -140 -75 -270t-144 -231.5t-211.5 -160t-277.5 -55.5q-148 3 -250.5 64.5t-162 163.5t-79.5 227.5t-4 257.5l8 69q20 140 75.5 269t145 230.5t212 159.5t275.5 55q148 -2 250.5 -63.5t162 -163t79.5 -227t4 -255.5zM1009 693l9 72q8 68 8.5 147.5
t-18.5 153t-67.5 121t-139.5 51.5q-98 3 -167.5 -39t-116 -113.5t-73.5 -156t-38 -165.5l-9 -72q-9 -67 -9.5 -147.5t18.5 -154t68 -121.5t140 -52q97 -3 166.5 40t116.5 114.5t74 156t38 165.5zM496 1675q-1 54 39 91t93 38t94 -33.5t42 -89.5t-38.5 -91t-93.5 -37
q-52 -1 -93 33t-43 89zM973 1674q-2 55 37.5 91.5t93.5 37.5q53 1 94 -33t42 -89q2 -55 -38 -91t-94 -37q-52 -1 -93 32.5t-42 88.5z" />
    <glyph glyph-name="multiply" unicode="&#xd7;" horiz-adv-x="1054" 
d="M169 201l-146 175l881 783l146 -176zM761 200l-628 806l180 154l628 -807z" />
    <glyph glyph-name="Oslash" unicode="&#xd8;" horiz-adv-x="1368" 
d="M1414 1517l-1202 -1611h-198l1203 1611h197zM1321 767l-9 -70q-19 -141 -74 -270.5t-144.5 -231t-212 -160t-276.5 -55.5q-119 2 -208 43t-150.5 110.5t-96.5 159.5t-45 192t2 208l10 69q20 140 75.5 269t145 230.5t212 160t275.5 55.5q118 -2 207 -43t150 -110.5
t96.5 -159.5t45.5 -191.5t-3 -205.5zM1016 693l10 72q6 54 8 117t-6 124.5t-32.5 113t-70 83.5t-117.5 35q-97 4 -167 -38.5t-116 -114t-73 -156t-38 -165.5l-10 -72q-7 -54 -9 -116.5t6 -124.5t32.5 -114t70 -84.5t117.5 -34.5q97 -4 167 39t116.5 114.5t73.5 156t38 165.5
z" />
    <glyph glyph-name="Ugrave" unicode="&#xd9;" horiz-adv-x="1310" 
d="M1054 1456h292l-164 -961q-23 -162 -106.5 -278.5t-214 -178t-293.5 -59.5q-152 3 -264.5 66.5t-168.5 178t-37 270.5l164 962h292l-163 -963q-9 -75 5.5 -137.5t60 -101t129.5 -40.5q89 -3 152 32t101 99.5t51 148.5zM803 1846l143 -308l-212 1l-221 306z" />
    <glyph glyph-name="Uacute" unicode="&#xda;" horiz-adv-x="1310" 
d="M1054 1456h292l-164 -961q-23 -162 -106.5 -278.5t-214 -178t-293.5 -59.5q-152 3 -264.5 66.5t-168.5 178t-37 270.5l164 962h292l-163 -963q-9 -75 5.5 -137.5t60 -101t129.5 -40.5q89 -3 152 32t101 99.5t51 148.5zM673 1538l239 308h323l-315 -308h-247z" />
    <glyph glyph-name="Ucircumflex" unicode="&#xdb;" horiz-adv-x="1310" 
d="M1054 1456h292l-164 -961q-23 -162 -106.5 -278.5t-214 -178t-293.5 -59.5q-152 3 -264.5 66.5t-168.5 178t-37 270.5l164 962h292l-163 -963q-9 -75 5.5 -137.5t60 -101t129.5 -40.5q89 -3 152 32t101 99.5t51 148.5zM935 1846l261 -275v-19l-216 4l-125 145l-177 -144
l-226 -4l-1 21l324 272h160z" />
    <glyph glyph-name="Udieresis" unicode="&#xdc;" horiz-adv-x="1310" 
d="M1054 1456h292l-164 -961q-23 -162 -106.5 -278.5t-214 -178t-293.5 -59.5q-152 3 -264.5 66.5t-168.5 178t-37 270.5l164 962h292l-163 -963q-9 -75 5.5 -137.5t60 -101t129.5 -40.5q89 -3 152 32t101 99.5t51 148.5zM464 1674q-1 54 39 91t93 38t94 -33.5t42 -89.5
t-38.5 -91t-93.5 -37q-52 -1 -93 33t-43 89zM941 1673q-2 55 37.5 91.5t93.5 37.5q53 1 94 -33t42 -89q2 -55 -38 -91t-94 -37q-52 -1 -93 32.5t-42 88.5z" />
    <glyph glyph-name="Yacute" unicode="&#xdd;" horiz-adv-x="1230" 
d="M463 1456l179 -662l409 662h333l-636 -940l-88 -516h-298l95 545l-303 910zM638 1538l239 308h323l-315 -308h-247z" />
    <glyph glyph-name="Thorn" unicode="&#xde;" horiz-adv-x="1211" 
d="M277 1456h282l-253 -1456h-282zM333 1185l380 1q132 -3 240 -53.5t168.5 -147t49.5 -239.5q-12 -155 -96.5 -256.5t-213 -151t-271.5 -49.5l-275 1l39 224l243 -1q72 1 135 27t104.5 77.5t53.5 126.5q9 65 -10.5 113t-64.5 75t-109 29l-224 2z" />
    <glyph glyph-name="germandbls" unicode="&#xdf;" horiz-adv-x="1255" 
d="M495 1100l-186 -1100h-281l188 1103q14 106 56 191.5t109.5 145.5t157 91t198.5 28q106 -2 191.5 -44.5t133 -122t39.5 -192.5q-4 -56 -25.5 -102.5t-48.5 -89.5t-51 -88t-33 -98q-8 -48 10.5 -92t51 -87t66 -86.5t56.5 -92t20 -103.5q-7 -131 -75.5 -216.5
t-175.5 -126.5t-228 -40q-46 1 -93.5 7t-93 18.5t-87.5 33.5l74 222q45 -27 98.5 -41.5t107.5 -13.5q47 0 88.5 17.5t70 51t36.5 82.5q9 50 -11 93t-53.5 84t-68.5 83t-57.5 89t-18.5 105q4 54 25.5 100.5t49 90.5t50.5 89.5t29 98.5q6 41 -6.5 74.5t-40 53.5t-70.5 22
q-69 3 -110 -33t-62.5 -92.5t-29.5 -112.5z" />
    <glyph glyph-name="agrave" unicode="&#xe0;" horiz-adv-x="1063" 
d="M616 244l76 485q5 44 -4 82t-36.5 60.5t-77.5 24.5q-45 1 -80.5 -15.5t-58.5 -47t-32 -72.5l-282 -2q5 90 50.5 155.5t115.5 107.5t152.5 62t161.5 18q113 -2 201.5 -47t136 -128.5t35.5 -202.5l-75 -464q-9 -58 -14 -121.5t18 -120.5l-2 -18l-276 -1q-18 59 -18 121.5
t9 123.5zM724 659l-27 -163l-143 1q-43 -1 -85.5 -11.5t-78.5 -32t-59.5 -55.5t-29.5 -83q-5 -35 7 -62.5t37.5 -43.5t61.5 -17q51 -1 100 19.5t85 58.5t50 88l60 -125q-24 -56 -60.5 -103t-83.5 -81.5t-103 -53t-120 -17.5q-89 2 -163.5 42.5t-118 111t-39.5 164.5
q4 106 53 176.5t126.5 111.5t169 58.5t181.5 17.5zM631 1536l143 -308l-212 1l-221 306z" />
    <glyph glyph-name="aacute" unicode="&#xe1;" horiz-adv-x="1063" 
d="M616 244l76 485q5 44 -4 82t-36.5 60.5t-77.5 24.5q-45 1 -80.5 -15.5t-58.5 -47t-32 -72.5l-282 -2q5 90 50.5 155.5t115.5 107.5t152.5 62t161.5 18q113 -2 201.5 -47t136 -128.5t35.5 -202.5l-75 -464q-9 -58 -14 -121.5t18 -120.5l-2 -18l-276 -1q-18 59 -18 121.5
t9 123.5zM724 659l-27 -163l-143 1q-43 -1 -85.5 -11.5t-78.5 -32t-59.5 -55.5t-29.5 -83q-5 -35 7 -62.5t37.5 -43.5t61.5 -17q51 -1 100 19.5t85 58.5t50 88l60 -125q-24 -56 -60.5 -103t-83.5 -81.5t-103 -53t-120 -17.5q-89 2 -163.5 42.5t-118 111t-39.5 164.5
q4 106 53 176.5t126.5 111.5t169 58.5t181.5 17.5zM502 1228l239 308h323l-315 -308h-247z" />
    <glyph glyph-name="acircumflex" unicode="&#xe2;" horiz-adv-x="1063" 
d="M616 244l76 485q5 44 -4 82t-36.5 60.5t-77.5 24.5q-45 1 -80.5 -15.5t-58.5 -47t-32 -72.5l-282 -2q5 90 50.5 155.5t115.5 107.5t152.5 62t161.5 18q113 -2 201.5 -47t136 -128.5t35.5 -202.5l-75 -464q-9 -58 -14 -121.5t18 -120.5l-2 -18l-276 -1q-18 59 -18 121.5
t9 123.5zM724 659l-27 -163l-143 1q-43 -1 -85.5 -11.5t-78.5 -32t-59.5 -55.5t-29.5 -83q-5 -35 7 -62.5t37.5 -43.5t61.5 -17q51 -1 100 19.5t85 58.5t50 88l60 -125q-24 -56 -60.5 -103t-83.5 -81.5t-103 -53t-120 -17.5q-89 2 -163.5 42.5t-118 111t-39.5 164.5
q4 106 53 176.5t126.5 111.5t169 58.5t181.5 17.5zM763 1536l261 -275v-19l-216 4l-125 145l-177 -144l-226 -4l-1 21l324 272h160z" />
    <glyph glyph-name="atilde" unicode="&#xe3;" horiz-adv-x="1063" 
d="M616 244l76 485q5 44 -4 82t-36.5 60.5t-77.5 24.5q-45 1 -80.5 -15.5t-58.5 -47t-32 -72.5l-282 -2q5 90 50.5 155.5t115.5 107.5t152.5 62t161.5 18q113 -2 201.5 -47t136 -128.5t35.5 -202.5l-75 -464q-9 -58 -14 -121.5t18 -120.5l-2 -18l-276 -1q-18 59 -18 121.5
t9 123.5zM724 659l-27 -163l-143 1q-43 -1 -85.5 -11.5t-78.5 -32t-59.5 -55.5t-29.5 -83q-5 -35 7 -62.5t37.5 -43.5t61.5 -17q51 -1 100 19.5t85 58.5t50 88l60 -125q-24 -56 -60.5 -103t-83.5 -81.5t-103 -53t-120 -17.5q-89 2 -163.5 42.5t-118 111t-39.5 164.5
q4 106 53 176.5t126.5 111.5t169 58.5t181.5 17.5zM888 1531l161 -10q-4 -67 -31.5 -128.5t-78.5 -100.5t-126 -38q-37 0 -69.5 14.5t-63 33t-62 32t-66.5 12.5q-45 -2 -66.5 -31.5t-32.5 -66.5l-167 8q5 66 33.5 127.5t79.5 101.5t125 39q36 -1 68 -15.5t63 -32.5t63 -31.5
t68 -11.5q44 1 67 30t35 68z" />
    <glyph glyph-name="adieresis" unicode="&#xe4;" horiz-adv-x="1063" 
d="M616 244l76 485q5 44 -4 82t-36.5 60.5t-77.5 24.5q-45 1 -80.5 -15.5t-58.5 -47t-32 -72.5l-282 -2q5 90 50.5 155.5t115.5 107.5t152.5 62t161.5 18q113 -2 201.5 -47t136 -128.5t35.5 -202.5l-75 -464q-9 -58 -14 -121.5t18 -120.5l-2 -18l-276 -1q-18 59 -18 121.5
t9 123.5zM724 659l-27 -163l-143 1q-43 -1 -85.5 -11.5t-78.5 -32t-59.5 -55.5t-29.5 -83q-5 -35 7 -62.5t37.5 -43.5t61.5 -17q51 -1 100 19.5t85 58.5t50 88l60 -125q-24 -56 -60.5 -103t-83.5 -81.5t-103 -53t-120 -17.5q-89 2 -163.5 42.5t-118 111t-39.5 164.5
q4 106 53 176.5t126.5 111.5t169 58.5t181.5 17.5zM292 1364q-1 54 39 91t93 38t94 -33.5t42 -89.5t-38.5 -91t-93.5 -37q-52 -1 -93 33t-43 89zM769 1363q-2 55 37.5 91.5t93.5 37.5q53 1 94 -33t42 -89q2 -55 -38 -91t-94 -37q-52 -1 -93 32.5t-42 88.5z" />
    <glyph glyph-name="aring" unicode="&#xe5;" horiz-adv-x="1063" 
d="M616 244l76 485q5 44 -4 82t-36.5 60.5t-77.5 24.5q-45 1 -80.5 -15.5t-58.5 -47t-32 -72.5l-282 -2q5 90 50.5 155.5t115.5 107.5t152.5 62t161.5 18q113 -2 201.5 -47t136 -128.5t35.5 -202.5l-75 -464q-9 -58 -14 -121.5t18 -120.5l-2 -18l-276 -1q-18 59 -18 121.5
t9 123.5zM724 659l-27 -163l-143 1q-43 -1 -85.5 -11.5t-78.5 -32t-59.5 -55.5t-29.5 -83q-5 -35 7 -62.5t37.5 -43.5t61.5 -17q51 -1 100 19.5t85 58.5t50 88l60 -125q-24 -56 -60.5 -103t-83.5 -81.5t-103 -53t-120 -17.5q-89 2 -163.5 42.5t-118 111t-39.5 164.5
q4 106 53 176.5t126.5 111.5t169 58.5t181.5 17.5zM463 1412q0 60 31 108.5t82 76.5t110 28q83 0 145 -56.5t62 -142.5q0 -60 -31 -107.5t-82 -74.5t-110 -27q-83 0 -144.5 54.5t-62.5 140.5zM574 1413q-5 -41 17 -71t64 -30q48 0 84 33.5t43 79.5q6 41 -16.5 72.5
t-66.5 31.5q-47 0 -82.5 -35.5t-42.5 -80.5z" />
    <glyph glyph-name="ae" unicode="&#xe6;" horiz-adv-x="1678" 
d="M633 181l86 529q5 44 -4 81t-36 61t-76 26q-44 1 -84 -13t-68.5 -43.5t-37.5 -74.5l-280 17q5 93 51 158t117.5 105.5t155 58.5t165.5 17q119 -3 206.5 -51t132 -136t31.5 -211l-81 -489zM757 649l-30 -183l-187 1q-50 -1 -102.5 -17.5t-91.5 -51.5t-48 -92
q-6 -44 11.5 -70.5t50 -39t70.5 -12.5q36 -1 78 10.5t81.5 33t68.5 51.5t40 67l115 -154q-41 -78 -114.5 -125t-161 -68t-170.5 -20q-100 2 -182.5 39.5t-128.5 110.5t-41 181q4 103 54.5 169t128 103.5t167.5 52.5t174 15zM1120 -19q-112 1 -197 41t-140 110t-78.5 162.5
t-13.5 200.5l9 68q13 112 56.5 211t114 173.5t167 116t215.5 38.5q105 -3 181 -42.5t122.5 -107.5t64.5 -154.5t7 -184.5l-25 -158h-806l34 189l520 -1l6 30q8 49 1 95t-36.5 77t-86.5 33q-65 3 -112 -25t-78 -75t-49 -104t-25 -111l-9 -68q-6 -57 0.5 -108t29.5 -90.5
t64.5 -63.5t105.5 -26q81 -2 153.5 21t143.5 57l59 -186q-52 -44 -119.5 -70.5t-139.5 -37.5t-139 -10z" />
    <glyph glyph-name="ccedilla" unicode="&#xe7;" horiz-adv-x="1035" 
d="M478 204q53 -1 94.5 20t68.5 59t36 88l265 1q-9 -121 -77.5 -210t-173 -137t-221.5 -45q-117 2 -200.5 47t-134.5 120.5t-71.5 172.5t-10.5 204l3 30q12 112 54 212.5t112.5 177t166.5 119t217 39.5q125 -2 214 -56.5t135.5 -148.5t44.5 -216l-264 1q1 49 -13 93.5
t-47.5 72.5t-90.5 30q-67 2 -112 -27.5t-73 -79t-43 -107t-21 -111.5l-2 -29q-5 -45 -6 -99.5t11 -104t44.5 -82t94.5 -34.5zM336 3l209 2l-20 -63q62 -14 94 -57t31 -106q-1 -74 -36.5 -121.5t-92.5 -73.5t-122 -37t-124 -12l9 162q29 3 56.5 11.5t47.5 28t25 52.5
q6 34 -15 48.5t-52 18t-54 6.5z" />
    <glyph glyph-name="egrave" unicode="&#xe8;" horiz-adv-x="1073" 
d="M512 -20q-111 2 -200 42.5t-148.5 111.5t-87.5 165t-20 202l4 41q12 113 55 215t115 180.5t170.5 123t219.5 41.5q113 -2 193 -46t129 -118t67 -168.5t7 -197.5l-16 -120h-836l31 192l552 -1l5 25q8 55 -5 102.5t-49 76.5t-96 31q-69 2 -116 -29t-77 -82t-46 -110.5
t-23 -114.5l-4 -40q-5 -53 3 -105.5t31.5 -94.5t65 -68t104.5 -28q80 -2 147.5 31.5t121.5 89.5l126 -152q-45 -68 -114.5 -111.5t-149.5 -64t-159 -19.5zM614 1537l143 -308l-212 1l-221 306z" />
    <glyph glyph-name="eacute" unicode="&#xe9;" horiz-adv-x="1073" 
d="M512 -20q-111 2 -200 42.5t-148.5 111.5t-87.5 165t-20 202l4 41q12 113 55 215t115 180.5t170.5 123t219.5 41.5q113 -2 193 -46t129 -118t67 -168.5t7 -197.5l-16 -120h-836l31 192l552 -1l5 25q8 55 -5 102.5t-49 76.5t-96 31q-69 2 -116 -29t-77 -82t-46 -110.5
t-23 -114.5l-4 -40q-5 -53 3 -105.5t31.5 -94.5t65 -68t104.5 -28q80 -2 147.5 31.5t121.5 89.5l126 -152q-45 -68 -114.5 -111.5t-149.5 -64t-159 -19.5zM484 1229l239 308h323l-315 -308h-247z" />
    <glyph glyph-name="ecircumflex" unicode="&#xea;" horiz-adv-x="1073" 
d="M512 -20q-111 2 -200 42.5t-148.5 111.5t-87.5 165t-20 202l4 41q12 113 55 215t115 180.5t170.5 123t219.5 41.5q113 -2 193 -46t129 -118t67 -168.5t7 -197.5l-16 -120h-836l31 192l552 -1l5 25q8 55 -5 102.5t-49 76.5t-96 31q-69 2 -116 -29t-77 -82t-46 -110.5
t-23 -114.5l-4 -40q-5 -53 3 -105.5t31.5 -94.5t65 -68t104.5 -28q80 -2 147.5 31.5t121.5 89.5l126 -152q-45 -68 -114.5 -111.5t-149.5 -64t-159 -19.5zM746 1537l261 -275v-19l-216 4l-125 145l-177 -144l-226 -4l-1 21l324 272h160z" />
    <glyph glyph-name="edieresis" unicode="&#xeb;" horiz-adv-x="1073" 
d="M512 -20q-111 2 -200 42.5t-148.5 111.5t-87.5 165t-20 202l4 41q12 113 55 215t115 180.5t170.5 123t219.5 41.5q113 -2 193 -46t129 -118t67 -168.5t7 -197.5l-16 -120h-836l31 192l552 -1l5 25q8 55 -5 102.5t-49 76.5t-96 31q-69 2 -116 -29t-77 -82t-46 -110.5
t-23 -114.5l-4 -40q-5 -53 3 -105.5t31.5 -94.5t65 -68t104.5 -28q80 -2 147.5 31.5t121.5 89.5l126 -152q-45 -68 -114.5 -111.5t-149.5 -64t-159 -19.5zM274 1365q-1 54 39 91t93 38t94 -33.5t42 -89.5t-38.5 -91t-93.5 -37q-52 -1 -93 33t-43 89zM751 1364
q-2 55 37.5 91.5t93.5 37.5q53 1 94 -33t42 -89q2 -55 -38 -91t-94 -37q-52 -1 -93 32.5t-42 88.5z" />
    <glyph glyph-name="igrave" unicode="&#xec;" horiz-adv-x="542" 
d="M495 1082l-188 -1082h-282l188 1082h282zM367 1521l143 -308l-212 1l-221 306z" />
    <glyph glyph-name="iacute" unicode="&#xed;" horiz-adv-x="542" 
d="M495 1082l-188 -1082h-282l188 1082h282zM237 1213l239 308h323l-315 -308h-247z" />
    <glyph glyph-name="icircumflex" unicode="&#xee;" horiz-adv-x="542" 
d="M495 1082l-188 -1082h-282l188 1082h282zM498 1521l261 -275v-19l-216 4l-125 145l-177 -144l-226 -4l-1 21l324 272h160z" />
    <glyph glyph-name="idieresis" unicode="&#xef;" horiz-adv-x="542" 
d="M495 1082l-188 -1082h-282l188 1082h282zM28 1349q-1 54 39 91t93 38t94 -33.5t42 -89.5t-38.5 -91t-93.5 -37q-52 -1 -93 33t-43 89zM505 1348q-2 55 37.5 91.5t93.5 37.5q53 1 94 -33t42 -89q2 -55 -38 -91t-94 -37q-52 -1 -93 32.5t-42 88.5z" />
    <glyph glyph-name="eth" unicode="&#xf0;" horiz-adv-x="1142" 
d="M365 1363l102 218q167 -41 292 -128t204 -211t109.5 -275t9.5 -318l-10 -75q-16 -114 -62.5 -221.5t-121.5 -192.5t-177 -134t-227 -46q-102 2 -183.5 39.5t-138 102.5t-83.5 151.5t-18 185.5q8 103 46 196.5t102.5 164.5t153 110t199.5 36q107 -3 187 -54.5t125.5 -136
t49.5 -188.5l-100 3q2 43 -16 74t-49 51t-69 29.5t-75 10.5q-64 1 -112.5 -23t-81.5 -66.5t-52.5 -96t-25.5 -110.5q-5 -43 1 -87.5t24.5 -82t52.5 -61t85 -25.5q67 -2 116.5 29.5t82.5 84.5t52.5 114t27.5 116l15 105q18 126 -0.5 239.5t-72.5 207t-144.5 161t-217.5 103.5
zM1094 1386l-596 -352l-61 125l597 351z" />
    <glyph glyph-name="ntilde" unicode="&#xf1;" horiz-adv-x="1113" 
d="M424 835l-145 -835h-282l188 1082h264zM341 579l-70 -2q11 97 44 192t90.5 171.5t141 120.5t194.5 42q90 -3 148.5 -37.5t90 -92.5t41 -131t1.5 -152l-116 -690h-283l117 693q6 53 -3 94t-39.5 65t-88.5 25q-64 2 -110.5 -24t-78.5 -70t-51 -97t-28 -107zM913 1531
l161 -10q-4 -67 -31.5 -128.5t-78.5 -100.5t-126 -38q-37 0 -69.5 14.5t-63 33t-62 32t-66.5 12.5q-45 -2 -66.5 -31.5t-32.5 -66.5l-167 8q5 66 33.5 127.5t79.5 101.5t125 39q36 -1 68 -15.5t63 -32.5t63 -31.5t68 -11.5q44 1 67 30t35 68z" />
    <glyph glyph-name="ograve" unicode="&#xf2;" 
d="M53 524l3 21q12 115 55.5 216.5t116 179t171 121t221.5 40.5q117 -2 202 -47t139.5 -121t77 -174t12.5 -207l-2 -22q-13 -114 -57.5 -214.5t-117 -177t-171.5 -119.5t-220 -40q-115 2 -201 46.5t-140 120t-76 172.5t-13 205zM337 545l-2 -22q-5 -48 -3 -102.5
t17.5 -103.5t51.5 -80.5t99 -33.5q67 -2 115 27.5t79 79t49 108t24 114.5l2 21q4 48 2.5 103.5t-17.5 105t-52 82t-99 34.5q-67 2 -115 -28.5t-79 -80.5t-48.5 -109t-23.5 -115zM644 1536l143 -308l-212 1l-221 306z" />
    <glyph glyph-name="oacute" unicode="&#xf3;" 
d="M53 524l3 21q12 115 55.5 216.5t116 179t171 121t221.5 40.5q117 -2 202 -47t139.5 -121t77 -174t12.5 -207l-2 -22q-13 -114 -57.5 -214.5t-117 -177t-171.5 -119.5t-220 -40q-115 2 -201 46.5t-140 120t-76 172.5t-13 205zM337 545l-2 -22q-5 -48 -3 -102.5
t17.5 -103.5t51.5 -80.5t99 -33.5q67 -2 115 27.5t79 79t49 108t24 114.5l2 21q4 48 2.5 103.5t-17.5 105t-52 82t-99 34.5q-67 2 -115 -28.5t-79 -80.5t-48.5 -109t-23.5 -115zM515 1228l239 308h323l-315 -308h-247z" />
    <glyph glyph-name="ocircumflex" unicode="&#xf4;" 
d="M53 524l3 21q12 115 55.5 216.5t116 179t171 121t221.5 40.5q117 -2 202 -47t139.5 -121t77 -174t12.5 -207l-2 -22q-13 -114 -57.5 -214.5t-117 -177t-171.5 -119.5t-220 -40q-115 2 -201 46.5t-140 120t-76 172.5t-13 205zM337 545l-2 -22q-5 -48 -3 -102.5
t17.5 -103.5t51.5 -80.5t99 -33.5q67 -2 115 27.5t79 79t49 108t24 114.5l2 21q4 48 2.5 103.5t-17.5 105t-52 82t-99 34.5q-67 2 -115 -28.5t-79 -80.5t-48.5 -109t-23.5 -115zM776 1536l261 -275v-19l-216 4l-125 145l-177 -144l-226 -4l-1 21l324 272h160z" />
    <glyph glyph-name="otilde" unicode="&#xf5;" 
d="M53 524l3 21q12 115 55.5 216.5t116 179t171 121t221.5 40.5q117 -2 202 -47t139.5 -121t77 -174t12.5 -207l-2 -22q-13 -114 -57.5 -214.5t-117 -177t-171.5 -119.5t-220 -40q-115 2 -201 46.5t-140 120t-76 172.5t-13 205zM337 545l-2 -22q-5 -48 -3 -102.5
t17.5 -103.5t51.5 -80.5t99 -33.5q67 -2 115 27.5t79 79t49 108t24 114.5l2 21q4 48 2.5 103.5t-17.5 105t-52 82t-99 34.5q-67 2 -115 -28.5t-79 -80.5t-48.5 -109t-23.5 -115zM901 1531l161 -10q-4 -67 -31.5 -128.5t-78.5 -100.5t-126 -38q-37 0 -69.5 14.5t-63 33
t-62 32t-66.5 12.5q-45 -2 -66.5 -31.5t-32.5 -66.5l-167 8q5 66 33.5 127.5t79.5 101.5t125 39q36 -1 68 -15.5t63 -32.5t63 -31.5t68 -11.5q44 1 67 30t35 68z" />
    <glyph glyph-name="odieresis" unicode="&#xf6;" 
d="M53 524l3 21q12 115 55.5 216.5t116 179t171 121t221.5 40.5q117 -2 202 -47t139.5 -121t77 -174t12.5 -207l-2 -22q-13 -114 -57.5 -214.5t-117 -177t-171.5 -119.5t-220 -40q-115 2 -201 46.5t-140 120t-76 172.5t-13 205zM337 545l-2 -22q-5 -48 -3 -102.5
t17.5 -103.5t51.5 -80.5t99 -33.5q67 -2 115 27.5t79 79t49 108t24 114.5l2 21q4 48 2.5 103.5t-17.5 105t-52 82t-99 34.5q-67 2 -115 -28.5t-79 -80.5t-48.5 -109t-23.5 -115zM305 1364q-1 54 39 91t93 38t94 -33.5t42 -89.5t-38.5 -91t-93.5 -37q-52 -1 -93 33t-43 89z
M782 1363q-2 55 37.5 91.5t93.5 37.5q53 1 94 -33t42 -89q2 -55 -38 -91t-94 -37q-52 -1 -93 32.5t-42 88.5z" />
    <glyph glyph-name="divide" unicode="&#xf7;" horiz-adv-x="1133" 
d="M1096 800l-40 -225h-1000l40 225h1000zM488 1085q0 68 46.5 110t112.5 43q64 1 111 -38t48 -105q1 -68 -46 -109.5t-113 -42.5q-63 -1 -110.5 37.5t-48.5 104.5zM348 274q-1 68 45.5 110t112.5 43q64 1 111 -38t48 -105q1 -68 -46 -110t-113 -43q-63 -1 -110 37.5
t-48 105.5z" />
    <glyph glyph-name="oslash" unicode="&#xf8;" horiz-adv-x="1120" 
d="M1078 1216l-879 -1358h-171l879 1358h171zM52 522l2 22q14 115 59 217t118.5 180t173 121t222.5 41q116 -3 200.5 -48t137.5 -121.5t74 -174t10 -205.5l-2 -22q-14 -115 -59 -216t-119 -177.5t-173.5 -119t-220.5 -40.5q-116 3 -201 47.5t-138 119.5t-74 172t-10 204z
M336 545l-2 -22q-5 -48 -4.5 -102.5t15.5 -103t50.5 -80.5t97.5 -34q68 -2 116.5 27.5t80.5 79t50 108t26 114.5l2 21q5 48 4 103t-16 104.5t-50 82.5t-98 35q-67 2 -116 -28t-81 -80t-50 -109.5t-25 -115.5z" />
    <glyph glyph-name="ugrave" unicode="&#xf9;" horiz-adv-x="1113" 
d="M672 274l140 808h282l-188 -1082h-264zM736 482l81 2q-11 -95 -42 -186t-85 -164t-134 -115t-189 -40q-89 2 -150 34.5t-97 88t-48.5 127.5t-4.5 154l117 699h281l-118 -703q-3 -34 0 -64.5t16 -54.5t37 -38.5t64 -15.5q85 -3 141 34.5t87.5 101.5t43.5 140zM654 1536
l143 -308l-212 1l-221 306z" />
    <glyph glyph-name="uacute" unicode="&#xfa;" horiz-adv-x="1113" 
d="M672 274l140 808h282l-188 -1082h-264zM736 482l81 2q-11 -95 -42 -186t-85 -164t-134 -115t-189 -40q-89 2 -150 34.5t-97 88t-48.5 127.5t-4.5 154l117 699h281l-118 -703q-3 -34 0 -64.5t16 -54.5t37 -38.5t64 -15.5q85 -3 141 34.5t87.5 101.5t43.5 140zM524 1228
l239 308h323l-315 -308h-247z" />
    <glyph glyph-name="ucircumflex" unicode="&#xfb;" horiz-adv-x="1113" 
d="M672 274l140 808h282l-188 -1082h-264zM736 482l81 2q-11 -95 -42 -186t-85 -164t-134 -115t-189 -40q-89 2 -150 34.5t-97 88t-48.5 127.5t-4.5 154l117 699h281l-118 -703q-3 -34 0 -64.5t16 -54.5t37 -38.5t64 -15.5q85 -3 141 34.5t87.5 101.5t43.5 140zM785 1536
l261 -275v-19l-216 4l-125 145l-177 -144l-226 -4l-1 21l324 272h160z" />
    <glyph glyph-name="udieresis" unicode="&#xfc;" horiz-adv-x="1113" 
d="M672 274l140 808h282l-188 -1082h-264zM736 482l81 2q-11 -95 -42 -186t-85 -164t-134 -115t-189 -40q-89 2 -150 34.5t-97 88t-48.5 127.5t-4.5 154l117 699h281l-118 -703q-3 -34 0 -64.5t16 -54.5t37 -38.5t64 -15.5q85 -3 141 34.5t87.5 101.5t43.5 140zM315 1364
q-1 54 39 91t93 38t94 -33.5t42 -89.5t-38.5 -91t-93.5 -37q-52 -1 -93 33t-43 89zM792 1363q-2 55 37.5 91.5t93.5 37.5q53 1 94 -33t42 -89q2 -55 -38 -91t-94 -37q-52 -1 -93 32.5t-42 88.5z" />
    <glyph glyph-name="yacute" unicode="&#xfd;" horiz-adv-x="1000" 
d="M339 137l438 945h310l-634 -1246q-28 -59 -63.5 -109.5t-80.5 -88t-101 -58t-126 -20.5q-35 0 -68 6t-66 14l20 213q11 -1 21.5 -2t20.5 -1q50 -1 88.5 11.5t67.5 40t52 71.5zM384 1082l94 -799l-13 -291l-188 -22l-185 1112h292zM474 1228l239 308h323l-315 -308h-247z
" />
    <glyph glyph-name="thorn" unicode="&#xfe;" horiz-adv-x="1125" 
d="M554 1536l-339 -1952h-283l339 1952h283zM1045 559l-2 -21q-12 -99 -46 -199t-92 -182t-143 -131.5t-200 -46.5q-101 3 -167.5 53t-105 128.5t-53.5 169.5t-11 174l6 56q16 91 52.5 187.5t95 178t141 131t189.5 46.5q111 -2 181.5 -52.5t107.5 -130.5t47 -175t0 -186z
M762 539l2 21q4 44 4.5 97.5t-11.5 103t-44 82t-92 34.5q-62 3 -107.5 -19t-78 -61.5t-51.5 -89.5t-28 -103l-21 -140q-4 -47 2.5 -92t25 -82.5t54 -60.5t90.5 -24q65 -2 111 29.5t75.5 82.5t45.5 110t23 112z" />
    <glyph glyph-name="ydieresis" unicode="&#xff;" horiz-adv-x="1000" 
d="M339 137l438 945h310l-634 -1246q-28 -59 -63.5 -109.5t-80.5 -88t-101 -58t-126 -20.5q-35 0 -68 6t-66 14l20 213q11 -1 21.5 -2t20.5 -1q50 -1 88.5 11.5t67.5 40t52 71.5zM384 1082l94 -799l-13 -291l-188 -22l-185 1112h292zM264 1364q-1 54 39 91t93 38t94 -33.5
t42 -89.5t-38.5 -91t-93.5 -37q-52 -1 -93 33t-43 89zM741 1363q-2 55 37.5 91.5t93.5 37.5q53 1 94 -33t42 -89q2 -55 -38 -91t-94 -37q-52 -1 -93 32.5t-42 88.5z" />
    <glyph glyph-name="Amacron" unicode="&#x100;" horiz-adv-x="1335" 
d="M804 1192l-586 -1192h-322l778 1456h206zM920 0l-178 1223l11 233h193l275 -1456h-301zM994 542l-41 -235h-749l41 235h749zM1204 1763l-25 -163h-669l27 163h667z" />
    <glyph glyph-name="amacron" unicode="&#x101;" horiz-adv-x="1063" 
d="M616 244l76 485q5 44 -4 82t-36.5 60.5t-77.5 24.5q-45 1 -80.5 -15.5t-58.5 -47t-32 -72.5l-282 -2q5 90 50.5 155.5t115.5 107.5t152.5 62t161.5 18q113 -2 201.5 -47t136 -128.5t35.5 -202.5l-75 -464q-9 -58 -14 -121.5t18 -120.5l-2 -18l-276 -1q-18 59 -18 121.5
t9 123.5zM724 659l-27 -163l-143 1q-43 -1 -85.5 -11.5t-78.5 -32t-59.5 -55.5t-29.5 -83q-5 -35 7 -62.5t37.5 -43.5t61.5 -17q51 -1 100 19.5t85 58.5t50 88l60 -125q-24 -56 -60.5 -103t-83.5 -81.5t-103 -53t-120 -17.5q-89 2 -163.5 42.5t-118 111t-39.5 164.5
q4 106 53 176.5t126.5 111.5t169 58.5t181.5 17.5zM1015 1453l-25 -163h-669l27 163h667z" />
    <glyph glyph-name="Abreve" unicode="&#x102;" horiz-adv-x="1335" 
d="M804 1192l-586 -1192h-322l778 1456h206zM920 0l-178 1223l11 233h193l275 -1456h-301zM994 542l-41 -235h-749l41 235h749zM1012 1834l198 1q-5 -96 -54.5 -163t-128.5 -100.5t-172 -31.5q-135 2 -225 79t-91 217l198 -2q-1 -60 26.5 -97t92.5 -38t105 36t51 99z" />
    <glyph glyph-name="abreve" unicode="&#x103;" horiz-adv-x="1063" 
d="M616 244l76 485q5 44 -4 82t-36.5 60.5t-77.5 24.5q-45 1 -80.5 -15.5t-58.5 -47t-32 -72.5l-282 -2q5 90 50.5 155.5t115.5 107.5t152.5 62t161.5 18q113 -2 201.5 -47t136 -128.5t35.5 -202.5l-75 -464q-9 -58 -14 -121.5t18 -120.5l-2 -18l-276 -1q-18 59 -18 121.5
t9 123.5zM724 659l-27 -163l-143 1q-43 -1 -85.5 -11.5t-78.5 -32t-59.5 -55.5t-29.5 -83q-5 -35 7 -62.5t37.5 -43.5t61.5 -17q51 -1 100 19.5t85 58.5t50 88l60 -125q-24 -56 -60.5 -103t-83.5 -81.5t-103 -53t-120 -17.5q-89 2 -163.5 42.5t-118 111t-39.5 164.5
q4 106 53 176.5t126.5 111.5t169 58.5t181.5 17.5zM822 1524l198 1q-5 -96 -54.5 -163t-128.5 -100.5t-172 -31.5q-135 2 -225 79t-91 217l198 -2q-1 -60 26.5 -97t92.5 -38t105 36t51 99z" />
    <glyph glyph-name="Aogonek" unicode="&#x104;" horiz-adv-x="1335" 
d="M804 1192l-586 -1192h-322l778 1456h206zM920 0l-178 1223l11 233h193l275 -1456h-301zM994 542l-41 -235h-749l41 235h749zM991 60l153 -61q-34 -23 -73 -48.5t-68.5 -59t-34.5 -78.5q-3 -26 7 -41.5t38 -16.5q20 -1 40 6t39 14l20 -155q-34 -22 -73 -32t-80 -10
q-90 1 -148 54.5t-57 144.5q1 71 35.5 124.5t88.5 92t113 66.5z" />
    <glyph glyph-name="aogonek" unicode="&#x105;" horiz-adv-x="1063" 
d="M616 244l76 485q5 44 -4 82t-36.5 60.5t-77.5 24.5q-45 1 -80.5 -15.5t-58.5 -47t-32 -72.5l-282 -2q5 90 50.5 155.5t115.5 107.5t152.5 62t161.5 18q113 -2 201.5 -47t136 -128.5t35.5 -202.5l-75 -464q-9 -58 -14 -121.5t18 -120.5l-2 -18l-276 -1q-18 59 -18 121.5
t9 123.5zM724 659l-27 -163l-143 1q-43 -1 -85.5 -11.5t-78.5 -32t-59.5 -55.5t-29.5 -83q-5 -35 7 -62.5t37.5 -43.5t61.5 -17q51 -1 100 19.5t85 58.5t50 88l60 -125q-24 -56 -60.5 -103t-83.5 -81.5t-103 -53t-120 -17.5q-89 2 -163.5 42.5t-118 111t-39.5 164.5
q4 106 53 176.5t126.5 111.5t169 58.5t181.5 17.5zM695 60l153 -61q-34 -23 -72.5 -48.5t-68 -59t-35.5 -78.5q-2 -26 8 -41.5t37 -16.5q21 -1 41 6t39 14l19 -155q-34 -22 -73 -32t-79 -10q-90 1 -148 54.5t-58 144.5q1 71 35.5 124.5t88.5 92t113 66.5z" />
    <glyph glyph-name="Cacute" unicode="&#x106;" horiz-adv-x="1300" 
d="M918 482l286 4q-19 -161 -108.5 -275.5t-224.5 -174t-293 -56.5q-146 3 -246 62.5t-157 159.5t-75 223t-2 252l14 101q20 136 73.5 263t140.5 226t206 156t270 54q158 -3 267.5 -67.5t169 -179t66.5 -267.5l-291 1q1 81 -19.5 142.5t-70.5 96t-138 37.5q-96 3 -163 -37.5
t-110.5 -110t-68 -151.5t-36.5 -161l-14 -104q-8 -65 -11 -143.5t13 -149.5t62 -117.5t137 -49.5q90 -3 155.5 28t107 92t60.5 146zM691 1549l239 308h323l-315 -308h-247z" />
    <glyph glyph-name="cacute" unicode="&#x107;" horiz-adv-x="1035" 
d="M478 204q53 -1 94.5 20t68.5 59t36 88l265 1q-9 -121 -77.5 -210t-173 -137t-221.5 -45q-117 2 -200.5 47t-134.5 120.5t-71.5 172.5t-10.5 204l3 30q12 112 54 212.5t112.5 177t166.5 119t217 39.5q125 -2 214 -56.5t135.5 -148.5t44.5 -216l-264 1q1 49 -13 93.5
t-47.5 72.5t-90.5 30q-67 2 -112 -27.5t-73 -79t-43 -107t-21 -111.5l-2 -29q-5 -45 -6 -99.5t11 -104t44.5 -82t94.5 -34.5zM476 1228l239 308h323l-315 -308h-247z" />
    <glyph glyph-name="Ccircumflex" unicode="&#x108;" horiz-adv-x="1300" 
d="M918 482l286 4q-19 -161 -108.5 -275.5t-224.5 -174t-293 -56.5q-146 3 -246 62.5t-157 159.5t-75 223t-2 252l14 101q20 136 73.5 263t140.5 226t206 156t270 54q158 -3 267.5 -67.5t169 -179t66.5 -267.5l-291 1q1 81 -19.5 142.5t-70.5 96t-138 37.5q-96 3 -163 -37.5
t-110.5 -110t-68 -151.5t-36.5 -161l-14 -104q-8 -65 -11 -143.5t13 -149.5t62 -117.5t137 -49.5q90 -3 155.5 28t107 92t60.5 146zM952 1857l261 -275v-19l-216 4l-125 145l-177 -144l-226 -4l-1 21l324 272h160z" />
    <glyph glyph-name="ccircumflex" unicode="&#x109;" horiz-adv-x="1035" 
d="M478 204q53 -1 94.5 20t68.5 59t36 88l265 1q-9 -121 -77.5 -210t-173 -137t-221.5 -45q-117 2 -200.5 47t-134.5 120.5t-71.5 172.5t-10.5 204l3 30q12 112 54 212.5t112.5 177t166.5 119t217 39.5q125 -2 214 -56.5t135.5 -148.5t44.5 -216l-264 1q1 49 -13 93.5
t-47.5 72.5t-90.5 30q-67 2 -112 -27.5t-73 -79t-43 -107t-21 -111.5l-2 -29q-5 -45 -6 -99.5t11 -104t44.5 -82t94.5 -34.5zM738 1536l261 -275v-19l-216 4l-125 145l-177 -144l-226 -4l-1 21l324 272h160z" />
    <glyph glyph-name="Cdotaccent" unicode="&#x10a;" horiz-adv-x="1300" 
d="M918 482l286 4q-19 -161 -108.5 -275.5t-224.5 -174t-293 -56.5q-146 3 -246 62.5t-157 159.5t-75 223t-2 252l14 101q20 136 73.5 263t140.5 226t206 156t270 54q158 -3 267.5 -67.5t169 -179t66.5 -267.5l-291 1q1 81 -19.5 142.5t-70.5 96t-138 37.5q-96 3 -163 -37.5
t-110.5 -110t-68 -151.5t-36.5 -161l-14 -104q-8 -65 -11 -143.5t13 -149.5t62 -117.5t137 -49.5q90 -3 155.5 28t107 92t60.5 146zM716 1706q-1 62 40.5 100.5t101.5 39.5q58 1 101 -35t44 -96q1 -61 -41 -99t-101 -39q-58 -1 -101 34t-44 95z" />
    <glyph glyph-name="cdotaccent" unicode="&#x10b;" horiz-adv-x="1035" 
d="M478 204q53 -1 94.5 20t68.5 59t36 88l265 1q-9 -121 -77.5 -210t-173 -137t-221.5 -45q-117 2 -200.5 47t-134.5 120.5t-71.5 172.5t-10.5 204l3 30q12 112 54 212.5t112.5 177t166.5 119t217 39.5q125 -2 214 -56.5t135.5 -148.5t44.5 -216l-264 1q1 49 -13 93.5
t-47.5 72.5t-90.5 30q-67 2 -112 -27.5t-73 -79t-43 -107t-21 -111.5l-2 -29q-5 -45 -6 -99.5t11 -104t44.5 -82t94.5 -34.5zM501 1386q-1 62 40.5 100.5t101.5 39.5q58 1 101 -35t44 -96q1 -61 -41 -99t-101 -39q-58 -1 -101 34t-44 95z" />
    <glyph glyph-name="Ccaron" unicode="&#x10c;" horiz-adv-x="1300" 
d="M918 482l286 4q-19 -161 -108.5 -275.5t-224.5 -174t-293 -56.5q-146 3 -246 62.5t-157 159.5t-75 223t-2 252l14 101q20 136 73.5 263t140.5 226t206 156t270 54q158 -3 267.5 -67.5t169 -179t66.5 -267.5l-291 1q1 81 -19.5 142.5t-70.5 96t-138 37.5q-96 3 -163 -37.5
t-110.5 -110t-68 -151.5t-36.5 -161l-14 -104q-8 -65 -11 -143.5t13 -149.5t62 -117.5t137 -49.5q90 -3 155.5 28t107 92t60.5 146zM731 1857l117 -144l170 143l247 5l1 -18l-329 -276h-180l-258 277l-1 18z" />
    <glyph glyph-name="ccaron" unicode="&#x10d;" horiz-adv-x="1035" 
d="M478 204q53 -1 94.5 20t68.5 59t36 88l265 1q-9 -121 -77.5 -210t-173 -137t-221.5 -45q-117 2 -200.5 47t-134.5 120.5t-71.5 172.5t-10.5 204l3 30q12 112 54 212.5t112.5 177t166.5 119t217 39.5q125 -2 214 -56.5t135.5 -148.5t44.5 -216l-264 1q1 49 -13 93.5
t-47.5 72.5t-90.5 30q-67 2 -112 -27.5t-73 -79t-43 -107t-21 -111.5l-2 -29q-5 -45 -6 -99.5t11 -104t44.5 -82t94.5 -34.5zM516 1536l117 -144l170 143l247 5l1 -18l-329 -276h-180l-258 277l-1 18z" />
    <glyph glyph-name="Dcaron" unicode="&#x10e;" horiz-adv-x="1291" 
d="M472 0h-324l42 234l291 -2q136 0 229 64.5t146.5 170t72.5 228.5l9 71q9 76 6 154.5t-28.5 145.5t-80.5 109t-149 45l-332 1l41 235l300 -1q146 -3 254 -59.5t177 -152.5t96 -219.5t11 -259.5l-8 -71q-20 -146 -82.5 -273t-161 -221.5t-227.5 -147t-282 -51.5zM567 1456
l-253 -1456h-293l252 1456h294zM570 1850l117 -144l170 143l247 5l1 -18l-329 -276h-180l-258 277l-1 18z" />
    <glyph glyph-name="dcaron" unicode="&#x10f;" horiz-adv-x="1268" 
d="M668 252l222 1284h283l-266 -1536h-253zM52 520l2 22q13 99 46.5 200t92 184t144.5 132t204 45q101 -4 167 -56.5t102.5 -135t50 -175t10.5 -175.5l-5 -48q-16 -89 -53.5 -183.5t-97 -175t-141 -129.5t-185.5 -46q-109 3 -178.5 53.5t-107.5 130.5t-49 174t-2 183z
M337 543l-2 -21q-4 -43 -4.5 -96.5t11 -103t43 -82t91.5 -35.5q76 -3 131 35.5t88.5 99.5t45.5 128l18 133q5 46 0 93t-22.5 88t-52 67t-89.5 27q-67 3 -113.5 -28.5t-75.5 -82t-45.5 -109.5t-23.5 -113zM1520 1538l-7 -72q-11 -101 -61.5 -191t-122.5 -159l-137 80
q41 60 71.5 121.5t43.5 133.5l15 86z" />
    <glyph glyph-name="Dcroat" unicode="&#x110;" horiz-adv-x="1321" 
d="M502 0h-324l42 234l291 -2q136 0 229 64.5t146.5 170t72.5 228.5l9 71q9 76 6 154.5t-28.5 145.5t-80.5 109t-149 45l-332 1l41 235l300 -1q146 -3 254 -59.5t177 -152.5t96 -219.5t11 -259.5l-8 -71q-20 -146 -82.5 -273t-161 -221.5t-227.5 -147t-282 -51.5zM597 1456
l-253 -1456h-293l252 1456h294zM732 823l-32 -178h-681l31 178h682z" />
    <glyph glyph-name="dcroat" unicode="&#x111;" horiz-adv-x="1251" 
d="M668 252l222 1284h283l-266 -1536h-253zM52 520l2 21q12 100 46 201t92.5 184t144.5 132t203 45q101 -3 167.5 -56t103 -135.5t50 -175t10.5 -175.5l-5 -48q-16 -89 -53 -183.5t-97 -175.5t-141.5 -129.5t-185.5 -45.5q-109 3 -178.5 53.5t-107.5 130t-49 173.5t-2 184z
M337 544l-2 -22q-4 -43 -4.5 -96.5t11 -103t43 -82.5t91.5 -35q76 -3 131 35t88.5 99.5t45.5 128.5l18 133q4 46 -0.5 93t-22 88t-52 67t-89.5 27q-67 3 -113.5 -28t-75.5 -82t-45.5 -110t-23.5 -112zM1300 1399l-31 -178h-681l31 178h681z" />
    <glyph glyph-name="Emacron" unicode="&#x112;" horiz-adv-x="1117" 
d="M1012 234l-41 -234h-753l40 234h754zM567 1456l-253 -1456h-293l252 1456h294zM1023 863l-40 -228h-655l40 228h655zM1222 1456l-41 -235h-752l42 235h751zM1152 1766l-25 -163h-669l27 163h667z" />
    <glyph glyph-name="emacron" unicode="&#x113;" horiz-adv-x="1073" 
d="M512 -20q-111 2 -200 42.5t-148.5 111.5t-87.5 165t-20 202l4 41q12 113 55 215t115 180.5t170.5 123t219.5 41.5q113 -2 193 -46t129 -118t67 -168.5t7 -197.5l-16 -120h-836l31 192l552 -1l5 25q8 55 -5 102.5t-49 76.5t-96 31q-69 2 -116 -29t-77 -82t-46 -110.5
t-23 -114.5l-4 -40q-5 -53 3 -105.5t31.5 -94.5t65 -68t104.5 -28q80 -2 147.5 31.5t121.5 89.5l126 -152q-45 -68 -114.5 -111.5t-149.5 -64t-159 -19.5zM996 1453l-25 -163h-669l27 163h667z" />
    <glyph glyph-name="Ebreve" unicode="&#x114;" horiz-adv-x="1117" 
d="M1012 234l-41 -234h-753l40 234h754zM567 1456l-253 -1456h-293l252 1456h294zM1023 863l-40 -228h-655l40 228h655zM1222 1456l-41 -235h-752l42 235h751zM960 1838l198 1q-5 -96 -54.5 -163t-128.5 -100.5t-172 -31.5q-135 2 -225 79t-91 217l198 -2q-1 -60 26.5 -97
t92.5 -38t105 36t51 99z" />
    <glyph glyph-name="ebreve" unicode="&#x115;" horiz-adv-x="1073" 
d="M512 -20q-111 2 -200 42.5t-148.5 111.5t-87.5 165t-20 202l4 41q12 113 55 215t115 180.5t170.5 123t219.5 41.5q113 -2 193 -46t129 -118t67 -168.5t7 -197.5l-16 -120h-836l31 192l552 -1l5 25q8 55 -5 102.5t-49 76.5t-96 31q-69 2 -116 -29t-77 -82t-46 -110.5
t-23 -114.5l-4 -40q-5 -53 3 -105.5t31.5 -94.5t65 -68t104.5 -28q80 -2 147.5 31.5t121.5 89.5l126 -152q-45 -68 -114.5 -111.5t-149.5 -64t-159 -19.5zM805 1525l198 1q-5 -96 -54.5 -163t-128.5 -100.5t-172 -31.5q-135 2 -225 79t-91 217l198 -2q-1 -60 26.5 -97
t92.5 -38t105 36t51 99z" />
    <glyph glyph-name="Edotaccent" unicode="&#x116;" horiz-adv-x="1117" 
d="M1012 234l-41 -234h-753l40 234h754zM567 1456l-253 -1456h-293l252 1456h294zM1023 863l-40 -228h-655l40 228h655zM1222 1456l-41 -235h-752l42 235h751zM664 1699q-1 62 40.5 100.5t101.5 39.5q58 1 101 -35t44 -96q1 -61 -41 -99t-101 -39q-58 -1 -101 34t-44 95z
" />
    <glyph glyph-name="edotaccent" unicode="&#x117;" horiz-adv-x="1073" 
d="M512 -20q-111 2 -200 42.5t-148.5 111.5t-87.5 165t-20 202l4 41q12 113 55 215t115 180.5t170.5 123t219.5 41.5q113 -2 193 -46t129 -118t67 -168.5t7 -197.5l-16 -120h-836l31 192l552 -1l5 25q8 55 -5 102.5t-49 76.5t-96 31q-69 2 -116 -29t-77 -82t-46 -110.5
t-23 -114.5l-4 -40q-5 -53 3 -105.5t31.5 -94.5t65 -68t104.5 -28q80 -2 147.5 31.5t121.5 89.5l126 -152q-45 -68 -114.5 -111.5t-149.5 -64t-159 -19.5zM509 1386q-1 62 40.5 100.5t101.5 39.5q58 1 101 -35t44 -96q1 -61 -41 -99t-101 -39q-58 -1 -101 34t-44 95z" />
    <glyph glyph-name="Eogonek" unicode="&#x118;" horiz-adv-x="1117" 
d="M1012 234l-41 -234h-753l40 234h754zM567 1456l-253 -1456h-293l252 1456h294zM1023 863l-40 -228h-655l40 228h655zM1222 1456l-41 -235h-752l42 235h751zM667 60l153 -61q-34 -23 -72.5 -48.5t-68 -59t-34.5 -78.5q-3 -26 7 -41.5t37 -16.5q21 -1 41 6t39 14l19 -155
q-34 -22 -73 -32t-79 -10q-90 1 -148 54.5t-57 144.5q0 71 34.5 124.5t88.5 92t113 66.5z" />
    <glyph glyph-name="eogonek" unicode="&#x119;" horiz-adv-x="1073" 
d="M512 -20q-111 2 -200 42.5t-148.5 111.5t-87.5 165t-20 202l4 41q12 113 55 215t115 180.5t170.5 123t219.5 41.5q113 -2 193 -46t129 -118t67 -168.5t7 -197.5l-16 -120h-836l31 192l552 -1l5 25q8 55 -5 102.5t-49 76.5t-96 31q-69 2 -116 -29t-77 -82t-46 -110.5
t-23 -114.5l-4 -40q-5 -53 3 -105.5t31.5 -94.5t65 -68t104.5 -28q80 -2 147.5 31.5t121.5 89.5l126 -152q-45 -68 -114.5 -111.5t-149.5 -64t-159 -19.5zM592 92l153 -61q-34 -23 -72.5 -48.5t-68.5 -59t-35 -78.5q-3 -26 7.5 -41.5t37.5 -16.5q20 0 40.5 6.5t39.5 13.5
l19 -155q-34 -22 -73 -32t-80 -10q-89 1 -147 54.5t-58 144.5q1 71 35.5 124.5t88.5 92t113 66.5z" />
    <glyph glyph-name="Ecaron" unicode="&#x11a;" horiz-adv-x="1117" 
d="M1012 234l-41 -234h-753l40 234h754zM567 1456l-253 -1456h-293l252 1456h294zM1023 863l-40 -228h-655l40 228h655zM1222 1456l-41 -235h-752l42 235h751zM679 1850l117 -144l170 143l247 5l1 -18l-329 -276h-180l-258 277l-1 18z" />
    <glyph glyph-name="ecaron" unicode="&#x11b;" horiz-adv-x="1073" 
d="M512 -20q-111 2 -200 42.5t-148.5 111.5t-87.5 165t-20 202l4 41q12 113 55 215t115 180.5t170.5 123t219.5 41.5q113 -2 193 -46t129 -118t67 -168.5t7 -197.5l-16 -120h-836l31 192l552 -1l5 25q8 55 -5 102.5t-49 76.5t-96 31q-69 2 -116 -29t-77 -82t-46 -110.5
t-23 -114.5l-4 -40q-5 -53 3 -105.5t31.5 -94.5t65 -68t104.5 -28q80 -2 147.5 31.5t121.5 89.5l126 -152q-45 -68 -114.5 -111.5t-149.5 -64t-159 -19.5zM524 1537l117 -144l170 143l247 5l1 -18l-329 -276h-180l-258 277l-1 18z" />
    <glyph glyph-name="Gcircumflex" unicode="&#x11c;" horiz-adv-x="1354" 
d="M1274 761l-91 -578q-65 -79 -161.5 -123.5t-203.5 -62.5t-204 -16q-149 2 -253.5 60.5t-166 157.5t-82.5 223.5t-4 259.5l13 91q19 140 73 267.5t141 227t208 156t275 53.5t262 -60t168.5 -163.5t70.5 -258.5l-282 1q-5 72 -29 127t-72 86t-126 34q-96 4 -165 -38
t-115.5 -112.5t-73.5 -154t-38 -163.5l-13 -94q-9 -73 -8.5 -153.5t23 -151t75.5 -115t148 -46.5q46 -1 90 5.5t85 23.5t77 44l50 259h-266l37 214h558zM962 1857l261 -275v-19l-216 4l-125 145l-177 -144l-226 -4l-1 21l324 272h160z" />
    <glyph glyph-name="gcircumflex" unicode="&#x11d;" horiz-adv-x="1135" 
d="M854 1082h258l-179 -1045q-20 -149 -99 -254t-200.5 -159t-269.5 -51q-72 2 -142 22t-131 58.5t-106 95.5l139 166q44 -58 104 -90.5t133 -34.5q78 -2 138 28t99 85t52 131l138 812zM55 521l3 21q12 102 48 202.5t97 182.5t149 130t205 45q108 -3 175 -53.5t102 -131
t46.5 -174.5t7.5 -183l-5 -47q-16 -90 -53 -185t-96 -175.5t-141.5 -128.5t-187.5 -45q-109 3 -180.5 53t-112 129.5t-53.5 174t-4 185.5zM339 543l-2 -22q-5 -45 -3.5 -98.5t16 -102.5t48.5 -80.5t94 -33.5q79 -4 135.5 33t90.5 98.5t47 130.5l19 133q4 48 -1 96t-23.5 88
t-54 65t-93.5 26q-67 3 -115.5 -28t-80.5 -81.5t-51 -109.5t-26 -114zM768 1536l261 -275v-19l-216 4l-125 145l-177 -144l-226 -4l-1 21l324 272h160z" />
    <glyph glyph-name="Gbreve" unicode="&#x11e;" horiz-adv-x="1354" 
d="M1274 761l-91 -578q-65 -79 -161.5 -123.5t-203.5 -62.5t-204 -16q-149 2 -253.5 60.5t-166 157.5t-82.5 223.5t-4 259.5l13 91q19 140 73 267.5t141 227t208 156t275 53.5t262 -60t168.5 -163.5t70.5 -258.5l-282 1q-5 72 -29 127t-72 86t-126 34q-96 4 -165 -38
t-115.5 -112.5t-73.5 -154t-38 -163.5l-13 -94q-9 -73 -8.5 -153.5t23 -151t75.5 -115t148 -46.5q46 -1 90 5.5t85 23.5t77 44l50 259h-266l37 214h558zM1021 1845l198 1q-5 -96 -54.5 -163t-128.5 -100.5t-172 -31.5q-135 2 -225 79t-91 217l198 -2q-1 -60 26.5 -97
t92.5 -38t105 36t51 99z" />
    <glyph glyph-name="gbreve" unicode="&#x11f;" horiz-adv-x="1135" 
d="M854 1082h258l-179 -1045q-20 -149 -99 -254t-200.5 -159t-269.5 -51q-72 2 -142 22t-131 58.5t-106 95.5l139 166q44 -58 104 -90.5t133 -34.5q78 -2 138 28t99 85t52 131l138 812zM55 521l3 21q12 102 48 202.5t97 182.5t149 130t205 45q108 -3 175 -53.5t102 -131
t46.5 -174.5t7.5 -183l-5 -47q-16 -90 -53 -185t-96 -175.5t-141.5 -128.5t-187.5 -45q-109 3 -180.5 53t-112 129.5t-53.5 174t-4 185.5zM339 543l-2 -22q-5 -45 -3.5 -98.5t16 -102.5t48.5 -80.5t94 -33.5q79 -4 135.5 33t90.5 98.5t47 130.5l19 133q4 48 -1 96t-23.5 88
t-54 65t-93.5 26q-67 3 -115.5 -28t-80.5 -81.5t-51 -109.5t-26 -114zM827 1524l198 1q-5 -96 -54.5 -163t-128.5 -100.5t-172 -31.5q-135 2 -225 79t-91 217l198 -2q-1 -60 26.5 -97t92.5 -38t105 36t51 99z" />
    <glyph glyph-name="Gdotaccent" unicode="&#x120;" horiz-adv-x="1354" 
d="M1274 761l-91 -578q-65 -79 -161.5 -123.5t-203.5 -62.5t-204 -16q-149 2 -253.5 60.5t-166 157.5t-82.5 223.5t-4 259.5l13 91q19 140 73 267.5t141 227t208 156t275 53.5t262 -60t168.5 -163.5t70.5 -258.5l-282 1q-5 72 -29 127t-72 86t-126 34q-96 4 -165 -38
t-115.5 -112.5t-73.5 -154t-38 -163.5l-13 -94q-9 -73 -8.5 -153.5t23 -151t75.5 -115t148 -46.5q46 -1 90 5.5t85 23.5t77 44l50 259h-266l37 214h558zM725 1706q-1 62 40.5 100.5t101.5 39.5q58 1 101 -35t44 -96q1 -61 -41 -99t-101 -39q-58 -1 -101 34t-44 95z" />
    <glyph glyph-name="gdotaccent" unicode="&#x121;" horiz-adv-x="1135" 
d="M854 1082h258l-179 -1045q-20 -149 -99 -254t-200.5 -159t-269.5 -51q-72 2 -142 22t-131 58.5t-106 95.5l139 166q44 -58 104 -90.5t133 -34.5q78 -2 138 28t99 85t52 131l138 812zM55 521l3 21q12 102 48 202.5t97 182.5t149 130t205 45q108 -3 175 -53.5t102 -131
t46.5 -174.5t7.5 -183l-5 -47q-16 -90 -53 -185t-96 -175.5t-141.5 -128.5t-187.5 -45q-109 3 -180.5 53t-112 129.5t-53.5 174t-4 185.5zM339 543l-2 -22q-5 -45 -3.5 -98.5t16 -102.5t48.5 -80.5t94 -33.5q79 -4 135.5 33t90.5 98.5t47 130.5l19 133q4 48 -1 96t-23.5 88
t-54 65t-93.5 26q-67 3 -115.5 -28t-80.5 -81.5t-51 -109.5t-26 -114zM531 1386q-1 62 40.5 100.5t101.5 39.5q58 1 101 -35t44 -96q1 -61 -41 -99t-101 -39q-58 -1 -101 34t-44 95z" />
    <glyph glyph-name="uni0122" unicode="&#x122;" horiz-adv-x="1354" 
d="M1274 761l-91 -578q-65 -79 -161.5 -123.5t-203.5 -62.5t-204 -16q-149 2 -253.5 60.5t-166 157.5t-82.5 223.5t-4 259.5l13 91q19 140 73 267.5t141 227t208 156t275 53.5t262 -60t168.5 -163.5t70.5 -258.5l-282 1q-5 72 -29 127t-72 86t-126 34q-96 4 -165 -38
t-115.5 -112.5t-73.5 -154t-38 -163.5l-13 -94q-9 -73 -8.5 -153.5t23 -151t75.5 -115t148 -46.5q46 -1 90 5.5t85 23.5t77 44l50 259h-266l37 214h558zM682 -97l-7 -72q-11 -101 -61.5 -191t-122.5 -159l-137 80q41 60 71.5 121.5t43.5 133.5l15 86z" />
    <glyph glyph-name="uni0123" unicode="&#x123;" horiz-adv-x="1135" 
d="M854 1082h258l-179 -1045q-20 -149 -99 -254t-200.5 -159t-269.5 -51q-72 2 -142 22t-131 58.5t-106 95.5l139 166q44 -58 104 -90.5t133 -34.5q78 -2 138 28t99 85t52 131l138 812zM55 521l3 21q12 102 48 202.5t97 182.5t149 130t205 45q108 -3 175 -53.5t102 -131
t46.5 -174.5t7.5 -183l-5 -47q-16 -90 -53 -185t-96 -175.5t-141.5 -128.5t-187.5 -45q-109 3 -180.5 53t-112 129.5t-53.5 174t-4 185.5zM339 543l-2 -22q-5 -45 -3.5 -98.5t16 -102.5t48.5 -80.5t94 -33.5q79 -4 135.5 33t90.5 98.5t47 130.5l19 133q4 48 -1 96t-23.5 88
t-54 65t-93.5 26q-67 3 -115.5 -28t-80.5 -81.5t-51 -109.5t-26 -114zM540 1259l20 135q8 64 30 123.5t58 110.5t89 88l148 -78q-35 -62 -64 -123t-42 -131l-23 -125h-216z" />
    <glyph glyph-name="Hcircumflex" unicode="&#x124;" horiz-adv-x="1403" 
d="M1115 863l-41 -234h-739l41 234h739zM567 1456l-253 -1456h-293l252 1456h294zM1425 1456l-253 -1456h-291l252 1456h292zM985 1850l261 -275v-19l-216 4l-125 145l-177 -144l-226 -4l-1 21l324 272h160z" />
    <glyph glyph-name="hcircumflex" unicode="&#x125;" horiz-adv-x="1112" 
d="M545 1536l-267 -1536h-281l267 1536h281zM341 579l-73 -1q11 92 43.5 186t88.5 171.5t137.5 124t189.5 43.5q91 -2 151.5 -36.5t94.5 -93t45 -133t2 -156.5l-114 -684h-283l116 687q6 53 -2.5 95.5t-39 68t-89.5 26.5q-65 2 -111.5 -23t-78.5 -68.5t-50 -97t-27 -109.5z
M804 1913l261 -275v-19l-216 4l-125 145l-177 -144l-226 -4l-1 21l324 272h160z" />
    <glyph glyph-name="Hbar" unicode="&#x126;" horiz-adv-x="1430" 
d="M1517 1218l-29 -170h-1380l30 170h1379zM1129 863l-40 -234h-740l42 234h738zM581 1456l-252 -1456h-293l253 1456h292zM1440 1456l-252 -1456h-293l253 1456h292z" />
    <glyph glyph-name="hbar" unicode="&#x127;" horiz-adv-x="1142" 
d="M575 1536l-267 -1536h-281l267 1536h281zM371 579l-73 -1q11 92 43.5 186t88.5 171.5t137.5 124t189.5 43.5q91 -2 151.5 -36.5t94.5 -93t45 -133t2 -156.5l-114 -684h-283l116 687q6 53 -2.5 95.5t-39 68t-89.5 26.5q-65 2 -111.5 -23t-78.5 -68.5t-50 -97t-27 -109.5z
M800 1397l-32 -179h-681l31 179h682z" />
    <glyph glyph-name="Itilde" unicode="&#x128;" horiz-adv-x="581" 
d="M585 1456l-252 -1456h-293l253 1456h292zM698 1845l161 -10q-4 -67 -31.5 -128.5t-78.5 -100.5t-126 -38q-37 0 -69.5 14.5t-63 33t-62 32t-66.5 12.5q-45 -2 -66.5 -31.5t-32.5 -66.5l-167 8q5 66 33.5 127.5t79.5 101.5t125 39q36 -1 68 -15.5t63 -32.5t63 -31.5
t68 -11.5q44 1 67 30t35 68z" />
    <glyph glyph-name="itilde" unicode="&#x129;" horiz-adv-x="542" 
d="M495 1082l-188 -1082h-282l188 1082h282zM623 1516l161 -10q-4 -67 -31.5 -128.5t-78.5 -100.5t-126 -38q-37 0 -69.5 14.5t-63 33t-62 32t-66.5 12.5q-45 -2 -66.5 -31.5t-32.5 -66.5l-167 8q5 66 33.5 127.5t79.5 101.5t125 39q36 -1 68 -15.5t63 -32.5t63 -31.5
t68 -11.5q44 1 67 30t35 68z" />
    <glyph glyph-name="Imacron" unicode="&#x12a;" horiz-adv-x="581" 
d="M585 1456l-252 -1456h-293l253 1456h292zM824 1766l-25 -163h-669l27 163h667z" />
    <glyph glyph-name="imacron" unicode="&#x12b;" horiz-adv-x="542" 
d="M495 1082l-188 -1082h-282l188 1082h282zM749 1438l-25 -163h-669l27 163h667z" />
    <glyph glyph-name="Ibreve" unicode="&#x12c;" horiz-adv-x="581" 
d="M585 1456l-252 -1456h-293l253 1456h292zM633 1838l198 1q-5 -96 -54.5 -163t-128.5 -100.5t-172 -31.5q-135 2 -225 79t-91 217l198 -2q-1 -60 26.5 -97t92.5 -38t105 36t51 99z" />
    <glyph glyph-name="ibreve" unicode="&#x12d;" horiz-adv-x="542" 
d="M495 1082l-188 -1082h-282l188 1082h282zM557 1509l198 1q-5 -96 -54.5 -163t-128.5 -100.5t-172 -31.5q-135 2 -225 79t-91 217l198 -2q-1 -60 26.5 -97t92.5 -38t105 36t51 99z" />
    <glyph glyph-name="Iogonek" unicode="&#x12e;" horiz-adv-x="581" 
d="M585 1456l-252 -1456h-293l253 1456h292zM125 63l153 -61q-33 -23 -71.5 -48.5t-68 -59t-35.5 -78.5q-3 -26 7.5 -41.5t36.5 -16.5q22 -1 42 6t38 14l20 -155q-34 -22 -73.5 -32t-79.5 -10q-90 1 -148 54.5t-57 144.5q1 71 35.5 124.5t88.5 92t112 66.5z" />
    <glyph glyph-name="iogonek" unicode="&#x12f;" horiz-adv-x="526" 
d="M488 1082l-188 -1082h-281l188 1082h281zM238 1359q-2 68 44.5 109t112.5 42q63 1 110 -37.5t47 -103.5q2 -68 -45 -109t-112 -42q-63 -1 -109.5 37t-47.5 104zM104 60l153 -61q-33 -23 -71.5 -48.5t-68 -59t-35.5 -78.5q-3 -26 7.5 -41.5t36.5 -16.5q22 -1 42 6t38 14
l20 -155q-34 -22 -73.5 -32t-79.5 -10q-90 1 -148 54.5t-57 144.5q1 71 35.5 124.5t88.5 92t112 66.5z" />
    <glyph glyph-name="Idotaccent" unicode="&#x130;" horiz-adv-x="581" 
d="M585 1456l-252 -1456h-293l253 1456h292zM337 1699q-1 62 40.5 100.5t101.5 39.5q58 1 101 -35t44 -96q1 -61 -41 -99t-101 -39q-58 -1 -101 34t-44 95z" />
    <glyph glyph-name="dotlessi" unicode="&#x131;" horiz-adv-x="542" 
d="M495 1082l-188 -1082h-282l188 1082h282z" />
    <glyph glyph-name="IJ" unicode="&#x132;" horiz-adv-x="1691" 
d="M585 1456l-252 -1456h-293l253 1456h292zM1254 446l172 1010h292l-171 -1009q-19 -140 -92.5 -246.5t-188.5 -165t-257 -56.5q-139 3 -235 57.5t-144 154.5t-42 238l294 -1q-4 -56 6 -104.5t42.5 -79t97.5 -31.5q68 -2 115 31.5t74.5 87.5t36.5 114z" />
    <glyph glyph-name="ij" unicode="&#x133;" horiz-adv-x="1043" 
d="M488 1082l-188 -1082h-281l188 1082h281zM238 1359q-2 68 44.5 109t112.5 42q63 1 110 -37.5t47 -103.5q2 -68 -45 -109t-112 -42q-63 -1 -109.5 37t-47.5 104zM733 1082h283l-195 -1147q-15 -114 -67 -199t-139 -131t-206 -45q-38 1 -76 6t-75 13l24 221q22 -4 44.5 -8
t44.5 -4q47 0 81 18t55.5 51t29.5 78zM761 1359q-2 67 45 108.5t111 42.5t111 -37.5t47 -103.5q1 -68 -45.5 -109t-111.5 -42q-63 0 -109.5 37.5t-47.5 103.5z" />
    <glyph glyph-name="Jcircumflex" unicode="&#x134;" horiz-adv-x="1110" 
d="M673 446l172 1010h292l-171 -1009q-19 -140 -92.5 -246.5t-188.5 -165t-257 -56.5q-139 3 -235 57.5t-144 154.5t-42 238l294 -1q-4 -56 6 -104.5t42.5 -79t97.5 -31.5q68 -2 115 31.5t74.5 87.5t36.5 114zM1115 1846l261 -275v-19l-216 4l-125 145l-177 -144l-226 -4
l-1 21l324 272h160z" />
    <glyph glyph-name="jcircumflex" unicode="&#x135;" horiz-adv-x="559" 
d="M229 1082h282l-191 -1120q-15 -119 -68 -209.5t-142.5 -142t-214.5 -50.5q-38 1 -76 6t-75 13l38 221q23 -7 47 -11t48 -4q50 0 83 25.5t51.5 66.5t25.5 84zM489 1509l261 -275v-19l-216 4l-125 145l-177 -144l-226 -4l-1 21l324 272h160z" />
    <glyph glyph-name="uni0136" unicode="&#x136;" horiz-adv-x="1263" 
d="M567 1456l-253 -1456h-293l252 1456h294zM1423 1456l-690 -725l-390 -360l-2 306l267 302l436 477h379zM836 0l-304 684l236 177l400 -861h-332zM619 -29l-7 -72q-11 -101 -61.5 -191t-122.5 -159l-137 80q41 60 71.5 121.5t43.5 133.5l15 86z" />
    <glyph glyph-name="uni0137" unicode="&#x137;" horiz-adv-x="1061" 
d="M552 1537l-267 -1537h-281l267 1537h281zM1145 1082l-549 -537l-294 -258l-70 225l231 247l324 323h358zM663 0l-229 512l213 164l326 -676h-310zM533 -50l-7 -72q-11 -101 -61.5 -191t-122.5 -159l-137 80q41 60 71.5 121.5t43.5 133.5l15 86z" />
    <glyph glyph-name="kgreenlandic" unicode="&#x138;" horiz-adv-x="1174" 
d="M490 1082l-187 -1082h-281l187 1082h281zM1214 1082l-599 -677h-291l12 266h160l344 411h374zM682 0l-214 466l256 132l304 -598h-346z" />
    <glyph glyph-name="Lacute" unicode="&#x139;" horiz-adv-x="1075" 
d="M972 234l-41 -234h-713l41 234h713zM567 1456l-253 -1456h-293l252 1456h294zM299 1537l239 308h323l-315 -308h-247z" />
    <glyph glyph-name="lacute" unicode="&#x13a;" horiz-adv-x="526" 
d="M567 1536l-267 -1536h-281l266 1536h282zM298 1621l239 308h323l-315 -308h-247z" />
    <glyph glyph-name="uni013B" unicode="&#x13b;" horiz-adv-x="1075" 
d="M972 234l-41 -234h-713l41 234h713zM567 1456l-253 -1456h-293l252 1456h294zM562 -84l-7 -72q-11 -101 -61.5 -191t-122.5 -159l-137 80q41 60 71.5 121.5t43.5 133.5l15 86z" />
    <glyph glyph-name="uni013C" unicode="&#x13c;" horiz-adv-x="526" 
d="M567 1536l-267 -1536h-281l266 1536h282zM242 -84l-7 -72q-11 -101 -61.5 -191t-122.5 -159l-137 80q41 60 71.5 121.5t43.5 133.5l15 86z" />
    <glyph glyph-name="Lcaron" unicode="&#x13d;" horiz-adv-x="1075" 
d="M972 234l-41 -234h-713l41 234h713zM567 1456l-253 -1456h-293l252 1456h294zM1021 1458l-7 -72q-11 -101 -61.5 -191t-122.5 -159l-137 80q41 60 71.5 121.5t43.5 133.5l15 86z" />
    <glyph glyph-name="lcaron" unicode="&#x13e;" horiz-adv-x="676" 
d="M567 1536l-267 -1536h-281l266 1536h282zM913 1538l-7 -72q-11 -101 -61.5 -191t-122.5 -159l-137 80q41 60 71.5 121.5t43.5 133.5l15 86z" />
    <glyph glyph-name="Ldot" unicode="&#x13f;" horiz-adv-x="1075" 
d="M972 234l-41 -234h-713l41 234h713zM567 1456l-253 -1456h-293l252 1456h294zM615 820q-1 62 40.5 100.5t101.5 39.5q58 1 101 -35t44 -96q1 -61 -41 -99t-101 -39q-58 -1 -101 34t-44 95z" />
    <glyph glyph-name="ldot" unicode="&#x140;" horiz-adv-x="746" 
d="M567 1536l-267 -1536h-281l266 1536h282zM528 769q-1 62 40.5 100.5t101.5 39.5q58 1 101 -35t44 -96q1 -61 -41 -99t-101 -39q-58 -1 -101 34t-44 95z" />
    <glyph glyph-name="Lslash" unicode="&#x141;" horiz-adv-x="1108" 
d="M724 959l-30 -170l-667 -187l31 170zM1005 234l-41 -234h-713l42 234h712zM599 1456l-252 -1456h-293l253 1456h292z" />
    <glyph glyph-name="lslash" unicode="&#x142;" horiz-adv-x="609" 
d="M642 960l-31 -171l-583 -188l30 172zM603 1536l-267 -1536h-283l267 1536h283z" />
    <glyph glyph-name="Nacute" unicode="&#x143;" horiz-adv-x="1402" 
d="M1425 1456l-253 -1456h-284l-403 987l-171 -987h-293l252 1456h285l404 -988l171 988h292zM726 1538l239 308h323l-315 -308h-247z" />
    <glyph glyph-name="nacute" unicode="&#x144;" horiz-adv-x="1113" 
d="M424 835l-145 -835h-282l188 1082h264zM341 579l-70 -2q11 97 44 192t90.5 171.5t141 120.5t194.5 42q90 -3 148.5 -37.5t90 -92.5t41 -131t1.5 -152l-116 -690h-283l117 693q6 53 -3 94t-39.5 65t-88.5 25q-64 2 -110.5 -24t-78.5 -70t-51 -97t-28 -107zM527 1228
l239 308h323l-315 -308h-247z" />
    <glyph glyph-name="uni0145" unicode="&#x145;" horiz-adv-x="1402" 
d="M1425 1456l-253 -1456h-284l-403 987l-171 -987h-293l252 1456h285l404 -988l171 988h292zM681 -91l-7 -72q-11 -101 -61.5 -191t-122.5 -159l-137 80q41 60 71.5 121.5t43.5 133.5l15 86z" />
    <glyph glyph-name="uni0146" unicode="&#x146;" horiz-adv-x="1113" 
d="M424 835l-145 -835h-282l188 1082h264zM341 579l-70 -2q11 97 44 192t90.5 171.5t141 120.5t194.5 42q90 -3 148.5 -37.5t90 -92.5t41 -131t1.5 -152l-116 -690h-283l117 693q6 53 -3 94t-39.5 65t-88.5 25q-64 2 -110.5 -24t-78.5 -70t-51 -97t-28 -107zM536 -84l-7 -72
q-11 -101 -61.5 -191t-122.5 -159l-137 80q41 60 71.5 121.5t43.5 133.5l15 86z" />
    <glyph glyph-name="Ncaron" unicode="&#x147;" horiz-adv-x="1402" 
d="M1425 1456l-253 -1456h-284l-403 987l-171 -987h-293l252 1456h285l404 -988l171 988h292zM766 1846l117 -144l170 143l247 5l1 -18l-329 -276h-180l-258 277l-1 18z" />
    <glyph glyph-name="ncaron" unicode="&#x148;" horiz-adv-x="1113" 
d="M424 835l-145 -835h-282l188 1082h264zM341 579l-70 -2q11 97 44 192t90.5 171.5t141 120.5t194.5 42q90 -3 148.5 -37.5t90 -92.5t41 -131t1.5 -152l-116 -690h-283l117 693q6 53 -3 94t-39.5 65t-88.5 25q-64 2 -110.5 -24t-78.5 -70t-51 -97t-28 -107zM567 1536
l117 -144l170 143l247 5l1 -18l-329 -276h-180l-258 277l-1 18z" />
    <glyph glyph-name="napostrophe" unicode="&#x149;" horiz-adv-x="1113" 
d="M424 835l-145 -835h-282l188 1082h264zM341 579l-70 -2q11 97 44 192t90.5 171.5t141 120.5t194.5 42q90 -3 148.5 -37.5t90 -92.5t41 -131t1.5 -152l-116 -690h-283l117 693q6 53 -3 94t-39.5 65t-88.5 25q-64 2 -110.5 -24t-78.5 -70t-51 -97t-28 -107zM324 1538
l-7 -72q-11 -101 -61.5 -191t-122.5 -159l-137 80q41 60 71.5 121.5t43.5 133.5l15 86z" />
    <glyph glyph-name="Eng" unicode="&#x14a;" horiz-adv-x="1398" 
d="M272 1456h294l-253 -1456h-293zM343 1347l213 112l547 -1350l-214 -109zM1132 1456h293l-254 -1487q-15 -120 -69.5 -212.5t-146 -145t-217.5 -51.5q-40 0 -78 5.5t-77 13.5l39 230q23 -7 47 -11t49 -4q50 0 82.5 25.5t50.5 65.5t26 83z" />
    <glyph glyph-name="eng" unicode="&#x14b;" horiz-adv-x="1120" 
d="M426 835l-145 -835h-281l188 1082h261zM323 577l-34 -2q12 92 44 186t86.5 172.5t134.5 125t189 44.5q92 -3 151.5 -41.5t90.5 -102.5t39 -141t-1 -157l-113 -700q-16 -119 -68.5 -209.5t-141.5 -141.5t-214 -50q-38 0 -75.5 5t-74.5 13l35 225q24 -7 48.5 -11.5
t49.5 -4.5q50 0 82 25.5t50 65t26 83.5l113 701q5 37 4.5 74t-11.5 68.5t-36.5 51t-70.5 21.5q-67 3 -118.5 -22t-88.5 -67.5t-60.5 -97.5t-35.5 -113z" />
    <glyph glyph-name="Omacron" unicode="&#x14c;" horiz-adv-x="1370" 
d="M1313 767l-8 -70q-20 -140 -75 -270t-144 -231.5t-211.5 -160t-277.5 -55.5q-148 3 -250.5 64.5t-162 163.5t-79.5 227.5t-4 257.5l8 69q20 140 75.5 269t145 230.5t212 159.5t275.5 55q148 -2 250.5 -63.5t162 -163t79.5 -227t4 -255.5zM1009 693l9 72q8 68 8.5 147.5
t-18.5 153t-67.5 121t-139.5 51.5q-98 3 -167.5 -39t-116 -113.5t-73.5 -156t-38 -165.5l-9 -72q-9 -67 -9.5 -147.5t18.5 -154t68 -121.5t140 -52q97 -3 166.5 40t116.5 114.5t74 156t38 165.5zM1218 1763l-25 -163h-669l27 163h667z" />
    <glyph glyph-name="omacron" unicode="&#x14d;" 
d="M53 524l3 21q12 115 55.5 216.5t116 179t171 121t221.5 40.5q117 -2 202 -47t139.5 -121t77 -174t12.5 -207l-2 -22q-13 -114 -57.5 -214.5t-117 -177t-171.5 -119.5t-220 -40q-115 2 -201 46.5t-140 120t-76 172.5t-13 205zM337 545l-2 -22q-5 -48 -3 -102.5
t17.5 -103.5t51.5 -80.5t99 -33.5q67 -2 115 27.5t79 79t49 108t24 114.5l2 21q4 48 2.5 103.5t-17.5 105t-52 82t-99 34.5q-67 2 -115 -28.5t-79 -80.5t-48.5 -109t-23.5 -115zM1027 1453l-25 -163h-669l27 163h667z" />
    <glyph glyph-name="Obreve" unicode="&#x14e;" horiz-adv-x="1370" 
d="M1313 767l-8 -70q-20 -140 -75 -270t-144 -231.5t-211.5 -160t-277.5 -55.5q-148 3 -250.5 64.5t-162 163.5t-79.5 227.5t-4 257.5l8 69q20 140 75.5 269t145 230.5t212 159.5t275.5 55q148 -2 250.5 -63.5t162 -163t79.5 -227t4 -255.5zM1009 693l9 72q8 68 8.5 147.5
t-18.5 153t-67.5 121t-139.5 51.5q-98 3 -167.5 -39t-116 -113.5t-73.5 -156t-38 -165.5l-9 -72q-9 -67 -9.5 -147.5t18.5 -154t68 -121.5t140 -52q97 -3 166.5 40t116.5 114.5t74 156t38 165.5zM1026 1835l198 1q-5 -96 -54.5 -163t-128.5 -100.5t-172 -31.5
q-135 2 -225 79t-91 217l198 -2q-1 -60 26.5 -97t92.5 -38t105 36t51 99z" />
    <glyph glyph-name="obreve" unicode="&#x14f;" 
d="M53 524l3 21q12 115 55.5 216.5t116 179t171 121t221.5 40.5q117 -2 202 -47t139.5 -121t77 -174t12.5 -207l-2 -22q-13 -114 -57.5 -214.5t-117 -177t-171.5 -119.5t-220 -40q-115 2 -201 46.5t-140 120t-76 172.5t-13 205zM337 545l-2 -22q-5 -48 -3 -102.5
t17.5 -103.5t51.5 -80.5t99 -33.5q67 -2 115 27.5t79 79t49 108t24 114.5l2 21q4 48 2.5 103.5t-17.5 105t-52 82t-99 34.5q-67 2 -115 -28.5t-79 -80.5t-48.5 -109t-23.5 -115zM836 1524l198 1q-5 -96 -54.5 -163t-128.5 -100.5t-172 -31.5q-135 2 -225 79t-91 217l198 -2
q-1 -60 26.5 -97t92.5 -38t105 36t51 99z" />
    <glyph glyph-name="Ohungarumlaut" unicode="&#x150;" horiz-adv-x="1370" 
d="M1313 767l-8 -70q-20 -140 -75 -270t-144 -231.5t-211.5 -160t-277.5 -55.5q-148 3 -250.5 64.5t-162 163.5t-79.5 227.5t-4 257.5l8 69q20 140 75.5 269t145 230.5t212 159.5t275.5 55q148 -2 250.5 -63.5t162 -163t79.5 -227t4 -255.5zM1009 693l9 72q8 68 8.5 147.5
t-18.5 153t-67.5 121t-139.5 51.5q-98 3 -167.5 -39t-116 -113.5t-73.5 -156t-38 -165.5l-9 -72q-9 -67 -9.5 -147.5t18.5 -154t68 -121.5t140 -52q97 -3 166.5 40t116.5 114.5t74 156t38 165.5zM885 1545l272 301h270l-311 -301h-231zM543 1545l236 301h265l-276 -301h-225
z" />
    <glyph glyph-name="ohungarumlaut" unicode="&#x151;" 
d="M53 524l3 21q12 115 55.5 216.5t116 179t171 121t221.5 40.5q117 -2 202 -47t139.5 -121t77 -174t12.5 -207l-2 -22q-13 -114 -57.5 -214.5t-117 -177t-171.5 -119.5t-220 -40q-115 2 -201 46.5t-140 120t-76 172.5t-13 205zM337 545l-2 -22q-5 -48 -3 -102.5
t17.5 -103.5t51.5 -80.5t99 -33.5q67 -2 115 27.5t79 79t49 108t24 114.5l2 21q4 48 2.5 103.5t-17.5 105t-52 82t-99 34.5q-67 2 -115 -28.5t-79 -80.5t-48.5 -109t-23.5 -115zM693 1234l272 301h270l-311 -301h-231zM351 1234l236 301h265l-276 -301h-225z" />
    <glyph glyph-name="OE" unicode="&#x152;" horiz-adv-x="1922" 
d="M813 1477q72 0 145.5 -6.5t146.5 -13.5l-26 -234q-67 15 -136 23.5t-139 8.5q-83 1 -149 -28t-113.5 -80t-78 -119t-42.5 -146l-48 -307q-8 -67 -2.5 -131.5t30.5 -116.5t74 -84.5t127 -34.5q73 -3 145.5 5t143.5 20l-22 -235q-70 -7 -139.5 -12t-138.5 -4
q-126 2 -225 48.5t-166 127.5t-95.5 187.5t-12.5 230.5l47 304q19 130 76 239.5t145.5 190t203.5 124.5t249 43zM1762 234l-41 -234h-753l41 234h753zM1317 1456l-253 -1456h-293l253 1456h293zM1773 863l-40 -228h-655l40 228h655zM1972 1456l-41 -235h-752l42 235h751z
" />
    <glyph glyph-name="oe" unicode="&#x153;" horiz-adv-x="1795" 
d="M1210 -19q-112 2 -195.5 44.5t-137 115.5t-76.5 167t-13 199l4 41q12 109 54.5 210t113 180t166.5 123.5t214 41.5q105 -3 182 -42t125.5 -105.5t67 -154t6.5 -186.5l-24 -160h-804l34 192l518 -1l6 29q8 51 -1 96.5t-40 75.5t-90 32q-64 2 -109 -30t-73.5 -83
t-44.5 -109t-23 -110l-5 -39q-5 -52 0.5 -104.5t25.5 -96t59 -70.5t100 -29q84 -4 159 18.5t146 58.5l62 -183q-82 -68 -192.5 -95.5t-214.5 -25.5zM68 523l3 21q13 115 58 217t118 179.5t172 121t222 40.5q117 -2 201.5 -47t137 -121.5t73 -174.5t9.5 -205l-2 -22
q-14 -115 -59 -216t-118.5 -177.5t-172.5 -119t-221 -40.5q-115 3 -200 47.5t-137.5 120t-73.5 172.5t-10 204zM353 544l-2 -21q-5 -48 -4.5 -102.5t14.5 -103t49 -80.5t98 -34q68 -2 116 27.5t79.5 79t49.5 108t25 114.5l3 21q5 47 4 102.5t-15.5 105.5t-49.5 82.5
t-98 34.5q-67 2 -115.5 -28t-80 -81t-49 -110t-24.5 -115z" />
    <glyph glyph-name="Racute" unicode="&#x154;" horiz-adv-x="1273" 
d="M273 1456l513 -1q133 -2 241.5 -49t169 -141t50.5 -239q-10 -119 -57.5 -201t-127 -139t-182.5 -98l-102 -49h-474l40 234l326 -2q73 1 133 28t99.5 78.5t49.5 125.5q9 65 -8.5 113t-59.5 75t-107 29l-251 1l-212 -1221h-293zM818 0l-210 649l295 2l227 -635v-16h-312z
M602 1538l239 308h323l-315 -308h-247z" />
    <glyph glyph-name="racute" unicode="&#x155;" horiz-adv-x="727" 
d="M429 831l-144 -831h-281l188 1082h264zM782 1091l-35 -269q-24 4 -48.5 7t-49.5 4q-58 1 -105 -15t-81.5 -46.5t-58 -74.5t-35.5 -99l-55 18q10 77 33.5 162.5t66 160t109 121t162.5 45.5q25 0 48.5 -4t48.5 -10zM367 1228l239 308h323l-315 -308h-247z" />
    <glyph glyph-name="uni0156" unicode="&#x156;" horiz-adv-x="1273" 
d="M273 1456l513 -1q133 -2 241.5 -49t169 -141t50.5 -239q-10 -119 -57.5 -201t-127 -139t-182.5 -98l-102 -49h-474l40 234l326 -2q73 1 133 28t99.5 78.5t49.5 125.5q9 65 -8.5 113t-59.5 75t-107 29l-251 1l-212 -1221h-293zM818 0l-210 649l295 2l227 -635v-16h-312z
M573 -84l-7 -72q-11 -101 -61.5 -191t-122.5 -159l-137 80q41 60 71.5 121.5t43.5 133.5l15 86z" />
    <glyph glyph-name="uni0157" unicode="&#x157;" horiz-adv-x="727" 
d="M429 831l-144 -831h-281l188 1082h264zM782 1091l-35 -269q-24 4 -48.5 7t-49.5 4q-58 1 -105 -15t-81.5 -46.5t-58 -74.5t-35.5 -99l-55 18q10 77 33.5 162.5t66 160t109 121t162.5 45.5q25 0 48.5 -4t48.5 -10zM231 -84l-7 -72q-11 -101 -61.5 -191t-122.5 -159
l-137 80q41 60 71.5 121.5t43.5 133.5l15 86z" />
    <glyph glyph-name="Rcaron" unicode="&#x158;" horiz-adv-x="1273" 
d="M273 1456l513 -1q133 -2 241.5 -49t169 -141t50.5 -239q-10 -119 -57.5 -201t-127 -139t-182.5 -98l-102 -49h-474l40 234l326 -2q73 1 133 28t99.5 78.5t49.5 125.5q9 65 -8.5 113t-59.5 75t-107 29l-251 1l-212 -1221h-293zM818 0l-210 649l295 2l227 -635v-16h-312z
M642 1846l117 -144l170 143l247 5l1 -18l-329 -276h-180l-258 277l-1 18z" />
    <glyph glyph-name="rcaron" unicode="&#x159;" horiz-adv-x="727" 
d="M429 831l-144 -831h-281l188 1082h264zM782 1091l-35 -269q-24 4 -48.5 7t-49.5 4q-58 1 -105 -15t-81.5 -46.5t-58 -74.5t-35.5 -99l-55 18q10 77 33.5 162.5t66 160t109 121t162.5 45.5q25 0 48.5 -4t48.5 -10zM407 1536l117 -144l170 143l247 5l1 -18l-329 -276h-180
l-258 277l-1 18z" />
    <glyph glyph-name="Sacute" unicode="&#x15a;" horiz-adv-x="1223" 
d="M824 388q9 53 -8.5 89.5t-52 62t-77 43.5t-84.5 33q-77 30 -151.5 68t-135.5 90.5t-95 123t-28 165.5q7 108 61 187t137.5 129.5t182 74.5t193.5 22q136 -2 242 -56.5t166.5 -154t56.5 -238.5h-290q4 66 -16.5 114.5t-65 75.5t-113.5 28q-59 1 -115.5 -18.5t-97 -60
t-50.5 -104.5q-8 -47 13.5 -81t59 -58t80 -40.5t76.5 -29.5q81 -29 156.5 -69t133.5 -94.5t89 -128t25 -170.5q-9 -111 -60 -189.5t-132 -128t-177 -72.5t-195 -22q-108 2 -203 34t-166 92.5t-109.5 149t-35.5 202.5l293 -1q-4 -61 9.5 -106.5t44 -76.5t76 -47t106.5 -16
q59 0 114 18t94 57.5t49 102.5zM652 1539l239 308h323l-315 -308h-247z" />
    <glyph glyph-name="sacute" unicode="&#x15b;" horiz-adv-x="1021" 
d="M631 305q8 48 -24 74.5t-78.5 40.5t-80.5 22q-60 16 -120.5 40.5t-109.5 61.5t-78 90.5t-26 126.5q3 87 44.5 151.5t107.5 107t144 63.5t155 19q108 -1 200.5 -40t150 -116t57.5 -192l-279 1q1 44 -14 77t-46 51t-79 18q-38 0 -75.5 -14.5t-64.5 -42.5t-34 -69
q-6 -34 10 -56t43 -35.5t57 -22t54 -13.5q88 -23 172 -59t137 -100.5t49 -171.5q-3 -91 -48 -155.5t-115.5 -105t-152 -59t-159.5 -17.5q-109 2 -204.5 44t-154.5 122.5t-60 197.5l264 -1q1 -52 21 -88t57.5 -54.5t89.5 -18.5q41 -1 81.5 11t70.5 39.5t38 72.5zM466 1228
l239 308h323l-315 -308h-247z" />
    <glyph glyph-name="Scircumflex" unicode="&#x15c;" horiz-adv-x="1223" 
d="M824 388q9 53 -8.5 89.5t-52 62t-77 43.5t-84.5 33q-77 30 -151.5 68t-135.5 90.5t-95 123t-28 165.5q7 108 61 187t137.5 129.5t182 74.5t193.5 22q136 -2 242 -56.5t166.5 -154t56.5 -238.5h-290q4 66 -16.5 114.5t-65 75.5t-113.5 28q-59 1 -115.5 -18.5t-97 -60
t-50.5 -104.5q-8 -47 13.5 -81t59 -58t80 -40.5t76.5 -29.5q81 -29 156.5 -69t133.5 -94.5t89 -128t25 -170.5q-9 -111 -60 -189.5t-132 -128t-177 -72.5t-195 -22q-108 2 -203 34t-166 92.5t-109.5 149t-35.5 202.5l293 -1q-4 -61 9.5 -106.5t44 -76.5t76 -47t106.5 -16
q59 0 114 18t94 57.5t49 102.5zM914 1847l261 -275v-19l-216 4l-125 145l-177 -144l-226 -4l-1 21l324 272h160z" />
    <glyph glyph-name="scircumflex" unicode="&#x15d;" horiz-adv-x="1021" 
d="M631 305q8 48 -24 74.5t-78.5 40.5t-80.5 22q-60 16 -120.5 40.5t-109.5 61.5t-78 90.5t-26 126.5q3 87 44.5 151.5t107.5 107t144 63.5t155 19q108 -1 200.5 -40t150 -116t57.5 -192l-279 1q1 44 -14 77t-46 51t-79 18q-38 0 -75.5 -14.5t-64.5 -42.5t-34 -69
q-6 -34 10 -56t43 -35.5t57 -22t54 -13.5q88 -23 172 -59t137 -100.5t49 -171.5q-3 -91 -48 -155.5t-115.5 -105t-152 -59t-159.5 -17.5q-109 2 -204.5 44t-154.5 122.5t-60 197.5l264 -1q1 -52 21 -88t57.5 -54.5t89.5 -18.5q41 -1 81.5 11t70.5 39.5t38 72.5zM728 1536
l261 -275v-19l-216 4l-125 145l-177 -144l-226 -4l-1 21l324 272h160z" />
    <glyph glyph-name="Scedilla" unicode="&#x15e;" horiz-adv-x="1223" 
d="M824 388q9 53 -8.5 89.5t-52 62t-77 43.5t-84.5 33q-77 30 -151.5 68t-135.5 90.5t-95 123t-28 165.5q7 108 61 187t137.5 129.5t182 74.5t193.5 22q136 -2 242 -56.5t166.5 -154t56.5 -238.5h-290q4 66 -16.5 114.5t-65 75.5t-113.5 28q-59 1 -115.5 -18.5t-97 -60
t-50.5 -104.5q-8 -47 13.5 -81t59 -58t80 -40.5t76.5 -29.5q81 -29 156.5 -69t133.5 -94.5t89 -128t25 -170.5q-9 -111 -60 -189.5t-132 -128t-177 -72.5t-195 -22q-108 2 -203 34t-166 92.5t-109.5 149t-35.5 202.5l293 -1q-4 -61 9.5 -106.5t44 -76.5t76 -47t106.5 -16
q59 0 114 18t94 57.5t49 102.5zM419 6l209 2l-20 -63q62 -14 94 -57t31 -106q-1 -74 -36.5 -121.5t-92.5 -73.5t-122 -37t-124 -12l9 162q29 3 56.5 11.5t47.5 28t25 52.5q6 34 -15 48.5t-52 18t-54 6.5z" />
    <glyph glyph-name="scedilla" unicode="&#x15f;" horiz-adv-x="1021" 
d="M631 305q8 48 -24 74.5t-78.5 40.5t-80.5 22q-60 16 -120.5 40.5t-109.5 61.5t-78 90.5t-26 126.5q3 87 44.5 151.5t107.5 107t144 63.5t155 19q108 -1 200.5 -40t150 -116t57.5 -192l-279 1q1 44 -14 77t-46 51t-79 18q-38 0 -75.5 -14.5t-64.5 -42.5t-34 -69
q-6 -34 10 -56t43 -35.5t57 -22t54 -13.5q88 -23 172 -59t137 -100.5t49 -171.5q-3 -91 -48 -155.5t-115.5 -105t-152 -59t-159.5 -17.5q-109 2 -204.5 44t-154.5 122.5t-60 197.5l264 -1q1 -52 21 -88t57.5 -54.5t89.5 -18.5q41 -1 81.5 11t70.5 39.5t38 72.5zM306 -4
l209 2l-20 -63q62 -14 94 -57t31 -106q-1 -74 -36.5 -121.5t-92.5 -73.5t-122 -37t-124 -12l9 162q29 3 56.5 11.5t47.5 28t25 52.5q6 34 -15 48.5t-52 18t-54 6.5z" />
    <glyph glyph-name="Scaron" unicode="&#x160;" horiz-adv-x="1223" 
d="M824 388q9 53 -8.5 89.5t-52 62t-77 43.5t-84.5 33q-77 30 -151.5 68t-135.5 90.5t-95 123t-28 165.5q7 108 61 187t137.5 129.5t182 74.5t193.5 22q136 -2 242 -56.5t166.5 -154t56.5 -238.5h-290q4 66 -16.5 114.5t-65 75.5t-113.5 28q-59 1 -115.5 -18.5t-97 -60
t-50.5 -104.5q-8 -47 13.5 -81t59 -58t80 -40.5t76.5 -29.5q81 -29 156.5 -69t133.5 -94.5t89 -128t25 -170.5q-9 -111 -60 -189.5t-132 -128t-177 -72.5t-195 -22q-108 2 -203 34t-166 92.5t-109.5 149t-35.5 202.5l293 -1q-4 -61 9.5 -106.5t44 -76.5t76 -47t106.5 -16
q59 0 114 18t94 57.5t49 102.5zM692 1847l117 -144l170 143l247 5l1 -18l-329 -276h-180l-258 277l-1 18z" />
    <glyph glyph-name="scaron" unicode="&#x161;" horiz-adv-x="1021" 
d="M631 305q8 48 -24 74.5t-78.5 40.5t-80.5 22q-60 16 -120.5 40.5t-109.5 61.5t-78 90.5t-26 126.5q3 87 44.5 151.5t107.5 107t144 63.5t155 19q108 -1 200.5 -40t150 -116t57.5 -192l-279 1q1 44 -14 77t-46 51t-79 18q-38 0 -75.5 -14.5t-64.5 -42.5t-34 -69
q-6 -34 10 -56t43 -35.5t57 -22t54 -13.5q88 -23 172 -59t137 -100.5t49 -171.5q-3 -91 -48 -155.5t-115.5 -105t-152 -59t-159.5 -17.5q-109 2 -204.5 44t-154.5 122.5t-60 197.5l264 -1q1 -52 21 -88t57.5 -54.5t89.5 -18.5q41 -1 81.5 11t70.5 39.5t38 72.5zM506 1536
l117 -144l170 143l247 5l1 -18l-329 -276h-180l-258 277l-1 18z" />
    <glyph glyph-name="uni0162" unicode="&#x162;" horiz-adv-x="1231" 
d="M907 1456l-252 -1456h-293l253 1456h292zM1341 1456l-41 -235h-1153l41 235h1153zM400 13l209 2l-20 -63q62 -14 94 -57t31 -106q-1 -74 -36.5 -121.5t-92.5 -73.5t-122 -37t-124 -12l9 162q29 3 56.5 11.5t47.5 28t25 52.5q6 34 -15 48.5t-52 18t-54 6.5z" />
    <glyph glyph-name="uni0163" unicode="&#x163;" horiz-adv-x="672" 
d="M708 1082l-36 -204h-613l36 204h613zM293 1349h281l-176 -1025q-4 -35 0.5 -59.5t22.5 -37.5t56 -15q21 -1 42 1.5t43 5.5l-20 -215q-40 -12 -80.5 -17.5t-82.5 -5.5q-96 2 -157.5 42t-88 110.5t-17.5 163.5zM206 6l209 2l-20 -63q62 -14 94 -57t31 -106
q-1 -74 -36.5 -121.5t-92.5 -73.5t-122 -37t-124 -12l9 162q29 3 56.5 11.5t47.5 28t25 52.5q6 34 -15 48.5t-52 18t-54 6.5z" />
    <glyph glyph-name="Tcaron" unicode="&#x164;" horiz-adv-x="1231" 
d="M907 1456l-252 -1456h-293l253 1456h292zM1341 1456l-41 -235h-1153l41 235h1153zM671 1846l117 -144l170 143l247 5l1 -18l-329 -276h-180l-258 277l-1 18z" />
    <glyph glyph-name="tcaron" unicode="&#x165;" horiz-adv-x="712" 
d="M708 1082l-36 -204h-613l36 204h613zM293 1349h281l-176 -1025q-4 -35 0.5 -59.5t22.5 -37.5t56 -15q21 -1 42 1.5t43 5.5l-20 -215q-40 -12 -80.5 -17.5t-82.5 -5.5q-96 2 -157.5 42t-88 110.5t-17.5 163.5zM1000 1666l-7 -72q-11 -101 -61.5 -191t-122.5 -159l-137 80
q41 60 71.5 121.5t43.5 133.5l15 86z" />
    <glyph glyph-name="Tbar" unicode="&#x166;" horiz-adv-x="1231" 
d="M907 1456l-252 -1456h-293l253 1456h292zM1341 1456l-41 -235h-1153l41 235h1153zM995 933l-32 -178h-681l31 178h682z" />
    <glyph glyph-name="tbar" unicode="&#x167;" horiz-adv-x="672" 
d="M708 1082l-36 -204h-613l36 204h613zM293 1349h281l-176 -1025q-4 -35 0.5 -59.5t22.5 -37.5t56 -15q21 -1 42 1.5t43 5.5l-20 -215q-40 -12 -80.5 -17.5t-82.5 -5.5q-96 2 -157.5 42t-88 110.5t-17.5 163.5zM674 716l-32 -178h-681l32 178h681z" />
    <glyph glyph-name="Utilde" unicode="&#x168;" horiz-adv-x="1310" 
d="M1054 1456h292l-164 -961q-23 -162 -106.5 -278.5t-214 -178t-293.5 -59.5q-152 3 -264.5 66.5t-168.5 178t-37 270.5l164 962h292l-163 -963q-9 -75 5.5 -137.5t60 -101t129.5 -40.5q89 -3 152 32t101 99.5t51 148.5zM1059 1841l161 -10q-4 -67 -31.5 -128.5
t-78.5 -100.5t-126 -38q-37 0 -69.5 14.5t-63 33t-62 32t-66.5 12.5q-45 -2 -66.5 -31.5t-32.5 -66.5l-167 8q5 66 33.5 127.5t79.5 101.5t125 39q36 -1 68 -15.5t63 -32.5t63 -31.5t68 -11.5q44 1 67 30t35 68z" />
    <glyph glyph-name="utilde" unicode="&#x169;" horiz-adv-x="1113" 
d="M672 274l140 808h282l-188 -1082h-264zM736 482l81 2q-11 -95 -42 -186t-85 -164t-134 -115t-189 -40q-89 2 -150 34.5t-97 88t-48.5 127.5t-4.5 154l117 699h281l-118 -703q-3 -34 0 -64.5t16 -54.5t37 -38.5t64 -15.5q85 -3 141 34.5t87.5 101.5t43.5 140zM910 1531
l161 -10q-4 -67 -31.5 -128.5t-78.5 -100.5t-126 -38q-37 0 -69.5 14.5t-63 33t-62 32t-66.5 12.5q-45 -2 -66.5 -31.5t-32.5 -66.5l-167 8q5 66 33.5 127.5t79.5 101.5t125 39q36 -1 68 -15.5t63 -32.5t63 -31.5t68 -11.5q44 1 67 30t35 68z" />
    <glyph glyph-name="Umacron" unicode="&#x16a;" horiz-adv-x="1310" 
d="M1054 1456h292l-164 -961q-23 -162 -106.5 -278.5t-214 -178t-293.5 -59.5q-152 3 -264.5 66.5t-168.5 178t-37 270.5l164 962h292l-163 -963q-9 -75 5.5 -137.5t60 -101t129.5 -40.5q89 -3 152 32t101 99.5t51 148.5zM1186 1763l-25 -163h-669l27 163h667z" />
    <glyph glyph-name="umacron" unicode="&#x16b;" horiz-adv-x="1113" 
d="M672 274l140 808h282l-188 -1082h-264zM736 482l81 2q-11 -95 -42 -186t-85 -164t-134 -115t-189 -40q-89 2 -150 34.5t-97 88t-48.5 127.5t-4.5 154l117 699h281l-118 -703q-3 -34 0 -64.5t16 -54.5t37 -38.5t64 -15.5q85 -3 141 34.5t87.5 101.5t43.5 140zM1036 1453
l-25 -163h-669l27 163h667z" />
    <glyph glyph-name="Ubreve" unicode="&#x16c;" horiz-adv-x="1310" 
d="M1054 1456h292l-164 -961q-23 -162 -106.5 -278.5t-214 -178t-293.5 -59.5q-152 3 -264.5 66.5t-168.5 178t-37 270.5l164 962h292l-163 -963q-9 -75 5.5 -137.5t60 -101t129.5 -40.5q89 -3 152 32t101 99.5t51 148.5zM994 1834l198 1q-5 -96 -54.5 -163t-128.5 -100.5
t-172 -31.5q-135 2 -225 79t-91 217l198 -2q-1 -60 26.5 -97t92.5 -38t105 36t51 99z" />
    <glyph glyph-name="ubreve" unicode="&#x16d;" horiz-adv-x="1113" 
d="M672 274l140 808h282l-188 -1082h-264zM736 482l81 2q-11 -95 -42 -186t-85 -164t-134 -115t-189 -40q-89 2 -150 34.5t-97 88t-48.5 127.5t-4.5 154l117 699h281l-118 -703q-3 -34 0 -64.5t16 -54.5t37 -38.5t64 -15.5q85 -3 141 34.5t87.5 101.5t43.5 140zM844 1524
l198 1q-5 -96 -54.5 -163t-128.5 -100.5t-172 -31.5q-135 2 -225 79t-91 217l198 -2q-1 -60 26.5 -97t92.5 -38t105 36t51 99z" />
    <glyph glyph-name="Uring" unicode="&#x16e;" horiz-adv-x="1310" 
d="M1054 1456h292l-164 -961q-23 -162 -106.5 -278.5t-214 -178t-293.5 -59.5q-152 3 -264.5 66.5t-168.5 178t-37 270.5l164 962h292l-163 -963q-9 -75 5.5 -137.5t60 -101t129.5 -40.5q89 -3 152 32t101 99.5t51 148.5zM634 1723q0 60 31 108.5t82 76.5t110 28
q83 0 145 -56.5t62 -142.5q0 -60 -31 -107.5t-82 -74.5t-110 -27q-83 0 -144.5 54.5t-62.5 140.5zM745 1724q-5 -41 17 -71t64 -30q48 0 84 33.5t43 79.5q6 41 -16.5 72.5t-66.5 31.5q-47 0 -82.5 -35.5t-42.5 -80.5z" />
    <glyph glyph-name="uring" unicode="&#x16f;" horiz-adv-x="1113" 
d="M672 274l140 808h282l-188 -1082h-264zM736 482l81 2q-11 -95 -42 -186t-85 -164t-134 -115t-189 -40q-89 2 -150 34.5t-97 88t-48.5 127.5t-4.5 154l117 699h281l-118 -703q-3 -34 0 -64.5t16 -54.5t37 -38.5t64 -15.5q85 -3 141 34.5t87.5 101.5t43.5 140zM485 1412
q0 60 31 108.5t82 76.5t110 28q83 0 145 -56.5t62 -142.5q0 -60 -31 -107.5t-82 -74.5t-110 -27q-83 0 -144.5 54.5t-62.5 140.5zM596 1413q-5 -41 17 -71t64 -30q48 0 84 33.5t43 79.5q6 41 -16.5 72.5t-66.5 31.5q-47 0 -82.5 -35.5t-42.5 -80.5z" />
    <glyph glyph-name="Uhungarumlaut" unicode="&#x170;" horiz-adv-x="1310" 
d="M1054 1456h292l-164 -961q-23 -162 -106.5 -278.5t-214 -178t-293.5 -59.5q-152 3 -264.5 66.5t-168.5 178t-37 270.5l164 962h292l-163 -963q-9 -75 5.5 -137.5t60 -101t129.5 -40.5q89 -3 152 32t101 99.5t51 148.5zM852 1544l272 301h270l-311 -301h-231zM510 1544
l236 301h265l-276 -301h-225z" />
    <glyph glyph-name="uhungarumlaut" unicode="&#x171;" horiz-adv-x="1113" 
d="M672 274l140 808h282l-188 -1082h-264zM736 482l81 2q-11 -95 -42 -186t-85 -164t-134 -115t-189 -40q-89 2 -150 34.5t-97 88t-48.5 127.5t-4.5 154l117 699h281l-118 -703q-3 -34 0 -64.5t16 -54.5t37 -38.5t64 -15.5q85 -3 141 34.5t87.5 101.5t43.5 140zM703 1234
l272 301h270l-311 -301h-231zM361 1234l236 301h265l-276 -301h-225z" />
    <glyph glyph-name="Uogonek" unicode="&#x172;" horiz-adv-x="1310" 
d="M1054 1456h292l-164 -961q-23 -162 -106.5 -278.5t-214 -178t-293.5 -59.5q-152 3 -264.5 66.5t-168.5 178t-37 270.5l164 962h292l-163 -963q-9 -75 5.5 -137.5t60 -101t129.5 -40.5q89 -3 152 32t101 99.5t51 148.5zM740 126l153 -61q-33 -23 -72.5 -48.5t-68.5 -59
t-34 -78.5q-3 -26 7 -41.5t37 -16.5q21 -1 41 5.5t38 14.5l21 -156q-35 -21 -74 -31t-79 -10q-90 0 -148 53.5t-58 145.5q2 71 36.5 124.5t88 92t112.5 66.5z" />
    <glyph glyph-name="uogonek" unicode="&#x173;" horiz-adv-x="1113" 
d="M672 274l140 808h282l-188 -1082h-264zM736 482l81 2q-11 -95 -42 -186t-85 -164t-134 -115t-189 -40q-89 2 -150 34.5t-97 88t-48.5 127.5t-4.5 154l117 699h281l-118 -703q-3 -34 0 -64.5t16 -54.5t37 -38.5t64 -15.5q85 -3 141 34.5t87.5 101.5t43.5 140zM722 60
l153 -61q-33 -23 -72 -48.5t-68.5 -59t-35.5 -78.5q-3 -26 7.5 -41.5t37.5 -16.5q21 -1 41 6t39 14l20 -155q-35 -22 -74 -32t-79 -10q-90 1 -148 54.5t-57 144.5q0 71 35 124.5t89 92t112 66.5z" />
    <glyph glyph-name="Wcircumflex" unicode="&#x174;" horiz-adv-x="1738" 
d="M410 245l467 1211h156l10 -216l-492 -1240h-170zM455 1456l42 -1238l-50 -218h-191l-86 1456h285zM1132 249l417 1207h296l-541 -1456h-189zM1125 1456l93 -1244l-38 -212h-171l-107 1265l63 191h160zM1142 1846l261 -275v-19l-216 4l-125 145l-177 -144l-226 -4l-1 21
l324 272h160z" />
    <glyph glyph-name="wcircumflex" unicode="&#x175;" horiz-adv-x="1458" 
d="M354 294l352 788h185l-116 -328l-345 -754h-156zM380 1082l17 -816l-33 -266h-170l-80 1082h266zM953 308l284 774h278l-453 -1082h-180zM909 1082l81 -811l-19 -271h-145l-87 779v303h170zM956 1536l261 -275v-19l-216 4l-125 145l-177 -144l-226 -4l-1 21l324 272h160z
" />
    <glyph glyph-name="Ycircumflex" unicode="&#x176;" horiz-adv-x="1230" 
d="M463 1456l179 -662l409 662h333l-636 -940l-88 -516h-298l95 545l-303 910zM900 1846l261 -275v-19l-216 4l-125 145l-177 -144l-226 -4l-1 21l324 272h160z" />
    <glyph glyph-name="ycircumflex" unicode="&#x177;" horiz-adv-x="1000" 
d="M339 137l438 945h310l-634 -1246q-28 -59 -63.5 -109.5t-80.5 -88t-101 -58t-126 -20.5q-35 0 -68 6t-66 14l20 213q11 -1 21.5 -2t20.5 -1q50 -1 88.5 11.5t67.5 40t52 71.5zM384 1082l94 -799l-13 -291l-188 -22l-185 1112h292zM736 1536l261 -275v-19l-216 4l-125 145
l-177 -144l-226 -4l-1 21l324 272h160z" />
    <glyph glyph-name="Ydieresis" unicode="&#x178;" horiz-adv-x="1230" 
d="M463 1456l179 -662l409 662h333l-636 -940l-88 -516h-298l95 545l-303 910zM428 1674q-1 54 39 91t93 38t94 -33.5t42 -89.5t-38.5 -91t-93.5 -37q-52 -1 -93 33t-43 89zM905 1673q-2 55 37.5 91.5t93.5 37.5q53 1 94 -33t42 -89q2 -55 -38 -91t-94 -37q-52 -1 -93 32.5
t-42 88.5z" />
    <glyph glyph-name="Zacute" unicode="&#x179;" horiz-adv-x="1206" 
d="M1085 234l-40 -234h-1003l41 234h1002zM1251 1276l-1070 -1276h-215l33 185l1075 1271h209zM1183 1456l-41 -235h-964l42 235h963zM633 1538l239 308h323l-315 -308h-247z" />
    <glyph glyph-name="zacute" unicode="&#x17a;" horiz-adv-x="1011" 
d="M880 225l-39 -225h-799l39 225h799zM982 903l-817 -903h-198l32 184l813 898h201zM914 1082l-39 -225h-744l40 225h743zM475 1228l239 308h323l-315 -308h-247z" />
    <glyph glyph-name="Zdotaccent" unicode="&#x17b;" horiz-adv-x="1206" 
d="M1085 234l-40 -234h-1003l41 234h1002zM1251 1276l-1070 -1276h-215l33 185l1075 1271h209zM1183 1456l-41 -235h-964l42 235h963zM658 1696q-1 62 40.5 100.5t101.5 39.5q58 1 101 -35t44 -96q1 -61 -41 -99t-101 -39q-58 -1 -101 34t-44 95z" />
    <glyph glyph-name="zdotaccent" unicode="&#x17c;" horiz-adv-x="1011" 
d="M880 225l-39 -225h-799l39 225h799zM982 903l-817 -903h-198l32 184l813 898h201zM914 1082l-39 -225h-744l40 225h743zM500 1386q-1 62 40.5 100.5t101.5 39.5q58 1 101 -35t44 -96q1 -61 -41 -99t-101 -39q-58 -1 -101 34t-44 95z" />
    <glyph glyph-name="Zcaron" unicode="&#x17d;" horiz-adv-x="1206" 
d="M1085 234l-40 -234h-1003l41 234h1002zM1251 1276l-1070 -1276h-215l33 185l1075 1271h209zM1183 1456l-41 -235h-964l42 235h963zM672 1846l117 -144l170 143l247 5l1 -18l-329 -276h-180l-258 277l-1 18z" />
    <glyph glyph-name="zcaron" unicode="&#x17e;" horiz-adv-x="1011" 
d="M880 225l-39 -225h-799l39 225h799zM982 903l-817 -903h-198l32 184l813 898h201zM914 1082l-39 -225h-744l40 225h743zM515 1536l117 -144l170 143l247 5l1 -18l-329 -276h-180l-258 277l-1 18z" />
    <glyph glyph-name="longs" unicode="&#x17f;" horiz-adv-x="513" 
d="M289 0h-281l200 1178q15 120 72 206t149.5 131.5t214.5 44.5q41 0 81.5 -6.5t80.5 -14.5l-39 -217q-24 6 -48 10t-47 3q-50 0 -87 -19.5t-60.5 -55t-32.5 -82.5z" />
    <glyph glyph-name="uni018F" unicode="&#x18f;" horiz-adv-x="1382" 
d="M595 -21q-149 2 -253.5 57t-167 149.5t-84.5 217t-4 258.5l27 160h1002l-41 -235l-703 1l-8 -34q-12 -70 -1.5 -128t42 -101t84.5 -67.5t126 -25.5q88 -2 156 34t117 97.5t79.5 137.5t42.5 153l22 147q12 87 1.5 162.5t-46.5 133t-100.5 90.5t-160.5 35
q-100 2 -198.5 -15.5t-192.5 -49.5l-26 241q60 36 138.5 53t159.5 22t149 4q149 -2 263 -53t188 -142t104.5 -214t11.5 -268l-21 -146q-20 -134 -78.5 -256t-150.5 -217t-212.5 -149t-264.5 -52z" />
    <glyph glyph-name="florin" unicode="&#x192;" horiz-adv-x="716" 
d="M740 1082l-32 -204h-204l-142 -930q-14 -115 -63 -202.5t-134 -137t-206 -48.5q-38 1 -75.5 6t-74.5 13l36 221q21 -6 43 -10.5t45 -4.5q49 -1 79 22t45.5 60.5t21.5 80.5l143 930h-157l32 204h156l12 96q14 120 70.5 206t149 131t213.5 44q41 0 82 -6.5t81 -15.5
l-42 -216q-24 6 -48 9t-49 3q-49 0 -84.5 -19.5t-58 -54t-30.5 -81.5l-14 -96h205z" />
    <glyph glyph-name="Ohorn" unicode="&#x1a0;" horiz-adv-x="1396" 
d="M1402 1568l178 2q-9 -132 -54.5 -230.5t-134.5 -154.5t-227 -59l13 155q82 2 127 44.5t66.5 107.5t31.5 135zM1310 767l-10 -70q-19 -140 -73.5 -270t-144 -231.5t-212 -160t-276.5 -55.5q-118 2 -207.5 43t-150.5 110.5t-96 159.5t-45.5 192.5t2.5 207.5l9 69
q20 140 75.5 269t145 230.5t212 159.5t275.5 55q118 -2 207 -42.5t150 -110t96 -159t45.5 -191.5t-2.5 -206zM1004 693l10 72q7 54 9 117t-6 124.5t-32.5 113t-69.5 83.5t-117 35q-98 4 -167.5 -39t-116.5 -114.5t-73.5 -156t-38.5 -166.5l-9 -71q-7 -53 -9 -116.5t6 -125
t32.5 -113t70 -84t118.5 -34.5q97 -4 166.5 39t116 114.5t73.5 156t37 165.5z" />
    <glyph glyph-name="ohorn" unicode="&#x1a1;" horiz-adv-x="1154" 
d="M1098 1185l162 1q-9 -123 -55 -208t-130.5 -129.5t-209.5 -47.5l8 123q80 2 125.5 38t67.5 94.5t32 128.5zM50 523l2 21q14 115 59 217t119 179.5t173 121t222 40.5q117 -2 201.5 -47t137.5 -121.5t74 -174t10 -205.5l-2 -22q-14 -115 -59.5 -216t-119.5 -177.5
t-173 -119t-220 -39.5q-116 2 -201 46.5t-138 120t-74.5 172t-10.5 204.5zM334 544l-2 -21q-5 -48 -4 -102.5t16 -103t50 -80.5t98 -34q67 -2 115.5 27.5t80.5 79t50 108t26 114.5l2 21q5 48 4 103t-15.5 105t-49.5 82.5t-98 34.5q-68 2 -116.5 -28t-81 -80.5t-50 -109.5
t-25.5 -116z" />
    <glyph glyph-name="Uhorn" unicode="&#x1af;" horiz-adv-x="1415" 
d="M1544 1537l177 3q-10 -152 -63 -255t-154.5 -156.5t-256.5 -56.5l14 156q102 1 159.5 40.5t85 108.5t38.5 160zM1054 1456h292l-164 -961q-24 -162 -107 -279t-213 -178.5t-294 -58.5q-152 3 -264.5 66.5t-168.5 178t-37 270.5l164 962h292l-163 -963q-9 -75 5.5 -138
t60 -101t129.5 -41q89 -3 152 32.5t101 100.5t51 148z" />
    <glyph glyph-name="uhorn" unicode="&#x1b0;" horiz-adv-x="1205" 
d="M1223 1177l161 1q-9 -134 -60.5 -216t-143.5 -120.5t-224 -40.5l13 135q86 1 137.5 27.5t78 79.5t38.5 134zM672 274l140 808h282l-188 -1082h-264zM736 482l81 2q-11 -95 -42 -186t-85 -164.5t-134 -115.5t-190 -40q-89 2 -149.5 35t-96 88.5t-48.5 128t-4 153.5
l116 699h281l-118 -703q-4 -34 -0.5 -64.5t16.5 -54.5t37.5 -38.5t63.5 -16.5q85 -3 141.5 35t88 102t42.5 140z" />
    <glyph glyph-name="uni01F0" unicode="&#x1f0;" horiz-adv-x="559" 
d="M229 1082h282l-191 -1120q-15 -119 -68 -209.5t-142.5 -142t-214.5 -50.5q-38 1 -76 6t-75 13l38 221q23 -7 47 -11t48 -4q50 0 83 25.5t51.5 66.5t25.5 84zM267 1509l117 -144l170 143l247 5l1 -18l-329 -276h-180l-258 277l-1 18z" />
    <glyph glyph-name="Aringacute" unicode="&#x1fa;" horiz-adv-x="1335" 
d="M804 1192l-586 -1192h-322l778 1456h206zM920 0l-178 1223l11 233h193l275 -1456h-301zM994 542l-41 -235h-749l41 235h749zM793 1789l221 204h276l-297 -205zM641 1556q-1 83 59.5 137.5t141.5 54.5q75 1 131.5 -49.5t56.5 -128.5q1 -83 -58 -136.5t-140 -53.5
q-75 0 -133 48.5t-58 127.5zM749 1557q-3 -33 14.5 -57.5t53.5 -24.5q38 -1 67.5 27.5t34.5 65.5q6 33 -10 59t-52 26q-41 0 -70 -29t-38 -67z" />
    <glyph glyph-name="aringacute" unicode="&#x1fb;" horiz-adv-x="1063" 
d="M616 244l76 485q5 44 -4 82t-36.5 60.5t-77.5 24.5q-45 1 -80.5 -15.5t-58.5 -47t-32 -72.5l-282 -2q5 90 50.5 155.5t115.5 107.5t152.5 62t161.5 18q113 -2 201.5 -47t136 -128.5t35.5 -202.5l-75 -464q-9 -58 -14 -121.5t18 -120.5l-2 -18l-276 -1q-18 59 -18 121.5
t9 123.5zM724 659l-27 -163l-143 1q-43 -1 -85.5 -11.5t-78.5 -32t-59.5 -55.5t-29.5 -83q-5 -35 7 -62.5t37.5 -43.5t61.5 -17q51 -1 100 19.5t85 58.5t50 88l60 -125q-24 -56 -60.5 -103t-83.5 -81.5t-103 -53t-120 -17.5q-89 2 -163.5 42.5t-118 111t-39.5 164.5
q4 106 53 176.5t126.5 111.5t169 58.5t181.5 17.5zM603 1479l221 204h276l-297 -205zM451 1246q-1 83 59.5 137.5t141.5 54.5q75 1 131.5 -49.5t56.5 -128.5q1 -83 -58 -136.5t-140 -53.5q-75 0 -133 48.5t-58 127.5zM559 1247q-3 -33 14.5 -57.5t53.5 -24.5
q38 -1 67.5 27.5t34.5 65.5q6 33 -10 59t-52 26q-41 0 -70 -29t-38 -67z" />
    <glyph glyph-name="AEacute" unicode="&#x1fc;" horiz-adv-x="1864" 
d="M1085 1286l-848 -1286h-343l1011 1456h183zM1061 576l-43 -239h-728l42 239h729zM1742 228l-40 -228h-712l40 228h712zM1308 1456l-193 -1456h-280l194 1456h279zM1714 862l-40 -227h-613l39 227h614zM1895 1456l-39 -228h-712l40 228h711zM931 1550l239 308h323
l-315 -308h-247z" />
    <glyph glyph-name="aeacute" unicode="&#x1fd;" horiz-adv-x="1678" 
d="M633 181l86 529q5 44 -4 81t-36 61t-76 26q-44 1 -84 -13t-68.5 -43.5t-37.5 -74.5l-280 17q5 93 51 158t117.5 105.5t155 58.5t165.5 17q119 -3 206.5 -51t132 -136t31.5 -211l-81 -489zM757 649l-30 -183l-187 1q-50 -1 -102.5 -17.5t-91.5 -51.5t-48 -92
q-6 -44 11.5 -70.5t50 -39t70.5 -12.5q36 -1 78 10.5t81.5 33t68.5 51.5t40 67l115 -154q-41 -78 -114.5 -125t-161 -68t-170.5 -20q-100 2 -182.5 39.5t-128.5 110.5t-41 181q4 103 54.5 169t128 103.5t167.5 52.5t174 15zM1120 -19q-112 1 -197 41t-140 110t-78.5 162.5
t-13.5 200.5l9 68q13 112 56.5 211t114 173.5t167 116t215.5 38.5q105 -3 181 -42.5t122.5 -107.5t64.5 -154.5t7 -184.5l-25 -158h-806l34 189l520 -1l6 30q8 49 1 95t-36.5 77t-86.5 33q-65 3 -112 -25t-78 -75t-49 -104t-25 -111l-9 -68q-6 -57 0.5 -108t29.5 -90.5
t64.5 -63.5t105.5 -26q81 -2 153.5 21t143.5 57l59 -186q-52 -44 -119.5 -70.5t-139.5 -37.5t-139 -10zM805 1229l239 308h323l-315 -308h-247z" />
    <glyph glyph-name="Oslashacute" unicode="&#x1fe;" horiz-adv-x="1368" 
d="M1414 1517l-1202 -1611h-198l1203 1611h197zM1321 767l-9 -70q-19 -141 -74 -270.5t-144.5 -231t-212 -160t-276.5 -55.5q-119 2 -208 43t-150.5 110.5t-96.5 159.5t-45 192t2 208l10 69q20 140 75.5 269t145 230.5t212 160t275.5 55.5q118 -2 207 -43t150 -110.5
t96.5 -159.5t45.5 -191.5t-3 -205.5zM1016 693l10 72q6 54 8 117t-6 124.5t-32.5 113t-70 83.5t-117.5 35q-97 4 -167 -38.5t-116 -114t-73 -156t-38 -165.5l-10 -72q-7 -54 -9 -116.5t6 -124.5t32.5 -114t70 -84.5t117.5 -34.5q97 -4 167 39t116.5 114.5t73.5 156t38 165.5
zM728 1612l239 308h323l-315 -308h-247z" />
    <glyph glyph-name="oslashacute" unicode="&#x1ff;" horiz-adv-x="1120" 
d="M1078 1216l-879 -1358h-171l879 1358h171zM52 522l2 22q14 115 59 217t118.5 180t173 121t222.5 41q116 -3 200.5 -48t137.5 -121.5t74 -174t10 -205.5l-2 -22q-14 -115 -59 -216t-119 -177.5t-173.5 -119t-220.5 -40.5q-116 3 -201 47.5t-138 119.5t-74 172t-10 204z
M336 545l-2 -22q-5 -48 -4.5 -102.5t15.5 -103t50.5 -80.5t97.5 -34q68 -2 116.5 27.5t80.5 79t50 108t26 114.5l2 21q5 48 4 103t-16 104.5t-50 82.5t-98 35q-67 2 -116 -28t-81 -80t-50 -109.5t-25 -115.5zM489 1224l239 308h323l-315 -308h-247z" />
    <glyph glyph-name="uni0218" unicode="&#x218;" horiz-adv-x="1223" 
d="M824 388q9 53 -8.5 89.5t-52 62t-77 43.5t-84.5 33q-77 30 -151.5 68t-135.5 90.5t-95 123t-28 165.5q7 108 61 187t137.5 129.5t182 74.5t193.5 22q136 -2 242 -56.5t166.5 -154t56.5 -238.5h-290q4 66 -16.5 114.5t-65 75.5t-113.5 28q-59 1 -115.5 -18.5t-97 -60
t-50.5 -104.5q-8 -47 13.5 -81t59 -58t80 -40.5t76.5 -29.5q81 -29 156.5 -69t133.5 -94.5t89 -128t25 -170.5q-9 -111 -60 -189.5t-132 -128t-177 -72.5t-195 -22q-108 2 -203 34t-166 92.5t-109.5 149t-35.5 202.5l293 -1q-4 -61 9.5 -106.5t44 -76.5t76 -47t106.5 -16
q59 0 114 18t94 57.5t49 102.5zM609 -94l-7 -72q-11 -101 -61.5 -191t-122.5 -159l-137 80q41 60 71.5 121.5t43.5 133.5l15 86z" />
    <glyph glyph-name="uni0219" unicode="&#x219;" horiz-adv-x="1021" 
d="M631 305q8 48 -24 74.5t-78.5 40.5t-80.5 22q-60 16 -120.5 40.5t-109.5 61.5t-78 90.5t-26 126.5q3 87 44.5 151.5t107.5 107t144 63.5t155 19q108 -1 200.5 -40t150 -116t57.5 -192l-279 1q1 44 -14 77t-46 51t-79 18q-38 0 -75.5 -14.5t-64.5 -42.5t-34 -69
q-6 -34 10 -56t43 -35.5t57 -22t54 -13.5q88 -23 172 -59t137 -100.5t49 -171.5q-3 -91 -48 -155.5t-115.5 -105t-152 -59t-159.5 -17.5q-109 2 -204.5 44t-154.5 122.5t-60 197.5l264 -1q1 -52 21 -88t57.5 -54.5t89.5 -18.5q41 -1 81.5 11t70.5 39.5t38 72.5zM495 -104
l-7 -72q-11 -101 -61.5 -191t-122.5 -159l-137 80q41 60 71.5 121.5t43.5 133.5l15 86z" />
    <glyph glyph-name="uni021A" unicode="&#x21a;" horiz-adv-x="1231" 
d="M907 1456l-252 -1456h-293l253 1456h292zM1341 1456l-41 -235h-1153l41 235h1153zM589 -87l-7 -72q-11 -101 -61.5 -191t-122.5 -159l-137 80q41 60 71.5 121.5t43.5 133.5l15 86z" />
    <glyph glyph-name="uni021B" unicode="&#x21b;" horiz-adv-x="672" 
d="M708 1082l-36 -204h-613l36 204h613zM293 1349h281l-176 -1025q-4 -35 0.5 -59.5t22.5 -37.5t56 -15q21 -1 42 1.5t43 5.5l-20 -215q-40 -12 -80.5 -17.5t-82.5 -5.5q-96 2 -157.5 42t-88 110.5t-17.5 163.5zM396 -94l-7 -72q-11 -101 -61.5 -191t-122.5 -159l-137 80
q41 60 71.5 121.5t43.5 133.5l15 86z" />
    <glyph glyph-name="uni0237" unicode="&#x237;" horiz-adv-x="559" 
d="M229 1082h282l-191 -1120q-15 -119 -68 -209.5t-142.5 -142t-214.5 -50.5q-38 1 -76 6t-75 13l38 221q23 -7 47 -11t48 -4q50 0 83 25.5t51.5 66.5t25.5 84z" />
    <glyph glyph-name="uni0259" unicode="&#x259;" horiz-adv-x="1050" 
d="M566 1102q112 -2 195 -45t137 -115.5t76.5 -166.5t12.5 -199l-4 -41q-12 -110 -54.5 -210.5t-112.5 -179t-166 -123t-215 -41.5q-105 2 -182.5 41t-125.5 105.5t-66.5 154t-6.5 186.5l24 160h804l-33 -192l-519 1l-5 -29q-9 -51 0 -96.5t40 -75.5t89 -32q64 -2 109 29.5
t74 83t45 109.5t22 109l5 40q6 52 0.5 104t-25.5 95.5t-59 71t-100 29.5q-83 4 -158 -18.5t-147 -58.5l-62 182q81 69 192.5 96.5t215.5 25.5z" />
    <glyph glyph-name="uni02BC" unicode="&#x2bc;" horiz-adv-x="456" 
d="M526 1536l-23 -151q-11 -74 -42.5 -141t-78 -125t-102.5 -105l-135 81q47 68 83.5 137.5t51.5 150.5l26 153h220z" />
    <glyph glyph-name="circumflex" unicode="&#x2c6;" horiz-adv-x="981" 
d="M716 1536l261 -275v-19l-216 4l-125 145l-177 -144l-226 -4l-1 21l324 272h160z" />
    <glyph glyph-name="caron" unicode="&#x2c7;" horiz-adv-x="932" 
d="M472 1536l117 -144l170 143l247 5l1 -18l-329 -276h-180l-258 277l-1 18z" />
    <glyph glyph-name="uni02C9" unicode="&#x2c9;" horiz-adv-x="1004" 
d="M964 1454l-25 -163h-669l27 163h667z" />
    <glyph glyph-name="breve" unicode="&#x2d8;" horiz-adv-x="884" 
d="M716 1524l198 1q-5 -96 -54.5 -163t-128.5 -100.5t-172 -31.5q-135 2 -225 79t-91 217l198 -2q-1 -60 26.5 -97t92.5 -38t105 36t51 99z" />
    <glyph glyph-name="dotaccent" unicode="&#x2d9;" horiz-adv-x="526" 
d="M249 1370q-1 62 40.5 100.5t101.5 39.5q58 1 101 -35t44 -96q1 -61 -41 -99t-101 -39q-58 -1 -101 34t-44 95z" />
    <glyph glyph-name="ring" unicode="&#x2da;" horiz-adv-x="658" 
d="M243 1324q0 60 31 108.5t82 76.5t110 28q83 0 145 -56.5t62 -142.5q0 -60 -31 -107.5t-82 -74.5t-110 -27q-83 0 -144.5 54.5t-62.5 140.5zM354 1325q-5 -41 17 -71t64 -30q48 0 84 33.5t43 79.5q6 41 -16.5 72.5t-66.5 31.5q-47 0 -82.5 -35.5t-42.5 -80.5z" />
    <glyph glyph-name="ogonek" unicode="&#x2db;" horiz-adv-x="598" 
d="M144 60l153 -61q-33 -23 -71.5 -48.5t-68 -59t-35.5 -78.5q-3 -26 7.5 -41.5t36.5 -16.5q22 -1 42 6t38 14l20 -155q-34 -22 -73.5 -32t-79.5 -10q-90 1 -148 54.5t-57 144.5q1 71 35.5 124.5t88.5 92t112 66.5z" />
    <glyph glyph-name="tilde" unicode="&#x2dc;" horiz-adv-x="951" 
d="M820 1533l161 -10q-4 -67 -31.5 -128.5t-78.5 -100.5t-126 -38q-37 0 -69.5 14.5t-63 33t-62 32t-66.5 12.5q-45 -2 -66.5 -31.5t-32.5 -66.5l-167 8q5 66 33.5 127.5t79.5 101.5t125 39q36 -1 68 -15.5t63 -32.5t63 -31.5t68 -11.5q44 1 67 30t35 68z" />
    <glyph glyph-name="hungarumlaut" unicode="&#x2dd;" horiz-adv-x="820" 
d="M499 1234l272 301h270l-311 -301h-231zM157 1234l236 301h265l-276 -301h-225z" />
    <glyph glyph-name="uni02F3" unicode="&#x2f3;" horiz-adv-x="628" 
d="M-2 -237q-1 77 54.5 127.5t129.5 50.5q71 1 123.5 -46t53.5 -120q0 -75 -54 -124.5t-127 -50.5q-71 0 -125 44.5t-55 118.5zM107 -236q-4 -27 11.5 -48t43.5 -21q31 0 56.5 24.5t30.5 54.5q4 26 -9 48.5t-42 23.5q-32 0 -59 -25.5t-32 -56.5z" />
    <glyph glyph-name="gravecomb" unicode="&#x300;" horiz-adv-x="0" 
d="M-409 1536l141 -307l-214 -1l-217 307z" />
    <glyph glyph-name="acutecomb" unicode="&#x301;" horiz-adv-x="0" 
d="M-560 1228l244 308l324 -1l-320 -307h-248z" />
    <glyph glyph-name="tildecomb" unicode="&#x303;" horiz-adv-x="0" 
d="M-191 1533l161 -10q-4 -67 -31.5 -128.5t-78.5 -100.5t-126 -38q-37 0 -69.5 14.5t-63 33t-62 32t-66.5 12.5q-45 -2 -66.5 -31.5t-32.5 -66.5l-167 8q5 66 33.5 127.5t79.5 101.5t125 39q36 -1 68 -15.5t63 -32.5t63 -31.5t68 -11.5q44 1 67 30t35 68z" />
    <glyph glyph-name="hookabovecomb" unicode="&#x309;" horiz-adv-x="0" 
d="M-361 1263l-221 1l3 137q24 1 58 5.5t61.5 19t32.5 47.5q4 24 -8.5 37t-34 18t-44 5.5t-38.5 1.5l16 133q44 -1 102.5 -7.5t115 -25t93 -55.5t35.5 -99q-1 -71 -50.5 -105.5t-111.5 -45.5z" />
    <glyph glyph-name="uni030F" unicode="&#x30f;" horiz-adv-x="0" 
d="M-375 1252l-193 266h-295l236 -266h252zM-44 1252l-149 266h-290l192 -266h247z" />
    <glyph glyph-name="dotbelowcomb" unicode="&#x323;" horiz-adv-x="0" 
d="M-882 -240q-2 66 46.5 103t109.5 38q59 1 108 -33.5t50 -98.5q2 -65 -47 -102t-109 -38q-59 -1 -108 33.5t-50 97.5z" />
    <glyph glyph-name="tonos" unicode="&#x384;" horiz-adv-x="677" 
d="M326 1258l132 343h266l-220 -343h-178z" />
    <glyph glyph-name="dieresistonos" unicode="&#x385;" horiz-adv-x="1089" 
d="M592 1419l97 326h261l-207 -326h-151zM235 1363q-1 55 38.5 92t93.5 38q52 1 93.5 -33.5t42.5 -88.5q1 -56 -38.5 -92t-92.5 -37t-94 32.5t-43 88.5zM830 1362q-1 56 38.5 92.5t93.5 37.5q52 1 93.5 -33t42.5 -88q1 -56 -38.5 -92t-92.5 -37t-94.5 32.5t-42.5 87.5z" />
    <glyph glyph-name="Alphatonos" unicode="&#x386;" horiz-adv-x="1335" 
d="M804 1192l-586 -1192h-322l778 1456h206zM920 0l-178 1223l11 233h193l275 -1456h-301zM994 542l-41 -235h-749l41 235h749zM175 1257l132 343h266l-220 -343h-178z" />
    <glyph glyph-name="anoteleia" unicode="&#x387;" horiz-adv-x="610" 
d="M154 694q-1 69 46 112.5t114 44.5q64 1 110 -40t48 -107q1 -68 -46 -111.5t-113 -43.5q-65 -1 -111.5 39t-47.5 106z" />
    <glyph glyph-name="Epsilontonos" unicode="&#x388;" horiz-adv-x="1217" 
d="M1112 234l-41 -234h-753l40 234h754zM667 1456l-253 -1456h-293l252 1456h294zM1123 863l-40 -228h-655l40 228h655zM1322 1456l-41 -235h-752l42 235h751zM-131 1259l132 343h266l-220 -343h-178z" />
    <glyph glyph-name="Etatonos" unicode="&#x389;" horiz-adv-x="1503" 
d="M1215 863l-41 -234h-739l41 234h739zM667 1456l-253 -1456h-293l252 1456h294zM1525 1456l-253 -1456h-291l252 1456h292zM-128 1256l132 343h266l-220 -343h-178z" />
    <glyph glyph-name="Iotatonos" unicode="&#x38a;" horiz-adv-x="681" 
d="M685 1456l-252 -1456h-293l253 1456h292zM-126 1260l132 343h266l-220 -343h-178z" />
    <glyph glyph-name="Omicrontonos" unicode="&#x38c;" horiz-adv-x="1390" 
d="M1333 767l-8 -70q-20 -140 -75 -270t-144 -231.5t-211.5 -160t-277.5 -55.5q-148 3 -250.5 64.5t-162 163.5t-79.5 227.5t-4 257.5l8 69q20 140 75.5 269t145 230.5t212 159.5t275.5 55q148 -2 250.5 -63.5t162 -163t79.5 -227t4 -255.5zM1029 693l9 72q8 68 8.5 147.5
t-18.5 153t-67.5 121t-139.5 51.5q-98 3 -167.5 -39t-116 -113.5t-73.5 -156t-38 -165.5l-9 -72q-9 -67 -9.5 -147.5t18.5 -154t68 -121.5t140 -52q97 -3 166.5 40t116.5 114.5t74 156t38 165.5zM-19 1257l132 343h266l-220 -343h-178z" />
    <glyph glyph-name="Upsilontonos" unicode="&#x38e;" horiz-adv-x="1330" 
d="M563 1456l179 -662l409 662h333l-636 -940l-88 -516h-298l95 545l-303 910zM-115 1257l132 343h266l-220 -343h-178z" />
    <glyph glyph-name="Omegatonos" unicode="&#x38f;" horiz-adv-x="1355" 
d="M944 772l12 92q7 51 7.5 114t-13.5 122t-51 98.5t-107 42.5q-76 3 -129.5 -32t-89 -93t-55.5 -125.5t-28 -128.5l-13 -91q-6 -53 -15 -130t-6.5 -157.5t27.5 -146t85 -96.5l-13 -145q-113 24 -194.5 92.5t-132 165t-70 205t-6.5 213.5l12 88q17 125 69.5 237.5
t136.5 198.5t195 134t246 45q128 -2 222.5 -53.5t155 -138t84 -196t10.5 -227.5l-12 -88q-17 -119 -68.5 -233t-132.5 -208t-186.5 -156.5t-229.5 -79.5l14 145q71 36 120 95.5t79.5 132.5t48.5 151.5t28 152.5zM629 0l42 236h490l-42 -236h-490zM31 0l41 236h498l-42 -236
h-497zM3 1257l132 343h266l-220 -343h-178z" />
    <glyph glyph-name="iotadieresistonos" unicode="&#x390;" horiz-adv-x="667" 
d="M215 1082h282l-129 -750q-4 -35 0.5 -59t22.5 -37.5t55 -15.5q22 0 43 2.5t42 4.5l-19 -214q-40 -12 -81 -18t-83 -5q-95 1 -157 41.5t-88.5 111t-17.5 163.5zM347 1397l97 326h261l-207 -326h-151zM-10 1341q-1 55 38.5 92t93.5 38q52 1 93.5 -33.5t42.5 -88.5
q1 -56 -38.5 -92t-92.5 -37t-94 32.5t-43 88.5zM585 1340q-1 56 38.5 92.5t93.5 37.5q52 1 93.5 -33t42.5 -88q1 -56 -38.5 -92t-92.5 -37t-94.5 32.5t-42.5 87.5z" />
    <glyph glyph-name="Alpha" unicode="&#x391;" horiz-adv-x="1335" 
d="M804 1192l-586 -1192h-322l778 1456h206zM920 0l-178 1223l11 233h193l275 -1456h-301zM994 542l-41 -235h-749l41 235h749z" />
    <glyph glyph-name="Beta" unicode="&#x392;" horiz-adv-x="1268" 
d="M698 639h-376l35 206l290 -1q66 0 126.5 18.5t102 61t52.5 114.5q9 68 -12 107t-66.5 56.5t-107.5 18.5l-216 1l-212 -1221h-293l252 1456l478 -1q94 -1 182 -22t156 -66t105.5 -119t30.5 -182q-7 -118 -68 -193.5t-155.5 -113.5t-202.5 -44zM579 0h-454l154 234l309 -1
q66 0 123.5 22.5t96.5 67.5t49 115q9 59 -5 103.5t-51.5 69t-99.5 27.5l-296 1l37 206l340 -1l50 -80q98 -5 170.5 -44.5t110.5 -111.5t31 -173q-10 -156 -91 -252t-206.5 -140t-267.5 -43z" />
    <glyph glyph-name="Gamma" unicode="&#x393;" horiz-adv-x="1107" 
d="M1203 1456l-41 -235h-636l-212 -1221h-291l252 1456h928z" />
    <glyph glyph-name="Delta" unicode="&#x394;" horiz-adv-x="1454" 
d="M941 1318l-712 -1318h-319l815 1456h159zM1039 0l-258 1354l84 102h165l305 -1456h-296zM1107 234l-41 -234h-915l41 234h915z" />
    <glyph glyph-name="Delta" unicode="&#x2206;" horiz-adv-x="1454" 
d="M941 1318l-712 -1318h-319l815 1456h159zM1039 0l-258 1354l84 102h165l305 -1456h-296zM1107 234l-41 -234h-915l41 234h915z" />
    <glyph glyph-name="Epsilon" unicode="&#x395;" horiz-adv-x="1117" 
d="M1012 234l-41 -234h-753l40 234h754zM567 1456l-253 -1456h-293l252 1456h294zM1023 863l-40 -228h-655l40 228h655zM1222 1456l-41 -235h-752l42 235h751z" />
    <glyph glyph-name="Zeta" unicode="&#x396;" horiz-adv-x="1206" 
d="M1085 234l-40 -234h-1003l41 234h1002zM1251 1276l-1070 -1276h-215l33 185l1075 1271h209zM1183 1456l-41 -235h-964l42 235h963z" />
    <glyph glyph-name="Eta" unicode="&#x397;" horiz-adv-x="1403" 
d="M1115 863l-41 -234h-739l41 234h739zM567 1456l-253 -1456h-293l252 1456h294zM1425 1456l-253 -1456h-291l252 1456h292z" />
    <glyph glyph-name="Theta" unicode="&#x398;" horiz-adv-x="1367" 
d="M914 836l-39 -224h-371l40 224h370zM1311 767l-10 -70q-19 -141 -73.5 -270.5t-144 -231t-212 -160t-276.5 -55.5q-119 2 -208.5 43t-150.5 110.5t-96 159.5t-45 192.5t3 207.5l8 69q20 140 75.5 269t145.5 230.5t212 159.5t275 56q119 -3 208 -43.5t150 -110t96 -159.5
t45.5 -191.5t-2.5 -205.5zM1005 693l10 72q7 54 9 117t-6 124.5t-32.5 113t-69.5 83.5t-118 35q-98 3 -167.5 -39t-116 -113.5t-73 -156t-38.5 -165.5l-10 -72q-6 -54 -8 -117t6 -124.5t32.5 -113.5t69.5 -84.5t118 -35.5q97 -3 167 40t116.5 114.5t73 156t37.5 165.5z" />
    <glyph glyph-name="Iota" unicode="&#x399;" horiz-adv-x="581" 
d="M585 1456l-252 -1456h-293l253 1456h292z" />
    <glyph glyph-name="Kappa" unicode="&#x39a;" horiz-adv-x="1263" 
d="M567 1456l-253 -1456h-293l252 1456h294zM1423 1456l-690 -725l-390 -360l-2 306l267 302l436 477h379zM836 0l-304 684l236 177l400 -861h-332z" />
    <glyph glyph-name="Lambda" unicode="&#x39b;" horiz-adv-x="1285" 
d="M773 1161l-541 -1161h-325l725 1456h219zM853 0l-144 1193l22 263h207l221 -1456h-306z" />
    <glyph glyph-name="Mu" unicode="&#x39c;" horiz-adv-x="1739" 
d="M412 1456h238l177 -1066l547 1066h258l-762 -1456h-200zM273 1456h248l-137 -1055l-71 -401h-292zM1512 1456h249l-252 -1456h-294l75 426z" />
    <glyph glyph-name="Nu" unicode="&#x39d;" horiz-adv-x="1402" 
d="M1425 1456l-253 -1456h-284l-403 987l-171 -987h-293l252 1456h285l404 -988l171 988h292z" />
    <glyph glyph-name="Xi" unicode="&#x39e;" horiz-adv-x="1125" 
d="M-13 0l41 234h958l-42 -234h-957zM208 624l40 225h730l-39 -225h-731zM222 1221l42 235h889l-42 -235h-889z" />
    <glyph glyph-name="Omicron" unicode="&#x39f;" horiz-adv-x="1370" 
d="M1313 767l-8 -70q-20 -140 -75 -270t-144 -231.5t-211.5 -160t-277.5 -55.5q-148 3 -250.5 64.5t-162 163.5t-79.5 227.5t-4 257.5l8 69q20 140 75.5 269t145 230.5t212 159.5t275.5 55q148 -2 250.5 -63.5t162 -163t79.5 -227t4 -255.5zM1009 693l9 72q8 68 8.5 147.5
t-18.5 153t-67.5 121t-139.5 51.5q-98 3 -167.5 -39t-116 -113.5t-73.5 -156t-38 -165.5l-9 -72q-9 -67 -9.5 -147.5t18.5 -154t68 -121.5t140 -52q97 -3 166.5 40t116.5 114.5t74 156t38 165.5z" />
    <glyph glyph-name="Pi" unicode="&#x3a0;" horiz-adv-x="1405" 
d="M1427 1456l-253 -1456h-292l211 1221h-566l-212 -1221h-292l252 1456h1152z" />
    <glyph glyph-name="Rho" unicode="&#x3a1;" horiz-adv-x="1281" 
d="M678 518l-377 1l41 234l346 -1q74 0 136 26.5t102 77.5t51 128q10 65 -7 117.5t-60 84t-111 34.5l-273 1l-212 -1221h-293l252 1456l535 -1q139 -3 248 -59.5t168.5 -160t47.5 -249.5q-13 -159 -99 -263t-216.5 -154.5t-278.5 -50.5z" />
    <glyph glyph-name="Sigma" unicode="&#x3a3;" horiz-adv-x="1125" 
d="M1010 233l-41 -233h-894l40 233h895zM1198 1456l-42 -235h-840l41 235h841zM829 746l-1 -19l-623 -727h-240l28 161l529 588l-328 572l24 135h221z" />
    <glyph glyph-name="Tau" unicode="&#x3a4;" horiz-adv-x="1231" 
d="M907 1456l-252 -1456h-293l253 1456h292zM1341 1456l-41 -235h-1153l41 235h1153z" />
    <glyph glyph-name="Upsilon" unicode="&#x3a5;" horiz-adv-x="1230" 
d="M463 1456l179 -662l409 662h333l-636 -940l-88 -516h-298l95 545l-303 910z" />
    <glyph glyph-name="Phi" unicode="&#x3a6;" horiz-adv-x="1533" 
d="M828 166l-228 2q-120 2 -217.5 41t-166.5 110t-101 170.5t-21 221.5q17 176 110 306t238 200.5t318 70.5l230 -2q121 -2 219.5 -44t166.5 -116t99 -175.5t19 -222.5q-16 -176 -110.5 -302t-240 -193t-315.5 -67zM612 419l232 -3q97 0 175 37t127 107.5t62 168.5
q8 63 -1 117.5t-37 96t-75 65.5t-114 27l-233 2q-101 1 -179 -40t-127 -114t-61 -173q-9 -63 1.5 -115.5t39.5 -91t76.5 -60.5t113.5 -24zM1069 1456l-253 -1456h-292l253 1456h292z" />
    <glyph glyph-name="Chi" unicode="&#x3a7;" horiz-adv-x="1261" 
d="M493 1456l186 -506l345 506h348l-533 -735l302 -721h-324l-192 516l-353 -516h-353l547 747l-295 709h322z" />
    <glyph glyph-name="Psi" unicode="&#x3a8;" horiz-adv-x="1446" 
d="M1249 1456h294l-79 -466q-27 -187 -121 -323t-241.5 -209.5t-336.5 -72.5l-131 1q-132 3 -234.5 48t-170 125t-96 189t-12.5 241l79 467h292l-78 -468q-9 -71 -2 -136t34 -116t79 -81.5t132 -34.5l130 -2q115 -1 194.5 46.5t126 132t63.5 192.5zM1023 1456l-253 -1456
h-292l253 1456h292z" />
    <glyph glyph-name="Omega" unicode="&#x3a9;" horiz-adv-x="1335" 
d="M924 772l12 92q7 51 7.5 114t-13.5 122t-51 98.5t-107 42.5q-76 3 -129.5 -32t-89 -93t-55.5 -125.5t-28 -128.5l-13 -91q-6 -53 -15 -130t-6.5 -157.5t27.5 -146t85 -96.5l-13 -145q-113 24 -194.5 92.5t-132 165t-70 205t-6.5 213.5l12 88q17 125 69.5 237.5
t136.5 198.5t195 134t246 45q128 -2 222.5 -53.5t155 -138t84 -196t10.5 -227.5l-12 -88q-17 -119 -68.5 -233t-132.5 -208t-186.5 -156.5t-229.5 -79.5l14 145q71 36 120 95.5t79.5 132.5t48.5 151.5t28 152.5zM609 0l42 236h490l-42 -236h-490zM11 0l41 236h498l-42 -236
h-497z" />
    <glyph glyph-name="Omega" unicode="&#x2126;" horiz-adv-x="1335" 
d="M924 772l12 92q7 51 7.5 114t-13.5 122t-51 98.5t-107 42.5q-76 3 -129.5 -32t-89 -93t-55.5 -125.5t-28 -128.5l-13 -91q-6 -53 -15 -130t-6.5 -157.5t27.5 -146t85 -96.5l-13 -145q-113 24 -194.5 92.5t-132 165t-70 205t-6.5 213.5l12 88q17 125 69.5 237.5
t136.5 198.5t195 134t246 45q128 -2 222.5 -53.5t155 -138t84 -196t10.5 -227.5l-12 -88q-17 -119 -68.5 -233t-132.5 -208t-186.5 -156.5t-229.5 -79.5l14 145q71 36 120 95.5t79.5 132.5t48.5 151.5t28 152.5zM609 0l42 236h490l-42 -236h-490zM11 0l41 236h498l-42 -236
h-497z" />
    <glyph glyph-name="Iotadieresis" unicode="&#x3aa;" horiz-adv-x="581" 
d="M585 1456l-252 -1456h-293l253 1456h292zM102 1678q-1 54 39 91t93 38t94 -33.5t42 -89.5t-38.5 -91t-93.5 -37q-52 -1 -93 33t-43 89zM579 1677q-2 55 37.5 91.5t93.5 37.5q53 1 94 -33t42 -89q2 -55 -38 -91t-94 -37q-52 -1 -93 32.5t-42 88.5z" />
    <glyph glyph-name="Upsilondieresis" unicode="&#x3ab;" horiz-adv-x="1230" 
d="M463 1456l179 -662l409 662h333l-636 -940l-88 -516h-298l95 545l-303 910zM428 1674q-1 54 39 91t93 38t94 -33.5t42 -89.5t-38.5 -91t-93.5 -37q-52 -1 -93 33t-43 89zM905 1673q-2 55 37.5 91.5t93.5 37.5q53 1 94 -33t42 -89q2 -55 -38 -91t-94 -37q-52 -1 -93 32.5
t-42 88.5z" />
    <glyph glyph-name="alphatonos" unicode="&#x3ac;" horiz-adv-x="1119" 
d="M57 505l3 22q12 99 45 202t91.5 189t145 137t204.5 47q79 -3 133 -40.5t88 -97.5t51 -132t22 -145t2 -135l-4 -45q-15 -83 -48 -176.5t-86.5 -174.5t-130 -130.5t-177.5 -47.5q-108 3 -178 51t-108.5 125t-50 169t-2.5 182zM343 527l-2 -21q-5 -45 -5 -96t12 -97.5
t43.5 -76.5t91.5 -32q59 -3 104.5 21.5t78 67t53 94t30.5 102.5l10 75q3 43 0 96.5t-18.5 102t-49 81t-91.5 34.5q-68 2 -114.5 -31.5t-75.5 -88.5t-45 -116.5t-22 -114.5zM837 1082h247l-126 -738q-1 -15 -3.5 -36t-1.5 -42t10.5 -36t32.5 -17q5 -1 10.5 0.5t10.5 2.5
l4 -213q-27 -13 -55 -18t-59 -4q-61 2 -106.5 27.5t-74.5 68.5t-43 96.5t-13 110.5l95 582zM609 1256l132 343h266l-220 -343h-178z" />
    <glyph glyph-name="epsilontonos" unicode="&#x3ad;" horiz-adv-x="1107" 
d="M491 589l256 -1l-23 -129l-165 1q-48 0 -98.5 -12t-87.5 -42.5t-46 -87.5q-5 -35 8 -59.5t38 -39.5t55.5 -22.5t59.5 -7.5q45 -1 91 11.5t80.5 41.5t46.5 78l283 1q-7 -95 -53.5 -160.5t-118.5 -106t-156.5 -58.5t-167.5 -17q-72 2 -151.5 18.5t-149 53.5t-111.5 97.5
t-39 149.5q3 88 46 144.5t110 88.5t144.5 45t148.5 13zM734 516l-222 1q-57 2 -121.5 16.5t-120.5 45t-90.5 79.5t-33.5 120q2 96 50.5 159t125 99.5t163.5 51t164 13.5q76 -2 149 -22t132 -60t94 -101.5t36 -146.5l-278 1q0 44 -23 69.5t-59 36.5t-76 11q-42 0 -86.5 -13
t-78 -41.5t-41.5 -76.5q-5 -32 6.5 -53.5t34 -33.5t50 -17.5t52.5 -5.5l196 -1zM577 1255l132 343h266l-220 -343h-178z" />
    <glyph glyph-name="etatonos" unicode="&#x3ae;" horiz-adv-x="1120" 
d="M426 835l-145 -835h-281l188 1082h261zM329 577l-56 -3q10 96 44 191t92 172t141 122.5t193 43.5q89 -2 148.5 -36.5t92 -91.5t42.5 -129.5t2 -153.5l-187 -1108h-282l187 1109q5 37 2 69.5t-16 58t-38.5 40.5t-67.5 17q-67 3 -117.5 -22t-86.5 -68t-59 -98.5t-34 -112.5
zM569 1256l132 343h266l-220 -343h-178z" />
    <glyph glyph-name="iotatonos" unicode="&#x3af;" horiz-adv-x="667" 
d="M215 1082h282l-129 -750q-4 -35 0.5 -59t22.5 -37.5t55 -15.5q22 0 43 2.5t42 4.5l-19 -214q-40 -12 -81 -18t-83 -5q-95 1 -157 41.5t-88.5 111t-17.5 163.5zM290 1234l132 343h266l-220 -343h-178z" />
    <glyph glyph-name="upsilondieresistonos" unicode="&#x3b0;" horiz-adv-x="1083" 
d="M193 1082h281l-109 -670q-3 -26 -4 -60.5t5 -68t25 -56t57 -24.5q65 -4 114 33.5t82.5 96t53.5 123t27 114.5q19 127 16.5 258.5t-32.5 256.5l259 -2q27 -82 38 -168t9 -173t-12 -172q-15 -117 -56.5 -224.5t-112 -191.5t-170 -131.5t-229.5 -44.5q-97 2 -168 35.5
t-115.5 92.5t-62 138t-7.5 173zM612 1412l97 326h261l-207 -326h-151zM255 1356q-1 55 38.5 92t93.5 38q52 1 93.5 -33.5t42.5 -88.5q1 -56 -38.5 -92t-92.5 -37t-94 32.5t-43 88.5zM850 1355q-1 56 38.5 92.5t93.5 37.5q52 1 93.5 -33t42.5 -88q1 -56 -38.5 -92t-92.5 -37
t-94.5 32.5t-42.5 87.5z" />
    <glyph glyph-name="alpha" unicode="&#x3b1;" horiz-adv-x="1119" 
d="M57 505l3 22q12 99 45 202t91.5 189t145 137t204.5 47q79 -3 133 -40.5t88 -97.5t51 -132t22 -145t2 -135l-4 -45q-15 -83 -48 -176.5t-86.5 -174.5t-130 -130.5t-177.5 -47.5q-108 3 -178 51t-108.5 125t-50 169t-2.5 182zM343 527l-2 -21q-5 -45 -5 -96t12 -97.5
t43.5 -76.5t91.5 -32q59 -3 104.5 21.5t78 67t53 94t30.5 102.5l10 75q3 43 0 96.5t-18.5 102t-49 81t-91.5 34.5q-68 2 -114.5 -31.5t-75.5 -88.5t-45 -116.5t-22 -114.5zM837 1082h247l-126 -738q-1 -15 -3.5 -36t-1.5 -42t10.5 -36t32.5 -17q5 -1 10.5 0.5t10.5 2.5
l4 -213q-27 -13 -55 -18t-59 -4q-61 2 -106.5 27.5t-74.5 68.5t-43 96.5t-13 110.5l95 582z" />
    <glyph glyph-name="beta" unicode="&#x3b2;" horiz-adv-x="1197" 
d="M576 804l116 -1q116 -3 210 -45.5t146 -126.5t43 -209q-9 -135 -73 -235.5t-170 -155.5t-241 -52q-90 2 -165.5 32t-130.5 84.5t-83.5 129.5t-24.5 166l105 13q-4 -70 32.5 -114t95 -64.5t119.5 -20.5q67 -1 123 27t92 78t46 116q8 61 -6 110.5t-51.5 80t-102.5 33.5
l-101 1zM739 1477q118 -2 213.5 -46.5t149.5 -129.5t46 -211q-8 -122 -77.5 -205.5t-173.5 -126.5t-216 -43h-121l19 142l58 -1q65 1 112 28.5t74.5 76t35.5 111.5q5 48 -8.5 88.5t-46 66t-84.5 27.5q-62 2 -110 -28.5t-78 -81t-40 -107.5l-247 -1442h-281l246 1441
q19 133 94 233t188.5 155t246.5 53z" />
    <glyph glyph-name="gamma" unicode="&#x3b3;" horiz-adv-x="1013" 
d="M559 90l-88 -507h-282l88 507h282zM436 277l350 805h303l-545 -1082h-198zM389 1082l82 -839l-15 -243h-184l-169 1082h286z" />
    <glyph glyph-name="delta" unicode="&#x3b4;" horiz-adv-x="1120" 
d="M299 1244q5 117 69.5 190t162.5 107t202 33q68 -1 132 -15t128 -32l-22 -217q-52 21 -107 35.5t-113 13.5q-36 0 -76 -10t-71 -33t-40 -65q-6 -27 3.5 -48t28.5 -37t42 -28t43 -21q124 -55 212.5 -134t131.5 -187t29 -249l-2 -22q-14 -114 -60 -213.5t-120.5 -175
t-174 -117.5t-218.5 -39q-113 2 -198 44t-139.5 115t-78 167t-14.5 201l2 21q13 110 63 203.5t132.5 158t192.5 85.5l-1 14q-45 29 -77 67.5t-48 86t-14 101.5zM338 549l-2 -21q-5 -47 -4 -102t16.5 -105.5t51 -83.5t97.5 -35q67 -2 115.5 29t81.5 82t52 110.5t27 114.5
l2 20q5 46 -0.5 96.5t-23.5 96.5t-51 80t-84 47q-66 2 -115 -28t-83 -79.5t-53.5 -107.5t-26.5 -114z" />
    <glyph glyph-name="epsilon" unicode="&#x3b5;" horiz-adv-x="1107" 
d="M491 589l256 -1l-23 -129l-165 1q-48 0 -98.5 -12t-87.5 -42.5t-46 -87.5q-5 -35 8 -59.5t38 -39.5t55.5 -22.5t59.5 -7.5q45 -1 91 11.5t80.5 41.5t46.5 78l283 1q-7 -95 -53.5 -160.5t-118.5 -106t-156.5 -58.5t-167.5 -17q-72 2 -151.5 18.5t-149 53.5t-111.5 97.5
t-39 149.5q3 88 46 144.5t110 88.5t144.5 45t148.5 13zM734 516l-222 1q-57 2 -121.5 16.5t-120.5 45t-90.5 79.5t-33.5 120q2 96 50.5 159t125 99.5t163.5 51t164 13.5q76 -2 149 -22t132 -60t94 -101.5t36 -146.5l-278 1q0 44 -23 69.5t-59 36.5t-76 11q-42 0 -86.5 -13
t-78 -41.5t-41.5 -76.5q-5 -32 6.5 -53.5t34 -33.5t50 -17.5t52.5 -5.5l196 -1z" />
    <glyph glyph-name="zeta" unicode="&#x3b6;" horiz-adv-x="990" 
d="M900 1456h186l-30 -172l-416 -419q-63 -65 -121 -133t-99 -146t-55 -172q-6 -37 -2 -66.5t17 -52t36.5 -39t57.5 -30.5l69 -25q63 -22 121.5 -48.5t95 -72.5t32.5 -125q-4 -74 -46.5 -139t-102 -117.5t-117.5 -88.5l-140 115q24 24 48 51t43 57.5t25 64.5q6 27 -3.5 44
t-28 27.5t-42.5 18.5l-64 20q-68 21 -123 53t-94.5 76t-57.5 102.5t-11 133.5q11 122 63 229t128.5 201t158.5 178zM217 1456h744l-39 -223h-744z" />
    <glyph glyph-name="eta" unicode="&#x3b7;" horiz-adv-x="1120" 
d="M426 835l-145 -835h-281l188 1082h261zM329 577l-56 -3q10 96 44 191t92 172t141 122.5t193 43.5q89 -2 148.5 -36.5t92 -91.5t42.5 -129.5t2 -153.5l-187 -1108h-282l187 1109q5 37 2 69.5t-16 58t-38.5 40.5t-67.5 17q-67 3 -117.5 -22t-86.5 -68t-59 -98.5t-34 -112.5
z" />
    <glyph glyph-name="theta" unicode="&#x3b8;" horiz-adv-x="1174" 
d="M985 840l-38 -216h-703l38 216h703zM1106 849l-37 -238q-14 -95 -42 -187.5t-72.5 -173.5t-109 -142.5t-149.5 -96t-194 -31.5q-104 2 -177.5 40t-120 101t-70 143t-27.5 168.5t7 177.5l37 239q13 95 41.5 187t73.5 172.5t109 142t149.5 95t194.5 30.5q104 -2 177 -39.5
t119.5 -100.5t69.5 -142.5t27.5 -168t-6.5 -176.5zM784 572l47 319q4 34 8 80.5t1.5 94.5t-15.5 89.5t-43 68.5t-81 29q-71 4 -118.5 -31.5t-77 -92.5t-45 -121.5t-23.5 -118.5l-47 -318q-5 -34 -9 -80.5t-1.5 -96t15.5 -91.5t43 -69.5t82 -30.5q57 -3 98.5 20.5t70.5 64
t47.5 90t30 100.5t17.5 94z" />
    <glyph glyph-name="iota" unicode="&#x3b9;" horiz-adv-x="667" 
d="M215 1082h282l-129 -750q-4 -35 0.5 -59t22.5 -37.5t55 -15.5q22 0 43 2.5t42 4.5l-19 -214q-40 -12 -81 -18t-83 -5q-95 1 -157 41.5t-88.5 111t-17.5 163.5z" />
    <glyph glyph-name="kappa" unicode="&#x3ba;" horiz-adv-x="1174" 
d="M490 1082l-187 -1082h-281l187 1082h281zM1214 1082l-599 -677h-291l12 266h160l344 411h374zM682 0l-214 466l256 132l304 -598h-346z" />
    <glyph glyph-name="lambda" unicode="&#x3bb;" horiz-adv-x="1089" 
d="M551 691l-340 -691h-314l584 1110l199 -5zM423 1542q44 0 83 -11t70.5 -33t54.5 -54t36 -75l225 -1052q6 -23 14 -45.5t23 -39.5t41 -20q10 -1 19 -0.5t18 0.5l-19 -224q-25 -3 -49.5 -4t-49.5 0q-71 1 -124 27.5t-87.5 75.5t-51.5 118l-140 773l-61 248
q-8 27 -21.5 46.5t-34 30t-49.5 12.5q-16 1 -31.5 0t-31.5 -1l14 210q37 10 75.5 14.5t76.5 3.5z" />
    <glyph glyph-name="uni03BC" unicode="&#x3bc;" horiz-adv-x="1227" 
d="M875 1082h282l-188 -1082h-262l26 266zM804 504l106 4q-9 -89 -33.5 -182.5t-71 -173.5t-121.5 -128t-183 -45q-65 1 -123.5 28.5t-99.5 77t-50 117.5l16 259h146q-4 -43 -3 -87t12.5 -81.5t40.5 -61.5t83 -25q70 -2 119.5 21t82 65t52 97t27.5 115zM219 1082h281
l-260 -1498h-281z" />
    <glyph glyph-name="nu" unicode="&#x3bd;" horiz-adv-x="1005" 
d="M405 222l365 860h302l-524 -1082h-183zM378 1082l99 -887l-26 -195h-174l-186 1082h287z" />
    <glyph glyph-name="xi" unicode="&#x3be;" horiz-adv-x="1057" 
d="M1079 1428l-64 -219q-35 10 -70 19t-71 14.5t-73 5.5q-53 0 -106.5 -14t-93.5 -47.5t-49 -93.5q-7 -42 6.5 -70t40.5 -44.5t62 -23.5t70 -8l162 -1l-29 -161l-133 1q-72 1 -152.5 14t-151 46t-113.5 91.5t-39 150.5q5 101 49 174.5t116 122t160 71.5t179 22q53 0 103 -6
t99 -17.5t98 -26.5zM720 871l159 -1l-27 -156l-124 1q-88 0 -168 -26.5t-134.5 -85t-67.5 -154.5q-8 -64 14.5 -109.5t66.5 -75t101 -45.5l87 -24q64 -18 123 -45.5t95.5 -75t32.5 -124.5q-4 -73 -46.5 -137.5t-102.5 -117.5t-116 -89l-142 115q23 24 48 51t45 58t26 66
q5 24 -6 40.5t-29.5 27.5t-38.5 19l-57 19q-86 29 -159.5 63.5t-126.5 83t-79.5 119.5t-19.5 173q9 124 70.5 207.5t155.5 132t204 69.5t216 21z" />
    <glyph glyph-name="omicron" unicode="&#x3bf;" 
d="M53 524l3 21q12 115 55.5 216.5t116 179t171 121t221.5 40.5q117 -2 202 -47t139.5 -121t77 -174t12.5 -207l-2 -22q-13 -114 -57.5 -214.5t-117 -177t-171.5 -119.5t-220 -40q-115 2 -201 46.5t-140 120t-76 172.5t-13 205zM337 545l-2 -22q-5 -48 -3 -102.5
t17.5 -103.5t51.5 -80.5t99 -33.5q67 -2 115 27.5t79 79t49 108t24 114.5l2 21q4 48 2.5 103.5t-17.5 105t-52 82t-99 34.5q-67 2 -115 -28.5t-79 -80.5t-48.5 -109t-23.5 -115z" />
    <glyph glyph-name="pi" unicode="&#x3c0;" horiz-adv-x="1284" 
d="M1307 1082l-38 -213h-1171l37 213h1172zM590 1082l-188 -1082h-282l188 1082h282zM856 1082h282l-129 -750q-4 -35 0.5 -59t22.5 -37.5t55 -14.5q22 -1 43 1.5t43 4.5l-19 -214q-40 -12 -81 -18t-82 -6q-97 2 -158.5 42t-88 111t-18.5 164z" />
    <glyph glyph-name="rho" unicode="&#x3c1;" horiz-adv-x="1120" 
d="M-68 -416l170 994q16 109 60.5 205t115 169t165.5 113t213 37q118 -2 197.5 -52t124.5 -131t59.5 -180.5t4.5 -202.5l-3 -22q-12 -97 -45.5 -193.5t-92 -175t-142.5 -124t-197 -42.5q-102 3 -166 52.5t-98 128t-48.5 168t-16.5 171.5q14 -8 29 -16t30.5 -15t31.5 -14
q-3 -64 11.5 -120.5t54.5 -92.5t114 -38q64 -2 109.5 26t75.5 74.5t46 102t23 109.5l2 21q4 42 5.5 99.5t-9 112t-42.5 91.5t-94 40q-61 2 -104 -29.5t-70.5 -83t-43 -108t-23.5 -104.5l-165 -970h-282z" />
    <glyph glyph-name="sigma1" unicode="&#x3c2;" horiz-adv-x="1020" 
d="M612 1102q126 -2 213 -56.5t130.5 -148.5t39.5 -216h-264q3 49 -8.5 93t-42 73t-87.5 31q-65 3 -111.5 -27t-77 -79.5t-47.5 -107.5t-24 -111l-3 -29q-9 -75 6 -133.5t56.5 -101t114.5 -68.5q65 -24 125.5 -50.5t99 -72.5t35.5 -128q-2 -73 -44 -138t-101 -118t-116 -89
l-143 116q23 23 48.5 50t44.5 58t24 66q4 25 -4 42t-25 28t-38 19q-126 48 -211.5 114.5t-125 164.5t-26.5 241l3 29q13 113 56.5 213t116 176.5t169.5 119.5t217 40z" />
    <glyph glyph-name="sigma" unicode="&#x3c3;" horiz-adv-x="1136" 
d="M51 523l3 21q14 115 59 213.5t119 172.5t173 115t219 39q30 -24 51.5 -53t46 -56t62.5 -45q78 -37 133 -102.5t83 -147t22 -166.5l-3 -22q-10 -109 -54.5 -203.5t-116.5 -165t-167 -109t-209 -36.5q-116 2 -200.5 47t-137 121t-73 173t-10.5 204zM335 544l-3 -21
q-4 -48 -3.5 -102.5t15 -103.5t49.5 -80.5t99 -34.5q65 -2 110.5 29t75.5 81.5t46 108.5t22 111l2 21q5 44 4.5 96t-13.5 98.5t-45.5 77.5t-91.5 33q-64 2 -112 -25.5t-80 -74t-50.5 -102.5t-24.5 -112zM1200 1082l-40 -225h-559l40 225h559z" />
    <glyph glyph-name="tau" unicode="&#x3c4;" horiz-adv-x="1033" 
d="M1077 1082l-39 -223h-953l39 223h953zM447 1082h282l-129 -759q-3 -28 -1 -53t15.5 -41.5t46.5 -18.5q24 -1 48 4.5t48 11.5l8 -215q-41 -17 -83.5 -24t-88.5 -6q-102 3 -165.5 49t-89.5 123.5t-17 174.5z" />
    <glyph glyph-name="upsilon" unicode="&#x3c5;" horiz-adv-x="1083" 
d="M193 1082h281l-109 -670q-3 -26 -4 -60.5t5 -68t25 -56t57 -24.5q65 -4 114 33.5t82.5 96t53.5 123t27 114.5q19 127 16.5 258.5t-32.5 256.5l259 -2q27 -82 38 -168t9 -173t-12 -172q-15 -117 -56.5 -224.5t-112 -191.5t-170 -131.5t-229.5 -44.5q-97 2 -168 35.5
t-115.5 92.5t-62 138t-7.5 173z" />
    <glyph glyph-name="phi" unicode="&#x3c6;" horiz-adv-x="1482" 
d="M406 -478l217 1286q10 85 55.5 151t116.5 103t157 36q112 -2 201.5 -44t151 -115t89 -169t16.5 -205q-16 -150 -83 -261t-171.5 -184t-234 -108t-270.5 -34q-141 2 -258.5 42t-199.5 117t-119.5 189.5t-20.5 259.5q12 102 49 195t97 173t141 142l183 -154
q-46 -49 -84.5 -106t-65 -120t-36.5 -131q-16 -90 -1 -160t57.5 -118.5t110.5 -75t159 -28.5q117 -1 217.5 38.5t166.5 120.5t81 204q6 46 3.5 97t-18 96.5t-49 76t-89.5 36.5q-27 -9 -42 -17.5t-22 -38.5l-224 -1294h-281z" />
    <glyph glyph-name="chi" unicode="&#x3c7;" horiz-adv-x="1061" 
d="M1146 1082l-977 -1498h-292l969 1498h300zM239 1096q65 -2 112 -23t80.5 -57.5t57 -85.5t39.5 -104l234 -899q7 -25 17.5 -50.5t27 -45.5t45.5 -27q15 -4 31.5 -4h32.5l-43 -223q-32 -5 -64.5 -7t-64.5 2q-58 7 -98.5 39.5t-67 80.5t-43.5 101.5t-30 102.5l-217 855
q-10 34 -29 60t-47 41t-64 15q-17 1 -34 -0.5t-34 -3.5l13 214q37 8 73 14t73 5z" />
    <glyph glyph-name="psi" unicode="&#x3c8;" horiz-adv-x="1480" 
d="M150 1082h283l-83 -497q-11 -85 2 -154.5t50 -119.5t99.5 -78t152.5 -30q96 -1 178 24.5t145 76.5t104 125t56 171q18 120 10.5 244t-40.5 241l250 -2q33 -76 49 -156.5t18 -163t-8 -164.5q-19 -152 -84 -269t-167.5 -196t-233.5 -118.5t-281 -37.5q-142 2 -257 41.5
t-194 117t-114 191t-17 262.5zM674 1082h282l-271 -1558h-281z" />
    <glyph glyph-name="omega" unicode="&#x3c9;" horiz-adv-x="1631" 
d="M1221 1085l256 -3q38 -79 56.5 -164.5t21.5 -173t-8 -174.5q-12 -107 -45 -213.5t-91.5 -193.5t-148.5 -137.5t-216 -46.5q-106 2 -170.5 54t-96 132.5t-38 173t4.5 176.5l52 324h210l-55 -349q-4 -32 -6 -79t5 -94t31 -79t74 -34q60 -2 99 38t62.5 100.5t35 122.5
t16.5 105q17 129 7 260.5t-56 254.5zM296 1081h277q-65 -125 -128.5 -253t-85.5 -270q-4 -25 -8.5 -67.5t-5 -91t8.5 -92t31.5 -73t63.5 -31.5q55 -4 92.5 24.5t60.5 74.5t35.5 97t17.5 91l56 349h209l-53 -324q-14 -92 -44 -187.5t-82 -175.5t-131 -128t-190 -45
q-97 2 -163.5 37t-107 93.5t-60.5 132.5t-22.5 155.5t7.5 160.5q12 97 42 187.5t75.5 174.5t104.5 161z" />
    <glyph glyph-name="iotadieresis" unicode="&#x3ca;" horiz-adv-x="667" 
d="M215 1082h282l-129 -750q-4 -35 0.5 -59t22.5 -37.5t55 -15.5q22 0 43 2.5t42 4.5l-19 -214q-40 -12 -81 -18t-83 -5q-95 1 -157 41.5t-88.5 111t-17.5 163.5zM40 1342q-1 54 39 91t93 38t94 -33.5t42 -89.5t-38.5 -91t-93.5 -37q-52 -1 -93 33t-43 89zM517 1341
q-2 55 37.5 91.5t93.5 37.5q53 1 94 -33t42 -89q2 -55 -38 -91t-94 -37q-52 -1 -93 32.5t-42 88.5z" />
    <glyph glyph-name="upsilondieresis" unicode="&#x3cb;" horiz-adv-x="1083" 
d="M193 1082h281l-109 -670q-3 -26 -4 -60.5t5 -68t25 -56t57 -24.5q65 -4 114 33.5t82.5 96t53.5 123t27 114.5q19 127 16.5 258.5t-32.5 256.5l259 -2q27 -82 38 -168t9 -173t-12 -172q-15 -117 -56.5 -224.5t-112 -191.5t-170 -131.5t-229.5 -44.5q-97 2 -168 35.5
t-115.5 92.5t-62 138t-7.5 173zM305 1357q-1 54 39 91t93 38t94 -33.5t42 -89.5t-38.5 -91t-93.5 -37q-52 -1 -93 33t-43 89zM782 1356q-2 55 37.5 91.5t93.5 37.5q53 1 94 -33t42 -89q2 -55 -38 -91t-94 -37q-52 -1 -93 32.5t-42 88.5z" />
    <glyph glyph-name="omicrontonos" unicode="&#x3cc;" 
d="M53 524l3 21q12 115 55.5 216.5t116 179t171 121t221.5 40.5q117 -2 202 -47t139.5 -121t77 -174t12.5 -207l-2 -22q-13 -114 -57.5 -214.5t-117 -177t-171.5 -119.5t-220 -40q-115 2 -201 46.5t-140 120t-76 172.5t-13 205zM337 545l-2 -22q-5 -48 -3 -102.5
t17.5 -103.5t51.5 -80.5t99 -33.5q67 -2 115 27.5t79 79t49 108t24 114.5l2 21q4 48 2.5 103.5t-17.5 105t-52 82t-99 34.5q-67 2 -115 -28.5t-79 -80.5t-48.5 -109t-23.5 -115zM555 1256l132 343h266l-220 -343h-178z" />
    <glyph glyph-name="upsilontonos" unicode="&#x3cd;" horiz-adv-x="1083" 
d="M193 1082h281l-109 -670q-3 -26 -4 -60.5t5 -68t25 -56t57 -24.5q65 -4 114 33.5t82.5 96t53.5 123t27 114.5q19 127 16.5 258.5t-32.5 256.5l259 -2q27 -82 38 -168t9 -173t-12 -172q-15 -117 -56.5 -224.5t-112 -191.5t-170 -131.5t-229.5 -44.5q-97 2 -168 35.5
t-115.5 92.5t-62 138t-7.5 173zM555 1249l132 343h266l-220 -343h-178z" />
    <glyph glyph-name="omegatonos" unicode="&#x3ce;" horiz-adv-x="1631" 
d="M1221 1085l256 -3q38 -79 56.5 -164.5t21.5 -173t-8 -174.5q-12 -107 -45 -213.5t-91.5 -193.5t-148.5 -137.5t-216 -46.5q-106 2 -170.5 54t-96 132.5t-38 173t4.5 176.5l52 324h210l-55 -349q-4 -32 -6 -79t5 -94t31 -79t74 -34q60 -2 99 38t62.5 100.5t35 122.5
t16.5 105q17 129 7 260.5t-56 254.5zM296 1081h277q-65 -125 -128.5 -253t-85.5 -270q-4 -25 -8.5 -67.5t-5 -91t8.5 -92t31.5 -73t63.5 -31.5q55 -4 92.5 24.5t60.5 74.5t35.5 97t17.5 91l56 349h209l-53 -324q-14 -92 -44 -187.5t-82 -175.5t-131 -128t-190 -45
q-97 2 -163.5 37t-107 93.5t-60.5 132.5t-22.5 155.5t7.5 160.5q12 97 42 187.5t75.5 174.5t104.5 161zM822 1248l132 343h266l-220 -343h-178z" />
    <glyph glyph-name="theta1" unicode="&#x3d1;" horiz-adv-x="1183" 
d="M1195 819l-10 -237q-63 -19 -127.5 -31.5t-129.5 -11.5q-151 2 -271.5 66.5t-187.5 180t-57 270.5l2 24q11 113 66 204.5t146 144t210 48.5q88 -2 150 -37t99.5 -93.5t51.5 -132.5t5 -155l-97 -603q-20 -142 -94 -250.5t-190 -169t-263 -56.5q-99 2 -179 39.5
t-134.5 102.5t-79 150.5t-12.5 183.5l40 252l267 1l-40 -254q-8 -62 8 -116.5t56.5 -89.5t109.5 -36q68 -2 112 34.5t69 93.5t34 115l101 632q2 21 3 44t-3 44t-16.5 36t-37.5 19q-38 -3 -62 -22.5t-37 -50t-18 -65.5l-2 -24q-7 -88 23 -150t91.5 -95.5t148.5 -35.5
q64 -1 128 9t127 22z" />
    <glyph glyph-name="Upsilon1" unicode="&#x3d2;" horiz-adv-x="1180" 
d="M754 701l-122 -701h-293l121 701h294zM594 729l273 513q34 70 80 125.5t108 87t145 29.5q39 0 77 -8.5t76 -19.5l-61 -220l-28 4t-28 2q-27 -1 -48 -11t-38.5 -27t-31.5 -39l-409 -697l-194 1zM520 1247l111 -552l-14 -226l-180 -1l-167 698q-6 20 -17 35.5t-27 24
t-38 10.5q-15 0 -29.5 -1.5t-29.5 -3.5l-14 227q33 10 66.5 16t68.5 6q74 -1 127.5 -30.5t89 -81.5t53.5 -121z" />
    <glyph glyph-name="omega1" unicode="&#x3d6;" horiz-adv-x="1647" 
d="M1726 1082l-36 -199h-1626l35 199h1627zM1235 1085l254 -3q39 -79 58 -164.5t21.5 -173.5t-8.5 -174q-9 -84 -31.5 -170t-60 -163t-93 -136t-132 -92.5t-176.5 -30.5q-108 3 -174.5 53.5t-100.5 130.5t-42 173t3 180l29 181h209l-32 -206q-4 -36 -5 -84t8.5 -94
t36.5 -76.5t79 -31.5q48 -1 81.5 25t55.5 69.5t36 94t21 97t12 80.5q17 130 6.5 261t-55.5 254zM296 1081h277q-64 -125 -127.5 -253t-85.5 -270q-4 -23 -9 -65.5t-6 -90.5t6.5 -92.5t28.5 -74t61 -31.5q57 -5 96.5 22t65 72.5t39.5 97t20 94.5l31 206h209l-28 -181
q-14 -95 -46 -191t-86.5 -175.5t-136 -126.5t-193.5 -44q-96 3 -161 38.5t-104.5 94.5t-58.5 133.5t-21 155t7 158.5q12 97 42 187.5t75.5 174.5t104.5 161z" />
    <glyph glyph-name="uni0400" unicode="&#x400;" horiz-adv-x="1117" 
d="M1012 234l-41 -234h-753l40 234h754zM567 1456l-253 -1456h-293l252 1456h294zM1023 863l-40 -228h-655l40 228h655zM1222 1456l-41 -235h-752l42 235h751zM768 1850l143 -308l-212 1l-221 306z" />
    <glyph glyph-name="uni0401" unicode="&#x401;" horiz-adv-x="1117" 
d="M1012 234l-41 -234h-753l40 234h754zM567 1456l-253 -1456h-293l252 1456h294zM1023 863l-40 -228h-655l40 228h655zM1222 1456l-41 -235h-752l42 235h751zM429 1678q-1 54 39 91t93 38t94 -33.5t42 -89.5t-38.5 -91t-93.5 -37q-52 -1 -93 33t-43 89zM906 1677
q-2 55 37.5 91.5t93.5 37.5q53 1 94 -33t42 -89q2 -55 -38 -91t-94 -37q-52 -1 -93 32.5t-42 88.5z" />
    <glyph glyph-name="uni0402" unicode="&#x402;" horiz-adv-x="1485" 
d="M555 599l20 233q58 18 119 32.5t123 22t123 7.5q137 -2 247 -52t169.5 -148t47.5 -246q-11 -124 -65 -212t-139 -143.5t-190.5 -83t-217.5 -29.5l22 222q57 2 107 16t89.5 42t65 71t33.5 103q9 69 -12 118t-68 76t-115 29q-62 2 -122 -5.5t-119.5 -21.5t-117.5 -31z
M820 1456l-252 -1456h-293l253 1456h292zM1280 1456l-41 -235h-1103l40 235h1104z" />
    <glyph glyph-name="uni0403" unicode="&#x403;" horiz-adv-x="1107" 
d="M1203 1456l-41 -235h-636l-212 -1221h-291l252 1456h928zM618 1542l239 308h323l-315 -308h-247z" />
    <glyph glyph-name="uni0404" unicode="&#x404;" horiz-adv-x="1307" 
d="M853 847l-42 -234h-576l42 234h576zM917 482l288 3q-20 -161 -109.5 -275.5t-224 -174t-292.5 -56.5q-147 3 -247 62.5t-157 159.5t-75 223t-2 253l15 98q20 138 73 264.5t139.5 226.5t206 156.5t271.5 53.5q158 -2 267.5 -67t169 -179.5t66.5 -267.5l-291 1
q0 82 -20 143.5t-70 97t-138 38.5q-96 4 -163.5 -37.5t-112 -111.5t-69.5 -153t-37 -162l-14 -102q-7 -53 -10.5 -115t3 -122.5t28.5 -111t66 -82t117 -33.5q90 -4 156 28.5t107.5 94.5t58.5 147z" />
    <glyph glyph-name="uni0405" unicode="&#x405;" horiz-adv-x="1223" 
d="M824 388q9 53 -8.5 89.5t-52 62t-77 43.5t-84.5 33q-77 30 -151.5 68t-135.5 90.5t-95 123t-28 165.5q7 108 61 187t137.5 129.5t182 74.5t193.5 22q136 -2 242 -56.5t166.5 -154t56.5 -238.5h-290q4 66 -16.5 114.5t-65 75.5t-113.5 28q-59 1 -115.5 -18.5t-97 -60
t-50.5 -104.5q-8 -47 13.5 -81t59 -58t80 -40.5t76.5 -29.5q81 -29 156.5 -69t133.5 -94.5t89 -128t25 -170.5q-9 -111 -60 -189.5t-132 -128t-177 -72.5t-195 -22q-108 2 -203 34t-166 92.5t-109.5 149t-35.5 202.5l293 -1q-4 -61 9.5 -106.5t44 -76.5t76 -47t106.5 -16
q59 0 114 18t94 57.5t49 102.5z" />
    <glyph glyph-name="uni0406" unicode="&#x406;" horiz-adv-x="581" 
d="M585 1456l-252 -1456h-293l253 1456h292z" />
    <glyph glyph-name="uni0407" unicode="&#x407;" horiz-adv-x="581" 
d="M585 1456l-252 -1456h-293l253 1456h292zM102 1678q-1 54 39 91t93 38t94 -33.5t42 -89.5t-38.5 -91t-93.5 -37q-52 -1 -93 33t-43 89zM579 1677q-2 55 37.5 91.5t93.5 37.5q53 1 94 -33t42 -89q2 -55 -38 -91t-94 -37q-52 -1 -93 32.5t-42 88.5z" />
    <glyph glyph-name="uni0408" unicode="&#x408;" horiz-adv-x="1110" 
d="M673 446l172 1010h292l-171 -1009q-19 -140 -92.5 -246.5t-188.5 -165t-257 -56.5q-139 3 -235 57.5t-144 154.5t-42 238l294 -1q-4 -56 6 -104.5t42.5 -79t97.5 -31.5q68 -2 115 31.5t74.5 87.5t36.5 114z" />
    <glyph glyph-name="uni0409" unicode="&#x409;" horiz-adv-x="2098" 
d="M477 1456h293l-163 -731q-21 -103 -47.5 -207t-67 -197t-102 -165t-151 -114t-215.5 -42h-87l33 233l33 2q80 7 135 49t90 106.5t56.5 140t35 150t24.5 135.5zM1215 1456l-41 -235h-701l41 235h701zM1233 955l313 -1q137 -3 248.5 -59.5t173.5 -160t50 -248.5
q-10 -119 -63 -210t-137.5 -153t-188.5 -93t-215 -30h-537l253 1456h293l-212 -1222l212 -2q77 1 142 32.5t107.5 88.5t54.5 136q9 65 -11.5 116.5t-65.5 81.5t-112 33l-346 1z" />
    <glyph glyph-name="uni040A" unicode="&#x40a;" horiz-adv-x="2102" 
d="M1113 840l-42 -234h-739l41 234h740zM567 1456l-252 -1456h-292l252 1456h292zM1235 944l313 -1q135 -3 247 -57.5t174 -156.5t50 -247q-9 -119 -62 -209.5t-137.5 -151.5t-188.5 -91.5t-215 -29.5h-535l252 1456h292l-212 -1221l213 -2q76 1 140.5 31.5t108 86.5
t54.5 133q9 66 -12.5 115.5t-67 78t-110.5 31.5l-345 1z" />
    <glyph glyph-name="uni040B" unicode="&#x40b;" horiz-adv-x="1528" 
d="M1314 1h-292l74 449q11 81 -6.5 134.5t-66.5 80t-131 28.5q-44 1 -88 -1.5t-88 -8.5t-86.5 -15t-84.5 -22l22 237q40 13 81.5 22t84.5 13.5t86.5 6.5t84.5 1q149 -1 265 -53.5t176.5 -158t41.5 -266.5zM805 1456l-252 -1456h-293l253 1456h292zM1258 1456l-41 -235h-1080
l41 235h1080z" />
    <glyph glyph-name="uni040C" unicode="&#x40c;" horiz-adv-x="1263" 
d="M567 1456l-253 -1456h-293l252 1456h294zM1423 1456l-690 -725l-390 -360l-2 306l267 302l436 477h379zM836 0l-304 684l236 177l400 -861h-332zM600 1536l239 308h323l-315 -308h-247z" />
    <glyph glyph-name="uni040D" unicode="&#x40d;" horiz-adv-x="1389" 
d="M387 489l727 967h301l-253 -1456h-293l169 967l-727 -967h-301l253 1456h293zM845 1850l143 -308l-212 1l-221 306z" />
    <glyph glyph-name="uni040E" unicode="&#x40e;" horiz-adv-x="1254" 
d="M556 538l503 918h326l-684 -1175q-36 -65 -78.5 -121t-94 -97.5t-115.5 -64t-144 -23.5l-56 2t-56 3l21 237q17 -3 35 -5t36 -2q52 0 90.5 16.5t67 48.5t50.5 77zM483 1456l201 -734l31 -318l-208 -4l-325 1056h301zM993 1838l198 1q-5 -96 -54.5 -163t-128.5 -100.5
t-172 -31.5q-135 2 -225 79t-91 217l198 -2q-1 -60 26.5 -97t92.5 -38t105 36t51 99z" />
    <glyph glyph-name="uni040F" unicode="&#x40f;" horiz-adv-x="1389" 
d="M7 0l252 1456h293l-212 -1222h566l212 1222h293l-252 -1456h-1152zM783 228l-103 -588h-293l102 588h294z" />
    <glyph glyph-name="uni0410" unicode="&#x410;" horiz-adv-x="1335" 
d="M804 1192l-586 -1192h-322l778 1456h206zM920 0l-178 1223l11 233h193l275 -1456h-301zM994 542l-41 -235h-749l41 235h749z" />
    <glyph glyph-name="uni0411" unicode="&#x411;" horiz-adv-x="1255" 
d="M1199 1456l-40 -235h-636l-212 -1221h-292l252 1456h928zM370 925l314 -1q135 -3 247 -54t175.5 -149.5t52.5 -244.5q-10 -119 -63 -208.5t-137 -149.5t-187.5 -89.5t-214.5 -28.5h-537l252 1456h294l-212 -1222l212 -1q76 0 140.5 29t107 83.5t53.5 132.5
q9 66 -12.5 112.5t-68 72t-110.5 27.5l-346 1z" />
    <glyph glyph-name="uni0412" unicode="&#x412;" horiz-adv-x="1268" 
d="M698 639h-376l35 206l290 -1q66 0 126.5 18.5t102 61t52.5 114.5q9 68 -12 107t-66.5 56.5t-107.5 18.5l-216 1l-212 -1221h-293l252 1456l478 -1q94 -1 182 -22t156 -66t105.5 -119t30.5 -182q-7 -118 -68 -193.5t-155.5 -113.5t-202.5 -44zM579 0h-454l154 234l309 -1
q66 0 123.5 22.5t96.5 67.5t49 115q9 59 -5 103.5t-51.5 69t-99.5 27.5l-296 1l37 206l340 -1l50 -80q98 -5 170.5 -44.5t110.5 -111.5t31 -173q-10 -156 -91 -252t-206.5 -140t-267.5 -43z" />
    <glyph glyph-name="uni0413" unicode="&#x413;" horiz-adv-x="1107" 
d="M1203 1456l-41 -235h-636l-212 -1221h-291l252 1456h928z" />
    <glyph glyph-name="uni0414" unicode="&#x414;" horiz-adv-x="1480" 
d="M1184 234l-41 -234h-1018l41 234h1018zM253 234l-103 -591h-274l86 591h291zM1395 234l-128 -592h-270l104 592h294zM1236 1456l-41 -235h-681l41 235h681zM1443 1456l-252 -1456h-292l253 1456h291zM518 1456h295l-142 -592q-21 -89 -46.5 -174t-59 -164.5t-75.5 -153
t-93.5 -140t-114.5 -125t-139 -107.5h-183l34 234l63 -2q77 52 130 124.5t89 156.5t59.5 173.5t42.5 176.5z" />
    <glyph glyph-name="uni0415" unicode="&#x415;" horiz-adv-x="1117" 
d="M1012 234l-41 -234h-753l40 234h754zM567 1456l-253 -1456h-293l252 1456h294zM1023 863l-40 -228h-655l40 228h655zM1222 1456l-41 -235h-752l42 235h751z" />
    <glyph glyph-name="uni0416" unicode="&#x416;" horiz-adv-x="1985" 
d="M584 600l-394 855l350 1l215 -590h255l-84 -266h-342zM723 635l-440 -635h-380l604 818zM1300 1456l-252 -1456h-292l253 1456h291zM2121 1456l-679 -856h-354l9 266h234l411 590h379zM1524 0l-218 657l255 166l315 -823h-352z" />
    <glyph glyph-name="uni0417" unicode="&#x417;" horiz-adv-x="1227" 
d="M687 697l-237 1l29 159l159 -1q68 0 124.5 22.5t93.5 69t46 117.5q8 60 -17.5 99.5t-72 59t-101.5 20.5q-59 1 -110.5 -19t-88 -61t-47.5 -100l-292 -2q7 106 58 184t130 129.5t174.5 76.5t191.5 24q94 -2 181.5 -25.5t155.5 -72.5t105 -125.5t30 -183.5
q-7 -96 -55 -166.5t-122.5 -116t-162 -67.5t-172.5 -22zM466 785l204 -1q86 -2 167 -22.5t143.5 -64t96.5 -113.5t28 -169q-8 -115 -63 -198.5t-141.5 -136t-189.5 -77t-205 -23.5q-98 2 -185 29t-154 80t-104.5 132.5t-34.5 183.5h290q-1 -61 25.5 -103t72.5 -64t104 -24
q66 -1 129.5 21t109.5 68t56 116q8 52 -1.5 90.5t-34 64t-62 39t-87.5 15.5l-191 1z" />
    <glyph glyph-name="uni0418" unicode="&#x418;" horiz-adv-x="1389" 
d="M387 489l727 967h301l-253 -1456h-293l169 967l-727 -967h-301l253 1456h293z" />
    <glyph glyph-name="uni0419" unicode="&#x419;" horiz-adv-x="1389" 
d="M387 489l727 967h301l-253 -1456h-293l169 967l-727 -967h-301l253 1456h293zM1035 1838l198 1q-5 -96 -54.5 -163t-128.5 -100.5t-172 -31.5q-135 2 -225 79t-91 217l198 -2q-1 -60 26.5 -97t92.5 -38t105 36t51 99z" />
    <glyph glyph-name="uni041A" unicode="&#x41a;" horiz-adv-x="1283" 
d="M567 1456l-252 -1456h-292l252 1456h292zM1408 1456l-689 -855h-364l10 267h227l445 588h371zM854 0l-288 664l229 203l393 -867h-334z" />
    <glyph glyph-name="uni041B" unicode="&#x41b;" horiz-adv-x="1403" 
d="M1218 1456l-42 -235h-704l41 235h705zM1425 1456l-252 -1456h-293l252 1456h293zM476 1456h294l-163 -731q-22 -101 -48.5 -205.5t-67 -198.5t-102 -167.5t-151.5 -115t-215 -38.5h-87l33 234l33 2q81 7 135.5 49t90 106t57 139.5t34.5 150t25 135.5z" />
    <glyph glyph-name="uni041C" unicode="&#x41c;" horiz-adv-x="1739" 
d="M412 1456h238l177 -1066l547 1066h258l-762 -1456h-200zM273 1456h248l-137 -1055l-71 -401h-292zM1512 1456h249l-252 -1456h-294l75 426z" />
    <glyph glyph-name="uni041D" unicode="&#x41d;" horiz-adv-x="1403" 
d="M1115 863l-41 -234h-739l41 234h739zM567 1456l-253 -1456h-293l252 1456h294zM1425 1456l-253 -1456h-291l252 1456h292z" />
    <glyph glyph-name="uni041E" unicode="&#x41e;" horiz-adv-x="1370" 
d="M1313 767l-8 -70q-20 -140 -75 -270t-144 -231.5t-211.5 -160t-277.5 -55.5q-148 3 -250.5 64.5t-162 163.5t-79.5 227.5t-4 257.5l8 69q20 140 75.5 269t145 230.5t212 159.5t275.5 55q148 -2 250.5 -63.5t162 -163t79.5 -227t4 -255.5zM1009 693l9 72q8 68 8.5 147.5
t-18.5 153t-67.5 121t-139.5 51.5q-98 3 -167.5 -39t-116 -113.5t-73.5 -156t-38 -165.5l-9 -72q-9 -67 -9.5 -147.5t18.5 -154t68 -121.5t140 -52q97 -3 166.5 40t116.5 114.5t74 156t38 165.5z" />
    <glyph glyph-name="uni041F" unicode="&#x41f;" horiz-adv-x="1405" 
d="M1427 1456l-253 -1456h-292l211 1221h-566l-212 -1221h-292l252 1456h1152z" />
    <glyph glyph-name="uni0420" unicode="&#x420;" horiz-adv-x="1281" 
d="M678 518l-377 1l41 234l346 -1q74 0 136 26.5t102 77.5t51 128q10 65 -7 117.5t-60 84t-111 34.5l-273 1l-212 -1221h-293l252 1456l535 -1q139 -3 248 -59.5t168.5 -160t47.5 -249.5q-13 -159 -99 -263t-216.5 -154.5t-278.5 -50.5z" />
    <glyph glyph-name="uni0421" unicode="&#x421;" horiz-adv-x="1300" 
d="M918 482l286 4q-19 -161 -108.5 -275.5t-224.5 -174t-293 -56.5q-146 3 -246 62.5t-157 159.5t-75 223t-2 252l14 101q20 136 73.5 263t140.5 226t206 156t270 54q158 -3 267.5 -67.5t169 -179t66.5 -267.5l-291 1q1 81 -19.5 142.5t-70.5 96t-138 37.5q-96 3 -163 -37.5
t-110.5 -110t-68 -151.5t-36.5 -161l-14 -104q-8 -65 -11 -143.5t13 -149.5t62 -117.5t137 -49.5q90 -3 155.5 28t107 92t60.5 146z" />
    <glyph glyph-name="uni0422" unicode="&#x422;" horiz-adv-x="1231" 
d="M907 1456l-252 -1456h-293l253 1456h292zM1341 1456l-41 -235h-1153l41 235h1153z" />
    <glyph glyph-name="uni0423" unicode="&#x423;" horiz-adv-x="1254" 
d="M556 538l503 918h326l-684 -1175q-36 -65 -78.5 -121t-94 -97.5t-115.5 -64t-144 -23.5l-56 2t-56 3l21 237q17 -3 35 -5t36 -2q52 0 90.5 16.5t67 48.5t50.5 77zM483 1456l201 -734l31 -318l-208 -4l-325 1056h301z" />
    <glyph glyph-name="uni0424" unicode="&#x424;" horiz-adv-x="1623" 
d="M768 1326l314 -2q125 -3 223 -50t163.5 -128.5t94.5 -188t16 -228.5q-13 -132 -69.5 -242.5t-147.5 -190.5t-207 -124.5t-248 -44.5l-314 2q-126 2 -223.5 47t-164 124t-96.5 184t-17 228q13 133 69.5 245.5t147.5 195t208 128t251 45.5zM757 1087q-111 0 -193.5 -50
t-132 -135t-63.5 -192q-8 -64 0.5 -124.5t36 -108t76.5 -76.5t122 -32l316 -3q108 0 189.5 48t131 130t63.5 186q8 64 1 126t-33.5 112.5t-74.5 81.5t-122 34zM1115 1516l-273 -1576h-282l273 1576h282z" />
    <glyph glyph-name="uni0425" unicode="&#x425;" horiz-adv-x="1261" 
d="M493 1456l186 -506l345 506h348l-533 -735l302 -721h-324l-192 516l-353 -516h-353l547 747l-295 709h322z" />
    <glyph glyph-name="uni0426" unicode="&#x426;" horiz-adv-x="1507" 
d="M1394 233l-120 -584h-275l62 351h-116l41 233h408zM7 0l252 1456h293l-212 -1222h566l212 1222h293l-252 -1456h-1152z" />
    <glyph glyph-name="uni0427" unicode="&#x427;" horiz-adv-x="1379" 
d="M283 1456h293l-74 -449q-10 -81 8 -134.5t66.5 -80t130.5 -28.5q43 -1 86.5 1.5t87.5 8.5t86.5 15t84.5 21l-23 -237q-40 -13 -81.5 -22t-85 -14t-86.5 -7t-84 -1q-149 2 -265 54.5t-176.5 158.5t-41.5 267zM1110 1456h293l-253 -1456h-293z" />
    <glyph glyph-name="uni0428" unicode="&#x428;" horiz-adv-x="1904" 
d="M271 1456h293l-212 -1222h393l212 1222h293l-213 -1222h389l212 1222h292l-253 -1456h-1659z" />
    <glyph glyph-name="uni0429" unicode="&#x429;" horiz-adv-x="2029" 
d="M1904 224l-118 -574h-263l61 351h-118l39 223h399zM271 1456h293l-212 -1222h393l212 1222h293l-213 -1222h389l212 1222h292l-253 -1456h-1659z" />
    <glyph glyph-name="uni042A" unicode="&#x42a;" horiz-adv-x="1534" 
d="M132 1231l40 225h507l-39 -225h-508zM662 925l313 -1q134 -3 246.5 -53.5t176.5 -149.5t52 -245q-9 -119 -62.5 -208.5t-138 -149.5t-188 -89.5t-213.5 -28.5h-537l252 1456h293l-211 -1222l212 -2q75 1 139.5 30t107 83.5t53.5 132.5q10 66 -12 112.5t-68 72t-110 27.5
l-347 1z" />
    <glyph glyph-name="uni042B" unicode="&#x42b;" horiz-adv-x="1737" 
d="M374 925l314 -1q134 -3 246 -54t176 -149.5t53 -244.5q-10 -119 -63 -208.5t-137.5 -149.5t-188 -89.5t-214.5 -28.5h-537l253 1456h293l-212 -1222l213 -1q75 0 139.5 29t107.5 83.5t54 132.5q9 66 -13 112.5t-68.5 72t-110.5 27.5l-346 1zM1749 1456l-252 -1456h-292
l252 1456h292z" />
    <glyph glyph-name="uni042C" unicode="&#x42c;" horiz-adv-x="1241" 
d="M370 925l314 -1q135 -3 247 -54t175.5 -149.5t52.5 -244.5q-10 -119 -63 -208.5t-137 -149.5t-187.5 -89.5t-214.5 -28.5h-537l252 1456h294l-212 -1222l212 -1q76 0 140.5 29t107 83.5t53.5 132.5q9 66 -12.5 112.5t-68 72t-110.5 27.5l-346 1z" />
    <glyph glyph-name="uni042D" unicode="&#x42d;" horiz-adv-x="1289" 
d="M1118 845l-41 -235h-603l42 235h602zM33 484h290q0 -81 22 -141t72.5 -94.5t136.5 -37.5q98 -3 165 38.5t110.5 111t68 153t35.5 163.5l14 102q7 52 10 113.5t-4 122.5t-29.5 111.5t-66.5 82t-115 34.5q-94 3 -160.5 -30.5t-107 -97.5t-57.5 -151l-291 -1q25 160 114 276
t223 178t294 60q146 -3 246 -64t157.5 -161.5t76 -224t2.5 -251.5l-15 -99q-19 -137 -72 -264t-138.5 -225.5t-204.5 -155t-271 -53.5q-154 3 -266 65t-174 174.5t-65 265.5z" />
    <glyph glyph-name="uni042E" unicode="&#x42e;" horiz-adv-x="1891" 
d="M578 1456l-253 -1456h-292l253 1456h292zM730 811l-28 -225h-387l28 225h387zM1818 767l-10 -70q-19 -140 -74 -270t-144 -231.5t-211.5 -160t-276.5 -55.5q-149 3 -251 64.5t-162 163.5t-80.5 227.5t-4.5 257.5l10 69q20 140 75.5 269t145 230.5t212 159.5t275.5 55
q148 -2 250 -63.5t161.5 -163t80 -227t4.5 -255.5zM1513 693l10 72q8 68 8.5 147.5t-18.5 153t-68 121t-140 51.5q-97 3 -167 -39t-116.5 -113.5t-73 -156t-37.5 -165.5l-10 -72q-8 -67 -9 -147.5t18 -154t68 -121.5t140 -52q97 -3 167 40t116.5 114.5t73.5 156t38 165.5z
" />
    <glyph glyph-name="uni042F" unicode="&#x42f;" horiz-adv-x="1178" 
d="M865 529h-369l-91 43q-142 60 -217.5 163.5t-62.5 264.5q12 159 95.5 259.5t211.5 149t276 48.5l509 -1l-252 -1456h-294l212 1221l-185 2q-118 -1 -194 -63.5t-91 -180.5q-9 -67 5.5 -117.5t55 -79.5t110.5 -32l319 -1zM614 650l-427 -650h-331l427 650h331z" />
    <glyph glyph-name="uni0430" unicode="&#x430;" horiz-adv-x="1063" 
d="M616 244l76 485q5 44 -4 82t-36.5 60.5t-77.5 24.5q-45 1 -80.5 -15.5t-58.5 -47t-32 -72.5l-282 -2q5 90 50.5 155.5t115.5 107.5t152.5 62t161.5 18q113 -2 201.5 -47t136 -128.5t35.5 -202.5l-75 -464q-9 -58 -14 -121.5t18 -120.5l-2 -18l-276 -1q-18 59 -18 121.5
t9 123.5zM724 659l-27 -163l-143 1q-43 -1 -85.5 -11.5t-78.5 -32t-59.5 -55.5t-29.5 -83q-5 -35 7 -62.5t37.5 -43.5t61.5 -17q51 -1 100 19.5t85 58.5t50 88l60 -125q-24 -56 -60.5 -103t-83.5 -81.5t-103 -53t-120 -17.5q-89 2 -163.5 42.5t-118 111t-39.5 164.5
q4 106 53 176.5t126.5 111.5t169 58.5t181.5 17.5z" />
    <glyph glyph-name="uni0431" unicode="&#x431;" horiz-adv-x="1132" 
d="M894 1558l224 1q-4 -93 -36.5 -154.5t-87.5 -100t-127.5 -61t-154.5 -37.5q-113 -21 -186.5 -75.5t-118.5 -134t-68 -174t-32 -196.5l-6 -48l-221 -32l5 49q12 136 50.5 270t107.5 249.5t174.5 197t252.5 111.5q44 9 92 20t84.5 37t47.5 78zM676 1021q107 -2 183 -44
t123 -112.5t66 -159t11 -186.5l-2 -22q-12 -112 -56.5 -207.5t-118 -166t-170.5 -109t-213 -35.5q-119 2 -203.5 48t-137.5 123.5t-74.5 176.5t-14.5 207l2 22q4 23 24 45t43 42.5t36 40.5q60 89 132 167t163 125.5t207 44.5zM607 798q-81 2 -135 -39t-84.5 -107t-38.5 -137
l-2 -21q-5 -49 -1 -99t20.5 -93t52.5 -70.5t96 -28.5q63 -2 109.5 23t77.5 68t49 96t25 108l2 21q4 48 -0.5 96.5t-22 89t-53.5 66t-95 27.5z" />
    <glyph glyph-name="uni0432" unicode="&#x432;" horiz-adv-x="1122" 
d="M614 452h-338l31 189l258 -1q40 2 79.5 10.5t69 32t37.5 68.5q6 33 -3 53.5t-28 31.5t-44 16t-51 6l-173 1l-148 -859h-281l187 1082l421 -1q71 -1 144 -15t134 -46t97.5 -88.5t32.5 -143.5q-2 -71 -37.5 -119t-91.5 -77.5t-119.5 -45t-121.5 -19.5zM544 0h-422l136 223
l294 -1q42 2 80.5 12.5t66.5 36.5t36 71q7 41 -7 64t-42.5 33.5t-64.5 11.5l-278 1l36 189l287 -1l53 -75q71 -8 138.5 -35t110 -79t41.5 -134q-4 -94 -46 -156t-110.5 -97.5t-149.5 -50t-159 -13.5z" />
    <glyph glyph-name="uni0433" unicode="&#x433;" horiz-adv-x="833" 
d="M908 1082l-40 -225h-436l-149 -857h-281l188 1082h718z" />
    <glyph glyph-name="uni0434" unicode="&#x434;" horiz-adv-x="1253" 
d="M381 1082h282l-71 -361q-20 -111 -58.5 -228.5t-101.5 -221.5t-155 -176.5t-218 -94.5h-62l24 222l27 2q59 53 102 108.5t74 115.5t52 127t34 145zM457 1082h697l-188 -1082h-281l148 851h-416zM-33 225h1189l-97 -550h-281l57 325h-620l-57 -325h-287z" />
    <glyph glyph-name="uni0435" unicode="&#x435;" horiz-adv-x="1073" 
d="M512 -20q-111 2 -200 42.5t-148.5 111.5t-87.5 165t-20 202l4 41q12 113 55 215t115 180.5t170.5 123t219.5 41.5q113 -2 193 -46t129 -118t67 -168.5t7 -197.5l-16 -120h-836l31 192l552 -1l5 25q8 55 -5 102.5t-49 76.5t-96 31q-69 2 -116 -29t-77 -82t-46 -110.5
t-23 -114.5l-4 -40q-5 -53 3 -105.5t31.5 -94.5t65 -68t104.5 -28q80 -2 147.5 31.5t121.5 89.5l126 -152q-45 -68 -114.5 -111.5t-149.5 -64t-159 -19.5z" />
    <glyph glyph-name="uni0436" unicode="&#x436;" horiz-adv-x="1705" 
d="M455 408l-323 673l335 1l151 -408h211l-80 -266h-294zM593 447l-313 -447h-353l451 594zM1079 1082l-188 -1082h-281l188 1082h281zM1763 1082l-554 -674h-308l13 266h191l293 408h365zM1237 0l-163 466l249 132l247 -598h-333z" />
    <glyph glyph-name="uni0437" unicode="&#x437;" horiz-adv-x="1021" 
d="M578 515l-225 1l23 129l135 -1q42 2 79.5 15t63.5 40.5t33 72.5q6 39 -6.5 65t-40 40t-64.5 15q-41 1 -77 -11.5t-61.5 -39.5t-35.5 -68l-283 -1q7 116 76 189.5t170.5 108t205.5 32.5q73 -1 145.5 -18t132 -52.5t94.5 -94t32 -143.5q-3 -76 -41 -129t-96.5 -86
t-127 -48.5t-132.5 -15.5zM366 588l192 -1q65 -2 129 -16t115 -45t80 -83t26 -129q-3 -94 -49.5 -158.5t-119.5 -103.5t-158 -56.5t-163 -15.5q-105 2 -197 39.5t-149 112.5t-57 190l278 -1q0 -45 20 -73.5t54.5 -42.5t77.5 -13q45 -1 85.5 15t69 47.5t35.5 78.5
q7 46 -7.5 73.5t-45.5 40t-73 14.5l-166 1z" />
    <glyph glyph-name="uni0438" unicode="&#x438;" horiz-adv-x="1125" 
d="M357 420l458 662h289l-188 -1082h-282l116 663l-458 -663h-289l188 1082h281z" />
    <glyph glyph-name="uni0439" unicode="&#x439;" horiz-adv-x="1125" 
d="M357 420l458 662h289l-188 -1082h-282l116 663l-458 -663h-289l188 1082h281zM855 1517l198 1q-5 -96 -54.5 -163t-128.5 -100.5t-172 -31.5q-135 2 -225 79t-91 217l198 -2q-1 -60 26.5 -97t92.5 -38t105 36t51 99z" />
    <glyph glyph-name="uni043A" unicode="&#x43a;" horiz-adv-x="1118" 
d="M491 1082l-188 -1082h-281l188 1082h281zM1182 1082l-569 -677h-288l12 266h176l297 411h372zM650 0l-182 466l255 132l290 -598h-363z" />
    <glyph glyph-name="uni043B" unicode="&#x43b;" horiz-adv-x="1126" 
d="M900 1082l-39 -225h-518l39 225h518zM1104 1082l-188 -1082h-281l188 1082h281zM312 1082h278l-123 -545q-15 -77 -36 -154.5t-53.5 -147t-80 -123t-115.5 -83.5t-161 -29h-100l28 226l33 2q54 5 91 33.5t61.5 71.5t40 94t24.5 101t17 92z" />
    <glyph glyph-name="uni043C" unicode="&#x43c;" horiz-adv-x="1508" 
d="M695 334l406 748h240l-597 -1082h-190l-220 1082h218zM491 1082l-187 -1082h-281l187 1082h281zM989 0l188 1082h281l-188 -1082h-281z" />
    <glyph glyph-name="uni043D" unicode="&#x43d;" horiz-adv-x="1125" 
d="M837 645l-39 -224h-536l39 224h536zM472 1082l-188 -1082h-281l188 1082h281zM1101 1082l-188 -1082h-282l188 1082h282z" />
    <glyph glyph-name="uni043E" unicode="&#x43e;" 
d="M53 524l3 21q12 115 55.5 216.5t116 179t171 121t221.5 40.5q117 -2 202 -47t139.5 -121t77 -174t12.5 -207l-2 -22q-13 -114 -57.5 -214.5t-117 -177t-171.5 -119.5t-220 -40q-115 2 -201 46.5t-140 120t-76 172.5t-13 205zM337 545l-2 -22q-5 -48 -3 -102.5
t17.5 -103.5t51.5 -80.5t99 -33.5q67 -2 115 27.5t79 79t49 108t24 114.5l2 21q4 48 2.5 103.5t-17.5 105t-52 82t-99 34.5q-67 2 -115 -28.5t-79 -80.5t-48.5 -109t-23.5 -115z" />
    <glyph glyph-name="uni043F" unicode="&#x43f;" horiz-adv-x="1125" 
d="M899 1082l-39 -225h-510l40 225h509zM472 1082l-188 -1082h-281l188 1082h281zM1104 1082l-188 -1082h-283l188 1082h283z" />
    <glyph glyph-name="uni0440" unicode="&#x440;" horiz-adv-x="1117" 
d="M434 858l-221 -1274h-282l260 1498h260zM1044 559l-3 -21q-12 -98 -45.5 -198t-91.5 -182.5t-143 -132t-200 -46.5q-101 3 -168 53t-105 128.5t-53 169.5t-12 174l7 56q15 91 52 187.5t96 178t141 131t189 46.5q111 -3 181.5 -53t107.5 -130t46.5 -174.5t0.5 -186.5z
M760 539l3 21q4 44 4 97.5t-12 102.5t-44 82t-92 35q-61 3 -107 -19t-77.5 -61.5t-51.5 -89.5t-29 -103l-20 -140q-5 -61 8 -120.5t51.5 -98.5t111.5 -41q66 -1 112 30t75.5 82.5t45.5 110.5t22 112z" />
    <glyph glyph-name="uni0441" unicode="&#x441;" horiz-adv-x="1035" 
d="M478 204q53 -1 94.5 20t68.5 59t36 88l265 1q-9 -121 -77.5 -210t-173 -137t-221.5 -45q-117 2 -200.5 47t-134.5 120.5t-71.5 172.5t-10.5 204l3 30q12 112 54 212.5t112.5 177t166.5 119t217 39.5q125 -2 214 -56.5t135.5 -148.5t44.5 -216l-264 1q1 49 -13 93.5
t-47.5 72.5t-90.5 30q-67 2 -112 -27.5t-73 -79t-43 -107t-21 -111.5l-2 -29q-5 -45 -6 -99.5t11 -104t44.5 -82t94.5 -34.5z" />
    <glyph glyph-name="uni0442" unicode="&#x442;" horiz-adv-x="1014" 
d="M728 1082l-188 -1082h-282l188 1082h282zM1066 1082l-39 -223h-953l39 223h953z" />
    <glyph glyph-name="uni0443" unicode="&#x443;" horiz-adv-x="1000" 
d="M339 137l438 945h310l-634 -1246q-28 -59 -63.5 -109.5t-80.5 -88t-101 -58t-126 -20.5q-35 0 -68 6t-66 14l20 213q11 -1 21.5 -2t20.5 -1q50 -1 88.5 11.5t67.5 40t52 71.5zM384 1082l94 -799l-13 -291l-188 -22l-185 1112h292z" />
    <glyph glyph-name="uni0444" unicode="&#x444;" horiz-adv-x="1453" 
d="M1375 539l-3 -21q-11 -94 -42.5 -190.5t-86 -176.5t-135.5 -127.5t-192 -44.5q-89 2 -149.5 44.5t-96 110t-50.5 147t-13 154.5l26 175q14 81 46.5 168.5t85.5 162t127 120t169 42.5q89 -2 149 -38.5t96.5 -96.5t53.5 -132.5t19.5 -149.5t-4.5 -147zM1092 519l2 22
q3 30 5.5 72t0.5 87.5t-14.5 85t-39 65t-71.5 27.5q-71 4 -119 -27.5t-77 -84.5t-42 -113l-43 -259q0 -54 16 -96.5t52 -67.5t97 -26q62 -1 104 29t68.5 78t40.5 103t20 105zM52 506l3 21q9 76 30.5 157t57.5 157t88 136t123.5 94t163.5 31q91 -3 151 -50.5t93.5 -121.5
t46 -157.5t10.5 -159.5l-25 -166q-14 -81 -47 -164.5t-86 -153t-126 -111.5t-166 -40q-106 3 -172.5 52.5t-101 128t-43.5 169.5t0 178zM337 528l-2 -22q-4 -38 -6 -89t7 -98.5t36.5 -79.5t83.5 -34q65 -4 112.5 21.5t78 71.5t43.5 105l41 251q1 55 -10.5 106t-46 84.5
t-100.5 34.5q-65 1 -108 -34.5t-69.5 -91t-40 -116t-19.5 -109.5zM407 -416l339 1952h282l-339 -1952h-282z" />
    <glyph glyph-name="uni0445" unicode="&#x445;" horiz-adv-x="1011" 
d="M404 1082l120 -327l230 327h313l-389 -542l219 -540h-286l-135 346l-242 -346h-314l406 566l-210 516h288z" />
    <glyph glyph-name="uni0446" unicode="&#x446;" horiz-adv-x="1208" 
d="M3 0l188 1082h281l-149 -857h350l148 857h283l-188 -1082h-913zM1113 224l-114 -545h-262l56 321h-118l38 224h400z" />
    <glyph glyph-name="uni0447" unicode="&#x447;" horiz-adv-x="1100" 
d="M1078 1082l-187 -1082h-282l187 1082h282zM857 619l-20 -228q-44 -22 -94 -35.5t-102 -19.5t-100 -6q-129 1 -231.5 46.5t-156.5 136.5t-39 231l54 339h282l-55 -340q-9 -63 5 -104t51.5 -61t101.5 -21q53 -1 103.5 7.5t101 23.5t99.5 31z" />
    <glyph glyph-name="uni0448" unicode="&#x448;" horiz-adv-x="1643" 
d="M191 1082h281l-149 -857h289l148 857h283l-149 -857h288l149 857h281l-188 -1082h-1421z" />
    <glyph glyph-name="uni0449" unicode="&#x449;" horiz-adv-x="1791" 
d="M1672 224l-114 -545h-263l56 321h-117l39 224h399zM188 1082h281l-149 -857h289l150 857h281l-148 -857h287l149 857h282l-188 -1082h-1422z" />
    <glyph glyph-name="uni044A" unicode="&#x44a;" horiz-adv-x="1308" 
d="M662 1082l-39 -226h-546l39 226h546zM536 761l289 -1q112 -4 207 -45t150 -123t47 -205q-7 -101 -51.5 -174t-116 -120.5t-158.5 -70.5t-178 -22h-496l188 1082h283l-150 -858l183 -1q52 1 98 19t77.5 53t40.5 90q8 48 -6.5 80.5t-47 50t-78.5 19.5l-320 1z" />
    <glyph glyph-name="uni044B" unicode="&#x44b;" horiz-adv-x="1655" 
d="M329 761l289 -1q112 -3 207 -45t150 -123.5t47 -204.5q-6 -100 -51 -173.5t-116.5 -121t-158.5 -70.5t-177 -22h-496l187 1082h282l-149 -858l183 -1q52 1 98 18.5t78 53t41 90.5q7 48 -7.5 80.5t-47 50t-77.5 19.5l-321 1zM1594 1082l-188 -1082h-282l188 1082h282z" />
    <glyph glyph-name="uni044C" unicode="&#x44c;" horiz-adv-x="1109" 
d="M329 761l289 -1q112 -3 207 -45t150 -123.5t47 -204.5q-6 -100 -51 -173.5t-116.5 -121t-158.5 -70.5t-177 -22h-496l187 1082h282l-149 -858l183 -1q52 1 98 18.5t78 53t41 90.5q7 48 -7.5 80.5t-47 50t-77.5 19.5l-321 1z" />
    <glyph glyph-name="uni044D" unicode="&#x44d;" horiz-adv-x="1032" 
d="M540 878q-53 1 -92 -20.5t-64 -59.5t-33 -87l-265 -1q9 121 76.5 210t172 137t221.5 46q115 -3 198 -48.5t134 -121.5t70.5 -173t9.5 -202l-4 -30q-13 -112 -57 -212.5t-116 -177t-169 -119t-217 -39.5q-124 2 -211.5 56.5t-132 149t-39.5 215.5l264 -1q-2 -47 9.5 -91.5
t42.5 -73.5t86 -31q65 -2 111.5 27.5t77 79t47 107t22.5 110.5l4 29q4 45 5 99t-11.5 104.5t-45 83.5t-94.5 34zM793 632l-31 -173h-379l31 173h379z" />
    <glyph glyph-name="uni044E" unicode="&#x44e;" horiz-adv-x="1612" 
d="M755 663l-40 -226h-568l38 226h570zM496 1082l-188 -1082h-282l188 1082h282zM541 522l3 22q14 115 58.5 217t118 179.5t173 121t222.5 41.5q117 -3 201.5 -48t137.5 -121.5t74 -174t10 -205.5l-3 -22q-13 -115 -58.5 -216t-119.5 -177.5t-173 -119t-221 -40.5
q-115 3 -200 47.5t-138 120t-74 172t-11 203.5zM825 545l-2 -22q-5 -48 -4 -102.5t16 -103t49.5 -80.5t97.5 -34q68 -2 116.5 27.5t80.5 78.5t50.5 108t25.5 115l3 21q4 48 3.5 103t-15.5 104.5t-50 82.5t-99 35q-68 2 -116 -28t-80.5 -80.5t-50 -109.5t-25.5 -115z" />
    <glyph glyph-name="uni044F" unicode="&#x44f;" horiz-adv-x="1111" 
d="M316 540h301l-386 -540h-300zM590 1083l478 -1l-188 -1082h-280l149 859l-167 1q-46 -2 -90.5 -19.5t-76.5 -51t-41 -83.5q-7 -41 9 -69.5t46.5 -44t68.5 -17.5l307 -1l-34 -196l-275 1q-75 2 -148 22.5t-132 61t-91.5 103.5t-28.5 149q5 97 50 166.5t116.5 114t157 66
t170.5 21.5z" />
    <glyph glyph-name="uni0450" unicode="&#x450;" horiz-adv-x="1073" 
d="M512 -20q-111 2 -200 42.5t-148.5 111.5t-87.5 165t-20 202l4 41q12 113 55 215t115 180.5t170.5 123t219.5 41.5q113 -2 193 -46t129 -118t67 -168.5t7 -197.5l-16 -120h-836l31 192l552 -1l5 25q8 55 -5 102.5t-49 76.5t-96 31q-69 2 -116 -29t-77 -82t-46 -110.5
t-23 -114.5l-4 -40q-5 -53 3 -105.5t31.5 -94.5t65 -68t104.5 -28q80 -2 147.5 31.5t121.5 89.5l126 -152q-45 -68 -114.5 -111.5t-149.5 -64t-159 -19.5zM614 1537l143 -308l-212 1l-221 306z" />
    <glyph glyph-name="uni0451" unicode="&#x451;" horiz-adv-x="1073" 
d="M512 -20q-111 2 -200 42.5t-148.5 111.5t-87.5 165t-20 202l4 41q12 113 55 215t115 180.5t170.5 123t219.5 41.5q113 -2 193 -46t129 -118t67 -168.5t7 -197.5l-16 -120h-836l31 192l552 -1l5 25q8 55 -5 102.5t-49 76.5t-96 31q-69 2 -116 -29t-77 -82t-46 -110.5
t-23 -114.5l-4 -40q-5 -53 3 -105.5t31.5 -94.5t65 -68t104.5 -28q80 -2 147.5 31.5t121.5 89.5l126 -152q-45 -68 -114.5 -111.5t-149.5 -64t-159 -19.5zM274 1365q-1 54 39 91t93 38t94 -33.5t42 -89.5t-38.5 -91t-93.5 -37q-52 -1 -93 33t-43 89zM751 1364
q-2 55 37.5 91.5t93.5 37.5q53 1 94 -33t42 -89q2 -55 -38 -91t-94 -37q-52 -1 -93 32.5t-42 88.5z" />
    <glyph glyph-name="uni0452" unicode="&#x452;" horiz-adv-x="1112" 
d="M705 469h283l-84 -507q-15 -118 -67.5 -209.5t-142 -143t-214.5 -49.5q-38 0 -75.5 5t-74.5 13l35 222q24 -7 48.5 -12t49.5 -5q51 0 83 26.5t49.5 67.5t25.5 84zM545 1536l-267 -1536h-281l267 1536h281zM341 579l-73 -1q11 92 43.5 186t88.5 171.5t137.5 123.5
t188.5 44q92 -2 152.5 -36.5t94.5 -93.5t45 -133t2 -156l-114 -684h-283l116 687q6 53 -2.5 95.5t-38.5 68t-89 27.5q-67 1 -113.5 -24t-78 -68.5t-49.5 -97t-27 -109.5zM762 1370l-32 -178h-681l32 178h681z" />
    <glyph glyph-name="uni0453" unicode="&#x453;" horiz-adv-x="833" 
d="M908 1082l-40 -225h-436l-149 -857h-281l188 1082h718zM379 1221l239 308h323l-315 -308h-247z" />
    <glyph glyph-name="uni0454" unicode="&#x454;" horiz-adv-x="1032" 
d="M645 616l-30 -173h-392l31 173h391zM469 204q54 -2 95.5 19t69 59.5t37.5 88.5l265 1q-10 -121 -79 -210.5t-174.5 -137t-223.5 -44.5q-116 2 -199 47t-133 121t-69 172.5t-9 202.5l4 30q14 113 57 213.5t114 177t168 119t218 39.5q125 -2 213.5 -56.5t133.5 -148.5
t43 -216h-264q1 50 -12.5 94.5t-46.5 72.5t-90 30q-66 3 -112 -27t-74.5 -79t-44.5 -107t-22 -112l-3 -29q-5 -44 -6.5 -98.5t9 -104t42.5 -83t93 -34.5z" />
    <glyph glyph-name="uni0455" unicode="&#x455;" horiz-adv-x="1021" 
d="M631 305q8 48 -24 74.5t-78.5 40.5t-80.5 22q-60 16 -120.5 40.5t-109.5 61.5t-78 90.5t-26 126.5q3 87 44.5 151.5t107.5 107t144 63.5t155 19q108 -1 200.5 -40t150 -116t57.5 -192l-279 1q1 44 -14 77t-46 51t-79 18q-38 0 -75.5 -14.5t-64.5 -42.5t-34 -69
q-6 -34 10 -56t43 -35.5t57 -22t54 -13.5q88 -23 172 -59t137 -100.5t49 -171.5q-3 -91 -48 -155.5t-115.5 -105t-152 -59t-159.5 -17.5q-109 2 -204.5 44t-154.5 122.5t-60 197.5l264 -1q1 -52 21 -88t57.5 -54.5t89.5 -18.5q41 -1 81.5 11t70.5 39.5t38 72.5z" />
    <glyph glyph-name="uni0456" unicode="&#x456;" horiz-adv-x="526" 
d="M488 1082l-188 -1082h-281l188 1082h281zM238 1359q-2 68 44.5 109t112.5 42q63 1 110 -37.5t47 -103.5q2 -68 -45 -109t-112 -42q-63 -1 -109.5 37t-47.5 104z" />
    <glyph glyph-name="uni0457" unicode="&#x457;" horiz-adv-x="542" 
d="M495 1082l-188 -1082h-282l188 1082h282zM28 1349q-1 54 39 91t93 38t94 -33.5t42 -89.5t-38.5 -91t-93.5 -37q-52 -1 -93 33t-43 89zM505 1348q-2 55 37.5 91.5t93.5 37.5q53 1 94 -33t42 -89q2 -55 -38 -91t-94 -37q-52 -1 -93 32.5t-42 88.5z" />
    <glyph glyph-name="uni0458" unicode="&#x458;" horiz-adv-x="517" 
d="M207 1082h283l-195 -1147q-15 -114 -67 -199t-139 -131t-206 -45q-38 1 -76 6t-75 13l24 221q22 -4 44.5 -8t44.5 -4q47 0 81 18t55.5 51t29.5 78zM235 1359q-2 67 45 108.5t111 42.5t111 -37.5t47 -103.5q1 -68 -45.5 -109t-111.5 -42q-63 0 -109.5 37.5t-47.5 103.5z
" />
    <glyph glyph-name="uni0459" unicode="&#x459;" horiz-adv-x="1708" 
d="M310 1082h279l-122 -544q-15 -78 -36 -155.5t-53.5 -147t-80.5 -123t-116 -84t-161 -28.5h-101l30 226l32 2q54 5 91 33t61.5 72t39.5 94.5t24.5 100.5t16.5 91zM892 1082l-40 -225h-512l40 225h512zM930 734l287 -1q108 -2 204 -40.5t153.5 -116.5t50.5 -199
q-5 -100 -50.5 -172t-117.5 -117.5t-158.5 -67t-176.5 -20.5h-495l188 1082h282l-149 -859l183 -1q49 1 95 17.5t78.5 50.5t41.5 88q8 46 -10 74t-51.5 41.5t-74.5 15.5l-319 1z" />
    <glyph glyph-name="uni045A" unicode="&#x45a;" horiz-adv-x="1711" 
d="M841 664l-40 -224h-536l40 224h536zM472 1082l-188 -1082h-281l188 1082h281zM934 734l288 -1q108 -2 204 -40.5t153.5 -116.5t49.5 -199q-6 -99 -51.5 -171t-116.5 -118t-158 -67.5t-175 -20.5h-497l188 1082h282l-149 -859l183 -1q50 1 96 17.5t78 51t41 87.5
q8 46 -9.5 74t-51 41.5t-74.5 15.5l-320 1z" />
    <glyph glyph-name="uni045B" unicode="&#x45b;" horiz-adv-x="1130" 
d="M545 1536l-267 -1536h-281l267 1536h281zM341 579l-73 -1q11 92 43.5 186t88.5 171.5t137.5 124t189.5 43.5q91 -2 151.5 -36.5t94.5 -93t45 -133t2 -156.5l-114 -684h-283l116 687q6 53 -2.5 95.5t-39 68t-89.5 26.5q-65 2 -111.5 -23t-78.5 -68.5t-50 -97t-27 -109.5z
M777 1382l-32 -178h-682l32 178h682z" />
    <glyph glyph-name="uni045C" unicode="&#x45c;" horiz-adv-x="1118" 
d="M491 1082l-188 -1082h-281l188 1082h281zM1182 1082l-569 -677h-288l12 266h176l297 411h372zM650 0l-182 466l255 132l290 -598h-363zM531 1221l239 308h323l-315 -308h-247z" />
    </font>
</defs>
</svg>
