<?xml version="1.0" standalone="no"?>
<!DOCTYPE svg PUBLIC "-//W3C//DTD SVG 1.1//EN" "http://www.w3.org/Graphics/SVG/1.1/DTD/svg11.dtd" >
<svg xmlns="http://www.w3.org/2000/svg" xmlns:xlink="http://www.w3.org/1999/xlink" version="1.1">
<metadata>
Created by FontForge 20170731 at Wed Aug 19 17:25:11 2020
 By Aleksey,,,
Copyright 2011 Google Inc. All Rights Reserved.
</metadata>
<defs>
<font id="RobotoCondensed-LightItalic" horiz-adv-x="1090" >
  <font-face 
    font-family="Roboto Condensed Light"
    font-weight="300"
    font-style="italic"
    font-stretch="normal"
    units-per-em="2048"
    panose-1="2 0 0 0 0 0 0 0 0 0"
    ascent="1536"
    descent="-512"
    x-height="1082"
    cap-height="1456"
    bbox="-1478 -555 2117 2163"
    underline-thickness="100"
    underline-position="-300"
    slope="-12"
    unicode-range="U+0002-FFFD"
  />
<missing-glyph horiz-adv-x="813" 
d="M673 1456v-54h-546v54h546zM149 1456v-1456h-45v1456h45zM699 1456v-1456h-46v1456h46zM673 54v-54h-546v54h546zM673 1426l-498 -1396h-49l498 1396h49zM624 30l-498 1396h49l498 -1396h-49z" />
    <glyph glyph-name="uniFB01" unicode="fi" horiz-adv-x="941" 
d="M208 0h-112l204 1196q13 97 55 181.5t115.5 135t181.5 46.5q61 -1 118 -18.5t111 -43.5l-31 -104q-45 26 -94.5 41t-103.5 17q-113 1 -169.5 -75t-72.5 -179zM597 1082l-19 -100h-457l18 100h458zM868 1082l-189 -1082h-108l188 1082h109z" />
    <glyph glyph-name="uniFB02" unicode="fl" horiz-adv-x="954" 
d="M220 0h-109l206 1216q12 91 49 170.5t104.5 127t170.5 45.5q53 -1 105.5 -11t104.5 -25t102 -30l-64 -83q-60 13 -122 29.5t-125 15.5q-69 0 -113 -34.5t-68.5 -89.5t-33.5 -114zM583 0l260 1496h112l-260 -1496h-112zM616 1082l-19 -100h-461l18 100h462z" />
    <glyph glyph-name="uniFB03" unicode="ffi" horiz-adv-x="1429" 
d="M220 0h-109l206 1215q11 89 48 169t104 129t167 47q29 1 56.5 -5t54.5 -14l-20 -102q-21 8 -43.5 11.5t-45.5 3.5q-67 1 -110 -34.5t-67.5 -90.5t-32.5 -112zM653 1082l-19 -100h-498l18 100h499zM695 0h-112l204 1195q12 99 54 182.5t117 134t182 47.5q61 0 118 -18
t111 -44l-31 -104q-46 26 -95 41.5t-103 14.5q-114 1 -170.5 -74.5t-71.5 -177.5zM1084 1082l-18 -100h-457l18 100h457zM1357 1082l-188 -1082h-110l188 1082h110z" />
    <glyph glyph-name="uniFB04" unicode="ffl" horiz-adv-x="1429" 
d="M220 0h-110l206 1215q12 90 48.5 169.5t103.5 128.5t168 47q28 1 56 -5t55 -14l-20 -102q-21 8 -43.5 12t-46.5 4q-66 -1 -109.5 -36t-67 -90t-32.5 -113zM656 1082l-19 -100h-501l18 100h502zM695 0h-112l206 1216q12 91 50 170t106 127.5t170 46.5q53 -1 105.5 -11
t104.5 -25t103 -30l-66 -84q-59 15 -121.5 29.5t-125.5 15.5q-69 -1 -112.5 -35.5t-67.5 -89t-33 -113.5zM1059 0l260 1496h110l-260 -1496h-110zM1089 1082l-18 -100h-462l18 100h462z" />
    <glyph glyph-name=".notdef" horiz-adv-x="813" 
d="M673 1456v-54h-546v54h546zM149 1456v-1456h-45v1456h45zM699 1456v-1456h-46v1456h46zM673 54v-54h-546v54h546zM673 1426l-498 -1396h-49l498 1396h49zM624 30l-498 1396h49l498 -1396h-49z" />
    <glyph glyph-name="uni0000" horiz-adv-x="0" 
 />
    <glyph glyph-name="uni0000" horiz-adv-x="0" 
 />
    <glyph glyph-name="uni000D" unicode="&#xd;" horiz-adv-x="457" 
 />
    <glyph glyph-name="uni0002" horiz-adv-x="0" 
 />
    <glyph glyph-name="space" unicode=" " horiz-adv-x="457" 
 />
    <glyph glyph-name="exclam" unicode="!" horiz-adv-x="427" 
d="M418 1456l-189 -1050h-102l177 1050h114zM53 71q3 32 23 57.5t53 26.5q35 1 53.5 -24.5t16.5 -56.5q-2 -33 -23 -58t-55 -27q-35 0 -52.5 25t-15.5 57z" />
    <glyph glyph-name="quotedbl" unicode="&#x22;" horiz-adv-x="571" 
d="M385 1536l-22 -145l-69 -309h-83l56 327l20 127h98zM613 1536l-22 -145l-68 -309h-82l54 324l21 130h97z" />
    <glyph glyph-name="numbersign" unicode="#" horiz-adv-x="1020" 
d="M135 0l470 1457h97l-481 -1457h-86zM470 0l471 1457h98l-482 -1457h-87zM1067 943h-848l14 97h850zM913 410h-849l15 97h850z" />
    <glyph glyph-name="dollar" unicode="$" horiz-adv-x="966" 
d="M714 1679l-37 -267h-96l46 267h87zM453 40l-33 -248h-97l42 248h88zM708 368q9 77 -15.5 134t-73 98t-114.5 73q-91 44 -154.5 98.5t-95 130.5t-23.5 184t57.5 198.5t134 143.5t198.5 49q94 -2 154 -42t92.5 -106t42 -144.5t1.5 -157.5h-109q5 52 0.5 110.5t-23.5 110
t-59 86t-106 36.5q-81 2 -139.5 -37t-91.5 -104t-42 -140q-7 -79 16 -135.5t72.5 -97t117.5 -74.5q90 -43 153.5 -98.5t94 -132t22.5 -182.5q-8 -112 -61.5 -202t-143 -140.5t-205.5 -47.5q-95 2 -159.5 38.5t-103 98.5t-53 141t-6.5 163h110q-4 -60 3 -118.5t31.5 -106.5
t69 -77t115.5 -30q81 -2 144.5 35.5t102 102.5t46.5 142z" />
    <glyph glyph-name="percent" unicode="%" horiz-adv-x="1271" 
d="M196 1099l7 76q8 74 40.5 144.5t89.5 116t140 43.5q79 -3 125 -50t63.5 -116.5t12.5 -136.5l-7 -77q-8 -70 -40.5 -140.5t-89 -116t-138.5 -43.5q-79 3 -124.5 50t-64.5 115.5t-14 134.5zM293 1176l-7 -80q-3 -41 4 -89.5t34 -82.5t81 -37q56 -1 92.5 33t56 83t24.5 95
l8 79q3 42 -4 91t-34 85t-81 37q-55 1 -92 -33t-57 -83.5t-25 -97.5zM647 279l7 77q7 71 39.5 141.5t90.5 117t139 44.5q79 -3 125 -50t64.5 -115.5t13.5 -136.5l-7 -78q-7 -70 -39.5 -141t-89.5 -116.5t-139 -43.5q-79 3 -126 49.5t-64.5 116t-13.5 135.5zM745 357l-6 -81
q-4 -42 3.5 -90.5t34 -84t80.5 -36.5q56 -1 93 33.5t56.5 84t24.5 95.5l7 81q3 42 -4.5 91t-33.5 84t-81 36q-57 2 -94 -31t-56 -83.5t-24 -98.5zM1070 1256l-770 -1134l-65 55l773 1132z" />
    <glyph glyph-name="ampersand" unicode="&#x26;" horiz-adv-x="1069" 
d="M364 786l215 176q58 46 101.5 104t50.5 134q6 64 -27 119t-104 56q-62 0 -104 -36t-65 -90t-29 -107q-6 -56 6 -110.5t33 -106t47 -100.5l444 -825h-123l-378 700q-36 68 -70.5 138t-54.5 144.5t-13 153.5q7 88 44.5 167t105.5 128.5t165 46.5q76 -2 129.5 -41.5
t79.5 -102.5t20 -137q-3 -66 -31.5 -122t-71.5 -103.5t-94 -87.5l-255 -206q-45 -40 -88 -89t-74 -105.5t-38 -118.5q-9 -75 12 -137.5t71.5 -101.5t130.5 -41q108 -4 191.5 50t141.5 142.5t94 188.5t49 188h98q-11 -88 -35.5 -168.5t-65 -153.5t-95.5 -142
q-6 -9 -11.5 -15.5t-11.5 -14.5q-66 -79 -161 -130.5t-200 -49.5q-110 3 -185 54.5t-110.5 137.5t-26.5 192q8 93 52 168t108 137.5t133 116.5z" />
    <glyph glyph-name="quotesingle" unicode="'" horiz-adv-x="339" 
d="M368 1536l-23 -144l-63 -303h-90l53 308l22 139h101z" />
    <glyph glyph-name="parenleft" unicode="(" horiz-adv-x="579" 
d="M128 569l2 17q21 136 61 286t103.5 294.5t155 267t215.5 201.5l17 -85q-102 -83 -177 -196t-126.5 -242t-84.5 -263t-51 -259l-3 -19q-15 -101 -24.5 -232t-1 -267t46 -257.5t117.5 -205.5l-33 -78q-98 90 -151 218t-72.5 272.5t-15 287.5t21.5 260z" />
    <glyph glyph-name="parenright" unicode=")" horiz-adv-x="590" 
d="M446 594l-3 -15q-20 -138 -60 -288.5t-102.5 -294.5t-154 -265.5t-216.5 -201.5l-18 80q103 84 177.5 197.5t126.5 243t84.5 264t52.5 259.5l3 20q15 103 24 233.5t0 266t-47 257t-118 206.5l34 77q98 -89 150.5 -217t72 -274t15.5 -289.5t-21 -258.5z" />
    <glyph glyph-name="asterisk" unicode="*" horiz-adv-x="843" 
d="M156 708l261 295l-303 108l48 99l302 -124l61 370h105l-73 -367l335 125l13 -111l-345 -112l169 -295l-91 -62l-154 305l-250 -300z" />
    <glyph glyph-name="plus" unicode="+" horiz-adv-x="982" 
d="M921 742l-21 -115h-815l21 115h815zM646 1206l-184 -1060h-112l185 1060h111z" />
    <glyph glyph-name="comma" unicode="," horiz-adv-x="381" 
d="M195 191l-22 -139q-16 -98 -64.5 -180.5t-124.5 -145.5l-67 56q34 39 61.5 81t46 87t28.5 98l26 143h116z" />
    <glyph glyph-name="hyphen" unicode="-" horiz-adv-x="513" 
d="M467 694l-18 -104h-394l19 104h393z" />
    <glyph glyph-name="period" unicode="." horiz-adv-x="474" 
d="M51 73q1 35 26 60.5t60 27.5q36 0 59.5 -25t20.5 -61q-2 -36 -28 -60t-62 -26q-35 0 -57.5 24.5t-18.5 59.5z" />
    <glyph glyph-name="slash" unicode="/" horiz-adv-x="706" 
d="M781 1456l-762 -1580l-107 -1l772 1581h97z" />
    <glyph glyph-name="zero" unicode="0" horiz-adv-x="966" 
d="M892 853l-37 -243q-15 -97 -43.5 -207.5t-79.5 -208.5t-134 -158t-208 -56q-94 2 -151.5 46t-87.5 114t-39 153t-5 165.5t13 150.5l37 244q14 95 43 205.5t81 207t135 156t205 56.5q95 -3 153 -46.5t87.5 -113t38 -151.5t5 -164.5t-12.5 -149.5zM742 594l43 276
q6 45 12 108.5t3 131.5t-20.5 126.5t-57.5 96.5t-110 41q-93 4 -154.5 -47t-99.5 -131.5t-58 -169t-30 -158.5l-42 -276q-7 -43 -12 -107t-3 -132t19.5 -128.5t57.5 -99t108 -41.5q95 -5 157 47.5t99 134t58 170t30 158.5z" />
    <glyph glyph-name="one" unicode="1" horiz-adv-x="966" 
d="M738 1463l-250 -1463h-110l225 1305l-344 -148l22 123l435 183h22z" />
    <glyph glyph-name="two" unicode="2" horiz-adv-x="966" 
d="M804 105l-18 -105h-751l16 99l467 538q53 61 110.5 132t100.5 149.5t52 163.5q10 70 -6 136t-61 109.5t-124 45.5q-97 3 -159.5 -47t-99.5 -129t-50 -160l-107 -1q13 114 65 216t141.5 164.5t215.5 60.5q109 -2 178.5 -55.5t100.5 -139.5t21 -188q-6 -77 -36.5 -149.5
t-75 -139t-96.5 -127t-100 -116.5l-399 -457h615z" />
    <glyph glyph-name="three" unicode="3" horiz-adv-x="966" 
d="M375 795l98 -1q86 0 154.5 37t110.5 102.5t52 151.5q5 70 -10.5 135t-61 108.5t-127.5 45.5q-85 2 -146.5 -41t-97.5 -111.5t-48 -145.5l-107 -2q12 108 64 200.5t139 149t203 54.5q112 -3 181.5 -59.5t99 -146.5t21.5 -192q-7 -83 -42 -150.5t-91.5 -115.5t-128.5 -75
t-152 -27l-125 1zM358 690l14 82l107 -2q84 -1 149 -27t108.5 -74t63 -115t13.5 -151q-7 -86 -38.5 -163.5t-85.5 -136.5t-128 -92.5t-166 -30.5q-88 2 -152 36.5t-105.5 92t-59 132t-10.5 154.5h110q-5 -76 15 -146t71 -115.5t137 -48.5q93 -3 157.5 40.5t101.5 116.5
t44 158q7 84 -16.5 148t-78 101t-141.5 41h-110z" />
    <glyph glyph-name="four" unicode="4" horiz-adv-x="966" 
d="M895 471l-18 -104l-842 -1l8 72l720 1019l99 -1l-167 -253l-510 -732h710zM885 1456l-254 -1456h-109l252 1456h111z" />
    <glyph glyph-name="five" unicode="5" horiz-adv-x="966" 
d="M307 721l-89 27l167 708h602l-19 -113h-503l-122 -487q47 36 103.5 57t118.5 20q92 0 152 -43.5t92 -112.5t42.5 -149.5t3.5 -155.5q-7 -90 -35 -178.5t-79.5 -161t-127.5 -114.5t-178 -39q-85 2 -145 37t-98 92.5t-55 129t-15 147.5l105 -1q-1 -73 17 -141t65 -112.5
t131 -46.5q79 -2 134 32.5t90.5 92.5t54.5 126.5t25 134.5q5 55 -0.5 115.5t-27.5 114t-65.5 87t-111.5 35.5q-72 2 -127.5 -26t-104.5 -75z" />
    <glyph glyph-name="six" unicode="6" horiz-adv-x="966" 
d="M823 1468h18l-11 -107h-13q-135 0 -234 -56t-166 -149.5t-107 -208t-57 -231.5l-27 -203q-7 -56 -3.5 -128t23.5 -140.5t65.5 -113.5t121.5 -47t130 35.5t90.5 99.5t56 132t26.5 129q5 54 1 117t-24 120.5t-61 95t-112 39.5q-83 3 -150.5 -42t-111.5 -116.5t-63 -147.5
l-60 2q17 78 50 151t83.5 132.5t119.5 94t157 30.5q92 -2 150.5 -47.5t89 -116t39.5 -151.5t2 -156q-9 -85 -37 -175t-80 -166t-127 -121.5t-176 -43.5q-102 3 -167.5 55t-100.5 133.5t-44 173.5t1 175l16 127q21 147 67.5 293.5t127 267t203 192.5t294.5 72z" />
    <glyph glyph-name="seven" unicode="7" horiz-adv-x="966" 
d="M998 1456l-8 -70l-717 -1386h-120l712 1352h-667l18 104h782z" />
    <glyph glyph-name="eight" unicode="8" horiz-adv-x="966" 
d="M825 397q-10 -119 -66 -214.5t-150.5 -151t-215.5 -52.5q-115 3 -189.5 58t-108.5 144t-26 198q7 84 42.5 157.5t94 129.5t134 86.5t160.5 28.5q107 -3 182 -56.5t113 -139.5t30 -188zM715 395q8 75 -13.5 142.5t-72.5 112.5t-133 47q-90 2 -158 -42.5t-109 -118.5
t-48 -159q-8 -75 12.5 -141.5t71 -108.5t135.5 -43q90 -3 158.5 40t108 114t48.5 157zM918 1089q-8 -103 -63 -190t-142 -138.5t-195 -48.5q-99 3 -168 53t-102 131t-27 176q9 110 59 204t137 149.5t203 51.5q109 -3 178 -58t98.5 -142.5t21.5 -187.5zM806 1091
q7 65 -11.5 129t-63 107.5t-120.5 45.5q-82 2 -142.5 -41.5t-95.5 -113t-41 -145.5q-7 -65 10.5 -127.5t62 -103.5t118.5 -44q82 -2 143 40.5t97 110t43 142.5z" />
    <glyph glyph-name="nine" unicode="9" horiz-adv-x="966" 
d="M185 96h18q134 -1 230.5 49t160 136t101 195t53.5 227l28 206q7 55 7 132.5t-16.5 152.5t-60.5 125t-126 53q-76 2 -132 -37.5t-93.5 -102.5t-58.5 -134.5t-27 -133.5q-5 -50 -2 -115t23 -125t60 -99.5t109 -41.5q70 -3 127 28.5t100.5 84.5t71.5 116t39 124l58 1
q-13 -80 -45 -162t-84 -150t-124 -109t-163 -39q-92 4 -150.5 51t-89 120t-38.5 155.5t-2 155.5q10 87 39 178.5t81 169t128 125t178 45.5q113 -3 178.5 -60t94.5 -146.5t33.5 -189.5t-5.5 -186l-16 -113q-16 -120 -47.5 -234t-82.5 -215t-125.5 -178.5t-178 -121.5
t-239.5 -45h-25z" />
    <glyph glyph-name="colon" unicode=":" horiz-adv-x="411" 
d="M36 73q1 35 26 60.5t60 27.5q36 0 59.5 -25t20.5 -61q-2 -36 -28 -60t-62 -26q-35 0 -57.5 24.5t-18.5 59.5zM199 995q1 35 26 60.5t60 27.5q36 0 59.5 -25t20.5 -61q-2 -36 -28 -60t-62 -26q-35 0 -57.5 24.5t-18.5 59.5z" />
    <glyph glyph-name="semicolon" unicode=";" horiz-adv-x="380" 
d="M186 995q1 35 26 60.5t60 27.5q36 0 59.5 -25t20.5 -61q-2 -36 -28 -60t-62 -26q-35 0 -57.5 24.5t-18.5 59.5zM198 191l-22 -139q-16 -98 -64.5 -180.5t-124.5 -145.5l-67 56q34 39 61.5 81t46 87t28.5 98l26 143h116z" />
    <glyph glyph-name="less" unicode="&#x3c;" horiz-adv-x="892" 
d="M164 676l551 -323l-23 -122l-610 380l13 76zM822 956l-653 -323l-85 -8l15 85l744 379z" />
    <glyph glyph-name="equal" unicode="=" horiz-adv-x="960" 
d="M882 937l-21 -109h-680l19 109h682zM811 526l-20 -109h-682l20 109h682z" />
    <glyph glyph-name="greater" unicode="&#x3e;" horiz-adv-x="906" 
d="M744 641l-560 323l22 120l626 -380l-14 -75zM76 358l662 322l92 12l-16 -86l-758 -380z" />
    <glyph glyph-name="question" unicode="?" horiz-adv-x="802" 
d="M400 405l-102 -1q10 77 32.5 139t60.5 116.5t93 109.5q49 52 92.5 102.5t73 107.5t36.5 131q7 58 -2.5 117t-45 100t-105.5 43q-74 2 -124.5 -34.5t-81 -95.5t-43.5 -123l-108 1q14 95 60 178.5t122.5 134t182.5 47.5q101 -4 161.5 -58t83.5 -136.5t14 -172.5
q-7 -90 -46 -165.5t-95.5 -141t-120.5 -124.5q-60 -57 -92 -125t-46 -150zM219 72q2 30 22.5 56t53.5 27t52 -24.5t18 -57.5q-4 -32 -24.5 -57t-53.5 -27q-34 0 -52.5 25t-15.5 58z" />
    <glyph glyph-name="at" unicode="@" horiz-adv-x="1558" 
d="M1435 518q-14 -76 -41 -169.5t-73 -179t-116 -139.5t-168 -51q-65 3 -101.5 35.5t-52 83t-15.5 107.5t8 105l135 572h94l-135 -572l-7.5 -67.5t0.5 -80t25 -67t64 -29.5q76 -3 129 45t87 122.5t53.5 152.5t28.5 132q17 103 22.5 214.5t-9.5 216t-62 189t-133 135.5
t-222 53q-134 3 -243.5 -48.5t-196 -140t-150 -200t-106.5 -232t-63 -233.5q-16 -95 -22.5 -208t9.5 -223t62.5 -200t131 -145.5t216.5 -55.5q74 -2 146.5 19t137.5 57l19 -82q-66 -46 -147.5 -67t-161.5 -20q-149 2 -247.5 61.5t-156 157t-81 218t-21 248t22.5 241.5
q22 129 69 263.5t120 258t171 220.5t222.5 153.5t274.5 53.5q149 -2 247.5 -59t155.5 -150.5t80.5 -211t21.5 -242t-22 -241.5zM548 420q-6 -33 -13 -88t-4.5 -112t24.5 -97t75 -45q58 -3 101.5 27.5t75.5 80.5t55 103t40 95l35 -61q-21 -54 -49.5 -115t-69 -114
t-94.5 -85.5t-122 -29.5q-78 3 -115.5 52t-48 120.5t-5 144.5t14.5 124q11 63 33.5 139.5t58 153.5t85 140.5t114 102t145.5 35.5q69 -1 118 -30.5t96 -75.5l-64 -70q-26 39 -62.5 60.5t-83.5 22.5q-84 2 -143.5 -47.5t-99 -126t-62.5 -159.5t-35 -145z" />
    <glyph glyph-name="A" unicode="A" horiz-adv-x="1091" 
d="M700 1362l-641 -1362h-123l703 1457h85zM831 0l-174 1369l10 87h78l195 -1456h-109zM855 515l-19 -108h-640l20 108h639z" />
    <glyph glyph-name="B" unicode="B" horiz-adv-x="1065" 
d="M605 700h-338l18 106l279 -2q88 1 156.5 35t111 97t50.5 153q8 79 -13.5 136.5t-73 88.5t-133.5 35h-251l-234 -1349h-115l253 1456l349 -1q87 -2 152 -28.5t108 -74.5t61.5 -116t11.5 -154q-7 -91 -50.5 -164.5t-113.5 -120t-160 -60.5zM475 0h-371l79 108l297 -1
q93 -1 163.5 39.5t112 111t51.5 161.5q8 72 -10 135t-66 102t-127 43l-222 1l21 106l292 -2l15 -38q81 -17 129.5 -70t67.5 -127t13 -150q-9 -125 -67 -219.5t-154.5 -147.5t-223.5 -52z" />
    <glyph glyph-name="C" unicode="C" horiz-adv-x="1123" 
d="M877 454l109 1q-25 -137 -87 -246.5t-165.5 -171.5t-253.5 -58q-121 4 -196 59.5t-112.5 145t-46 192.5t4.5 201l51 312q16 109 56 215.5t105 191t159.5 135t219.5 46.5q142 -4 222.5 -69.5t113 -173t26.5 -234.5h-113q3 95 -15 178.5t-74 136t-166 56.5
q-101 2 -174.5 -39.5t-123.5 -112.5t-80 -156.5t-43 -171.5l-48 -314q-11 -74 -9.5 -157t24.5 -158t76.5 -124t150.5 -52q121 -5 197.5 42.5t121 132.5t70.5 193z" />
    <glyph glyph-name="D" unicode="D" horiz-adv-x="1132" 
d="M396 0h-274l21 107h257q145 -2 246 61t162 172t82 242l45 296q12 85 3.5 167.5t-41.5 150t-96.5 108.5t-164.5 45h-287l21 107l269 -1q125 -3 208.5 -52t133 -131t65.5 -184.5t1 -212.5l-45 -293q-19 -123 -66.5 -230t-123.5 -186t-179.5 -123t-236.5 -43zM430 1456
l-253 -1456h-115l253 1456h115z" />
    <glyph glyph-name="E" unicode="E" horiz-adv-x="988" 
d="M826 107l-20 -107h-663l19 107h664zM430 1456l-253 -1456h-115l253 1456h115zM863 805l-19 -108h-580l20 108h579zM1054 1456l-20 -107h-657l19 107h658z" />
    <glyph glyph-name="F" unicode="F" horiz-adv-x="976" 
d="M430 1456l-253 -1456h-115l253 1456h115zM856 788l-20 -109h-578l20 109h578zM1052 1456l-20 -107h-658l19 107h659z" />
    <glyph glyph-name="G" unicode="G" horiz-adv-x="1180" 
d="M1044 694l-82 -523q-53 -67 -124.5 -109.5t-154 -63t-165.5 -19.5q-121 2 -201.5 54t-124 137.5t-55 189t1.5 206.5l52 335q18 112 57.5 216.5t105 186.5t160.5 129t223 43q130 -3 212 -59.5t121 -152t35 -219.5l-115 1q3 90 -21 162.5t-81.5 115t-156.5 45.5
q-103 4 -177 -35t-124 -107t-79.5 -151.5t-44.5 -172.5l-52 -338q-11 -78 -6.5 -160.5t32.5 -154.5t86.5 -117t156.5 -45q61 -2 117.5 12t108 41.5t97.5 66.5l67 379h-310l20 107h421z" />
    <glyph glyph-name="H" unicode="H" horiz-adv-x="1222" 
d="M998 805l-20 -108h-708l20 108h708zM430 1456l-253 -1456h-115l253 1456h115zM1203 1456l-253 -1456h-115l254 1456h114z" />
    <glyph glyph-name="I" unicode="I" horiz-adv-x="486" 
d="M450 1456l-253 -1456h-114l253 1456h114z" />
    <glyph glyph-name="J" unicode="J" horiz-adv-x="958" 
d="M660 432l174 1024h114l-175 -1022q-16 -115 -67.5 -221.5t-141 -172t-220.5 -62.5q-122 5 -192.5 65t-95.5 155.5t-14 203.5h115q-8 -74 4.5 -145.5t58 -119.5t133.5 -51q96 -3 159.5 50t99.5 134t48 162z" />
    <glyph glyph-name="K" unicode="K" 
d="M430 1456l-253 -1456h-115l253 1456h115zM1164 1457l-625 -669l-323 -319l15 154l244 256l539 577zM814 0l-364 753l82 97l409 -850h-127z" />
    <glyph glyph-name="L" unicode="L" horiz-adv-x="922" 
d="M777 107l-19 -107h-614l19 107h614zM431 1456l-253 -1456h-116l253 1456h116z" />
    <glyph glyph-name="M" unicode="M" horiz-adv-x="1486" 
d="M352 1456h109l205 -1276l649 1277h119l-749 -1457h-88zM315 1456h101l-131 -827l-108 -629h-115zM1367 1456h102l-253 -1456h-115l111 638z" />
    <glyph glyph-name="N" unicode="N" horiz-adv-x="1225" 
d="M1207 1456l-252 -1456h-112l-450 1243l-215 -1243h-116l253 1456h112l451 -1243l215 1243h114z" />
    <glyph glyph-name="O" unicode="O" horiz-adv-x="1173" 
d="M1091 885l-50 -313q-17 -113 -57 -220t-106.5 -192.5t-162 -134.5t-224.5 -46q-122 4 -199.5 57t-118 139.5t-51 189.5t2.5 205l50 316q17 110 57.5 217.5t107 192.5t161.5 134.5t223 45.5q124 -3 202 -56t118.5 -138.5t50.5 -189t-4 -207.5zM928 570l50 320
q9 77 6.5 160t-28 153t-83 115t-155.5 49q-104 3 -179 -38t-126 -111t-81 -156.5t-43 -174.5l-49 -317q-11 -79 -7 -161t29 -153.5t82.5 -117.5t154.5 -49q106 -3 180.5 37.5t125.5 111t80.5 157t42.5 175.5z" />
    <glyph glyph-name="P" unicode="P" horiz-adv-x="1071" 
d="M585 592h-344l20 108l328 -3q101 1 175.5 43t120 116t55.5 172q9 83 -10.5 154t-70.5 116.5t-144 50.5h-304l-234 -1349h-115l253 1456l404 -1q123 -4 201 -61.5t111.5 -153.5t22.5 -212q-12 -132 -72 -230t-162 -152.5t-235 -53.5z" />
    <glyph glyph-name="Q" unicode="Q" horiz-adv-x="1173" 
d="M670 116l232 -298l-86 -73l-230 293zM1087 885l-50 -312q-17 -114 -57 -221t-107 -192.5t-162 -135t-224 -45.5q-122 4 -200 57.5t-119 139.5t-50.5 189t4.5 206l49 314q16 111 57 218.5t107 192.5t162 134.5t224 45.5q123 -3 200.5 -55.5t118 -139t51 -189.5t-3.5 -207z
M925 571l49 319q9 77 7 160t-28 153t-83.5 115t-156.5 49q-103 3 -177.5 -38t-126 -111.5t-81.5 -156.5t-43 -174l-48 -316q-10 -79 -7 -161t28 -154t82 -118t155 -49q104 -3 180 37.5t126.5 111t80 157.5t43.5 176z" />
    <glyph glyph-name="R" unicode="R" horiz-adv-x="1092" 
d="M313 1456l379 -1q124 -4 203.5 -59.5t114 -149t23.5 -211.5q-10 -104 -53.5 -185.5t-115.5 -138t-169 -89.5l-40 -17l-414 1l17 107l327 -1q93 0 165 44.5t115.5 117t53.5 162.5q9 84 -12 153.5t-74.5 113t-142.5 46.5h-281l-234 -1349h-115zM787 0l-189 651l115 1
l197 -638l-1 -14h-122z" />
    <glyph glyph-name="S" unicode="S" horiz-adv-x="1027" 
d="M789 368q8 66 -9 116t-53 86t-85.5 63.5t-106.5 49.5q-69 30 -130 65.5t-106 83.5t-68 111t-15 147q6 89 45 161t101 123.5t139.5 77.5t164.5 24q122 -3 203.5 -64t117.5 -158.5t25 -211.5l-112 -1q8 84 -13.5 158t-77 121t-150.5 49q-85 2 -155.5 -31.5t-117 -96.5
t-56.5 -147q-7 -63 10.5 -109.5t53.5 -81.5t83.5 -61.5t100.5 -46.5q74 -29 136.5 -66.5t107.5 -88.5t67 -117t14 -153q-8 -92 -47.5 -165.5t-103 -124t-143.5 -77t-170 -24.5q-94 4 -168.5 36.5t-124.5 92.5t-72.5 139t-13.5 171l114 -1q-7 -69 7.5 -129t48.5 -104.5
t88.5 -69.5t127.5 -28q87 -2 161 32t123 97.5t59 152.5z" />
    <glyph glyph-name="T" unicode="T" horiz-adv-x="1035" 
d="M724 1456l-254 -1456h-113l253 1456h114zM1125 1456l-19 -107h-917l21 107h915z" />
    <glyph glyph-name="U" unicode="U" horiz-adv-x="1134" 
d="M1023 1456h116l-175 -1024q-21 -134 -82.5 -237.5t-164 -161.5t-244.5 -55q-135 3 -217.5 63t-115.5 161t-18 228l174 1026h113l-173 -1027q-11 -94 8 -170t76.5 -122.5t160.5 -50.5q109 -4 186 40t122.5 122t60.5 181z" />
    <glyph glyph-name="V" unicode="V" horiz-adv-x="1075" 
d="M475 188l566 1269h128l-670 -1457h-95zM300 1456l169 -1280l11 -176h-87l-213 1456h120z" />
    <glyph glyph-name="W" unicode="W" horiz-adv-x="1533" 
d="M434 387l420 1069l95 1l-120 -327l-446 -1130h-89zM316 1456l46 -1063l1 -393h-87l-72 1456h112zM1117 403l373 1054h118l-527 -1457h-94zM956 1456l83 -1077l17 -379h-84l-86 1118l-17 338h87z" />
    <glyph glyph-name="X" unicode="X" horiz-adv-x="1065" 
d="M340 1456l228 -611l420 612h140l-506 -725l284 -732h-128l-236 631l-434 -631h-141l522 745l-276 711h127z" />
    <glyph glyph-name="Y" unicode="Y" horiz-adv-x="1039" 
d="M315 1456l211 -787l489 788l138 -1l-588 -915l-94 -541h-114l97 555l-265 901h126z" />
    <glyph glyph-name="Z" unicode="Z" horiz-adv-x="1038" 
d="M864 107l-19 -107h-817l20 107h816zM1057 1366l-994 -1366h-73l16 102l988 1354h75zM1025 1456l-20 -107h-764l18 107h766z" />
    <glyph glyph-name="bracketleft" unicode="[" horiz-adv-x="447" 
d="M594 1664l-17 -104h-167l-277 -1767h169l-17 -105h-278l309 1976h278z" />
    <glyph glyph-name="backslash" unicode="\" horiz-adv-x="701" 
d="M429 -124l-220 1580h101l221 -1580h-102z" />
    <glyph glyph-name="bracketright" unicode="]" horiz-adv-x="447" 
d="M170 1560l18 104h278l-309 -1976h-279l16 105h169l276 1767h-169z" />
    <glyph glyph-name="asciicircum" unicode="^" horiz-adv-x="734" 
d="M500 1322l-290 -593h-111l371 727h72zM567 730l-89 605l1 122h71l117 -727h-100z" />
    <glyph glyph-name="underscore" unicode="_" horiz-adv-x="764" 
d="M643 0l-19 -104h-725l19 104h725z" />
    <glyph glyph-name="grave" unicode="`" horiz-adv-x="567" 
d="M385 1536l141 -280h-99l-178 280h136z" />
    <glyph glyph-name="a" unicode="a" horiz-adv-x="936" 
d="M608 194l95 592q6 65 -10.5 113t-58.5 73.5t-111 26.5q-66 2 -120.5 -25t-89.5 -75.5t-48 -114.5h-109q9 71 42.5 130.5t85.5 102t116 65.5t136 22q99 -2 163.5 -42t93.5 -112t20 -169l-90 -553q-9 -56 -9 -108t1 -107l-1 -13h-114q-4 49 -1.5 97t9.5 97zM708 632
l-14 -95l-182 2q-61 -1 -120.5 -14.5t-109 -43.5t-81.5 -78.5t-39 -115.5q-6 -57 8 -102t50 -71t96 -27q78 -1 141.5 29.5t111.5 84.5t76 122l21 -68q-21 -59 -56 -109.5t-83.5 -89t-106 -59t-121.5 -20.5q-89 1 -146 41.5t-83.5 108t-20.5 151.5q6 90 45 156.5t102 110.5
t141 66t162 22z" />
    <glyph glyph-name="b" unicode="b" horiz-adv-x="966" 
d="M305 1536h112l-232 -1332l-44 -204h-103zM858 591l-13 -100q-11 -87 -37.5 -179t-73.5 -168.5t-121 -122.5t-180 -42q-79 3 -134.5 38t-90.5 90.5t-49 124t-11 139.5l49 323q15 74 46.5 148t81.5 133.5t116.5 94.5t151.5 34q104 -3 163 -52.5t83.5 -126t26 -165
t-7.5 -169.5zM735 490l12 102q7 59 8.5 128.5t-12.5 132t-56 103.5t-123 43q-60 1 -112 -22.5t-93 -63.5t-69 -91.5t-43 -105.5l-59 -372q-3 -69 26 -126.5t81.5 -93.5t121.5 -38q85 -4 142.5 32t92.5 97.5t54.5 133t28.5 141.5z" />
    <glyph glyph-name="c" unicode="c" horiz-adv-x="901" 
d="M389 83q82 -3 137.5 29.5t90 91t52.5 131.5h102q-17 -100 -68 -182.5t-132 -130t-188 -44.5t-172 47.5t-97.5 117.5t-39 160.5t3.5 175.5l16 124q13 96 44 187t85 162.5t134 113t190 36.5q111 -3 176.5 -57.5t92 -142t20.5 -186.5l-106 1q5 69 -10 132t-57.5 104.5
t-122.5 44.5q-86 4 -146 -29.5t-98.5 -92t-60.5 -130t-31 -143.5l-16 -124q-7 -64 -6.5 -132.5t18 -127.5t63 -96t126.5 -40z" />
    <glyph glyph-name="d" unicode="d" horiz-adv-x="969" 
d="M647 217l229 1319h111l-268 -1536h-103zM89 490l13 99q11 90 37.5 182.5t74.5 169t122 121t182 41.5q81 -4 136.5 -41t88 -97t46 -131t9.5 -140l-49 -323q-14 -76 -46 -147t-81.5 -127t-116.5 -89t-150 -30q-103 3 -160.5 52.5t-83 128t-28.5 166.5t6 165zM212 591
l-11 -103q-7 -58 -9 -127t13.5 -131t56.5 -102.5t121 -42.5q75 -3 140 32t111 95t65 132l61 372q1 52 -12.5 100.5t-42.5 88.5t-72 65t-98 26q-85 5 -143.5 -31.5t-94.5 -97.5t-56 -133t-29 -143z" />
    <glyph glyph-name="e" unicode="e" horiz-adv-x="910" 
d="M396 -21q-104 2 -171.5 45t-103.5 113.5t-47 157t-1 174.5l15 126q12 92 45.5 183.5t88 166.5t135.5 118.5t188 38.5q100 -3 161 -46t89.5 -111.5t34.5 -152.5t-4 -167l-13 -93h-668l18 104l554 1l5 29q9 72 -1 148t-51.5 128t-131.5 57q-86 3 -147 -32t-99.5 -95
t-61 -133.5t-31.5 -143.5l-15 -126q-7 -64 -2.5 -131.5t27 -123.5t70 -91.5t127.5 -37.5q80 -3 145.5 28t122.5 86l51 -75q-41 -51 -93.5 -83t-112 -47.5t-123.5 -14.5z" />
    <glyph glyph-name="f" unicode="f" horiz-adv-x="597" 
d="M220 0h-109l206 1216q12 88 48.5 168t102.5 129t166 48q30 -2 58 -7t55 -13l-20 -102q-22 7 -44 11t-47 4q-66 1 -108.5 -34.5t-66.5 -91t-33 -111.5zM616 1082l-19 -100h-461l18 100h462z" />
    <glyph glyph-name="g" unicode="g" horiz-adv-x="967" 
d="M805 1082h103l-189 -1107q-16 -116 -65 -210t-134.5 -147t-213.5 -50q-57 3 -112 21.5t-102 52t-81 80.5l60 77q42 -56 100.5 -90t131.5 -37q95 -4 158.5 34t99 107t47.5 155l148 878zM88 490l13 99q13 91 39 183t73.5 168.5t122.5 121.5t183 41q81 -4 135.5 -40.5
t88 -97t46 -131.5t9.5 -140l-49 -323q-14 -75 -46 -146.5t-81 -127.5t-116.5 -89t-150.5 -30q-102 3 -160 52t-84 128t-28.5 166.5t5.5 165.5zM212 591l-12 -103q-7 -58 -8.5 -127t13.5 -131t56.5 -102.5t122.5 -41.5q75 -4 139.5 31.5t109.5 95t65 130.5l60 372
q2 53 -12 101.5t-42.5 88.5t-71 65t-97.5 26q-85 5 -143 -31.5t-94.5 -97t-56.5 -133t-29 -143.5z" />
    <glyph glyph-name="h" unicode="h" horiz-adv-x="955" 
d="M416 1536l-266 -1536h-111l267 1536h110zM231 608l-39 25q13 79 44 162t80.5 154t121 113.5t165.5 40.5q82 -2 131.5 -39t72 -95.5t26.5 -127.5t-4 -136l-117 -705h-110l118 708q6 62 1 129t-38.5 113t-114.5 49q-73 1 -130.5 -36t-99 -97.5t-68 -128.5t-39.5 -129z" />
    <glyph glyph-name="i" unicode="i" horiz-adv-x="420" 
d="M349 1082l-188 -1082h-110l188 1082h110zM276 1393q3 37 23.5 56.5t53.5 28.5q34 -7 52.5 -26.5t15.5 -57.5q-3 -36 -23.5 -55t-53.5 -26q-33 6 -51.5 25t-16.5 55z" />
    <glyph glyph-name="j" unicode="j" horiz-adv-x="424" 
d="M234 1082h113l-206 -1211q-11 -78 -42 -151t-89 -118t-150 -42q-25 1 -48 7t-46 13l14 103q17 -6 36 -11t37 -6q59 -1 95 30.5t54.5 78t26.5 96.5zM273 1393q1 32 21.5 57.5t53.5 27.5q33 0 52.5 -26t15.5 -58q-2 -31 -23 -55.5t-54 -25.5t-51.5 23.5t-14.5 56.5z" />
    <glyph glyph-name="k" unicode="k" horiz-adv-x="862" 
d="M416 1536l-266 -1536h-111l267 1536h110zM892 1083l-495 -505l-225 -214l9 133l173 184l392 402h146zM607 0l-264 568l74 100l313 -668h-123z" />
    <glyph glyph-name="l" unicode="l" horiz-adv-x="420" 
d="M428 1536l-267 -1536h-110l267 1536h110z" />
    <glyph glyph-name="m" unicode="m" horiz-adv-x="1516" 
d="M294 854l-148 -854h-112l188 1082h107zM230 608l-42 25q14 81 44.5 164.5t78.5 153.5t119 112t168 40q79 -2 128.5 -36.5t74 -90.5t30 -123t-1.5 -133l-120 -720h-109l118 717q7 65 -1 129.5t-45 108t-116 43.5q-77 3 -133 -34t-93.5 -97t-62 -128.5t-37.5 -130.5z
M832 702l-74 -4q14 75 46 148.5t81.5 131.5t117 92.5t153.5 33.5q82 -3 133 -39t76 -93.5t30 -127t-2 -138.5l-118 -706h-112l118 709q7 63 0 130t-42 112.5t-116 47.5q-61 0 -110.5 -26t-86 -68.5t-60 -95.5t-34.5 -107z" />
    <glyph glyph-name="n" unicode="n" horiz-adv-x="957" 
d="M297 852l-147 -852h-111l188 1082h106zM231 608l-39 25q13 79 44 162t80.5 154t121 113.5t165.5 40.5q82 -2 131.5 -39t72 -95.5t26.5 -127.5t-4 -136l-117 -705h-110l118 708q6 62 1 129t-38.5 113t-114.5 49q-73 1 -130.5 -36t-99 -97.5t-68 -128.5t-39.5 -129z" />
    <glyph glyph-name="o" unicode="o" horiz-adv-x="975" 
d="M87 485l13 111q13 94 46 185t89 165.5t137 117.5t187 39q104 -3 169 -49.5t99 -121.5t43.5 -162t-0.5 -173l-14 -112q-13 -93 -46.5 -184.5t-89.5 -165.5t-136.5 -117t-188.5 -40q-103 3 -168 50t-98.5 122t-43 162t1.5 173zM212 597l-15 -115q-6 -59 -3.5 -127.5
t22.5 -129t65 -100t122 -42.5q84 -4 145 32t101 96t63.5 132t32.5 142l15 113q7 60 3.5 127.5t-23.5 129t-65.5 101.5t-122.5 43q-82 3 -141.5 -33t-101 -97t-65.5 -132t-32 -140z" />
    <glyph glyph-name="p" unicode="p" horiz-adv-x="966" 
d="M299 868l-222 -1284h-111l260 1498h103zM857 591l-13 -100q-12 -88 -38 -179.5t-73 -167.5t-121 -122.5t-180 -42.5q-77 3 -134 36t-93 87t-51.5 121.5t-11.5 137.5l49 334q15 73 47.5 147t82.5 134t118 95t153 32q104 -2 162.5 -51t83.5 -126t26.5 -165t-7.5 -170z
M735 490l13 103q6 60 7.5 128.5t-14.5 131t-58.5 103.5t-122.5 43q-61 1 -113 -22.5t-92.5 -63.5t-69.5 -91.5t-43 -105.5l-62 -382q-1 -67 29 -123t82.5 -90.5t119.5 -36.5q85 -5 144 32t95 98t56 133.5t29 142.5z" />
    <glyph glyph-name="q" unicode="q" horiz-adv-x="974" 
d="M536 -416l225 1297l43 201h103l-261 -1498h-110zM88 489l13 101q12 91 38.5 183t74 168.5t123 121t183.5 40.5q80 -4 136.5 -40.5t90 -96.5t47.5 -131t10 -141l-49 -323q-15 -75 -47.5 -146t-83 -128t-117.5 -89t-151 -30q-101 4 -160 53t-85 127t-28.5 165.5t5.5 165.5z
M212 591l-12 -103q-7 -58 -8.5 -126.5t13.5 -132t57 -104t122 -42.5q76 -3 142 32.5t112.5 96t65.5 132.5l61 371q2 52 -12.5 101.5t-44.5 90t-73 64.5t-97 27q-86 4 -144 -31.5t-94.5 -97.5t-57 -134.5t-30.5 -143.5z" />
    <glyph glyph-name="r" unicode="r" horiz-adv-x="601" 
d="M307 905l-157 -905h-111l188 1082h108zM641 1090l-16 -110q-18 3 -34.5 5.5t-32.5 2.5q-76 2 -130 -32t-91 -89.5t-61 -121t-39 -126.5l-41 -17q13 76 36.5 164t65.5 167t108.5 127.5t164.5 44.5q18 0 35.5 -4.5t34.5 -10.5z" />
    <glyph glyph-name="s" unicode="s" horiz-adv-x="888" 
d="M612 274q8 59 -22.5 100.5t-77.5 71.5t-91 53q-48 27 -94.5 54.5t-83.5 62.5t-58 81.5t-17 108.5q4 68 34 123.5t77.5 94.5t108 59.5t128.5 18.5q93 -2 160 -42t101 -111.5t27 -161.5l-109 -1q3 60 -17.5 107.5t-63.5 75t-104 28.5q-59 1 -109.5 -20.5t-84 -64
t-40.5 -101.5q-5 -43 10.5 -75t44 -56t63 -43t65.5 -36q68 -35 130 -75.5t99.5 -98.5t32.5 -145q-4 -73 -35 -130t-81 -96t-114 -58t-133 -18q-94 2 -166 41.5t-111 109.5t-32 166l111 -1q-3 -67 20 -114t69.5 -71.5t114.5 -25.5q58 0 112.5 20.5t91.5 63.5t44 105z" />
    <glyph glyph-name="t" unicode="t" horiz-adv-x="577" 
d="M571 1082l-18 -100h-451l18 100h451zM329 1359h111l-185 -1097q-3 -32 -3 -71.5t16 -69t60 -30.5q20 -1 39.5 2t38.5 6l-6 -103q-26 -7 -51 -10.5t-51 -3.5q-75 1 -109.5 47t-42 111t-1.5 125z" />
    <glyph glyph-name="u" unicode="u" horiz-adv-x="956" 
d="M645 254l143 828h110l-188 -1082h-107zM700 452l50 2q-14 -87 -41 -173t-74 -155.5t-119.5 -110t-175.5 -36.5q-84 1 -134 40t-74 100t-28 132t3 138l116 693h111l-116 -696q-3 -44 -3.5 -94.5t13 -96.5t45.5 -76t89 -33q109 -4 177 50t106 139t55 177z" />
    <glyph glyph-name="v" unicode="v" horiz-adv-x="843" 
d="M330 122l423 961h119l-497 -1083h-85zM236 1082l129 -974l-3 -108h-77l-158 1082h109z" />
    <glyph glyph-name="w" unicode="w" horiz-adv-x="1297" 
d="M322 251l356 831l86 1l-79 -226l-371 -857h-80zM260 1082l45 -832l-9 -250h-76l-68 1082h108zM869 256l326 827h116l-446 -1083h-81zM774 1082l69 -830l4 -252h-74l-80 868l3 214h78z" />
    <glyph glyph-name="x" unicode="x" horiz-adv-x="855" 
d="M269 1082l160 -432l297 433l136 -1l-384 -538l221 -544h-122l-170 453l-311 -453h-137l400 557l-211 525h121z" />
    <glyph glyph-name="y" unicode="y" horiz-adv-x="831" 
d="M324 125l431 958h121l-585 -1257q-20 -47 -46 -94t-60 -86.5t-79.5 -63t-103.5 -22.5q-21 0 -42.5 4t-42.5 10l12 103q12 -3 24 -5.5t26 -3.5q60 -2 103 27t72.5 75.5t51.5 96.5zM245 1082l111 -933l7 -124l-86 -49l-147 1106h115z" />
    <glyph glyph-name="z" unicode="z" horiz-adv-x="855" 
d="M703 105l-20 -105h-658l18 105h660zM821 992l-763 -992h-69l15 97l759 985h72zM790 1082l-19 -105h-601l18 105h602z" />
    <glyph glyph-name="braceleft" unicode="{" horiz-adv-x="593" 
d="M679 1601l22 -84q-121 -50 -176.5 -156t-73.5 -229l-31 -226q-12 -102 -54.5 -177.5t-115 -118t-179.5 -46.5l10 83q113 5 163.5 80.5t64.5 178.5l31 226q15 109 53.5 201t107.5 160t178 108zM424 -322l-30 -79q-96 39 -147 110.5t-65.5 162.5t-4.5 188l31 228
q5 60 -1.5 116t-38.5 94t-102 44l8 82q96 -3 152 -51t78 -123t13 -164l-30 -226q-9 -74 -5 -148t37 -136t105 -98z" />
    <glyph glyph-name="bar" unicode="|" horiz-adv-x="439" 
d="M408 1456l-270 -1726h-102l270 1726h102z" />
    <glyph glyph-name="braceright" unicode="}" horiz-adv-x="593" 
d="M173 1516l28 80q96 -40 146 -113t64.5 -163.5t2.5 -187.5l-29 -228q-6 -60 0.5 -115.5t38 -94t102.5 -43.5l-8 -77q-94 4 -151 49.5t-79.5 120t-13.5 162.5l30 228q9 69 6 144.5t-34 139t-103 98.5zM-87 -406l-24 86q80 33 131.5 91t79.5 132.5t40 156.5l31 226
q13 102 54.5 176t115 116.5t179.5 44.5l-8 -78q-114 -5 -164.5 -80.5t-66.5 -178.5l-30 -226q-14 -109 -53.5 -200t-109 -158.5t-175.5 -107.5z" />
    <glyph glyph-name="asciitilde" unicode="~" horiz-adv-x="1180" 
d="M977 765l87 2q-6 -58 -25 -118.5t-52.5 -112.5t-83.5 -84t-119 -31q-76 2 -131 46.5t-101 99.5q-32 39 -69 75t-92 39q-63 1 -100 -36t-55 -90t-27 -103l-97 -4q7 60 26.5 120.5t53.5 111.5t84.5 82t118.5 29q77 -1 132 -46t101 -100q32 -40 69.5 -76.5t93.5 -38.5
q62 -1 99.5 36.5t57.5 92.5t29 106z" />
    <glyph glyph-name="uni00A0" unicode="&#xa0;" horiz-adv-x="457" 
 />
    <glyph glyph-name="exclamdown" unicode="&#xa1;" horiz-adv-x="415" 
d="M-13 -360l188 1050h102l-175 -1050h-115zM351 1023q-1 -33 -22 -58t-54 -25q-35 -2 -53 23.5t-16 58.5q3 32 23 56t54 26q35 0 53 -25t15 -56z" />
    <glyph glyph-name="cent" unicode="&#xa2;" horiz-adv-x="950" 
d="M670 1318l-48 -269h-110l48 269h110zM446 23l-49 -268h-109l47 268h111zM409 84q75 -3 131 32t92.5 93t53.5 126h104q-17 -95 -69 -177.5t-133.5 -132t-184.5 -46.5q-106 3 -170.5 55t-95.5 133.5t-37 174t3 175.5l5 43q10 92 42 188.5t87.5 178t136.5 131t189 44.5
q108 -3 174 -59t94.5 -143.5t22.5 -183.5l-104 1q3 66 -14.5 128.5t-60.5 106t-118 47.5q-86 3 -147 -38.5t-100.5 -109.5t-62 -145t-31.5 -146l-5 -42q-7 -59 -7 -132t17.5 -141t61.5 -113t126 -48z" />
    <glyph glyph-name="sterling" unicode="&#xa3;" horiz-adv-x="995" 
d="M814 0h-821l20 107h820zM639 644h-537l19 108h537zM419 1038l-92 -666q-10 -85 -38.5 -165.5t-93.5 -139.5l-104 40q44 20 68 65.5t36.5 99.5t17.5 98l94 669q14 107 61.5 209t131 167.5t205.5 61.5q109 -4 171.5 -60.5t86.5 -145t16 -183.5h-115q7 65 -5 129
t-51.5 107.5t-118.5 45.5q-87 4 -143.5 -49.5t-86.5 -132t-40 -150.5z" />
    <glyph glyph-name="currency" unicode="&#xa4;" horiz-adv-x="1437" 
d="M254 600q-12 -92 7 -181t68 -161t124.5 -117t175.5 -47q106 -3 201 39t169.5 117.5t123 169.5t61.5 196q12 92 -8 181t-68 161t-123 116t-175 46q-107 4 -201.5 -38.5t-169.5 -117t-123 -169t-62 -195.5zM142 600q15 126 72.5 241.5t147.5 205t206.5 140.5t248.5 49
q125 -4 220 -56.5t158 -140.5t89.5 -197t12.5 -226q-15 -126 -72.5 -241.5t-148.5 -205.5t-207 -141t-247 -49q-125 3 -220.5 56.5t-158.5 141.5t-89 197.5t-12 225.5zM1436 1169l-228 -199l-75 96l228 199zM313 174l-227 -200l-73 95l228 200zM1147 -28l-166 213l95 85
l167 -214zM372 970l-167 212l94 83l166 -213z" />
    <glyph glyph-name="yen" unicode="&#xa5;" horiz-adv-x="903" 
d="M812 708l-17 -92h-683l16 92h684zM760 415l-16 -91h-683l18 91h681zM450 708l434 749h133l-508 -840l-82 -1zM307 1457l182 -759l-10 -82l-76 1l-213 839zM530 733l-128 -733h-115l128 733h115z" />
    <glyph glyph-name="brokenbar" unicode="&#xa6;" horiz-adv-x="432" 
d="M122 -270h-119l134 773h121zM422 1456l-132 -758h-119l132 758h119z" />
    <glyph glyph-name="section" unicode="&#xa7;" horiz-adv-x="1052" 
d="M504 130l10 80q70 4 130.5 29.5t102 74.5t50.5 121q8 65 -12 111t-59 79.5t-89 58t-103 44.5q-68 28 -127 60.5t-100 76.5t-61.5 105t-13.5 142q7 87 44.5 155t97 115.5t134.5 71.5t158 22q126 -3 202 -62t107 -156t20 -213h-110q8 79 -10.5 153.5t-71 122.5t-143.5 52
q-81 2 -149.5 -28t-113 -88.5t-54.5 -141.5q-7 -64 9.5 -109t50.5 -76t81 -54.5t100 -44.5q71 -28 133 -61t107.5 -77.5t68.5 -106.5t17 -147q-7 -82 -42.5 -140t-93 -94.5t-127 -54.5t-143.5 -20zM486 856l-10 -80q-72 -3 -128.5 -30t-93 -77t-45.5 -124q-8 -67 10.5 -113
t55.5 -78.5t86.5 -56t105.5 -43.5q68 -28 127.5 -61t101 -76.5t62 -104.5t14.5 -142q-7 -88 -43.5 -157t-96 -115.5t-134.5 -71t-160 -21.5q-97 2 -166 35t-113 92t-61.5 137t-8.5 167l110 2q-7 -64 4 -123.5t40 -105t79 -72t122 -27.5q80 -2 148.5 28.5t114 88.5t55.5 141
q7 61 -10.5 104.5t-52 76t-81 56t-96.5 41.5q-72 27 -135 61.5t-108 79.5t-67.5 108.5t-17.5 146.5q8 81 41.5 139.5t87.5 96.5t121.5 56.5t141.5 21.5z" />
    <glyph glyph-name="dieresis" unicode="&#xa8;" horiz-adv-x="856" 
d="M258 1395q2 34 26.5 58t58.5 26q33 -1 56 -24.5t21 -58.5q-3 -34 -27.5 -57.5t-58.5 -24.5q-35 0 -57 23t-19 58zM682 1394q1 34 25.5 58.5t58.5 26.5q35 -1 57.5 -24.5t19.5 -59.5q-1 -35 -26 -58t-58 -24q-35 0 -57.5 23t-19.5 58z" />
    <glyph glyph-name="copyright" unicode="&#xa9;" horiz-adv-x="1589" 
d="M995 605l95 2q-17 -144 -103.5 -232t-237.5 -83q-105 3 -169 60.5t-89 145.5t-17 182l9 97q12 101 58 190.5t125 145t189 53.5q142 -4 212 -90.5t59 -224.5l-98 1q9 96 -32 158t-144 65q-83 1 -139 -43t-87 -112.5t-41 -140.5l-10 -101q-6 -64 6 -130.5t53.5 -113
t119.5 -49.5q110 -4 166 58.5t75 161.5zM211 721q-16 -121 10 -236t90 -208.5t163.5 -150t229.5 -58.5q139 -4 260.5 50.5t217 149t156.5 216t78 252.5q15 121 -11.5 236t-90.5 208t-163.5 149.5t-230.5 58.5q-137 3 -258.5 -51t-217.5 -148.5t-157 -215t-76 -252.5z
M124 722q17 149 84.5 286t175 243.5t244.5 167.5t293 57q149 -2 264.5 -65t191.5 -167.5t108.5 -236t16.5 -272.5q-16 -148 -84.5 -285t-175 -244t-244.5 -168.5t-294 -58.5q-149 2 -264.5 65.5t-191.5 169.5t-108 237.5t-16 270.5z" />
    <glyph glyph-name="ordfeminine" unicode="&#xaa;" horiz-adv-x="779" 
d="M571 861l51 342q4 38 -0.5 78t-25.5 68t-68 29q-71 3 -112 -36.5t-55 -103.5l-99 6q11 70 47.5 123.5t93 83t129.5 27.5q77 -2 121 -43.5t59.5 -104.5t9.5 -130l-48 -314q-8 -46 -10.5 -91t2.5 -91h-98q-7 78 3 157zM645 1142l-13 -85l-131 1q-49 -1 -92.5 -17t-72 -49
t-33.5 -87q-5 -53 21.5 -86.5t82.5 -33.5q42 1 82 22.5t69 56t42 73.5l7 -82q-20 -45 -53 -83t-75.5 -60.5t-94.5 -22.5q-93 -1 -140 61.5t-43 150.5q4 85 47 138t109.5 78.5t145.5 25.5z" />
    <glyph glyph-name="guillemotleft" unicode="&#xab;" horiz-adv-x="813" 
d="M511 927l-295 -394h-109v13l302 381h102zM210 541l164 -394l-92 1l-179 378l1 15h106zM766 927l-295 -394h-109v13l302 381h102zM465 541l164 -394l-92 1l-179 378l1 15h106z" />
    <glyph glyph-name="logicalnot" unicode="&#xac;" horiz-adv-x="952" 
d="M818 778l-20 -109h-666l19 109h667zM808 717l-58 -331h-111l58 331h111z" />
    <glyph glyph-name="uni00AD" unicode="&#xad;" horiz-adv-x="514" 
d="M467 694l-18 -104h-394l19 104h393z" />
    <glyph glyph-name="registered" unicode="&#xae;" horiz-adv-x="1593" 
d="M840 666h-235l11 94l209 -2q49 1 95 18.5t77.5 52t37.5 88.5q8 59 -13.5 91t-62 45t-93.5 15l-159 1l-118 -748h-98l133 841l242 -2q75 -1 137 -26.5t98 -77.5t30 -136q-4 -67 -36 -109.5t-81 -69t-104 -49.5q-3 -1 -6.5 -2t-6.5 -3q-11 -7 -19 -11.5t-17 -6.5t-21 -3z
M821 666l20 66q106 -2 164 -57.5t49 -164.5l-6 -47q-4 -32 -2 -63t2 -63l-2 -17h-98q-5 37 -2.5 73t6.5 73l4 45q8 80 -24 114.5t-111 40.5zM204 722q-14 -121 11.5 -237t90.5 -209t164.5 -149.5t231.5 -59.5q137 -3 259 52t217.5 149.5t156.5 215.5t77 252
q16 121 -11 236.5t-91 208.5t-163.5 149t-231.5 58q-137 3 -259 -51.5t-217.5 -148.5t-156.5 -214.5t-78 -251.5zM119 722q17 149 85 286t175.5 243.5t244.5 167.5t293 57q149 -2 264.5 -65t191.5 -168t108 -236t17 -272q-18 -148 -85.5 -285t-175 -244t-244.5 -168.5
t-293 -59.5q-149 3 -264.5 66.5t-191.5 169t-108.5 237.5t-16.5 271z" />
    <glyph glyph-name="macron" unicode="&#xaf;" horiz-adv-x="761" 
d="M779 1442l-17 -100h-515l15 100h517z" />
    <glyph glyph-name="degree" unicode="&#xb0;" horiz-adv-x="751" 
d="M247 1217q3 69 39 128.5t94.5 96t128.5 36.5q66 -2 114 -36.5t74.5 -90t22.5 -116.5q-2 -68 -36.5 -127t-92.5 -95t-127 -34q-66 0 -115.5 33.5t-76.5 87.5t-25 117zM337 1218q-6 -59 30.5 -103t97.5 -44q67 0 114 49.5t53 112.5q5 60 -28.5 106.5t-95.5 46.5
q-69 0 -117.5 -50.5t-53.5 -117.5z" />
    <glyph glyph-name="plusminus" unicode="&#xb1;" horiz-adv-x="926" 
d="M875 831l-17 -104h-748l15 104h750zM629 1267l-154 -978h-102l153 978h103zM731 105l-16 -105h-685l18 105h683z" />
    <glyph glyph-name="uni00B2" unicode="&#xb2;" horiz-adv-x="653" 
d="M594 754l-16 -88h-472l15 81l278 280q28 29 59 64t54 74t28 82q5 52 -17 92t-80 40q-74 1 -112 -49t-52 -113l-95 -2q10 71 43.5 128.5t88 91.5t129.5 33q63 0 108.5 -29t69 -78t18.5 -113q-3 -61 -34 -113.5t-74 -98t-83 -86.5l-202 -196h346z" />
    <glyph glyph-name="uni00B3" unicode="&#xb3;" horiz-adv-x="653" 
d="M322 1107h64q44 2 80 18t59.5 48t27.5 77q6 56 -22.5 92t-85.5 36q-61 0 -99 -37.5t-53 -92.5l-97 -1q11 65 43.5 115.5t85 78.5t119.5 27q63 -1 111 -27.5t74 -74.5t23 -114q-3 -67 -40.5 -111.5t-94 -68t-116.5 -24.5h-85zM312 1025l7 58h75q60 -2 108.5 -23t75.5 -63
t25 -108q-3 -72 -38.5 -125.5t-93 -82t-128.5 -26.5q-69 1 -118 31t-74 81.5t-22 119.5h95q-2 -62 28.5 -101.5t95.5 -40.5q66 -1 110.5 40t51.5 107q4 44 -11 73t-45.5 42.5t-72.5 15.5z" />
    <glyph glyph-name="acute" unicode="&#xb4;" horiz-adv-x="560" 
d="M218 1256l230 281l151 -2l-269 -279h-112z" />
    <glyph glyph-name="mu" unicode="&#xb5;" horiz-adv-x="972" 
d="M797 1082h110l-188 -1082h-101l35 257zM715 503l47 2q-12 -79 -34.5 -171.5t-64 -174t-110 -132.5t-171.5 -48q-81 2 -132 43.5t-75.5 107.5t-24.5 140l13 181h74q-5 -47 -7.5 -109t7.5 -120.5t43.5 -97.5t102.5 -41q90 -4 148.5 33.5t95 101t57 138t31.5 147.5z
M234 1082h110l-262 -1498h-108z" />
    <glyph glyph-name="paragraph" unicode="&#xb6;" horiz-adv-x="837" 
d="M574 0h-109l91 520l-75 2q-129 3 -205.5 69.5t-105.5 169.5t-19 219q14 132 74 240.5t161.5 173t240.5 64.5l200 -2z" />
    <glyph glyph-name="periodcentered" unicode="&#xb7;" horiz-adv-x="455" 
d="M170 717q3 33 24.5 59t53.5 28q37 0 55.5 -26.5t17.5 -59.5q-4 -31 -25 -57t-56 -27q-34 -1 -53 25t-17 58z" />
    <glyph glyph-name="cedilla" unicode="&#xb8;" horiz-adv-x="447" 
d="M36 0h85l-21 -66q60 -14 85 -58t23 -103q-3 -57 -27 -96.5t-62.5 -63.5t-86 -36.5t-97.5 -14.5l1 82q40 2 79 14t67 39.5t33 73.5q6 40 -11 60t-46.5 28t-61.5 13z" />
    <glyph glyph-name="uni00B9" unicode="&#xb9;" horiz-adv-x="653" 
d="M548 1455l-130 -789h-101l114 655l-197 -67l18 97l281 103z" />
    <glyph glyph-name="ordmasculine" unicode="&#xba;" horiz-adv-x="792" 
d="M205 1033l10 98q10 85 47 165.5t103 132.5t160 49q94 -4 144.5 -57.5t69.5 -132.5t12 -157l-10 -98q-9 -83 -46 -163.5t-102.5 -132t-161.5 -48.5q-92 3 -143 56t-70.5 131.5t-12.5 156.5zM317 1132l-11 -100q-3 -48 3 -105t35.5 -97.5t93.5 -42.5q68 -2 110 37t64 97
t29 113l11 100q4 49 -3 105.5t-36.5 97.5t-93.5 43q-68 2 -109.5 -37t-63.5 -96.5t-29 -114.5z" />
    <glyph glyph-name="guillemotright" unicode="&#xbb;" horiz-adv-x="810" 
d="M32 162l295 392h110l-2 -13l-300 -380zM175 945h88l179 -383l-2 -16l-111 1zM295 162l295 392h110l-2 -13l-300 -380zM438 945h88l179 -383l-2 -16l-111 1z" />
    <glyph glyph-name="onequarter" unicode="&#xbc;" horiz-adv-x="1261" 
d="M535 1454l-131 -790h-101l115 656l-198 -67l17 97l282 103zM1058 1265l-772 -1135l-63 55l773 1132zM1109 277l-17 -90h-512l4 67l408 535h86l-129 -186l-255 -326h415zM1094 789l-131 -789h-101l140 789h92z" />
    <glyph glyph-name="onehalf" unicode="&#xbd;" horiz-adv-x="1316" 
d="M1022 1265l-772 -1135l-63 55l773 1132zM525 1454l-131 -790h-101l115 656l-198 -67l17 97l282 103zM1111 89l-17 -89h-472l15 83l278 279q28 29 59 64t54 74t28 82q6 53 -16.5 92.5t-81.5 39.5q-73 1 -111 -48.5t-52 -113.5l-95 -1q10 69 43 126.5t88 91.5t130 33
q63 1 108.5 -28t69 -78t18.5 -113q-3 -61 -34 -113.5t-73 -98t-83 -86.5l-202 -196h346z" />
    <glyph glyph-name="threequarters" unicode="&#xbe;" horiz-adv-x="1345" 
d="M1173 1265l-772 -1135l-63 55l773 1132zM1200 277l-17 -90h-512l4 67l408 535h86l-129 -186l-255 -326h415zM1185 789l-131 -789h-101l140 789h92zM361 1107h64q44 2 80 19t60 47.5t27 76.5q6 56 -22 92t-86 36q-61 0 -98.5 -37.5t-53.5 -92.5l-96 -1q10 66 42.5 116
t85 77.5t118.5 26.5q65 0 112.5 -26.5t74 -75t22.5 -113.5q-3 -67 -40 -112t-94 -68t-117 -25h-85zM351 1025l7 59l75 -1q61 -1 108.5 -22t75 -64t25.5 -109q-3 -71 -39 -124.5t-93.5 -82.5t-127.5 -27q-69 2 -118 31.5t-74 81.5t-22 120h96q-4 -62 27.5 -101.5t96.5 -40.5
q66 -1 110.5 40t50.5 107q4 45 -11 73.5t-45.5 43t-72.5 16.5h-69z" />
    <glyph glyph-name="questiondown" unicode="&#xbf;" horiz-adv-x="810" 
d="M379 687l104 2q-10 -73 -30 -129.5t-54.5 -107.5t-85.5 -103q-53 -53 -99 -108t-77 -117.5t-39 -140.5q-7 -62 4 -121t48.5 -98t109.5 -41q73 -2 123.5 35.5t79.5 97t41 122.5l108 2q-14 -98 -58.5 -182t-120 -135t-183.5 -48q-102 4 -164.5 57t-86.5 135t-15 175
q9 95 49 175t99 148.5t125 132.5q38 36 61.5 74t38 81.5t22.5 93.5zM561 1021q-3 -30 -23.5 -56t-53.5 -27q-34 -1 -52.5 25t-16.5 57q4 32 24.5 56.5t52.5 26.5q34 0 52 -25.5t17 -56.5z" />
    <glyph glyph-name="Agrave" unicode="&#xc0;" 
d="M700 1362l-641 -1362h-123l703 1457h85zM831 0l-174 1369l10 87h78l195 -1456h-109zM855 515l-19 -108h-640l20 108h639zM644 1850l141 -280h-99l-178 280h136z" />
    <glyph glyph-name="Aacute" unicode="&#xc1;" 
d="M700 1362l-641 -1362h-123l703 1457h85zM831 0l-174 1369l10 87h78l195 -1456h-109zM855 515l-19 -108h-640l20 108h639zM641 1570l230 281l151 -2l-269 -279h-112z" />
    <glyph glyph-name="Acircumflex" unicode="&#xc2;" 
d="M700 1362l-641 -1362h-123l703 1457h85zM831 0l-174 1369l10 87h78l195 -1456h-109zM855 515l-19 -108h-640l20 108h639zM789 1842l161 -259v-12l-98 2l-101 180l-166 -180l-97 -1l1 14l233 255z" />
    <glyph glyph-name="Atilde" unicode="&#xc3;" 
d="M700 1362l-641 -1362h-123l703 1457h85zM831 0l-174 1369l10 87h78l195 -1456h-109zM855 515l-19 -108h-640l20 108h639zM955 1816l78 -4q-6 -51 -26.5 -101.5t-58.5 -84.5t-98 -33q-35 1 -62 18.5t-50 39.5t-48.5 39.5t-58.5 15.5q-50 0 -72.5 -39t-31.5 -80l-85 4
q7 50 28 100t58.5 84t97.5 33q35 0 61.5 -17.5t50 -40.5t49 -39t59.5 -17q50 1 74.5 41t34.5 81z" />
    <glyph glyph-name="Adieresis" unicode="&#xc4;" 
d="M700 1362l-641 -1362h-123l703 1457h85zM831 0l-174 1369l10 87h78l195 -1456h-109zM855 515l-19 -108h-640l20 108h639zM447 1709q2 34 26.5 58t58.5 26q33 -1 56 -24.5t21 -58.5q-3 -34 -27.5 -57.5t-58.5 -24.5q-35 0 -57 23t-19 58zM871 1708q1 34 25.5 58.5
t58.5 26.5q35 -1 57.5 -24.5t19.5 -59.5q-1 -35 -26 -58t-58 -24q-35 0 -57.5 23t-19.5 58z" />
    <glyph glyph-name="Aring" unicode="&#xc5;" 
d="M700 1362l-641 -1362h-123l703 1457h85zM831 0l-174 1369l10 87h78l195 -1456h-109zM855 515l-19 -108h-640l20 108h639zM553 1708q2 54 29 100t71.5 73.5t100.5 27.5q77 0 127 -54.5t48 -130.5q-2 -55 -29 -100t-72.5 -71t-99.5 -26q-76 0 -126 52t-49 129zM629 1711
q-5 -45 22.5 -78t73.5 -33q50 1 86 37t41 85q5 45 -21 80t-73 34q-52 -1 -88 -39t-41 -86z" />
    <glyph glyph-name="AE" unicode="&#xc6;" horiz-adv-x="1567" 
d="M939 1350l-877 -1350h-142l971 1457h81zM876 504l-21 -116h-578l22 116h577zM1430 105l-18 -105h-601l19 105h600zM1045 1456l-201 -1456h-111l202 1456h110zM1437 811l-19 -104h-516l18 104h517zM1614 1456l-19 -104h-599l19 104h599z" />
    <glyph glyph-name="Ccedilla" unicode="&#xc7;" horiz-adv-x="1123" 
d="M877 454l109 1q-25 -137 -87 -246.5t-165.5 -171.5t-253.5 -58q-121 4 -196 59.5t-112.5 145t-46 192.5t4.5 201l51 312q16 109 56 215.5t105 191t159.5 135t219.5 46.5q142 -4 222.5 -69.5t113 -173t26.5 -234.5h-113q3 95 -15 178.5t-74 136t-166 56.5
q-101 2 -174.5 -39.5t-123.5 -112.5t-80 -156.5t-43 -171.5l-48 -314q-11 -74 -9.5 -157t24.5 -158t76.5 -124t150.5 -52q121 -5 197.5 42.5t121 132.5t70.5 193zM426 -10h85l-21 -66q60 -14 85 -58t23 -103q-3 -57 -27 -96.5t-62.5 -63.5t-86 -36.5t-97.5 -14.5l1 82
q40 2 79 14t67 39.5t33 73.5q6 40 -11 60t-46.5 28t-61.5 13z" />
    <glyph glyph-name="Egrave" unicode="&#xc8;" horiz-adv-x="988" 
d="M826 107l-20 -107h-663l19 107h664zM430 1456l-253 -1456h-115l253 1456h115zM863 805l-19 -108h-580l20 108h579zM1054 1456l-20 -107h-657l19 107h658zM622 1856l141 -280h-99l-178 280h136z" />
    <glyph glyph-name="Eacute" unicode="&#xc9;" horiz-adv-x="988" 
d="M826 107l-20 -107h-663l19 107h664zM430 1456l-253 -1456h-115l253 1456h115zM863 805l-19 -108h-580l20 108h579zM1054 1456l-20 -107h-657l19 107h658zM619 1576l230 281l151 -2l-269 -279h-112z" />
    <glyph glyph-name="Ecircumflex" unicode="&#xca;" horiz-adv-x="988" 
d="M826 107l-20 -107h-663l19 107h664zM430 1456l-253 -1456h-115l253 1456h115zM863 805l-19 -108h-580l20 108h579zM1054 1456l-20 -107h-657l19 107h658zM768 1848l161 -259v-12l-98 2l-101 180l-166 -180l-97 -1l1 14l233 255z" />
    <glyph glyph-name="Edieresis" unicode="&#xcb;" horiz-adv-x="988" 
d="M826 107l-20 -107h-663l19 107h664zM430 1456l-253 -1456h-115l253 1456h115zM863 805l-19 -108h-580l20 108h579zM1054 1456l-20 -107h-657l19 107h658zM426 1715q2 34 26.5 58t58.5 26q33 -1 56 -24.5t21 -58.5q-3 -34 -27.5 -57.5t-58.5 -24.5q-35 0 -57 23t-19 58z
M850 1714q1 34 25.5 58.5t58.5 26.5q35 -1 57.5 -24.5t19.5 -59.5q-1 -35 -26 -58t-58 -24q-35 0 -57.5 23t-19.5 58z" />
    <glyph glyph-name="Igrave" unicode="&#xcc;" horiz-adv-x="486" 
d="M450 1456l-253 -1456h-114l253 1456h114zM341 1856l141 -280h-99l-178 280h136z" />
    <glyph glyph-name="Iacute" unicode="&#xcd;" horiz-adv-x="486" 
d="M450 1456l-253 -1456h-114l253 1456h114zM338 1576l230 281l151 -2l-269 -279h-112z" />
    <glyph glyph-name="Icircumflex" unicode="&#xce;" horiz-adv-x="486" 
d="M450 1456l-253 -1456h-114l253 1456h114zM488 1848l161 -259v-12l-98 2l-101 180l-166 -180l-97 -1l1 14l233 255z" />
    <glyph glyph-name="Idieresis" unicode="&#xcf;" horiz-adv-x="486" 
d="M450 1456l-253 -1456h-114l253 1456h114zM145 1715q2 34 26.5 58t58.5 26q33 -1 56 -24.5t21 -58.5q-3 -34 -27.5 -57.5t-58.5 -24.5q-35 0 -57 23t-19 58zM569 1714q1 34 25.5 58.5t58.5 26.5q35 -1 57.5 -24.5t19.5 -59.5q-1 -35 -26 -58t-58 -24q-35 0 -57.5 23
t-19.5 58z" />
    <glyph glyph-name="Eth" unicode="&#xd0;" horiz-adv-x="1162" 
d="M426 0h-274l21 107h257q145 -2 246 61t162 172t82 242l45 296q12 85 3.5 167.5t-41.5 150t-96.5 108.5t-164.5 45h-287l21 107l269 -1q125 -3 208.5 -52t133 -131t65.5 -184.5t1 -212.5l-45 -293q-19 -123 -66.5 -230t-123.5 -186t-179.5 -123t-236.5 -43zM460 1456
l-253 -1456h-115l253 1456h115zM609 793l-18 -105h-506l19 105h505z" />
    <glyph glyph-name="Ntilde" unicode="&#xd1;" horiz-adv-x="1225" 
d="M1207 1456l-252 -1456h-112l-450 1243l-215 -1243h-116l253 1456h112l451 -1243l215 1243h114zM1020 1816l78 -4q-6 -51 -26.5 -101.5t-58.5 -84.5t-98 -33q-35 1 -62 18.5t-50 39.5t-48.5 39.5t-58.5 15.5q-50 0 -72.5 -39t-31.5 -80l-85 4q7 50 28 100t58.5 84t97.5 33
q35 0 61.5 -17.5t50 -40.5t49 -39t59.5 -17q50 1 74.5 41t34.5 81z" />
    <glyph glyph-name="Ograve" unicode="&#xd2;" horiz-adv-x="1172" 
d="M1091 885l-50 -313q-17 -113 -57 -220t-106.5 -192.5t-162 -134.5t-224.5 -46q-122 4 -199.5 57t-118 139.5t-51 189.5t2.5 205l50 316q17 110 57.5 217.5t107 192.5t161.5 134.5t223 45.5q124 -3 202 -56t118.5 -138.5t50.5 -189t-4 -207.5zM928 570l50 320
q9 77 6.5 160t-28 153t-83 115t-155.5 49q-104 3 -179 -38t-126 -111t-81 -156.5t-43 -174.5l-49 -317q-11 -79 -7 -161t29 -153.5t82.5 -117.5t154.5 -49q106 -3 180.5 37.5t125.5 111t80.5 157t42.5 175.5zM684 1861l141 -280h-99l-178 280h136z" />
    <glyph glyph-name="Oacute" unicode="&#xd3;" horiz-adv-x="1172" 
d="M1091 885l-50 -313q-17 -113 -57 -220t-106.5 -192.5t-162 -134.5t-224.5 -46q-122 4 -199.5 57t-118 139.5t-51 189.5t2.5 205l50 316q17 110 57.5 217.5t107 192.5t161.5 134.5t223 45.5q124 -3 202 -56t118.5 -138.5t50.5 -189t-4 -207.5zM928 570l50 320
q9 77 6.5 160t-28 153t-83 115t-155.5 49q-104 3 -179 -38t-126 -111t-81 -156.5t-43 -174.5l-49 -317q-11 -79 -7 -161t29 -153.5t82.5 -117.5t154.5 -49q106 -3 180.5 37.5t125.5 111t80.5 157t42.5 175.5zM681 1581l230 281l151 -2l-269 -279h-112z" />
    <glyph glyph-name="Ocircumflex" unicode="&#xd4;" horiz-adv-x="1172" 
d="M1091 885l-50 -313q-17 -113 -57 -220t-106.5 -192.5t-162 -134.5t-224.5 -46q-122 4 -199.5 57t-118 139.5t-51 189.5t2.5 205l50 316q17 110 57.5 217.5t107 192.5t161.5 134.5t223 45.5q124 -3 202 -56t118.5 -138.5t50.5 -189t-4 -207.5zM928 570l50 320
q9 77 6.5 160t-28 153t-83 115t-155.5 49q-104 3 -179 -38t-126 -111t-81 -156.5t-43 -174.5l-49 -317q-11 -79 -7 -161t29 -153.5t82.5 -117.5t154.5 -49q106 -3 180.5 37.5t125.5 111t80.5 157t42.5 175.5zM830 1853l161 -259v-12l-98 2l-101 180l-166 -180l-97 -1l1 14
l233 255z" />
    <glyph glyph-name="Otilde" unicode="&#xd5;" horiz-adv-x="1172" 
d="M1091 885l-50 -313q-17 -113 -57 -220t-106.5 -192.5t-162 -134.5t-224.5 -46q-122 4 -199.5 57t-118 139.5t-51 189.5t2.5 205l50 316q17 110 57.5 217.5t107 192.5t161.5 134.5t223 45.5q124 -3 202 -56t118.5 -138.5t50.5 -189t-4 -207.5zM928 570l50 320
q9 77 6.5 160t-28 153t-83 115t-155.5 49q-104 3 -179 -38t-126 -111t-81 -156.5t-43 -174.5l-49 -317q-11 -79 -7 -161t29 -153.5t82.5 -117.5t154.5 -49q106 -3 180.5 37.5t125.5 111t80.5 157t42.5 175.5zM996 1827l78 -4q-6 -51 -26.5 -101.5t-58.5 -84.5t-98 -33
q-35 1 -62 18.5t-50 39.5t-48.5 39.5t-58.5 15.5q-50 0 -72.5 -39t-31.5 -80l-85 4q7 50 28 100t58.5 84t97.5 33q35 0 61.5 -17.5t50 -40.5t49 -39t59.5 -17q50 1 74.5 41t34.5 81z" />
    <glyph glyph-name="Odieresis" unicode="&#xd6;" horiz-adv-x="1172" 
d="M1091 885l-50 -313q-17 -113 -57 -220t-106.5 -192.5t-162 -134.5t-224.5 -46q-122 4 -199.5 57t-118 139.5t-51 189.5t2.5 205l50 316q17 110 57.5 217.5t107 192.5t161.5 134.5t223 45.5q124 -3 202 -56t118.5 -138.5t50.5 -189t-4 -207.5zM928 570l50 320
q9 77 6.5 160t-28 153t-83 115t-155.5 49q-104 3 -179 -38t-126 -111t-81 -156.5t-43 -174.5l-49 -317q-11 -79 -7 -161t29 -153.5t82.5 -117.5t154.5 -49q106 -3 180.5 37.5t125.5 111t80.5 157t42.5 175.5zM488 1720q2 34 26.5 58t58.5 26q33 -1 56 -24.5t21 -58.5
q-3 -34 -27.5 -57.5t-58.5 -24.5q-35 0 -57 23t-19 58zM912 1719q1 34 25.5 58.5t58.5 26.5q35 -1 57.5 -24.5t19.5 -59.5q-1 -35 -26 -58t-58 -24q-35 0 -57.5 23t-19.5 58z" />
    <glyph glyph-name="multiply" unicode="&#xd7;" horiz-adv-x="916" 
d="M85 105l-62 88l768 790l62 -90zM659 105l-503 801l83 77l501 -803z" />
    <glyph glyph-name="Oslash" unicode="&#xd8;" horiz-adv-x="1173" 
d="M1220 1506l-1084 -1590l-102 1l1094 1589h92zM1085 805l-23 -152q-17 -114 -58 -233t-109 -220.5t-167.5 -162.5t-234.5 -57q-105 2 -175 46.5t-113 116t-62.5 158.5t-21 178t9.5 173l23 153q17 112 57.5 231t109.5 220t168.5 163t235.5 57q104 -3 175 -46.5
t113.5 -114.5t61 -158.5t20 -178.5t-9.5 -173zM950 652l23 157q10 61 11.5 135t-9 146.5t-39 134.5t-82 101t-136.5 42q-110 4 -188.5 -49t-132.5 -139.5t-85 -185.5t-44 -187l-23 -157q-9 -60 -10.5 -133.5t9 -147.5t39 -136t81 -100.5t135.5 -42.5q112 -4 191 48
t132.5 138.5t84 186t43.5 189.5z" />
    <glyph glyph-name="Ugrave" unicode="&#xd9;" horiz-adv-x="1133" 
d="M1023 1456h116l-175 -1024q-21 -134 -82.5 -237.5t-164 -161.5t-244.5 -55q-135 3 -217.5 63t-115.5 161t-18 228l174 1026h113l-173 -1027q-11 -94 8 -170t76.5 -122.5t160.5 -50.5q109 -4 186 40t122.5 122t60.5 181zM670 1850l141 -280h-99l-178 280h136z" />
    <glyph glyph-name="Uacute" unicode="&#xda;" horiz-adv-x="1133" 
d="M1023 1456h116l-175 -1024q-21 -134 -82.5 -237.5t-164 -161.5t-244.5 -55q-135 3 -217.5 63t-115.5 161t-18 228l174 1026h113l-173 -1027q-11 -94 8 -170t76.5 -122.5t160.5 -50.5q109 -4 186 40t122.5 122t60.5 181zM667 1570l230 281l151 -2l-269 -279h-112z" />
    <glyph glyph-name="Ucircumflex" unicode="&#xdb;" horiz-adv-x="1133" 
d="M1023 1456h116l-175 -1024q-21 -134 -82.5 -237.5t-164 -161.5t-244.5 -55q-135 3 -217.5 63t-115.5 161t-18 228l174 1026h113l-173 -1027q-11 -94 8 -170t76.5 -122.5t160.5 -50.5q109 -4 186 40t122.5 122t60.5 181zM816 1842l161 -259v-12l-98 2l-101 180l-166 -180
l-97 -1l1 14l233 255z" />
    <glyph glyph-name="Udieresis" unicode="&#xdc;" horiz-adv-x="1133" 
d="M1023 1456h116l-175 -1024q-21 -134 -82.5 -237.5t-164 -161.5t-244.5 -55q-135 3 -217.5 63t-115.5 161t-18 228l174 1026h113l-173 -1027q-11 -94 8 -170t76.5 -122.5t160.5 -50.5q109 -4 186 40t122.5 122t60.5 181zM473 1709q2 34 26.5 58t58.5 26q33 -1 56 -24.5
t21 -58.5q-3 -34 -27.5 -57.5t-58.5 -24.5q-35 0 -57 23t-19 58zM897 1708q1 34 25.5 58.5t58.5 26.5q35 -1 57.5 -24.5t19.5 -59.5q-1 -35 -26 -58t-58 -24q-35 0 -57.5 23t-19.5 58z" />
    <glyph glyph-name="Yacute" unicode="&#xdd;" horiz-adv-x="1039" 
d="M315 1456l211 -787l489 788l138 -1l-588 -915l-94 -541h-114l97 555l-265 901h126zM613 1565l230 281l151 -2l-269 -279h-112z" />
    <glyph glyph-name="Thorn" unicode="&#xde;" horiz-adv-x="1028" 
d="M313 1456h111l-253 -1456h-111zM315 1154l303 -2q116 -3 191 -58.5t108 -147t23 -201.5q-11 -123 -69.5 -219t-156 -150t-223.5 -54l-300 2l19 103l285 -1q93 0 164.5 43t115.5 114.5t55 161.5q9 77 -10 145t-69 111.5t-135 48.5h-269z" />
    <glyph glyph-name="germandbls" unicode="&#xdf;" horiz-adv-x="1019" 
d="M337 1128l-191 -1128h-110l192 1127q11 75 34.5 150t66 137t105.5 99t152 34q85 -2 142.5 -44t84 -110t19.5 -147q-6 -62 -29 -115t-50 -103t-50.5 -102.5t-32.5 -110.5t10.5 -106t51.5 -93t64.5 -90.5t54 -96.5t17.5 -111q-6 -98 -53 -175t-124 -122t-176 -43
q-42 1 -86.5 10t-85 27.5t-74.5 46.5l41 103q40 -38 92 -60t105 -22q68 -2 122.5 29.5t89 84.5t41.5 119q7 59 -13.5 108.5t-53.5 93.5t-66.5 89.5t-54 96t-13.5 112.5q5 59 28.5 111.5t52 101t52 100.5t29.5 109q5 47 -6.5 93.5t-43.5 78t-85 35.5q-87 4 -138 -46.5
t-76 -126t-35 -144.5z" />
    <glyph glyph-name="agrave" unicode="&#xe0;" horiz-adv-x="936" 
d="M608 194l95 592q6 65 -10.5 113t-58.5 73.5t-111 26.5q-66 2 -120.5 -25t-89.5 -75.5t-48 -114.5h-109q9 71 42.5 130.5t85.5 102t116 65.5t136 22q99 -2 163.5 -42t93.5 -112t20 -169l-90 -553q-9 -56 -9 -108t1 -107l-1 -13h-114q-4 49 -1.5 97t9.5 97zM708 632
l-14 -95l-182 2q-61 -1 -120.5 -14.5t-109 -43.5t-81.5 -78.5t-39 -115.5q-6 -57 8 -102t50 -71t96 -27q78 -1 141.5 29.5t111.5 84.5t76 122l21 -68q-21 -59 -56 -109.5t-83.5 -89t-106 -59t-121.5 -20.5q-89 1 -146 41.5t-83.5 108t-20.5 151.5q6 90 45 156.5t102 110.5
t141 66t162 22zM534 1535l141 -280h-99l-178 280h136z" />
    <glyph glyph-name="aacute" unicode="&#xe1;" horiz-adv-x="936" 
d="M608 194l95 592q6 65 -10.5 113t-58.5 73.5t-111 26.5q-66 2 -120.5 -25t-89.5 -75.5t-48 -114.5h-109q9 71 42.5 130.5t85.5 102t116 65.5t136 22q99 -2 163.5 -42t93.5 -112t20 -169l-90 -553q-9 -56 -9 -108t1 -107l-1 -13h-114q-4 49 -1.5 97t9.5 97zM708 632
l-14 -95l-182 2q-61 -1 -120.5 -14.5t-109 -43.5t-81.5 -78.5t-39 -115.5q-6 -57 8 -102t50 -71t96 -27q78 -1 141.5 29.5t111.5 84.5t76 122l21 -68q-21 -59 -56 -109.5t-83.5 -89t-106 -59t-121.5 -20.5q-89 1 -146 41.5t-83.5 108t-20.5 151.5q6 90 45 156.5t102 110.5
t141 66t162 22zM531 1255l230 281l151 -2l-269 -279h-112z" />
    <glyph glyph-name="acircumflex" unicode="&#xe2;" horiz-adv-x="936" 
d="M608 194l95 592q6 65 -10.5 113t-58.5 73.5t-111 26.5q-66 2 -120.5 -25t-89.5 -75.5t-48 -114.5h-109q9 71 42.5 130.5t85.5 102t116 65.5t136 22q99 -2 163.5 -42t93.5 -112t20 -169l-90 -553q-9 -56 -9 -108t1 -107l-1 -13h-114q-4 49 -1.5 97t9.5 97zM708 632
l-14 -95l-182 2q-61 -1 -120.5 -14.5t-109 -43.5t-81.5 -78.5t-39 -115.5q-6 -57 8 -102t50 -71t96 -27q78 -1 141.5 29.5t111.5 84.5t76 122l21 -68q-21 -59 -56 -109.5t-83.5 -89t-106 -59t-121.5 -20.5q-89 1 -146 41.5t-83.5 108t-20.5 151.5q6 90 45 156.5t102 110.5
t141 66t162 22zM680 1527l161 -259v-12l-98 2l-101 180l-166 -180l-97 -1l1 14l233 255z" />
    <glyph glyph-name="atilde" unicode="&#xe3;" horiz-adv-x="936" 
d="M608 194l95 592q6 65 -10.5 113t-58.5 73.5t-111 26.5q-66 2 -120.5 -25t-89.5 -75.5t-48 -114.5h-109q9 71 42.5 130.5t85.5 102t116 65.5t136 22q99 -2 163.5 -42t93.5 -112t20 -169l-90 -553q-9 -56 -9 -108t1 -107l-1 -13h-114q-4 49 -1.5 97t9.5 97zM708 632
l-14 -95l-182 2q-61 -1 -120.5 -14.5t-109 -43.5t-81.5 -78.5t-39 -115.5q-6 -57 8 -102t50 -71t96 -27q78 -1 141.5 29.5t111.5 84.5t76 122l21 -68q-21 -59 -56 -109.5t-83.5 -89t-106 -59t-121.5 -20.5q-89 1 -146 41.5t-83.5 108t-20.5 151.5q6 90 45 156.5t102 110.5
t141 66t162 22zM847 1501l78 -4q-6 -51 -26.5 -101.5t-58.5 -84.5t-98 -33q-35 1 -62 18.5t-50 39.5t-48.5 39.5t-58.5 15.5q-50 0 -72.5 -39t-31.5 -80l-85 4q7 50 28 100t58.5 84t97.5 33q35 0 61.5 -17.5t50 -40.5t49 -39t59.5 -17q50 1 74.5 41t34.5 81z" />
    <glyph glyph-name="adieresis" unicode="&#xe4;" horiz-adv-x="936" 
d="M608 194l95 592q6 65 -10.5 113t-58.5 73.5t-111 26.5q-66 2 -120.5 -25t-89.5 -75.5t-48 -114.5h-109q9 71 42.5 130.5t85.5 102t116 65.5t136 22q99 -2 163.5 -42t93.5 -112t20 -169l-90 -553q-9 -56 -9 -108t1 -107l-1 -13h-114q-4 49 -1.5 97t9.5 97zM708 632
l-14 -95l-182 2q-61 -1 -120.5 -14.5t-109 -43.5t-81.5 -78.5t-39 -115.5q-6 -57 8 -102t50 -71t96 -27q78 -1 141.5 29.5t111.5 84.5t76 122l21 -68q-21 -59 -56 -109.5t-83.5 -89t-106 -59t-121.5 -20.5q-89 1 -146 41.5t-83.5 108t-20.5 151.5q6 90 45 156.5t102 110.5
t141 66t162 22zM338 1394q2 34 26.5 58t58.5 26q33 -1 56 -24.5t21 -58.5q-3 -34 -27.5 -57.5t-58.5 -24.5q-35 0 -57 23t-19 58zM762 1393q1 34 25.5 58.5t58.5 26.5q35 -1 57.5 -24.5t19.5 -59.5q-1 -35 -26 -58t-58 -24q-35 0 -57.5 23t-19.5 58z" />
    <glyph glyph-name="aring" unicode="&#xe5;" horiz-adv-x="936" 
d="M608 194l95 592q6 65 -10.5 113t-58.5 73.5t-111 26.5q-66 2 -120.5 -25t-89.5 -75.5t-48 -114.5h-109q9 71 42.5 130.5t85.5 102t116 65.5t136 22q99 -2 163.5 -42t93.5 -112t20 -169l-90 -553q-9 -56 -9 -108t1 -107l-1 -13h-114q-4 49 -1.5 97t9.5 97zM708 632
l-14 -95l-182 2q-61 -1 -120.5 -14.5t-109 -43.5t-81.5 -78.5t-39 -115.5q-6 -57 8 -102t50 -71t96 -27q78 -1 141.5 29.5t111.5 84.5t76 122l21 -68q-21 -59 -56 -109.5t-83.5 -89t-106 -59t-121.5 -20.5q-89 1 -146 41.5t-83.5 108t-20.5 151.5q6 90 45 156.5t102 110.5
t141 66t162 22zM444 1394q2 54 29 100t71.5 73.5t100.5 27.5q77 0 127 -54.5t48 -130.5q-2 -55 -29 -100t-72.5 -71t-99.5 -26q-76 0 -126 52t-49 129zM520 1397q-5 -45 22.5 -78t73.5 -33q50 1 86 37t41 85q5 45 -21 80t-73 34q-52 -1 -88 -39t-41 -86z" />
    <glyph glyph-name="ae" unicode="&#xe6;" horiz-adv-x="1450" 
d="M577 181l89 542q5 59 -2 122t-41.5 107t-108.5 47q-72 2 -127 -29t-90.5 -83.5t-47.5 -120.5l-108 12q10 75 43 135t83 104t115 66t141 21q105 -4 163.5 -62t78 -145t9.5 -179l-84 -502zM687 634l-18 -99l-225 3q-77 -1 -142 -32t-106.5 -88.5t-49.5 -135.5
q-5 -56 11 -101.5t54 -72t98 -26.5q44 -1 92 14.5t90.5 43.5t76 65.5t48.5 79.5l54 -79q-37 -71 -96.5 -122t-133.5 -78t-155 -26q-88 1 -146 42.5t-84 111t-20 153.5q7 86 40.5 151t89 109t127.5 66t153 22zM956 -18q-108 0 -174 49.5t-100 128t-42.5 170t1.5 177.5l7 55
q10 87 43 183t87.5 178.5t133 132.5t183.5 46q94 -2 154 -45t90.5 -111t38.5 -149t-2 -160l-14 -100h-659l18 100h546l4 32q9 71 -1 146t-52.5 127.5t-130.5 56.5q-82 3 -141.5 -40t-98.5 -111.5t-62.5 -144.5t-31.5 -142l-6 -52q-8 -62 -6 -135t22.5 -137.5t67 -107
t129.5 -44.5q82 -2 151 31.5t130 84.5l33 -90q-41 -45 -92 -74t-109 -43t-117 -12z" />
    <glyph glyph-name="ccedilla" unicode="&#xe7;" horiz-adv-x="901" 
d="M389 83q82 -3 137.5 29.5t90 91t52.5 131.5h102q-17 -100 -68 -182.5t-132 -130t-188 -44.5t-172 47.5t-97.5 117.5t-39 160.5t3.5 175.5l16 124q13 96 44 187t85 162.5t134 113t190 36.5q111 -3 176.5 -57.5t92 -142t20.5 -186.5l-106 1q5 69 -10 132t-57.5 104.5
t-122.5 44.5q-86 4 -146 -29.5t-98.5 -92t-60.5 -130t-31 -143.5l-16 -124q-7 -64 -6.5 -132.5t18 -127.5t63 -96t126.5 -40zM322 -10h85l-21 -66q60 -14 85 -58t23 -103q-3 -57 -27 -96.5t-62.5 -63.5t-86 -36.5t-97.5 -14.5l1 82q40 2 79 14t67 39.5t33 73.5q6 40 -11 60
t-46.5 28t-61.5 13z" />
    <glyph glyph-name="egrave" unicode="&#xe8;" horiz-adv-x="910" 
d="M396 -21q-104 2 -171.5 45t-103.5 113.5t-47 157t-1 174.5l15 126q12 92 45.5 183.5t88 166.5t135.5 118.5t188 38.5q100 -3 161 -46t89.5 -111.5t34.5 -152.5t-4 -167l-13 -93h-668l18 104l554 1l5 29q9 72 -1 148t-51.5 128t-131.5 57q-86 3 -147 -32t-99.5 -95
t-61 -133.5t-31.5 -143.5l-15 -126q-7 -64 -2.5 -131.5t27 -123.5t70 -91.5t127.5 -37.5q80 -3 145.5 28t122.5 86l51 -75q-41 -51 -93.5 -83t-112 -47.5t-123.5 -14.5zM511 1535l141 -280h-99l-178 280h136z" />
    <glyph glyph-name="eacute" unicode="&#xe9;" horiz-adv-x="910" 
d="M396 -21q-104 2 -171.5 45t-103.5 113.5t-47 157t-1 174.5l15 126q12 92 45.5 183.5t88 166.5t135.5 118.5t188 38.5q100 -3 161 -46t89.5 -111.5t34.5 -152.5t-4 -167l-13 -93h-668l18 104l554 1l5 29q9 72 -1 148t-51.5 128t-131.5 57q-86 3 -147 -32t-99.5 -95
t-61 -133.5t-31.5 -143.5l-15 -126q-7 -64 -2.5 -131.5t27 -123.5t70 -91.5t127.5 -37.5q80 -3 145.5 28t122.5 86l51 -75q-41 -51 -93.5 -83t-112 -47.5t-123.5 -14.5zM508 1255l230 281l151 -2l-269 -279h-112z" />
    <glyph glyph-name="ecircumflex" unicode="&#xea;" horiz-adv-x="910" 
d="M396 -21q-104 2 -171.5 45t-103.5 113.5t-47 157t-1 174.5l15 126q12 92 45.5 183.5t88 166.5t135.5 118.5t188 38.5q100 -3 161 -46t89.5 -111.5t34.5 -152.5t-4 -167l-13 -93h-668l18 104l554 1l5 29q9 72 -1 148t-51.5 128t-131.5 57q-86 3 -147 -32t-99.5 -95
t-61 -133.5t-31.5 -143.5l-15 -126q-7 -64 -2.5 -131.5t27 -123.5t70 -91.5t127.5 -37.5q80 -3 145.5 28t122.5 86l51 -75q-41 -51 -93.5 -83t-112 -47.5t-123.5 -14.5zM657 1527l161 -259v-12l-98 2l-101 180l-166 -180l-97 -1l1 14l233 255z" />
    <glyph glyph-name="edieresis" unicode="&#xeb;" horiz-adv-x="910" 
d="M396 -21q-104 2 -171.5 45t-103.5 113.5t-47 157t-1 174.5l15 126q12 92 45.5 183.5t88 166.5t135.5 118.5t188 38.5q100 -3 161 -46t89.5 -111.5t34.5 -152.5t-4 -167l-13 -93h-668l18 104l554 1l5 29q9 72 -1 148t-51.5 128t-131.5 57q-86 3 -147 -32t-99.5 -95
t-61 -133.5t-31.5 -143.5l-15 -126q-7 -64 -2.5 -131.5t27 -123.5t70 -91.5t127.5 -37.5q80 -3 145.5 28t122.5 86l51 -75q-41 -51 -93.5 -83t-112 -47.5t-123.5 -14.5zM314 1394q2 34 26.5 58t58.5 26q33 -1 56 -24.5t21 -58.5q-3 -34 -27.5 -57.5t-58.5 -24.5
q-35 0 -57 23t-19 58zM738 1393q1 34 25.5 58.5t58.5 26.5q35 -1 57.5 -24.5t19.5 -59.5q-1 -35 -26 -58t-58 -24q-35 0 -57.5 23t-19.5 58z" />
    <glyph glyph-name="igrave" unicode="&#xec;" horiz-adv-x="418" 
d="M348 1082l-188 -1082h-111l188 1082h111zM252 1524l141 -280h-99l-178 280h136z" />
    <glyph glyph-name="iacute" unicode="&#xed;" horiz-adv-x="418" 
d="M348 1082l-188 -1082h-111l188 1082h111zM249 1244l230 281l151 -2l-269 -279h-112z" />
    <glyph glyph-name="icircumflex" unicode="&#xee;" horiz-adv-x="418" 
d="M348 1082l-188 -1082h-111l188 1082h111zM397 1516l161 -259v-12l-98 2l-101 180l-166 -180l-97 -1l1 14l233 255z" />
    <glyph glyph-name="idieresis" unicode="&#xef;" horiz-adv-x="418" 
d="M348 1082l-188 -1082h-111l188 1082h111zM55 1383q2 34 26.5 58t58.5 26q33 -1 56 -24.5t21 -58.5q-3 -34 -27.5 -57.5t-58.5 -24.5q-35 0 -57 23t-19 58zM479 1382q1 34 25.5 58.5t58.5 26.5q35 -1 57.5 -24.5t19.5 -59.5q-1 -35 -26 -58t-58 -24q-35 0 -57.5 23
t-19.5 58z" />
    <glyph glyph-name="eth" unicode="&#xf0;" horiz-adv-x="1012" 
d="M406 1475l43 105q150 -61 246 -162t144 -229t58 -272t-10 -293l-13 -89q-13 -86 -44.5 -184t-85 -184t-132 -138.5t-186.5 -49.5q-93 3 -156.5 47.5t-100 115t-49 153.5t-4.5 162q9 88 38 179t81.5 167t129 122t179.5 41q98 -3 165.5 -56.5t99.5 -136.5t22 -173l-45 -5
q6 54 -8 100.5t-44.5 83.5t-75 58.5t-100.5 22.5q-82 3 -141 -33t-98.5 -96t-62 -132.5t-29.5 -140.5q-6 -55 -0.5 -118.5t29 -121t68.5 -94t114 -40.5q82 -3 140 42t95.5 117t59 150t30.5 142l13 93q18 132 12 258.5t-46 239t-122 202t-214 147.5zM969 1414l-468 -315
l-37 81l469 311z" />
    <glyph glyph-name="ntilde" unicode="&#xf1;" horiz-adv-x="957" 
d="M297 852l-147 -852h-111l188 1082h106zM231 608l-39 25q13 79 44 162t80.5 154t121 113.5t165.5 40.5q82 -2 131.5 -39t72 -95.5t26.5 -127.5t-4 -136l-117 -705h-110l118 708q6 62 1 129t-38.5 113t-114.5 49q-73 1 -130.5 -36t-99 -97.5t-68 -128.5t-39.5 -129z
M843 1500l78 -4q-6 -51 -26.5 -101.5t-58.5 -84.5t-98 -33q-35 1 -62 18.5t-50 39.5t-48.5 39.5t-58.5 15.5q-50 0 -72.5 -39t-31.5 -80l-85 4q7 50 28 100t58.5 84t97.5 33q35 0 61.5 -17.5t50 -40.5t49 -39t59.5 -17q50 1 74.5 41t34.5 81z" />
    <glyph glyph-name="ograve" unicode="&#xf2;" horiz-adv-x="975" 
d="M87 485l13 111q13 94 46 185t89 165.5t137 117.5t187 39q104 -3 169 -49.5t99 -121.5t43.5 -162t-0.5 -173l-14 -112q-13 -93 -46.5 -184.5t-89.5 -165.5t-136.5 -117t-188.5 -40q-103 3 -168 50t-98.5 122t-43 162t1.5 173zM212 597l-15 -115q-6 -59 -3.5 -127.5
t22.5 -129t65 -100t122 -42.5q84 -4 145 32t101 96t63.5 132t32.5 142l15 113q7 60 3.5 127.5t-23.5 129t-65.5 101.5t-122.5 43q-82 3 -141.5 -33t-101 -97t-65.5 -132t-32 -140zM516 1534l141 -280h-99l-178 280h136z" />
    <glyph glyph-name="oacute" unicode="&#xf3;" horiz-adv-x="975" 
d="M87 485l13 111q13 94 46 185t89 165.5t137 117.5t187 39q104 -3 169 -49.5t99 -121.5t43.5 -162t-0.5 -173l-14 -112q-13 -93 -46.5 -184.5t-89.5 -165.5t-136.5 -117t-188.5 -40q-103 3 -168 50t-98.5 122t-43 162t1.5 173zM212 597l-15 -115q-6 -59 -3.5 -127.5
t22.5 -129t65 -100t122 -42.5q84 -4 145 32t101 96t63.5 132t32.5 142l15 113q7 60 3.5 127.5t-23.5 129t-65.5 101.5t-122.5 43q-82 3 -141.5 -33t-101 -97t-65.5 -132t-32 -140zM514 1254l230 281l151 -2l-269 -279h-112z" />
    <glyph glyph-name="ocircumflex" unicode="&#xf4;" horiz-adv-x="975" 
d="M87 485l13 111q13 94 46 185t89 165.5t137 117.5t187 39q104 -3 169 -49.5t99 -121.5t43.5 -162t-0.5 -173l-14 -112q-13 -93 -46.5 -184.5t-89.5 -165.5t-136.5 -117t-188.5 -40q-103 3 -168 50t-98.5 122t-43 162t1.5 173zM212 597l-15 -115q-6 -59 -3.5 -127.5
t22.5 -129t65 -100t122 -42.5q84 -4 145 32t101 96t63.5 132t32.5 142l15 113q7 60 3.5 127.5t-23.5 129t-65.5 101.5t-122.5 43q-82 3 -141.5 -33t-101 -97t-65.5 -132t-32 -140zM662 1526l161 -259v-12l-98 2l-101 180l-166 -180l-97 -1l1 14l233 255z" />
    <glyph glyph-name="otilde" unicode="&#xf5;" horiz-adv-x="975" 
d="M87 485l13 111q13 94 46 185t89 165.5t137 117.5t187 39q104 -3 169 -49.5t99 -121.5t43.5 -162t-0.5 -173l-14 -112q-13 -93 -46.5 -184.5t-89.5 -165.5t-136.5 -117t-188.5 -40q-103 3 -168 50t-98.5 122t-43 162t1.5 173zM212 597l-15 -115q-6 -59 -3.5 -127.5
t22.5 -129t65 -100t122 -42.5q84 -4 145 32t101 96t63.5 132t32.5 142l15 113q7 60 3.5 127.5t-23.5 129t-65.5 101.5t-122.5 43q-82 3 -141.5 -33t-101 -97t-65.5 -132t-32 -140zM828 1500l78 -4q-6 -51 -26.5 -101.5t-58.5 -84.5t-98 -33q-35 1 -62 18.5t-50 39.5
t-48.5 39.5t-58.5 15.5q-50 0 -72.5 -39t-31.5 -80l-85 4q7 50 28 100t58.5 84t97.5 33q35 0 61.5 -17.5t50 -40.5t49 -39t59.5 -17q50 1 74.5 41t34.5 81z" />
    <glyph glyph-name="odieresis" unicode="&#xf6;" horiz-adv-x="975" 
d="M87 485l13 111q13 94 46 185t89 165.5t137 117.5t187 39q104 -3 169 -49.5t99 -121.5t43.5 -162t-0.5 -173l-14 -112q-13 -93 -46.5 -184.5t-89.5 -165.5t-136.5 -117t-188.5 -40q-103 3 -168 50t-98.5 122t-43 162t1.5 173zM212 597l-15 -115q-6 -59 -3.5 -127.5
t22.5 -129t65 -100t122 -42.5q84 -4 145 32t101 96t63.5 132t32.5 142l15 113q7 60 3.5 127.5t-23.5 129t-65.5 101.5t-122.5 43q-82 3 -141.5 -33t-101 -97t-65.5 -132t-32 -140zM320 1393q2 34 26.5 58t58.5 26q33 -1 56 -24.5t21 -58.5q-3 -34 -27.5 -57.5t-58.5 -24.5
q-35 0 -57 23t-19 58zM744 1392q1 34 25.5 58.5t58.5 26.5q35 -1 57.5 -24.5t19.5 -59.5q-1 -35 -26 -58t-58 -24q-35 0 -57.5 23t-19.5 58z" />
    <glyph glyph-name="divide" unicode="&#xf7;" horiz-adv-x="988" 
d="M923 762l-23 -120h-817l22 120h818zM503 1089q2 32 23 58.5t55 28.5q36 0 55 -26.5t17 -60.5q-3 -33 -24.5 -58t-56.5 -25q-35 -2 -53 23.5t-16 59.5zM365 290q1 33 21.5 59.5t55.5 28.5q37 0 55.5 -27t15.5 -59q-2 -33 -23.5 -58.5t-55.5 -25.5q-35 -2 -54 24t-15 58z
" />
    <glyph glyph-name="oslash" unicode="&#xf8;" horiz-adv-x="972" 
d="M909 1214l-768 -1353l-92 -1l778 1354h82zM79 519l4 31q12 95 47 193t93.5 181t142.5 132.5t193 47.5q107 -5 173.5 -56.5t100.5 -134t42.5 -175t-0.5 -177.5l-3 -33q-11 -95 -46 -192.5t-94 -179.5t-142.5 -131t-194.5 -46q-104 3 -170.5 55t-100.5 133t-44 173t-1 179z
M195 549l-4 -32q-6 -58 -3 -132t23 -141.5t66 -112t125 -47.5q86 -3 150 38t106.5 110t68.5 147t36 148l3 32q6 60 3.5 134.5t-23 142.5t-67 114t-127.5 49q-85 3 -148.5 -39.5t-106.5 -112t-68 -148.5t-34 -150z" />
    <glyph glyph-name="ugrave" unicode="&#xf9;" horiz-adv-x="956" 
d="M645 254l143 828h110l-188 -1082h-107zM700 452l50 2q-14 -87 -41 -173t-74 -155.5t-119.5 -110t-175.5 -36.5q-84 1 -134 40t-74 100t-28 132t3 138l116 693h111l-116 -696q-3 -44 -3.5 -94.5t13 -96.5t45.5 -76t89 -33q109 -4 177 50t106 139t55 177zM529 1536
l141 -280h-99l-178 280h136z" />
    <glyph glyph-name="uacute" unicode="&#xfa;" horiz-adv-x="956" 
d="M645 254l143 828h110l-188 -1082h-107zM700 452l50 2q-14 -87 -41 -173t-74 -155.5t-119.5 -110t-175.5 -36.5q-84 1 -134 40t-74 100t-28 132t3 138l116 693h111l-116 -696q-3 -44 -3.5 -94.5t13 -96.5t45.5 -76t89 -33q109 -4 177 50t106 139t55 177zM527 1256l230 281
l151 -2l-269 -279h-112z" />
    <glyph glyph-name="ucircumflex" unicode="&#xfb;" horiz-adv-x="956" 
d="M645 254l143 828h110l-188 -1082h-107zM700 452l50 2q-14 -87 -41 -173t-74 -155.5t-119.5 -110t-175.5 -36.5q-84 1 -134 40t-74 100t-28 132t3 138l116 693h111l-116 -696q-3 -44 -3.5 -94.5t13 -96.5t45.5 -76t89 -33q109 -4 177 50t106 139t55 177zM675 1528
l161 -259v-12l-98 2l-101 180l-166 -180l-97 -1l1 14l233 255z" />
    <glyph glyph-name="udieresis" unicode="&#xfc;" horiz-adv-x="956" 
d="M645 254l143 828h110l-188 -1082h-107zM700 452l50 2q-14 -87 -41 -173t-74 -155.5t-119.5 -110t-175.5 -36.5q-84 1 -134 40t-74 100t-28 132t3 138l116 693h111l-116 -696q-3 -44 -3.5 -94.5t13 -96.5t45.5 -76t89 -33q109 -4 177 50t106 139t55 177zM332 1395
q2 34 26.5 58t58.5 26q33 -1 56 -24.5t21 -58.5q-3 -34 -27.5 -57.5t-58.5 -24.5q-35 0 -57 23t-19 58zM756 1394q1 34 25.5 58.5t58.5 26.5q35 -1 57.5 -24.5t19.5 -59.5q-1 -35 -26 -58t-58 -24q-35 0 -57.5 23t-19.5 58z" />
    <glyph glyph-name="yacute" unicode="&#xfd;" horiz-adv-x="831" 
d="M324 125l431 958h121l-585 -1257q-20 -47 -46 -94t-60 -86.5t-79.5 -63t-103.5 -22.5q-21 0 -42.5 4t-42.5 10l12 103q12 -3 24 -5.5t26 -3.5q60 -2 103 27t72.5 75.5t51.5 96.5zM245 1082l111 -933l7 -124l-86 -49l-147 1106h115zM477 1256l230 281l151 -2l-269 -279
h-112z" />
    <glyph glyph-name="thorn" unicode="&#xfe;" horiz-adv-x="982" 
d="M420 1536l-338 -1952h-112l339 1952h111zM857 557l-3 -22q-10 -84 -38 -181t-76 -184t-123 -140.5t-181 -50.5q-83 3 -141 39.5t-95 96.5t-52.5 132t-9.5 145l39 272q16 78 49.5 156.5t86 143.5t123.5 103.5t160 36.5q104 -4 161 -60.5t81 -141.5t26 -177.5t-7 -167.5z
M743 537l4 22q5 55 6 128t-14 143t-56 118t-120 51q-64 2 -117 -25.5t-94.5 -74t-69 -102.5t-41.5 -112l-50 -319q-2 -52 12.5 -102t44 -89.5t71.5 -64t97 -26.5q86 -3 144.5 42t96 115.5t58.5 150t28 145.5z" />
    <glyph glyph-name="ydieresis" unicode="&#xff;" horiz-adv-x="831" 
d="M324 125l431 958h121l-585 -1257q-20 -47 -46 -94t-60 -86.5t-79.5 -63t-103.5 -22.5q-21 0 -42.5 4t-42.5 10l12 103q12 -3 24 -5.5t26 -3.5q60 -2 103 27t72.5 75.5t51.5 96.5zM245 1082l111 -933l7 -124l-86 -49l-147 1106h115zM284 1395q2 34 26.5 58t58.5 26
q33 -1 56 -24.5t21 -58.5q-3 -34 -27.5 -57.5t-58.5 -24.5q-35 0 -57 23t-19 58zM708 1394q1 34 25.5 58.5t58.5 26.5q35 -1 57.5 -24.5t19.5 -59.5q-1 -35 -26 -58t-58 -24q-35 0 -57.5 23t-19.5 58z" />
    <glyph glyph-name="Amacron" unicode="&#x100;" 
d="M700 1362l-641 -1362h-123l703 1457h85zM831 0l-174 1369l10 87h78l195 -1456h-109zM855 515l-19 -108h-640l20 108h639zM1009 1766l-17 -100h-515l15 100h517z" />
    <glyph glyph-name="amacron" unicode="&#x101;" horiz-adv-x="936" 
d="M608 194l95 592q6 65 -10.5 113t-58.5 73.5t-111 26.5q-66 2 -120.5 -25t-89.5 -75.5t-48 -114.5h-109q9 71 42.5 130.5t85.5 102t116 65.5t136 22q99 -2 163.5 -42t93.5 -112t20 -169l-90 -553q-9 -56 -9 -108t1 -107l-1 -13h-114q-4 49 -1.5 97t9.5 97zM708 632
l-14 -95l-182 2q-61 -1 -120.5 -14.5t-109 -43.5t-81.5 -78.5t-39 -115.5q-6 -57 8 -102t50 -71t96 -27q78 -1 141.5 29.5t111.5 84.5t76 122l21 -68q-21 -59 -56 -109.5t-83.5 -89t-106 -59t-121.5 -20.5q-89 1 -146 41.5t-83.5 108t-20.5 151.5q6 90 45 156.5t102 110.5
t141 66t162 22zM899 1451l-17 -100h-515l15 100h517z" />
    <glyph glyph-name="Abreve" unicode="&#x102;" 
d="M700 1362l-641 -1362h-123l703 1457h85zM831 0l-174 1369l10 87h78l195 -1456h-109zM855 515l-19 -108h-640l20 108h639zM932 1807l97 3q-8 -82 -49 -141t-105.5 -90t-147.5 -29q-117 2 -188.5 71.5t-66.5 188.5l102 -1q-5 -79 34.5 -124.5t121.5 -46.5q83 -1 135 45
t67 124z" />
    <glyph glyph-name="abreve" unicode="&#x103;" horiz-adv-x="936" 
d="M608 194l95 592q6 65 -10.5 113t-58.5 73.5t-111 26.5q-66 2 -120.5 -25t-89.5 -75.5t-48 -114.5h-109q9 71 42.5 130.5t85.5 102t116 65.5t136 22q99 -2 163.5 -42t93.5 -112t20 -169l-90 -553q-9 -56 -9 -108t1 -107l-1 -13h-114q-4 49 -1.5 97t9.5 97zM708 632
l-14 -95l-182 2q-61 -1 -120.5 -14.5t-109 -43.5t-81.5 -78.5t-39 -115.5q-6 -57 8 -102t50 -71t96 -27q78 -1 141.5 29.5t111.5 84.5t76 122l21 -68q-21 -59 -56 -109.5t-83.5 -89t-106 -59t-121.5 -20.5q-89 1 -146 41.5t-83.5 108t-20.5 151.5q6 90 45 156.5t102 110.5
t141 66t162 22zM823 1492l97 3q-8 -82 -49 -141t-105.5 -90t-147.5 -29q-117 2 -188.5 71.5t-66.5 188.5l102 -1q-5 -79 34.5 -124.5t121.5 -46.5q83 -1 135 45t67 124z" />
    <glyph glyph-name="Aogonek" unicode="&#x104;" horiz-adv-x="1091" 
d="M700 1362l-641 -1362h-123l703 1457h85zM831 0l-174 1369l10 87h78l195 -1456h-109zM855 515l-19 -108h-640l20 108h639zM869 40l56 -43q-37 -32 -75.5 -66.5t-67.5 -77t-34 -94.5q-3 -29 6.5 -52t44.5 -24q25 -1 47 9.5t41 21.5l4 -86q-27 -21 -55.5 -32t-61.5 -12
q-70 1 -99.5 51t-26.5 111q3 68 36.5 122t83.5 97t101 75z" />
    <glyph glyph-name="aogonek" unicode="&#x105;" horiz-adv-x="936" 
d="M608 194l95 592q6 65 -10.5 113t-58.5 73.5t-111 26.5q-66 2 -120.5 -25t-89.5 -75.5t-48 -114.5h-109q9 71 42.5 130.5t85.5 102t116 65.5t136 22q99 -2 163.5 -42t93.5 -112t20 -169l-90 -553q-9 -56 -9 -108t1 -107l-1 -13h-114q-4 49 -1.5 97t9.5 97zM708 632
l-14 -95l-182 2q-61 -1 -120.5 -14.5t-109 -43.5t-81.5 -78.5t-39 -115.5q-6 -57 8 -102t50 -71t96 -27q78 -1 141.5 29.5t111.5 84.5t76 122l21 -68q-21 -59 -56 -109.5t-83.5 -89t-106 -59t-121.5 -20.5q-89 1 -146 41.5t-83.5 108t-20.5 151.5q6 90 45 156.5t102 110.5
t141 66t162 22zM638 40l55 -43q-36 -31 -75 -66t-67 -77.5t-34 -94.5q-3 -29 7.5 -52t44.5 -24q24 -1 45.5 9.5t41.5 21.5l4 -86q-25 -21 -54.5 -32t-60.5 -12q-72 1 -100.5 51t-26.5 112q3 67 36.5 121t83 97t100.5 75z" />
    <glyph glyph-name="Cacute" unicode="&#x106;" horiz-adv-x="1123" 
d="M877 454l109 1q-25 -137 -87 -246.5t-165.5 -171.5t-253.5 -58q-121 4 -196 59.5t-112.5 145t-46 192.5t4.5 201l51 312q16 109 56 215.5t105 191t159.5 135t219.5 46.5q142 -4 222.5 -69.5t113 -173t26.5 -234.5h-113q3 95 -15 178.5t-74 136t-166 56.5
q-101 2 -174.5 -39.5t-123.5 -112.5t-80 -156.5t-43 -171.5l-48 -314q-11 -74 -9.5 -157t24.5 -158t76.5 -124t150.5 -52q121 -5 197.5 42.5t121 132.5t70.5 193zM672 1597l230 281l151 -2l-269 -279h-112z" />
    <glyph glyph-name="cacute" unicode="&#x107;" horiz-adv-x="901" 
d="M389 83q82 -3 137.5 29.5t90 91t52.5 131.5h102q-17 -100 -68 -182.5t-132 -130t-188 -44.5t-172 47.5t-97.5 117.5t-39 160.5t3.5 175.5l16 124q13 96 44 187t85 162.5t134 113t190 36.5q111 -3 176.5 -57.5t92 -142t20.5 -186.5l-106 1q5 69 -10 132t-57.5 104.5
t-122.5 44.5q-86 4 -146 -29.5t-98.5 -92t-60.5 -130t-31 -143.5l-16 -124q-7 -64 -6.5 -132.5t18 -127.5t63 -96t126.5 -40zM486 1254l230 281l151 -2l-269 -279h-112z" />
    <glyph glyph-name="Ccircumflex" unicode="&#x108;" horiz-adv-x="1123" 
d="M877 454l109 1q-25 -137 -87 -246.5t-165.5 -171.5t-253.5 -58q-121 4 -196 59.5t-112.5 145t-46 192.5t4.5 201l51 312q16 109 56 215.5t105 191t159.5 135t219.5 46.5q142 -4 222.5 -69.5t113 -173t26.5 -234.5h-113q3 95 -15 178.5t-74 136t-166 56.5
q-101 2 -174.5 -39.5t-123.5 -112.5t-80 -156.5t-43 -171.5l-48 -314q-11 -74 -9.5 -157t24.5 -158t76.5 -124t150.5 -52q121 -5 197.5 42.5t121 132.5t70.5 193zM821 1869l161 -259v-12l-98 2l-101 180l-166 -180l-97 -1l1 14l233 255z" />
    <glyph glyph-name="ccircumflex" unicode="&#x109;" horiz-adv-x="901" 
d="M389 83q82 -3 137.5 29.5t90 91t52.5 131.5h102q-17 -100 -68 -182.5t-132 -130t-188 -44.5t-172 47.5t-97.5 117.5t-39 160.5t3.5 175.5l16 124q13 96 44 187t85 162.5t134 113t190 36.5q111 -3 176.5 -57.5t92 -142t20.5 -186.5l-106 1q5 69 -10 132t-57.5 104.5
t-122.5 44.5q-86 4 -146 -29.5t-98.5 -92t-60.5 -130t-31 -143.5l-16 -124q-7 -64 -6.5 -132.5t18 -127.5t63 -96t126.5 -40zM636 1526l161 -259v-12l-98 2l-101 180l-166 -180l-97 -1l1 14l233 255z" />
    <glyph glyph-name="Cdotaccent" unicode="&#x10a;" horiz-adv-x="1123" 
d="M877 454l109 1q-25 -137 -87 -246.5t-165.5 -171.5t-253.5 -58q-121 4 -196 59.5t-112.5 145t-46 192.5t4.5 201l51 312q16 109 56 215.5t105 191t159.5 135t219.5 46.5q142 -4 222.5 -69.5t113 -173t26.5 -234.5h-113q3 95 -15 178.5t-74 136t-166 56.5
q-101 2 -174.5 -39.5t-123.5 -112.5t-80 -156.5t-43 -171.5l-48 -314q-11 -74 -9.5 -157t24.5 -158t76.5 -124t150.5 -52q121 -5 197.5 42.5t121 132.5t70.5 193zM687 1722q3 34 26.5 58.5t57.5 25.5q38 1 60 -23.5t19 -59.5q-2 -33 -27 -56.5t-60 -23.5q-34 -2 -56 21.5
t-20 57.5z" />
    <glyph glyph-name="cdotaccent" unicode="&#x10b;" horiz-adv-x="901" 
d="M389 83q82 -3 137.5 29.5t90 91t52.5 131.5h102q-17 -100 -68 -182.5t-132 -130t-188 -44.5t-172 47.5t-97.5 117.5t-39 160.5t3.5 175.5l16 124q13 96 44 187t85 162.5t134 113t190 36.5q111 -3 176.5 -57.5t92 -142t20.5 -186.5l-106 1q5 69 -10 132t-57.5 104.5
t-122.5 44.5q-86 4 -146 -29.5t-98.5 -92t-60.5 -130t-31 -143.5l-16 -124q-7 -64 -6.5 -132.5t18 -127.5t63 -96t126.5 -40zM501 1379q3 34 26.5 58.5t57.5 25.5q38 1 60 -23.5t19 -59.5q-2 -33 -27 -56.5t-60 -23.5q-34 -2 -56 21.5t-20 57.5z" />
    <glyph glyph-name="Ccaron" unicode="&#x10c;" horiz-adv-x="1123" 
d="M877 454l109 1q-25 -137 -87 -246.5t-165.5 -171.5t-253.5 -58q-121 4 -196 59.5t-112.5 145t-46 192.5t4.5 201l51 312q16 109 56 215.5t105 191t159.5 135t219.5 46.5q142 -4 222.5 -69.5t113 -173t26.5 -234.5h-113q3 95 -15 178.5t-74 136t-166 56.5
q-101 2 -174.5 -39.5t-123.5 -112.5t-80 -156.5t-43 -171.5l-48 -314q-11 -74 -9.5 -157t24.5 -158t76.5 -124t150.5 -52q121 -5 197.5 42.5t121 132.5t70.5 193zM652 1865l100 -190l173 190l98 1l-1 -14l-235 -260h-78l-154 263l1 12z" />
    <glyph glyph-name="ccaron" unicode="&#x10d;" horiz-adv-x="901" 
d="M389 83q82 -3 137.5 29.5t90 91t52.5 131.5h102q-17 -100 -68 -182.5t-132 -130t-188 -44.5t-172 47.5t-97.5 117.5t-39 160.5t3.5 175.5l16 124q13 96 44 187t85 162.5t134 113t190 36.5q111 -3 176.5 -57.5t92 -142t20.5 -186.5l-106 1q5 69 -10 132t-57.5 104.5
t-122.5 44.5q-86 4 -146 -29.5t-98.5 -92t-60.5 -130t-31 -143.5l-16 -124q-7 -64 -6.5 -132.5t18 -127.5t63 -96t126.5 -40zM467 1522l100 -190l173 190l98 1l-1 -14l-235 -260h-78l-154 263l1 12z" />
    <glyph glyph-name="Dcaron" unicode="&#x10e;" horiz-adv-x="1132" 
d="M396 0h-274l21 107h257q145 -2 246 61t162 172t82 242l45 296q12 85 3.5 167.5t-41.5 150t-96.5 108.5t-164.5 45h-287l21 107l269 -1q125 -3 208.5 -52t133 -131t65.5 -184.5t1 -212.5l-45 -293q-19 -123 -66.5 -230t-123.5 -186t-179.5 -123t-236.5 -43zM430 1456
l-253 -1456h-115l253 1456h115zM585 1844l100 -190l173 190l98 1l-1 -14l-235 -260h-78l-154 263l1 12z" />
    <glyph glyph-name="dcaron" unicode="&#x10f;" horiz-adv-x="1119" 
d="M647 217l229 1319h111l-268 -1536h-103zM89 490l13 99q11 90 37.5 182.5t74.5 169t122 121t182 41.5q81 -4 136.5 -41t88 -97t46 -131t9.5 -140l-49 -323q-14 -76 -46 -147t-81.5 -127t-116.5 -89t-150 -30q-103 3 -160.5 52.5t-83 128t-28.5 166.5t6 165zM212 591
l-11 -103q-7 -58 -9 -127t13.5 -131t56.5 -102.5t121 -42.5q75 -3 140 32t111 95t65 132l61 372q1 52 -12.5 100.5t-42.5 88.5t-72 65t-98 26q-85 5 -143.5 -31.5t-94.5 -97.5t-56 -133t-29 -143zM1220 1538l-12 -77q-12 -82 -47.5 -155t-92.5 -130l-65 55q36 54 60.5 108.5
t35.5 118.5l14 80h107z" />
    <glyph glyph-name="Dcroat" unicode="&#x110;" horiz-adv-x="1162" 
d="M426 0h-274l21 107h257q145 -2 246 61t162 172t82 242l45 296q12 85 3.5 167.5t-41.5 150t-96.5 108.5t-164.5 45h-287l21 107l269 -1q125 -3 208.5 -52t133 -131t65.5 -184.5t1 -212.5l-45 -293q-19 -123 -66.5 -230t-123.5 -186t-179.5 -123t-236.5 -43zM460 1456
l-253 -1456h-115l253 1456h115zM609 793l-18 -105h-506l19 105h505z" />
    <glyph glyph-name="dcroat" unicode="&#x111;" horiz-adv-x="1003" 
d="M647 217l229 1319h111l-268 -1536h-103zM93 522l2 21q11 87 39 184.5t77.5 184.5t125 141t182.5 50q85 -2 142.5 -43.5t90.5 -107t45.5 -141t8.5 -147.5l-39 -263q-15 -77 -48 -153.5t-84.5 -138.5t-121 -98t-158.5 -32q-99 4 -156.5 60t-82.5 142t-28 177t5 164z
M209 546l-2 -22q-6 -54 -8 -126.5t12 -143.5t53.5 -118.5t119.5 -50.5q81 -3 146.5 39t110.5 109t64 142l50 310q2 53 -10 106.5t-39 99.5t-70.5 75t-102.5 30q-84 4 -143 -40t-96 -115.5t-57 -150t-28 -144.5zM1101 1361l-20 -104h-505l19 104h506z" />
    <glyph glyph-name="Emacron" unicode="&#x112;" horiz-adv-x="988" 
d="M826 107l-20 -107h-663l19 107h664zM430 1456l-253 -1456h-115l253 1456h115zM863 805l-19 -108h-580l20 108h579zM1054 1456l-20 -107h-657l19 107h658zM986 1772l-17 -100h-515l15 100h517z" />
    <glyph glyph-name="emacron" unicode="&#x113;" horiz-adv-x="910" 
d="M396 -21q-104 2 -171.5 45t-103.5 113.5t-47 157t-1 174.5l15 126q12 92 45.5 183.5t88 166.5t135.5 118.5t188 38.5q100 -3 161 -46t89.5 -111.5t34.5 -152.5t-4 -167l-13 -93h-668l18 104l554 1l5 29q9 72 -1 148t-51.5 128t-131.5 57q-86 3 -147 -32t-99.5 -95
t-61 -133.5t-31.5 -143.5l-15 -126q-7 -64 -2.5 -131.5t27 -123.5t70 -91.5t127.5 -37.5q80 -3 145.5 28t122.5 86l51 -75q-41 -51 -93.5 -83t-112 -47.5t-123.5 -14.5zM875 1451l-17 -100h-515l15 100h517z" />
    <glyph glyph-name="Ebreve" unicode="&#x114;" horiz-adv-x="988" 
d="M826 107l-20 -107h-663l19 107h664zM430 1456l-253 -1456h-115l253 1456h115zM863 805l-19 -108h-580l20 108h579zM1054 1456l-20 -107h-657l19 107h658zM910 1813l97 3q-8 -82 -49 -141t-105.5 -90t-147.5 -29q-117 2 -188.5 71.5t-66.5 188.5l102 -1
q-5 -79 34.5 -124.5t121.5 -46.5q83 -1 135 45t67 124z" />
    <glyph glyph-name="ebreve" unicode="&#x115;" horiz-adv-x="910" 
d="M396 -21q-104 2 -171.5 45t-103.5 113.5t-47 157t-1 174.5l15 126q12 92 45.5 183.5t88 166.5t135.5 118.5t188 38.5q100 -3 161 -46t89.5 -111.5t34.5 -152.5t-4 -167l-13 -93h-668l18 104l554 1l5 29q9 72 -1 148t-51.5 128t-131.5 57q-86 3 -147 -32t-99.5 -95
t-61 -133.5t-31.5 -143.5l-15 -126q-7 -64 -2.5 -131.5t27 -123.5t70 -91.5t127.5 -37.5q80 -3 145.5 28t122.5 86l51 -75q-41 -51 -93.5 -83t-112 -47.5t-123.5 -14.5zM799 1492l97 3q-8 -82 -49 -141t-105.5 -90t-147.5 -29q-117 2 -188.5 71.5t-66.5 188.5l102 -1
q-5 -79 34.5 -124.5t121.5 -46.5q83 -1 135 45t67 124z" />
    <glyph glyph-name="Edotaccent" unicode="&#x116;" horiz-adv-x="988" 
d="M826 107l-20 -107h-663l19 107h664zM430 1456l-253 -1456h-115l253 1456h115zM863 805l-19 -108h-580l20 108h579zM1054 1456l-20 -107h-657l19 107h658zM634 1701q3 34 26.5 58.5t57.5 25.5q38 1 60 -23.5t19 -59.5q-2 -33 -27 -56.5t-60 -23.5q-34 -2 -56 21.5
t-20 57.5z" />
    <glyph glyph-name="edotaccent" unicode="&#x117;" horiz-adv-x="910" 
d="M396 -21q-104 2 -171.5 45t-103.5 113.5t-47 157t-1 174.5l15 126q12 92 45.5 183.5t88 166.5t135.5 118.5t188 38.5q100 -3 161 -46t89.5 -111.5t34.5 -152.5t-4 -167l-13 -93h-668l18 104l554 1l5 29q9 72 -1 148t-51.5 128t-131.5 57q-86 3 -147 -32t-99.5 -95
t-61 -133.5t-31.5 -143.5l-15 -126q-7 -64 -2.5 -131.5t27 -123.5t70 -91.5t127.5 -37.5q80 -3 145.5 28t122.5 86l51 -75q-41 -51 -93.5 -83t-112 -47.5t-123.5 -14.5zM523 1380q3 34 26.5 58.5t57.5 25.5q38 1 60 -23.5t19 -59.5q-2 -33 -27 -56.5t-60 -23.5
q-34 -2 -56 21.5t-20 57.5z" />
    <glyph glyph-name="Eogonek" unicode="&#x118;" horiz-adv-x="988" 
d="M826 107l-20 -107h-663l19 107h664zM430 1456l-253 -1456h-115l253 1456h115zM863 805l-19 -108h-580l20 108h579zM1054 1456l-20 -107h-657l19 107h658zM695 40l55 -43q-37 -32 -75.5 -66.5t-67.5 -77t-34 -94.5q-3 -29 7.5 -52t43.5 -24q24 -1 46.5 9.5t41.5 21.5
l4 -86q-25 -21 -54 -32t-61 -12q-70 1 -99.5 51t-27.5 112q3 67 36 121t83 97t102 75z" />
    <glyph glyph-name="eogonek" unicode="&#x119;" horiz-adv-x="910" 
d="M396 -21q-104 2 -171.5 45t-103.5 113.5t-47 157t-1 174.5l15 126q12 92 45.5 183.5t88 166.5t135.5 118.5t188 38.5q100 -3 161 -46t89.5 -111.5t34.5 -152.5t-4 -167l-13 -93h-668l18 104l554 1l5 29q9 72 -1 148t-51.5 128t-131.5 57q-86 3 -147 -32t-99.5 -95
t-61 -133.5t-31.5 -143.5l-15 -126q-7 -64 -2.5 -131.5t27 -123.5t70 -91.5t127.5 -37.5q80 -3 145.5 28t122.5 86l51 -75q-41 -51 -93.5 -83t-112 -47.5t-123.5 -14.5zM545 83l56 -44q-38 -31 -76.5 -66.5t-67 -78t-32.5 -94.5q-3 -28 7 -51t43 -24q25 0 46.5 10t41.5 21
l4 -86q-25 -21 -54.5 -32t-60.5 -12q-71 1 -100.5 51t-26.5 111q2 67 36 121.5t83.5 97.5t100.5 76z" />
    <glyph glyph-name="Ecaron" unicode="&#x11a;" horiz-adv-x="988" 
d="M826 107l-20 -107h-663l19 107h664zM430 1456l-253 -1456h-115l253 1456h115zM863 805l-19 -108h-580l20 108h579zM1054 1456l-20 -107h-657l19 107h658zM600 1844l100 -190l173 190l98 1l-1 -14l-235 -260h-78l-154 263l1 12z" />
    <glyph glyph-name="ecaron" unicode="&#x11b;" horiz-adv-x="910" 
d="M396 -21q-104 2 -171.5 45t-103.5 113.5t-47 157t-1 174.5l15 126q12 92 45.5 183.5t88 166.5t135.5 118.5t188 38.5q100 -3 161 -46t89.5 -111.5t34.5 -152.5t-4 -167l-13 -93h-668l18 104l554 1l5 29q9 72 -1 148t-51.5 128t-131.5 57q-86 3 -147 -32t-99.5 -95
t-61 -133.5t-31.5 -143.5l-15 -126q-7 -64 -2.5 -131.5t27 -123.5t70 -91.5t127.5 -37.5q80 -3 145.5 28t122.5 86l51 -75q-41 -51 -93.5 -83t-112 -47.5t-123.5 -14.5zM490 1523l100 -190l173 190l98 1l-1 -14l-235 -260h-78l-154 263l1 12z" />
    <glyph glyph-name="Gcircumflex" unicode="&#x11c;" horiz-adv-x="1180" 
d="M1044 694l-82 -523q-53 -67 -124.5 -109.5t-154 -63t-165.5 -19.5q-121 2 -201.5 54t-124 137.5t-55 189t1.5 206.5l52 335q18 112 57.5 216.5t105 186.5t160.5 129t223 43q130 -3 212 -59.5t121 -152t35 -219.5l-115 1q3 90 -21 162.5t-81.5 115t-156.5 45.5
q-103 4 -177 -35t-124 -107t-79.5 -151.5t-44.5 -172.5l-52 -338q-11 -78 -6.5 -160.5t32.5 -154.5t86.5 -117t156.5 -45q61 -2 117.5 12t108 41.5t97.5 66.5l67 379h-310l20 107h421zM826 1869l161 -259v-12l-98 2l-101 180l-166 -180l-97 -1l1 14l233 255z" />
    <glyph glyph-name="gcircumflex" unicode="&#x11d;" horiz-adv-x="967" 
d="M805 1082h103l-189 -1107q-16 -116 -65 -210t-134.5 -147t-213.5 -50q-57 3 -112 21.5t-102 52t-81 80.5l60 77q42 -56 100.5 -90t131.5 -37q95 -4 158.5 34t99 107t47.5 155l148 878zM88 490l13 99q13 91 39 183t73.5 168.5t122.5 121.5t183 41q81 -4 135.5 -40.5
t88 -97t46 -131.5t9.5 -140l-49 -323q-14 -75 -46 -146.5t-81 -127.5t-116.5 -89t-150.5 -30q-102 3 -160 52t-84 128t-28.5 166.5t5.5 165.5zM212 591l-12 -103q-7 -58 -8.5 -127t13.5 -131t56.5 -102.5t122.5 -41.5q75 -4 139.5 31.5t109.5 95t65 130.5l60 372
q2 53 -12 101.5t-42.5 88.5t-71 65t-97.5 26q-85 5 -143 -31.5t-94.5 -97t-56.5 -133t-29 -143.5zM665 1526l161 -259v-12l-98 2l-101 180l-166 -180l-97 -1l1 14l233 255z" />
    <glyph glyph-name="Gbreve" unicode="&#x11e;" horiz-adv-x="1180" 
d="M1044 694l-82 -523q-53 -67 -124.5 -109.5t-154 -63t-165.5 -19.5q-121 2 -201.5 54t-124 137.5t-55 189t1.5 206.5l52 335q18 112 57.5 216.5t105 186.5t160.5 129t223 43q130 -3 212 -59.5t121 -152t35 -219.5l-115 1q3 90 -21 162.5t-81.5 115t-156.5 45.5
q-103 4 -177 -35t-124 -107t-79.5 -151.5t-44.5 -172.5l-52 -338q-11 -78 -6.5 -160.5t32.5 -154.5t86.5 -117t156.5 -45q61 -2 117.5 12t108 41.5t97.5 66.5l67 379h-310l20 107h421zM966 1834l97 3q-8 -82 -49 -141t-105.5 -90t-147.5 -29q-117 2 -188.5 71.5t-66.5 188.5
l102 -1q-5 -79 34.5 -124.5t121.5 -46.5q83 -1 135 45t67 124z" />
    <glyph glyph-name="gbreve" unicode="&#x11f;" horiz-adv-x="967" 
d="M805 1082h103l-189 -1107q-16 -116 -65 -210t-134.5 -147t-213.5 -50q-57 3 -112 21.5t-102 52t-81 80.5l60 77q42 -56 100.5 -90t131.5 -37q95 -4 158.5 34t99 107t47.5 155l148 878zM88 490l13 99q13 91 39 183t73.5 168.5t122.5 121.5t183 41q81 -4 135.5 -40.5
t88 -97t46 -131.5t9.5 -140l-49 -323q-14 -75 -46 -146.5t-81 -127.5t-116.5 -89t-150.5 -30q-102 3 -160 52t-84 128t-28.5 166.5t5.5 165.5zM212 591l-12 -103q-7 -58 -8.5 -127t13.5 -131t56.5 -102.5t122.5 -41.5q75 -4 139.5 31.5t109.5 95t65 130.5l60 372
q2 53 -12 101.5t-42.5 88.5t-71 65t-97.5 26q-85 5 -143 -31.5t-94.5 -97t-56.5 -133t-29 -143.5zM807 1491l97 3q-8 -82 -49 -141t-105.5 -90t-147.5 -29q-117 2 -188.5 71.5t-66.5 188.5l102 -1q-5 -79 34.5 -124.5t121.5 -46.5q83 -1 135 45t67 124z" />
    <glyph glyph-name="Gdotaccent" unicode="&#x120;" horiz-adv-x="1180" 
d="M1044 694l-82 -523q-53 -67 -124.5 -109.5t-154 -63t-165.5 -19.5q-121 2 -201.5 54t-124 137.5t-55 189t1.5 206.5l52 335q18 112 57.5 216.5t105 186.5t160.5 129t223 43q130 -3 212 -59.5t121 -152t35 -219.5l-115 1q3 90 -21 162.5t-81.5 115t-156.5 45.5
q-103 4 -177 -35t-124 -107t-79.5 -151.5t-44.5 -172.5l-52 -338q-11 -78 -6.5 -160.5t32.5 -154.5t86.5 -117t156.5 -45q61 -2 117.5 12t108 41.5t97.5 66.5l67 379h-310l20 107h421zM691 1722q3 34 26.5 58.5t57.5 25.5q38 1 60 -23.5t19 -59.5q-2 -33 -27 -56.5
t-60 -23.5q-34 -2 -56 21.5t-20 57.5z" />
    <glyph glyph-name="gdotaccent" unicode="&#x121;" horiz-adv-x="967" 
d="M805 1082h103l-189 -1107q-16 -116 -65 -210t-134.5 -147t-213.5 -50q-57 3 -112 21.5t-102 52t-81 80.5l60 77q42 -56 100.5 -90t131.5 -37q95 -4 158.5 34t99 107t47.5 155l148 878zM88 490l13 99q13 91 39 183t73.5 168.5t122.5 121.5t183 41q81 -4 135.5 -40.5
t88 -97t46 -131.5t9.5 -140l-49 -323q-14 -75 -46 -146.5t-81 -127.5t-116.5 -89t-150.5 -30q-102 3 -160 52t-84 128t-28.5 166.5t5.5 165.5zM212 591l-12 -103q-7 -58 -8.5 -127t13.5 -131t56.5 -102.5t122.5 -41.5q75 -4 139.5 31.5t109.5 95t65 130.5l60 372
q2 53 -12 101.5t-42.5 88.5t-71 65t-97.5 26q-85 5 -143 -31.5t-94.5 -97t-56.5 -133t-29 -143.5zM531 1379q3 34 26.5 58.5t57.5 25.5q38 1 60 -23.5t19 -59.5q-2 -33 -27 -56.5t-60 -23.5q-34 -2 -56 21.5t-20 57.5z" />
    <glyph glyph-name="uni0122" unicode="&#x122;" horiz-adv-x="1180" 
d="M1044 694l-82 -523q-53 -67 -124.5 -109.5t-154 -63t-165.5 -19.5q-121 2 -201.5 54t-124 137.5t-55 189t1.5 206.5l52 335q18 112 57.5 216.5t105 186.5t160.5 129t223 43q130 -3 212 -59.5t121 -152t35 -219.5l-115 1q3 90 -21 162.5t-81.5 115t-156.5 45.5
q-103 4 -177 -35t-124 -107t-79.5 -151.5t-44.5 -172.5l-52 -338q-11 -78 -6.5 -160.5t32.5 -154.5t86.5 -117t156.5 -45q61 -2 117.5 12t108 41.5t97.5 66.5l67 379h-310l20 107h421zM544 -111l-12 -77q-12 -82 -47.5 -155t-92.5 -130l-65 55q36 54 60.5 108.5t35.5 118.5
l14 80h107z" />
    <glyph glyph-name="uni0123" unicode="&#x123;" horiz-adv-x="967" 
d="M805 1082h103l-189 -1107q-16 -116 -65 -210t-134.5 -147t-213.5 -50q-57 3 -112 21.5t-102 52t-81 80.5l60 77q42 -56 100.5 -90t131.5 -37q95 -4 158.5 34t99 107t47.5 155l148 878zM88 490l13 99q13 91 39 183t73.5 168.5t122.5 121.5t183 41q81 -4 135.5 -40.5
t88 -97t46 -131.5t9.5 -140l-49 -323q-14 -75 -46 -146.5t-81 -127.5t-116.5 -89t-150.5 -30q-102 3 -160 52t-84 128t-28.5 166.5t5.5 165.5zM212 591l-12 -103q-7 -58 -8.5 -127t13.5 -131t56.5 -102.5t122.5 -41.5q75 -4 139.5 31.5t109.5 95t65 130.5l60 372
q2 53 -12 101.5t-42.5 88.5t-71 65t-97.5 26q-85 5 -143 -31.5t-94.5 -97t-56.5 -133t-29 -143.5zM534 1265l20 126q8 48 25 91t43 82t57 74l66 -52q-28 -47 -49 -95t-31 -101l-21 -125h-110z" />
    <glyph glyph-name="Hcircumflex" unicode="&#x124;" horiz-adv-x="1221" 
d="M998 805l-20 -108h-708l20 108h708zM430 1456l-253 -1456h-115l253 1456h115zM1203 1456l-253 -1456h-115l254 1456h114zM845 1848l161 -259v-12l-98 2l-101 180l-166 -180l-97 -1l1 14l233 255z" />
    <glyph glyph-name="hcircumflex" unicode="&#x125;" horiz-adv-x="955" 
d="M416 1536l-266 -1536h-111l267 1536h110zM231 608l-39 25q13 79 44 162t80.5 154t121 113.5t165.5 40.5q82 -2 131.5 -39t72 -95.5t26.5 -127.5t-4 -136l-117 -705h-110l118 708q6 62 1 129t-38.5 113t-114.5 49q-73 1 -130.5 -36t-99 -97.5t-68 -128.5t-39.5 -129z
M662 1847l161 -259v-12l-98 2l-101 180l-166 -180l-97 -1l1 14l233 255z" />
    <glyph glyph-name="Hbar" unicode="&#x126;" horiz-adv-x="1194" 
d="M1245 1126l-17 -100h-1115l18 100h1114zM981 805l-19 -108h-707l19 108h707zM412 1456l-253 -1456h-113l253 1456h113zM1186 1456l-253 -1456h-112l252 1456h113z" />
    <glyph glyph-name="hbar" unicode="&#x127;" horiz-adv-x="985" 
d="M446 1536l-266 -1536h-111l267 1536h110zM261 608l-39 25q13 79 44 162t80.5 154t121 113.5t165.5 40.5q82 -2 131.5 -39t72 -95.5t26.5 -127.5t-4 -136l-117 -705h-110l118 708q6 62 1 129t-38.5 113t-114.5 49q-73 1 -130.5 -36t-99 -97.5t-68 -128.5t-39.5 -129z
M680 1361l-19 -105h-505l19 105h505z" />
    <glyph glyph-name="Itilde" unicode="&#x128;" horiz-adv-x="486" 
d="M450 1456l-253 -1456h-114l253 1456h114zM654 1822l78 -4q-6 -51 -26.5 -101.5t-58.5 -84.5t-98 -33q-35 1 -62 18.5t-50 39.5t-48.5 39.5t-58.5 15.5q-50 0 -72.5 -39t-31.5 -80l-85 4q7 50 28 100t58.5 84t97.5 33q35 0 61.5 -17.5t50 -40.5t49 -39t59.5 -17
q50 1 74.5 41t34.5 81z" />
    <glyph glyph-name="itilde" unicode="&#x129;" horiz-adv-x="418" 
d="M348 1082l-188 -1082h-111l188 1082h111zM564 1490l78 -4q-6 -51 -26.5 -101.5t-58.5 -84.5t-98 -33q-35 1 -62 18.5t-50 39.5t-48.5 39.5t-58.5 15.5q-50 0 -72.5 -39t-31.5 -80l-85 4q7 50 28 100t58.5 84t97.5 33q35 0 61.5 -17.5t50 -40.5t49 -39t59.5 -17
q50 1 74.5 41t34.5 81z" />
    <glyph glyph-name="Imacron" unicode="&#x12a;" horiz-adv-x="486" 
d="M450 1456l-253 -1456h-114l253 1456h114zM707 1772l-17 -100h-515l15 100h517z" />
    <glyph glyph-name="imacron" unicode="&#x12b;" horiz-adv-x="418" 
d="M348 1082l-188 -1082h-111l188 1082h111zM616 1440l-17 -100h-515l15 100h517z" />
    <glyph glyph-name="Ibreve" unicode="&#x12c;" horiz-adv-x="486" 
d="M450 1456l-253 -1456h-114l253 1456h114zM630 1813l97 3q-8 -82 -49 -141t-105.5 -90t-147.5 -29q-117 2 -188.5 71.5t-66.5 188.5l102 -1q-5 -79 34.5 -124.5t121.5 -46.5q83 -1 135 45t67 124z" />
    <glyph glyph-name="ibreve" unicode="&#x12d;" horiz-adv-x="418" 
d="M348 1082l-188 -1082h-111l188 1082h111zM540 1481l97 3q-8 -82 -49 -141t-105.5 -90t-147.5 -29q-117 2 -188.5 71.5t-66.5 188.5l102 -1q-5 -79 34.5 -124.5t121.5 -46.5q83 -1 135 45t67 124z" />
    <glyph glyph-name="Iogonek" unicode="&#x12e;" horiz-adv-x="486" 
d="M450 1456l-253 -1456h-114l253 1456h114zM132 45l55 -43q-36 -31 -75.5 -66t-68 -77.5t-33.5 -94.5q-3 -29 7.5 -52t43.5 -24q24 -1 46.5 9.5t41.5 21.5l4 -86q-25 -21 -54 -32t-62 -12q-70 1 -99.5 51t-26.5 112q3 67 36 121t83 97t102 75z" />
    <glyph glyph-name="iogonek" unicode="&#x12f;" horiz-adv-x="419" 
d="M349 1082l-188 -1082h-110l188 1082h110zM276 1393q3 37 23.5 56.5t53.5 28.5q34 -7 52.5 -26.5t15.5 -57.5q-3 -36 -23.5 -55t-53.5 -26q-33 6 -51.5 25t-16.5 55zM97 40l55 -43q-36 -31 -75.5 -66t-68 -77.5t-33.5 -94.5q-3 -29 7.5 -52t43.5 -24q24 -1 46.5 9.5
t41.5 21.5l4 -86q-25 -21 -54 -32t-62 -12q-70 1 -99.5 51t-26.5 112q3 67 36 121t83 97t102 75z" />
    <glyph glyph-name="Idotaccent" unicode="&#x130;" horiz-adv-x="486" 
d="M450 1456l-253 -1456h-114l253 1456h114zM354 1701q3 34 26.5 58.5t57.5 25.5q38 1 60 -23.5t19 -59.5q-2 -33 -27 -56.5t-60 -23.5q-34 -2 -56 21.5t-20 57.5z" />
    <glyph glyph-name="dotlessi" unicode="&#x131;" horiz-adv-x="418" 
d="M348 1082l-188 -1082h-111l188 1082h111z" />
    <glyph glyph-name="IJ" unicode="&#x132;" horiz-adv-x="1443" 
d="M450 1456l-253 -1456h-114l253 1456h114zM1146 432l174 1024h114l-175 -1022q-16 -115 -67.5 -221.5t-141 -172t-220.5 -62.5q-122 5 -192.5 65t-95.5 155.5t-14 203.5h115q-8 -74 4.5 -145.5t58 -119.5t133.5 -51q96 -3 159.5 50t99.5 134t48 162z" />
    <glyph glyph-name="ij" unicode="&#x133;" horiz-adv-x="843" 
d="M349 1082l-188 -1082h-110l188 1082h110zM276 1393q3 37 23.5 56.5t53.5 28.5q34 -7 52.5 -26.5t15.5 -57.5q-3 -36 -23.5 -55t-53.5 -26q-33 6 -51.5 25t-16.5 55zM653 1082h113l-206 -1211q-11 -78 -42 -151t-89 -118t-150 -42q-25 1 -48 7t-46 13l14 103q17 -6 36 -11
t37 -6q59 -1 95 30.5t54.5 78t26.5 96.5zM692 1393q1 32 21.5 57.5t53.5 27.5q33 0 52.5 -26t15.5 -58q-2 -31 -23 -55.5t-54 -25.5t-51.5 23.5t-14.5 56.5z" />
    <glyph glyph-name="Jcircumflex" unicode="&#x134;" horiz-adv-x="958" 
d="M660 432l174 1024h114l-175 -1022q-16 -115 -67.5 -221.5t-141 -172t-220.5 -62.5q-122 5 -192.5 65t-95.5 155.5t-14 203.5h115q-8 -74 4.5 -145.5t58 -119.5t133.5 -51q96 -3 159.5 50t99.5 134t48 162zM970 1828l161 -259v-12l-98 2l-101 180l-166 -180l-97 -1l1 14
l233 255z" />
    <glyph glyph-name="jcircumflex" unicode="&#x135;" horiz-adv-x="429" 
d="M248 1082h110l-198 -1170q-12 -86 -45.5 -168t-97 -134t-163.5 -50q-26 1 -50 7t-48 15l22 99q20 -6 41 -11t43 -6q63 -1 101.5 39t58 98t25.5 110zM399 1485l161 -259v-12l-98 2l-101 180l-166 -180l-97 -1l1 14l233 255z" />
    <glyph glyph-name="uni0136" unicode="&#x136;" 
d="M430 1456l-253 -1456h-115l253 1456h115zM1164 1457l-625 -669l-323 -319l15 154l244 256l539 577zM814 0l-364 753l82 97l409 -850h-127zM493 -6l-12 -77q-12 -82 -47.5 -155t-92.5 -130l-65 55q36 54 60.5 108.5t35.5 118.5l14 80h107z" />
    <glyph glyph-name="uni0137" unicode="&#x137;" horiz-adv-x="862" 
d="M416 1536l-266 -1536h-111l267 1536h110zM892 1083l-495 -505l-225 -214l9 133l173 184l392 402h146zM607 0l-264 568l74 100l313 -668h-123zM395 -14l-12 -77q-12 -82 -47.5 -155t-92.5 -130l-65 55q36 54 60.5 108.5t35.5 118.5l14 80h107z" />
    <glyph glyph-name="kgreenlandic" unicode="&#x138;" horiz-adv-x="949" 
d="M346 1082l-189 -1082h-111l188 1082h112zM937 1082l-536 -587h-199l8 110h147l437 478zM649 0l-312 518l82 88l360 -606h-130z" />
    <glyph glyph-name="Lacute" unicode="&#x139;" horiz-adv-x="922" 
d="M777 107l-19 -107h-614l19 107h614zM431 1456l-253 -1456h-116l253 1456h116zM312 1538l230 281l151 -2l-269 -279h-112z" />
    <glyph glyph-name="lacute" unicode="&#x13a;" horiz-adv-x="419" 
d="M428 1536l-267 -1536h-110l267 1536h110zM318 1649l230 281l151 -2l-269 -279h-112z" />
    <glyph glyph-name="uni013B" unicode="&#x13b;" horiz-adv-x="922" 
d="M777 107l-19 -107h-614l19 107h614zM431 1456l-253 -1456h-116l253 1456h116zM459 -96l-12 -77q-12 -82 -47.5 -155t-92.5 -130l-65 55q36 54 60.5 108.5t35.5 118.5l14 80h107z" />
    <glyph glyph-name="uni013C" unicode="&#x13c;" horiz-adv-x="419" 
d="M428 1536l-267 -1536h-110l267 1536h110zM144 -96l-12 -77q-12 -82 -47.5 -155t-92.5 -130l-65 55q36 54 60.5 108.5t35.5 118.5l14 80h107z" />
    <glyph glyph-name="Lcaron" unicode="&#x13d;" horiz-adv-x="922" 
d="M777 107l-19 -107h-614l19 107h614zM431 1456l-253 -1456h-116l253 1456h116zM783 1457l-12 -77q-12 -82 -47.5 -155t-92.5 -130l-65 55q36 54 60.5 108.5t35.5 118.5l14 80h107z" />
    <glyph glyph-name="lcaron" unicode="&#x13e;" horiz-adv-x="569" 
d="M428 1536l-267 -1536h-110l267 1536h110zM685 1538l-12 -77q-12 -82 -47.5 -155t-92.5 -130l-65 55q36 54 60.5 108.5t35.5 118.5l14 80h107z" />
    <glyph glyph-name="Ldot" unicode="&#x13f;" horiz-adv-x="922" 
d="M777 107l-19 -107h-614l19 107h614zM431 1456l-253 -1456h-116l253 1456h116zM534 775q3 34 26.5 58.5t57.5 25.5q38 1 60 -23.5t19 -59.5q-2 -33 -27 -56.5t-60 -23.5q-34 -2 -56 21.5t-20 57.5z" />
    <glyph glyph-name="ldot" unicode="&#x140;" horiz-adv-x="639" 
d="M428 1536l-267 -1536h-110l267 1536h110zM405 788q3 34 26.5 58.5t57.5 25.5q38 1 60 -23.5t19 -59.5q-2 -33 -27 -56.5t-60 -23.5q-34 -2 -56 21.5t-20 57.5z" />
    <glyph glyph-name="Lslash" unicode="&#x141;" horiz-adv-x="923" 
d="M576 919l-17 -99l-516 -188l17 99zM775 107l-20 -107h-614l19 107h615zM428 1456l-253 -1456h-116l253 1456h116z" />
    <glyph glyph-name="lslash" unicode="&#x142;" horiz-adv-x="474" 
d="M494 935l-18 -99l-428 -189l19 99zM455 1536l-268 -1536h-110l267 1536h111z" />
    <glyph glyph-name="Nacute" unicode="&#x143;" horiz-adv-x="1225" 
d="M1207 1456l-252 -1456h-112l-450 1243l-215 -1243h-116l253 1456h112l451 -1243l215 1243h114zM706 1570l230 281l151 -2l-269 -279h-112z" />
    <glyph glyph-name="nacute" unicode="&#x144;" horiz-adv-x="957" 
d="M297 852l-147 -852h-111l188 1082h106zM231 608l-39 25q13 79 44 162t80.5 154t121 113.5t165.5 40.5q82 -2 131.5 -39t72 -95.5t26.5 -127.5t-4 -136l-117 -705h-110l118 708q6 62 1 129t-38.5 113t-114.5 49q-73 1 -130.5 -36t-99 -97.5t-68 -128.5t-39.5 -129z
M527 1254l230 281l151 -2l-269 -279h-112z" />
    <glyph glyph-name="uni0145" unicode="&#x145;" horiz-adv-x="1225" 
d="M1207 1456l-252 -1456h-112l-450 1243l-215 -1243h-116l253 1456h112l451 -1243l215 1243h114zM540 -96l-12 -77q-12 -82 -47.5 -155t-92.5 -130l-65 55q36 54 60.5 108.5t35.5 118.5l14 80h107z" />
    <glyph glyph-name="uni0146" unicode="&#x146;" horiz-adv-x="957" 
d="M297 852l-147 -852h-111l188 1082h106zM231 608l-39 25q13 79 44 162t80.5 154t121 113.5t165.5 40.5q82 -2 131.5 -39t72 -95.5t26.5 -127.5t-4 -136l-117 -705h-110l118 708q6 62 1 129t-38.5 113t-114.5 49q-73 1 -130.5 -36t-99 -97.5t-68 -128.5t-39.5 -129z
M416 -96l-12 -77q-12 -82 -47.5 -155t-92.5 -130l-65 55q36 54 60.5 108.5t35.5 118.5l14 80h107z" />
    <glyph glyph-name="Ncaron" unicode="&#x147;" horiz-adv-x="1225" 
d="M1207 1456l-252 -1456h-112l-450 1243l-215 -1243h-116l253 1456h112l451 -1243l215 1243h114zM686 1838l100 -190l173 190l98 1l-1 -14l-235 -260h-78l-154 263l1 12z" />
    <glyph glyph-name="ncaron" unicode="&#x148;" horiz-adv-x="957" 
d="M297 852l-147 -852h-111l188 1082h106zM231 608l-39 25q13 79 44 162t80.5 154t121 113.5t165.5 40.5q82 -2 131.5 -39t72 -95.5t26.5 -127.5t-4 -136l-117 -705h-110l118 708q6 62 1 129t-38.5 113t-114.5 49q-73 1 -130.5 -36t-99 -97.5t-68 -128.5t-39.5 -129z
M509 1522l100 -190l173 190l98 1l-1 -14l-235 -260h-78l-154 263l1 12z" />
    <glyph glyph-name="napostrophe" unicode="&#x149;" horiz-adv-x="957" 
d="M297 852l-147 -852h-111l188 1082h106zM231 608l-39 25q13 79 44 162t80.5 154t121 113.5t165.5 40.5q82 -2 131.5 -39t72 -95.5t26.5 -127.5t-4 -136l-117 -705h-110l118 708q6 62 1 129t-38.5 113t-114.5 49q-73 1 -130.5 -36t-99 -97.5t-68 -128.5t-39.5 -129z
M303 1539l-12 -77q-12 -82 -47.5 -155t-92.5 -130l-65 55q36 54 60.5 108.5t35.5 118.5l14 80h107z" />
    <glyph glyph-name="Eng" unicode="&#x14a;" horiz-adv-x="1206" 
d="M311 1456h115l-253 -1456h-114zM332 1387l89 72l501 -1390l-89 -69zM1081 1456h116l-265 -1541q-11 -87 -45 -169.5t-98 -135t-165 -49.5q-25 0 -49.5 6t-49.5 14l22 105q21 -7 42 -13t42 -7q65 -1 103 39.5t57 99t27 109.5z" />
    <glyph glyph-name="eng" unicode="&#x14b;" horiz-adv-x="972" 
d="M298 846l-146 -846h-111l188 1082h99zM217 565l-31 -1q13 85 39.5 179.5t73.5 177.5t120.5 134.5t180.5 48.5q89 -3 140 -46t73 -109.5t24 -142.5t-5 -146l-122 -749q-12 -86 -45.5 -167t-96.5 -133t-163 -50q-28 0 -54 5.5t-52 14.5l23 105q22 -7 45 -12t46 -6
q65 -2 103 37.5t57 96.5t26 109l121 750q6 48 6.5 106t-11.5 109.5t-47 85.5t-101 36q-89 4 -149.5 -36.5t-100.5 -107t-63 -143t-37 -146.5z" />
    <glyph glyph-name="Omacron" unicode="&#x14c;" horiz-adv-x="1172" 
d="M1091 885l-50 -313q-17 -113 -57 -220t-106.5 -192.5t-162 -134.5t-224.5 -46q-122 4 -199.5 57t-118 139.5t-51 189.5t2.5 205l50 316q17 110 57.5 217.5t107 192.5t161.5 134.5t223 45.5q124 -3 202 -56t118.5 -138.5t50.5 -189t-4 -207.5zM928 570l50 320
q9 77 6.5 160t-28 153t-83 115t-155.5 49q-104 3 -179 -38t-126 -111t-81 -156.5t-43 -174.5l-49 -317q-11 -79 -7 -161t29 -153.5t82.5 -117.5t154.5 -49q106 -3 180.5 37.5t125.5 111t80.5 157t42.5 175.5zM1048 1777l-17 -100h-515l15 100h517z" />
    <glyph glyph-name="omacron" unicode="&#x14d;" horiz-adv-x="975" 
d="M87 485l13 111q13 94 46 185t89 165.5t137 117.5t187 39q104 -3 169 -49.5t99 -121.5t43.5 -162t-0.5 -173l-14 -112q-13 -93 -46.5 -184.5t-89.5 -165.5t-136.5 -117t-188.5 -40q-103 3 -168 50t-98.5 122t-43 162t1.5 173zM212 597l-15 -115q-6 -59 -3.5 -127.5
t22.5 -129t65 -100t122 -42.5q84 -4 145 32t101 96t63.5 132t32.5 142l15 113q7 60 3.5 127.5t-23.5 129t-65.5 101.5t-122.5 43q-82 3 -141.5 -33t-101 -97t-65.5 -132t-32 -140zM881 1450l-17 -100h-515l15 100h517z" />
    <glyph glyph-name="Obreve" unicode="&#x14e;" horiz-adv-x="1172" 
d="M1091 885l-50 -313q-17 -113 -57 -220t-106.5 -192.5t-162 -134.5t-224.5 -46q-122 4 -199.5 57t-118 139.5t-51 189.5t2.5 205l50 316q17 110 57.5 217.5t107 192.5t161.5 134.5t223 45.5q124 -3 202 -56t118.5 -138.5t50.5 -189t-4 -207.5zM928 570l50 320
q9 77 6.5 160t-28 153t-83 115t-155.5 49q-104 3 -179 -38t-126 -111t-81 -156.5t-43 -174.5l-49 -317q-11 -79 -7 -161t29 -153.5t82.5 -117.5t154.5 -49q106 -3 180.5 37.5t125.5 111t80.5 157t42.5 175.5zM972 1818l97 3q-8 -82 -49 -141t-105.5 -90t-147.5 -29
q-117 2 -188.5 71.5t-66.5 188.5l102 -1q-5 -79 34.5 -124.5t121.5 -46.5q83 -1 135 45t67 124z" />
    <glyph glyph-name="obreve" unicode="&#x14f;" horiz-adv-x="975" 
d="M87 485l13 111q13 94 46 185t89 165.5t137 117.5t187 39q104 -3 169 -49.5t99 -121.5t43.5 -162t-0.5 -173l-14 -112q-13 -93 -46.5 -184.5t-89.5 -165.5t-136.5 -117t-188.5 -40q-103 3 -168 50t-98.5 122t-43 162t1.5 173zM212 597l-15 -115q-6 -59 -3.5 -127.5
t22.5 -129t65 -100t122 -42.5q84 -4 145 32t101 96t63.5 132t32.5 142l15 113q7 60 3.5 127.5t-23.5 129t-65.5 101.5t-122.5 43q-82 3 -141.5 -33t-101 -97t-65.5 -132t-32 -140zM804 1491l97 3q-8 -82 -49 -141t-105.5 -90t-147.5 -29q-117 2 -188.5 71.5t-66.5 188.5
l102 -1q-5 -79 34.5 -124.5t121.5 -46.5q83 -1 135 45t67 124z" />
    <glyph glyph-name="Ohungarumlaut" unicode="&#x150;" horiz-adv-x="1172" 
d="M1091 885l-50 -313q-17 -113 -57 -220t-106.5 -192.5t-162 -134.5t-224.5 -46q-122 4 -199.5 57t-118 139.5t-51 189.5t2.5 205l50 316q17 110 57.5 217.5t107 192.5t161.5 134.5t223 45.5q124 -3 202 -56t118.5 -138.5t50.5 -189t-4 -207.5zM928 570l50 320
q9 77 6.5 160t-28 153t-83 115t-155.5 49q-104 3 -179 -38t-126 -111t-81 -156.5t-43 -174.5l-49 -317q-11 -79 -7 -161t29 -153.5t82.5 -117.5t154.5 -49q106 -3 180.5 37.5t125.5 111t80.5 157t42.5 175.5zM777 1557l259 305h137l-279 -305h-117zM565 1558l213 304h131
l-239 -304h-105z" />
    <glyph glyph-name="ohungarumlaut" unicode="&#x151;" horiz-adv-x="975" 
d="M87 485l13 111q13 94 46 185t89 165.5t137 117.5t187 39q104 -3 169 -49.5t99 -121.5t43.5 -162t-0.5 -173l-14 -112q-13 -93 -46.5 -184.5t-89.5 -165.5t-136.5 -117t-188.5 -40q-103 3 -168 50t-98.5 122t-43 162t1.5 173zM212 597l-15 -115q-6 -59 -3.5 -127.5
t22.5 -129t65 -100t122 -42.5q84 -4 145 32t101 96t63.5 132t32.5 142l15 113q7 60 3.5 127.5t-23.5 129t-65.5 101.5t-122.5 43q-82 3 -141.5 -33t-101 -97t-65.5 -132t-32 -140zM609 1230l259 305h137l-279 -305h-117zM397 1231l213 304h131l-239 -304h-105z" />
    <glyph glyph-name="OE" unicode="&#x152;" horiz-adv-x="1603" 
d="M688 1478q64 0 129 -7t129 -15l-12 -107q-63 14 -125 20.5t-124 7.5q-101 1 -174 -43.5t-123.5 -118t-80.5 -161t-43 -172.5l-47 -307q-9 -70 -7 -152.5t24.5 -158.5t75.5 -125t146 -52q65 -2 129.5 3.5t127.5 16.5l-10 -107q-63 -8 -126.5 -14t-126.5 -5
q-116 3 -189 60.5t-112 146.5t-48 191.5t4 196.5l47 304q16 107 56.5 212.5t105.5 193.5t158.5 140.5t215.5 51.5zM1405 107l-20 -107h-662l18 107h664zM1008 1456l-253 -1456h-115l253 1456h115zM1441 805l-19 -108h-579l19 108h579zM1633 1456l-20 -107h-657l19 107h658z
" />
    <glyph glyph-name="oe" unicode="&#x153;" horiz-adv-x="1575" 
d="M1071 -18q-102 1 -166 52.5t-98 131t-43.5 170t0.5 171.5l5 55q13 87 46 182.5t88.5 178t135 133.5t182.5 48q95 -4 154.5 -46.5t91.5 -111t40 -148.5t-1 -159l-15 -102h-661l18 104l548 -1l4 32q10 69 -2.5 143.5t-55.5 127t-129 56.5q-80 3 -138.5 -40t-99 -111.5
t-64 -144.5t-32.5 -139l-6 -54q-6 -57 -4.5 -128.5t21.5 -138.5t64 -111t121 -47q83 -3 152 28.5t129 89.5l38 -87q-62 -70 -146 -104t-177 -30zM84 518l4 32q11 95 45 192.5t92.5 181t141.5 133.5t193 46q106 -4 171.5 -56.5t98.5 -134.5t40.5 -175t-1.5 -175l-3 -34
q-11 -95 -45 -192.5t-92 -179.5t-141 -131t-192 -46q-105 3 -171 55.5t-99.5 133.5t-41.5 174t0 176zM199 550l-3 -33q-7 -58 -5 -131.5t21 -141.5t64 -113t126 -48q86 -3 148.5 39t105 111t67 147t34.5 147l3 32q6 59 4 133t-21.5 143t-65.5 115t-126 49q-85 3 -147.5 -40
t-104.5 -112.5t-66 -148t-34 -148.5z" />
    <glyph glyph-name="Racute" unicode="&#x154;" horiz-adv-x="1092" 
d="M313 1456l379 -1q124 -4 203.5 -59.5t114 -149t23.5 -211.5q-10 -104 -53.5 -185.5t-115.5 -138t-169 -89.5l-40 -17l-414 1l17 107l327 -1q93 0 165 44.5t115.5 117t53.5 162.5q9 84 -12 153.5t-74.5 113t-142.5 46.5h-281l-234 -1349h-115zM787 0l-189 651l115 1
l197 -638l-1 -14h-122zM610 1570l230 281l151 -2l-269 -279h-112z" />
    <glyph glyph-name="racute" unicode="&#x155;" horiz-adv-x="601" 
d="M307 905l-157 -905h-111l188 1082h108zM641 1090l-16 -110q-18 3 -34.5 5.5t-32.5 2.5q-76 2 -130 -32t-91 -89.5t-61 -121t-39 -126.5l-41 -17q13 76 36.5 164t65.5 167t108.5 127.5t164.5 44.5q18 0 35.5 -4.5t34.5 -10.5zM392 1254l230 281l151 -2l-269 -279h-112z
" />
    <glyph glyph-name="uni0156" unicode="&#x156;" horiz-adv-x="1092" 
d="M313 1456l379 -1q124 -4 203.5 -59.5t114 -149t23.5 -211.5q-10 -104 -53.5 -185.5t-115.5 -138t-169 -89.5l-40 -17l-414 1l17 107l327 -1q93 0 165 44.5t115.5 117t53.5 162.5q9 84 -12 153.5t-74.5 113t-142.5 46.5h-281l-234 -1349h-115zM787 0l-189 651l115 1
l197 -638l-1 -14h-122zM448 -96l-12 -77q-12 -82 -47.5 -155t-92.5 -130l-65 55q36 54 60.5 108.5t35.5 118.5l14 80h107z" />
    <glyph glyph-name="uni0157" unicode="&#x157;" horiz-adv-x="601" 
d="M307 905l-157 -905h-111l188 1082h108zM641 1090l-16 -110q-18 3 -34.5 5.5t-32.5 2.5q-76 2 -130 -32t-91 -89.5t-61 -121t-39 -126.5l-41 -17q13 76 36.5 164t65.5 167t108.5 127.5t164.5 44.5q18 0 35.5 -4.5t34.5 -10.5zM139 -91l-12 -77q-12 -82 -47.5 -155
t-92.5 -130l-65 55q36 54 60.5 108.5t35.5 118.5l14 80h107z" />
    <glyph glyph-name="Rcaron" unicode="&#x158;" horiz-adv-x="1092" 
d="M313 1456l379 -1q124 -4 203.5 -59.5t114 -149t23.5 -211.5q-10 -104 -53.5 -185.5t-115.5 -138t-169 -89.5l-40 -17l-414 1l17 107l327 -1q93 0 165 44.5t115.5 117t53.5 162.5q9 84 -12 153.5t-74.5 113t-142.5 46.5h-281l-234 -1349h-115zM787 0l-189 651l115 1
l197 -638l-1 -14h-122zM589 1838l100 -190l173 190l98 1l-1 -14l-235 -260h-78l-154 263l1 12z" />
    <glyph glyph-name="rcaron" unicode="&#x159;" horiz-adv-x="601" 
d="M307 905l-157 -905h-111l188 1082h108zM641 1090l-16 -110q-18 3 -34.5 5.5t-32.5 2.5q-76 2 -130 -32t-91 -89.5t-61 -121t-39 -126.5l-41 -17q13 76 36.5 164t65.5 167t108.5 127.5t164.5 44.5q18 0 35.5 -4.5t34.5 -10.5zM373 1522l100 -190l173 190l98 1l-1 -14
l-235 -260h-78l-154 263l1 12z" />
    <glyph glyph-name="Sacute" unicode="&#x15a;" horiz-adv-x="1027" 
d="M789 368q8 66 -9 116t-53 86t-85.5 63.5t-106.5 49.5q-69 30 -130 65.5t-106 83.5t-68 111t-15 147q6 89 45 161t101 123.5t139.5 77.5t164.5 24q122 -3 203.5 -64t117.5 -158.5t25 -211.5l-112 -1q8 84 -13.5 158t-77 121t-150.5 49q-85 2 -155.5 -31.5t-117 -96.5
t-56.5 -147q-7 -63 10.5 -109.5t53.5 -81.5t83.5 -61.5t100.5 -46.5q74 -29 136.5 -66.5t107.5 -88.5t67 -117t14 -153q-8 -92 -47.5 -165.5t-103 -124t-143.5 -77t-170 -24.5q-94 4 -168.5 36.5t-124.5 92.5t-72.5 139t-13.5 171l114 -1q-7 -69 7.5 -129t48.5 -104.5
t88.5 -69.5t127.5 -28q87 -2 161 32t123 97.5t59 152.5zM625 1581l230 281l151 -2l-269 -279h-112z" />
    <glyph glyph-name="sacute" unicode="&#x15b;" horiz-adv-x="887" 
d="M612 274q8 59 -22.5 100.5t-77.5 71.5t-91 53q-48 27 -94.5 54.5t-83.5 62.5t-58 81.5t-17 108.5q4 68 34 123.5t77.5 94.5t108 59.5t128.5 18.5q93 -2 160 -42t101 -111.5t27 -161.5l-109 -1q3 60 -17.5 107.5t-63.5 75t-104 28.5q-59 1 -109.5 -20.5t-84 -64
t-40.5 -101.5q-5 -43 10.5 -75t44 -56t63 -43t65.5 -36q68 -35 130 -75.5t99.5 -98.5t32.5 -145q-4 -73 -35 -130t-81 -96t-114 -58t-133 -18q-94 2 -166 41.5t-111 109.5t-32 166l111 -1q-3 -67 20 -114t69.5 -71.5t114.5 -25.5q58 0 112.5 20.5t91.5 63.5t44 105z
M488 1254l230 281l151 -2l-269 -279h-112z" />
    <glyph glyph-name="Scircumflex" unicode="&#x15c;" horiz-adv-x="1027" 
d="M789 368q8 66 -9 116t-53 86t-85.5 63.5t-106.5 49.5q-69 30 -130 65.5t-106 83.5t-68 111t-15 147q6 89 45 161t101 123.5t139.5 77.5t164.5 24q122 -3 203.5 -64t117.5 -158.5t25 -211.5l-112 -1q8 84 -13.5 158t-77 121t-150.5 49q-85 2 -155.5 -31.5t-117 -96.5
t-56.5 -147q-7 -63 10.5 -109.5t53.5 -81.5t83.5 -61.5t100.5 -46.5q74 -29 136.5 -66.5t107.5 -88.5t67 -117t14 -153q-8 -92 -47.5 -165.5t-103 -124t-143.5 -77t-170 -24.5q-94 4 -168.5 36.5t-124.5 92.5t-72.5 139t-13.5 171l114 -1q-7 -69 7.5 -129t48.5 -104.5
t88.5 -69.5t127.5 -28q87 -2 161 32t123 97.5t59 152.5zM775 1853l161 -259v-12l-98 2l-101 180l-166 -180l-97 -1l1 14l233 255z" />
    <glyph glyph-name="scircumflex" unicode="&#x15d;" horiz-adv-x="887" 
d="M612 274q8 59 -22.5 100.5t-77.5 71.5t-91 53q-48 27 -94.5 54.5t-83.5 62.5t-58 81.5t-17 108.5q4 68 34 123.5t77.5 94.5t108 59.5t128.5 18.5q93 -2 160 -42t101 -111.5t27 -161.5l-109 -1q3 60 -17.5 107.5t-63.5 75t-104 28.5q-59 1 -109.5 -20.5t-84 -64
t-40.5 -101.5q-5 -43 10.5 -75t44 -56t63 -43t65.5 -36q68 -35 130 -75.5t99.5 -98.5t32.5 -145q-4 -73 -35 -130t-81 -96t-114 -58t-133 -18q-94 2 -166 41.5t-111 109.5t-32 166l111 -1q-3 -67 20 -114t69.5 -71.5t114.5 -25.5q58 0 112.5 20.5t91.5 63.5t44 105z
M637 1526l161 -259v-12l-98 2l-101 180l-166 -180l-97 -1l1 14l233 255z" />
    <glyph glyph-name="Scedilla" unicode="&#x15e;" horiz-adv-x="1027" 
d="M789 368q8 66 -9 116t-53 86t-85.5 63.5t-106.5 49.5q-69 30 -130 65.5t-106 83.5t-68 111t-15 147q6 89 45 161t101 123.5t139.5 77.5t164.5 24q122 -3 203.5 -64t117.5 -158.5t25 -211.5l-112 -1q8 84 -13.5 158t-77 121t-150.5 49q-85 2 -155.5 -31.5t-117 -96.5
t-56.5 -147q-7 -63 10.5 -109.5t53.5 -81.5t83.5 -61.5t100.5 -46.5q74 -29 136.5 -66.5t107.5 -88.5t67 -117t14 -153q-8 -92 -47.5 -165.5t-103 -124t-143.5 -77t-170 -24.5q-94 4 -168.5 36.5t-124.5 92.5t-72.5 139t-13.5 171l114 -1q-7 -69 7.5 -129t48.5 -104.5
t88.5 -69.5t127.5 -28q87 -2 161 32t123 97.5t59 152.5zM386 -5h85l-21 -66q60 -14 85 -58t23 -103q-3 -57 -27 -96.5t-62.5 -63.5t-86 -36.5t-97.5 -14.5l1 82q40 2 79 14t67 39.5t33 73.5q6 40 -11 60t-46.5 28t-61.5 13z" />
    <glyph glyph-name="scedilla" unicode="&#x15f;" horiz-adv-x="887" 
d="M612 274q8 59 -22.5 100.5t-77.5 71.5t-91 53q-48 27 -94.5 54.5t-83.5 62.5t-58 81.5t-17 108.5q4 68 34 123.5t77.5 94.5t108 59.5t128.5 18.5q93 -2 160 -42t101 -111.5t27 -161.5l-109 -1q3 60 -17.5 107.5t-63.5 75t-104 28.5q-59 1 -109.5 -20.5t-84 -64
t-40.5 -101.5q-5 -43 10.5 -75t44 -56t63 -43t65.5 -36q68 -35 130 -75.5t99.5 -98.5t32.5 -145q-4 -73 -35 -130t-81 -96t-114 -58t-133 -18q-94 2 -166 41.5t-111 109.5t-32 166l111 -1q-3 -67 20 -114t69.5 -71.5t114.5 -25.5q58 0 112.5 20.5t91.5 63.5t44 105zM325 -7
h85l-21 -66q60 -14 85 -58t23 -103q-3 -57 -27 -96.5t-62.5 -63.5t-86 -36.5t-97.5 -14.5l1 82q40 2 79 14t67 39.5t33 73.5q6 40 -11 60t-46.5 28t-61.5 13z" />
    <glyph glyph-name="Scaron" unicode="&#x160;" horiz-adv-x="1027" 
d="M789 368q8 66 -9 116t-53 86t-85.5 63.5t-106.5 49.5q-69 30 -130 65.5t-106 83.5t-68 111t-15 147q6 89 45 161t101 123.5t139.5 77.5t164.5 24q122 -3 203.5 -64t117.5 -158.5t25 -211.5l-112 -1q8 84 -13.5 158t-77 121t-150.5 49q-85 2 -155.5 -31.5t-117 -96.5
t-56.5 -147q-7 -63 10.5 -109.5t53.5 -81.5t83.5 -61.5t100.5 -46.5q74 -29 136.5 -66.5t107.5 -88.5t67 -117t14 -153q-8 -92 -47.5 -165.5t-103 -124t-143.5 -77t-170 -24.5q-94 4 -168.5 36.5t-124.5 92.5t-72.5 139t-13.5 171l114 -1q-7 -69 7.5 -129t48.5 -104.5
t88.5 -69.5t127.5 -28q87 -2 161 32t123 97.5t59 152.5zM607 1849l100 -190l173 190l98 1l-1 -14l-235 -260h-78l-154 263l1 12z" />
    <glyph glyph-name="scaron" unicode="&#x161;" horiz-adv-x="887" 
d="M612 274q8 59 -22.5 100.5t-77.5 71.5t-91 53q-48 27 -94.5 54.5t-83.5 62.5t-58 81.5t-17 108.5q4 68 34 123.5t77.5 94.5t108 59.5t128.5 18.5q93 -2 160 -42t101 -111.5t27 -161.5l-109 -1q3 60 -17.5 107.5t-63.5 75t-104 28.5q-59 1 -109.5 -20.5t-84 -64
t-40.5 -101.5q-5 -43 10.5 -75t44 -56t63 -43t65.5 -36q68 -35 130 -75.5t99.5 -98.5t32.5 -145q-4 -73 -35 -130t-81 -96t-114 -58t-133 -18q-94 2 -166 41.5t-111 109.5t-32 166l111 -1q-3 -67 20 -114t69.5 -71.5t114.5 -25.5q58 0 112.5 20.5t91.5 63.5t44 105z
M470 1522l100 -190l173 190l98 1l-1 -14l-235 -260h-78l-154 263l1 12z" />
    <glyph glyph-name="uni0162" unicode="&#x162;" horiz-adv-x="1035" 
d="M724 1456l-254 -1456h-113l253 1456h114zM1125 1456l-19 -107h-917l21 107h915zM373 0h85l-21 -66q60 -14 85 -58t23 -103q-3 -57 -27 -96.5t-62.5 -63.5t-86 -36.5t-97.5 -14.5l1 82q40 2 79 14t67 39.5t33 73.5q6 40 -11 60t-46.5 28t-61.5 13z" />
    <glyph glyph-name="uni0163" unicode="&#x163;" horiz-adv-x="577" 
d="M571 1082l-18 -100h-451l18 100h451zM329 1359h111l-185 -1097q-3 -32 -3 -71.5t16 -69t60 -30.5q20 -1 39.5 2t38.5 6l-6 -103q-26 -7 -51 -10.5t-51 -3.5q-75 1 -109.5 47t-42 111t-1.5 125zM230 0h85l-21 -66q60 -14 85 -58t23 -103q-3 -57 -27 -96.5t-62.5 -63.5
t-86 -36.5t-97.5 -14.5l1 82q40 2 79 14t67 39.5t33 73.5q6 40 -11 60t-46.5 28t-61.5 13z" />
    <glyph glyph-name="Tcaron" unicode="&#x164;" horiz-adv-x="1035" 
d="M724 1456l-254 -1456h-113l253 1456h114zM1125 1456l-19 -107h-917l21 107h915zM591 1834l100 -190l173 190l98 1l-1 -14l-235 -260h-78l-154 263l1 12z" />
    <glyph glyph-name="tcaron" unicode="&#x165;" horiz-adv-x="617" 
d="M571 1082l-18 -100h-451l18 100h451zM329 1359h111l-185 -1097q-3 -32 -3 -71.5t16 -69t60 -30.5q20 -1 39.5 2t38.5 6l-6 -103q-26 -7 -51 -10.5t-51 -3.5q-75 1 -109.5 47t-42 111t-1.5 125zM749 1611l-12 -77q-12 -82 -47.5 -155t-92.5 -130l-65 55q36 54 60.5 108.5
t35.5 118.5l14 80h107z" />
    <glyph glyph-name="Tbar" unicode="&#x166;" horiz-adv-x="1035" 
d="M724 1456l-254 -1456h-113l253 1456h114zM1125 1456l-19 -107h-917l21 107h915zM828 938l-20 -104h-504l18 104h506z" />
    <glyph glyph-name="tbar" unicode="&#x167;" horiz-adv-x="577" 
d="M571 1082l-18 -100h-451l18 100h451zM329 1359h111l-185 -1097q-3 -32 -3 -71.5t16 -69t60 -30.5q20 -1 39.5 2t38.5 6l-6 -103q-26 -7 -51 -10.5t-51 -3.5q-75 1 -109.5 47t-42 111t-1.5 125zM553 721l-20 -104h-506l19 104h507z" />
    <glyph glyph-name="Utilde" unicode="&#x168;" horiz-adv-x="1133" 
d="M1023 1456h116l-175 -1024q-21 -134 -82.5 -237.5t-164 -161.5t-244.5 -55q-135 3 -217.5 63t-115.5 161t-18 228l174 1026h113l-173 -1027q-11 -94 8 -170t76.5 -122.5t160.5 -50.5q109 -4 186 40t122.5 122t60.5 181zM983 1816l78 -4q-6 -51 -26.5 -101.5t-58.5 -84.5
t-98 -33q-35 1 -62 18.5t-50 39.5t-48.5 39.5t-58.5 15.5q-50 0 -72.5 -39t-31.5 -80l-85 4q7 50 28 100t58.5 84t97.5 33q35 0 61.5 -17.5t50 -40.5t49 -39t59.5 -17q50 1 74.5 41t34.5 81z" />
    <glyph glyph-name="utilde" unicode="&#x169;" horiz-adv-x="956" 
d="M645 254l143 828h110l-188 -1082h-107zM700 452l50 2q-14 -87 -41 -173t-74 -155.5t-119.5 -110t-175.5 -36.5q-84 1 -134 40t-74 100t-28 132t3 138l116 693h111l-116 -696q-3 -44 -3.5 -94.5t13 -96.5t45.5 -76t89 -33q109 -4 177 50t106 139t55 177zM841 1502l78 -4
q-6 -51 -26.5 -101.5t-58.5 -84.5t-98 -33q-35 1 -62 18.5t-50 39.5t-48.5 39.5t-58.5 15.5q-50 0 -72.5 -39t-31.5 -80l-85 4q7 50 28 100t58.5 84t97.5 33q35 0 61.5 -17.5t50 -40.5t49 -39t59.5 -17q50 1 74.5 41t34.5 81z" />
    <glyph glyph-name="Umacron" unicode="&#x16a;" horiz-adv-x="1133" 
d="M1023 1456h116l-175 -1024q-21 -134 -82.5 -237.5t-164 -161.5t-244.5 -55q-135 3 -217.5 63t-115.5 161t-18 228l174 1026h113l-173 -1027q-11 -94 8 -170t76.5 -122.5t160.5 -50.5q109 -4 186 40t122.5 122t60.5 181zM1034 1766l-17 -100h-515l15 100h517z" />
    <glyph glyph-name="umacron" unicode="&#x16b;" horiz-adv-x="956" 
d="M645 254l143 828h110l-188 -1082h-107zM700 452l50 2q-14 -87 -41 -173t-74 -155.5t-119.5 -110t-175.5 -36.5q-84 1 -134 40t-74 100t-28 132t3 138l116 693h111l-116 -696q-3 -44 -3.5 -94.5t13 -96.5t45.5 -76t89 -33q109 -4 177 50t106 139t55 177zM893 1452
l-17 -100h-515l15 100h517z" />
    <glyph glyph-name="Ubreve" unicode="&#x16c;" horiz-adv-x="1133" 
d="M1023 1456h116l-175 -1024q-21 -134 -82.5 -237.5t-164 -161.5t-244.5 -55q-135 3 -217.5 63t-115.5 161t-18 228l174 1026h113l-173 -1027q-11 -94 8 -170t76.5 -122.5t160.5 -50.5q109 -4 186 40t122.5 122t60.5 181zM959 1807l97 3q-8 -82 -49 -141t-105.5 -90
t-147.5 -29q-117 2 -188.5 71.5t-66.5 188.5l102 -1q-5 -79 34.5 -124.5t121.5 -46.5q83 -1 135 45t67 124z" />
    <glyph glyph-name="ubreve" unicode="&#x16d;" horiz-adv-x="956" 
d="M645 254l143 828h110l-188 -1082h-107zM700 452l50 2q-14 -87 -41 -173t-74 -155.5t-119.5 -110t-175.5 -36.5q-84 1 -134 40t-74 100t-28 132t3 138l116 693h111l-116 -696q-3 -44 -3.5 -94.5t13 -96.5t45.5 -76t89 -33q109 -4 177 50t106 139t55 177zM817 1493l97 3
q-8 -82 -49 -141t-105.5 -90t-147.5 -29q-117 2 -188.5 71.5t-66.5 188.5l102 -1q-5 -79 34.5 -124.5t121.5 -46.5q83 -1 135 45t67 124z" />
    <glyph glyph-name="Uring" unicode="&#x16e;" horiz-adv-x="1133" 
d="M1023 1456h116l-175 -1024q-21 -134 -82.5 -237.5t-164 -161.5t-244.5 -55q-135 3 -217.5 63t-115.5 161t-18 228l174 1026h113l-173 -1027q-11 -94 8 -170t76.5 -122.5t160.5 -50.5q109 -4 186 40t122.5 122t60.5 181zM580 1708q2 54 29 100t71.5 73.5t100.5 27.5
q77 0 127 -54.5t48 -130.5q-2 -55 -29 -100t-72.5 -71t-99.5 -26q-76 0 -126 52t-49 129zM656 1711q-5 -45 22.5 -78t73.5 -33q50 1 86 37t41 85q5 45 -21 80t-73 34q-52 -1 -88 -39t-41 -86z" />
    <glyph glyph-name="uring" unicode="&#x16f;" horiz-adv-x="956" 
d="M645 254l143 828h110l-188 -1082h-107zM700 452l50 2q-14 -87 -41 -173t-74 -155.5t-119.5 -110t-175.5 -36.5q-84 1 -134 40t-74 100t-28 132t3 138l116 693h111l-116 -696q-3 -44 -3.5 -94.5t13 -96.5t45.5 -76t89 -33q109 -4 177 50t106 139t55 177zM438 1395
q2 54 29 100t71.5 73.5t100.5 27.5q77 0 127 -54.5t48 -130.5q-2 -55 -29 -100t-72.5 -71t-99.5 -26q-76 0 -126 52t-49 129zM514 1398q-5 -45 22.5 -78t73.5 -33q50 1 86 37t41 85q5 45 -21 80t-73 34q-52 -1 -88 -39t-41 -86z" />
    <glyph glyph-name="Uhungarumlaut" unicode="&#x170;" horiz-adv-x="1133" 
d="M1023 1456h116l-175 -1024q-21 -134 -82.5 -237.5t-164 -161.5t-244.5 -55q-135 3 -217.5 63t-115.5 161t-18 228l174 1026h113l-173 -1027q-11 -94 8 -170t76.5 -122.5t160.5 -50.5q109 -4 186 40t122.5 122t60.5 181zM764 1546l259 305h137l-279 -305h-117zM552 1547
l213 304h131l-239 -304h-105z" />
    <glyph glyph-name="uhungarumlaut" unicode="&#x171;" horiz-adv-x="956" 
d="M645 254l143 828h110l-188 -1082h-107zM700 452l50 2q-14 -87 -41 -173t-74 -155.5t-119.5 -110t-175.5 -36.5q-84 1 -134 40t-74 100t-28 132t3 138l116 693h111l-116 -696q-3 -44 -3.5 -94.5t13 -96.5t45.5 -76t89 -33q109 -4 177 50t106 139t55 177zM622 1232l259 305
h137l-279 -305h-117zM410 1233l213 304h131l-239 -304h-105z" />
    <glyph glyph-name="Uogonek" unicode="&#x172;" horiz-adv-x="1134" 
d="M1023 1456h116l-175 -1024q-21 -134 -82.5 -237.5t-164 -161.5t-244.5 -55q-135 3 -217.5 63t-115.5 161t-18 228l174 1026h113l-173 -1027q-11 -94 8 -170t76.5 -122.5t160.5 -50.5q109 -4 186 40t122.5 122t60.5 181zM632 79l55 -43q-37 -32 -76 -67t-67.5 -77
t-33.5 -94q-3 -29 7.5 -52t43.5 -23q25 -2 46 8t42 22l4 -88q-26 -19 -55 -30t-61 -12q-70 0 -99 50.5t-27 111.5q3 68 36.5 122.5t83.5 97.5t101 74z" />
    <glyph glyph-name="uogonek" unicode="&#x173;" horiz-adv-x="956" 
d="M645 254l143 828h110l-188 -1082h-106zM700 452l50 2q-14 -87 -41 -173t-74 -155.5t-119.5 -110t-175.5 -36.5q-84 1 -134 40t-74 100t-28 132t3 138l116 693h111l-116 -696q-3 -44 -3 -94.5t13 -96.5t45 -76t89 -33q109 -4 177 50t106 139t55 177zM650 40l55 -43
q-37 -32 -75.5 -67t-67.5 -77.5t-33 -94.5q-4 -28 6 -51t45 -24q23 -1 44.5 9.5t41.5 21.5l5 -86q-26 -21 -55 -32t-62 -12q-70 1 -99 51t-27 111q2 68 36.5 122t84 97t101.5 75z" />
    <glyph glyph-name="Wcircumflex" unicode="&#x174;" horiz-adv-x="1531" 
d="M434 387l420 1069l95 1l-120 -327l-446 -1130h-89zM316 1456l46 -1063l1 -393h-87l-72 1456h112zM1117 403l373 1054h118l-527 -1457h-94zM956 1456l83 -1077l17 -379h-84l-86 1118l-17 338h87zM999 1842l161 -259v-12l-98 2l-101 180l-166 -180l-97 -1l1 14l233 255z
" />
    <glyph glyph-name="wcircumflex" unicode="&#x175;" horiz-adv-x="1297" 
d="M322 251l356 831l86 1l-79 -226l-371 -857h-80zM260 1082l45 -832l-9 -250h-76l-68 1082h108zM869 256l326 827h116l-446 -1083h-81zM774 1082l69 -830l4 -252h-74l-80 868l3 214h78zM831 1528l161 -259v-12l-98 2l-101 180l-166 -180l-97 -1l1 14l233 255z" />
    <glyph glyph-name="Ycircumflex" unicode="&#x176;" horiz-adv-x="1039" 
d="M315 1456l211 -787l489 788l138 -1l-588 -915l-94 -541h-114l97 555l-265 901h126zM762 1837l161 -259v-12l-98 2l-101 180l-166 -180l-97 -1l1 14l233 255z" />
    <glyph glyph-name="ycircumflex" unicode="&#x177;" horiz-adv-x="831" 
d="M324 125l431 958h121l-585 -1257q-20 -47 -46 -94t-60 -86.5t-79.5 -63t-103.5 -22.5q-21 0 -42.5 4t-42.5 10l12 103q12 -3 24 -5.5t26 -3.5q60 -2 103 27t72.5 75.5t51.5 96.5zM245 1082l111 -933l7 -124l-86 -49l-147 1106h115zM627 1528l161 -259v-12l-98 2l-101 180
l-166 -180l-97 -1l1 14l233 255z" />
    <glyph glyph-name="Ydieresis" unicode="&#x178;" horiz-adv-x="1039" 
d="M315 1456l211 -787l489 788l138 -1l-588 -915l-94 -541h-114l97 555l-265 901h126zM420 1704q2 34 26.5 58t58.5 26q33 -1 56 -24.5t21 -58.5q-3 -34 -27.5 -57.5t-58.5 -24.5q-35 0 -57 23t-19 58zM844 1703q1 34 25.5 58.5t58.5 26.5q35 -1 57.5 -24.5t19.5 -59.5
q-1 -35 -26 -58t-58 -24q-35 0 -57.5 23t-19.5 58z" />
    <glyph glyph-name="Zacute" unicode="&#x179;" horiz-adv-x="1038" 
d="M864 107l-19 -107h-817l20 107h816zM1057 1366l-994 -1366h-73l16 102l988 1354h75zM1025 1456l-20 -107h-764l18 107h766zM614 1570l230 281l151 -2l-269 -279h-112z" />
    <glyph glyph-name="zacute" unicode="&#x17a;" horiz-adv-x="854" 
d="M703 105l-20 -105h-658l18 105h660zM821 992l-763 -992h-69l15 97l759 985h72zM790 1082l-19 -105h-601l18 105h602zM477 1256l230 281l151 -2l-269 -279h-112z" />
    <glyph glyph-name="Zdotaccent" unicode="&#x17b;" horiz-adv-x="1038" 
d="M864 107l-19 -107h-817l20 107h816zM1057 1366l-994 -1366h-73l16 102l988 1354h75zM1025 1456l-20 -107h-764l18 107h766zM628 1695q3 34 26.5 58.5t57.5 25.5q38 1 60 -23.5t19 -59.5q-2 -33 -27 -56.5t-60 -23.5q-34 -2 -56 21.5t-20 57.5z" />
    <glyph glyph-name="zdotaccent" unicode="&#x17c;" horiz-adv-x="854" 
d="M703 105l-20 -105h-658l18 105h660zM821 992l-763 -992h-69l15 97l759 985h72zM790 1082l-19 -105h-601l18 105h602zM492 1381q3 34 26.5 58.5t57.5 25.5q38 1 60 -23.5t19 -59.5q-2 -33 -27 -56.5t-60 -23.5q-34 -2 -56 21.5t-20 57.5z" />
    <glyph glyph-name="Zcaron" unicode="&#x17d;" horiz-adv-x="1038" 
d="M864 107l-19 -107h-817l20 107h816zM1057 1366l-994 -1366h-73l16 102l988 1354h75zM1025 1456l-20 -107h-764l18 107h766zM594 1838l100 -190l173 190l98 1l-1 -14l-235 -260h-78l-154 263l1 12z" />
    <glyph glyph-name="zcaron" unicode="&#x17e;" horiz-adv-x="854" 
d="M703 105l-20 -105h-658l18 105h660zM821 992l-763 -992h-69l15 97l759 985h72zM790 1082l-19 -105h-601l18 105h602zM459 1524l100 -190l173 190l98 1l-1 -14l-235 -260h-78l-154 263l1 12z" />
    <glyph glyph-name="longs" unicode="&#x17f;" horiz-adv-x="425" 
d="M159 0h-110l207 1216q12 87 46.5 166.5t98 130t164.5 49.5q30 -2 58 -7t58 -13l-23 -101q-22 7 -43 11.5t-42 4.5q-66 0 -109 -37t-65.5 -92t-30.5 -112z" />
    <glyph glyph-name="uni018F" unicode="&#x18f;" horiz-adv-x="1204" 
d="M511 -20q-131 3 -214.5 60.5t-126.5 150.5t-54 204t4 221l20 125h904l-19 -104h-787l-9 -54q-11 -83 -5.5 -169t37 -159t94 -119t163.5 -48q110 -4 192.5 52t139.5 147t90.5 193t47.5 193l19 132q13 88 10 185.5t-33.5 182t-96.5 138.5t-179 57q-97 1 -183.5 -31.5
t-165.5 -85.5l-24 95q50 47 112 75.5t129.5 41.5t134.5 12q137 -2 225 -63.5t133 -160t56 -216.5t-3 -231l-20 -130q-18 -114 -62.5 -236t-116.5 -227t-175 -170t-237 -61z" />
    <glyph glyph-name="florin" unicode="&#x192;" horiz-adv-x="590" 
d="M587 1082l-17 -100h-191l-163 -1071q-11 -86 -43.5 -167.5t-94 -133.5t-163.5 -50q-26 1 -49 7t-48 15l22 99q19 -7 40 -11.5t42 -4.5q64 -1 101.5 39.5t55.5 98t25 108.5l164 1071h-145l17 100h144l17 134q10 88 44 166.5t98 129t162 47.5q30 0 59.5 -6t58.5 -15
l-23 -99q-22 7 -44.5 11t-46.5 4q-64 -1 -105 -36.5t-62 -90t-30 -111.5l-18 -134h193z" />
    <glyph glyph-name="Ohorn" unicode="&#x1a0;" horiz-adv-x="1200" 
d="M1268 1568l91 1q-12 -109 -48 -195t-107 -137t-191 -54l12 94q86 4 134 45.5t71.5 106t37.5 139.5zM1088 805l-23 -152q-18 -114 -59 -233t-109 -220.5t-167.5 -162.5t-235.5 -57q-103 2 -174 46.5t-113.5 116t-62 158.5t-21 178t9.5 173l23 153q17 111 58.5 230
t110.5 221t167.5 163.5t233.5 56.5q105 -3 175.5 -46.5t113 -114.5t62 -159t21 -178.5t-9.5 -172.5zM952 652l23 157q9 61 11.5 134.5t-8.5 146.5t-40 134.5t-82.5 100.5t-135.5 42q-111 4 -189.5 -49t-131.5 -139t-84.5 -185t-44.5 -187l-23 -157q-9 -60 -10.5 -133.5
t8.5 -147.5t39 -136t81.5 -101.5t135.5 -42.5q112 -4 190.5 48t132 139.5t84.5 186.5t44 189z" />
    <glyph glyph-name="ohorn" unicode="&#x1a1;" horiz-adv-x="978" 
d="M1003 1199h88q-11 -96 -41.5 -169.5t-91.5 -115.5t-166 -44l11 86q73 4 112 38t57.5 87.5t30.5 117.5zM80 518l3 32q12 95 47 193t93.5 181t142.5 133t193 46q107 -4 173.5 -55.5t100.5 -134t42.5 -175t-0.5 -177.5l-3 -33q-12 -95 -46.5 -192.5t-94 -179.5t-142.5 -131
t-194 -46q-104 3 -170.5 55t-101 133t-44 173t0.5 178zM195 549l-4 -32q-6 -58 -3 -132t23 -141.5t66 -112t125 -47.5q86 -3 150 38.5t106.5 110t68.5 146.5t34 148l5 32q6 60 3.5 134.5t-23 142.5t-67 114t-127.5 49q-85 3 -148.5 -39.5t-106.5 -112t-68 -148.5t-34 -150z
" />
    <glyph glyph-name="Uhorn" unicode="&#x1af;" horiz-adv-x="1180" 
d="M1332 1544h92q-14 -117 -53 -205.5t-115 -138.5t-204 -53l12 95q95 3 148 43t80 108t40 151zM1023 1456h116l-169 -984q-19 -134 -82 -246.5t-166.5 -181t-248.5 -64.5q-139 3 -219.5 74.5t-110.5 181.5t-15 234l168 986h113l-166 -987q-12 -89 4.5 -176t73 -145
t161.5 -61q113 -5 191.5 49.5t123 144.5t59.5 188z" />
    <glyph glyph-name="uhorn" unicode="&#x1b0;" horiz-adv-x="1027" 
d="M1054 1179h85q-12 -97 -43 -167.5t-93.5 -108.5t-165.5 -41l9 86q78 2 119 32t59.5 80.5t29.5 118.5zM645 254l143 828h110l-188 -1082h-107zM700 451l50 3q-13 -88 -40.5 -173t-74.5 -155t-119.5 -110t-176.5 -37q-84 3 -134.5 41t-73.5 99t-27 132t3 138l116 693h111
l-116 -696q-4 -44 -4 -94.5t13.5 -96.5t45 -76t89.5 -33q109 -4 176.5 50t106 139t55.5 176z" />
    <glyph glyph-name="uni01F0" unicode="&#x1f0;" horiz-adv-x="429" 
d="M248 1082h110l-198 -1170q-12 -86 -45.5 -168t-97 -134t-163.5 -50q-26 1 -50 7t-48 15l22 99q20 -6 41 -11t43 -6q63 -1 101.5 39t58 98t25.5 110zM230 1481l100 -190l173 190l98 1l-1 -14l-235 -260h-78l-154 263l1 12z" />
    <glyph glyph-name="Aringacute" unicode="&#x1fa;" 
d="M700 1362l-641 -1362h-123l703 1457h85zM831 0l-174 1369l10 87h78l195 -1456h-109zM855 515l-19 -108h-640l20 108h639zM713 1744l160 185h129l-200 -186zM583 1529q0 57 36 110t98 54q59 0 92 -49t30 -102q-1 -56 -37 -106t-97 -51q-58 -2 -91 44.5t-31 99.5zM641 1532
q1 -26 11 -54t44 -28q35 0 57 30.5t26 59.5q4 26 -8 56t-45 30q-38 0 -57 -32t-28 -62z" />
    <glyph glyph-name="aringacute" unicode="&#x1fb;" horiz-adv-x="936" 
d="M608 194l95 592q6 65 -10.5 113t-58.5 73.5t-111 26.5q-66 2 -120.5 -25t-89.5 -75.5t-48 -114.5h-109q9 71 42.5 130.5t85.5 102t116 65.5t136 22q99 -2 163.5 -42t93.5 -112t20 -169l-90 -553q-9 -56 -9 -108t1 -107l-1 -13h-114q-4 49 -1.5 97t9.5 97zM708 632
l-14 -95l-182 2q-61 -1 -120.5 -14.5t-109 -43.5t-81.5 -78.5t-39 -115.5q-6 -57 8 -102t50 -71t96 -27q78 -1 141.5 29.5t111.5 84.5t76 122l21 -68q-21 -59 -56 -109.5t-83.5 -89t-106 -59t-121.5 -20.5q-89 1 -146 41.5t-83.5 108t-20.5 151.5q6 90 45 156.5t102 110.5
t141 66t162 22zM603 1430l160 185h129l-200 -186zM473 1215q0 57 36 110t98 54q59 0 92 -49t30 -102q-1 -56 -37 -106t-97 -51q-58 -2 -91 44.5t-31 99.5zM531 1218q1 -26 11 -54t44 -28q35 0 57 30.5t26 59.5q4 26 -8 56t-45 30q-38 0 -57 -32t-28 -62z" />
    <glyph glyph-name="AEacute" unicode="&#x1fc;" horiz-adv-x="1565" 
d="M939 1350l-877 -1350h-142l971 1457h81zM876 504l-21 -116h-578l22 116h577zM1430 105l-18 -105h-601l19 105h600zM1045 1456l-201 -1456h-111l202 1456h110zM1437 811l-19 -104h-516l18 104h517zM1614 1456l-19 -104h-599l19 104h599zM890 1576l230 281l151 -2
l-269 -279h-112z" />
    <glyph glyph-name="aeacute" unicode="&#x1fd;" horiz-adv-x="1450" 
d="M577 181l89 542q5 59 -2 122t-41.5 107t-108.5 47q-72 2 -127 -29t-90.5 -83.5t-47.5 -120.5l-108 12q10 75 43 135t83 104t115 66t141 21q105 -4 163.5 -62t78 -145t9.5 -179l-84 -502zM687 634l-18 -99l-225 3q-77 -1 -142 -32t-106.5 -88.5t-49.5 -135.5
q-5 -56 11 -101.5t54 -72t98 -26.5q44 -1 92 14.5t90.5 43.5t76 65.5t48.5 79.5l54 -79q-37 -71 -96.5 -122t-133.5 -78t-155 -26q-88 1 -146 42.5t-84 111t-20 153.5q7 86 40.5 151t89 109t127.5 66t153 22zM956 -18q-108 0 -174 49.5t-100 128t-42.5 170t1.5 177.5l7 55
q10 87 43 183t87.5 178.5t133 132.5t183.5 46q94 -2 154 -45t90.5 -111t38.5 -149t-2 -160l-14 -100h-659l18 100h546l4 32q9 71 -1 146t-52.5 127.5t-130.5 56.5q-82 3 -141.5 -40t-98.5 -111.5t-62.5 -144.5t-31.5 -142l-6 -52q-8 -62 -6 -135t22.5 -137.5t67 -107
t129.5 -44.5q82 -2 151 31.5t130 84.5l33 -90q-41 -45 -92 -74t-109 -43t-117 -12zM759 1255l230 281l151 -2l-269 -279h-112z" />
    <glyph glyph-name="Oslashacute" unicode="&#x1fe;" horiz-adv-x="1172" 
d="M1220 1506l-1084 -1590l-102 1l1094 1589h92zM1085 805l-23 -152q-17 -114 -58 -233t-109 -220.5t-167.5 -162.5t-234.5 -57q-105 2 -175 46.5t-113 116t-62.5 158.5t-21 178t9.5 173l23 153q17 112 57.5 231t109.5 220t168.5 163t235.5 57q104 -3 175 -46.5
t113.5 -114.5t61 -158.5t20 -178.5t-9.5 -173zM950 652l23 157q10 61 11.5 135t-9 146.5t-39 134.5t-82 101t-136.5 42q-110 4 -188.5 -49t-132.5 -139.5t-85 -185.5t-44 -187l-23 -157q-9 -60 -10.5 -133.5t9 -147.5t39 -136t81 -100.5t135.5 -42.5q112 -4 191 48
t132.5 138.5t84 186t43.5 189.5zM706 1638l230 281l151 -2l-269 -279h-112z" />
    <glyph glyph-name="oslashacute" unicode="&#x1ff;" horiz-adv-x="971" 
d="M909 1214l-768 -1353l-92 -1l778 1354h82zM79 519l4 31q12 95 47 193t93.5 181t142.5 132.5t193 47.5q107 -5 173.5 -56.5t100.5 -134t42.5 -175t-0.5 -177.5l-3 -33q-11 -95 -46 -192.5t-94 -179.5t-142.5 -131t-194.5 -46q-104 3 -170.5 55t-100.5 133t-44 173t-1 179z
M195 549l-4 -32q-6 -58 -3 -132t23 -141.5t66 -112t125 -47.5q86 -3 150 38t106.5 110t68.5 147t36 148l3 32q6 60 3.5 134.5t-23 142.5t-67 114t-127.5 49q-85 3 -148.5 -39.5t-106.5 -112t-68 -148.5t-34 -150zM487 1253l230 281l151 -2l-269 -279h-112z" />
    <glyph glyph-name="uni0218" unicode="&#x218;" horiz-adv-x="1027" 
d="M789 368q8 66 -9 116t-53 86t-85.5 63.5t-106.5 49.5q-69 30 -130 65.5t-106 83.5t-68 111t-15 147q6 89 45 161t101 123.5t139.5 77.5t164.5 24q122 -3 203.5 -64t117.5 -158.5t25 -211.5l-112 -1q8 84 -13.5 158t-77 121t-150.5 49q-85 2 -155.5 -31.5t-117 -96.5
t-56.5 -147q-7 -63 10.5 -109.5t53.5 -81.5t83.5 -61.5t100.5 -46.5q74 -29 136.5 -66.5t107.5 -88.5t67 -117t14 -153q-8 -92 -47.5 -165.5t-103 -124t-143.5 -77t-170 -24.5q-94 4 -168.5 36.5t-124.5 92.5t-72.5 139t-13.5 171l114 -1q-7 -69 7.5 -129t48.5 -104.5
t88.5 -69.5t127.5 -28q87 -2 161 32t123 97.5t59 152.5zM463 -111l-12 -77q-12 -82 -47.5 -155t-92.5 -130l-65 55q36 54 60.5 108.5t35.5 118.5l14 80h107z" />
    <glyph glyph-name="uni0219" unicode="&#x219;" horiz-adv-x="887" 
d="M612 274q8 59 -22.5 100.5t-77.5 71.5t-91 53q-48 27 -94.5 54.5t-83.5 62.5t-58 81.5t-17 108.5q4 68 34 123.5t77.5 94.5t108 59.5t128.5 18.5q93 -2 160 -42t101 -111.5t27 -161.5l-109 -1q3 60 -17.5 107.5t-63.5 75t-104 28.5q-59 1 -109.5 -20.5t-84 -64
t-40.5 -101.5q-5 -43 10.5 -75t44 -56t63 -43t65.5 -36q68 -35 130 -75.5t99.5 -98.5t32.5 -145q-4 -73 -35 -130t-81 -96t-114 -58t-133 -18q-94 2 -166 41.5t-111 109.5t-32 166l111 -1q-3 -67 20 -114t69.5 -71.5t114.5 -25.5q58 0 112.5 20.5t91.5 63.5t44 105z
M401 -113l-12 -77q-12 -82 -47.5 -155t-92.5 -130l-65 55q36 54 60.5 108.5t35.5 118.5l14 80h107z" />
    <glyph glyph-name="uni021A" unicode="&#x21a;" horiz-adv-x="1035" 
d="M724 1456l-254 -1456h-113l253 1456h114zM1125 1456l-19 -107h-917l21 107h915zM450 -106l-12 -77q-12 -82 -47.5 -155t-92.5 -130l-65 55q36 54 60.5 108.5t35.5 118.5l14 80h107z" />
    <glyph glyph-name="uni021B" unicode="&#x21b;" horiz-adv-x="577" 
d="M571 1082l-18 -100h-451l18 100h451zM329 1359h111l-185 -1097q-3 -32 -3 -71.5t16 -69t60 -30.5q20 -1 39.5 2t38.5 6l-6 -103q-26 -7 -51 -10.5t-51 -3.5q-75 1 -109.5 47t-42 111t-1.5 125zM307 -106l-12 -77q-12 -82 -47.5 -155t-92.5 -130l-65 55q36 54 60.5 108.5
t35.5 118.5l14 80h107z" />
    <glyph glyph-name="uni0237" unicode="&#x237;" horiz-adv-x="428" 
d="M248 1082h110l-198 -1170q-12 -86 -45.5 -168t-97 -134t-163.5 -50q-26 1 -50 7t-48 15l22 99q20 -6 41 -11t43 -6q63 -1 101.5 39t58 98t25.5 110z" />
    <glyph glyph-name="uni0259" unicode="&#x259;" horiz-adv-x="903" 
d="M506 1102q101 -2 165.5 -53.5t98.5 -131.5t43 -170.5t1 -170.5l-7 -56q-12 -86 -45 -181t-89 -178t-136 -133.5t-182 -48.5q-95 3 -154.5 46t-90.5 111t-40 149t1 158l15 102h661l-18 -103h-548l-5 -31q-8 -69 4 -143t55 -127.5t128 -56.5q81 -4 140 40t98.5 112.5
t63.5 145t32 139.5l7 53q6 56 3 128t-22 138t-63 110t-121 48q-84 3 -153 -29t-128 -88l-37 85q63 71 146.5 105t176.5 31z" />
    <glyph glyph-name="uni02BC" unicode="&#x2bc;" horiz-adv-x="343" 
d="M416 1536l-19 -114q-10 -64 -33 -122t-58 -109t-82 -94l-60 55q45 61 76.5 126t44.5 140l21 118h110z" />
    <glyph glyph-name="circumflex" unicode="&#x2c6;" horiz-adv-x="770" 
d="M569 1528l161 -259v-12l-98 2l-101 180l-166 -180l-97 -1l1 14l233 255z" />
    <glyph glyph-name="caron" unicode="&#x2c7;" horiz-adv-x="733" 
d="M389 1521l100 -190l173 190l98 1l-1 -14l-235 -260h-78l-154 263l1 12z" />
    <glyph glyph-name="uni02C9" unicode="&#x2c9;" horiz-adv-x="772" 
d="M779 1442l-17 -100h-515l15 100h517z" />
    <glyph glyph-name="breve" unicode="&#x2d8;" horiz-adv-x="841" 
d="M734 1490l97 3q-8 -82 -49 -141t-105.5 -90t-147.5 -29q-117 2 -188.5 71.5t-66.5 188.5l102 -1q-5 -79 34.5 -124.5t121.5 -46.5q83 -1 135 45t67 124z" />
    <glyph glyph-name="dotaccent" unicode="&#x2d9;" horiz-adv-x="446" 
d="M279 1381q3 34 26.5 58.5t57.5 25.5q38 1 60 -23.5t19 -59.5q-2 -33 -27 -56.5t-60 -23.5q-34 -2 -56 21.5t-20 57.5z" />
    <glyph glyph-name="ring" unicode="&#x2da;" horiz-adv-x="617" 
d="M252 1388q2 54 29 100t71.5 73.5t100.5 27.5q77 0 127 -54.5t48 -130.5q-2 -55 -29 -100t-72.5 -71t-99.5 -26q-76 0 -126 52t-49 129zM328 1391q-5 -45 22.5 -78t73.5 -33q50 1 86 37t41 85q5 45 -21 80t-73 34q-52 -1 -88 -39t-41 -86z" />
    <glyph glyph-name="ogonek" unicode="&#x2db;" horiz-adv-x="463" 
d="M160 40l55 -43q-36 -31 -75.5 -66t-68 -77.5t-33.5 -94.5q-3 -29 7.5 -52t43.5 -24q24 -1 46.5 9.5t41.5 21.5l4 -86q-25 -21 -54 -32t-62 -12q-70 1 -99.5 51t-26.5 112q3 67 36 121t83 97t102 75z" />
    <glyph glyph-name="tilde" unicode="&#x2dc;" horiz-adv-x="777" 
d="M724 1492l78 -4q-6 -51 -26.5 -101.5t-58.5 -84.5t-98 -33q-35 1 -62 18.5t-50 39.5t-48.5 39.5t-58.5 15.5q-50 0 -72.5 -39t-31.5 -80l-85 4q7 50 28 100t58.5 84t97.5 33q35 0 61.5 -17.5t50 -40.5t49 -39t59.5 -17q50 1 74.5 41t34.5 81z" />
    <glyph glyph-name="hungarumlaut" unicode="&#x2dd;" horiz-adv-x="667" 
d="M431 1232l259 305h137l-279 -305h-117zM219 1233l213 304h131l-239 -304h-105z" />
    <glyph glyph-name="uni02F3" unicode="&#x2f3;" horiz-adv-x="543" 
d="M0 -236q1 56 38.5 102.5t95.5 48.5q56 0 89 -44.5t32 -95.5q-1 -56 -38 -100.5t-94 -45.5q-57 -2 -91 39.5t-32 95.5zM63 -234q-3 -24 10.5 -46t40.5 -22q30 -1 52 23.5t27 50.5q4 25 -10.5 48.5t-40.5 23.5q-31 -1 -53.5 -25.5t-25.5 -52.5z" />
    <glyph glyph-name="gravecomb" unicode="&#x300;" horiz-adv-x="0" 
d="M-354 1536l115 -281l-96 1l-140 280h121z" />
    <glyph glyph-name="acutecomb" unicode="&#x301;" horiz-adv-x="0" 
d="M-381 1257l207 280l141 -1l-245 -280z" />
    <glyph glyph-name="tildecomb" unicode="&#x303;" horiz-adv-x="0" 
d="M-66 1492l78 -4q-6 -51 -26.5 -101.5t-58.5 -84.5t-98 -33q-35 1 -62 18.5t-50 39.5t-48.5 39.5t-58.5 15.5q-50 0 -72.5 -39t-31.5 -80l-85 4q7 50 28 100t58.5 84t97.5 33q35 0 61.5 -17.5t50 -40.5t49 -39t59.5 -17q50 1 74.5 41t34.5 81z" />
    <glyph glyph-name="hookabovecomb" unicode="&#x309;" horiz-adv-x="0" 
d="M-298 1234l-89 2l20 125q32 4 66 13t58 29t28 59q2 29 -11 46t-36.5 25t-48 10.5t-44.5 3.5l13 79q37 -1 76 -10.5t71 -27.5t51.5 -49.5t17.5 -77.5q-4 -72 -49.5 -112.5t-112.5 -50.5z" />
    <glyph glyph-name="uni030F" unicode="&#x30f;" horiz-adv-x="0" 
d="M-309 1252l-169 266h-145l202 -266h112zM-109 1252l-127 266h-130l157 -266h100z" />
    <glyph glyph-name="dotbelowcomb" unicode="&#x323;" horiz-adv-x="0" 
d="M-797 -233q4 34 27.5 58.5t57.5 26.5q35 0 57.5 -24t19.5 -60q-2 -33 -27 -56.5t-59 -23.5q-34 -2 -55.5 21t-20.5 58z" />
    <glyph glyph-name="tonos" unicode="&#x384;" horiz-adv-x="504" 
d="M309 1283l125 307h122l-160 -307h-87z" />
    <glyph glyph-name="dieresistonos" unicode="&#x385;" horiz-adv-x="848" 
d="M513 1412l77 254h123l-110 -254h-90zM276 1395q2 31 22.5 56.5t53.5 27.5q34 0 52.5 -25.5t17.5 -57.5q-4 -32 -25 -56.5t-54 -25.5q-35 -1 -52.5 24t-14.5 57zM697 1394q1 32 22.5 57.5t54.5 27.5q34 0 52.5 -26t15.5 -58q-2 -32 -23 -56.5t-54 -25.5q-34 -1 -53 24
t-15 57z" />
    <glyph glyph-name="Alphatonos" unicode="&#x386;" 
d="M700 1362l-641 -1362h-123l703 1457h85zM831 0l-174 1369l10 87h78l195 -1456h-109zM855 515l-19 -108h-640l20 108h639zM268 1281l125 307h122l-160 -307h-87z" />
    <glyph glyph-name="anoteleia" unicode="&#x387;" horiz-adv-x="464" 
d="M170 717q3 33 24.5 59t53.5 28q37 0 55.5 -26.5t17.5 -59.5q-4 -31 -25 -57t-56 -27q-34 -1 -53 25t-17 58z" />
    <glyph glyph-name="Epsilontonos" unicode="&#x388;" horiz-adv-x="1088" 
d="M926 107l-20 -107h-663l19 107h664zM530 1456l-253 -1456h-115l253 1456h115zM963 805l-19 -108h-580l20 108h579zM1154 1456l-20 -107h-657l19 107h658zM57 1283l125 307h122l-160 -307h-87z" />
    <glyph glyph-name="Etatonos" unicode="&#x389;" horiz-adv-x="1321" 
d="M1098 805l-20 -108h-708l20 108h708zM530 1456l-253 -1456h-115l253 1456h115zM1303 1456l-253 -1456h-115l254 1456h114zM69 1284l125 307h122l-160 -307h-87z" />
    <glyph glyph-name="Iotatonos" unicode="&#x38a;" horiz-adv-x="586" 
d="M550 1456l-253 -1456h-114l253 1456h114zM79 1282l125 307h122l-160 -307h-87z" />
    <glyph glyph-name="Omicrontonos" unicode="&#x38c;" horiz-adv-x="1192" 
d="M1111 885l-50 -313q-17 -113 -57 -220t-106.5 -192.5t-162 -134.5t-224.5 -46q-122 4 -199.5 57t-118 139.5t-51 189.5t2.5 205l50 316q17 110 57.5 217.5t107 192.5t161.5 134.5t223 45.5q124 -3 202 -56t118.5 -138.5t50.5 -189t-4 -207.5zM948 570l50 320
q9 77 6.5 160t-28 153t-83 115t-155.5 49q-104 3 -179 -38t-126 -111t-81 -156.5t-43 -174.5l-49 -317q-11 -79 -7 -161t29 -153.5t82.5 -117.5t154.5 -49q106 -3 180.5 37.5t125.5 111t80.5 157t42.5 175.5zM135 1281l125 307h122l-160 -307h-87z" />
    <glyph glyph-name="Upsilontonos" unicode="&#x38e;" horiz-adv-x="1139" 
d="M415 1456l211 -787l489 788l138 -1l-588 -915l-94 -541h-114l97 555l-265 901h126zM47 1281l125 307h122l-160 -307h-87z" />
    <glyph glyph-name="Omegatonos" unicode="&#x38f;" horiz-adv-x="1154" 
d="M933 729l17 119q8 70 7 158t-22 169.5t-74 136t-150 59.5q-101 3 -174 -46.5t-122.5 -130.5t-78 -173.5t-40.5 -174.5l-17 -119q-8 -68 -13.5 -156.5t4.5 -177.5t49 -161.5t117 -108.5l-13 -101q-99 39 -157 119.5t-84 183t-28.5 208.5t9.5 196l17 115q16 105 55 217
t105 207.5t159.5 154t218.5 53.5q122 -3 195.5 -65t110.5 -159t44.5 -205t-4.5 -203l-17 -115q-15 -108 -52.5 -219.5t-98 -211t-146 -173t-198.5 -106.5l11 102q92 36 156 101.5t106.5 149t68 175t39.5 182.5zM544 0l18 107h381l-20 -107h-379zM33 0l18 107h385l-20 -107
h-383zM143 1281l125 307h122l-160 -307h-87z" />
    <glyph glyph-name="iotadieresistonos" unicode="&#x390;" horiz-adv-x="547" 
d="M253 1082h111l-136 -810q-2 -35 -1.5 -74t16.5 -67.5t60 -29.5q19 -1 39.5 2t38.5 5l-8 -102q-23 -8 -49 -11.5t-52 -2.5q-76 1 -110.5 46.5t-41.5 110.5t-2 126zM313 1389l77 254h123l-110 -254h-90zM76 1372q2 31 22.5 56.5t53.5 27.5q34 0 52.5 -25.5t17.5 -57.5
q-4 -32 -25 -56.5t-54 -25.5q-35 -1 -52.5 24t-14.5 57zM497 1371q1 32 22.5 57.5t54.5 27.5q34 0 52.5 -26t15.5 -58q-2 -32 -23 -56.5t-54 -25.5q-34 -1 -53 24t-15 57z" />
    <glyph glyph-name="Alpha" unicode="&#x391;" 
d="M700 1362l-641 -1362h-123l703 1457h85zM831 0l-174 1369l10 87h78l195 -1456h-109zM855 515l-19 -108h-640l20 108h639z" />
    <glyph glyph-name="Beta" unicode="&#x392;" horiz-adv-x="1064" 
d="M605 700h-338l18 106l279 -2q88 1 156.5 35t111 97t50.5 153q8 79 -13.5 136.5t-73 88.5t-133.5 35h-251l-234 -1349h-115l253 1456l349 -1q87 -2 152 -28.5t108 -74.5t61.5 -116t11.5 -154q-7 -91 -50.5 -164.5t-113.5 -120t-160 -60.5zM475 0h-371l79 108l297 -1
q93 -1 163.5 39.5t112 111t51.5 161.5q8 72 -10 135t-66 102t-127 43l-222 1l21 106l292 -2l15 -38q81 -17 129.5 -70t67.5 -127t13 -150q-9 -125 -67 -219.5t-154.5 -147.5t-223.5 -52z" />
    <glyph glyph-name="Gamma" unicode="&#x393;" horiz-adv-x="961" 
d="M1038 1456l-19 -107h-606l-234 -1349h-115l253 1456h721z" />
    <glyph glyph-name="Delta" unicode="&#x394;" horiz-adv-x="1206" 
d="M741 1316l-670 -1316h-125l754 1457h83zM926 0l-204 1334l9 122h75l233 -1456h-113zM969 107l-19 -107h-917l19 107h917z" />
    <glyph glyph-name="Delta" unicode="&#x2206;" horiz-adv-x="1206" 
d="M741 1316l-670 -1316h-125l754 1457h83zM926 0l-204 1334l9 122h75l233 -1456h-113zM969 107l-19 -107h-917l19 107h917z" />
    <glyph glyph-name="Epsilon" unicode="&#x395;" horiz-adv-x="988" 
d="M826 107l-20 -107h-663l19 107h664zM430 1456l-253 -1456h-115l253 1456h115zM863 805l-19 -108h-580l20 108h579zM1054 1456l-20 -107h-657l19 107h658z" />
    <glyph glyph-name="Zeta" unicode="&#x396;" horiz-adv-x="1038" 
d="M864 107l-19 -107h-817l20 107h816zM1057 1366l-994 -1366h-73l16 102l988 1354h75zM1025 1456l-20 -107h-764l18 107h766z" />
    <glyph glyph-name="Eta" unicode="&#x397;" horiz-adv-x="1221" 
d="M998 805l-20 -108h-708l20 108h708zM430 1456l-253 -1456h-115l253 1456h115zM1203 1456l-253 -1456h-115l254 1456h114z" />
    <glyph glyph-name="Theta" unicode="&#x398;" horiz-adv-x="1165" 
d="M839 778l-19 -103h-449l20 103h448zM1079 805l-24 -152q-16 -114 -57 -233.5t-109.5 -220.5t-168.5 -162t-236 -57q-104 2 -174.5 46.5t-112.5 116t-62 159t-21.5 178t9.5 172.5l23 153q19 112 59.5 231t109.5 220t169 163t235 57q104 -2 174.5 -46t112 -115t61.5 -158.5
t21.5 -179t-9.5 -172.5zM943 652l23 157q9 61 10.5 134.5t-9 146.5t-39 134.5t-81 100.5t-137.5 42q-110 4 -188.5 -48.5t-132 -139t-84.5 -185t-45 -187.5l-22 -157q-9 -60 -11.5 -133t8 -147.5t39 -136.5t81.5 -101.5t137 -41.5q111 -5 190.5 47.5t131.5 139.5t84 186
t45 189z" />
    <glyph glyph-name="Iota" unicode="&#x399;" horiz-adv-x="486" 
d="M450 1456l-253 -1456h-114l253 1456h114z" />
    <glyph glyph-name="Kappa" unicode="&#x39a;" 
d="M430 1456l-253 -1456h-115l253 1456h115zM1164 1457l-625 -669l-323 -319l15 154l244 256l539 577zM814 0l-364 753l82 97l409 -850h-127z" />
    <glyph glyph-name="Lambda" unicode="&#x39b;" horiz-adv-x="1123" 
d="M716 1346l-624 -1346h-127l686 1457h83zM824 0l-162 1356l19 100h78l180 -1456h-115z" />
    <glyph glyph-name="Mu" unicode="&#x39c;" horiz-adv-x="1486" 
d="M352 1456h109l205 -1276l649 1277h119l-749 -1457h-88zM315 1456h101l-131 -827l-108 -629h-115zM1367 1456h102l-253 -1456h-115l111 638z" />
    <glyph glyph-name="Nu" unicode="&#x39d;" horiz-adv-x="1225" 
d="M1207 1456l-252 -1456h-112l-450 1243l-215 -1243h-116l253 1456h112l451 -1243l215 1243h114z" />
    <glyph glyph-name="Xi" unicode="&#x39e;" horiz-adv-x="977" 
d="M9 0l20 107h756l-19 -107h-757zM204 680l20 108h593l-20 -108h-593zM251 1349l20 107h727l-20 -107h-727z" />
    <glyph glyph-name="Omicron" unicode="&#x39f;" horiz-adv-x="1172" 
d="M1091 885l-50 -313q-17 -113 -57 -220t-106.5 -192.5t-162 -134.5t-224.5 -46q-122 4 -199.5 57t-118 139.5t-51 189.5t2.5 205l50 316q17 110 57.5 217.5t107 192.5t161.5 134.5t223 45.5q124 -3 202 -56t118.5 -138.5t50.5 -189t-4 -207.5zM928 570l50 320
q9 77 6.5 160t-28 153t-83 115t-155.5 49q-104 3 -179 -38t-126 -111t-81 -156.5t-43 -174.5l-49 -317q-11 -79 -7 -161t29 -153.5t82.5 -117.5t154.5 -49q106 -3 180.5 37.5t125.5 111t80.5 157t42.5 175.5z" />
    <glyph glyph-name="Pi" unicode="&#x3a0;" horiz-adv-x="1222" 
d="M1201 1456l-253 -1456h-116l235 1349h-651l-234 -1349h-116l253 1456h882z" />
    <glyph glyph-name="Rho" unicode="&#x3a1;" horiz-adv-x="1071" 
d="M585 592h-344l20 108l328 -3q101 1 175.5 43t120 116t55.5 172q9 83 -10.5 154t-70.5 116.5t-144 50.5h-304l-234 -1349h-115l253 1456l404 -1q123 -4 201 -61.5t111.5 -153.5t22.5 -212q-12 -132 -72 -230t-162 -152.5t-235 -53.5z" />
    <glyph glyph-name="Sigma" unicode="&#x3a3;" horiz-adv-x="977" 
d="M812 107l-19 -107h-785l19 107h785zM1002 1456l-20 -107h-745l18 107h747zM635 779l-5 -36l-588 -743h-72l16 102l528 663l-312 603l14 88l69 1z" />
    <glyph glyph-name="Tau" unicode="&#x3a4;" horiz-adv-x="1035" 
d="M724 1456l-254 -1456h-113l253 1456h114zM1125 1456l-19 -107h-917l21 107h915z" />
    <glyph glyph-name="Upsilon" unicode="&#x3a5;" horiz-adv-x="1039" 
d="M315 1456l211 -787l489 788l138 -1l-588 -915l-94 -541h-114l97 555l-265 901h126z" />
    <glyph glyph-name="Phi" unicode="&#x3a6;" horiz-adv-x="1233" 
d="M599 192l-87 2q-110 3 -190.5 46.5t-131 117.5t-70 167.5t-7.5 195.5q16 151 91 275.5t197 199.5t279 75l93 -3q110 -3 189.5 -48t128.5 -119.5t69 -168t9 -193.5q-16 -152 -92 -276t-198.5 -198.5t-279.5 -72.5zM515 302l91 -2q129 -2 225 57t153.5 159.5t71.5 222.5
q9 78 -1.5 152.5t-44 133t-92.5 95.5t-149 40l-93 2q-129 1 -224 -58.5t-153 -160.5t-73 -221q-10 -80 0.5 -153.5t44.5 -133t94.5 -95t149.5 -38.5zM825 1456l-254 -1456h-114l253 1456h115z" />
    <glyph glyph-name="Chi" unicode="&#x3a7;" horiz-adv-x="1065" 
d="M340 1456l228 -611l420 612h140l-506 -725l284 -732h-128l-236 631l-434 -631h-141l522 745l-276 711h127z" />
    <glyph glyph-name="Psi" unicode="&#x3a8;" horiz-adv-x="1197" 
d="M1113 1456h114l-88 -517q-22 -151 -93.5 -277.5t-189 -201.5t-280.5 -73l-22 1q-114 4 -192.5 51.5t-124 125t-60.5 174t-2 199.5l87 518h114l-87 -520q-10 -74 -1.5 -150.5t39 -139.5t87 -104.5t145.5 -44.5l21 -2q129 -2 221.5 60t148.5 163.5t75 219.5zM797 1456
l-253 -1456h-113l253 1456h113z" />
    <glyph glyph-name="Omega" unicode="&#x3a9;" horiz-adv-x="1135" 
d="M913 729l17 119q8 70 7 158t-22 169.5t-74 136t-150 59.5q-101 3 -174 -46.5t-122.5 -130.5t-78 -173.5t-40.5 -174.5l-17 -119q-8 -68 -13.5 -156.5t4.5 -177.5t49 -161.5t117 -108.5l-13 -101q-99 39 -157 119.5t-84 183t-28.5 208.5t9.5 196l17 115q16 105 55 217
t105 207.5t159.5 154t218.5 53.5q122 -3 195.5 -65t110.5 -159t44.5 -205t-4.5 -203l-17 -115q-15 -108 -52.5 -219.5t-98 -211t-146 -173t-198.5 -106.5l11 102q92 36 156 101.5t106.5 149t68 175t39.5 182.5zM524 0l18 107h381l-20 -107h-379zM13 0l18 107h385l-20 -107
h-383z" />
    <glyph glyph-name="Omega" unicode="&#x2126;" horiz-adv-x="1135" 
d="M913 729l17 119q8 70 7 158t-22 169.5t-74 136t-150 59.5q-101 3 -174 -46.5t-122.5 -130.5t-78 -173.5t-40.5 -174.5l-17 -119q-8 -68 -13.5 -156.5t4.5 -177.5t49 -161.5t117 -108.5l-13 -101q-99 39 -157 119.5t-84 183t-28.5 208.5t9.5 196l17 115q16 105 55 217
t105 207.5t159.5 154t218.5 53.5q122 -3 195.5 -65t110.5 -159t44.5 -205t-4.5 -203l-17 -115q-15 -108 -52.5 -219.5t-98 -211t-146 -173t-198.5 -106.5l11 102q92 36 156 101.5t106.5 149t68 175t39.5 182.5zM524 0l18 107h381l-20 -107h-379zM13 0l18 107h385l-20 -107
h-383z" />
    <glyph glyph-name="Iotadieresis" unicode="&#x3aa;" horiz-adv-x="486" 
d="M450 1456l-253 -1456h-114l253 1456h114zM145 1715q2 34 26.5 58t58.5 26q33 -1 56 -24.5t21 -58.5q-3 -34 -27.5 -57.5t-58.5 -24.5q-35 0 -57 23t-19 58zM569 1714q1 34 25.5 58.5t58.5 26.5q35 -1 57.5 -24.5t19.5 -59.5q-1 -35 -26 -58t-58 -24q-35 0 -57.5 23
t-19.5 58z" />
    <glyph glyph-name="Upsilondieresis" unicode="&#x3ab;" horiz-adv-x="1039" 
d="M315 1456l211 -787l489 788l138 -1l-588 -915l-94 -541h-114l97 555l-265 901h126zM420 1704q2 34 26.5 58t58.5 26q33 -1 56 -24.5t21 -58.5q-3 -34 -27.5 -57.5t-58.5 -24.5q-35 0 -57 23t-19 58zM844 1703q1 34 25.5 58.5t58.5 26.5q35 -1 57.5 -24.5t19.5 -59.5
q-1 -35 -26 -58t-58 -24q-35 0 -57.5 23t-19.5 58z" />
    <glyph glyph-name="alphatonos" unicode="&#x3ac;" horiz-adv-x="981" 
d="M94 504l2 21q11 86 38 187t74.5 192t124.5 146.5t187 53.5q69 -4 118 -35t80.5 -81.5t48.5 -111t22.5 -124.5t1.5 -120l-28 -198q-15 -78 -46 -159t-80.5 -149.5t-119.5 -109.5t-162 -38q-99 2 -156 56.5t-82.5 136t-28.5 170t6 163.5zM209 526l-3 -21q-5 -53 -6.5 -124
t12 -139t54 -113t118.5 -47q70 -2 125.5 31t97 88.5t69.5 119.5t43 123l23 162q5 51 -3 117.5t-31 128t-66 102t-108 44.5q-87 4 -146 -43.5t-96 -123t-56 -157.5t-27 -148zM812 1082h94l-135 -808q-2 -14 -5.5 -43.5t-2.5 -60.5t11.5 -53t37.5 -25q10 1 19.5 3t19.5 4
l6 -95q-21 -12 -39.5 -17.5t-40.5 -6.5q-53 1 -79.5 33t-35 80t-6.5 97.5t5 85.5l95 581zM585 1240l125 307h122l-160 -307h-87z" />
    <glyph glyph-name="epsilontonos" unicode="&#x3ad;" horiz-adv-x="945" 
d="M444 582l169 -1l-12 -79l-148 2q-72 -1 -134 -22t-103.5 -67.5t-49.5 -125.5q-5 -52 10 -90t45.5 -64t72 -39t86.5 -14q74 -2 135 26t104 80t58 122l109 1q-11 -78 -47 -140.5t-91 -106.5t-125 -65t-148 -19q-69 2 -129.5 22.5t-105.5 60.5t-68.5 97t-18.5 131
q5 80 39.5 135.5t89.5 90t123 50t139 15.5zM606 524l-154 1q-58 2 -111.5 19t-97 49t-67 80t-20.5 113q5 78 37 138t85.5 100.5t121 60t140.5 17.5q69 -2 128 -24t102 -63t65.5 -98t17.5 -129l-109 2q4 63 -22.5 109.5t-75 72.5t-111.5 27q-66 1 -124.5 -22.5t-98 -70.5
t-46.5 -118q-5 -48 7 -81.5t39 -55.5t64 -33t83 -12l163 -2zM524 1239l125 307h122l-160 -307h-87z" />
    <glyph glyph-name="etatonos" unicode="&#x3ae;" horiz-adv-x="971" 
d="M298 845l-146 -845h-111l188 1082h101zM228 565l-49 -1q13 87 39.5 181.5t75.5 177t123.5 133.5t182.5 48q87 -3 138 -41.5t74.5 -100t27 -133.5t-3.5 -143l-187 -1102h-111l187 1103q5 49 4.5 103t-14 101t-49 77t-101.5 32q-85 2 -144.5 -39.5t-97.5 -108t-60.5 -143
t-34.5 -144.5zM547 1240l125 307h122l-160 -307h-87z" />
    <glyph glyph-name="iotatonos" unicode="&#x3af;" horiz-adv-x="547" 
d="M253 1082h111l-136 -810q-2 -35 -1.5 -74t16.5 -67.5t60 -29.5q19 -1 39.5 2t38.5 5l-8 -102q-23 -8 -49 -11.5t-52 -2.5q-76 1 -110.5 46.5t-41.5 110.5t-2 126zM279 1219l125 307h122l-160 -307h-87z" />
    <glyph glyph-name="upsilondieresistonos" unicode="&#x3b0;" horiz-adv-x="935" 
d="M227 1082h111l-112 -678q-6 -40 -7 -94t9.5 -105.5t41.5 -85.5t90 -36q84 -3 144.5 43t100 120.5t62.5 155.5t33 145q20 133 19.5 268.5t-26.5 268.5l115 -1q15 -89 19.5 -178t-0.5 -179t-17 -177q-12 -91 -43 -192t-85 -187.5t-134 -140.5t-193 -50q-87 3 -139 42.5
t-76.5 103.5t-29 138.5t3.5 145.5zM539 1389l77 254h123l-110 -254h-90zM302 1372q2 31 22.5 56.5t53.5 27.5q34 0 52.5 -25.5t17.5 -57.5q-4 -32 -25 -56.5t-54 -25.5q-35 -1 -52.5 24t-14.5 57zM723 1371q1 32 22.5 57.5t54.5 27.5q34 0 52.5 -26t15.5 -58
q-2 -32 -23 -56.5t-54 -25.5q-34 -1 -53 24t-15 57z" />
    <glyph glyph-name="alpha" unicode="&#x3b1;" horiz-adv-x="981" 
d="M94 504l2 21q11 86 38 187t74.5 192t124.5 146.5t187 53.5q69 -4 118 -35t80.5 -81.5t48.5 -111t22.5 -124.5t1.5 -120l-28 -198q-15 -78 -46 -159t-80.5 -149.5t-119.5 -109.5t-162 -38q-99 2 -156 56.5t-82.5 136t-28.5 170t6 163.5zM209 526l-3 -21q-5 -53 -6.5 -124
t12 -139t54 -113t118.5 -47q70 -2 125.5 31t97 88.5t69.5 119.5t43 123l23 162q5 51 -3 117.5t-31 128t-66 102t-108 44.5q-87 4 -146 -43.5t-96 -123t-56 -157.5t-27 -148zM812 1082h94l-135 -808q-2 -14 -5.5 -43.5t-2.5 -60.5t11.5 -53t37.5 -25q10 1 19.5 3t19.5 4
l6 -95q-21 -12 -39.5 -17.5t-40.5 -6.5q-53 1 -79.5 33t-35 80t-6.5 97.5t5 85.5l95 581z" />
    <glyph glyph-name="beta" unicode="&#x3b2;" horiz-adv-x="1027" 
d="M462 805l113 -2q109 -4 179 -58t100 -141t22 -191q-10 -117 -63.5 -217t-145 -160.5t-218.5 -57.5q-76 3 -135 32t-99 78.5t-57.5 114t-10.5 138.5l53 29q-8 -80 21 -144t87.5 -102t139.5 -40q95 -4 163 41.5t106.5 121.5t48.5 162q7 72 -7.5 141.5t-59 116.5t-126.5 52
l-127 1zM641 1477q104 -3 170.5 -56.5t96 -138.5t21.5 -181q-8 -106 -61.5 -188.5t-139 -129t-191.5 -46.5h-87l16 88l70 -1q86 0 145.5 36.5t93.5 100t41 146.5q6 63 -10 123.5t-58 101t-116 42.5q-82 3 -142.5 -45t-95 -121t-45.5 -143l-251 -1462h-109l250 1461
q15 101 66.5 197t137 157.5t198.5 58.5z" />
    <glyph glyph-name="gamma" unicode="&#x3b3;" horiz-adv-x="859" 
d="M403 102l-91 -518h-109l90 518h110zM385 246l392 837h119l-519 -1083h-86zM250 1082l109 -849l4 -233h-75l-146 1082h108z" />
    <glyph glyph-name="delta" unicode="&#x3b4;" horiz-adv-x="972" 
d="M316 1281q7 90 54.5 154t121.5 98t159 33q65 0 123 -18.5t112 -49.5l-21 -107q-49 33 -104 50.5t-115 17.5q-54 0 -101.5 -20.5t-79 -60t-39.5 -96.5q-5 -42 8.5 -75t38.5 -57.5t57.5 -42.5t68.5 -32q110 -48 172.5 -131.5t84 -188.5t9.5 -215l-4 -33q-12 -93 -46 -187
t-91.5 -172.5t-139.5 -125t-190 -43.5q-103 3 -168.5 52.5t-100.5 127.5t-45 168.5t-1 173.5l3 33q13 105 57 206.5t121 175.5t188 96l2 10q-46 29 -77.5 68t-46 88t-10.5 103zM195 529l-4 -32q-6 -58 -3 -129t23.5 -134.5t66.5 -106t125 -44.5q82 -3 144 36t104.5 104.5
t66.5 141t33 144.5l4 30q6 61 -1 124.5t-29.5 122t-65 102.5t-107.5 65q-84 -2 -147.5 -40t-106 -100.5t-68 -136t-35.5 -147.5z" />
    <glyph glyph-name="epsilon" unicode="&#x3b5;" horiz-adv-x="946" 
d="M444 582l169 -1l-12 -79l-148 2q-72 -1 -134 -22t-103.5 -67.5t-49.5 -125.5q-5 -52 10 -90t45.5 -64t72 -39t86.5 -14q74 -2 135 26t104 80t58 122l109 1q-11 -78 -47 -140.5t-91 -106.5t-125 -65t-148 -19q-69 2 -129.5 22.5t-105.5 60.5t-68.5 97t-18.5 131
q5 80 39.5 135.5t89.5 90t123 50t139 15.5zM606 524l-154 1q-58 2 -111.5 19t-97 49t-67 80t-20.5 113q5 78 37 138t85.5 100.5t121 60t140.5 17.5q69 -2 128 -24t102 -63t65.5 -98t17.5 -129l-109 2q4 63 -22.5 109.5t-75 72.5t-111.5 27q-66 1 -124.5 -22.5t-98 -70.5
t-46.5 -118q-5 -48 7 -81.5t39 -55.5t64 -33t83 -12l163 -2z" />
    <glyph glyph-name="zeta" unicode="&#x3b6;" horiz-adv-x="868" 
d="M869 1456l58 1l-14 -86l-395 -495q-61 -77 -119.5 -158.5t-101 -170.5t-55.5 -190q-5 -45 0.5 -80.5t23 -63.5t46 -50t71.5 -39l82 -33q48 -18 86.5 -41t59 -59t15.5 -93q-4 -58 -27.5 -111.5t-62 -98.5t-84.5 -76l-57 61q29 28 55 61t45 70.5t24 80.5q4 32 -9.5 51.5
t-36.5 32.5t-50 23l-68 24q-61 22 -106.5 53t-74.5 72t-40.5 94.5t-3.5 119.5q12 108 59 210.5t113 195.5t132 174zM232 1456h659l-19 -103h-659z" />
    <glyph glyph-name="eta" unicode="&#x3b7;" horiz-adv-x="972" 
d="M298 845l-146 -845h-111l188 1082h101zM228 565l-49 -1q13 87 39.5 181.5t75.5 177t123.5 133.5t182.5 48q87 -3 138 -41.5t74.5 -100t27 -133.5t-3.5 -143l-187 -1102h-111l187 1103q5 49 4.5 103t-14 101t-49 77t-101.5 32q-85 2 -144.5 -39.5t-97.5 -108t-60.5 -143
t-34.5 -144.5z" />
    <glyph glyph-name="theta" unicode="&#x3b8;" horiz-adv-x="994" 
d="M833 777l-19 -105h-625l19 105h625zM904 843l-35 -223q-11 -76 -31.5 -164t-54.5 -173t-85 -154.5t-123 -111t-171 -37.5q-93 4 -150.5 49t-87 117t-39 156.5t-5.5 167t13 148.5l35 225q12 76 32 163t54 171.5t85.5 153.5t123.5 110t170 36q92 -3 149.5 -48t88 -116
t39 -155t5 -166.5t-12.5 -148.5zM758 604l39 256q6 44 11 108t2.5 133t-19 130.5t-56.5 100t-108 42.5q-93 4 -154.5 -49t-100 -135.5t-59.5 -172t-31 -158.5l-40 -256q-4 -43 -9.5 -108t-3.5 -134.5t19.5 -132t56.5 -102t107 -42.5q75 -3 129 32t92 94.5t62.5 129.5
t39 139.5t23.5 124.5z" />
    <glyph glyph-name="iota" unicode="&#x3b9;" horiz-adv-x="547" 
d="M253 1082h111l-136 -810q-2 -35 -1.5 -74t16.5 -67.5t60 -29.5q19 -1 39.5 2t38.5 5l-8 -102q-23 -8 -49 -11.5t-52 -2.5q-76 1 -110.5 46.5t-41.5 110.5t-2 126z" />
    <glyph glyph-name="kappa" unicode="&#x3ba;" horiz-adv-x="949" 
d="M346 1082l-189 -1082h-111l188 1082h112zM937 1082l-536 -587h-199l8 110h147l437 478zM649 0l-312 518l82 88l360 -606h-130z" />
    <glyph glyph-name="lambda" unicode="&#x3bb;" horiz-adv-x="958" 
d="M509 898l-431 -898h-128l545 1101l80 -21zM375 1516q44 0 74.5 -19t50.5 -51t31.5 -69.5t18.5 -74.5l151 -1067q4 -23 10 -53.5t20.5 -54.5t43.5 -26q9 -1 18 0.5t17 1.5l-5 -103q-13 -5 -26 -7.5t-26 -2.5q-56 0 -88 34t-48.5 82.5t-24.5 93.5l-111 788l-42 271
q-5 28 -12 63t-25.5 60.5t-55.5 27.5q-8 1 -18 0t-19 -1l6 97q14 4 29 7t31 3z" />
    <glyph glyph-name="uni03BC" unicode="&#x3bc;" horiz-adv-x="971" 
d="M797 1082h110l-188 -1082h-101l35 257zM715 503l47 2q-12 -79 -34.5 -171.5t-64 -174t-110 -132.5t-171.5 -48q-81 2 -132 43.5t-75.5 107.5t-24.5 140l13 181h74q-5 -47 -7.5 -109t7.5 -120.5t43.5 -97.5t102.5 -41q90 -4 148.5 33.5t95 101t57 138t31.5 147.5z
M234 1082h110l-262 -1498h-108z" />
    <glyph glyph-name="nu" unicode="&#x3bd;" horiz-adv-x="843" 
d="M330 122l423 961h119l-497 -1083h-85zM236 1082l129 -974l-3 -108h-77l-158 1082h109z" />
    <glyph glyph-name="xi" unicode="&#x3be;" horiz-adv-x="857" 
d="M911 1431l-27 -99q-31 13 -64 23t-66 15t-65 5q-77 1 -145 -26t-113 -80t-54 -135q-6 -59 9 -102.5t48.5 -70t80.5 -40t102 -14.5l118 -1l-15 -86l-105 2q-68 2 -132 21.5t-115 58t-78.5 95t-22.5 132.5q6 87 41.5 152.5t94.5 109.5t133 66t156 22q38 -1 75 -6.5
t73 -15.5t71 -26zM611 882l116 -1l-13 -81l-102 2q-113 0 -201.5 -43t-144 -125t-66.5 -197q-9 -82 11.5 -149t69 -115t127.5 -77l73 -26q47 -16 85.5 -38.5t60 -56.5t18.5 -90q-5 -55 -29 -104t-61.5 -90.5t-79.5 -73.5l-60 63q28 26 54.5 56t45.5 63t24 75q4 31 -11 50
t-38.5 30t-46.5 21l-51 18q-81 27 -141.5 68t-99.5 95.5t-55.5 125t-7.5 159.5q9 107 53.5 188.5t115 138.5t161.5 85.5t193 28.5z" />
    <glyph glyph-name="omicron" unicode="&#x3bf;" horiz-adv-x="975" 
d="M87 485l13 111q13 94 46 185t89 165.5t137 117.5t187 39q104 -3 169 -49.5t99 -121.5t43.5 -162t-0.5 -173l-14 -112q-13 -93 -46.5 -184.5t-89.5 -165.5t-136.5 -117t-188.5 -40q-103 3 -168 50t-98.5 122t-43 162t1.5 173zM212 597l-15 -115q-6 -59 -3.5 -127.5
t22.5 -129t65 -100t122 -42.5q84 -4 145 32t101 96t63.5 132t32.5 142l15 113q7 60 3.5 127.5t-23.5 129t-65.5 101.5t-122.5 43q-82 3 -141.5 -33t-101 -97t-65.5 -132t-32 -140z" />
    <glyph glyph-name="pi" unicode="&#x3c0;" horiz-adv-x="1033" 
d="M1029 1082l-18 -105h-887l19 105h886zM400 1082l-188 -1082h-112l188 1082h112zM771 1082h113l-136 -810q-3 -34 -3.5 -73t15.5 -68t60 -30q21 -1 40.5 2t39.5 6l-8 -103q-24 -8 -50 -11.5t-52 -2.5q-75 1 -109.5 46.5t-41 110.5t-1.5 126z" />
    <glyph glyph-name="rho" unicode="&#x3c1;" horiz-adv-x="972" 
d="M-31 -416l174 1022q13 86 43.5 174t82.5 162.5t127 119.5t178 41q107 -4 167.5 -62t87 -146t29 -183.5t-6.5 -177.5l-3 -21q-11 -84 -38 -178t-75.5 -175.5t-122.5 -132.5t-178 -48q-85 3 -143 39.5t-92 95.5t-48.5 131.5t-13.5 147.5q8 -4 16.5 -8.5l17 -9t17.5 -9.5
q5 -68 27.5 -132t70.5 -105t127 -44q84 -4 142 37t94.5 107.5t57.5 142t29 141.5l3 21q6 54 8.5 131t-10 152.5t-52 127.5t-121.5 55q-75 2 -130 -37t-91.5 -102.5t-57.5 -133.5t-30 -132l-175 -1011h-111z" />
    <glyph glyph-name="sigma1" unicode="&#x3c2;" horiz-adv-x="932" 
d="M559 1103q108 -4 172.5 -60.5t89.5 -144t18 -183.5h-106q7 66 -6.5 130.5t-56 107t-119.5 46.5q-83 3 -143.5 -39t-101 -110.5t-63.5 -145.5t-32 -144l-5 -42q-10 -97 9.5 -180t74.5 -145t150 -98q52 -19 93 -43.5t62.5 -63t16.5 -100.5q-4 -52 -27.5 -101.5t-58.5 -91.5
t-75 -73l-59 64q26 25 49.5 54t40.5 62.5t22 73.5q5 37 -7 59t-36.5 34.5t-56.5 23.5q-122 41 -194 116.5t-99 179t-14 228.5l5 43q11 91 43 187t88.5 178t137 132t188.5 46z" />
    <glyph glyph-name="sigma" unicode="&#x3c3;" horiz-adv-x="971" 
d="M82 518l4 32q11 89 45.5 185.5t93.5 179.5t142.5 131t189.5 39q24 -4 46.5 -15.5t43.5 -26t41 -25.5q84 -44 124.5 -124t51 -174t0.5 -178l-4 -34q-10 -92 -44.5 -186t-92.5 -173t-140 -126t-188 -44q-106 4 -171.5 55.5t-99 133t-42.5 174.5t0 176zM196 550l-3 -33
q-6 -59 -4 -132t21.5 -141.5t65 -113t125.5 -47.5q86 -3 148.5 39t104.5 111t66.5 147t34.5 146l3 33q6 59 3 130t-24 136t-66.5 107t-124.5 46q-83 3 -145 -37t-104 -105t-67 -141t-34 -145zM1030 1082l-19 -105h-464l20 105h463z" />
    <glyph glyph-name="tau" unicode="&#x3c4;" horiz-adv-x="895" 
d="M897 1082l-18 -103h-732l19 103h731zM464 1082h109l-134 -810q-4 -32 -4 -74.5t15.5 -75t61.5 -32.5q22 0 41.5 5t39.5 11l14 -94q-29 -16 -58.5 -24t-61.5 -7q-81 1 -116.5 49t-41.5 117t1 132z" />
    <glyph glyph-name="upsilon" unicode="&#x3c5;" horiz-adv-x="935" 
d="M227 1082h111l-112 -678q-6 -40 -7 -94t9.5 -105.5t41.5 -85.5t90 -36q84 -3 144.5 43t100 120.5t62.5 155.5t33 145q20 133 19.5 268.5t-26.5 268.5l115 -1q15 -89 19.5 -178t-0.5 -179t-17 -177q-12 -91 -43 -192t-85 -187.5t-134 -140.5t-193 -50q-87 3 -139 42.5
t-76.5 103.5t-29 138.5t3.5 145.5z" />
    <glyph glyph-name="phi" unicode="&#x3c6;" horiz-adv-x="1189" 
d="M347 -479l227 1353q8 57 33.5 105t68.5 77t104 28q98 -2 160 -55t94 -136t41 -174t1 -167q-12 -116 -58 -221t-121 -185.5t-175 -125.5t-226 -42q-123 4 -205.5 51.5t-128.5 127.5t-60 181t-1 210q14 108 49 206.5t96.5 183.5t151.5 147l47 -92q-67 -55 -114 -127
t-77.5 -153.5t-41.5 -166.5q-13 -82 -5.5 -163.5t40.5 -148.5t96.5 -107.5t160.5 -42.5q132 -5 230.5 62t157.5 175.5t75 229.5q4 49 2 121t-20 144t-59.5 119.5t-114.5 43.5q-40 -2 -60 -34.5t-26 -66.5l-232 -1357h-110z" />
    <glyph glyph-name="chi" unicode="&#x3c7;" horiz-adv-x="937" 
d="M940 1083l-888 -1498h-122l890 1498h120zM224 1092q49 -1 81 -26t52.5 -63.5t34 -82.5t22.5 -81l186 -966q6 -24 14.5 -66.5t26 -79t51.5 -39.5q17 -2 35 0t35 3l-32 -106q-13 -4 -25.5 -7.5t-25.5 -3.5q-46 -1 -77 27t-50.5 69.5t-30.5 86.5t-19 79l-184 959
q-6 33 -16 76.5t-32 76.5t-65 35q-14 1 -29 0t-29 -4l7 102q17 5 34.5 8.5t35.5 2.5z" />
    <glyph glyph-name="psi" unicode="&#x3c8;" horiz-adv-x="1185" 
d="M197 1082h112l-83 -492q-11 -82 -8.5 -169.5t29.5 -163.5t87.5 -124t162.5 -51q108 -3 190 39t139.5 114.5t93 162.5t48.5 185q17 126 10.5 252.5t-37.5 248.5l114 -2q20 -80 28.5 -163t6.5 -166.5t-12 -167.5q-16 -122 -58.5 -231.5t-114.5 -195.5t-173.5 -134
t-235.5 -45q-131 3 -212.5 57t-123 142.5t-50.5 196t5 218.5zM614 1082h111l-265 -1527h-111z" />
    <glyph glyph-name="omega" unicode="&#x3c9;" horiz-adv-x="1414" 
d="M1139 1084l110 -2q22 -89 32.5 -179t7.5 -181.5t-15 -183.5q-10 -81 -34 -177.5t-68.5 -185t-115 -144t-174.5 -52.5q-93 3 -143 55t-69.5 130.5t-18 163.5t9.5 152l47 290h85l-47 -294q-5 -44 -8.5 -108.5t6 -129.5t42 -109t100.5 -47q77 -3 127.5 46.5t80.5 123.5
t46.5 151.5t25.5 134.5q17 136 12 274t-39 272zM318 1083l123 -2q-73 -130 -132.5 -267.5t-79.5 -287.5q-6 -35 -10 -90t-2.5 -114.5t15.5 -113t46 -88t87 -37.5q74 -5 123.5 35t78.5 103.5t44.5 132.5t23.5 122l47 294h84l-48 -290q-11 -76 -33 -164t-63.5 -166
t-107 -126.5t-163.5 -44.5q-79 4 -127.5 43t-75 101t-35 134.5t-5.5 144t10 126.5q11 101 38.5 195.5t68.5 183.5t93 176z" />
    <glyph glyph-name="iotadieresis" unicode="&#x3ca;" horiz-adv-x="547" 
d="M253 1082h111l-136 -810q-2 -35 -1.5 -74t16.5 -67.5t60 -29.5q19 -1 39.5 2t38.5 5l-8 -102q-23 -8 -49 -11.5t-52 -2.5q-76 1 -110.5 46.5t-41.5 110.5t-2 126zM69 1372q2 34 26.5 58t58.5 26q33 -1 56 -24.5t21 -58.5q-3 -34 -27.5 -57.5t-58.5 -24.5q-35 0 -57 23
t-19 58zM493 1371q1 34 25.5 58.5t58.5 26.5q35 -1 57.5 -24.5t19.5 -59.5q-1 -35 -26 -58t-58 -24q-35 0 -57.5 23t-19.5 58z" />
    <glyph glyph-name="upsilondieresis" unicode="&#x3cb;" horiz-adv-x="935" 
d="M227 1082h111l-112 -678q-6 -40 -7 -94t9.5 -105.5t41.5 -85.5t90 -36q84 -3 144.5 43t100 120.5t62.5 155.5t33 145q20 133 19.5 268.5t-26.5 268.5l115 -1q15 -89 19.5 -178t-0.5 -179t-17 -177q-12 -91 -43 -192t-85 -187.5t-134 -140.5t-193 -50q-87 3 -139 42.5
t-76.5 103.5t-29 138.5t3.5 145.5zM296 1372q2 34 26.5 58t58.5 26q33 -1 56 -24.5t21 -58.5q-3 -34 -27.5 -57.5t-58.5 -24.5q-35 0 -57 23t-19 58zM720 1371q1 34 25.5 58.5t58.5 26.5q35 -1 57.5 -24.5t19.5 -59.5q-1 -35 -26 -58t-58 -24q-35 0 -57.5 23t-19.5 58z" />
    <glyph glyph-name="omicrontonos" unicode="&#x3cc;" horiz-adv-x="975" 
d="M87 485l13 111q13 94 46 185t89 165.5t137 117.5t187 39q104 -3 169 -49.5t99 -121.5t43.5 -162t-0.5 -173l-14 -112q-13 -93 -46.5 -184.5t-89.5 -165.5t-136.5 -117t-188.5 -40q-103 3 -168 50t-98.5 122t-43 162t1.5 173zM212 597l-15 -115q-6 -59 -3.5 -127.5
t22.5 -129t65 -100t122 -42.5q84 -4 145 32t101 96t63.5 132t32.5 142l15 113q7 60 3.5 127.5t-23.5 129t-65.5 101.5t-122.5 43q-82 3 -141.5 -33t-101 -97t-65.5 -132t-32 -140zM528 1240l125 307h122l-160 -307h-87z" />
    <glyph glyph-name="upsilontonos" unicode="&#x3cd;" horiz-adv-x="935" 
d="M227 1082h111l-112 -678q-6 -40 -7 -94t9.5 -105.5t41.5 -85.5t90 -36q84 -3 144.5 43t100 120.5t62.5 155.5t33 145q20 133 19.5 268.5t-26.5 268.5l115 -1q15 -89 19.5 -178t-0.5 -179t-17 -177q-12 -91 -43 -192t-85 -187.5t-134 -140.5t-193 -50q-87 3 -139 42.5
t-76.5 103.5t-29 138.5t3.5 145.5zM504 1219l125 307h122l-160 -307h-87z" />
    <glyph glyph-name="omegatonos" unicode="&#x3ce;" horiz-adv-x="1414" 
d="M1139 1084l110 -2q22 -89 32.5 -179t7.5 -181.5t-15 -183.5q-10 -81 -34 -177.5t-68.5 -185t-115 -144t-174.5 -52.5q-93 3 -143 55t-69.5 130.5t-18 163.5t9.5 152l47 290h85l-47 -294q-5 -44 -8.5 -108.5t6 -129.5t42 -109t100.5 -47q77 -3 127.5 46.5t80.5 123.5
t46.5 151.5t25.5 134.5q17 136 12 274t-39 272zM318 1083l123 -2q-73 -130 -132.5 -267.5t-79.5 -287.5q-6 -35 -10 -90t-2.5 -114.5t15.5 -113t46 -88t87 -37.5q74 -5 123.5 35t78.5 103.5t44.5 132.5t23.5 122l47 294h84l-48 -290q-11 -76 -33 -164t-63.5 -166
t-107 -126.5t-163.5 -44.5q-79 4 -127.5 43t-75 101t-35 134.5t-5.5 144t10 126.5q11 101 38.5 195.5t68.5 183.5t93 176zM769 1217l125 307h122l-160 -307h-87z" />
    <glyph glyph-name="theta1" unicode="&#x3d1;" horiz-adv-x="998" 
d="M972 775l2 -103q-41 -15 -84 -24t-86 -8q-145 1 -240 68t-137.5 178.5t-31.5 246.5l1 21q9 80 43 158t96 129t154 49q76 -4 122 -43t68 -99t25.5 -127.5t-1.5 -127.5l-108 -663q-17 -115 -62.5 -220t-130.5 -170t-216 -61q-93 3 -153 44.5t-92.5 106t-41.5 143t0 157.5
l54 328l112 2l-53 -332q-9 -71 -0.5 -149t50.5 -133.5t133 -58.5q99 -5 158 46.5t89.5 131.5t41.5 163l106 666q4 34 6 82.5t-6.5 95.5t-34 77.5t-77.5 32.5q-60 1 -96 -36t-54 -91t-22 -102l-2 -21q-7 -105 21 -191.5t97 -138.5t185 -54q42 0 84 8t81 19z" />
    <glyph glyph-name="Upsilon1" unicode="&#x3d2;" horiz-adv-x="932" 
d="M543 676l-119 -676h-113l118 676h114zM514 785l254 479q24 50 54.5 98t73.5 80.5t106 29.5q29 0 53.5 -9t48.5 -23l-37 -96q-13 8 -26 12.5t-28 5.5q-40 2 -67.5 -21.5t-47.5 -58.5t-33 -63l-345 -639l-87 11zM387 1261l101 -495l9 -177l-76 -12l-133 641q-6 23 -15 55.5
t-28 56.5t-52 25q-14 0 -27 -4t-27 -9l-15 98q22 12 43.5 18.5t44.5 6.5q56 0 91 -32t54 -79.5t30 -92.5z" />
    <glyph glyph-name="omega1" unicode="&#x3d6;" horiz-adv-x="1350" 
d="M1386 1083l-19 -105h-1234l19 105h1234zM1090 1084l112 -2q23 -89 32.5 -179t7 -181t-14.5 -184q-8 -60 -24 -135.5t-42 -150.5t-68 -138.5t-101.5 -101t-139.5 -34.5q-94 3 -143.5 55.5t-68.5 131.5t-18 163.5t9 150.5l42 268h86l-43 -270q-5 -44 -8.5 -109.5t6 -130.5
t42.5 -109t102 -46q59 -1 100 32t69.5 87t46.5 116.5t28.5 120.5t15.5 98q17 138 12 276t-40 272zM307 1083l121 -2q-70 -130 -130 -267.5t-81 -287.5q-4 -32 -9 -85t-4.5 -114t12.5 -115.5t40.5 -90.5t79.5 -39q75 -6 124 34t77 104.5t44 134t23 121.5l43 271h85l-44 -268
q-11 -75 -33 -163t-62.5 -166.5t-106 -126.5t-165.5 -45q-76 4 -122 44t-69 103.5t-30 137t-4.5 143.5t10.5 122q12 101 39.5 195.5t67.5 183.5t94 176z" />
    <glyph glyph-name="uni0400" unicode="&#x400;" horiz-adv-x="988" 
d="M826 107l-20 -107h-663l19 107h664zM430 1456l-253 -1456h-115l253 1456h115zM863 805l-19 -108h-580l20 108h579zM1054 1456l-20 -107h-657l19 107h658zM622 1856l141 -280h-99l-178 280h136z" />
    <glyph glyph-name="uni0401" unicode="&#x401;" horiz-adv-x="988" 
d="M826 107l-20 -107h-663l19 107h664zM430 1456l-253 -1456h-115l253 1456h115zM863 805l-19 -108h-580l20 108h579zM1054 1456l-20 -107h-657l19 107h658zM426 1715q2 34 26.5 58t58.5 26q33 -1 56 -24.5t21 -58.5q-3 -34 -27.5 -57.5t-58.5 -24.5q-35 0 -57 23t-19 58z
M850 1714q1 34 25.5 58.5t58.5 26.5q35 -1 57.5 -24.5t19.5 -59.5q-1 -35 -26 -58t-58 -24q-35 0 -57.5 23t-19.5 58z" />
    <glyph glyph-name="uni0402" unicode="&#x402;" horiz-adv-x="1283" 
d="M496 690l11 111q46 24 98.5 44t108 30.5t110.5 9.5q134 -2 213.5 -64.5t110.5 -165t19 -224.5q-10 -99 -47.5 -179.5t-98.5 -138.5t-142.5 -91t-179.5 -35l11 103q75 1 135 28.5t103.5 73.5t69.5 107.5t35 134.5q8 88 -10 164.5t-72 125t-152 50.5q-58 1 -112 -10.5
t-107 -31.5t-104 -42zM674 1456l-254 -1456h-114l253 1456h115zM1129 1456l-20 -107h-918l19 107h919z" />
    <glyph glyph-name="uni0403" unicode="&#x403;" horiz-adv-x="961" 
d="M1038 1456l-19 -107h-606l-234 -1349h-115l253 1456h721zM619 1576l230 281l151 -2l-269 -279h-112z" />
    <glyph glyph-name="uni0404" unicode="&#x404;" horiz-adv-x="1147" 
d="M761 791l-19 -107h-510l19 107h510zM878 454l109 1q-28 -131 -91.5 -240.5t-166 -174t-248.5 -60.5q-126 4 -201.5 69t-111 165.5t-41.5 213t7 209.5l28 181q17 110 57.5 227t108 216t166.5 159.5t230 55.5q136 -3 216 -71.5t114 -175.5t31 -229h-112q0 90 -20 173.5
t-75 138t-161 58.5q-107 3 -184.5 -48.5t-129.5 -136.5t-81.5 -181t-43.5 -184l-28 -185q-8 -55 -10.5 -126.5t6 -144.5t36 -135.5t77.5 -100.5t131 -42q115 -4 192 46t123 135.5t73 186.5z" />
    <glyph glyph-name="uni0405" unicode="&#x405;" horiz-adv-x="1027" 
d="M789 368q8 66 -9 116t-53 86t-85.5 63.5t-106.5 49.5q-69 29 -130 65t-106.5 84t-68 111t-15.5 147q7 89 46 161t101 123.5t139.5 77.5t163.5 24q122 -3 204 -64t118.5 -158.5t26.5 -212.5h-115q8 84 -13.5 158t-77.5 121t-150 49q-84 2 -155 -31.5t-117.5 -96
t-56.5 -147.5q-6 -63 11.5 -110t53.5 -82t83.5 -61t100.5 -46q73 -29 136 -67t108 -88.5t67 -116.5t14 -153q-8 -92 -47.5 -165.5t-103 -124t-143.5 -77t-169 -24.5q-95 4 -169.5 36.5t-124.5 92.5t-72.5 139t-13.5 171l114 -1q-7 -69 7.5 -129t48.5 -104.5t88 -69.5
t128 -28q87 -2 161 32t123 97.5t59 152.5z" />
    <glyph glyph-name="uni0406" unicode="&#x406;" horiz-adv-x="486" 
d="M450 1456l-253 -1456h-114l253 1456h114z" />
    <glyph glyph-name="uni0407" unicode="&#x407;" horiz-adv-x="486" 
d="M450 1456l-253 -1456h-114l253 1456h114zM145 1715q2 34 26.5 58t58.5 26q33 -1 56 -24.5t21 -58.5q-3 -34 -27.5 -57.5t-58.5 -24.5q-35 0 -57 23t-19 58zM569 1714q1 34 25.5 58.5t58.5 26.5q35 -1 57.5 -24.5t19.5 -59.5q-1 -35 -26 -58t-58 -24q-35 0 -57.5 23
t-19.5 58z" />
    <glyph glyph-name="uni0408" unicode="&#x408;" horiz-adv-x="958" 
d="M660 432l174 1024h114l-175 -1022q-16 -115 -67.5 -221.5t-141 -172t-220.5 -62.5q-122 5 -192.5 65t-95.5 155.5t-14 203.5h115q-8 -74 4.5 -145.5t58 -119.5t133.5 -51q96 -3 159.5 50t99.5 134t48 162z" />
    <glyph glyph-name="uni0409" unicode="&#x409;" horiz-adv-x="1805" 
d="M493 1456h116l-149 -673q-17 -78 -34.5 -181t-45.5 -208.5t-74 -195.5t-120 -144.5t-185 -53.5h-41l13 107h30q86 3 143 55.5t92.5 134.5t56.5 175.5t34 180t24 145.5zM1072 1456l-19 -107h-540l21 107h538zM1020 851h318q121 -5 198 -62t110.5 -150t23.5 -206
q-9 -95 -45.5 -175.5t-97 -138.5t-141 -89.5t-178.5 -29.5h-412l253 1456h113l-234 -1349h284q98 0 171 43t118 117.5t56 167.5q8 81 -11.5 148.5t-70.5 111.5t-139 47l-336 2z" />
    <glyph glyph-name="uni040A" unicode="&#x40a;" horiz-adv-x="1840" 
d="M992 787l-19 -106h-703l20 106h702zM432 1456l-252 -1456h-115l252 1456h115zM1051 829l319 -1q117 -4 195.5 -57.5t113.5 -143t24 -203.5q-9 -93 -45.5 -171.5t-97 -136t-140.5 -87.5t-176 -29h-412l252 1456h115l-235 -1345h286q94 0 167 40.5t118 112t56 164.5
q9 79 -12.5 144t-74 105t-136.5 44l-337 1z" />
    <glyph glyph-name="uni040B" unicode="&#x40b;" horiz-adv-x="1385" 
d="M1122 0h-115l68 417q11 88 -1 164t-62.5 123.5t-153.5 49.5q-48 1 -94 -3t-93 -14t-92 -22.5t-90 -27.5l10 108q44 16 88.5 28.5t90 21t91 13.5t91.5 4q137 -2 214 -62t103.5 -160.5t12.5 -224.5zM680 1456l-254 -1456h-114l253 1456h115zM1130 1456l-19 -107h-918
l19 107h918z" />
    <glyph glyph-name="uni040C" unicode="&#x40c;" 
d="M430 1456l-253 -1456h-115l253 1456h115zM1164 1457l-625 -669l-323 -319l15 154l244 256l539 577zM814 0l-364 753l82 97l409 -850h-127zM597 1525l230 281l151 -2l-269 -279h-112z" />
    <glyph glyph-name="uni040D" unicode="&#x40d;" horiz-adv-x="1225" 
d="M220 230l865 1227l117 -1l-253 -1456h-114l214 1228l-865 -1228h-118l253 1456h114zM716 1856l141 -280h-99l-178 280h136z" />
    <glyph glyph-name="uni040E" unicode="&#x40e;" horiz-adv-x="1086" 
d="M532 501l502 956h139l-654 -1208q-26 -51 -56.5 -100.5t-69.5 -88t-89.5 -62t-114.5 -22.5q-22 0 -43 3t-43 10l21 103q17 -3 35.5 -6t35.5 -3q57 0 96.5 30.5t68 75.5t51.5 88zM341 1456l223 -965l10 -108l-96 -20l-260 1093h123zM932 1813l97 3q-8 -82 -49 -141
t-105.5 -90t-147.5 -29q-117 2 -188.5 71.5t-66.5 188.5l102 -1q-5 -79 34.5 -124.5t121.5 -46.5q83 -1 135 45t67 124z" />
    <glyph glyph-name="uni040F" unicode="&#x40f;" horiz-adv-x="1219" 
d="M63 0l253 1456h115l-234 -1349h652l234 1349h115l-254 -1456h-881zM583 97l-80 -451h-113l79 451h114z" />
    <glyph glyph-name="uni0410" unicode="&#x410;" 
d="M700 1362l-641 -1362h-123l703 1457h85zM831 0l-174 1369l10 87h78l195 -1456h-109zM855 515l-19 -108h-640l20 108h639z" />
    <glyph glyph-name="uni0411" unicode="&#x411;" horiz-adv-x="1097" 
d="M1031 1456l-20 -107h-606l-234 -1349h-115l252 1456h723zM277 827l319 -3q118 -2 196 -55t112.5 -142.5t24.5 -203.5q-8 -95 -45 -173t-97.5 -134.5t-140 -86.5t-176.5 -29h-413l253 1456h115l-234 -1349h283q96 -1 169 40.5t117 113t55 164.5q9 81 -11.5 145.5
t-72.5 104t-138 43.5l-336 1z" />
    <glyph glyph-name="uni0412" unicode="&#x412;" horiz-adv-x="1064" 
d="M605 700h-338l18 106l279 -2q88 1 156.5 35t111 97t50.5 153q8 79 -13.5 136.5t-73 88.5t-133.5 35h-251l-234 -1349h-115l253 1456l349 -1q87 -2 152 -28.5t108 -74.5t61.5 -116t11.5 -154q-7 -91 -50.5 -164.5t-113.5 -120t-160 -60.5zM475 0h-371l79 108l297 -1
q93 -1 163.5 39.5t112 111t51.5 161.5q8 72 -10 135t-66 102t-127 43l-222 1l21 106l292 -2l15 -38q81 -17 129.5 -70t67.5 -127t13 -150q-9 -125 -67 -219.5t-154.5 -147.5t-223.5 -52z" />
    <glyph glyph-name="uni0413" unicode="&#x413;" horiz-adv-x="961" 
d="M1038 1456l-19 -107h-606l-234 -1349h-115l253 1456h721z" />
    <glyph glyph-name="uni0414" unicode="&#x414;" horiz-adv-x="1257" 
d="M1006 107l-20 -107h-928l19 107h929zM103 107l-81 -461h-114l81 461h114zM1100 107l-80 -460h-115l81 460h114zM1112 1456l-21 -107h-537l19 107h539zM1203 1456l-253 -1456h-115l253 1456h115zM533 1456h114l-112 -527q-9 -49 -28 -134t-45.5 -188t-64.5 -207
t-86 -191.5t-107.5 -144.5t-133.5 -64h-66l15 106l50 -1q81 78 138 177t97.5 208t68 221t47.5 218z" />
    <glyph glyph-name="uni0415" unicode="&#x415;" horiz-adv-x="988" 
d="M826 107l-20 -107h-663l19 107h664zM430 1456l-253 -1456h-115l253 1456h115zM863 805l-19 -108h-580l20 108h579zM1054 1456l-20 -107h-657l19 107h658z" />
    <glyph glyph-name="uni0416" unicode="&#x416;" horiz-adv-x="1516" 
d="M529 692l-309 764h129l249 -655h204l-35 -109h-238zM594 694l-513 -694h-151l609 811zM968 1456l-254 -1456h-112l253 1456h113zM1604 1456l-575 -764h-241l7 109h191l475 656zM1239 0l-278 708l88 105l325 -813h-135z" />
    <glyph glyph-name="uni0417" unicode="&#x417;" horiz-adv-x="1032" 
d="M542 707l-151 2l14 89l134 -2q93 1 168 33t122.5 95.5t57.5 160.5q9 85 -17.5 148.5t-85.5 99.5t-146 38q-89 3 -159 -37t-115 -108t-61 -150l-111 -2q12 89 50 162.5t98 128.5t137 84.5t168 28.5q89 -3 158 -31t116.5 -80.5t69.5 -124t13 -161.5q-7 -90 -47.5 -159.5
t-105 -117t-143 -72t-164.5 -25.5zM399 775l139 -2q88 -1 157.5 -25t118.5 -70.5t71.5 -114t15.5 -158.5q-8 -99 -48.5 -178t-107 -135.5t-152.5 -86t-183 -26.5q-89 2 -159 36.5t-115.5 92t-65.5 133.5t-12 164l114 -1q-8 -83 17 -154.5t83.5 -115.5t147.5 -48
q97 -3 176.5 35.5t131 110t61.5 168.5q7 69 -7 122t-45.5 90t-82.5 55.5t-121 20.5l-150 1z" />
    <glyph glyph-name="uni0418" unicode="&#x418;" horiz-adv-x="1225" 
d="M220 230l865 1227l117 -1l-253 -1456h-114l214 1228l-865 -1228h-118l253 1456h114z" />
    <glyph glyph-name="uni0419" unicode="&#x419;" horiz-adv-x="1225" 
d="M220 230l865 1227l117 -1l-253 -1456h-114l214 1228l-865 -1228h-118l253 1456h114zM1004 1813l97 3q-8 -82 -49 -141t-105.5 -90t-147.5 -29q-117 2 -188.5 71.5t-66.5 188.5l102 -1q-5 -79 34.5 -124.5t121.5 -46.5q83 -1 135 45t67 124z" />
    <glyph glyph-name="uni041A" unicode="&#x41a;" horiz-adv-x="1106" 
d="M434 1456l-252 -1456h-116l253 1456h115zM1179 1456l-659 -774h-268l8 109h202l566 666zM821 0l-372 704l79 104l423 -808h-130z" />
    <glyph glyph-name="uni041B" unicode="&#x41b;" horiz-adv-x="1213" 
d="M1102 1456l-20 -107h-575l20 107h575zM1193 1456l-253 -1456h-114l253 1456h114zM486 1456h115l-147 -674q-15 -77 -33.5 -179.5t-47 -209t-75.5 -197.5t-122 -145t-183 -51h-42l14 106l31 1q85 3 142.5 55.5t93 134.5t56.5 175.5t33 179t25 146.5z" />
    <glyph glyph-name="uni041C" unicode="&#x41c;" horiz-adv-x="1486" 
d="M352 1456h109l205 -1276l649 1277h119l-749 -1457h-88zM315 1456h101l-131 -827l-108 -629h-115zM1367 1456h102l-253 -1456h-115l111 638z" />
    <glyph glyph-name="uni041D" unicode="&#x41d;" horiz-adv-x="1221" 
d="M998 805l-20 -108h-708l20 108h708zM430 1456l-253 -1456h-115l253 1456h115zM1203 1456l-253 -1456h-115l254 1456h114z" />
    <glyph glyph-name="uni041E" unicode="&#x41e;" horiz-adv-x="1172" 
d="M1091 885l-50 -313q-17 -113 -57 -220t-106.5 -192.5t-162 -134.5t-224.5 -46q-122 4 -199.5 57t-118 139.5t-51 189.5t2.5 205l50 316q17 110 57.5 217.5t107 192.5t161.5 134.5t223 45.5q124 -3 202 -56t118.5 -138.5t50.5 -189t-4 -207.5zM928 570l50 320
q9 77 6.5 160t-28 153t-83 115t-155.5 49q-104 3 -179 -38t-126 -111t-81 -156.5t-43 -174.5l-49 -317q-11 -79 -7 -161t29 -153.5t82.5 -117.5t154.5 -49q106 -3 180.5 37.5t125.5 111t80.5 157t42.5 175.5z" />
    <glyph glyph-name="uni041F" unicode="&#x41f;" horiz-adv-x="1222" 
d="M1201 1456l-253 -1456h-116l235 1349h-651l-234 -1349h-116l253 1456h882z" />
    <glyph glyph-name="uni0420" unicode="&#x420;" horiz-adv-x="1071" 
d="M585 592h-344l20 108l328 -3q101 1 175.5 43t120 116t55.5 172q9 83 -10.5 154t-70.5 116.5t-144 50.5h-304l-234 -1349h-115l253 1456l404 -1q123 -4 201 -61.5t111.5 -153.5t22.5 -212q-12 -132 -72 -230t-162 -152.5t-235 -53.5z" />
    <glyph glyph-name="uni0421" unicode="&#x421;" horiz-adv-x="1123" 
d="M877 454l109 1q-25 -137 -87 -246.5t-165.5 -171.5t-253.5 -58q-121 4 -196 59.5t-112.5 145t-46 192.5t4.5 201l51 312q16 109 56 215.5t105 191t159.5 135t219.5 46.5q142 -4 222.5 -69.5t113 -173t26.5 -234.5h-113q3 95 -15 178.5t-74 136t-166 56.5
q-101 2 -174.5 -39.5t-123.5 -112.5t-80 -156.5t-43 -171.5l-48 -314q-11 -74 -9.5 -157t24.5 -158t76.5 -124t150.5 -52q121 -5 197.5 42.5t121 132.5t70.5 193z" />
    <glyph glyph-name="uni0422" unicode="&#x422;" horiz-adv-x="1035" 
d="M724 1456l-254 -1456h-113l253 1456h114zM1125 1456l-19 -107h-917l21 107h915z" />
    <glyph glyph-name="uni0423" unicode="&#x423;" horiz-adv-x="1086" 
d="M532 501l502 956h139l-654 -1208q-26 -51 -56.5 -100.5t-69.5 -88t-89.5 -62t-114.5 -22.5q-22 0 -43 3t-43 10l21 103q17 -3 35.5 -6t35.5 -3q57 0 96.5 30.5t68 75.5t51.5 88zM341 1456l223 -965l10 -108l-96 -20l-260 1093h123z" />
    <glyph glyph-name="uni0424" unicode="&#x424;" horiz-adv-x="1288" 
d="M685 1310l152 -3q114 -4 194.5 -54t129 -131.5t66 -181t6.5 -200.5q-13 -115 -59.5 -220.5t-121.5 -188.5t-176 -131t-224 -48l-152 3q-115 2 -194.5 52.5t-128 132.5t-66 181.5t-5.5 200.5q13 114 59 219.5t121 188.5t175.5 131.5t223.5 48.5zM681 1208
q-136 -1 -235 -69.5t-157 -179.5t-73 -237q-9 -78 -0.5 -159t39.5 -149t92.5 -110.5t156.5 -45.5l155 -4q136 0 234.5 69.5t156 180.5t73.5 236q10 80 1.5 160t-40.5 147.5t-92.5 110t-154.5 47.5zM861 1517l-274 -1577h-111l274 1577h111z" />
    <glyph glyph-name="uni0425" unicode="&#x425;" horiz-adv-x="1065" 
d="M340 1456l228 -611l420 612h140l-506 -725l284 -732h-128l-236 631l-434 -631h-141l522 745l-276 711h127z" />
    <glyph glyph-name="uni0426" unicode="&#x426;" horiz-adv-x="1236" 
d="M1078 110l-90 -461h-104l61 351h-117l19 110h231zM60 0l253 1456h114l-233 -1349h650l235 1349h115l-254 -1456h-880z" />
    <glyph glyph-name="uni0427" unicode="&#x427;" horiz-adv-x="1156" 
d="M305 1456h113l-66 -405q-10 -91 2.5 -167t63 -122.5t154.5 -48.5q46 -2 92 2.5t92.5 14.5t91.5 22t89 27l-10 -108q-44 -15 -89 -28.5t-90.5 -22t-91.5 -13t-92 -3.5q-137 2 -213 62.5t-101.5 160.5t-11.5 225zM1022 1456h114l-253 -1456h-114z" />
    <glyph glyph-name="uni0428" unicode="&#x428;" horiz-adv-x="1589" 
d="M314 1456h116l-234 -1349h457l235 1349h114l-234 -1349h457l234 1349h114l-252 -1456h-1259z" />
    <glyph glyph-name="uni0429" unicode="&#x429;" horiz-adv-x="1620" 
d="M1453 105l-89 -456h-102l62 351h-106l18 105h217zM314 1456h116l-234 -1349h457l235 1349h114l-234 -1349h457l234 1349h114l-252 -1456h-1259z" />
    <glyph glyph-name="uni042A" unicode="&#x42a;" horiz-adv-x="1326" 
d="M145 1352l19 104h423l-19 -104h-423zM515 827l320 -3q118 -2 195.5 -55.5t112.5 -142.5t25 -203q-9 -95 -45.5 -173t-97 -135t-140.5 -87t-177 -28h-413l253 1456h115l-235 -1349h284q97 0 169.5 41t117 112.5t55.5 165.5q8 80 -12.5 144.5t-72.5 104t-136 43.5l-339 1z
" />
    <glyph glyph-name="uni042B" unicode="&#x42b;" horiz-adv-x="1451" 
d="M285 827l320 -3q118 -2 195.5 -55t112 -142.5t24.5 -203.5q-9 -95 -45.5 -173t-97 -134.5t-140.5 -86.5t-177 -29h-412l252 1456h115l-234 -1349h283q97 -1 169.5 40.5t117 113t55.5 164.5q9 81 -12 145.5t-72.5 104t-136.5 43.5l-336 1zM1416 1456l-253 -1456h-114
l253 1456h114z" />
    <glyph glyph-name="uni042C" unicode="&#x42c;" horiz-adv-x="1065" 
d="M277 827l319 -3q118 -2 196 -55t112.5 -142.5t24.5 -203.5q-8 -95 -45 -173t-97.5 -134.5t-140 -86.5t-176.5 -29h-413l253 1456h115l-234 -1349h283q96 -1 169 40.5t117 113t55 164.5q9 81 -11.5 145.5t-72.5 104t-138 43.5l-336 1z" />
    <glyph glyph-name="uni042D" unicode="&#x42d;" horiz-adv-x="1147" 
d="M960 786l-20 -108h-505l19 108h506zM112 455h112q-1 -94 20 -177t77.5 -135.5t165.5 -55.5q106 -4 182 48.5t127 138.5t81 182t43 181l28 185q8 58 10 130t-8.5 144.5t-38 134t-79 99t-133.5 41.5q-113 4 -187.5 -48.5t-121 -138t-72.5 -183.5h-111q27 129 90 238.5
t164 175.5t245 61q127 -3 203.5 -67t114 -165t44.5 -213.5t-6 -212.5l-28 -181q-17 -107 -56.5 -224t-106.5 -216.5t-164 -160t-227 -56.5q-137 4 -219.5 70.5t-118 173.5t-30.5 231z" />
    <glyph glyph-name="uni042E" unicode="&#x42e;" horiz-adv-x="1562" 
d="M447 1456l-253 -1456h-114l253 1456h114zM611 788l-15 -104h-298l14 104h299zM1477 885l-50 -313q-18 -113 -58 -220t-106 -192.5t-162 -134.5t-224 -46q-123 4 -200.5 57t-118.5 139.5t-51 189.5t3 205l50 316q16 110 57 217.5t107.5 192.5t162 134.5t223.5 45.5
q123 -3 201 -56t118.5 -138.5t51 -189t-3.5 -207.5zM1313 570l50 320q9 77 6.5 160t-28 153t-83.5 115t-156 49q-104 3 -179 -38t-125.5 -111t-80.5 -156.5t-43 -174.5l-50 -317q-10 -79 -6.5 -161t29.5 -153.5t82.5 -117.5t154.5 -49q105 -3 180 37.5t126 111t80.5 156.5
t42.5 176z" />
    <glyph glyph-name="uni042F" unicode="&#x42f;" horiz-adv-x="1067" 
d="M838 593l-386 1l-48 28q-115 62 -159.5 161t-32.5 226q12 133 73.5 234.5t162.5 158t236 56.5l377 -2l-253 -1456h-114l234 1349l-246 2q-155 -1 -247.5 -95t-107.5 -244q-8 -75 8.5 -145t63.5 -115.5t133 -49.5l323 -1zM522 669l-406 -669h-129l413 669h122z" />
    <glyph glyph-name="uni0430" unicode="&#x430;" horiz-adv-x="936" 
d="M608 194l95 592q6 65 -10.5 113t-58.5 73.5t-111 26.5q-66 2 -120.5 -25t-89.5 -75.5t-48 -114.5h-109q9 71 42.5 130.5t85.5 102t116 65.5t136 22q99 -2 163.5 -42t93.5 -112t20 -169l-90 -553q-9 -56 -9 -108t1 -107l-1 -13h-114q-4 49 -1.5 97t9.5 97zM708 632
l-14 -95l-182 2q-61 -1 -120.5 -14.5t-109 -43.5t-81.5 -78.5t-39 -115.5q-6 -57 8 -102t50 -71t96 -27q78 -1 141.5 29.5t111.5 84.5t76 122l21 -68q-21 -59 -56 -109.5t-83.5 -89t-106 -59t-121.5 -20.5q-89 1 -146 41.5t-83.5 108t-20.5 151.5q6 90 45 156.5t102 110.5
t141 66t162 22z" />
    <glyph glyph-name="uni0431" unicode="&#x431;" horiz-adv-x="958" 
d="M864 1552l92 1q-9 -72 -36.5 -121.5t-69.5 -81.5t-98.5 -51.5t-123.5 -29.5q-117 -21 -196.5 -89t-127 -164.5t-73.5 -205.5t-40 -209l-14 -94h-95l15 94q16 115 49 240.5t91 237t148.5 191.5t225.5 107q55 11 108.5 28t92 51t52.5 96zM556 1013q98 -3 161.5 -47.5
t99 -116.5t47.5 -156t5 -164l-3 -33q-11 -93 -44.5 -185.5t-90.5 -168t-138.5 -120.5t-187.5 -42q-101 2 -167.5 50t-102.5 123.5t-48 164.5t-4 172l4 34q3 30 11.5 58.5t19.5 55.5t22 55q38 84 97.5 157.5t140 119t178.5 43.5zM533 910q-103 3 -174.5 -57t-112 -149.5
t-50.5 -178.5l-3 -32q-6 -60 -1 -130.5t27 -133t69 -103t126 -43.5q80 -3 141 35.5t102.5 101t66 135.5t31.5 141l4 32q5 60 -2 125.5t-31.5 122.5t-71 94.5t-121.5 39.5z" />
    <glyph glyph-name="uni0432" unicode="&#x432;" horiz-adv-x="977" 
d="M530 498h-315l17 103l252 -2q67 1 126.5 20.5t99 63t47.5 116.5q5 49 -8.5 83t-42 55t-67.5 30.5t-83 10.5l-225 1l-171 -979h-110l188 1082l321 -1q65 -1 123.5 -17.5t102 -50t66 -86t17.5 -126.5q-4 -57 -26.5 -102t-59.5 -79.5t-85 -54.5t-102 -27zM442 0h-352l64 104
l293 -1q67 0 123.5 23t93 68.5t43.5 117.5q7 58 -14.5 99.5t-64 63t-99.5 23.5h-236l21 103l284 -2l37 -38q62 -11 103.5 -47.5t61.5 -89t17 -115.5q-5 -77 -36 -136t-82 -97t-116.5 -57.5t-140.5 -18.5z" />
    <glyph glyph-name="uni0433" unicode="&#x433;" horiz-adv-x="742" 
d="M783 1082l-20 -105h-437l-169 -977h-111l188 1082h549z" />
    <glyph glyph-name="uni0434" unicode="&#x434;" horiz-adv-x="1005" 
d="M384 1082h113l-85 -389q-19 -97 -45 -195t-65.5 -189.5t-98.5 -171t-145 -137.5h-62l16 103h26q58 64 100 132.5t73 141t53.5 151t38.5 163.5zM417 1082h500l-188 -1082h-111l167 968h-389zM-26 105h869l-73 -423h-112l56 318h-650l-56 -318h-108z" />
    <glyph glyph-name="uni0435" unicode="&#x435;" horiz-adv-x="910" 
d="M396 -21q-104 2 -171.5 45t-103.5 113.5t-47 157t-1 174.5l15 126q12 92 45.5 183.5t88 166.5t135.5 118.5t188 38.5q100 -3 161 -46t89.5 -111.5t34.5 -152.5t-4 -167l-13 -93h-668l18 104l554 1l5 29q9 72 -1 148t-51.5 128t-131.5 57q-86 3 -147 -32t-99.5 -95
t-61 -133.5t-31.5 -143.5l-15 -126q-7 -64 -2.5 -131.5t27 -123.5t70 -91.5t127.5 -37.5q80 -3 145.5 28t122.5 86l51 -75q-41 -51 -93.5 -83t-112 -47.5t-123.5 -14.5z" />
    <glyph glyph-name="uni0436" unicode="&#x436;" horiz-adv-x="1318" 
d="M417 499l-253 583h125l195 -472h172l-32 -111h-207zM480 505l-403 -505h-147l494 606zM794 1082l-190 -1082h-108l187 1082h111zM1323 1082l-456 -583h-214l7 111h161l361 473zM1034 0l-235 519l82 88l284 -607h-131z" />
    <glyph glyph-name="uni0437" unicode="&#x437;" horiz-adv-x="885" 
d="M448 522l-150 2l12 83l130 -2q66 1 118.5 21.5t86.5 64.5t41 113q6 60 -15 104t-63 68t-102 25q-65 1 -116 -26t-87 -75t-49 -109l-109 -1q13 94 64.5 165.5t129.5 110.5t174 38q68 -2 123 -23t93 -59.5t56.5 -94.5t13.5 -125q-4 -69 -35 -121.5t-81 -87.5t-110.5 -52.5
t-124.5 -18.5zM304 581l136 -2q67 -2 120.5 -18.5t92.5 -49.5t58.5 -84t14.5 -121q-5 -76 -35.5 -137.5t-82.5 -103.5t-118 -64t-141 -20q-95 2 -165 45t-105.5 117t-28.5 170l108 -1q-3 -64 19 -115t68 -81t110 -32q70 -2 126.5 24t92.5 76.5t43 120.5q7 65 -12.5 107
t-63 63t-106.5 22l-147 2z" />
    <glyph glyph-name="uni0438" unicode="&#x438;" horiz-adv-x="983" 
d="M193 209l608 874l116 -1l-189 -1082h-112l153 874l-608 -874h-114l188 1082h110z" />
    <glyph glyph-name="uni0439" unicode="&#x439;" horiz-adv-x="981" 
d="M193 209l608 874l116 -1l-189 -1082h-112l153 874l-608 -874h-114l188 1082h110zM816 1470l97 3q-8 -82 -49 -141t-105.5 -90t-147.5 -29q-117 2 -188.5 71.5t-66.5 188.5l102 -1q-5 -79 34.5 -124.5t121.5 -46.5q83 -1 135 45t67 124z" />
    <glyph glyph-name="uni043A" unicode="&#x43a;" horiz-adv-x="911" 
d="M346 1082l-189 -1082h-111l188 1082h112zM930 1083l-509 -588h-218l8 110h172l400 477zM637 0l-275 518l82 88l327 -606h-134z" />
    <glyph glyph-name="uni043B" unicode="&#x43b;" horiz-adv-x="984" 
d="M827 1082l-19 -105h-445l19 105h445zM918 1082l-189 -1082h-112l188 1082h113zM353 1082h112l-107 -508q-12 -62 -25.5 -139.5t-36 -154t-60.5 -142t-95.5 -103.5t-141.5 -35h-45l14 109h31q63 4 106 40.5t69.5 94.5t42 123.5t24 128.5t16.5 109z" />
    <glyph glyph-name="uni043C" unicode="&#x43c;" horiz-adv-x="1262" 
d="M559 171l499 912h115l-599 -1083h-79l-220 1082h103zM348 1082l-188 -1082h-110l188 1082h110zM898 0l188 1082h110l-188 -1082h-110z" />
    <glyph glyph-name="uni043D" unicode="&#x43d;" horiz-adv-x="983" 
d="M747 600l-20 -105h-513l20 105h513zM346 1082l-189 -1082h-110l188 1082h111zM915 1082l-189 -1082h-110l188 1082h111z" />
    <glyph glyph-name="uni043E" unicode="&#x43e;" horiz-adv-x="975" 
d="M87 485l13 111q13 94 46 185t89 165.5t137 117.5t187 39q104 -3 169 -49.5t99 -121.5t43.5 -162t-0.5 -173l-14 -112q-13 -93 -46.5 -184.5t-89.5 -165.5t-136.5 -117t-188.5 -40q-103 3 -168 50t-98.5 122t-43 162t1.5 173zM212 597l-15 -115q-6 -59 -3.5 -127.5
t22.5 -129t65 -100t122 -42.5q84 -4 145 32t101 96t63.5 132t32.5 142l15 113q7 60 3.5 127.5t-23.5 129t-65.5 101.5t-122.5 43q-82 3 -141.5 -33t-101 -97t-65.5 -132t-32 -140z" />
    <glyph glyph-name="uni043F" unicode="&#x43f;" horiz-adv-x="983" 
d="M826 1082l-19 -105h-504l19 105h504zM346 1082l-189 -1082h-110l188 1082h111zM917 1082l-189 -1082h-112l188 1082h113z" />
    <glyph glyph-name="uni0440" unicode="&#x440;" horiz-adv-x="966" 
d="M299 868l-222 -1284h-111l260 1498h103zM857 591l-13 -100q-12 -88 -38 -179.5t-73 -167.5t-121 -122.5t-180 -42.5q-77 3 -134 36t-93 87t-51.5 121.5t-11.5 137.5l49 334q15 73 47.5 147t82.5 134t118 95t153 32q104 -2 162.5 -51t83.5 -126t26.5 -165t-7.5 -170z
M735 490l13 103q6 60 7.5 128.5t-14.5 131t-58.5 103.5t-122.5 43q-61 1 -113 -22.5t-92.5 -63.5t-69.5 -91.5t-43 -105.5l-62 -382q-1 -67 29 -123t82.5 -90.5t119.5 -36.5q85 -5 144 32t95 98t56 133.5t29 142.5z" />
    <glyph glyph-name="uni0441" unicode="&#x441;" horiz-adv-x="901" 
d="M389 83q82 -3 137.5 29.5t90 91t52.5 131.5h102q-17 -100 -68 -182.5t-132 -130t-188 -44.5t-172 47.5t-97.5 117.5t-39 160.5t3.5 175.5l16 124q13 96 44 187t85 162.5t134 113t190 36.5q111 -3 176.5 -57.5t92 -142t20.5 -186.5l-106 1q5 69 -10 132t-57.5 104.5
t-122.5 44.5q-86 4 -146 -29.5t-98.5 -92t-60.5 -130t-31 -143.5l-16 -124q-7 -64 -6.5 -132.5t18 -127.5t63 -96t126.5 -40z" />
    <glyph glyph-name="uni0442" unicode="&#x442;" horiz-adv-x="833" 
d="M552 1082l-188 -1082h-112l189 1082h111zM867 1082l-18 -103h-732l19 103h731z" />
    <glyph glyph-name="uni0443" unicode="&#x443;" horiz-adv-x="831" 
d="M324 125l431 958h121l-585 -1257q-20 -47 -46 -94t-60 -86.5t-79.5 -63t-103.5 -22.5q-21 0 -42.5 4t-42.5 10l12 103q12 -3 24 -5.5t26 -3.5q60 -2 103 27t72.5 75.5t51.5 96.5zM245 1082l111 -933l7 -124l-86 -49l-147 1106h115z" />
    <glyph glyph-name="uni0444" unicode="&#x444;" horiz-adv-x="1248" 
d="M1131 538l-4 -21q-10 -80 -35 -174t-70 -178.5t-116 -137t-173 -49.5q-44 2 -85.5 17t-72.5 43.5t-50 67t-17 85.5l108 684q11 50 35.5 92t60.5 73.5t81.5 48.5t96.5 16q81 -3 131.5 -43.5t76.5 -105.5t34.5 -140.5t6 -148.5t-7.5 -129zM1018 517l3 21q4 39 8 96.5
t1 120.5t-20 118t-52 90t-97 36q-39 0 -73 -12t-60.5 -34.5t-45.5 -56.5l-124 -733q15 -29 39.5 -46t53 -25.5t61.5 -9.5q81 -2 135.5 40.5t90 111.5t54 145t26.5 138zM94 505l3 21q8 65 25 143t46 155.5t73 141.5t108 102t148 34q47 -2 87 -19.5t69.5 -48.5t45.5 -71
t16 -88l-107 -675q-9 -50 -34 -91t-61.5 -70.5t-81 -46t-95.5 -15.5q-96 2 -150 57t-76 139.5t-23 173t7 158.5zM209 526l-2 -21q-5 -47 -9.5 -117.5t6.5 -140t47.5 -116.5t108.5 -47q36 -1 69 9.5t61 30.5t50 49l123 723q-11 36 -32 57.5t-52 33t-66 12.5q-83 3 -138.5 -46
t-89 -125.5t-51 -158t-25.5 -143.5zM390 -416l339 1952h110l-339 -1952h-110z" />
    <glyph glyph-name="uni0445" unicode="&#x445;" horiz-adv-x="854" 
d="M269 1082l160 -432l297 433l136 -1l-384 -538l221 -544h-122l-170 453l-311 -453h-137l400 557l-211 525h121z" />
    <glyph glyph-name="uni0446" unicode="&#x446;" horiz-adv-x="997" 
d="M47 0l188 1082h111l-169 -977h458l169 977h113l-189 -1082h-681zM840 105l-84 -426h-101l56 321h-107l18 105h218z" />
    <glyph glyph-name="uni0447" unicode="&#x447;" horiz-adv-x="932" 
d="M865 1082l-190 -1082h-109l187 1082h112zM740 590l-8 -104q-47 -26 -97.5 -45t-103.5 -30t-108 -10q-122 2 -185.5 58t-82.5 148t-7 200l43 276h111l-43 -276q-8 -74 -1.5 -142.5t44.5 -113t128 -44.5q53 -1 106 11t104.5 31t99.5 41z" />
    <glyph glyph-name="uni0448" unicode="&#x448;" horiz-adv-x="1368" 
d="M235 1082h111l-169 -977h375l170 977h112l-172 -977h373l170 977h111l-187 -1082h-1082z" />
    <glyph glyph-name="uni0449" unicode="&#x449;" horiz-adv-x="1387" 
d="M1252 105l-84 -426h-101l56 321h-107l19 105h217zM229 1082h111l-169 -977h376l169 977h112l-170 -977h373l169 977h111l-188 -1082h-1082z" />
    <glyph glyph-name="uni044A" unicode="&#x44a;" horiz-adv-x="1087" 
d="M497 1082l-19 -104h-366l19 104h366zM412 691l275 -2q97 -4 160 -49t91.5 -119.5t22.5 -165.5q-7 -78 -37 -143t-79.5 -113t-115 -74t-145.5 -25h-364l189 1082h109l-170 -977l240 -2q75 2 130.5 34.5t89 88.5t41.5 128q7 59 -7.5 110.5t-53 84.5t-103.5 37h-292z" />
    <glyph glyph-name="uni044B" unicode="&#x44b;" horiz-adv-x="1311" 
d="M243 691l274 -2q96 -3 159.5 -48.5t92.5 -120t23 -165.5q-7 -77 -37 -142.5t-79.5 -113.5t-115.5 -74t-147 -25h-363l188 1082h110l-168 -977l240 -2q74 2 129.5 34.5t89 88t41.5 127.5q6 60 -8.5 111.5t-53 84.5t-103.5 37h-291zM1222 1082l-188 -1082h-112l189 1082
h111z" />
    <glyph glyph-name="uni044C" unicode="&#x44c;" horiz-adv-x="934" 
d="M243 691l274 -2q96 -3 159.5 -48.5t92.5 -120t23 -165.5q-7 -77 -37 -142.5t-79.5 -113.5t-115.5 -74t-147 -25h-363l188 1082h110l-168 -977l240 -2q74 2 129.5 34.5t89 88t41.5 127.5q6 60 -8.5 111.5t-53 84.5t-103.5 37h-291z" />
    <glyph glyph-name="uni044D" unicode="&#x44d;" horiz-adv-x="932" 
d="M505 999q-73 3 -128 -32.5t-90.5 -94.5t-48.5 -127l-104 -1q14 96 64.5 179t131 133.5t183.5 46.5q103 -3 167 -56t95 -134.5t38.5 -174t-1.5 -173.5l-5 -43q-11 -91 -43.5 -187t-88.5 -178t-137 -131.5t-188 -46.5q-105 4 -169.5 61t-91.5 145.5t-18 182.5h105
q-5 -65 9 -129.5t55.5 -108.5t118.5 -47q83 -4 143.5 38.5t101.5 111.5t64 145.5t32 143.5l5 42q6 57 4 130t-19 141.5t-60.5 115t-124.5 48.5zM763 599l-18 -104h-440l19 104h439z" />
    <glyph glyph-name="uni044E" unicode="&#x44e;" horiz-adv-x="1397" 
d="M595 592l-20 -105h-426l19 105h427zM348 1082l-188 -1082h-110l188 1082h110zM492 519l4 31q12 95 47 193t94 181t142.5 132.5t194.5 47.5q105 -5 171.5 -56.5t100.5 -134t43 -175t-1 -177.5l-3 -33q-11 -96 -46 -193t-93.5 -179t-143 -131t-193.5 -46q-105 3 -171 55
t-101 133t-44.5 173t-0.5 179zM608 549l-3 -32q-7 -58 -5 -132t22.5 -141.5t67 -112t125.5 -47.5q86 -3 150 38.5t107 110.5t68 147t35 147l4 32q6 60 3.5 133.5t-23 142.5t-67 115t-126.5 49q-86 3 -149.5 -39.5t-106.5 -112t-68 -148.5t-34 -150z" />
    <glyph glyph-name="uni044F" unicode="&#x44f;" horiz-adv-x="949" 
d="M313 498l128 -1l-334 -497h-127zM518 1084l361 -2l-188 -1082h-111l170 979l-237 2q-68 -1 -122 -30t-88.5 -81t-42.5 -121q-6 -52 6 -98t44.5 -75.5t90.5 -33.5l312 -2l-19 -105l-297 2q-66 2 -114.5 28t-80 68.5t-44 98.5t-8.5 119q5 77 35 138t79.5 104t113.5 66.5
t140 24.5z" />
    <glyph glyph-name="uni0450" unicode="&#x450;" horiz-adv-x="910" 
d="M396 -21q-104 2 -171.5 45t-103.5 113.5t-47 157t-1 174.5l15 126q12 92 45.5 183.5t88 166.5t135.5 118.5t188 38.5q100 -3 161 -46t89.5 -111.5t34.5 -152.5t-4 -167l-13 -93h-668l18 104l554 1l5 29q9 72 -1 148t-51.5 128t-131.5 57q-86 3 -147 -32t-99.5 -95
t-61 -133.5t-31.5 -143.5l-15 -126q-7 -64 -2.5 -131.5t27 -123.5t70 -91.5t127.5 -37.5q80 -3 145.5 28t122.5 86l51 -75q-41 -51 -93.5 -83t-112 -47.5t-123.5 -14.5zM511 1535l141 -280h-99l-178 280h136z" />
    <glyph glyph-name="uni0451" unicode="&#x451;" horiz-adv-x="910" 
d="M396 -21q-104 2 -171.5 45t-103.5 113.5t-47 157t-1 174.5l15 126q12 92 45.5 183.5t88 166.5t135.5 118.5t188 38.5q100 -3 161 -46t89.5 -111.5t34.5 -152.5t-4 -167l-13 -93h-668l18 104l554 1l5 29q9 72 -1 148t-51.5 128t-131.5 57q-86 3 -147 -32t-99.5 -95
t-61 -133.5t-31.5 -143.5l-15 -126q-7 -64 -2.5 -131.5t27 -123.5t70 -91.5t127.5 -37.5q80 -3 145.5 28t122.5 86l51 -75q-41 -51 -93.5 -83t-112 -47.5t-123.5 -14.5zM314 1394q2 34 26.5 58t58.5 26q33 -1 56 -24.5t21 -58.5q-3 -34 -27.5 -57.5t-58.5 -24.5
q-35 0 -57 23t-19 58zM738 1393q1 34 25.5 58.5t58.5 26.5q35 -1 57.5 -24.5t19.5 -59.5q-1 -35 -26 -58t-58 -24q-35 0 -57.5 23t-19.5 58z" />
    <glyph glyph-name="uni0452" unicode="&#x452;" horiz-adv-x="955" 
d="M678 435h110l-87 -522q-11 -86 -44.5 -167.5t-96.5 -134t-163 -51.5q-28 1 -54 6.5t-52 14.5l23 100q22 -8 45 -13t46 -5q63 -1 101.5 39.5t58 98.5t26.5 110zM416 1536l-266 -1536h-111l267 1536h110zM231 608l-39 25q13 79 43.5 162t80.5 154t121.5 113.5t165.5 40.5
q82 -2 131 -39t72 -95t26.5 -127.5t-3.5 -136.5l-117 -705h-110l118 708q6 62 1 129t-38.5 114t-113.5 47q-74 3 -131.5 -34.5t-99 -97.5t-68 -128.5t-39.5 -129.5zM631 1339l-19 -104h-504l18 104h505z" />
    <glyph glyph-name="uni0453" unicode="&#x453;" horiz-adv-x="742" 
d="M783 1082l-20 -105h-437l-169 -977h-111l188 1082h549zM403 1233l230 281l151 -2l-269 -279h-112z" />
    <glyph glyph-name="uni0454" unicode="&#x454;" horiz-adv-x="932" 
d="M603 594l-19 -104h-465l19 104h465zM401 84q75 -3 131 32t92.5 93t52.5 126h104q-17 -95 -69 -177.5t-133 -132t-185 -46.5q-106 3 -170 55t-95 133.5t-37.5 174t2.5 175.5l5 43q12 93 44 189t87 177.5t136 131t191 44.5q106 -3 171 -59t94 -143.5t24 -183.5h-105
q3 67 -13.5 129.5t-59.5 106.5t-118 47q-87 3 -148 -38t-100.5 -109t-62 -145.5t-31.5 -146.5l-5 -42q-7 -60 -7 -133t17 -141t61.5 -112.5t126.5 -47.5z" />
    <glyph glyph-name="uni0455" unicode="&#x455;" horiz-adv-x="887" 
d="M612 274q8 59 -22.5 100.5t-77.5 71.5t-91 53q-48 27 -94.5 54.5t-83.5 62.5t-58 81.5t-17 108.5q4 68 34 123.5t77.5 94.5t108 59.5t128.5 18.5q93 -2 160 -42t101 -111.5t27 -161.5l-109 -1q3 60 -17.5 107.5t-63.5 75t-104 28.5q-59 1 -109.5 -20.5t-84 -64
t-40.5 -101.5q-5 -43 10.5 -75t44 -56t63 -43t65.5 -36q68 -35 130 -75.5t99.5 -98.5t32.5 -145q-4 -73 -35 -130t-81 -96t-114 -58t-133 -18q-94 2 -166 41.5t-111 109.5t-32 166l111 -1q-3 -67 20 -114t69.5 -71.5t114.5 -25.5q58 0 112.5 20.5t91.5 63.5t44 105z" />
    <glyph glyph-name="uni0456" unicode="&#x456;" horiz-adv-x="419" 
d="M349 1082l-188 -1082h-110l188 1082h110zM276 1393q3 37 23.5 56.5t53.5 28.5q34 -7 52.5 -26.5t15.5 -57.5q-3 -36 -23.5 -55t-53.5 -26q-33 6 -51.5 25t-16.5 55z" />
    <glyph glyph-name="uni0457" unicode="&#x457;" horiz-adv-x="418" 
d="M348 1082l-188 -1082h-111l188 1082h111zM55 1383q2 34 26.5 58t58.5 26q33 -1 56 -24.5t21 -58.5q-3 -34 -27.5 -57.5t-58.5 -24.5q-35 0 -57 23t-19 58zM479 1382q1 34 25.5 58.5t58.5 26.5q35 -1 57.5 -24.5t19.5 -59.5q-1 -35 -26 -58t-58 -24q-35 0 -57.5 23
t-19.5 58z" />
    <glyph glyph-name="uni0458" unicode="&#x458;" horiz-adv-x="423" 
d="M234 1082h113l-206 -1211q-11 -78 -42 -151t-89 -118t-150 -42q-25 1 -48 7t-46 13l14 103q17 -6 36 -11t37 -6q59 -1 95 30.5t54.5 78t26.5 96.5zM273 1393q1 32 21.5 57.5t53.5 27.5q33 0 52.5 -26t15.5 -58q-2 -31 -23 -55.5t-54 -25.5t-51.5 23.5t-14.5 56.5z" />
    <glyph glyph-name="uni0459" unicode="&#x459;" horiz-adv-x="1464" 
d="M347 1082h113l-110 -507q-12 -62 -25.5 -139t-36 -154.5t-58.5 -142.5t-94.5 -103t-143.5 -36h-44l13 108l31 1q64 4 107 40.5t69 94t42 124t25 129t18 108.5zM809 1082l-19 -105h-435l19 105h435zM785 651l275 -2q91 -3 155.5 -43t96 -110t25.5 -161q-5 -77 -35.5 -139
t-81 -106t-115.5 -67.5t-142 -22.5h-362l187 1082h111l-170 -978l240 -1q70 1 125.5 30t90.5 82t43 123q6 61 -11.5 106t-58 72.5t-101.5 30.5h-291z" />
    <glyph glyph-name="uni045A" unicode="&#x45a;" horiz-adv-x="1476" 
d="M756 654l-18 -104h-514l19 104h513zM346 1082l-189 -1082h-110l188 1082h111zM801 651l277 -2q90 -3 154 -43.5t96.5 -110t26.5 -160.5q-6 -77 -36.5 -139t-80 -106t-115.5 -67.5t-142 -22.5h-365l188 1082h111l-170 -978l239 -1q72 1 127 30t90 82t42 123
q6 60 -11 105.5t-56.5 73t-100.5 30.5h-293z" />
    <glyph glyph-name="uni045B" unicode="&#x45b;" horiz-adv-x="982" 
d="M416 1536l-266 -1536h-111l267 1536h110zM231 608l-39 25q13 79 44 162t80.5 154t121 113.5t165.5 40.5q82 -2 131.5 -39t72 -95.5t26.5 -127.5t-4 -136l-117 -705h-110l118 708q6 62 1 129t-38.5 113t-114.5 49q-73 1 -130.5 -36t-99 -97.5t-68 -128.5t-39.5 -129z
M642 1350l-20 -104h-504l19 104h505z" />
    </font>
</defs>
</svg>
