<?xml version="1.0" standalone="no"?>
<!DOCTYPE svg PUBLIC "-//W3C//DTD SVG 1.1//EN" "http://www.w3.org/Graphics/SVG/1.1/DTD/svg11.dtd" >
<svg xmlns="http://www.w3.org/2000/svg" xmlns:xlink="http://www.w3.org/1999/xlink" version="1.1">
<metadata>
Created by FontForge 20170731 at Wed Aug 19 17:25:10 2020
 By Aleksey,,,
Copyright 2011 Google Inc. All Rights Reserved.
</metadata>
<defs>
<font id="RobotoCondensed-Light" horiz-adv-x="1124" >
  <font-face 
    font-family="Roboto Condensed Light"
    font-weight="300"
    font-stretch="normal"
    units-per-em="2048"
    panose-1="2 0 0 0 0 0 0 0 0 0"
    ascent="1536"
    descent="-512"
    x-height="1082"
    cap-height="1456"
    bbox="-1505 -555 2028 2163"
    underline-thickness="100"
    underline-position="-300"
    unicode-range="U+0002-FFFD"
  />
<missing-glyph horiz-adv-x="803" 
d="M673 1456v-54h-546v54h546zM149 1456v-1456h-45v1456h45zM699 1456v-1456h-46v1456h46zM673 54v-54h-546v54h546zM673 1426l-498 -1396h-49l498 1396h49zM624 30l-498 1396h49l498 -1396h-49z" />
    <glyph glyph-name="uniFB01" unicode="fi" horiz-adv-x="970" 
d="M320 0h-112v1196q0 116 37 197t106 122.5t164 41.5q58 0 116 -15t117 -44l-18 -105q-43 23 -93 38t-114 15q-102 0 -152.5 -64t-50.5 -186v-1196zM527 1082v-100h-469v100h469zM807 1082v-1082h-111v1082h111z" />
    <glyph glyph-name="uniFB02" unicode="fl" horiz-adv-x="984" 
d="M334 0h-112v1216q0 110 33.5 186t96.5 115.5t151 39.5q39 0 92 -9t112 -22.5t115 -29.5l-56 -87q-74 17 -138 29t-117 12q-55 0 -95.5 -27.5t-61 -80t-20.5 -126.5v-1216zM710 0v1496h112v-1496h-112zM546 1082v-100h-472v100h472z" />
    <glyph glyph-name="uniFB03" unicode="ffi" horiz-adv-x="1473" 
d="M334 0h-112v1216q0 109 33 185.5t94.5 116t146.5 39.5q26 0 54 -4t53 -13l-7 -102q-20 6 -42 9t-49 3q-53 0 -91.5 -27.5t-59 -80t-20.5 -126.5v-1216zM585 1082v-100h-511v100h511zM822 0h-112v1196q0 117 37 197.5t106.5 122t164.5 41.5q58 0 115.5 -15t117.5 -44
l-18 -105q-43 23 -92.5 38t-115.5 15q-101 0 -152 -64t-51 -186v-1196zM1029 1082v-100h-468v100h468zM1310 1082v-1082h-111v1082h111z" />
    <glyph glyph-name="uniFB04" unicode="ffl" horiz-adv-x="1473" 
d="M334 0h-112v1216q0 110 33 186t94.5 115.5t146.5 39.5q26 0 54 -4t53 -13l-7 -102q-20 6 -42 9t-49 3q-53 0 -91.5 -27.5t-59 -80t-20.5 -126.5v-1216zM588 1082v-100h-514v100h514zM822 0h-112v1216q0 110 33.5 186t97 115.5t151.5 39.5q38 0 91 -9t112 -22.5t115 -29.5
l-57 -87q-73 17 -137 29t-117 12q-57 0 -96.5 -27.5t-60 -80t-20.5 -126.5v-1216zM1199 0v1496h111v-1496h-111zM1034 1082v-100h-473v100h473z" />
    <glyph glyph-name=".notdef" horiz-adv-x="803" 
d="M673 1456v-54h-546v54h546zM149 1456v-1456h-45v1456h45zM699 1456v-1456h-46v1456h46zM673 54v-54h-546v54h546zM673 1426l-498 -1396h-49l498 1396h49zM624 30l-498 1396h49l498 -1396h-49z" />
    <glyph glyph-name="uni0000" horiz-adv-x="0" 
 />
    <glyph glyph-name="uni0000" horiz-adv-x="0" 
 />
    <glyph glyph-name="uni000D" unicode="&#xd;" horiz-adv-x="461" 
 />
    <glyph glyph-name="uni0002" horiz-adv-x="0" 
 />
    <glyph glyph-name="space" unicode=" " horiz-adv-x="461" 
 />
    <glyph glyph-name="exclam" unicode="!" horiz-adv-x="440" 
d="M277 1456l-7 -1050h-103l-7 1050h117zM151 72q0 34 19 58t53 24q36 0 55.5 -24t19.5 -58t-19.5 -57.5t-55.5 -23.5q-34 0 -53 23t-19 58z" />
    <glyph glyph-name="quotedbl" unicode="&#x22;" horiz-adv-x="589" 
d="M245 1536v-138l-21 -316h-81l3 308v146h99zM480 1536v-138l-20 -316h-81l3 313v141h98z" />
    <glyph glyph-name="numbersign" unicode="#" horiz-adv-x="1052" 
d="M245 0l231 1456h90l-232 -1456h-89zM590 0l232 1456h91l-232 -1456h-91zM1034 943h-872v97h872v-97zM971 410h-873v97h873v-97z" />
    <glyph glyph-name="dollar" unicode="$" horiz-adv-x="996" 
d="M564 1679v-267h-93v267h93zM559 40v-248h-93v248h93zM770 360q0 74 -25 128t-83.5 98.5t-158.5 86.5q-106 41 -183 92.5t-118.5 130.5t-41.5 198q0 117 44 203t124 133t187 47q83 0 149.5 -29.5t112.5 -87t70.5 -141t24.5 -192.5h-110q0 74 -16 136t-47.5 108t-77 72
t-105.5 26q-83 0 -138 -37t-80.5 -99t-25.5 -137q0 -73 22 -127t81 -98.5t166 -88.5q106 -40 181.5 -92t117 -130.5t41.5 -197.5q0 -121 -46.5 -206t-130.5 -131t-197 -46q-72 0 -141 22.5t-126 73.5t-90.5 136t-33.5 209h111q0 -97 25 -161t66 -102t90 -53.5t99 -15.5
q83 0 142 36t90 98.5t31 137.5z" />
    <glyph glyph-name="percent" unicode="%" horiz-adv-x="1309" 
d="M111 1099v77q0 83 29.5 151t83.5 109t128 41q75 0 129 -41t83.5 -109t29.5 -151v-77q0 -81 -29.5 -149t-83 -109t-127.5 -41t-128.5 41t-84.5 109t-30 149zM199 1176v-77q0 -53 17 -101t51.5 -78.5t86.5 -30.5t85 30t50 78.5t17 101.5v76q0 55 -16.5 104t-50.5 79.5
t-87 30.5q-50 0 -84.5 -30.5t-51.5 -79.5t-17 -103zM722 279v78q0 82 29.5 150t84 109t128.5 41q75 0 129 -41t83.5 -109t29.5 -150v-78q0 -82 -29.5 -150t-83.5 -109t-127 -41q-74 0 -129.5 41t-85 109t-29.5 150zM811 357v-78q0 -53 16.5 -101.5t51 -79t87.5 -30.5
q52 0 85.5 30t50 78.5t16.5 102.5v78q0 57 -17 105t-51 77.5t-86 29.5q-51 0 -85.5 -29.5t-51 -77.5t-16.5 -105zM984 1259l-597 -1138l-67 50l597 1138z" />
    <glyph glyph-name="ampersand" unicode="&#x26;" horiz-adv-x="1101" 
d="M351 786l194 175q53 47 87 101t34 128q0 71 -42.5 127t-120.5 56q-57 0 -95.5 -31t-58.5 -82t-20 -112q0 -48 16.5 -99.5t48 -107t74.5 -116.5l592 -825h-133l-501 700q-62 86 -109.5 159t-73.5 142t-26 143q0 103 35 177.5t100 115t151 40.5q84 0 144 -39.5t92 -104.5
t32 -144q0 -65 -23.5 -120.5t-61 -101.5t-80.5 -83l-227 -205q-70 -69 -103 -126t-43.5 -102.5t-10.5 -77.5q0 -77 29 -142.5t89.5 -105.5t152.5 -40q77 0 149.5 40.5t129.5 116t90.5 180t33.5 232.5h102q0 -95 -15.5 -178.5t-46.5 -154.5t-76 -130q-7 -9 -9.5 -15
t-10.5 -15q-66 -84 -157.5 -132.5t-189.5 -48.5q-119 0 -204.5 49t-132 137.5t-46.5 205.5q0 88 31.5 159t86 133t123.5 122z" />
    <glyph glyph-name="quotesingle" unicode="'" horiz-adv-x="350" 
d="M227 1536v-138l-17 -309h-90l5 299v148h102z" />
    <glyph glyph-name="parenleft" unicode="(" horiz-adv-x="597" 
d="M137 574v15q0 197 35.5 366.5t93.5 305.5t125.5 231.5t131.5 141.5l26 -84q-54 -46 -107.5 -135.5t-97.5 -213.5t-69.5 -278.5t-25.5 -330.5v-20q0 -176 26 -329.5t69.5 -279t97 -216t107.5 -139.5l-26 -78q-64 46 -131.5 139.5t-125.5 228t-93.5 305t-35.5 371.5z" />
    <glyph glyph-name="parenright" unicode=")" horiz-adv-x="608" 
d="M460 590v-15q0 -202 -35.5 -372.5t-93 -305t-125 -228t-130.5 -139.5l-27 78q55 47 108 137.5t97 215.5t70 280t26 330v21q0 176 -27 331t-71.5 280t-97.5 215t-105 137l27 79q64 -46 131 -141t125 -231.5t93 -306.5t35 -365z" />
    <glyph glyph-name="asterisk" unicode="*" horiz-adv-x="869" 
d="M144 702l218 298l-333 107l33 104l331 -122l-4 367h105l-9 -371l325 127l34 -105l-335 -113l225 -293l-87 -65l-214 305l-204 -303z" />
    <glyph glyph-name="plus" unicode="+" horiz-adv-x="1012" 
d="M922 742v-115h-838v115h838zM556 1206v-1060h-112v1060h112z" />
    <glyph glyph-name="comma" unicode="," horiz-adv-x="394" 
d="M272 191v-141q0 -91 -37.5 -177.5t-102.5 -145.5l-71 53q31 42 51.5 83.5t31 86.5t10.5 98v143h118z" />
    <glyph glyph-name="hyphen" unicode="-" horiz-adv-x="529" 
d="M463 694v-104h-403v104h403z" />
    <glyph glyph-name="period" unicode="." horiz-adv-x="490" 
d="M146 74q0 35 22 60t62 25t63 -24.5t23 -60.5q0 -34 -23 -58.5t-63 -24.5t-62 24.5t-22 58.5z" />
    <glyph glyph-name="slash" unicode="/" horiz-adv-x="728" 
d="M653 1456l-510 -1581h-99l510 1581h99z" />
    <glyph glyph-name="zero" unicode="0" horiz-adv-x="996" 
d="M876 853v-244q0 -162 -25.5 -280.5t-74 -195.5t-118.5 -115t-159 -38q-70 0 -129 24t-105.5 73.5t-79 124.5t-49 175.5t-16.5 231.5v244q0 160 26 278t75.5 195t119 114t157.5 37q71 0 130 -24t105 -72.5t78 -122.5t48.5 -175.5t16.5 -229.5zM765 594v275
q0 99 -10.5 179.5t-31.5 141t-54 101.5t-75.5 61.5t-96.5 20.5q-66 0 -115.5 -32t-83 -95.5t-50.5 -158t-17 -219.5v-274q0 -98 11 -178.5t32.5 -142t54 -104t75 -63.5t95.5 -21q67 0 117 33.5t83 98.5t49.5 159.5t16.5 217.5z" />
    <glyph glyph-name="one" unicode="1" horiz-adv-x="996" 
d="M609 1463v-1463h-111v1309l-329 -147v115l421 186h19z" />
    <glyph glyph-name="two" unicode="2" horiz-adv-x="996" 
d="M906 105v-105h-773v94l400 542q75 100 119 176.5t63 139t19 123.5q0 87 -28.5 154t-83.5 105t-135 38q-85 0 -144.5 -43.5t-92 -119.5t-32.5 -173h-111q0 121 45 220.5t130 159.5t205 60q111 0 191 -46.5t124 -133.5t44 -210q0 -65 -19.5 -132t-53 -133.5t-77 -131
t-89.5 -127.5l-339 -457h638z" />
    <glyph glyph-name="three" unicode="3" horiz-adv-x="996" 
d="M357 796h104q91 0 153 37.5t93 101.5t31 141q0 87 -27 153.5t-82 104.5t-139 38q-75 0 -133.5 -36t-92.5 -103t-34 -159h-111q0 118 48 208.5t132 142t190 51.5q109 0 189.5 -47t125.5 -137t45 -219q0 -65 -23.5 -129t-70 -115.5t-117 -83.5t-163.5 -32h-118v83zM357 690
v82h117q107 0 183 -29t123 -81t69 -120t22 -147q0 -98 -28.5 -175.5t-79.5 -131t-120 -81t-150 -27.5q-76 0 -145.5 26t-125 78t-88 130t-32.5 181h112q0 -92 35 -161.5t98 -109t145 -39.5q85 0 145 35t92 104t32 168q0 105 -38 170.5t-105.5 96.5t-156.5 31h-104z" />
    <glyph glyph-name="four" unicode="4" horiz-adv-x="996" 
d="M944 471v-104h-870v71l563 1018h92l-123 -249l-397 -736h735zM757 1456v-1456h-111v1456h111z" />
    <glyph glyph-name="five" unicode="5" horiz-adv-x="996" 
d="M291 719l-89 27l60 710h615v-113h-520l-41 -488q31 28 90 53.5t134 25.5q82 0 149 -32.5t115 -93.5t73.5 -148t25.5 -196q0 -105 -22 -193t-67 -153.5t-115 -101.5t-165 -36q-73 0 -137.5 24.5t-115.5 75t-82.5 126.5t-39.5 177h106q10 -97 44 -163.5t90.5 -100.5
t133.5 -34q63 0 111.5 24.5t81.5 73.5t49.5 119t16.5 160q0 77 -18 142.5t-53 114.5t-86 76.5t-116 27.5q-86 0 -135.5 -28t-92.5 -76z" />
    <glyph glyph-name="six" unicode="6" horiz-adv-x="996" 
d="M715 1467h14v-107h-14q-118 0 -206.5 -45t-147.5 -129.5t-89 -203.5t-30 -266v-202q0 -101 21.5 -180t61.5 -135.5t91 -85t109 -28.5q60 0 107.5 30t80.5 83t50.5 124t17.5 151q0 77 -16 145t-48 120.5t-81 82.5t-115 30q-73 0 -139 -42t-106.5 -111.5t-44.5 -152.5
l-62 2q8 96 39 171t80.5 128t113 81.5t137.5 28.5q89 0 155 -38t109.5 -105t65.5 -153t22 -183q0 -104 -24.5 -194.5t-72 -158.5t-115.5 -106t-154 -38q-93 0 -166.5 42t-124.5 116.5t-77.5 171.5t-26.5 206v127q0 185 34 336.5t105 260.5t181.5 168t264.5 59z" />
    <glyph glyph-name="seven" unicode="7" horiz-adv-x="996" 
d="M893 1456v-70l-518 -1386h-117l516 1352h-689v104h808z" />
    <glyph glyph-name="eight" unicode="8" horiz-adv-x="996" 
d="M889 387q0 -132 -52 -223t-140 -137.5t-197 -46.5q-110 0 -198 46.5t-139.5 137t-51.5 223.5q0 86 29 158t81 124t122.5 81.5t154.5 29.5q111 0 199.5 -51t140 -139t51.5 -203zM777 386q0 93 -36.5 162.5t-99.5 108t-143 38.5q-81 0 -143.5 -38.5t-97.5 -108t-35 -162.5
q0 -95 35.5 -162.5t98 -103t145.5 -35.5q81 0 143 35.5t97.5 102.5t35.5 163zM858 1081q0 -107 -48 -190t-129 -130.5t-183 -47.5t-183 47.5t-127.5 130.5t-46.5 190q0 127 46.5 215t127.5 134t183 46q103 0 184.5 -46t128.5 -134t47 -215zM747 1082q0 85 -32.5 150
t-89 102.5t-127.5 37.5t-126.5 -35t-87 -100t-31.5 -155q0 -86 31 -149.5t87 -98t128 -34.5q71 0 127.5 34.5t88.5 98t32 149.5z" />
    <glyph glyph-name="nine" unicode="9" horiz-adv-x="996" 
d="M275 97h20q133 0 222 45.5t141 128.5t74.5 193t22.5 239v204q0 114 -20.5 201t-57.5 145.5t-88 88t-111 29.5q-62 0 -111 -32t-83 -88t-52 -128t-18 -152q0 -73 16.5 -143t49 -125t80.5 -87.5t111 -32.5q67 0 122 32.5t94.5 85.5t61 114t23.5 120l55 1q0 -91 -28 -174
t-78.5 -146.5t-118 -100t-146.5 -36.5q-87 0 -152.5 40.5t-110 109t-66.5 156t-22 181.5q0 106 25 198t72.5 162t116.5 110t157 40q100 0 173.5 -43t121.5 -121t71.5 -184t23.5 -233v-114q0 -129 -16 -247t-54.5 -217.5t-103.5 -173t-163 -113.5t-234 -40h-21z" />
    <glyph glyph-name="colon" unicode=":" horiz-adv-x="413" 
d="M132 74q0 35 22 60t62 25t63 -24.5t23 -60.5q0 -34 -23 -58.5t-63 -24.5t-62 24.5t-22 58.5zM134 996q0 35 22 60t62 25t63 -24.5t23 -60.5q0 -34 -23 -58.5t-63 -24.5t-62 24.5t-22 58.5z" />
    <glyph glyph-name="semicolon" unicode=";" horiz-adv-x="381" 
d="M122 996q0 35 22 60t62 25t63 -24.5t23 -60.5q0 -34 -23 -58.5t-63 -24.5t-62 24.5t-22 58.5zM275 191v-141q0 -91 -37.5 -177.5t-102.5 -145.5l-71 53q31 42 51.5 83.5t31 86.5t10.5 98v143h118z" />
    <glyph glyph-name="less" unicode="&#x3c;" horiz-adv-x="919" 
d="M159 677l619 -320v-129l-694 379v81zM778 956l-618 -323l-76 -7v81l694 378v-129z" />
    <glyph glyph-name="equal" unicode="=" horiz-adv-x="990" 
d="M847 937v-109h-700v109h700zM847 526v-109h-700v109h700z" />
    <glyph glyph-name="greater" unicode="&#x3e;" horiz-adv-x="934" 
d="M754 641l-627 319v127l710 -378v-81zM127 358l628 322l82 11v-82l-710 -379v128z" />
    <glyph glyph-name="question" unicode="?" horiz-adv-x="827" 
d="M445 405h-112q0 86 14 144.5t44 109t82 110.5q44 54 78 99t54 99.5t20 133.5q0 80 -23.5 140t-69 93.5t-113.5 33.5q-62 0 -111 -30.5t-78 -86.5t-30 -135h-111q2 114 46 194.5t118 123t166 42.5q102 0 172.5 -47t107.5 -131.5t37 -194.5q0 -89 -26.5 -161t-71.5 -135
t-103 -127q-51 -54 -70.5 -124.5t-19.5 -150.5zM321 72q0 34 19.5 58t53.5 24q35 0 55 -24t20 -57q0 -35 -20 -58.5t-55 -23.5q-34 0 -53.5 23t-19.5 58z" />
    <glyph glyph-name="at" unicode="@" horiz-adv-x="1606" 
d="M1489 513q-4 -94 -23.5 -188.5t-59 -172.5t-101 -125t-147.5 -47q-54 0 -95.5 23t-68 66.5t-38 105t-5.5 137.5l42 570h93l-43 -570q-6 -80 5.5 -128.5t32 -73.5t45 -33.5t44.5 -8.5q54 0 96.5 34t72 94.5t46.5 142t20 174.5q6 150 -12 277t-60 226.5t-110 168.5
t-163.5 105t-218.5 36q-108 0 -201 -39t-169 -112t-131.5 -177t-88 -235t-38.5 -285q-6 -149 14.5 -278t66.5 -232.5t115.5 -177t162 -113t206.5 -39.5q74 0 149.5 21.5t127.5 57.5l27 -81q-56 -43 -144 -66t-164 -23q-128 0 -233.5 41.5t-186 121t-134.5 193t-79 258.5
t-20 317q6 168 42.5 312.5t99.5 261t150 199t196 127t236 44.5q133 0 239 -41t185 -118.5t129.5 -189t73.5 -252.5t17 -308zM590 427q-7 -77 -1 -140.5t24 -110t48.5 -71t71.5 -24.5q32 0 64.5 13.5t64 48.5t58.5 93.5t46 148.5l44 -61q-20 -85 -50.5 -149t-69.5 -107.5
t-84.5 -65.5t-94.5 -22q-60 0 -105 32t-73 91t-38.5 141t-2.5 183q8 103 30.5 190t57 156t78.5 117t94 73.5t104 25.5q86 0 135.5 -32.5t94.5 -74.5l-60 -68q-26 34 -67 58t-96 24q-49 0 -94.5 -28.5t-82 -87t-62 -146.5t-34.5 -207z" />
    <glyph glyph-name="A" unicode="A" 
d="M584 1368l-420 -1368h-118l463 1456h81zM960 0l-420 1368l-5 88h80l464 -1456h-119zM895 515v-108h-657v108h657z" />
    <glyph glyph-name="B" unicode="B" horiz-adv-x="1098" 
d="M597 700h-338l-1 106h293q86 0 148 31t94.5 91.5t32.5 149.5q0 91 -31.5 151.5t-95 90t-158.5 29.5h-253v-1349h-115v1456h367q94 0 168 -22.5t126 -69t79.5 -118.5t27.5 -171q0 -90 -35 -162t-97.5 -118t-148.5 -57zM589 0h-369l61 107h308q88 0 150 36.5t95.5 104.5
t33.5 162q0 81 -29 147t-89.5 104.5t-152.5 38.5h-218l2 106h305l22 -38q84 -11 145.5 -61t95.5 -127t34 -169q0 -133 -49.5 -224.5t-138.5 -139t-206 -47.5z" />
    <glyph glyph-name="C" unicode="C" horiz-adv-x="1158" 
d="M930 455h115q-10 -163 -65 -268.5t-152.5 -156.5t-235.5 -51q-105 0 -189 41t-143.5 119t-91 188.5t-31.5 249.5v312q0 137 31.5 245.5t92 185t146 116.5t194.5 40q132 0 227.5 -50t151 -155t65.5 -271h-115q-9 134 -48 215t-108.5 117.5t-172.5 36.5q-85 0 -149.5 -32.5
t-109 -94t-67.5 -150t-23 -201.5v-314q0 -111 22 -201.5t64.5 -155.5t106 -99.5t147.5 -34.5q108 0 179 34t110 114.5t49 220.5z" />
    <glyph glyph-name="D" unicode="D" horiz-adv-x="1167" 
d="M507 0h-273l1 107h272q131 0 223 55t140.5 161t48.5 259v295q0 116 -27.5 204.5t-80 148t-127.5 89.5t-169 30h-287v107h287q116 0 210.5 -38t163.5 -112t106 -182.5t37 -248.5v-293q0 -141 -37 -249.5t-106 -182.5t-165.5 -112t-216.5 -38zM288 1456v-1456h-115v1456
h115z" />
    <glyph glyph-name="E" unicode="E" horiz-adv-x="1019" 
d="M936 107v-107h-680v107h680zM288 1456v-1456h-115v1456h115zM851 805v-108h-595v108h595zM931 1456v-107h-675v107h675z" />
    <glyph glyph-name="F" unicode="F" horiz-adv-x="1005" 
d="M288 1456v-1456h-115v1456h115zM846 788v-109h-593v109h593zM930 1456v-107h-677v107h677z" />
    <glyph glyph-name="G" unicode="G" horiz-adv-x="1216" 
d="M1059 694v-524q-21 -29 -72 -74t-137.5 -81t-216.5 -36q-109 0 -198 38t-153.5 112.5t-99.5 184t-35 252.5v335q0 142 31.5 249t91.5 179.5t147.5 109.5t198.5 37q137 0 232 -50.5t148.5 -146.5t62.5 -233h-115q-10 101 -46 173t-105 111t-176 39q-89 0 -155.5 -30
t-110.5 -89t-66 -146t-22 -201v-337q0 -118 25 -207t73.5 -150t117 -92t154.5 -31q92 0 155 23.5t101.5 52.5t55.5 46v379h-320v107h434z" />
    <glyph glyph-name="H" unicode="H" horiz-adv-x="1259" 
d="M990 805v-108h-727v108h727zM288 1456v-1456h-115v1456h115zM1085 1456v-1456h-115v1456h115z" />
    <glyph glyph-name="I" unicode="I" horiz-adv-x="500" 
d="M309 1456v-1456h-116v1456h116z" />
    <glyph glyph-name="J" unicode="J" horiz-adv-x="988" 
d="M708 434v1022h114v-1022q0 -147 -48.5 -248t-132.5 -153.5t-191 -52.5q-111 0 -195.5 46t-131 140t-46.5 236h116q0 -104 31 -174.5t88.5 -105.5t137.5 -35q72 0 130.5 39t93 116.5t34.5 191.5z" />
    <glyph glyph-name="K" unicode="K" 
d="M288 1456v-1456h-115v1456h115zM1040 1456l-523 -667l-270 -313l-13 141l213 264l451 575h142zM941 0l-503 746l69 103l573 -849h-139z" />
    <glyph glyph-name="L" unicode="L" horiz-adv-x="951" 
d="M887 107v-107h-630v107h630zM289 1456v-1456h-116v1456h116z" />
    <glyph glyph-name="M" unicode="M" horiz-adv-x="1531" 
d="M208 1456h115l441 -1280l443 1280h114l-512 -1456h-88zM173 1456h101l14 -822v-634h-115v1456zM1257 1456h101v-1456h-114v634z" />
    <glyph glyph-name="N" unicode="N" horiz-adv-x="1263" 
d="M1089 1456v-1456h-115l-685 1241v-1241h-116v1456h116l686 -1241v1241h114z" />
    <glyph glyph-name="O" unicode="O" horiz-adv-x="1208" 
d="M1075 885v-315q0 -143 -32.5 -253.5t-94 -185.5t-148 -113.5t-195.5 -38.5q-107 0 -194 38.5t-149 113.5t-95.5 185.5t-33.5 253.5v315q0 144 33 255t94.5 185t148.5 112.5t194 38.5q110 0 197 -38.5t148.5 -112.5t94 -185t32.5 -255zM961 570v317q0 119 -23.5 209
t-68.5 150t-112 90t-154 30q-84 0 -150.5 -30t-112 -90.5t-69.5 -150t-24 -208.5v-317q0 -120 24.5 -209.5t70.5 -150t112.5 -90.5t150.5 -30q87 0 153.5 30t111.5 90.5t68 150t23 209.5z" />
    <glyph glyph-name="P" unicode="P" horiz-adv-x="1104" 
d="M596 592h-345v108h345q107 0 173 42.5t96.5 115t30.5 162.5q0 88 -30.5 163t-96.5 120.5t-173 45.5h-308v-1349h-115v1456h423q135 0 227.5 -55t140 -153t47.5 -227q0 -134 -47.5 -230.5t-140 -147.5t-227.5 -51z" />
    <glyph glyph-name="Q" unicode="Q" horiz-adv-x="1208" 
d="M782 115l286 -291l-79 -78l-283 286zM1071 885v-314q0 -144 -32.5 -254.5t-94 -185.5t-148 -113.5t-196.5 -38.5q-107 0 -194 38.5t-149 113.5t-95.5 185.5t-33.5 254.5v314q0 144 33 255t95 185.5t149 112.5t194 38q110 0 197 -38t148.5 -112.5t94 -185.5t32.5 -255z
M957 571v316q0 119 -23.5 209t-68.5 150t-112 90t-154 30q-84 0 -150 -30t-112 -90.5t-70 -150t-24 -208.5v-316q0 -120 24.5 -210t71 -150.5t112 -90.5t149.5 -30q87 0 154 30t112 90.5t68 150.5t23 210z" />
    <glyph glyph-name="R" unicode="R" horiz-adv-x="1126" 
d="M171 1456h399q129 0 222.5 -49.5t144 -145t50.5 -234.5q0 -103 -36 -187t-99.5 -140t-148.5 -77l-38 -17h-416l-2 107h342q95 0 158 44.5t94.5 116t31.5 153.5q0 99 -34.5 171t-102 111.5t-166.5 39.5h-284v-1349h-115v1456zM918 0l-313 652l122 1l313 -640v-13h-122z
" />
    <glyph glyph-name="S" unicode="S" horiz-adv-x="1059" 
d="M857 360q0 59 -16 105.5t-53 83.5t-100.5 69.5t-156.5 64.5q-92 31 -165.5 68t-126 85t-80 112t-27.5 150q0 85 30.5 154.5t85.5 119.5t130 77t166 27q130 0 224.5 -58.5t145.5 -157t51 -219.5h-114q0 95 -35.5 169t-104 116.5t-166.5 42.5t-164.5 -36.5t-99.5 -97
t-33 -133.5q0 -52 16 -96t53.5 -81t99.5 -69.5t150 -60.5q99 -32 174.5 -70.5t127 -90t78 -118.5t26.5 -154q0 -90 -31 -160.5t-88 -120t-134 -75.5t-170 -26q-81 0 -162.5 25t-148 78t-106.5 136t-40 198h115q0 -91 30.5 -154.5t79.5 -102t110 -56t123 -17.5q94 0 162.5 34
t106 95.5t37.5 143.5z" />
    <glyph glyph-name="T" unicode="T" horiz-adv-x="1067" 
d="M591 1456v-1456h-114v1456h114zM1005 1456v-107h-941v107h941z" />
    <glyph glyph-name="U" unicode="U" horiz-adv-x="1168" 
d="M904 1456h114v-1026q0 -164 -58.5 -262.5t-157 -143.5t-217.5 -45q-122 0 -220 44.5t-155 143.5t-57 263v1026h114v-1026q0 -127 41 -202.5t113 -108.5t164 -33q94 0 165.5 33.5t112.5 108.5t41 202v1026z" />
    <glyph glyph-name="V" unicode="V" horiz-adv-x="1108" 
d="M558 182l380 1274h125l-455 -1456h-92zM172 1456l378 -1274l42 -182h-91l-454 1456h125z" />
    <glyph glyph-name="W" unicode="W" horiz-adv-x="1579" 
d="M485 387l261 1069h90l-67 -320l-279 -1136h-87zM188 1456l218 -1059l65 -397h-90l-309 1456h116zM1185 398l215 1058h116l-309 -1456h-90zM847 1456l257 -1069l81 -387h-87l-272 1136l-68 320h89z" />
    <glyph glyph-name="X" unicode="X" horiz-adv-x="1098" 
d="M215 1456l335 -613l334 613h136l-401 -717l413 -739h-136l-346 633l-347 -633h-136l414 739l-401 717h135z" />
    <glyph glyph-name="Y" unicode="Y" horiz-adv-x="1071" 
d="M173 1456l361 -790l363 790h132l-438 -908v-548h-114v548l-438 908h134z" />
    <glyph glyph-name="Z" unicode="Z" horiz-adv-x="1070" 
d="M977 107v-107h-839v107h839zM950 1366l-783 -1366h-72v96l782 1360h73v-90zM901 1456v-107h-786v107h786z" />
    <glyph glyph-name="bracketleft" unicode="[" horiz-adv-x="462" 
d="M439 1664v-104h-173v-1767h173v-105h-284v1976h284z" />
    <glyph glyph-name="backslash" unicode="\" horiz-adv-x="723" 
d="M571 -125l-511 1581h108l510 -1581h-107z" />
    <glyph glyph-name="bracketright" unicode="]" horiz-adv-x="462" 
d="M22 1560v104h286v-1976h-286v105h174v1767h-174z" />
    <glyph glyph-name="asciicircum" unicode="^" horiz-adv-x="757" 
d="M386 1328l-196 -599h-107l252 727h71zM560 729l-196 599l-21 128h74l249 -727h-106z" />
    <glyph glyph-name="underscore" unicode="_" horiz-adv-x="789" 
d="M768 0v-104h-745v104h745z" />
    <glyph glyph-name="grave" unicode="`" horiz-adv-x="586" 
d="M249 1536l191 -280h-110l-227 280h146z" />
    <glyph glyph-name="a" unicode="a" horiz-adv-x="965" 
d="M699 194v589q0 76 -26 123.5t-76 69.5t-123 22q-69 0 -122.5 -27.5t-83 -76t-29.5 -111.5l-111 1q0 62 25 119.5t71 102t110.5 70.5t143.5 26q97 0 172 -31t117.5 -102t42.5 -188v-553q0 -57 7.5 -117t20.5 -98v-13h-118q-11 35 -16 89.5t-5 104.5zM722 632l3 -95h-192
q-78 0 -137 -17t-98.5 -49t-59.5 -76t-20 -100q0 -72 23 -117.5t67.5 -67t106.5 -21.5q82 0 144.5 32.5t102.5 87t52 115.5l30 -68q-10 -46 -37 -94t-70 -89.5t-102 -67.5t-133 -26q-89 0 -155.5 34t-103 103t-36.5 170q0 75 25.5 138t76.5 109.5t128 72.5t179 26h206z" />
    <glyph glyph-name="b" unicode="b" horiz-adv-x="996" 
d="M148 1536h112v-1326l-8 -210h-104v1536zM888 591v-101q0 -131 -23 -227t-68 -159t-109.5 -94t-147.5 -31q-81 0 -142 29t-103.5 81t-68 124t-35.5 158v323q12 92 38 167t69 129t102 83t138 29q84 0 149 -29t110 -90t68 -158.5t23 -233.5zM776 490v101q0 103 -14.5 179.5
t-46 126.5t-81 74.5t-119.5 24.5q-69 0 -118.5 -25.5t-82 -67.5t-51.5 -91.5t-28 -96.5v-371q14 -66 48 -125.5t92 -96t142 -36.5q68 0 116.5 24.5t80.5 74.5t47 125.5t15 179.5z" />
    <glyph glyph-name="c" unicode="c" horiz-adv-x="929" 
d="M490 84q62 0 116.5 23t89.5 78t40 151h106q-4 -116 -53 -195.5t-127 -120.5t-172 -41q-97 0 -170 32t-122 95.5t-74 157t-25 216.5v123q0 122 25 215.5t74 156.5t122 95t170 32q99 0 177 -41.5t124.5 -126.5t50.5 -217h-106q-4 101 -37.5 162.5t-87.5 90t-121 28.5
q-77 0 -130.5 -26.5t-86.5 -77.5t-48 -124t-15 -167v-123q0 -95 15 -169t48.5 -124.5t87 -76.5t129.5 -26z" />
    <glyph glyph-name="d" unicode="d" horiz-adv-x="999" 
d="M737 210v1326h111v-1536h-104zM109 490v101q0 136 24.5 233.5t70.5 158.5t111.5 90t146.5 29q79 0 138.5 -29.5t101.5 -83.5t68 -128.5t38 -166.5v-323q-10 -86 -35.5 -158t-68 -124t-103.5 -81t-142 -29q-80 0 -144.5 31t-110.5 94t-70.5 159t-24.5 227zM221 591v-101
q0 -104 15.5 -180t48 -125.5t81.5 -74t116 -24.5q85 0 142 35.5t91.5 94t50.5 128.5v370q-10 48 -29.5 97.5t-51.5 91.5t-81.5 67.5t-119.5 25.5q-68 0 -118 -24.5t-82 -74.5t-47.5 -125.5t-15.5 -180.5z" />
    <glyph glyph-name="e" unicode="e" horiz-adv-x="938" 
d="M506 -21q-90 0 -165.5 29.5t-130 90t-84.5 153t-30 218.5v125q0 134 32 230.5t86.5 158t124.5 90t148 28.5q89 0 156.5 -29t113.5 -88t69 -148.5t23 -211.5v-93h-686v104h575v28q-2 106 -29.5 180.5t-82 114t-138.5 39.5q-62 0 -114 -22.5t-89.5 -70.5t-57 -125
t-19.5 -185v-125q0 -99 21.5 -171.5t61.5 -120t96 -71t124 -23.5q84 0 147 28.5t112 86.5l59 -74q-30 -39 -74 -72.5t-105 -53.5t-144 -20z" />
    <glyph glyph-name="f" unicode="f" horiz-adv-x="615" 
d="M334 0h-112v1216q0 109 33 185.5t94.5 116t146.5 39.5q26 0 54 -4t53 -13l-7 -102q-20 6 -42 9t-49 3q-53 0 -91.5 -27.5t-59 -80t-20.5 -126.5v-1216zM546 1082v-100h-472v100h472z" />
    <glyph glyph-name="g" unicode="g" horiz-adv-x="997" 
d="M745 1082h103v-1109q0 -140 -44.5 -229t-125.5 -131.5t-192 -42.5q-53 0 -113 17t-114 50.5t-91 80.5l52 80q56 -63 121.5 -94t136.5 -31q83 0 141 29t88 94.5t30 172.5v875zM109 490v101q0 136 24 233.5t70 158.5t111.5 90t147.5 29q79 0 138.5 -29t101.5 -83t68 -129
t38 -167v-323q-10 -85 -35.5 -157.5t-68 -124.5t-103.5 -81t-141 -29q-81 0 -146 31t-111 94t-70 159t-24 227zM221 591v-101q0 -104 15.5 -180t47.5 -125.5t81.5 -74t117.5 -24.5q85 0 141.5 35.5t90 94t50.5 127.5v371q-10 48 -29 97t-51.5 91.5t-81.5 68t-119 25.5
q-68 0 -117.5 -24.5t-82 -74.5t-48 -125.5t-15.5 -180.5z" />
    <glyph glyph-name="h" unicode="h" horiz-adv-x="985" 
d="M260 1536v-1536h-111v1536h111zM235 608l-49 29q4 96 31.5 180t75.5 148.5t113 100.5t144 36q67 0 121 -22t91.5 -69t57.5 -123t20 -183v-705h-111v706q0 111 -25 174t-71.5 89.5t-111.5 26.5q-69 0 -121.5 -37t-89 -96t-55.5 -126.5t-20 -128.5z" />
    <glyph glyph-name="i" unicode="i" horiz-adv-x="433" 
d="M272 1082v-1082h-111v1082h111zM144 1393q0 36 19.5 59.5t54.5 23.5q34 0 53.5 -23.5t19.5 -59.5q0 -33 -19.5 -56t-53.5 -23q-35 0 -54.5 23t-19.5 56z" />
    <glyph glyph-name="j" unicode="j" horiz-adv-x="437" 
d="M156 1082h113v-1211q0 -99 -27.5 -168t-80.5 -104.5t-132 -35.5q-21 0 -45.5 5t-43.5 14l1 101q14 -4 35 -8.5t39 -4.5q46 0 77 22.5t47.5 67t16.5 111.5v1211zM139 1394q0 35 19.5 58.5t53.5 23.5q35 0 55 -23.5t20 -58.5q0 -34 -20 -57t-55 -23q-34 0 -53.5 23
t-19.5 57z" />
    <glyph glyph-name="k" unicode="k" horiz-adv-x="889" 
d="M260 1536v-1536h-111v1536h111zM827 1082l-419 -502l-188 -210l-14 121l148 188l334 403h139zM730 0l-368 561l59 106l441 -667h-132z" />
    <glyph glyph-name="l" unicode="l" horiz-adv-x="433" 
d="M272 1536v-1536h-111v1536h111z" />
    <glyph glyph-name="m" unicode="m" horiz-adv-x="1562" 
d="M256 860v-860h-112v1082h107zM235 608l-53 29q4 96 29.5 180t71 148.5t111.5 100.5t150 36q66 0 119.5 -21.5t92.5 -67t60 -118t21 -175.5v-720h-111v716q0 107 -27.5 168t-76 86.5t-113.5 25.5q-75 0 -127 -37t-83.5 -96t-46.5 -126.5t-17 -128.5zM836 702l-75 -4
q4 79 30 151.5t72 129t110.5 90t146.5 33.5q71 0 127 -22.5t94.5 -70.5t58.5 -123t20 -180v-706h-112v707q0 113 -27.5 176t-76 88.5t-112.5 24.5q-63 0 -110.5 -28t-79 -71.5t-48 -95t-18.5 -99.5z" />
    <glyph glyph-name="n" unicode="n" horiz-adv-x="987" 
d="M260 851v-851h-111v1082h106zM235 608l-49 29q4 96 31.5 180t75.5 148.5t113 100.5t144 36q67 0 121 -22t91.5 -69t57.5 -123t20 -183v-705h-111v706q0 111 -25 174t-71.5 89.5t-111.5 26.5q-69 0 -121.5 -37t-89 -96t-55.5 -126.5t-20 -128.5z" />
    <glyph glyph-name="o" unicode="o" horiz-adv-x="1005" 
d="M107 485v112q0 123 28.5 217t81 158.5t125.5 97t160 32.5q89 0 161.5 -32.5t125 -97t81.5 -158.5t29 -217v-112q0 -123 -29 -217.5t-81.5 -158.5t-125 -97t-160.5 -33t-160.5 33t-125.5 97.5t-81.5 158.5t-28.5 217zM219 597v-112q0 -93 18.5 -167t55.5 -126t89.5 -80
t120.5 -28q72 0 125.5 28t89 80t53 126t17.5 167v112q0 91 -19 165t-56.5 126.5t-90.5 81t-120 28.5q-66 0 -119 -28.5t-89.5 -81t-55.5 -126.5t-19 -165z" />
    <glyph glyph-name="p" unicode="p" horiz-adv-x="996" 
d="M259 874v-1290h-111v1498h103zM887 591v-101q0 -131 -23 -227t-68 -159t-109.5 -94t-146.5 -31q-81 0 -143 28t-105.5 79.5t-69.5 121t-36 153.5v333q11 92 38 167t70 129t103.5 83t139.5 29q84 0 149 -28.5t110 -90t68 -159t23 -233.5zM776 490v101q0 105 -16 180.5
t-48.5 125.5t-83 74.5t-118.5 24.5q-69 0 -118.5 -25.5t-82 -67.5t-52 -91.5t-28.5 -97.5v-379q17 -66 51 -124t91 -92.5t141 -34.5q68 0 117.5 24.5t82 75t48.5 126.5t16 180z" />
    <glyph glyph-name="q" unicode="q" horiz-adv-x="1003" 
d="M736 -416v1290l8 208h103v-1498h-111zM109 490v101q0 136 24 233.5t69.5 159t111 90t150.5 28.5q78 0 138.5 -29t103.5 -83t69.5 -129t38.5 -167v-323q-10 -85 -36 -157.5t-69 -124.5t-104.5 -81t-142.5 -29q-83 0 -148.5 31t-111 94t-69.5 159t-24 227zM221 591v-101
q0 -104 16.5 -180t48 -126.5t81.5 -75t117 -24.5q85 0 142.5 35.5t93 95.5t51.5 129v370q-9 47 -29 96.5t-53.5 92t-83.5 69t-119 26.5q-68 0 -117.5 -25t-82 -75t-49 -126t-16.5 -181z" />
    <glyph glyph-name="r" unicode="r" horiz-adv-x="620" 
d="M260 904v-904h-111v1082h108zM575 1089l-3 -111q-18 4 -34 5.5t-35 1.5q-63 0 -110 -28t-79.5 -78.5t-50 -117t-20.5 -143.5l-39 -17q0 105 18 196t55.5 160t95 107t135.5 38q18 0 37.5 -3.5t29.5 -9.5z" />
    <glyph glyph-name="s" unicode="s" horiz-adv-x="915" 
d="M691 266q0 45 -23.5 82t-77 73t-145.5 78q-73 33 -131 64t-97.5 66t-61 79.5t-21.5 105.5t23 113t65.5 91.5t102 61.5t133.5 22q106 0 181 -40.5t116 -111.5t41 -164h-112q0 56 -26.5 104t-76.5 78t-123 30q-75 0 -122.5 -26.5t-69 -67.5t-21.5 -86q0 -33 10.5 -58.5
t36 -49t72 -49t115.5 -60.5q100 -43 172 -85.5t111 -99t39 -142.5q0 -67 -24 -121.5t-68 -93t-106.5 -59t-138.5 -20.5q-116 0 -196.5 44t-122 116t-41.5 156h111q4 -85 42.5 -131t94.5 -63t112 -17q73 0 124 24t77 65.5t26 91.5z" />
    <glyph glyph-name="t" unicode="t" horiz-adv-x="595" 
d="M500 1082v-100h-462v100h462zM204 1359h112v-1095q0 -75 16 -113t42 -50.5t56 -12.5q23 0 43.5 3t36.5 8l4 -102q-19 -8 -48.5 -12.5t-62.5 -4.5q-56 0 -101 26.5t-71.5 88.5t-26.5 170v1094z" />
    <glyph glyph-name="u" unicode="u" horiz-adv-x="986" 
d="M727 250v832h111v-1082h-108zM747 452l54 2q0 -102 -20.5 -188.5t-63 -150.5t-110 -99.5t-163.5 -35.5q-67 0 -122.5 23t-94.5 71.5t-60.5 126t-21.5 188.5v693h111v-695q0 -85 16 -143.5t44.5 -92.5t64.5 -49t77 -15q109 0 171.5 51t90 134t27.5 180z" />
    <glyph glyph-name="v" unicode="v" horiz-adv-x="869" 
d="M419 117l283 965h114l-336 -1082h-81zM167 1082l287 -967l16 -115h-80l-338 1082h115z" />
    <glyph glyph-name="w" unicode="w" horiz-adv-x="1337" 
d="M397 251l222 831h77l-38 -222l-230 -860h-77zM183 1082l195 -836l35 -246h-79l-264 1082h113zM959 250l188 832h114l-265 -1082h-78zM712 1082l218 -823l50 -259h-77l-236 861l-36 221h81z" />
    <glyph glyph-name="x" unicode="x" horiz-adv-x="880" 
d="M202 1082l236 -435l238 435h130l-305 -531l318 -551h-130l-250 456l-249 -456h-131l319 551l-306 531h130z" />
    <glyph glyph-name="y" unicode="y" horiz-adv-x="857" 
d="M416 109l278 973h119l-381 -1255q-12 -37 -30.5 -82.5t-48 -87t-73 -68t-105.5 -26.5q-16 0 -42 4.5t-37 8.5l-1 102q9 -2 26 -4t24 -2q54 0 91 22t62.5 65.5t44.5 107.5zM168 1082l278 -926l30 -127l-81 -50l-349 1103h122z" />
    <glyph glyph-name="z" unicode="z" horiz-adv-x="880" 
d="M810 105v-105h-676v105h676zM775 992l-613 -992h-68v91l611 991h70v-90zM726 1082v-105h-617v105h617z" />
    <glyph glyph-name="braceleft" unicode="{" horiz-adv-x="611" 
d="M554 1597l25 -80q-109 -43 -154.5 -146.5t-45.5 -238.5v-226q0 -95 -30.5 -172t-97 -122.5t-173.5 -45.5v83q100 0 145 69.5t45 187.5v226q0 105 26 196.5t88 161t172 107.5zM581 -321l-28 -81q-108 38 -170.5 106.5t-88.5 159.5t-26 196v226q0 78 -19.5 135.5
t-61.5 89.5t-109 32v83q108 0 174 -45.5t96.5 -122.5t30.5 -172v-226q0 -91 20 -166.5t64.5 -130.5t117.5 -84z" />
    <glyph glyph-name="bar" unicode="|" horiz-adv-x="454" 
d="M281 1456v-1726h-103v1726h103z" />
    <glyph glyph-name="braceright" unicode="}" horiz-adv-x="611" 
d="M32 1517l24 80q110 -38 173 -107.5t88.5 -161t25.5 -196.5v-226q0 -78 19.5 -136t61.5 -89.5t109 -31.5v-77q-107 0 -173.5 44t-97.5 119.5t-31 170.5v226q0 91 -19.5 167.5t-63 133t-116.5 84.5zM57 -402l-27 81q73 29 117 84t64 130.5t20 166.5v226q0 95 30.5 171
t97.5 120t174 44v-78q-101 0 -145.5 -70t-44.5 -187v-226q0 -105 -25.5 -195.5t-88 -159t-172.5 -107.5z" />
    <glyph glyph-name="asciitilde" unicode="~" horiz-adv-x="1217" 
d="M980 765l95 1q0 -69 -17.5 -131.5t-50.5 -110t-79.5 -75t-105.5 -27.5q-74 0 -129 37.5t-122 107.5q-50 56 -89.5 84t-88.5 28q-48 0 -82.5 -26.5t-52.5 -77.5t-18 -125l-100 -1q0 70 17 132t50 108.5t79.5 73.5t106.5 27q74 0 130.5 -38.5t120.5 -106.5
q53 -59 92.5 -86.5t85.5 -27.5q50 0 85 29.5t54 82t19 122.5z" />
    <glyph glyph-name="uni00A0" unicode="&#xa0;" horiz-adv-x="461" 
 />
    <glyph glyph-name="exclamdown" unicode="&#xa1;" horiz-adv-x="428" 
d="M160 -360l6 1050h102l7 -1050h-115zM286 1022q0 -34 -19 -58t-55 -24q-33 0 -53.5 23.5t-20.5 58.5q0 34 20 57t54 23q36 0 55 -23t19 -57z" />
    <glyph glyph-name="cent" unicode="&#xa2;" horiz-adv-x="978" 
d="M560 1318v-269h-111v269h111zM560 23v-268h-111v268h111zM509 85q62 0 116.5 28.5t89.5 84.5t40 138h106q-4 -103 -53 -183.5t-127 -126.5t-172 -46q-96 0 -169.5 41.5t-122.5 115.5t-74 172t-25 211v42q0 114 25 212t74 171.5t122 115t169 41.5q99 0 177.5 -47.5
t125 -133.5t50.5 -204h-106q-4 87 -37.5 149.5t-87.5 97t-122 34.5q-76 0 -129.5 -35.5t-86.5 -97.5t-48 -139.5t-15 -163.5v-42q0 -86 15 -164t48 -139t86.5 -96.5t130.5 -35.5z" />
    <glyph glyph-name="sterling" unicode="&#xa3;" horiz-adv-x="1026" 
d="M945 0h-844v107h844v-107zM649 644h-550v108h550v-108zM356 1039l18 -668q3 -104 -19.5 -183t-66.5 -120l-107 39q29 10 47 53t25.5 100t6.5 110l-18 669q0 138 44 235.5t122.5 149.5t178.5 52q107 0 181.5 -49t114 -136.5t39.5 -202.5h-114q0 101 -31.5 162.5t-83.5 90
t-114 28.5q-64 0 -115 -38t-79.5 -112t-28.5 -180z" />
    <glyph glyph-name="currency" unicode="&#xa4;" horiz-adv-x="1481" 
d="M258 608q0 -106 37.5 -199.5t104.5 -164t154.5 -110.5t185.5 -40q99 0 186 40t153.5 110.5t104 163.5t37.5 200t-37.5 199.5t-104 163t-153.5 110t-186 39.5q-98 0 -185.5 -39.5t-154.5 -110t-104.5 -163t-37.5 -199.5zM145 608q0 133 46.5 247t128 199t189.5 132.5
t231 47.5t231 -47.5t190 -132.5t128 -199t46 -247t-46 -247t-128 -199.5t-190 -133.5t-231 -48t-231 48t-189.5 133.5t-128 199.5t-46.5 247zM1376 1176l-202 -206l-87 89l202 206zM397 180l-202 -206l-85 89l202 206zM1289 -27l-202 206l87 90l202 -206zM312 970l-202 206
l85 88l202 -206z" />
    <glyph glyph-name="yen" unicode="&#xa5;" horiz-adv-x="931" 
d="M815 708v-92h-700v92h700zM815 415v-91h-700v91h700zM446 701l316 755h128l-372 -840h-79zM168 1456l319 -758l3 -82h-79l-372 840h129zM520 733v-733h-115v733h115z" />
    <glyph glyph-name="brokenbar" unicode="&#xa6;" horiz-adv-x="446" 
d="M280 -270h-120v773h120v-773zM280 1456v-758h-120v758h120z" />
    <glyph glyph-name="section" unicode="&#xa7;" horiz-adv-x="1084" 
d="M602 132v81q80 0 136.5 28.5t86 77.5t29.5 108q0 55 -16.5 96.5t-54.5 75.5t-102.5 65t-158.5 64q-88 27 -158 59.5t-118.5 77t-73.5 106.5t-25 149q0 81 28 146.5t80.5 112.5t125.5 72t163 25q126 0 215.5 -50t138 -146t48.5 -235h-111q0 91 -33.5 164.5t-98 118.5
t-158.5 45q-99 0 -162.5 -34t-94 -91t-30.5 -126q0 -55 13.5 -95.5t47.5 -73t94.5 -61.5t154.5 -61q93 -30 166.5 -63.5t125 -78t78.5 -107t27 -152.5q0 -68 -25.5 -123t-73.5 -94.5t-115 -60t-149 -20.5zM456 853v-79q-82 0 -133.5 -29t-76.5 -79t-25 -113q0 -58 14.5 -99
t50.5 -74.5t100 -63t164 -62.5q89 -30 159.5 -62.5t118.5 -76t73.5 -105.5t25.5 -148q0 -85 -28 -151.5t-81 -111.5t-126 -69.5t-163 -24.5q-78 0 -153.5 22t-137 72t-98 133t-36.5 204l112 2q0 -94 28 -157.5t74 -101t101.5 -53.5t110.5 -16q92 0 155.5 32.5t97 89
t33.5 128.5q0 52 -14.5 91.5t-49 72t-94 62t-150.5 60.5q-92 28 -166 61.5t-126 79.5t-79.5 110.5t-27.5 153.5q0 69 24.5 124.5t70 96t109.5 61t143 20.5z" />
    <glyph glyph-name="dieresis" unicode="&#xa8;" horiz-adv-x="881" 
d="M138 1395q0 35 21.5 58.5t60.5 23.5t61 -23.5t22 -58.5q0 -34 -22 -57t-61 -23t-60.5 23t-21.5 57zM575 1394q0 35 22 59t60 24q39 0 61.5 -24t22.5 -59q0 -34 -22.5 -57t-61.5 -23q-38 0 -60 23t-22 57z" />
    <glyph glyph-name="copyright" unicode="&#xa9;" horiz-adv-x="1638" 
d="M1023 607h99q0 -157 -85.5 -235.5t-230.5 -78.5q-100 0 -175 49t-116 136t-41 202v97q0 116 41 203t116 136t175 49q145 0 231 -78t86 -235h-99q0 114 -56 167.5t-161 53.5q-75 0 -127 -39t-78.5 -105.5t-26.5 -149.5v-99q0 -85 26.5 -151t78.5 -104.5t127 -38.5
q105 0 160.5 52t55.5 169zM193 729q0 -139 48.5 -259.5t134.5 -210.5t199 -140.5t241 -50.5q129 0 242.5 50t199.5 140t134.5 211t48.5 260q0 140 -49 259.5t-134.5 209t-198.5 140t-242 50.5q-128 0 -241 -50t-199.5 -140t-135 -209.5t-48.5 -259.5zM107 729
q0 159 55.5 295t152.5 237.5t226 158t276 56.5t275.5 -56.5t226.5 -158t153 -237.5t55 -295t-55 -295t-152.5 -238.5t-226.5 -159.5t-276 -57t-275.5 57t-226 159.5t-153 238.5t-55.5 295z" />
    <glyph glyph-name="ordfeminine" unicode="&#xaa;" horiz-adv-x="803" 
d="M541 861v340q0 56 -14.5 95.5t-43 60.5t-71.5 21q-72 0 -114 -35t-42 -106l-98 6q0 68 31.5 120.5t88.5 82.5t133 30q69 0 120.5 -31t80.5 -92t29 -153v-314q0 -49 5.5 -93t16.5 -88h-103q-19 72 -19 156zM567 1142l1 -85h-139q-59 0 -98.5 -17t-59 -49t-19.5 -78
q0 -56 30.5 -90.5t97.5 -34.5q42 0 82.5 24t67 59.5t26.5 68.5l17 -83q-12 -37 -41 -75.5t-72 -64.5t-100 -26q-101 0 -155 60t-54 158q0 73 31.5 125t93 80t153.5 28h138z" />
    <glyph glyph-name="guillemotleft" unicode="&#xab;" horiz-adv-x="828" 
d="M462 927l-231 -395l-111 1v13l248 381h94zM231 541l231 -393h-94l-248 379v13zM725 927l-231 -395l-111 1v13l248 381h94zM494 541l231 -393h-94l-248 379v13z" />
    <glyph glyph-name="logicalnot" unicode="&#xac;" horiz-adv-x="981" 
d="M810 778v-109h-685v109h685zM810 717v-331h-111v331h111z" />
    <glyph glyph-name="uni00AD" unicode="&#xad;" horiz-adv-x="529" 
d="M463 694v-104h-403v104h403z" />
    <glyph glyph-name="registered" unicode="&#xae;" horiz-adv-x="1642" 
d="M848 666h-237l-2 94h222q51 0 93.5 17t68 50.5t25.5 82.5q0 56 -19.5 90.5t-65 51.5t-123.5 17h-159v-748h-98v841h257q98 0 166 -28t104 -83t36 -138q0 -55 -23.5 -97t-68 -72.5t-108.5 -49.5q-3 0 -6.5 -3.5t-6.5 -3.5q-17 -10 -21.5 -14.5t-9 -5.5t-24.5 -1zM838 666
l16 68q143 0 196 -65t53 -160v-45q0 -37 4 -70.5t13 -56.5v-16h-102q-10 26 -12 74t-2 70v45q0 82 -37.5 119t-128.5 37zM188 729q0 -138 48.5 -259t134.5 -211t199.5 -140.5t242.5 -50.5t242 50.5t199 140.5t134.5 210.5t48.5 259.5q0 140 -48.5 259.5t-134.5 209
t-199.5 140t-242.5 50.5q-128 0 -241.5 -50.5t-199.5 -140t-134.5 -209t-48.5 -259.5zM103 729q0 159 55 295t153 237.5t226.5 158t275.5 56.5t275.5 -56.5t226 -158t152.5 -237.5t55 -295t-55 -295t-152.5 -238.5t-226 -159.5t-275.5 -57t-275.5 57t-226.5 159.5
t-153 238.5t-55 295z" />
    <glyph glyph-name="macron" unicode="&#xaf;" horiz-adv-x="785" 
d="M666 1442v-100h-529v100h529z" />
    <glyph glyph-name="degree" unicode="&#xb0;" horiz-adv-x="774" 
d="M143 1226q0 69 33.5 125.5t89.5 90.5t123 34q66 0 121 -34t88 -91t33 -125q0 -69 -33 -125t-88 -89t-121 -33q-67 0 -123 33t-89.5 89t-33.5 125zM233 1226q0 -66 45 -110t111 -44q65 0 108.5 44t43.5 110q0 68 -43.5 113t-108.5 45t-110.5 -45t-45.5 -113z" />
    <glyph glyph-name="plusminus" unicode="&#xb1;" horiz-adv-x="954" 
d="M863 831v-104h-769v104h769zM538 1267v-978h-102v978h102zM831 105v-105h-701v105h701z" />
    <glyph glyph-name="uni00B2" unicode="&#xb2;" horiz-adv-x="663" 
d="M583 754v-88h-484v76l243 283q41 48 65 85.5t35.5 68.5t11.5 58q0 61 -33 100t-95 39q-73 0 -110 -46.5t-37 -114.5h-97q0 69 29 125.5t83.5 91t130.5 34.5q69 0 120 -28t79 -78.5t28 -120.5q0 -51 -21 -98.5t-56 -94t-80 -96.5l-173 -196h361z" />
    <glyph glyph-name="uni00B3" unicode="&#xb3;" horiz-adv-x="663" 
d="M245 1108h66q49 0 82 17.5t50 48t17 68.5q0 56 -32.5 95t-101.5 39q-60 0 -99.5 -35t-39.5 -95h-97q0 68 31 117t84 76t118 27q70 0 122.5 -25.5t82 -75.5t29.5 -122q0 -51 -27.5 -95.5t-79 -71.5t-123.5 -27h-82v59zM245 1025v59h82q82 0 135.5 -24t80.5 -70t27 -109
q0 -72 -32 -123t-87.5 -77t-125.5 -26q-61 0 -118 24.5t-92.5 75.5t-35.5 130h97q0 -61 42.5 -101.5t109.5 -40.5q70 0 107.5 38.5t37.5 103.5q0 50 -20.5 81t-56.5 45t-85 14h-66z" />
    <glyph glyph-name="acute" unicode="&#xb4;" horiz-adv-x="577" 
d="M125 1256l191 280h145l-232 -280h-104z" />
    <glyph glyph-name="mu" unicode="&#xb5;" horiz-adv-x="1001" 
d="M736 1082h111v-1082h-101l-10 250v832zM754 503l52 2q0 -114 -18 -209.5t-56.5 -166.5t-99 -110t-145.5 -39q-67 0 -123.5 27t-96.5 90.5t-57 172.5l-15 181h71q0 -112 17 -184t46.5 -112t68.5 -55.5t82 -15.5q84 0 137 31.5t83 88.5t42 133.5t12 165.5zM156 1082h110
v-1498h-110v1498z" />
    <glyph glyph-name="paragraph" unicode="&#xb6;" horiz-adv-x="863" 
d="M698 0h-111v520h-86q-134 0 -226.5 60.5t-140 166.5t-47.5 241q0 134 47.5 240t140 167t226.5 61h197v-1456z" />
    <glyph glyph-name="periodcentered" unicode="&#xb7;" horiz-adv-x="469" 
d="M155 717q0 36 19.5 60.5t56.5 24.5q36 0 56 -24.5t20 -59.5t-20 -59t-56 -24q-37 0 -56.5 24t-19.5 58z" />
    <glyph glyph-name="cedilla" unicode="&#xb8;" horiz-adv-x="461" 
d="M148 0h85l-10 -64q52 -8 94.5 -45t42.5 -125q0 -45 -16 -82.5t-47.5 -63t-78 -40.5t-107.5 -15l-5 79q42 0 79 12.5t60.5 39t23.5 68.5q0 39 -15.5 60t-47.5 31.5t-82 16.5z" />
    <glyph glyph-name="uni00B9" unicode="&#xb9;" horiz-adv-x="663" 
d="M416 1455v-789h-98v659l-192 -68v91l278 107h12z" />
    <glyph glyph-name="ordmasculine" unicode="&#xba;" horiz-adv-x="817" 
d="M132 1033v98q0 101 33 179t95 122t146 44q86 0 147.5 -44t94.5 -122t33 -179v-98q0 -99 -33 -177t-94 -122t-146 -44t-147 44t-95.5 122t-33.5 177zM233 1132v-98q0 -68 18 -124t57 -88.5t100 -32.5q58 0 96.5 32.5t58 88.5t19.5 124v98q0 69 -19.5 124.5t-58.5 88.5
t-98 33q-58 0 -96.5 -33t-57.5 -88.5t-19 -124.5z" />
    <glyph glyph-name="guillemotright" unicode="&#xbb;" horiz-adv-x="825" 
d="M115 162l231 393l112 -1v-13l-247 -379h-96zM115 946h96l247 -386v-13l-112 -1zM388 162l231 393l112 -1v-13l-247 -379h-96zM388 946h96l247 -386v-13l-112 -1z" />
    <glyph glyph-name="onequarter" unicode="&#xbc;" horiz-adv-x="1289" 
d="M402 1454v-790h-98v660l-192 -68v91l278 107h12zM971 1267l-598 -1138l-66 50l596 1138zM1199 277v-90h-530l-4 67l330 535h77l-96 -182l-209 -330h432zM1095 789v-789h-96v789h96z" />
    <glyph glyph-name="onehalf" unicode="&#xbd;" horiz-adv-x="1347" 
d="M934 1267l-598 -1138l-66 50l596 1138zM391 1454v-790h-98v660l-192 -68v91l278 107h12zM1234 89v-89h-484v78l243 282q41 48 65 85.5t35.5 68t11.5 58.5q0 62 -33 100.5t-95 38.5q-73 0 -110 -46t-37 -115h-97q0 69 29 125.5t83.5 90.5t130.5 34q69 0 120 -27.5t79 -78
t28 -120.5q0 -51 -21 -98.5t-56 -94t-80 -96.5l-173 -196h361z" />
    <glyph glyph-name="threequarters" unicode="&#xbe;" horiz-adv-x="1376" 
d="M1089 1267l-598 -1138l-66 50l596 1138zM1293 277v-90h-530l-4 67l330 535h77l-96 -182l-209 -330h432zM1189 789v-789h-96v789h96zM285 1108h66q49 0 82 17.5t50 47.5t17 69q0 56 -32.5 95t-101.5 39q-60 0 -99.5 -35t-39.5 -95h-97q0 67 31 116t84 76t118 27
q70 0 122.5 -25.5t82 -75t29.5 -120.5q0 -52 -27.5 -96.5t-79 -71.5t-123.5 -27h-82v59zM285 1025v60h82q82 0 135.5 -24.5t80.5 -70.5t27 -109q0 -72 -32 -122.5t-87.5 -77.5t-125.5 -27q-61 0 -117.5 24.5t-92.5 76t-36 131.5h97q0 -62 42.5 -102.5t109.5 -40.5
q70 0 107.5 38.5t37.5 103.5q0 51 -20.5 81.5t-56.5 44.5t-85 14h-66z" />
    <glyph glyph-name="questiondown" unicode="&#xbf;" horiz-adv-x="835" 
d="M378 687h112q-2 -85 -12.5 -137t-37.5 -96t-78 -105q-41 -51 -78 -100t-59 -109.5t-22 -147.5q0 -85 24.5 -144.5t72.5 -91t116 -31.5q62 0 110 30.5t76 88t29 135.5h111q-1 -117 -44.5 -197t-117 -122.5t-164.5 -42.5q-103 0 -176 45.5t-111 129.5t-38 199
q0 95 29 172.5t76.5 144.5t102.5 130q35 37 51.5 74t22 79.5t5.5 95.5zM501 1020q0 -33 -19 -57t-54 -24q-34 0 -54 24t-20 57q0 34 20 57.5t54 23.5q35 0 54 -23.5t19 -57.5z" />
    <glyph glyph-name="Agrave" unicode="&#xc0;" 
d="M584 1368l-420 -1368h-118l463 1456h81zM960 0l-420 1368l-5 88h80l464 -1456h-119zM895 515v-108h-657v108h657zM448 1850l191 -280h-110l-227 280h146z" />
    <glyph glyph-name="Aacute" unicode="&#xc1;" 
d="M584 1368l-420 -1368h-118l463 1456h81zM960 0l-420 1368l-5 88h80l464 -1456h-119zM895 515v-108h-657v108h657zM493 1570l191 280h145l-232 -280h-104z" />
    <glyph glyph-name="Acircumflex" unicode="&#xc2;" 
d="M584 1368l-420 -1368h-118l463 1456h81zM960 0l-420 1368l-5 88h80l464 -1456h-119zM895 515v-108h-657v108h657zM599 1842l204 -260v-10h-100l-139 183l-137 -183h-97v13l200 257h69z" />
    <glyph glyph-name="Atilde" unicode="&#xc3;" 
d="M584 1368l-420 -1368h-118l463 1456h81zM960 0l-420 1368l-5 88h80l464 -1456h-119zM895 515v-108h-657v108h657zM772 1817l81 -6q0 -64 -22.5 -113t-60 -75.5t-85.5 -26.5q-43 0 -72 16.5t-51.5 38t-47 38t-60.5 16.5q-38 0 -64 -31t-26 -87l-82 4q0 64 22 112t60 75.5
t85 27.5q39 0 68 -17t53.5 -39t50.5 -38t60 -16q38 0 64.5 33t26.5 88z" />
    <glyph glyph-name="Adieresis" unicode="&#xc4;" 
d="M584 1368l-420 -1368h-118l463 1456h81zM960 0l-420 1368l-5 88h80l464 -1456h-119zM895 515v-108h-657v108h657zM265 1709q0 35 21.5 58.5t60.5 23.5t61 -23.5t22 -58.5q0 -34 -22 -57t-61 -23t-60.5 23t-21.5 57zM702 1708q0 35 22 59t60 24q39 0 61.5 -24t22.5 -59
q0 -34 -22.5 -57t-61.5 -23q-38 0 -60 23t-22 57z" />
    <glyph glyph-name="Aring" unicode="&#xc5;" 
d="M584 1368l-420 -1368h-118l463 1456h81zM960 0l-420 1368l-5 88h80l464 -1456h-119zM895 515v-108h-657v108h657zM372 1716q0 54 25.5 97.5t69.5 69t98 25.5q82 0 138 -55.5t56 -136.5q0 -54 -25.5 -96.5t-70 -67t-98.5 -24.5q-82 0 -137.5 53t-55.5 135zM448 1717
q0 -49 33 -82.5t84 -33.5t83.5 33t32.5 82q0 50 -32.5 84.5t-83.5 34.5t-84 -34.5t-33 -83.5z" />
    <glyph glyph-name="AE" unicode="&#xc6;" horiz-adv-x="1614" 
d="M833 1356l-667 -1356h-136l740 1456h76zM918 504v-116h-592v116h592zM1561 105v-105h-616v105h616zM922 1456l53 -1456h-111l-52 1456h110zM1441 811v-104h-529v104h529zM1509 1456v-104h-615v104h615z" />
    <glyph glyph-name="Ccedilla" unicode="&#xc7;" horiz-adv-x="1158" 
d="M930 455h115q-10 -163 -65 -268.5t-152.5 -156.5t-235.5 -51q-105 0 -189 41t-143.5 119t-91 188.5t-31.5 249.5v312q0 137 31.5 245.5t92 185t146 116.5t194.5 40q132 0 227.5 -50t151 -155t65.5 -271h-115q-9 134 -48 215t-108.5 117.5t-172.5 36.5q-85 0 -149.5 -32.5
t-109 -94t-67.5 -150t-23 -201.5v-314q0 -111 22 -201.5t64.5 -155.5t106 -99.5t147.5 -34.5q108 0 179 34t110 114.5t49 220.5zM551 -10h85l-10 -64q52 -8 94.5 -45t42.5 -125q0 -45 -16 -82.5t-47.5 -63t-78 -40.5t-107.5 -15l-5 79q42 0 79 12.5t60.5 39t23.5 68.5
q0 39 -15.5 60t-47.5 31.5t-82 16.5z" />
    <glyph glyph-name="Egrave" unicode="&#xc8;" horiz-adv-x="1019" 
d="M936 107v-107h-680v107h680zM288 1456v-1456h-115v1456h115zM851 805v-108h-595v108h595zM931 1456v-107h-675v107h675zM424 1856l191 -280h-110l-227 280h146z" />
    <glyph glyph-name="Eacute" unicode="&#xc9;" horiz-adv-x="1019" 
d="M936 107v-107h-680v107h680zM288 1456v-1456h-115v1456h115zM851 805v-108h-595v108h595zM931 1456v-107h-675v107h675zM470 1576l191 280h145l-232 -280h-104z" />
    <glyph glyph-name="Ecircumflex" unicode="&#xca;" horiz-adv-x="1019" 
d="M936 107v-107h-680v107h680zM288 1456v-1456h-115v1456h115zM851 805v-108h-595v108h595zM931 1456v-107h-675v107h675zM575 1848l204 -260v-10h-100l-139 183l-137 -183h-97v13l200 257h69z" />
    <glyph glyph-name="Edieresis" unicode="&#xcb;" horiz-adv-x="1019" 
d="M936 107v-107h-680v107h680zM288 1456v-1456h-115v1456h115zM851 805v-108h-595v108h595zM931 1456v-107h-675v107h675zM241 1715q0 35 21.5 58.5t60.5 23.5t61 -23.5t22 -58.5q0 -34 -22 -57t-61 -23t-60.5 23t-21.5 57zM678 1714q0 35 22 59t60 24q39 0 61.5 -24
t22.5 -59q0 -34 -22.5 -57t-61.5 -23q-38 0 -60 23t-22 57z" />
    <glyph glyph-name="Igrave" unicode="&#xcc;" horiz-adv-x="500" 
d="M309 1456v-1456h-116v1456h116zM135 1856l191 -280h-110l-227 280h146z" />
    <glyph glyph-name="Iacute" unicode="&#xcd;" horiz-adv-x="500" 
d="M309 1456v-1456h-116v1456h116zM180 1576l191 280h145l-232 -280h-104z" />
    <glyph glyph-name="Icircumflex" unicode="&#xce;" horiz-adv-x="500" 
d="M309 1456v-1456h-116v1456h116zM286 1848l204 -260v-10h-100l-139 183l-137 -183h-97v13l200 257h69z" />
    <glyph glyph-name="Idieresis" unicode="&#xcf;" horiz-adv-x="500" 
d="M309 1456v-1456h-116v1456h116zM-48 1715q0 35 21.5 58.5t60.5 23.5t61 -23.5t22 -58.5q0 -34 -22 -57t-61 -23t-60.5 23t-21.5 57zM389 1714q0 35 22 59t60 24q39 0 61.5 -24t22.5 -59q0 -34 -22.5 -57t-61.5 -23q-38 0 -60 23t-22 57z" />
    <glyph glyph-name="Eth" unicode="&#xd0;" horiz-adv-x="1197" 
d="M537 0h-273l1 107h272q131 0 223 55t140.5 161t48.5 259v295q0 116 -27.5 204.5t-80 148t-127.5 89.5t-169 30h-287v107h287q116 0 210.5 -38t163.5 -112t106 -182.5t37 -248.5v-293q0 -141 -37 -249.5t-106 -182.5t-165.5 -112t-216.5 -38zM318 1456v-1456h-115v1456
h115zM591 793v-105h-518v105h518z" />
    <glyph glyph-name="Ntilde" unicode="&#xd1;" horiz-adv-x="1263" 
d="M1089 1456v-1456h-115l-685 1241v-1241h-116v1456h116l686 -1241v1241h114zM838 1817l81 -6q0 -64 -22.5 -113t-60 -75.5t-85.5 -26.5q-43 0 -72 16.5t-51.5 38t-47 38t-60.5 16.5q-38 0 -64 -31t-26 -87l-82 4q0 64 22 112t60 75.5t85 27.5q39 0 68 -17t53.5 -39
t50.5 -38t60 -16q38 0 64.5 33t26.5 88z" />
    <glyph glyph-name="Ograve" unicode="&#xd2;" horiz-adv-x="1208" 
d="M1075 885v-315q0 -143 -32.5 -253.5t-94 -185.5t-148 -113.5t-195.5 -38.5q-107 0 -194 38.5t-149 113.5t-95.5 185.5t-33.5 253.5v315q0 144 33 255t94.5 185t148.5 112.5t194 38.5q110 0 197 -38.5t148.5 -112.5t94 -185t32.5 -255zM961 570v317q0 119 -23.5 209
t-68.5 150t-112 90t-154 30q-84 0 -150.5 -30t-112 -90.5t-69.5 -150t-24 -208.5v-317q0 -120 24.5 -209.5t70.5 -150t112.5 -90.5t150.5 -30q87 0 153.5 30t111.5 90.5t68 150t23 209.5zM487 1861l191 -280h-110l-227 280h146z" />
    <glyph glyph-name="Oacute" unicode="&#xd3;" horiz-adv-x="1208" 
d="M1075 885v-315q0 -143 -32.5 -253.5t-94 -185.5t-148 -113.5t-195.5 -38.5q-107 0 -194 38.5t-149 113.5t-95.5 185.5t-33.5 253.5v315q0 144 33 255t94.5 185t148.5 112.5t194 38.5q110 0 197 -38.5t148.5 -112.5t94 -185t32.5 -255zM961 570v317q0 119 -23.5 209
t-68.5 150t-112 90t-154 30q-84 0 -150.5 -30t-112 -90.5t-69.5 -150t-24 -208.5v-317q0 -120 24.5 -209.5t70.5 -150t112.5 -90.5t150.5 -30q87 0 153.5 30t111.5 90.5t68 150t23 209.5zM532 1581l191 280h145l-232 -280h-104z" />
    <glyph glyph-name="Ocircumflex" unicode="&#xd4;" horiz-adv-x="1208" 
d="M1075 885v-315q0 -143 -32.5 -253.5t-94 -185.5t-148 -113.5t-195.5 -38.5q-107 0 -194 38.5t-149 113.5t-95.5 185.5t-33.5 253.5v315q0 144 33 255t94.5 185t148.5 112.5t194 38.5q110 0 197 -38.5t148.5 -112.5t94 -185t32.5 -255zM961 570v317q0 119 -23.5 209
t-68.5 150t-112 90t-154 30q-84 0 -150.5 -30t-112 -90.5t-69.5 -150t-24 -208.5v-317q0 -120 24.5 -209.5t70.5 -150t112.5 -90.5t150.5 -30q87 0 153.5 30t111.5 90.5t68 150t23 209.5zM638 1853l204 -260v-10h-100l-139 183l-137 -183h-97v13l200 257h69z" />
    <glyph glyph-name="Otilde" unicode="&#xd5;" horiz-adv-x="1208" 
d="M1075 885v-315q0 -143 -32.5 -253.5t-94 -185.5t-148 -113.5t-195.5 -38.5q-107 0 -194 38.5t-149 113.5t-95.5 185.5t-33.5 253.5v315q0 144 33 255t94.5 185t148.5 112.5t194 38.5q110 0 197 -38.5t148.5 -112.5t94 -185t32.5 -255zM961 570v317q0 119 -23.5 209
t-68.5 150t-112 90t-154 30q-84 0 -150.5 -30t-112 -90.5t-69.5 -150t-24 -208.5v-317q0 -120 24.5 -209.5t70.5 -150t112.5 -90.5t150.5 -30q87 0 153.5 30t111.5 90.5t68 150t23 209.5zM811 1828l81 -6q0 -64 -22.5 -113t-60 -75.5t-85.5 -26.5q-43 0 -72 16.5t-51.5 38
t-47 38t-60.5 16.5q-38 0 -64 -31t-26 -87l-82 4q0 64 22 112t60 75.5t85 27.5q39 0 68 -17t53.5 -39t50.5 -38t60 -16q38 0 64.5 33t26.5 88z" />
    <glyph glyph-name="Odieresis" unicode="&#xd6;" horiz-adv-x="1208" 
d="M1075 885v-315q0 -143 -32.5 -253.5t-94 -185.5t-148 -113.5t-195.5 -38.5q-107 0 -194 38.5t-149 113.5t-95.5 185.5t-33.5 253.5v315q0 144 33 255t94.5 185t148.5 112.5t194 38.5q110 0 197 -38.5t148.5 -112.5t94 -185t32.5 -255zM961 570v317q0 119 -23.5 209
t-68.5 150t-112 90t-154 30q-84 0 -150.5 -30t-112 -90.5t-69.5 -150t-24 -208.5v-317q0 -120 24.5 -209.5t70.5 -150t112.5 -90.5t150.5 -30q87 0 153.5 30t111.5 90.5t68 150t23 209.5zM304 1720q0 35 21.5 58.5t60.5 23.5t61 -23.5t22 -58.5q0 -34 -22 -57t-61 -23
t-60.5 23t-21.5 57zM741 1719q0 35 22 59t60 24q39 0 61.5 -24t22.5 -59q0 -34 -22.5 -57t-61.5 -23q-38 0 -60 23t-22 57z" />
    <glyph glyph-name="multiply" unicode="&#xd7;" horiz-adv-x="944" 
d="M172 106l-74 81l654 795l73 -82zM763 106l-655 794l73 82l655 -795z" />
    <glyph glyph-name="Oslash" unicode="&#xd8;" horiz-adv-x="1208" 
d="M1096 1507l-840 -1591h-94l841 1591h93zM1083 805v-153q0 -154 -33.5 -278t-96.5 -212t-151 -135t-197 -47q-86 0 -159.5 31t-133 88t-101 139.5t-64 186t-22.5 227.5v153q0 153 33.5 276.5t97 212t152 135.5t196.5 47q87 0 161 -30.5t133 -88t100 -140t63 -186.5
t22 -226zM970 652v155q0 103 -16 190t-46.5 155t-75 116t-102 73t-127.5 25q-84 0 -151 -39t-115 -112t-73 -176.5t-25 -231.5v-155q0 -104 16.5 -191.5t48 -156t76 -116.5t101.5 -73t124 -25q87 0 155 39t114.5 112t71 177t24.5 234z" />
    <glyph glyph-name="Ugrave" unicode="&#xd9;" horiz-adv-x="1168" 
d="M904 1456h114v-1026q0 -164 -58.5 -262.5t-157 -143.5t-217.5 -45q-122 0 -220 44.5t-155 143.5t-57 263v1026h114v-1026q0 -127 41 -202.5t113 -108.5t164 -33q94 0 165.5 33.5t112.5 108.5t41 202v1026zM475 1850l191 -280h-110l-227 280h146z" />
    <glyph glyph-name="Uacute" unicode="&#xda;" horiz-adv-x="1168" 
d="M904 1456h114v-1026q0 -164 -58.5 -262.5t-157 -143.5t-217.5 -45q-122 0 -220 44.5t-155 143.5t-57 263v1026h114v-1026q0 -127 41 -202.5t113 -108.5t164 -33q94 0 165.5 33.5t112.5 108.5t41 202v1026zM521 1570l191 280h145l-232 -280h-104z" />
    <glyph glyph-name="Ucircumflex" unicode="&#xdb;" horiz-adv-x="1168" 
d="M904 1456h114v-1026q0 -164 -58.5 -262.5t-157 -143.5t-217.5 -45q-122 0 -220 44.5t-155 143.5t-57 263v1026h114v-1026q0 -127 41 -202.5t113 -108.5t164 -33q94 0 165.5 33.5t112.5 108.5t41 202v1026zM626 1842l204 -260v-10h-100l-139 183l-137 -183h-97v13l200 257
h69z" />
    <glyph glyph-name="Udieresis" unicode="&#xdc;" horiz-adv-x="1168" 
d="M904 1456h114v-1026q0 -164 -58.5 -262.5t-157 -143.5t-217.5 -45q-122 0 -220 44.5t-155 143.5t-57 263v1026h114v-1026q0 -127 41 -202.5t113 -108.5t164 -33q94 0 165.5 33.5t112.5 108.5t41 202v1026zM292 1709q0 35 21.5 58.5t60.5 23.5t61 -23.5t22 -58.5
q0 -34 -22 -57t-61 -23t-60.5 23t-21.5 57zM729 1708q0 35 22 59t60 24q39 0 61.5 -24t22.5 -59q0 -34 -22.5 -57t-61.5 -23q-38 0 -60 23t-22 57z" />
    <glyph glyph-name="Yacute" unicode="&#xdd;" horiz-adv-x="1071" 
d="M173 1456l361 -790l363 790h132l-438 -908v-548h-114v548l-438 908h134zM466 1565l191 280h145l-232 -280h-104z" />
    <glyph glyph-name="Thorn" unicode="&#xde;" horiz-adv-x="1059" 
d="M171 1456h111v-1456h-111v1456zM224 1154h323q129 0 217.5 -54.5t134 -148t45.5 -213.5q0 -119 -45.5 -213t-134 -147.5t-217.5 -53.5h-299v103h298q103 0 166 46t92 117t29 146q0 78 -29 150t-92 118t-164 46h-273z" />
    <glyph glyph-name="germandbls" unicode="&#xdf;" horiz-adv-x="1051" 
d="M256 1127v-1127h-110v1127q0 102 21.5 180.5t61 131t97 80t128.5 27.5q81 0 147.5 -36t107 -104.5t40.5 -169.5q0 -75 -16 -125.5t-36.5 -91.5t-36.5 -86t-16 -109q0 -58 30.5 -103.5t75.5 -86.5t90 -86.5t75.5 -103t30.5 -137.5q0 -108 -44.5 -181t-116.5 -110t-156 -37
q-47 0 -98 11.5t-93 30t-64 39.5l29 104q31 -27 91.5 -53.5t120.5 -26.5q72 0 121 30.5t74 81t25 111.5q0 63 -30.5 110t-76 88.5t-91 86t-75.5 101t-30 133.5q0 68 16.5 117.5t37.5 91t37.5 87t16.5 107.5q0 65 -24.5 112.5t-64.5 73.5t-88 26q-63 0 -110 -32t-72 -101
t-25 -181z" />
    <glyph glyph-name="agrave" unicode="&#xe0;" horiz-adv-x="965" 
d="M699 194v589q0 76 -26 123.5t-76 69.5t-123 22q-69 0 -122.5 -27.5t-83 -76t-29.5 -111.5l-111 1q0 62 25 119.5t71 102t110.5 70.5t143.5 26q97 0 172 -31t117.5 -102t42.5 -188v-553q0 -57 7.5 -117t20.5 -98v-13h-118q-11 35 -16 89.5t-5 104.5zM722 632l3 -95h-192
q-78 0 -137 -17t-98.5 -49t-59.5 -76t-20 -100q0 -72 23 -117.5t67.5 -67t106.5 -21.5q82 0 144.5 32.5t102.5 87t52 115.5l30 -68q-10 -46 -37 -94t-70 -89.5t-102 -67.5t-133 -26q-89 0 -155.5 34t-103 103t-36.5 170q0 75 25.5 138t76.5 109.5t128 72.5t179 26h206z
M391 1535l191 -280h-110l-227 280h146z" />
    <glyph glyph-name="aacute" unicode="&#xe1;" horiz-adv-x="965" 
d="M699 194v589q0 76 -26 123.5t-76 69.5t-123 22q-69 0 -122.5 -27.5t-83 -76t-29.5 -111.5l-111 1q0 62 25 119.5t71 102t110.5 70.5t143.5 26q97 0 172 -31t117.5 -102t42.5 -188v-553q0 -57 7.5 -117t20.5 -98v-13h-118q-11 35 -16 89.5t-5 104.5zM722 632l3 -95h-192
q-78 0 -137 -17t-98.5 -49t-59.5 -76t-20 -100q0 -72 23 -117.5t67.5 -67t106.5 -21.5q82 0 144.5 32.5t102.5 87t52 115.5l30 -68q-10 -46 -37 -94t-70 -89.5t-102 -67.5t-133 -26q-89 0 -155.5 34t-103 103t-36.5 170q0 75 25.5 138t76.5 109.5t128 72.5t179 26h206z
M436 1255l191 280h145l-232 -280h-104z" />
    <glyph glyph-name="acircumflex" unicode="&#xe2;" horiz-adv-x="965" 
d="M699 194v589q0 76 -26 123.5t-76 69.5t-123 22q-69 0 -122.5 -27.5t-83 -76t-29.5 -111.5l-111 1q0 62 25 119.5t71 102t110.5 70.5t143.5 26q97 0 172 -31t117.5 -102t42.5 -188v-553q0 -57 7.5 -117t20.5 -98v-13h-118q-11 35 -16 89.5t-5 104.5zM722 632l3 -95h-192
q-78 0 -137 -17t-98.5 -49t-59.5 -76t-20 -100q0 -72 23 -117.5t67.5 -67t106.5 -21.5q82 0 144.5 32.5t102.5 87t52 115.5l30 -68q-10 -46 -37 -94t-70 -89.5t-102 -67.5t-133 -26q-89 0 -155.5 34t-103 103t-36.5 170q0 75 25.5 138t76.5 109.5t128 72.5t179 26h206z
M542 1527l204 -260v-10h-100l-139 183l-137 -183h-97v13l200 257h69z" />
    <glyph glyph-name="atilde" unicode="&#xe3;" horiz-adv-x="965" 
d="M699 194v589q0 76 -26 123.5t-76 69.5t-123 22q-69 0 -122.5 -27.5t-83 -76t-29.5 -111.5l-111 1q0 62 25 119.5t71 102t110.5 70.5t143.5 26q97 0 172 -31t117.5 -102t42.5 -188v-553q0 -57 7.5 -117t20.5 -98v-13h-118q-11 35 -16 89.5t-5 104.5zM722 632l3 -95h-192
q-78 0 -137 -17t-98.5 -49t-59.5 -76t-20 -100q0 -72 23 -117.5t67.5 -67t106.5 -21.5q82 0 144.5 32.5t102.5 87t52 115.5l30 -68q-10 -46 -37 -94t-70 -89.5t-102 -67.5t-133 -26q-89 0 -155.5 34t-103 103t-36.5 170q0 75 25.5 138t76.5 109.5t128 72.5t179 26h206z
M715 1502l81 -6q0 -64 -22.5 -113t-60 -75.5t-85.5 -26.5q-43 0 -72 16.5t-51.5 38t-47 38t-60.5 16.5q-38 0 -64 -31t-26 -87l-82 4q0 64 22 112t60 75.5t85 27.5q39 0 68 -17t53.5 -39t50.5 -38t60 -16q38 0 64.5 33t26.5 88z" />
    <glyph glyph-name="adieresis" unicode="&#xe4;" horiz-adv-x="965" 
d="M699 194v589q0 76 -26 123.5t-76 69.5t-123 22q-69 0 -122.5 -27.5t-83 -76t-29.5 -111.5l-111 1q0 62 25 119.5t71 102t110.5 70.5t143.5 26q97 0 172 -31t117.5 -102t42.5 -188v-553q0 -57 7.5 -117t20.5 -98v-13h-118q-11 35 -16 89.5t-5 104.5zM722 632l3 -95h-192
q-78 0 -137 -17t-98.5 -49t-59.5 -76t-20 -100q0 -72 23 -117.5t67.5 -67t106.5 -21.5q82 0 144.5 32.5t102.5 87t52 115.5l30 -68q-10 -46 -37 -94t-70 -89.5t-102 -67.5t-133 -26q-89 0 -155.5 34t-103 103t-36.5 170q0 75 25.5 138t76.5 109.5t128 72.5t179 26h206z
M208 1394q0 35 21.5 58.5t60.5 23.5t61 -23.5t22 -58.5q0 -34 -22 -57t-61 -23t-60.5 23t-21.5 57zM645 1393q0 35 22 59t60 24q39 0 61.5 -24t22.5 -59q0 -34 -22.5 -57t-61.5 -23q-38 0 -60 23t-22 57z" />
    <glyph glyph-name="aring" unicode="&#xe5;" horiz-adv-x="965" 
d="M699 194v589q0 76 -26 123.5t-76 69.5t-123 22q-69 0 -122.5 -27.5t-83 -76t-29.5 -111.5l-111 1q0 62 25 119.5t71 102t110.5 70.5t143.5 26q97 0 172 -31t117.5 -102t42.5 -188v-553q0 -57 7.5 -117t20.5 -98v-13h-118q-11 35 -16 89.5t-5 104.5zM722 632l3 -95h-192
q-78 0 -137 -17t-98.5 -49t-59.5 -76t-20 -100q0 -72 23 -117.5t67.5 -67t106.5 -21.5q82 0 144.5 32.5t102.5 87t52 115.5l30 -68q-10 -46 -37 -94t-70 -89.5t-102 -67.5t-133 -26q-89 0 -155.5 34t-103 103t-36.5 170q0 75 25.5 138t76.5 109.5t128 72.5t179 26h206z
M315 1402q0 54 25.5 97.5t69.5 69t98 25.5q82 0 138 -55.5t56 -136.5q0 -54 -25.5 -96.5t-70 -67t-98.5 -24.5q-82 0 -137.5 53t-55.5 135zM391 1403q0 -49 33 -82.5t84 -33.5t83.5 33t32.5 82q0 50 -32.5 84.5t-83.5 34.5t-84 -34.5t-33 -83.5z" />
    <glyph glyph-name="ae" unicode="&#xe6;" horiz-adv-x="1495" 
d="M671 183v537q0 88 -23 150t-69 95t-114 33q-75 0 -128.5 -31.5t-82 -84t-28.5 -117.5l-112 13q0 70 25 129t71.5 103t111 68t143.5 24q95 0 165 -43t110 -128t40 -213v-500zM700 634v-99h-237q-88 0 -146 -34t-86.5 -89.5t-28.5 -121.5q0 -62 23 -109t68.5 -72.5
t113.5 -25.5q52 0 101.5 20.5t90 52.5t66 66.5t28.5 63.5l66 -80q-22 -51 -69.5 -103.5t-122.5 -87.5t-178 -35q-95 0 -162 39t-101.5 110t-34.5 166q0 78 23.5 140.5t70.5 106.5t116 68t160 24h239zM1082 -20q-99 0 -175 39t-127.5 110.5t-77.5 168.5t-26 212v54
q0 119 28.5 218t80 171t120.5 111t150 38q86 0 153 -32t113 -93t69.5 -146.5t23.5 -193.5v-100h-676v100h565v31q0 92 -26 166.5t-81 119t-141 44.5q-64 0 -115.5 -33.5t-86 -93.5t-53 -138.5t-18.5 -168.5v-53q0 -88 17 -166t54 -136.5t93.5 -91.5t135.5 -33q96 0 161 36
t110 82l43 -90q-23 -27 -64 -57.5t-102 -52.5t-148 -22z" />
    <glyph glyph-name="ccedilla" unicode="&#xe7;" horiz-adv-x="929" 
d="M490 84q62 0 116.5 23t89.5 78t40 151h106q-4 -116 -53 -195.5t-127 -120.5t-172 -41q-97 0 -170 32t-122 95.5t-74 157t-25 216.5v123q0 122 25 215.5t74 156.5t122 95t170 32q99 0 177 -41.5t124.5 -126.5t50.5 -217h-106q-4 101 -37.5 162.5t-87.5 90t-121 28.5
q-77 0 -130.5 -26.5t-86.5 -77.5t-48 -124t-15 -167v-123q0 -95 15 -169t48.5 -124.5t87 -76.5t129.5 -26zM433 -10h85l-10 -64q52 -8 94.5 -45t42.5 -125q0 -45 -16 -82.5t-47.5 -63t-78 -40.5t-107.5 -15l-5 79q42 0 79 12.5t60.5 39t23.5 68.5q0 39 -15.5 60t-47.5 31.5
t-82 16.5z" />
    <glyph glyph-name="egrave" unicode="&#xe8;" horiz-adv-x="938" 
d="M506 -21q-90 0 -165.5 29.5t-130 90t-84.5 153t-30 218.5v125q0 134 32 230.5t86.5 158t124.5 90t148 28.5q89 0 156.5 -29t113.5 -88t69 -148.5t23 -211.5v-93h-686v104h575v28q-2 106 -29.5 180.5t-82 114t-138.5 39.5q-62 0 -114 -22.5t-89.5 -70.5t-57 -125
t-19.5 -185v-125q0 -99 21.5 -171.5t61.5 -120t96 -71t124 -23.5q84 0 147 28.5t112 86.5l59 -74q-30 -39 -74 -72.5t-105 -53.5t-144 -20zM379 1535l191 -280h-110l-227 280h146z" />
    <glyph glyph-name="eacute" unicode="&#xe9;" horiz-adv-x="938" 
d="M506 -21q-90 0 -165.5 29.5t-130 90t-84.5 153t-30 218.5v125q0 134 32 230.5t86.5 158t124.5 90t148 28.5q89 0 156.5 -29t113.5 -88t69 -148.5t23 -211.5v-93h-686v104h575v28q-2 106 -29.5 180.5t-82 114t-138.5 39.5q-62 0 -114 -22.5t-89.5 -70.5t-57 -125
t-19.5 -185v-125q0 -99 21.5 -171.5t61.5 -120t96 -71t124 -23.5q84 0 147 28.5t112 86.5l59 -74q-30 -39 -74 -72.5t-105 -53.5t-144 -20zM424 1255l191 280h145l-232 -280h-104z" />
    <glyph glyph-name="ecircumflex" unicode="&#xea;" horiz-adv-x="938" 
d="M506 -21q-90 0 -165.5 29.5t-130 90t-84.5 153t-30 218.5v125q0 134 32 230.5t86.5 158t124.5 90t148 28.5q89 0 156.5 -29t113.5 -88t69 -148.5t23 -211.5v-93h-686v104h575v28q-2 106 -29.5 180.5t-82 114t-138.5 39.5q-62 0 -114 -22.5t-89.5 -70.5t-57 -125
t-19.5 -185v-125q0 -99 21.5 -171.5t61.5 -120t96 -71t124 -23.5q84 0 147 28.5t112 86.5l59 -74q-30 -39 -74 -72.5t-105 -53.5t-144 -20zM530 1527l204 -260v-10h-100l-139 183l-137 -183h-97v13l200 257h69z" />
    <glyph glyph-name="edieresis" unicode="&#xeb;" horiz-adv-x="938" 
d="M506 -21q-90 0 -165.5 29.5t-130 90t-84.5 153t-30 218.5v125q0 134 32 230.5t86.5 158t124.5 90t148 28.5q89 0 156.5 -29t113.5 -88t69 -148.5t23 -211.5v-93h-686v104h575v28q-2 106 -29.5 180.5t-82 114t-138.5 39.5q-62 0 -114 -22.5t-89.5 -70.5t-57 -125
t-19.5 -185v-125q0 -99 21.5 -171.5t61.5 -120t96 -71t124 -23.5q84 0 147 28.5t112 86.5l59 -74q-30 -39 -74 -72.5t-105 -53.5t-144 -20zM196 1394q0 35 21.5 58.5t60.5 23.5t61 -23.5t22 -58.5q0 -34 -22 -57t-61 -23t-60.5 23t-21.5 57zM633 1393q0 35 22 59t60 24
q39 0 61.5 -24t22.5 -59q0 -34 -22.5 -57t-61.5 -23q-38 0 -60 23t-22 57z" />
    <glyph glyph-name="igrave" unicode="&#xec;" horiz-adv-x="431" 
d="M271 1082v-1082h-112v1082h112zM102 1524l191 -280h-110l-227 280h146z" />
    <glyph glyph-name="iacute" unicode="&#xed;" horiz-adv-x="431" 
d="M271 1082v-1082h-112v1082h112zM146 1244l191 280h145l-232 -280h-104z" />
    <glyph glyph-name="icircumflex" unicode="&#xee;" horiz-adv-x="431" 
d="M271 1082v-1082h-112v1082h112zM252 1516l204 -260v-10h-100l-139 183l-137 -183h-97v13l200 257h69z" />
    <glyph glyph-name="idieresis" unicode="&#xef;" horiz-adv-x="431" 
d="M271 1082v-1082h-112v1082h112zM-81 1383q0 35 21.5 58.5t60.5 23.5t61 -23.5t22 -58.5q0 -34 -22 -57t-61 -23t-60.5 23t-21.5 57zM356 1382q0 35 22 59t60 24q39 0 61.5 -24t22.5 -59q0 -34 -22.5 -57t-61.5 -23q-38 0 -60 23t-22 57z" />
    <glyph glyph-name="eth" unicode="&#xf0;" horiz-adv-x="1043" 
d="M263 1473l35 107q143 -50 256 -134.5t192.5 -203.5t121 -273t41.5 -345v-89q0 -123 -28 -225t-78 -176t-118 -114t-150 -40q-87 0 -159 37.5t-124.5 104t-81 155t-28.5 190.5q0 115 26 207.5t75.5 158t117.5 99.5t151 34q94 0 173 -48t127 -131.5t48 -186.5l-45 -5
q0 40 -17 85.5t-52 86.5t-88 67t-125 26q-70 0 -122.5 -29t-87 -82t-52 -125t-17.5 -158q0 -69 18 -137.5t54.5 -123t89.5 -87t122 -32.5q60 0 107.5 33.5t82 94t52.5 142.5t18 179v92q0 190 -41.5 330.5t-115 240t-170.5 166.5t-208 109zM851 1416l-430 -317l-46 75
l430 316z" />
    <glyph glyph-name="ntilde" unicode="&#xf1;" horiz-adv-x="987" 
d="M260 851v-851h-111v1082h106zM235 608l-49 29q4 96 31.5 180t75.5 148.5t113 100.5t144 36q67 0 121 -22t91.5 -69t57.5 -123t20 -183v-705h-111v706q0 111 -25 174t-71.5 89.5t-111.5 26.5q-69 0 -121.5 -37t-89 -96t-55.5 -126.5t-20 -128.5zM711 1501l81 -6
q0 -64 -22.5 -113t-60 -75.5t-85.5 -26.5q-43 0 -72 16.5t-51.5 38t-47 38t-60.5 16.5q-38 0 -64 -31t-26 -87l-82 4q0 64 22 112t60 75.5t85 27.5q39 0 68 -17t53.5 -39t50.5 -38t60 -16q38 0 64.5 33t26.5 88z" />
    <glyph glyph-name="ograve" unicode="&#xf2;" horiz-adv-x="1005" 
d="M107 485v112q0 123 28.5 217t81 158.5t125.5 97t160 32.5q89 0 161.5 -32.5t125 -97t81.5 -158.5t29 -217v-112q0 -123 -29 -217.5t-81.5 -158.5t-125 -97t-160.5 -33t-160.5 33t-125.5 97.5t-81.5 158.5t-28.5 217zM219 597v-112q0 -93 18.5 -167t55.5 -126t89.5 -80
t120.5 -28q72 0 125.5 28t89 80t53 126t17.5 167v112q0 91 -19 165t-56.5 126.5t-90.5 81t-120 28.5q-66 0 -119 -28.5t-89.5 -81t-55.5 -126.5t-19 -165zM384 1534l191 -280h-110l-227 280h146z" />
    <glyph glyph-name="oacute" unicode="&#xf3;" horiz-adv-x="1005" 
d="M107 485v112q0 123 28.5 217t81 158.5t125.5 97t160 32.5q89 0 161.5 -32.5t125 -97t81.5 -158.5t29 -217v-112q0 -123 -29 -217.5t-81.5 -158.5t-125 -97t-160.5 -33t-160.5 33t-125.5 97.5t-81.5 158.5t-28.5 217zM219 597v-112q0 -93 18.5 -167t55.5 -126t89.5 -80
t120.5 -28q72 0 125.5 28t89 80t53 126t17.5 167v112q0 91 -19 165t-56.5 126.5t-90.5 81t-120 28.5q-66 0 -119 -28.5t-89.5 -81t-55.5 -126.5t-19 -165zM430 1254l191 280h145l-232 -280h-104z" />
    <glyph glyph-name="ocircumflex" unicode="&#xf4;" horiz-adv-x="1005" 
d="M107 485v112q0 123 28.5 217t81 158.5t125.5 97t160 32.5q89 0 161.5 -32.5t125 -97t81.5 -158.5t29 -217v-112q0 -123 -29 -217.5t-81.5 -158.5t-125 -97t-160.5 -33t-160.5 33t-125.5 97.5t-81.5 158.5t-28.5 217zM219 597v-112q0 -93 18.5 -167t55.5 -126t89.5 -80
t120.5 -28q72 0 125.5 28t89 80t53 126t17.5 167v112q0 91 -19 165t-56.5 126.5t-90.5 81t-120 28.5q-66 0 -119 -28.5t-89.5 -81t-55.5 -126.5t-19 -165zM535 1526l204 -260v-10h-100l-139 183l-137 -183h-97v13l200 257h69z" />
    <glyph glyph-name="otilde" unicode="&#xf5;" horiz-adv-x="1005" 
d="M107 485v112q0 123 28.5 217t81 158.5t125.5 97t160 32.5q89 0 161.5 -32.5t125 -97t81.5 -158.5t29 -217v-112q0 -123 -29 -217.5t-81.5 -158.5t-125 -97t-160.5 -33t-160.5 33t-125.5 97.5t-81.5 158.5t-28.5 217zM219 597v-112q0 -93 18.5 -167t55.5 -126t89.5 -80
t120.5 -28q72 0 125.5 28t89 80t53 126t17.5 167v112q0 91 -19 165t-56.5 126.5t-90.5 81t-120 28.5q-66 0 -119 -28.5t-89.5 -81t-55.5 -126.5t-19 -165zM708 1501l81 -6q0 -64 -22.5 -113t-60 -75.5t-85.5 -26.5q-43 0 -72 16.5t-51.5 38t-47 38t-60.5 16.5q-38 0 -64 -31
t-26 -87l-82 4q0 64 22 112t60 75.5t85 27.5q39 0 68 -17t53.5 -39t50.5 -38t60 -16q38 0 64.5 33t26.5 88z" />
    <glyph glyph-name="odieresis" unicode="&#xf6;" horiz-adv-x="1005" 
d="M107 485v112q0 123 28.5 217t81 158.5t125.5 97t160 32.5q89 0 161.5 -32.5t125 -97t81.5 -158.5t29 -217v-112q0 -123 -29 -217.5t-81.5 -158.5t-125 -97t-160.5 -33t-160.5 33t-125.5 97.5t-81.5 158.5t-28.5 217zM219 597v-112q0 -93 18.5 -167t55.5 -126t89.5 -80
t120.5 -28q72 0 125.5 28t89 80t53 126t17.5 167v112q0 91 -19 165t-56.5 126.5t-90.5 81t-120 28.5q-66 0 -119 -28.5t-89.5 -81t-55.5 -126.5t-19 -165zM201 1393q0 35 21.5 58.5t60.5 23.5t61 -23.5t22 -58.5q0 -34 -22 -57t-61 -23t-60.5 23t-21.5 57zM638 1392
q0 35 22 59t60 24q39 0 61.5 -24t22.5 -59q0 -34 -22.5 -57t-61.5 -23q-38 0 -60 23t-22 57z" />
    <glyph glyph-name="divide" unicode="&#xf7;" horiz-adv-x="1019" 
d="M919 762v-120h-839v120h839zM431 1089q0 35 19.5 60t55.5 25q37 0 57 -25t20 -60t-20 -59t-56 -24q-37 0 -56.5 23.5t-19.5 59.5zM431 291q0 36 19.5 60.5t55.5 24.5q37 0 57 -24.5t20 -60.5q0 -34 -20 -58.5t-56 -24.5q-37 0 -56.5 24.5t-19.5 58.5z" />
    <glyph glyph-name="oslash" unicode="&#xf8;" horiz-adv-x="1001" 
d="M828 1214l-556 -1354h-84l557 1354h83zM95 526v32q0 117 29 216.5t82.5 173t128 114t166.5 40.5q94 0 169.5 -40.5t129 -114t82 -173t28.5 -216.5v-32q0 -119 -28.5 -218.5t-82 -173t-128.5 -114t-168 -40.5t-168 40.5t-128.5 114t-82.5 173t-29 218.5zM207 557v-33
q0 -88 19 -167.5t57 -141t93 -96t127 -34.5q71 0 126.5 35t93.5 96t57 140.5t19 168.5v32q0 87 -19 166.5t-57 141t-93.5 97.5t-127.5 36t-127 -36t-93 -97.5t-56.5 -141t-18.5 -166.5z" />
    <glyph glyph-name="ugrave" unicode="&#xf9;" horiz-adv-x="986" 
d="M727 250v832h111v-1082h-108zM747 452l54 2q0 -102 -20.5 -188.5t-63 -150.5t-110 -99.5t-163.5 -35.5q-67 0 -122.5 23t-94.5 71.5t-60.5 126t-21.5 188.5v693h111v-695q0 -85 16 -143.5t44.5 -92.5t64.5 -49t77 -15q109 0 171.5 51t90 134t27.5 180zM386 1536l191 -280
h-110l-227 280h146z" />
    <glyph glyph-name="uacute" unicode="&#xfa;" horiz-adv-x="986" 
d="M727 250v832h111v-1082h-108zM747 452l54 2q0 -102 -20.5 -188.5t-63 -150.5t-110 -99.5t-163.5 -35.5q-67 0 -122.5 23t-94.5 71.5t-60.5 126t-21.5 188.5v693h111v-695q0 -85 16 -143.5t44.5 -92.5t64.5 -49t77 -15q109 0 171.5 51t90 134t27.5 180zM431 1256l191 280
h145l-232 -280h-104z" />
    <glyph glyph-name="ucircumflex" unicode="&#xfb;" horiz-adv-x="986" 
d="M727 250v832h111v-1082h-108zM747 452l54 2q0 -102 -20.5 -188.5t-63 -150.5t-110 -99.5t-163.5 -35.5q-67 0 -122.5 23t-94.5 71.5t-60.5 126t-21.5 188.5v693h111v-695q0 -85 16 -143.5t44.5 -92.5t64.5 -49t77 -15q109 0 171.5 51t90 134t27.5 180zM536 1528l204 -260
v-10h-100l-139 183l-137 -183h-97v13l200 257h69z" />
    <glyph glyph-name="udieresis" unicode="&#xfc;" horiz-adv-x="986" 
d="M727 250v832h111v-1082h-108zM747 452l54 2q0 -102 -20.5 -188.5t-63 -150.5t-110 -99.5t-163.5 -35.5q-67 0 -122.5 23t-94.5 71.5t-60.5 126t-21.5 188.5v693h111v-695q0 -85 16 -143.5t44.5 -92.5t64.5 -49t77 -15q109 0 171.5 51t90 134t27.5 180zM202 1395
q0 35 21.5 58.5t60.5 23.5t61 -23.5t22 -58.5q0 -34 -22 -57t-61 -23t-60.5 23t-21.5 57zM639 1394q0 35 22 59t60 24q39 0 61.5 -24t22.5 -59q0 -34 -22.5 -57t-61.5 -23q-38 0 -60 23t-22 57z" />
    <glyph glyph-name="yacute" unicode="&#xfd;" horiz-adv-x="857" 
d="M416 109l278 973h119l-381 -1255q-12 -37 -30.5 -82.5t-48 -87t-73 -68t-105.5 -26.5q-16 0 -42 4.5t-37 8.5l-1 102q9 -2 26 -4t24 -2q54 0 91 22t62.5 65.5t44.5 107.5zM168 1082l278 -926l30 -127l-81 -50l-349 1103h122zM380 1256l191 280h145l-232 -280h-104z" />
    <glyph glyph-name="thorn" unicode="&#xfe;" horiz-adv-x="1011" 
d="M265 1536v-1952h-113v1952h113zM892 551v-21q0 -121 -23.5 -221.5t-68 -174t-109 -114t-148.5 -40.5q-83 0 -146.5 30.5t-109 85.5t-73.5 130t-38 166v272q12 98 40 178.5t73.5 138.5t108.5 89.5t143 31.5q85 0 150 -38.5t110 -111t68 -174t23 -227.5zM780 530v21
q0 94 -16 175t-48.5 141.5t-82.5 94.5t-118 34q-70 0 -119.5 -28.5t-82 -75t-51.5 -101t-28 -107.5v-318q12 -56 34 -107t56 -90t81.5 -61.5t110.5 -22.5q67 0 117 34t82.5 94.5t48.5 141.5t16 175z" />
    <glyph glyph-name="ydieresis" unicode="&#xff;" horiz-adv-x="857" 
d="M416 109l278 973h119l-381 -1255q-12 -37 -30.5 -82.5t-48 -87t-73 -68t-105.5 -26.5q-16 0 -42 4.5t-37 8.5l-1 102q9 -2 26 -4t24 -2q54 0 91 22t62.5 65.5t44.5 107.5zM168 1082l278 -926l30 -127l-81 -50l-349 1103h122zM152 1395q0 35 21.5 58.5t60.5 23.5t61 -23.5
t22 -58.5q0 -34 -22 -57t-61 -23t-60.5 23t-21.5 57zM589 1394q0 35 22 59t60 24q39 0 61.5 -24t22.5 -59q0 -34 -22.5 -57t-61.5 -23q-38 0 -60 23t-22 57z" />
    <glyph glyph-name="Amacron" unicode="&#x100;" 
d="M584 1368l-420 -1368h-118l463 1456h81zM960 0l-420 1368l-5 88h80l464 -1456h-119zM895 515v-108h-657v108h657zM833 1766v-100h-529v100h529z" />
    <glyph glyph-name="amacron" unicode="&#x101;" horiz-adv-x="965" 
d="M699 194v589q0 76 -26 123.5t-76 69.5t-123 22q-69 0 -122.5 -27.5t-83 -76t-29.5 -111.5l-111 1q0 62 25 119.5t71 102t110.5 70.5t143.5 26q97 0 172 -31t117.5 -102t42.5 -188v-553q0 -57 7.5 -117t20.5 -98v-13h-118q-11 35 -16 89.5t-5 104.5zM722 632l3 -95h-192
q-78 0 -137 -17t-98.5 -49t-59.5 -76t-20 -100q0 -72 23 -117.5t67.5 -67t106.5 -21.5q82 0 144.5 32.5t102.5 87t52 115.5l30 -68q-10 -46 -37 -94t-70 -89.5t-102 -67.5t-133 -26q-89 0 -155.5 34t-103 103t-36.5 170q0 75 25.5 138t76.5 109.5t128 72.5t179 26h206z
M776 1451v-100h-529v100h529z" />
    <glyph glyph-name="Abreve" unicode="&#x102;" 
d="M584 1368l-420 -1368h-118l463 1456h81zM960 0l-420 1368l-5 88h80l464 -1456h-119zM895 515v-108h-657v108h657zM750 1809h103q0 -76 -35 -134.5t-99.5 -91.5t-154.5 -33q-135 0 -212.5 72.5t-77.5 186.5h103q0 -69 42 -119.5t144 -50.5q101 0 144 50.5t43 119.5z" />
    <glyph glyph-name="abreve" unicode="&#x103;" horiz-adv-x="965" 
d="M699 194v589q0 76 -26 123.5t-76 69.5t-123 22q-69 0 -122.5 -27.5t-83 -76t-29.5 -111.5l-111 1q0 62 25 119.5t71 102t110.5 70.5t143.5 26q97 0 172 -31t117.5 -102t42.5 -188v-553q0 -57 7.5 -117t20.5 -98v-13h-118q-11 35 -16 89.5t-5 104.5zM722 632l3 -95h-192
q-78 0 -137 -17t-98.5 -49t-59.5 -76t-20 -100q0 -72 23 -117.5t67.5 -67t106.5 -21.5q82 0 144.5 32.5t102.5 87t52 115.5l30 -68q-10 -46 -37 -94t-70 -89.5t-102 -67.5t-133 -26q-89 0 -155.5 34t-103 103t-36.5 170q0 75 25.5 138t76.5 109.5t128 72.5t179 26h206z
M693 1494h103q0 -76 -35 -134.5t-99.5 -91.5t-154.5 -33q-135 0 -212.5 72.5t-77.5 186.5h103q0 -69 42 -119.5t144 -50.5q101 0 144 50.5t43 119.5z" />
    <glyph glyph-name="Aogonek" unicode="&#x104;" 
d="M584 1368l-420 -1368h-118l463 1456h81zM960 0l-420 1368l-5 88h80l464 -1456h-119zM895 515v-108h-657v108h657zM1008 39l52 -39q-38 -34 -72.5 -70t-56 -76.5t-21.5 -87.5q0 -34 15 -59t56 -25q30 0 52 12t35 21l12 -86q-19 -15 -48 -29.5t-76 -14.5q-62 0 -103.5 42.5
t-41.5 127.5q0 52 23.5 101.5t67.5 96.5t106 86z" />
    <glyph glyph-name="aogonek" unicode="&#x105;" horiz-adv-x="965" 
d="M699 194v589q0 76 -26 123.5t-76 69.5t-123 22q-69 0 -122.5 -27.5t-83 -76t-29.5 -111.5l-111 1q0 62 25 119.5t71 102t110.5 70.5t143.5 26q97 0 172 -31t117.5 -102t42.5 -188v-553q0 -57 7.5 -117t20.5 -98v-13h-118q-11 35 -16 89.5t-5 104.5zM722 632l3 -95h-192
q-78 0 -137 -17t-98.5 -49t-59.5 -76t-20 -100q0 -72 23 -117.5t67.5 -67t106.5 -21.5q82 0 144.5 32.5t102.5 87t52 115.5l30 -68q-10 -46 -37 -94t-70 -89.5t-102 -67.5t-133 -26q-89 0 -155.5 34t-103 103t-36.5 170q0 75 25.5 138t76.5 109.5t128 72.5t179 26h206z
M770 39l52 -39q-38 -33 -72.5 -69.5t-56 -77t-21.5 -87.5q0 -34 15.5 -59t55.5 -25q30 0 52 12t35 21l12 -86q-18 -15 -47.5 -29.5t-75.5 -14.5q-63 0 -104 42.5t-41 127.5q0 52 23.5 101.5t67 96.5t105.5 86z" />
    <glyph glyph-name="Cacute" unicode="&#x106;" horiz-adv-x="1158" 
d="M930 455h115q-10 -163 -65 -268.5t-152.5 -156.5t-235.5 -51q-105 0 -189 41t-143.5 119t-91 188.5t-31.5 249.5v312q0 137 31.5 245.5t92 185t146 116.5t194.5 40q132 0 227.5 -50t151 -155t65.5 -271h-115q-9 134 -48 215t-108.5 117.5t-172.5 36.5q-85 0 -149.5 -32.5
t-109 -94t-67.5 -150t-23 -201.5v-314q0 -111 22 -201.5t64.5 -155.5t106 -99.5t147.5 -34.5q108 0 179 34t110 114.5t49 220.5zM520 1597l191 280h145l-232 -280h-104z" />
    <glyph glyph-name="cacute" unicode="&#x107;" horiz-adv-x="929" 
d="M490 84q62 0 116.5 23t89.5 78t40 151h106q-4 -116 -53 -195.5t-127 -120.5t-172 -41q-97 0 -170 32t-122 95.5t-74 157t-25 216.5v123q0 122 25 215.5t74 156.5t122 95t170 32q99 0 177 -41.5t124.5 -126.5t50.5 -217h-106q-4 101 -37.5 162.5t-87.5 90t-121 28.5
q-77 0 -130.5 -26.5t-86.5 -77.5t-48 -124t-15 -167v-123q0 -95 15 -169t48.5 -124.5t87 -76.5t129.5 -26zM402 1254l191 280h145l-232 -280h-104z" />
    <glyph glyph-name="Ccircumflex" unicode="&#x108;" horiz-adv-x="1158" 
d="M930 455h115q-10 -163 -65 -268.5t-152.5 -156.5t-235.5 -51q-105 0 -189 41t-143.5 119t-91 188.5t-31.5 249.5v312q0 137 31.5 245.5t92 185t146 116.5t194.5 40q132 0 227.5 -50t151 -155t65.5 -271h-115q-9 134 -48 215t-108.5 117.5t-172.5 36.5q-85 0 -149.5 -32.5
t-109 -94t-67.5 -150t-23 -201.5v-314q0 -111 22 -201.5t64.5 -155.5t106 -99.5t147.5 -34.5q108 0 179 34t110 114.5t49 220.5zM625 1869l204 -260v-10h-100l-139 183l-137 -183h-97v13l200 257h69z" />
    <glyph glyph-name="ccircumflex" unicode="&#x109;" horiz-adv-x="929" 
d="M490 84q62 0 116.5 23t89.5 78t40 151h106q-4 -116 -53 -195.5t-127 -120.5t-172 -41q-97 0 -170 32t-122 95.5t-74 157t-25 216.5v123q0 122 25 215.5t74 156.5t122 95t170 32q99 0 177 -41.5t124.5 -126.5t50.5 -217h-106q-4 101 -37.5 162.5t-87.5 90t-121 28.5
q-77 0 -130.5 -26.5t-86.5 -77.5t-48 -124t-15 -167v-123q0 -95 15 -169t48.5 -124.5t87 -76.5t129.5 -26zM507 1526l204 -260v-10h-100l-139 183l-137 -183h-97v13l200 257h69z" />
    <glyph glyph-name="Cdotaccent" unicode="&#x10a;" horiz-adv-x="1158" 
d="M930 455h115q-10 -163 -65 -268.5t-152.5 -156.5t-235.5 -51q-105 0 -189 41t-143.5 119t-91 188.5t-31.5 249.5v312q0 137 31.5 245.5t92 185t146 116.5t194.5 40q132 0 227.5 -50t151 -155t65.5 -271h-115q-9 134 -48 215t-108.5 117.5t-172.5 36.5q-85 0 -149.5 -32.5
t-109 -94t-67.5 -150t-23 -201.5v-314q0 -111 22 -201.5t64.5 -155.5t106 -99.5t147.5 -34.5q108 0 179 34t110 114.5t49 220.5zM508 1722q0 36 21.5 59.5t60.5 23.5t61.5 -23.5t22.5 -58.5q0 -34 -22.5 -57t-61.5 -23t-60.5 23t-21.5 56z" />
    <glyph glyph-name="cdotaccent" unicode="&#x10b;" horiz-adv-x="929" 
d="M490 84q62 0 116.5 23t89.5 78t40 151h106q-4 -116 -53 -195.5t-127 -120.5t-172 -41q-97 0 -170 32t-122 95.5t-74 157t-25 216.5v123q0 122 25 215.5t74 156.5t122 95t170 32q99 0 177 -41.5t124.5 -126.5t50.5 -217h-106q-4 101 -37.5 162.5t-87.5 90t-121 28.5
q-77 0 -130.5 -26.5t-86.5 -77.5t-48 -124t-15 -167v-123q0 -95 15 -169t48.5 -124.5t87 -76.5t129.5 -26zM390 1379q0 36 21.5 59.5t60.5 23.5t61.5 -23.5t22.5 -58.5q0 -34 -22.5 -57t-61.5 -23t-60.5 23t-21.5 56z" />
    <glyph glyph-name="Ccaron" unicode="&#x10c;" horiz-adv-x="1158" 
d="M930 455h115q-10 -163 -65 -268.5t-152.5 -156.5t-235.5 -51q-105 0 -189 41t-143.5 119t-91 188.5t-31.5 249.5v312q0 137 31.5 245.5t92 185t146 116.5t194.5 40q132 0 227.5 -50t151 -155t65.5 -271h-115q-9 134 -48 215t-108.5 117.5t-172.5 36.5q-85 0 -149.5 -32.5
t-109 -94t-67.5 -150t-23 -201.5v-314q0 -111 22 -201.5t64.5 -155.5t106 -99.5t147.5 -34.5q108 0 179 34t110 114.5t49 220.5zM448 1866l142 -193l141 193h98v-13l-201 -261h-78l-200 264v10h98z" />
    <glyph glyph-name="ccaron" unicode="&#x10d;" horiz-adv-x="929" 
d="M490 84q62 0 116.5 23t89.5 78t40 151h106q-4 -116 -53 -195.5t-127 -120.5t-172 -41q-97 0 -170 32t-122 95.5t-74 157t-25 216.5v123q0 122 25 215.5t74 156.5t122 95t170 32q99 0 177 -41.5t124.5 -126.5t50.5 -217h-106q-4 101 -37.5 162.5t-87.5 90t-121 28.5
q-77 0 -130.5 -26.5t-86.5 -77.5t-48 -124t-15 -167v-123q0 -95 15 -169t48.5 -124.5t87 -76.5t129.5 -26zM330 1523l142 -193l141 193h98v-13l-201 -261h-78l-200 264v10h98z" />
    <glyph glyph-name="Dcaron" unicode="&#x10e;" horiz-adv-x="1167" 
d="M507 0h-273l1 107h272q131 0 223 55t140.5 161t48.5 259v295q0 116 -27.5 204.5t-80 148t-127.5 89.5t-169 30h-287v107h287q116 0 210.5 -38t163.5 -112t106 -182.5t37 -248.5v-293q0 -141 -37 -249.5t-106 -182.5t-165.5 -112t-216.5 -38zM288 1456v-1456h-115v1456
h115zM383 1845l142 -193l141 193h98v-13l-201 -261h-78l-200 264v10h98z" />
    <glyph glyph-name="dcaron" unicode="&#x10f;" horiz-adv-x="1149" 
d="M737 210v1326h111v-1536h-104zM109 490v101q0 136 24.5 233.5t70.5 158.5t111.5 90t146.5 29q79 0 138.5 -29.5t101.5 -83.5t68 -128.5t38 -166.5v-323q-10 -86 -35.5 -158t-68 -124t-103.5 -81t-142 -29q-80 0 -144.5 31t-110.5 94t-70.5 159t-24.5 227zM221 591v-101
q0 -104 15.5 -180t48 -125.5t81.5 -74t116 -24.5q85 0 142 35.5t91.5 94t50.5 128.5v370q-10 48 -29.5 97.5t-51.5 91.5t-81.5 67.5t-119.5 25.5q-68 0 -118 -24.5t-82 -74.5t-47.5 -125.5t-15.5 -180.5zM1089 1538v-78q0 -79 -26 -155t-76 -128l-65 52q30 54 45 107.5
t15 121.5v80h107z" />
    <glyph glyph-name="Dcroat" unicode="&#x110;" horiz-adv-x="1197" 
d="M537 0h-273l1 107h272q131 0 223 55t140.5 161t48.5 259v295q0 116 -27.5 204.5t-80 148t-127.5 89.5t-169 30h-287v107h287q116 0 210.5 -38t163.5 -112t106 -182.5t37 -248.5v-293q0 -141 -37 -249.5t-106 -182.5t-165.5 -112t-216.5 -38zM318 1456v-1456h-115v1456
h115zM591 793v-105h-518v105h518z" />
    <glyph glyph-name="dcroat" unicode="&#x111;" horiz-adv-x="1033" 
d="M737 210v1326h111v-1536h-104zM109 530v21q0 126 24.5 227.5t70.5 174t111 111t146 38.5t143.5 -31.5t106.5 -89.5t71 -138.5t39 -178.5v-263q-10 -92 -36.5 -169t-71 -133.5t-107.5 -87.5t-146 -31q-80 0 -145 40.5t-111 114t-70.5 174t-24.5 221.5zM221 551v-21
q0 -94 16 -174t48 -140.5t81 -94.5t116 -34q85 0 142 40t91.5 105.5t50.5 143.5v308q-9 53 -28.5 107.5t-52 101t-82 75t-119.5 28.5q-68 0 -118 -34t-82 -94.5t-47.5 -141.5t-15.5 -175zM996 1361v-104h-518v104h518z" />
    <glyph glyph-name="Emacron" unicode="&#x112;" horiz-adv-x="1019" 
d="M936 107v-107h-680v107h680zM288 1456v-1456h-115v1456h115zM851 805v-108h-595v108h595zM931 1456v-107h-675v107h675zM809 1772v-100h-529v100h529z" />
    <glyph glyph-name="emacron" unicode="&#x113;" horiz-adv-x="938" 
d="M506 -21q-90 0 -165.5 29.5t-130 90t-84.5 153t-30 218.5v125q0 134 32 230.5t86.5 158t124.5 90t148 28.5q89 0 156.5 -29t113.5 -88t69 -148.5t23 -211.5v-93h-686v104h575v28q-2 106 -29.5 180.5t-82 114t-138.5 39.5q-62 0 -114 -22.5t-89.5 -70.5t-57 -125
t-19.5 -185v-125q0 -99 21.5 -171.5t61.5 -120t96 -71t124 -23.5q84 0 147 28.5t112 86.5l59 -74q-30 -39 -74 -72.5t-105 -53.5t-144 -20zM764 1451v-100h-529v100h529z" />
    <glyph glyph-name="Ebreve" unicode="&#x114;" horiz-adv-x="1019" 
d="M936 107v-107h-680v107h680zM288 1456v-1456h-115v1456h115zM851 805v-108h-595v108h595zM931 1456v-107h-675v107h675zM726 1815h103q0 -76 -35 -134.5t-99.5 -91.5t-154.5 -33q-135 0 -212.5 72.5t-77.5 186.5h103q0 -69 42 -119.5t144 -50.5q101 0 144 50.5t43 119.5z
" />
    <glyph glyph-name="ebreve" unicode="&#x115;" horiz-adv-x="938" 
d="M506 -21q-90 0 -165.5 29.5t-130 90t-84.5 153t-30 218.5v125q0 134 32 230.5t86.5 158t124.5 90t148 28.5q89 0 156.5 -29t113.5 -88t69 -148.5t23 -211.5v-93h-686v104h575v28q-2 106 -29.5 180.5t-82 114t-138.5 39.5q-62 0 -114 -22.5t-89.5 -70.5t-57 -125
t-19.5 -185v-125q0 -99 21.5 -171.5t61.5 -120t96 -71t124 -23.5q84 0 147 28.5t112 86.5l59 -74q-30 -39 -74 -72.5t-105 -53.5t-144 -20zM681 1494h103q0 -76 -35 -134.5t-99.5 -91.5t-154.5 -33q-135 0 -212.5 72.5t-77.5 186.5h103q0 -69 42 -119.5t144 -50.5
q101 0 144 50.5t43 119.5z" />
    <glyph glyph-name="Edotaccent" unicode="&#x116;" horiz-adv-x="1019" 
d="M936 107v-107h-680v107h680zM288 1456v-1456h-115v1456h115zM851 805v-108h-595v108h595zM931 1456v-107h-675v107h675zM458 1701q0 36 21.5 59.5t60.5 23.5t61.5 -23.5t22.5 -58.5q0 -34 -22.5 -57t-61.5 -23t-60.5 23t-21.5 56z" />
    <glyph glyph-name="edotaccent" unicode="&#x117;" horiz-adv-x="938" 
d="M506 -21q-90 0 -165.5 29.5t-130 90t-84.5 153t-30 218.5v125q0 134 32 230.5t86.5 158t124.5 90t148 28.5q89 0 156.5 -29t113.5 -88t69 -148.5t23 -211.5v-93h-686v104h575v28q-2 106 -29.5 180.5t-82 114t-138.5 39.5q-62 0 -114 -22.5t-89.5 -70.5t-57 -125
t-19.5 -185v-125q0 -99 21.5 -171.5t61.5 -120t96 -71t124 -23.5q84 0 147 28.5t112 86.5l59 -74q-30 -39 -74 -72.5t-105 -53.5t-144 -20zM413 1380q0 36 21.5 59.5t60.5 23.5t61.5 -23.5t22.5 -58.5q0 -34 -22.5 -57t-61.5 -23t-60.5 23t-21.5 56z" />
    <glyph glyph-name="Eogonek" unicode="&#x118;" horiz-adv-x="1019" 
d="M936 107v-107h-680v107h680zM288 1456v-1456h-115v1456h115zM851 805v-108h-595v108h595zM931 1456v-107h-675v107h675zM828 39l52 -39q-38 -34 -72.5 -70t-56 -76.5t-21.5 -87.5q0 -34 15 -59t56 -25q30 0 52 12t35 21l12 -86q-19 -15 -48 -29.5t-75 -14.5
q-63 0 -104 42.5t-41 127.5q0 52 23 101.5t67 96.5t106 86z" />
    <glyph glyph-name="eogonek" unicode="&#x119;" horiz-adv-x="938" 
d="M506 -21q-90 0 -165.5 29.5t-130 90t-84.5 153t-30 218.5v125q0 134 32 230.5t86.5 158t124.5 90t148 28.5q89 0 156.5 -29t113.5 -88t69 -148.5t23 -211.5v-93h-686v104h575v28q-2 106 -29.5 180.5t-82 114t-138.5 39.5q-62 0 -114 -22.5t-89.5 -70.5t-57 -125
t-19.5 -185v-125q0 -99 21.5 -171.5t61.5 -120t96 -71t124 -23.5q84 0 147 28.5t112 86.5l59 -74q-30 -39 -74 -72.5t-105 -53.5t-144 -20zM657 82l52 -40q-38 -34 -72.5 -70.5t-56 -77t-21.5 -86.5q0 -34 15.5 -58.5t55.5 -24.5q30 0 52 11.5t35 20.5l12 -86
q-18 -15 -47.5 -29.5t-75.5 -14.5q-63 0 -104.5 42.5t-41.5 126.5q0 52 23.5 102t67.5 97t106 87z" />
    <glyph glyph-name="Ecaron" unicode="&#x11a;" horiz-adv-x="1019" 
d="M936 107v-107h-680v107h680zM288 1456v-1456h-115v1456h115zM851 805v-108h-595v108h595zM931 1456v-107h-675v107h675zM398 1845l142 -193l141 193h98v-13l-201 -261h-78l-200 264v10h98z" />
    <glyph glyph-name="ecaron" unicode="&#x11b;" horiz-adv-x="938" 
d="M506 -21q-90 0 -165.5 29.5t-130 90t-84.5 153t-30 218.5v125q0 134 32 230.5t86.5 158t124.5 90t148 28.5q89 0 156.5 -29t113.5 -88t69 -148.5t23 -211.5v-93h-686v104h575v28q-2 106 -29.5 180.5t-82 114t-138.5 39.5q-62 0 -114 -22.5t-89.5 -70.5t-57 -125
t-19.5 -185v-125q0 -99 21.5 -171.5t61.5 -120t96 -71t124 -23.5q84 0 147 28.5t112 86.5l59 -74q-30 -39 -74 -72.5t-105 -53.5t-144 -20zM353 1524l142 -193l141 193h98v-13l-201 -261h-78l-200 264v10h98z" />
    <glyph glyph-name="Gcircumflex" unicode="&#x11c;" horiz-adv-x="1216" 
d="M1059 694v-524q-21 -29 -72 -74t-137.5 -81t-216.5 -36q-109 0 -198 38t-153.5 112.5t-99.5 184t-35 252.5v335q0 142 31.5 249t91.5 179.5t147.5 109.5t198.5 37q137 0 232 -50.5t148.5 -146.5t62.5 -233h-115q-10 101 -46 173t-105 111t-176 39q-89 0 -155.5 -30
t-110.5 -89t-66 -146t-22 -201v-337q0 -118 25 -207t73.5 -150t117 -92t154.5 -31q92 0 155 23.5t101.5 52.5t55.5 46v379h-320v107h434zM630 1869l204 -260v-10h-100l-139 183l-137 -183h-97v13l200 257h69z" />
    <glyph glyph-name="gcircumflex" unicode="&#x11d;" horiz-adv-x="997" 
d="M745 1082h103v-1109q0 -140 -44.5 -229t-125.5 -131.5t-192 -42.5q-53 0 -113 17t-114 50.5t-91 80.5l52 80q56 -63 121.5 -94t136.5 -31q83 0 141 29t88 94.5t30 172.5v875zM109 490v101q0 136 24 233.5t70 158.5t111.5 90t147.5 29q79 0 138.5 -29t101.5 -83t68 -129
t38 -167v-323q-10 -85 -35.5 -157.5t-68 -124.5t-103.5 -81t-141 -29q-81 0 -146 31t-111 94t-70 159t-24 227zM221 591v-101q0 -104 15.5 -180t47.5 -125.5t81.5 -74t117.5 -24.5q85 0 141.5 35.5t90 94t50.5 127.5v371q-10 48 -29 97t-51.5 91.5t-81.5 68t-119 25.5
q-68 0 -117.5 -24.5t-82 -74.5t-48 -125.5t-15.5 -180.5zM526 1526l204 -260v-10h-100l-139 183l-137 -183h-97v13l200 257h69z" />
    <glyph glyph-name="Gbreve" unicode="&#x11e;" horiz-adv-x="1216" 
d="M1059 694v-524q-21 -29 -72 -74t-137.5 -81t-216.5 -36q-109 0 -198 38t-153.5 112.5t-99.5 184t-35 252.5v335q0 142 31.5 249t91.5 179.5t147.5 109.5t198.5 37q137 0 232 -50.5t148.5 -146.5t62.5 -233h-115q-10 101 -46 173t-105 111t-176 39q-89 0 -155.5 -30
t-110.5 -89t-66 -146t-22 -201v-337q0 -118 25 -207t73.5 -150t117 -92t154.5 -31q92 0 155 23.5t101.5 52.5t55.5 46v379h-320v107h434zM781 1836h103q0 -76 -35 -134.5t-99.5 -91.5t-154.5 -33q-135 0 -212.5 72.5t-77.5 186.5h103q0 -69 42 -119.5t144 -50.5
q101 0 144 50.5t43 119.5z" />
    <glyph glyph-name="gbreve" unicode="&#x11f;" horiz-adv-x="997" 
d="M745 1082h103v-1109q0 -140 -44.5 -229t-125.5 -131.5t-192 -42.5q-53 0 -113 17t-114 50.5t-91 80.5l52 80q56 -63 121.5 -94t136.5 -31q83 0 141 29t88 94.5t30 172.5v875zM109 490v101q0 136 24 233.5t70 158.5t111.5 90t147.5 29q79 0 138.5 -29t101.5 -83t68 -129
t38 -167v-323q-10 -85 -35.5 -157.5t-68 -124.5t-103.5 -81t-141 -29q-81 0 -146 31t-111 94t-70 159t-24 227zM221 591v-101q0 -104 15.5 -180t47.5 -125.5t81.5 -74t117.5 -24.5q85 0 141.5 35.5t90 94t50.5 127.5v371q-10 48 -29 97t-51.5 91.5t-81.5 68t-119 25.5
q-68 0 -117.5 -24.5t-82 -74.5t-48 -125.5t-15.5 -180.5zM677 1493h103q0 -76 -35 -134.5t-99.5 -91.5t-154.5 -33q-135 0 -212.5 72.5t-77.5 186.5h103q0 -69 42 -119.5t144 -50.5q101 0 144 50.5t43 119.5z" />
    <glyph glyph-name="Gdotaccent" unicode="&#x120;" horiz-adv-x="1216" 
d="M1059 694v-524q-21 -29 -72 -74t-137.5 -81t-216.5 -36q-109 0 -198 38t-153.5 112.5t-99.5 184t-35 252.5v335q0 142 31.5 249t91.5 179.5t147.5 109.5t198.5 37q137 0 232 -50.5t148.5 -146.5t62.5 -233h-115q-10 101 -46 173t-105 111t-176 39q-89 0 -155.5 -30
t-110.5 -89t-66 -146t-22 -201v-337q0 -118 25 -207t73.5 -150t117 -92t154.5 -31q92 0 155 23.5t101.5 52.5t55.5 46v379h-320v107h434zM513 1722q0 36 21.5 59.5t60.5 23.5t61.5 -23.5t22.5 -58.5q0 -34 -22.5 -57t-61.5 -23t-60.5 23t-21.5 56z" />
    <glyph glyph-name="gdotaccent" unicode="&#x121;" horiz-adv-x="997" 
d="M745 1082h103v-1109q0 -140 -44.5 -229t-125.5 -131.5t-192 -42.5q-53 0 -113 17t-114 50.5t-91 80.5l52 80q56 -63 121.5 -94t136.5 -31q83 0 141 29t88 94.5t30 172.5v875zM109 490v101q0 136 24 233.5t70 158.5t111.5 90t147.5 29q79 0 138.5 -29t101.5 -83t68 -129
t38 -167v-323q-10 -85 -35.5 -157.5t-68 -124.5t-103.5 -81t-141 -29q-81 0 -146 31t-111 94t-70 159t-24 227zM221 591v-101q0 -104 15.5 -180t47.5 -125.5t81.5 -74t117.5 -24.5q85 0 141.5 35.5t90 94t50.5 127.5v371q-10 48 -29 97t-51.5 91.5t-81.5 68t-119 25.5
q-68 0 -117.5 -24.5t-82 -74.5t-48 -125.5t-15.5 -180.5zM409 1379q0 36 21.5 59.5t60.5 23.5t61.5 -23.5t22.5 -58.5q0 -34 -22.5 -57t-61.5 -23t-60.5 23t-21.5 56z" />
    <glyph glyph-name="uni0122" unicode="&#x122;" horiz-adv-x="1216" 
d="M1059 694v-524q-21 -29 -72 -74t-137.5 -81t-216.5 -36q-109 0 -198 38t-153.5 112.5t-99.5 184t-35 252.5v335q0 142 31.5 249t91.5 179.5t147.5 109.5t198.5 37q137 0 232 -50.5t148.5 -146.5t62.5 -233h-115q-10 101 -46 173t-105 111t-176 39q-89 0 -155.5 -30
t-110.5 -89t-66 -146t-22 -201v-337q0 -118 25 -207t73.5 -150t117 -92t154.5 -31q92 0 155 23.5t101.5 52.5t55.5 46v379h-320v107h434zM686 -111v-78q0 -79 -26 -155t-76 -128l-65 52q30 54 45 107.5t15 121.5v80h107z" />
    <glyph glyph-name="uni0123" unicode="&#x123;" horiz-adv-x="997" 
d="M745 1082h103v-1109q0 -140 -44.5 -229t-125.5 -131.5t-192 -42.5q-53 0 -113 17t-114 50.5t-91 80.5l52 80q56 -63 121.5 -94t136.5 -31q83 0 141 29t88 94.5t30 172.5v875zM109 490v101q0 136 24 233.5t70 158.5t111.5 90t147.5 29q79 0 138.5 -29t101.5 -83t68 -129
t38 -167v-323q-10 -85 -35.5 -157.5t-68 -124.5t-103.5 -81t-141 -29q-81 0 -146 31t-111 94t-70 159t-24 227zM221 591v-101q0 -104 15.5 -180t47.5 -125.5t81.5 -74t117.5 -24.5q85 0 141.5 35.5t90 94t50.5 127.5v371q-10 48 -29 97t-51.5 91.5t-81.5 68t-119 25.5
q-68 0 -117.5 -24.5t-82 -74.5t-48 -125.5t-15.5 -180.5zM433 1265v128q0 49 14 95t34 84.5t41 65.5l70 -50q-26 -54 -37.5 -99t-11.5 -99v-125h-110z" />
    <glyph glyph-name="Hcircumflex" unicode="&#x124;" horiz-adv-x="1259" 
d="M990 805v-108h-727v108h727zM288 1456v-1456h-115v1456h115zM1085 1456v-1456h-115v1456h115zM655 1848l204 -260v-10h-100l-139 183l-137 -183h-97v13l200 257h69z" />
    <glyph glyph-name="hcircumflex" unicode="&#x125;" horiz-adv-x="985" 
d="M260 1536v-1536h-111v1536h111zM235 608l-49 29q4 96 31.5 180t75.5 148.5t113 100.5t144 36q67 0 121 -22t91.5 -69t57.5 -123t20 -183v-705h-111v706q0 111 -25 174t-71.5 89.5t-111.5 26.5q-69 0 -121.5 -37t-89 -96t-55.5 -126.5t-20 -128.5zM466 1847l204 -260v-10
h-100l-139 183l-137 -183h-97v13l200 257h69z" />
    <glyph glyph-name="Hbar" unicode="&#x126;" horiz-adv-x="1230" 
d="M1188 1126v-100h-1146v100h1146zM973 805v-108h-726v108h726zM270 1456v-1456h-114v1456h114zM1068 1456v-1456h-114v1456h114z" />
    <glyph glyph-name="hbar" unicode="&#x127;" horiz-adv-x="1015" 
d="M290 1536v-1536h-111v1536h111zM265 608l-49 29q4 96 31.5 180t75.5 148.5t113 100.5t144 36q67 0 121 -22t91.5 -69t57.5 -123t20 -183v-705h-111v706q0 111 -25 174t-71.5 89.5t-111.5 26.5q-69 0 -121.5 -37t-89 -96t-55.5 -126.5t-20 -128.5zM563 1361v-105h-518v105
h518z" />
    <glyph glyph-name="Itilde" unicode="&#x128;" horiz-adv-x="500" 
d="M309 1456v-1456h-116v1456h116zM459 1823l81 -6q0 -64 -22.5 -113t-60 -75.5t-85.5 -26.5q-43 0 -72 16.5t-51.5 38t-47 38t-60.5 16.5q-38 0 -64 -31t-26 -87l-82 4q0 64 22 112t60 75.5t85 27.5q39 0 68 -17t53.5 -39t50.5 -38t60 -16q38 0 64.5 33t26.5 88z" />
    <glyph glyph-name="itilde" unicode="&#x129;" horiz-adv-x="431" 
d="M271 1082v-1082h-112v1082h112zM425 1491l81 -6q0 -64 -22.5 -113t-60 -75.5t-85.5 -26.5q-43 0 -72 16.5t-51.5 38t-47 38t-60.5 16.5q-38 0 -64 -31t-26 -87l-82 4q0 64 22 112t60 75.5t85 27.5q39 0 68 -17t53.5 -39t50.5 -38t60 -16q38 0 64.5 33t26.5 88z" />
    <glyph glyph-name="Imacron" unicode="&#x12a;" horiz-adv-x="500" 
d="M309 1456v-1456h-116v1456h116zM520 1772v-100h-529v100h529z" />
    <glyph glyph-name="imacron" unicode="&#x12b;" horiz-adv-x="431" 
d="M271 1082v-1082h-112v1082h112zM487 1440v-100h-529v100h529z" />
    <glyph glyph-name="Ibreve" unicode="&#x12c;" horiz-adv-x="500" 
d="M309 1456v-1456h-116v1456h116zM437 1815h103q0 -76 -35 -134.5t-99.5 -91.5t-154.5 -33q-135 0 -212.5 72.5t-77.5 186.5h103q0 -69 42 -119.5t144 -50.5q101 0 144 50.5t43 119.5z" />
    <glyph glyph-name="ibreve" unicode="&#x12d;" horiz-adv-x="431" 
d="M271 1082v-1082h-112v1082h112zM404 1483h103q0 -76 -35 -134.5t-99.5 -91.5t-154.5 -33q-135 0 -212.5 72.5t-77.5 186.5h103q0 -69 42 -119.5t144 -50.5q101 0 144 50.5t43 119.5z" />
    <glyph glyph-name="Iogonek" unicode="&#x12e;" horiz-adv-x="500" 
d="M309 1456v-1456h-116v1456h116zM247 44l53 -39q-39 -33 -73.5 -69.5t-56 -77t-21.5 -87.5q0 -34 15.5 -59t55.5 -25q31 0 53 12t34 21l12 -86q-18 -15 -47.5 -29.5t-75.5 -14.5q-63 0 -104.5 42.5t-41.5 127.5q0 52 23.5 101.5t67.5 96.5t106 86z" />
    <glyph glyph-name="iogonek" unicode="&#x12f;" horiz-adv-x="432" 
d="M272 1082v-1082h-111v1082h111zM144 1393q0 36 19.5 59.5t54.5 23.5q34 0 53.5 -23.5t19.5 -59.5q0 -33 -19.5 -56t-53.5 -23q-35 0 -54.5 23t-19.5 56zM213 39l53 -39q-39 -33 -73.5 -69.5t-56 -77t-21.5 -87.5q0 -34 15.5 -59t55.5 -25q31 0 53 12t34 21l12 -86
q-18 -15 -47.5 -29.5t-75.5 -14.5q-63 0 -104.5 42.5t-41.5 127.5q0 52 23.5 101.5t67.5 96.5t106 86z" />
    <glyph glyph-name="Idotaccent" unicode="&#x130;" horiz-adv-x="500" 
d="M309 1456v-1456h-116v1456h116zM169 1701q0 36 21.5 59.5t60.5 23.5t61.5 -23.5t22.5 -58.5q0 -34 -22.5 -57t-61.5 -23t-60.5 23t-21.5 56z" />
    <glyph glyph-name="dotlessi" unicode="&#x131;" horiz-adv-x="432" 
d="M271 1082v-1082h-112v1082h112z" />
    <glyph glyph-name="IJ" unicode="&#x132;" horiz-adv-x="1488" 
d="M309 1456v-1456h-116v1456h116zM1208 434v1022h114v-1022q0 -147 -48.5 -248t-132.5 -153.5t-191 -52.5q-111 0 -195.5 46t-131 140t-46.5 236h116q0 -104 31 -174.5t88.5 -105.5t137.5 -35q72 0 130.5 39t93 116.5t34.5 191.5z" />
    <glyph glyph-name="ij" unicode="&#x133;" horiz-adv-x="869" 
d="M272 1082v-1082h-111v1082h111zM144 1393q0 36 19.5 59.5t54.5 23.5q34 0 53.5 -23.5t19.5 -59.5q0 -33 -19.5 -56t-53.5 -23q-35 0 -54.5 23t-19.5 56zM588 1082h113v-1211q0 -99 -27.5 -168t-80.5 -104.5t-132 -35.5q-21 0 -45.5 5t-43.5 14l1 101q14 -4 35 -8.5
t39 -4.5q46 0 77 22.5t47.5 67t16.5 111.5v1211zM571 1394q0 35 19.5 58.5t53.5 23.5q35 0 55 -23.5t20 -58.5q0 -34 -20 -57t-55 -23q-34 0 -53.5 23t-19.5 57z" />
    <glyph glyph-name="Jcircumflex" unicode="&#x134;" horiz-adv-x="988" 
d="M708 434v1022h114v-1022q0 -147 -48.5 -248t-132.5 -153.5t-191 -52.5q-111 0 -195.5 46t-131 140t-46.5 236h116q0 -104 31 -174.5t88.5 -105.5t137.5 -35q72 0 130.5 39t93 116.5t34.5 191.5zM787 1828l204 -260v-10h-100l-139 183l-137 -183h-97v13l200 257h69z" />
    <glyph glyph-name="jcircumflex" unicode="&#x135;" horiz-adv-x="442" 
d="M169 1082h113v-1171q0 -112 -31.5 -190t-89 -118t-138.5 -40q-26 0 -48 4.5t-46 14.5l11 100q13 -6 40 -10t44 -4q46 0 78.5 28.5t49.5 83t17 131.5v1171zM259 1485l204 -260v-10h-100l-139 183l-137 -183h-97v13l200 257h69z" />
    <glyph glyph-name="uni0136" unicode="&#x136;" 
d="M288 1456v-1456h-115v1456h115zM1040 1456l-523 -667l-270 -313l-13 141l213 264l451 575h142zM941 0l-503 746l69 103l573 -849h-139zM615 -6v-78q0 -79 -26 -155t-76 -128l-65 52q30 54 45 107.5t15 121.5v80h107z" />
    <glyph glyph-name="uni0137" unicode="&#x137;" horiz-adv-x="889" 
d="M260 1536v-1536h-111v1536h111zM827 1082l-419 -502l-188 -210l-14 121l148 188l334 403h139zM730 0l-368 561l59 106l441 -667h-132zM514 -14v-78q0 -79 -26 -155t-76 -128l-65 52q30 54 45 107.5t15 121.5v80h107z" />
    <glyph glyph-name="kgreenlandic" unicode="&#x138;" horiz-adv-x="978" 
d="M268 1082v-1082h-112v1082h112zM873 1082l-447 -587h-198l-13 110h158l365 477h135zM771 0l-407 511l71 94l478 -605h-142z" />
    <glyph glyph-name="Lacute" unicode="&#x139;" horiz-adv-x="951" 
d="M887 107v-107h-630v107h630zM289 1456v-1456h-116v1456h116zM160 1538l191 280h145l-232 -280h-104z" />
    <glyph glyph-name="lacute" unicode="&#x13a;" horiz-adv-x="432" 
d="M272 1536v-1536h-111v1536h111zM146 1649l191 280h145l-232 -280h-104z" />
    <glyph glyph-name="uni013B" unicode="&#x13b;" horiz-adv-x="951" 
d="M887 107v-107h-630v107h630zM289 1456v-1456h-116v1456h116zM595 -96v-78q0 -79 -26 -155t-76 -128l-65 52q30 54 45 107.5t15 121.5v80h107z" />
    <glyph glyph-name="uni013C" unicode="&#x13c;" horiz-adv-x="432" 
d="M272 1536v-1536h-111v1536h111zM271 -96v-78q0 -79 -26 -155t-76 -128l-65 52q30 54 45 107.5t15 121.5v80h107z" />
    <glyph glyph-name="Lcaron" unicode="&#x13d;" horiz-adv-x="951" 
d="M887 107v-107h-630v107h630zM289 1456v-1456h-116v1456h116zM652 1457v-78q0 -79 -26 -155t-76 -128l-65 52q30 54 45 107.5t15 121.5v80h107z" />
    <glyph glyph-name="lcaron" unicode="&#x13e;" horiz-adv-x="582" 
d="M272 1536v-1536h-111v1536h111zM537 1538v-78q0 -79 -26 -155t-76 -128l-65 52q30 54 45 107.5t15 121.5v80h107z" />
    <glyph glyph-name="Ldot" unicode="&#x13f;" horiz-adv-x="951" 
d="M887 107v-107h-630v107h630zM289 1456v-1456h-116v1456h116zM520 775q0 36 21.5 59.5t60.5 23.5t61.5 -23.5t22.5 -58.5q0 -34 -22.5 -57t-61.5 -23t-60.5 23t-21.5 56z" />
    <glyph glyph-name="ldot" unicode="&#x140;" horiz-adv-x="652" 
d="M272 1536v-1536h-111v1536h111zM385 788q0 36 21.5 59.5t60.5 23.5t61.5 -23.5t22.5 -58.5q0 -34 -22.5 -57t-61.5 -23t-60.5 23t-21.5 56z" />
    <glyph glyph-name="Lslash" unicode="&#x141;" horiz-adv-x="952" 
d="M535 916v-93l-494 -187v93zM884 107v-107h-630v107h630zM286 1456v-1456h-116v1456h116z" />
    <glyph glyph-name="lslash" unicode="&#x142;" horiz-adv-x="489" 
d="M447 930v-91l-404 -187v91zM300 1536v-1536h-112v1536h112z" />
    <glyph glyph-name="Nacute" unicode="&#x143;" horiz-adv-x="1263" 
d="M1089 1456v-1456h-115l-685 1241v-1241h-116v1456h116l686 -1241v1241h114zM560 1570l191 280h145l-232 -280h-104z" />
    <glyph glyph-name="nacute" unicode="&#x144;" horiz-adv-x="987" 
d="M260 851v-851h-111v1082h106zM235 608l-49 29q4 96 31.5 180t75.5 148.5t113 100.5t144 36q67 0 121 -22t91.5 -69t57.5 -123t20 -183v-705h-111v706q0 111 -25 174t-71.5 89.5t-111.5 26.5q-69 0 -121.5 -37t-89 -96t-55.5 -126.5t-20 -128.5zM432 1254l191 280h145
l-232 -280h-104z" />
    <glyph glyph-name="uni0145" unicode="&#x145;" horiz-adv-x="1263" 
d="M1089 1456v-1456h-115l-685 1241v-1241h-116v1456h116l686 -1241v1241h114zM680 -96v-78q0 -79 -26 -155t-76 -128l-65 52q30 54 45 107.5t15 121.5v80h107z" />
    <glyph glyph-name="uni0146" unicode="&#x146;" horiz-adv-x="987" 
d="M260 851v-851h-111v1082h106zM235 608l-49 29q4 96 31.5 180t75.5 148.5t113 100.5t144 36q67 0 121 -22t91.5 -69t57.5 -123t20 -183v-705h-111v706q0 111 -25 174t-71.5 89.5t-111.5 26.5q-69 0 -121.5 -37t-89 -96t-55.5 -126.5t-20 -128.5zM551 -96v-78
q0 -79 -26 -155t-76 -128l-65 52q30 54 45 107.5t15 121.5v80h107z" />
    <glyph glyph-name="Ncaron" unicode="&#x147;" horiz-adv-x="1263" 
d="M1089 1456v-1456h-115l-685 1241v-1241h-116v1456h116l686 -1241v1241h114zM488 1839l142 -193l141 193h98v-13l-201 -261h-78l-200 264v10h98z" />
    <glyph glyph-name="ncaron" unicode="&#x148;" horiz-adv-x="987" 
d="M260 851v-851h-111v1082h106zM235 608l-49 29q4 96 31.5 180t75.5 148.5t113 100.5t144 36q67 0 121 -22t91.5 -69t57.5 -123t20 -183v-705h-111v706q0 111 -25 174t-71.5 89.5t-111.5 26.5q-69 0 -121.5 -37t-89 -96t-55.5 -126.5t-20 -128.5zM361 1523l142 -193
l141 193h98v-13l-201 -261h-78l-200 264v10h98z" />
    <glyph glyph-name="napostrophe" unicode="&#x149;" horiz-adv-x="987" 
d="M260 851v-851h-111v1082h106zM235 608l-49 29q4 96 31.5 180t75.5 148.5t113 100.5t144 36q67 0 121 -22t91.5 -69t57.5 -123t20 -183v-705h-111v706q0 111 -25 174t-71.5 89.5t-111.5 26.5q-69 0 -121.5 -37t-89 -96t-55.5 -126.5t-20 -128.5zM143 1539v-78
q0 -79 -26 -155t-76 -128l-65 52q30 54 45 107.5t15 121.5v80h107z" />
    <glyph glyph-name="Eng" unicode="&#x14a;" horiz-adv-x="1243" 
d="M169 1456h115v-1456h-115v1456zM203 1381l81 75l760 -1381l-81 -75zM963 1456h115v-1542q0 -113 -31.5 -191.5t-90 -119t-139.5 -40.5q-26 0 -48 4.5t-47 14.5l10 105q15 -6 41 -11.5t43 -5.5q47 0 79.5 29t50 83.5t17.5 131.5v1542z" />
    <glyph glyph-name="eng" unicode="&#x14b;" horiz-adv-x="1001" 
d="M262 851v-851h-111v1082h99zM231 565h-36q0 117 22.5 215t66.5 171t110 112t152 39q72 0 128 -25t95 -78.5t59.5 -137.5t20.5 -201v-749q0 -112 -31 -190t-89 -118t-139 -40q-28 0 -52 4.5t-50 14.5l12 105q14 -6 43 -10.5t48 -4.5q47 0 79.5 27.5t50 81t17.5 130.5v749
q0 97 -15.5 162t-44.5 103.5t-70 54.5t-90 16q-80 0 -135.5 -36.5t-89 -98t-48 -138.5t-14.5 -158z" />
    <glyph glyph-name="Omacron" unicode="&#x14c;" horiz-adv-x="1208" 
d="M1075 885v-315q0 -143 -32.5 -253.5t-94 -185.5t-148 -113.5t-195.5 -38.5q-107 0 -194 38.5t-149 113.5t-95.5 185.5t-33.5 253.5v315q0 144 33 255t94.5 185t148.5 112.5t194 38.5q110 0 197 -38.5t148.5 -112.5t94 -185t32.5 -255zM961 570v317q0 119 -23.5 209
t-68.5 150t-112 90t-154 30q-84 0 -150.5 -30t-112 -90.5t-69.5 -150t-24 -208.5v-317q0 -120 24.5 -209.5t70.5 -150t112.5 -90.5t150.5 -30q87 0 153.5 30t111.5 90.5t68 150t23 209.5zM872 1777v-100h-529v100h529z" />
    <glyph glyph-name="omacron" unicode="&#x14d;" horiz-adv-x="1005" 
d="M107 485v112q0 123 28.5 217t81 158.5t125.5 97t160 32.5q89 0 161.5 -32.5t125 -97t81.5 -158.5t29 -217v-112q0 -123 -29 -217.5t-81.5 -158.5t-125 -97t-160.5 -33t-160.5 33t-125.5 97.5t-81.5 158.5t-28.5 217zM219 597v-112q0 -93 18.5 -167t55.5 -126t89.5 -80
t120.5 -28q72 0 125.5 28t89 80t53 126t17.5 167v112q0 91 -19 165t-56.5 126.5t-90.5 81t-120 28.5q-66 0 -119 -28.5t-89.5 -81t-55.5 -126.5t-19 -165zM769 1450v-100h-529v100h529z" />
    <glyph glyph-name="Obreve" unicode="&#x14e;" horiz-adv-x="1208" 
d="M1075 885v-315q0 -143 -32.5 -253.5t-94 -185.5t-148 -113.5t-195.5 -38.5q-107 0 -194 38.5t-149 113.5t-95.5 185.5t-33.5 253.5v315q0 144 33 255t94.5 185t148.5 112.5t194 38.5q110 0 197 -38.5t148.5 -112.5t94 -185t32.5 -255zM961 570v317q0 119 -23.5 209
t-68.5 150t-112 90t-154 30q-84 0 -150.5 -30t-112 -90.5t-69.5 -150t-24 -208.5v-317q0 -120 24.5 -209.5t70.5 -150t112.5 -90.5t150.5 -30q87 0 153.5 30t111.5 90.5t68 150t23 209.5zM789 1820h103q0 -76 -35 -134.5t-99.5 -91.5t-154.5 -33q-135 0 -212.5 72.5
t-77.5 186.5h103q0 -69 42 -119.5t144 -50.5q101 0 144 50.5t43 119.5z" />
    <glyph glyph-name="obreve" unicode="&#x14f;" horiz-adv-x="1005" 
d="M107 485v112q0 123 28.5 217t81 158.5t125.5 97t160 32.5q89 0 161.5 -32.5t125 -97t81.5 -158.5t29 -217v-112q0 -123 -29 -217.5t-81.5 -158.5t-125 -97t-160.5 -33t-160.5 33t-125.5 97.5t-81.5 158.5t-28.5 217zM219 597v-112q0 -93 18.5 -167t55.5 -126t89.5 -80
t120.5 -28q72 0 125.5 28t89 80t53 126t17.5 167v112q0 91 -19 165t-56.5 126.5t-90.5 81t-120 28.5q-66 0 -119 -28.5t-89.5 -81t-55.5 -126.5t-19 -165zM686 1493h103q0 -76 -35 -134.5t-99.5 -91.5t-154.5 -33q-135 0 -212.5 72.5t-77.5 186.5h103q0 -69 42 -119.5
t144 -50.5q101 0 144 50.5t43 119.5z" />
    <glyph glyph-name="Ohungarumlaut" unicode="&#x150;" horiz-adv-x="1208" 
d="M1075 885v-315q0 -143 -32.5 -253.5t-94 -185.5t-148 -113.5t-195.5 -38.5q-107 0 -194 38.5t-149 113.5t-95.5 185.5t-33.5 253.5v315q0 144 33 255t94.5 185t148.5 112.5t194 38.5q110 0 197 -38.5t148.5 -112.5t94 -185t32.5 -255zM961 570v317q0 119 -23.5 209
t-68.5 150t-112 90t-154 30q-84 0 -150.5 -30t-112 -90.5t-69.5 -150t-24 -208.5v-317q0 -120 24.5 -209.5t70.5 -150t112.5 -90.5t150.5 -30q87 0 153.5 30t111.5 90.5t68 150t23 209.5zM636 1557l211 304h130l-231 -304h-110zM416 1557l165 304h125l-191 -304h-99z" />
    <glyph glyph-name="ohungarumlaut" unicode="&#x151;" horiz-adv-x="1005" 
d="M107 485v112q0 123 28.5 217t81 158.5t125.5 97t160 32.5q89 0 161.5 -32.5t125 -97t81.5 -158.5t29 -217v-112q0 -123 -29 -217.5t-81.5 -158.5t-125 -97t-160.5 -33t-160.5 33t-125.5 97.5t-81.5 158.5t-28.5 217zM219 597v-112q0 -93 18.5 -167t55.5 -126t89.5 -80
t120.5 -28q72 0 125.5 28t89 80t53 126t17.5 167v112q0 91 -19 165t-56.5 126.5t-90.5 81t-120 28.5q-66 0 -119 -28.5t-89.5 -81t-55.5 -126.5t-19 -165zM533 1230l211 304h130l-231 -304h-110zM313 1230l165 304h125l-191 -304h-99z" />
    <glyph glyph-name="OE" unicode="&#x152;" horiz-adv-x="1653" 
d="M564 1476q68 0 134 -6t126 -14v-107q-58 12 -123.5 18t-135.5 6q-78 0 -141.5 -33.5t-108.5 -97t-69 -154.5t-24 -206v-306q0 -113 24 -204t69 -156t109 -98.5t142 -33.5q68 0 135 5.5t123 17.5v-107q-60 -7 -125.5 -14t-134.5 -7q-100 0 -183.5 43.5t-144 123t-93.5 189
t-33 241.5v304q0 132 32.5 241.5t93 189.5t143.5 122.5t185 42.5zM1533 107v-107h-680v107h680zM884 1456v-1456h-115v1456h115zM1447 805v-108h-594v108h594zM1528 1456v-107h-675v107h675z" />
    <glyph glyph-name="oe" unicode="&#x153;" horiz-adv-x="1624" 
d="M1200 -20q-87 0 -159.5 39.5t-126.5 110.5t-83.5 168t-29.5 212v54q0 119 30.5 217.5t83.5 171t122.5 111.5t147.5 38q87 0 153.5 -33t113.5 -94t71 -146t24 -190v-102h-679v104h568v30q0 90 -29 164t-85 118.5t-138 44.5q-60 0 -110 -33.5t-86.5 -93.5t-56 -138.5
t-19.5 -168.5v-53q0 -88 20 -166t57.5 -136.5t91 -91.5t120.5 -33q97 0 161.5 32.5t108.5 86.5l47 -85q-46 -58 -123.5 -98t-194.5 -40zM100 526v32q0 117 28 216.5t80.5 173t127 114t166.5 40.5q93 0 167.5 -40.5t127 -114t80.5 -173t28 -216.5v-32q0 -119 -28 -218.5
t-80.5 -173t-126.5 -114t-167 -40.5t-167 40.5t-127 114t-81 173.5t-28 218zM212 557v-33q0 -88 18 -167t54.5 -141t91 -97t127.5 -35q72 0 126 35.5t91 97t55.5 140.5t18.5 168v32q0 87 -19 166t-55.5 141t-91 98t-126.5 36t-126.5 -36t-91 -97.5t-54.5 -141t-18 -166.5z
" />
    <glyph glyph-name="Racute" unicode="&#x154;" horiz-adv-x="1126" 
d="M171 1456h399q129 0 222.5 -49.5t144 -145t50.5 -234.5q0 -103 -36 -187t-99.5 -140t-148.5 -77l-38 -17h-416l-2 107h342q95 0 158 44.5t94.5 116t31.5 153.5q0 99 -34.5 171t-102 111.5t-166.5 39.5h-284v-1349h-115v1456zM918 0l-313 652l122 1l313 -640v-13h-122z
M461 1570l191 280h145l-232 -280h-104z" />
    <glyph glyph-name="racute" unicode="&#x155;" horiz-adv-x="620" 
d="M260 904v-904h-111v1082h108zM575 1089l-3 -111q-18 4 -34 5.5t-35 1.5q-63 0 -110 -28t-79.5 -78.5t-50 -117t-20.5 -143.5l-39 -17q0 105 18 196t55.5 160t95 107t135.5 38q18 0 37.5 -3.5t29.5 -9.5zM293 1254l191 280h145l-232 -280h-104z" />
    <glyph glyph-name="uni0156" unicode="&#x156;" horiz-adv-x="1126" 
d="M171 1456h399q129 0 222.5 -49.5t144 -145t50.5 -234.5q0 -103 -36 -187t-99.5 -140t-148.5 -77l-38 -17h-416l-2 107h342q95 0 158 44.5t94.5 116t31.5 153.5q0 99 -34.5 171t-102 111.5t-166.5 39.5h-284v-1349h-115v1456zM918 0l-313 652l122 1l313 -640v-13h-122z
M584 -96v-78q0 -79 -26 -155t-76 -128l-65 52q30 54 45 107.5t15 121.5v80h107z" />
    <glyph glyph-name="uni0157" unicode="&#x157;" horiz-adv-x="620" 
d="M260 904v-904h-111v1082h108zM575 1089l-3 -111q-18 4 -34 5.5t-35 1.5q-63 0 -110 -28t-79.5 -78.5t-50 -117t-20.5 -143.5l-39 -17q0 105 18 196t55.5 160t95 107t135.5 38q18 0 37.5 -3.5t29.5 -9.5zM264 -91v-78q0 -79 -26 -155t-76 -128l-65 52q30 54 45 107.5
t15 121.5v80h107z" />
    <glyph glyph-name="Rcaron" unicode="&#x158;" horiz-adv-x="1126" 
d="M171 1456h399q129 0 222.5 -49.5t144 -145t50.5 -234.5q0 -103 -36 -187t-99.5 -140t-148.5 -77l-38 -17h-416l-2 107h342q95 0 158 44.5t94.5 116t31.5 153.5q0 99 -34.5 171t-102 111.5t-166.5 39.5h-284v-1349h-115v1456zM918 0l-313 652l122 1l313 -640v-13h-122z
M389 1839l142 -193l141 193h98v-13l-201 -261h-78l-200 264v10h98z" />
    <glyph glyph-name="rcaron" unicode="&#x159;" horiz-adv-x="620" 
d="M260 904v-904h-111v1082h108zM575 1089l-3 -111q-18 4 -34 5.5t-35 1.5q-63 0 -110 -28t-79.5 -78.5t-50 -117t-20.5 -143.5l-39 -17q0 105 18 196t55.5 160t95 107t135.5 38q18 0 37.5 -3.5t29.5 -9.5zM222 1523l142 -193l141 193h98v-13l-201 -261h-78l-200 264v10h98z
" />
    <glyph glyph-name="Sacute" unicode="&#x15a;" horiz-adv-x="1059" 
d="M857 360q0 59 -16 105.5t-53 83.5t-100.5 69.5t-156.5 64.5q-92 31 -165.5 68t-126 85t-80 112t-27.5 150q0 85 30.5 154.5t85.5 119.5t130 77t166 27q130 0 224.5 -58.5t145.5 -157t51 -219.5h-114q0 95 -35.5 169t-104 116.5t-166.5 42.5t-164.5 -36.5t-99.5 -97
t-33 -133.5q0 -52 16 -96t53.5 -81t99.5 -69.5t150 -60.5q99 -32 174.5 -70.5t127 -90t78 -118.5t26.5 -154q0 -90 -31 -160.5t-88 -120t-134 -75.5t-170 -26q-81 0 -162.5 25t-148 78t-106.5 136t-40 198h115q0 -91 30.5 -154.5t79.5 -102t110 -56t123 -17.5q94 0 162.5 34
t106 95.5t37.5 143.5zM475 1581l191 280h145l-232 -280h-104z" />
    <glyph glyph-name="sacute" unicode="&#x15b;" horiz-adv-x="915" 
d="M691 266q0 45 -23.5 82t-77 73t-145.5 78q-73 33 -131 64t-97.5 66t-61 79.5t-21.5 105.5t23 113t65.5 91.5t102 61.5t133.5 22q106 0 181 -40.5t116 -111.5t41 -164h-112q0 56 -26.5 104t-76.5 78t-123 30q-75 0 -122.5 -26.5t-69 -67.5t-21.5 -86q0 -33 10.5 -58.5
t36 -49t72 -49t115.5 -60.5q100 -43 172 -85.5t111 -99t39 -142.5q0 -67 -24 -121.5t-68 -93t-106.5 -59t-138.5 -20.5q-116 0 -196.5 44t-122 116t-41.5 156h111q4 -85 42.5 -131t94.5 -63t112 -17q73 0 124 24t77 65.5t26 91.5zM404 1254l191 280h145l-232 -280h-104z" />
    <glyph glyph-name="Scircumflex" unicode="&#x15c;" horiz-adv-x="1059" 
d="M857 360q0 59 -16 105.5t-53 83.5t-100.5 69.5t-156.5 64.5q-92 31 -165.5 68t-126 85t-80 112t-27.5 150q0 85 30.5 154.5t85.5 119.5t130 77t166 27q130 0 224.5 -58.5t145.5 -157t51 -219.5h-114q0 95 -35.5 169t-104 116.5t-166.5 42.5t-164.5 -36.5t-99.5 -97
t-33 -133.5q0 -52 16 -96t53.5 -81t99.5 -69.5t150 -60.5q99 -32 174.5 -70.5t127 -90t78 -118.5t26.5 -154q0 -90 -31 -160.5t-88 -120t-134 -75.5t-170 -26q-81 0 -162.5 25t-148 78t-106.5 136t-40 198h115q0 -91 30.5 -154.5t79.5 -102t110 -56t123 -17.5q94 0 162.5 34
t106 95.5t37.5 143.5zM581 1853l204 -260v-10h-100l-139 183l-137 -183h-97v13l200 257h69z" />
    <glyph glyph-name="scircumflex" unicode="&#x15d;" horiz-adv-x="915" 
d="M691 266q0 45 -23.5 82t-77 73t-145.5 78q-73 33 -131 64t-97.5 66t-61 79.5t-21.5 105.5t23 113t65.5 91.5t102 61.5t133.5 22q106 0 181 -40.5t116 -111.5t41 -164h-112q0 56 -26.5 104t-76.5 78t-123 30q-75 0 -122.5 -26.5t-69 -67.5t-21.5 -86q0 -33 10.5 -58.5
t36 -49t72 -49t115.5 -60.5q100 -43 172 -85.5t111 -99t39 -142.5q0 -67 -24 -121.5t-68 -93t-106.5 -59t-138.5 -20.5q-116 0 -196.5 44t-122 116t-41.5 156h111q4 -85 42.5 -131t94.5 -63t112 -17q73 0 124 24t77 65.5t26 91.5zM510 1526l204 -260v-10h-100l-139 183
l-137 -183h-97v13l200 257h69z" />
    <glyph glyph-name="Scedilla" unicode="&#x15e;" horiz-adv-x="1059" 
d="M857 360q0 59 -16 105.5t-53 83.5t-100.5 69.5t-156.5 64.5q-92 31 -165.5 68t-126 85t-80 112t-27.5 150q0 85 30.5 154.5t85.5 119.5t130 77t166 27q130 0 224.5 -58.5t145.5 -157t51 -219.5h-114q0 95 -35.5 169t-104 116.5t-166.5 42.5t-164.5 -36.5t-99.5 -97
t-33 -133.5q0 -52 16 -96t53.5 -81t99.5 -69.5t150 -60.5q99 -32 174.5 -70.5t127 -90t78 -118.5t26.5 -154q0 -90 -31 -160.5t-88 -120t-134 -75.5t-170 -26q-81 0 -162.5 25t-148 78t-106.5 136t-40 198h115q0 -91 30.5 -154.5t79.5 -102t110 -56t123 -17.5q94 0 162.5 34
t106 95.5t37.5 143.5zM510 -5h85l-10 -64q52 -8 94.5 -45t42.5 -125q0 -45 -16 -82.5t-47.5 -63t-78 -40.5t-107.5 -15l-5 79q42 0 79 12.5t60.5 39t23.5 68.5q0 39 -15.5 60t-47.5 31.5t-82 16.5z" />
    <glyph glyph-name="scedilla" unicode="&#x15f;" horiz-adv-x="915" 
d="M691 266q0 45 -23.5 82t-77 73t-145.5 78q-73 33 -131 64t-97.5 66t-61 79.5t-21.5 105.5t23 113t65.5 91.5t102 61.5t133.5 22q106 0 181 -40.5t116 -111.5t41 -164h-112q0 56 -26.5 104t-76.5 78t-123 30q-75 0 -122.5 -26.5t-69 -67.5t-21.5 -86q0 -33 10.5 -58.5
t36 -49t72 -49t115.5 -60.5q100 -43 172 -85.5t111 -99t39 -142.5q0 -67 -24 -121.5t-68 -93t-106.5 -59t-138.5 -20.5q-116 0 -196.5 44t-122 116t-41.5 156h111q4 -85 42.5 -131t94.5 -63t112 -17q73 0 124 24t77 65.5t26 91.5zM436 -7h85l-10 -64q52 -8 94.5 -45
t42.5 -125q0 -45 -16 -82.5t-47.5 -63t-78 -40.5t-107.5 -15l-5 79q42 0 79 12.5t60.5 39t23.5 68.5q0 39 -15.5 60t-47.5 31.5t-82 16.5z" />
    <glyph glyph-name="Scaron" unicode="&#x160;" horiz-adv-x="1059" 
d="M857 360q0 59 -16 105.5t-53 83.5t-100.5 69.5t-156.5 64.5q-92 31 -165.5 68t-126 85t-80 112t-27.5 150q0 85 30.5 154.5t85.5 119.5t130 77t166 27q130 0 224.5 -58.5t145.5 -157t51 -219.5h-114q0 95 -35.5 169t-104 116.5t-166.5 42.5t-164.5 -36.5t-99.5 -97
t-33 -133.5q0 -52 16 -96t53.5 -81t99.5 -69.5t150 -60.5q99 -32 174.5 -70.5t127 -90t78 -118.5t26.5 -154q0 -90 -31 -160.5t-88 -120t-134 -75.5t-170 -26q-81 0 -162.5 25t-148 78t-106.5 136t-40 198h115q0 -91 30.5 -154.5t79.5 -102t110 -56t123 -17.5q94 0 162.5 34
t106 95.5t37.5 143.5zM404 1850l142 -193l141 193h98v-13l-201 -261h-78l-200 264v10h98z" />
    <glyph glyph-name="scaron" unicode="&#x161;" horiz-adv-x="915" 
d="M691 266q0 45 -23.5 82t-77 73t-145.5 78q-73 33 -131 64t-97.5 66t-61 79.5t-21.5 105.5t23 113t65.5 91.5t102 61.5t133.5 22q106 0 181 -40.5t116 -111.5t41 -164h-112q0 56 -26.5 104t-76.5 78t-123 30q-75 0 -122.5 -26.5t-69 -67.5t-21.5 -86q0 -33 10.5 -58.5
t36 -49t72 -49t115.5 -60.5q100 -43 172 -85.5t111 -99t39 -142.5q0 -67 -24 -121.5t-68 -93t-106.5 -59t-138.5 -20.5q-116 0 -196.5 44t-122 116t-41.5 156h111q4 -85 42.5 -131t94.5 -63t112 -17q73 0 124 24t77 65.5t26 91.5zM333 1523l142 -193l141 193h98v-13
l-201 -261h-78l-200 264v10h98z" />
    <glyph glyph-name="uni0162" unicode="&#x162;" horiz-adv-x="1067" 
d="M591 1456v-1456h-114v1456h114zM1005 1456v-107h-941v107h941zM496 0h85l-10 -64q52 -8 94.5 -45t42.5 -125q0 -45 -16 -82.5t-47.5 -63t-78 -40.5t-107.5 -15l-5 79q42 0 79 12.5t60.5 39t23.5 68.5q0 39 -15.5 60t-47.5 31.5t-82 16.5z" />
    <glyph glyph-name="uni0163" unicode="&#x163;" horiz-adv-x="595" 
d="M500 1082v-100h-462v100h462zM204 1359h112v-1095q0 -75 16 -113t42 -50.5t56 -12.5q23 0 43.5 3t36.5 8l4 -102q-19 -8 -48.5 -12.5t-62.5 -4.5q-56 0 -101 26.5t-71.5 88.5t-26.5 170v1094zM348 0h85l-10 -64q52 -8 94.5 -45t42.5 -125q0 -45 -16 -82.5t-47.5 -63
t-78 -40.5t-107.5 -15l-5 79q42 0 79 12.5t60.5 39t23.5 68.5q0 39 -15.5 60t-47.5 31.5t-82 16.5z" />
    <glyph glyph-name="Tcaron" unicode="&#x164;" horiz-adv-x="1067" 
d="M591 1456v-1456h-114v1456h114zM1005 1456v-107h-941v107h941zM391 1835l142 -193l141 193h98v-13l-201 -261h-78l-200 264v10h98z" />
    <glyph glyph-name="tcaron" unicode="&#x165;" horiz-adv-x="635" 
d="M500 1082v-100h-462v100h462zM204 1359h112v-1095q0 -75 16 -113t42 -50.5t56 -12.5q23 0 43.5 3t36.5 8l4 -102q-19 -8 -48.5 -12.5t-62.5 -4.5q-56 0 -101 26.5t-71.5 88.5t-26.5 170v1094zM591 1611v-78q0 -79 -26 -155t-76 -128l-65 52q30 54 45 107.5t15 121.5v80
h107z" />
    <glyph glyph-name="Tbar" unicode="&#x166;" horiz-adv-x="1067" 
d="M591 1456v-1456h-114v1456h114zM1005 1456v-107h-941v107h941zM791 938v-104h-518v104h518z" />
    <glyph glyph-name="tbar" unicode="&#x167;" horiz-adv-x="595" 
d="M500 1082v-100h-462v100h462zM204 1359h112v-1095q0 -75 16 -113t42 -50.5t56 -12.5q23 0 43.5 3t36.5 8l4 -102q-19 -8 -48.5 -12.5t-62.5 -4.5q-56 0 -101 26.5t-71.5 88.5t-26.5 170v1094zM545 721v-104h-518v104h518z" />
    <glyph glyph-name="Utilde" unicode="&#x168;" horiz-adv-x="1168" 
d="M904 1456h114v-1026q0 -164 -58.5 -262.5t-157 -143.5t-217.5 -45q-122 0 -220 44.5t-155 143.5t-57 263v1026h114v-1026q0 -127 41 -202.5t113 -108.5t164 -33q94 0 165.5 33.5t112.5 108.5t41 202v1026zM799 1817l81 -6q0 -64 -22.5 -113t-60 -75.5t-85.5 -26.5
q-43 0 -72 16.5t-51.5 38t-47 38t-60.5 16.5q-38 0 -64 -31t-26 -87l-82 4q0 64 22 112t60 75.5t85 27.5q39 0 68 -17t53.5 -39t50.5 -38t60 -16q38 0 64.5 33t26.5 88z" />
    <glyph glyph-name="utilde" unicode="&#x169;" horiz-adv-x="986" 
d="M727 250v832h111v-1082h-108zM747 452l54 2q0 -102 -20.5 -188.5t-63 -150.5t-110 -99.5t-163.5 -35.5q-67 0 -122.5 23t-94.5 71.5t-60.5 126t-21.5 188.5v693h111v-695q0 -85 16 -143.5t44.5 -92.5t64.5 -49t77 -15q109 0 171.5 51t90 134t27.5 180zM709 1503l81 -6
q0 -64 -22.5 -113t-60 -75.5t-85.5 -26.5q-43 0 -72 16.5t-51.5 38t-47 38t-60.5 16.5q-38 0 -64 -31t-26 -87l-82 4q0 64 22 112t60 75.5t85 27.5q39 0 68 -17t53.5 -39t50.5 -38t60 -16q38 0 64.5 33t26.5 88z" />
    <glyph glyph-name="Umacron" unicode="&#x16a;" horiz-adv-x="1168" 
d="M904 1456h114v-1026q0 -164 -58.5 -262.5t-157 -143.5t-217.5 -45q-122 0 -220 44.5t-155 143.5t-57 263v1026h114v-1026q0 -127 41 -202.5t113 -108.5t164 -33q94 0 165.5 33.5t112.5 108.5t41 202v1026zM860 1766v-100h-529v100h529z" />
    <glyph glyph-name="umacron" unicode="&#x16b;" horiz-adv-x="986" 
d="M727 250v832h111v-1082h-108zM747 452l54 2q0 -102 -20.5 -188.5t-63 -150.5t-110 -99.5t-163.5 -35.5q-67 0 -122.5 23t-94.5 71.5t-60.5 126t-21.5 188.5v693h111v-695q0 -85 16 -143.5t44.5 -92.5t64.5 -49t77 -15q109 0 171.5 51t90 134t27.5 180zM770 1452v-100
h-529v100h529z" />
    <glyph glyph-name="Ubreve" unicode="&#x16c;" horiz-adv-x="1168" 
d="M904 1456h114v-1026q0 -164 -58.5 -262.5t-157 -143.5t-217.5 -45q-122 0 -220 44.5t-155 143.5t-57 263v1026h114v-1026q0 -127 41 -202.5t113 -108.5t164 -33q94 0 165.5 33.5t112.5 108.5t41 202v1026zM777 1809h103q0 -76 -35 -134.5t-99.5 -91.5t-154.5 -33
q-135 0 -212.5 72.5t-77.5 186.5h103q0 -69 42 -119.5t144 -50.5q101 0 144 50.5t43 119.5z" />
    <glyph glyph-name="ubreve" unicode="&#x16d;" horiz-adv-x="986" 
d="M727 250v832h111v-1082h-108zM747 452l54 2q0 -102 -20.5 -188.5t-63 -150.5t-110 -99.5t-163.5 -35.5q-67 0 -122.5 23t-94.5 71.5t-60.5 126t-21.5 188.5v693h111v-695q0 -85 16 -143.5t44.5 -92.5t64.5 -49t77 -15q109 0 171.5 51t90 134t27.5 180zM687 1495h103
q0 -76 -35 -134.5t-99.5 -91.5t-154.5 -33q-135 0 -212.5 72.5t-77.5 186.5h103q0 -69 42 -119.5t144 -50.5q101 0 144 50.5t43 119.5z" />
    <glyph glyph-name="Uring" unicode="&#x16e;" horiz-adv-x="1168" 
d="M904 1456h114v-1026q0 -164 -58.5 -262.5t-157 -143.5t-217.5 -45q-122 0 -220 44.5t-155 143.5t-57 263v1026h114v-1026q0 -127 41 -202.5t113 -108.5t164 -33q94 0 165.5 33.5t112.5 108.5t41 202v1026zM399 1716q0 54 25.5 97.5t69.5 69t98 25.5q82 0 138 -55.5
t56 -136.5q0 -54 -25.5 -96.5t-70 -67t-98.5 -24.5q-82 0 -137.5 53t-55.5 135zM475 1717q0 -49 33 -82.5t84 -33.5t83.5 33t32.5 82q0 50 -32.5 84.5t-83.5 34.5t-84 -34.5t-33 -83.5z" />
    <glyph glyph-name="uring" unicode="&#x16f;" horiz-adv-x="986" 
d="M727 250v832h111v-1082h-108zM747 452l54 2q0 -102 -20.5 -188.5t-63 -150.5t-110 -99.5t-163.5 -35.5q-67 0 -122.5 23t-94.5 71.5t-60.5 126t-21.5 188.5v693h111v-695q0 -85 16 -143.5t44.5 -92.5t64.5 -49t77 -15q109 0 171.5 51t90 134t27.5 180zM309 1403
q0 54 25.5 97.5t69.5 69t98 25.5q82 0 138 -55.5t56 -136.5q0 -54 -25.5 -96.5t-70 -67t-98.5 -24.5q-82 0 -137.5 53t-55.5 135zM385 1404q0 -49 33 -82.5t84 -33.5t83.5 33t32.5 82q0 50 -32.5 84.5t-83.5 34.5t-84 -34.5t-33 -83.5z" />
    <glyph glyph-name="Uhungarumlaut" unicode="&#x170;" horiz-adv-x="1168" 
d="M904 1456h114v-1026q0 -164 -58.5 -262.5t-157 -143.5t-217.5 -45q-122 0 -220 44.5t-155 143.5t-57 263v1026h114v-1026q0 -127 41 -202.5t113 -108.5t164 -33q94 0 165.5 33.5t112.5 108.5t41 202v1026zM624 1546l211 304h130l-231 -304h-110zM404 1546l165 304h125
l-191 -304h-99z" />
    <glyph glyph-name="uhungarumlaut" unicode="&#x171;" horiz-adv-x="986" 
d="M727 250v832h111v-1082h-108zM747 452l54 2q0 -102 -20.5 -188.5t-63 -150.5t-110 -99.5t-163.5 -35.5q-67 0 -122.5 23t-94.5 71.5t-60.5 126t-21.5 188.5v693h111v-695q0 -85 16 -143.5t44.5 -92.5t64.5 -49t77 -15q109 0 171.5 51t90 134t27.5 180zM534 1232l211 304
h130l-231 -304h-110zM314 1232l165 304h125l-191 -304h-99z" />
    <glyph glyph-name="Uogonek" unicode="&#x172;" horiz-adv-x="1168" 
d="M904 1456h114v-1026q0 -164 -58.5 -262.5t-157 -143.5t-217.5 -45q-122 0 -220 44.5t-155 143.5t-57 263v1026h114v-1026q0 -127 41 -202.5t113 -108.5t164 -33q94 0 165.5 33.5t112.5 108.5t41 202v1026zM756 78l52 -39q-38 -34 -72.5 -70.5t-56 -76.5t-21.5 -87
q0 -34 15 -59t56 -25q30 0 51.5 11.5t35.5 21.5l12 -86q-19 -15 -48 -29.5t-75 -14.5q-63 0 -104 42.5t-41 127.5q0 52 23.5 102t67.5 97t105 85z" />
    <glyph glyph-name="uogonek" unicode="&#x173;" horiz-adv-x="986" 
d="M727 250v832h111v-1082h-107zM747 452l54 2q0 -102 -20 -188.5t-63 -150.5t-110.5 -99.5t-163.5 -35.5q-67 0 -122 23t-94.5 71.5t-61 126t-21.5 188.5v693h111v-695q0 -85 16 -143.5t44.5 -92.5t64.5 -49t77 -15q109 0 172 51t90 134t27 180zM781 39l52 -39
q-38 -34 -72.5 -70.5t-56 -77t-21.5 -86.5q0 -34 15.5 -59t55.5 -25q30 0 52 12t35 21l12 -86q-18 -15 -47.5 -29.5t-75.5 -14.5q-63 0 -104.5 42.5t-41.5 127.5q0 52 23.5 101.5t67.5 96.5t106 86z" />
    <glyph glyph-name="Wcircumflex" unicode="&#x174;" horiz-adv-x="1579" 
d="M485 387l261 1069h90l-67 -320l-279 -1136h-87zM188 1456l218 -1059l65 -397h-90l-309 1456h116zM1185 398l215 1058h116l-309 -1456h-90zM847 1456l257 -1069l81 -387h-87l-272 1136l-68 320h89zM832 1842l204 -260v-10h-100l-139 183l-137 -183h-97v13l200 257h69z" />
    <glyph glyph-name="wcircumflex" unicode="&#x175;" horiz-adv-x="1337" 
d="M397 251l222 831h77l-38 -222l-230 -860h-77zM183 1082l195 -836l35 -246h-79l-264 1082h113zM959 250l188 832h114l-265 -1082h-78zM712 1082l218 -823l50 -259h-77l-236 861l-36 221h81zM697 1528l204 -260v-10h-100l-139 183l-137 -183h-97v13l200 257h69z" />
    <glyph glyph-name="Ycircumflex" unicode="&#x176;" horiz-adv-x="1071" 
d="M173 1456l361 -790l363 790h132l-438 -908v-548h-114v548l-438 908h134zM571 1837l204 -260v-10h-100l-139 183l-137 -183h-97v13l200 257h69z" />
    <glyph glyph-name="ycircumflex" unicode="&#x177;" horiz-adv-x="857" 
d="M416 109l278 973h119l-381 -1255q-12 -37 -30.5 -82.5t-48 -87t-73 -68t-105.5 -26.5q-16 0 -42 4.5t-37 8.5l-1 102q9 -2 26 -4t24 -2q54 0 91 22t62.5 65.5t44.5 107.5zM168 1082l278 -926l30 -127l-81 -50l-349 1103h122zM486 1528l204 -260v-10h-100l-139 183
l-137 -183h-97v13l200 257h69z" />
    <glyph glyph-name="Ydieresis" unicode="&#x178;" horiz-adv-x="1071" 
d="M173 1456l361 -790l363 790h132l-438 -908v-548h-114v548l-438 908h134zM237 1704q0 35 21.5 58.5t60.5 23.5t61 -23.5t22 -58.5q0 -34 -22 -57t-61 -23t-60.5 23t-21.5 57zM674 1703q0 35 22 59t60 24q39 0 61.5 -24t22.5 -59q0 -34 -22.5 -57t-61.5 -23q-38 0 -60 23
t-22 57z" />
    <glyph glyph-name="Zacute" unicode="&#x179;" horiz-adv-x="1070" 
d="M977 107v-107h-839v107h839zM950 1366l-783 -1366h-72v96l782 1360h73v-90zM901 1456v-107h-786v107h786zM465 1570l191 280h145l-232 -280h-104z" />
    <glyph glyph-name="zacute" unicode="&#x17a;" horiz-adv-x="880" 
d="M810 105v-105h-676v105h676zM775 992l-613 -992h-68v91l611 991h70v-90zM726 1082v-105h-617v105h617zM380 1256l191 280h145l-232 -280h-104z" />
    <glyph glyph-name="Zdotaccent" unicode="&#x17b;" horiz-adv-x="1070" 
d="M977 107v-107h-839v107h839zM950 1366l-783 -1366h-72v96l782 1360h73v-90zM901 1456v-107h-786v107h786zM453 1695q0 36 21.5 59.5t60.5 23.5t61.5 -23.5t22.5 -58.5q0 -34 -22.5 -57t-61.5 -23t-60.5 23t-21.5 56z" />
    <glyph glyph-name="zdotaccent" unicode="&#x17c;" horiz-adv-x="880" 
d="M810 105v-105h-676v105h676zM775 992l-613 -992h-68v91l611 991h70v-90zM726 1082v-105h-617v105h617zM369 1381q0 36 21.5 59.5t60.5 23.5t61.5 -23.5t22.5 -58.5q0 -34 -22.5 -57t-61.5 -23t-60.5 23t-21.5 56z" />
    <glyph glyph-name="Zcaron" unicode="&#x17d;" horiz-adv-x="1070" 
d="M977 107v-107h-839v107h839zM950 1366l-783 -1366h-72v96l782 1360h73v-90zM901 1456v-107h-786v107h786zM394 1839l142 -193l141 193h98v-13l-201 -261h-78l-200 264v10h98z" />
    <glyph glyph-name="zcaron" unicode="&#x17e;" horiz-adv-x="880" 
d="M810 105v-105h-676v105h676zM775 992l-613 -992h-68v91l611 991h70v-90zM726 1082v-105h-617v105h617zM309 1525l142 -193l141 193h98v-13l-201 -261h-78l-200 264v10h98z" />
    <glyph glyph-name="longs" unicode="&#x17f;" horiz-adv-x="438" 
d="M271 0h-112v1216q0 110 32.5 186t92 115.5t142.5 39.5q29 0 57.5 -4.5t56.5 -14.5l-15 -98q-19 6 -38 9.5t-48 3.5q-52 0 -90.5 -28.5t-58 -81.5t-19.5 -127v-1216z" />
    <glyph glyph-name="uni018F" unicode="&#x18f;" horiz-adv-x="1241" 
d="M625 -20q-120 0 -214 44.5t-159 127.5t-98.5 200.5t-33.5 263.5v125h929v-104h-814v-53q0 -104 23 -194t70.5 -158t121.5 -106t175 -38q89 0 160 45.5t120.5 126t75 186t25.5 227.5v131q0 117 -24 219.5t-74.5 180t-129.5 121t-190 43.5q-115 0 -197.5 -35.5
t-139.5 -82.5l-34 95q29 27 76.5 57.5t120 52t173.5 21.5q129 0 228.5 -49t167.5 -139t102.5 -213t34.5 -271v-131q0 -154 -38 -281t-105.5 -219.5t-157 -142.5t-194.5 -50z" />
    <glyph glyph-name="florin" unicode="&#x192;" horiz-adv-x="608" 
d="M526 1082v-100h-198v-1071q0 -112 -31 -190t-88.5 -118t-138.5 -40q-26 0 -48 4.5t-46 14.5l11 100q13 -6 39.5 -10t42.5 -4q47 0 79.5 28.5t50 83t17.5 131.5v1071h-149v100h149v134q0 110 32 186t91.5 115.5t141.5 39.5q28 0 57 -4.5t58 -14.5l-14 -100q-19 6 -40.5 9
t-49.5 3q-53 0 -90 -27.5t-55.5 -79.5t-18.5 -127v-134h198z" />
    <glyph glyph-name="Ohorn" unicode="&#x1a0;" horiz-adv-x="1237" 
d="M1133 1568h102q0 -124 -32 -209t-97 -129.5t-168 -44.5v95q75 0 117.5 34.5t60 98.5t17.5 155zM1085 805v-153q0 -154 -33.5 -278t-96.5 -212t-151 -135t-197 -47q-86 0 -159.5 31t-133 88t-101.5 139t-64 186t-22 228v153q0 153 34.5 276.5t98.5 212t151 135.5t194 47
q88 0 162 -30.5t132.5 -88t100 -140t63.5 -186.5t22 -226zM972 652v155q0 103 -16 189.5t-47 155t-75 116t-102 73t-127 25.5q-85 0 -152 -39t-114.5 -112t-72.5 -176.5t-25 -231.5v-155q0 -104 17 -191.5t47.5 -156t75.5 -116.5t102 -73t124 -25q87 0 154.5 39t114.5 112
t71.5 177t24.5 234z" />
    <glyph glyph-name="ohorn" unicode="&#x1a1;" horiz-adv-x="1007" 
d="M925 1199h94q0 -105 -23.5 -177.5t-78.5 -111t-151 -38.5v87q69 0 103 29t45 83t11 128zM95 526v32q0 117 29 216.5t82.5 173t128 114t166.5 40.5q94 0 169.5 -40.5t129 -114t82 -173t28.5 -216.5v-32q0 -119 -28.5 -218.5t-82 -173t-128.5 -114t-168 -40.5t-168 40.5
t-128.5 114t-82.5 173t-29 218.5zM207 557v-33q0 -88 19 -167.5t57 -141t93 -96t127 -34.5q71 0 126.5 35t93.5 96t57 140.5t19 168.5v32q0 87 -19 166.5t-57 141t-93.5 97.5t-127.5 36t-127 -36t-93 -97.5t-56.5 -141t-18.5 -166.5z" />
    <glyph glyph-name="Uhorn" unicode="&#x1af;" horiz-adv-x="1216" 
d="M1204 1544h98q0 -128 -31 -217t-100 -133.5t-186 -44.5v96q88 0 135 34t65.5 101t18.5 164zM904 1456h114v-986q0 -164 -59 -273t-157 -163t-217 -54q-122 0 -220 54.5t-155 163t-57 272.5v986h114v-985q0 -127 41 -212.5t113 -128.5t164 -43q93 0 165 43t113 128.5
t41 211.5v986z" />
    <glyph glyph-name="uhorn" unicode="&#x1b0;" horiz-adv-x="1059" 
d="M982 1179h90q0 -103 -23 -173t-79.5 -106t-155.5 -36v86q77 0 112.5 25.5t45.5 76.5t10 127zM727 250v832h111v-1082h-108zM747 452l54 2q0 -102 -20.5 -188.5t-63 -150.5t-110 -99.5t-163.5 -35.5q-67 0 -122.5 23t-94.5 71.5t-60.5 126t-21.5 188.5v693h111v-695
q0 -85 16 -143.5t44.5 -92.5t64.5 -49t77 -15q109 0 171.5 51t90 134t27.5 180z" />
    <glyph glyph-name="uni01F0" unicode="&#x1f0;" horiz-adv-x="442" 
d="M169 1082h113v-1171q0 -112 -31.5 -190t-89 -118t-138.5 -40q-26 0 -48 4.5t-46 14.5l11 100q13 -6 40 -10t44 -4q46 0 78.5 28.5t49.5 83t17 131.5v1171zM82 1482l142 -193l141 193h98v-13l-201 -261h-78l-200 264v10h98z" />
    <glyph glyph-name="Aringacute" unicode="&#x1fa;" 
d="M584 1368l-420 -1368h-118l463 1456h81zM960 0l-420 1368l-5 88h80l464 -1456h-119zM895 515v-108h-657v108h657zM537 1742l130 188h122l-172 -188h-80zM433 1535q0 67 39.5 111.5t93.5 44.5q53 0 92 -44.5t39 -110.5q0 -64 -38.5 -107t-92.5 -43t-93.5 42.5t-39.5 106.5
zM493 1536q0 -36 21.5 -61t51.5 -25t50.5 24.5t20.5 61.5q0 39 -20.5 64.5t-50.5 25.5q-29 0 -51 -25.5t-22 -64.5z" />
    <glyph glyph-name="aringacute" unicode="&#x1fb;" horiz-adv-x="965" 
d="M699 194v589q0 76 -26 123.5t-76 69.5t-123 22q-69 0 -122.5 -27.5t-83 -76t-29.5 -111.5l-111 1q0 62 25 119.5t71 102t110.5 70.5t143.5 26q97 0 172 -31t117.5 -102t42.5 -188v-553q0 -57 7.5 -117t20.5 -98v-13h-118q-11 35 -16 89.5t-5 104.5zM722 632l3 -95h-192
q-78 0 -137 -17t-98.5 -49t-59.5 -76t-20 -100q0 -72 23 -117.5t67.5 -67t106.5 -21.5q82 0 144.5 32.5t102.5 87t52 115.5l30 -68q-10 -46 -37 -94t-70 -89.5t-102 -67.5t-133 -26q-89 0 -155.5 34t-103 103t-36.5 170q0 75 25.5 138t76.5 109.5t128 72.5t179 26h206z
M480 1428l130 188h122l-172 -188h-80zM376 1221q0 67 39.5 111.5t93.5 44.5q53 0 92 -44.5t39 -110.5q0 -64 -38.5 -107t-92.5 -43t-93.5 42.5t-39.5 106.5zM436 1222q0 -36 21.5 -61t51.5 -25t50.5 24.5t20.5 61.5q0 39 -20.5 64.5t-50.5 25.5q-29 0 -51 -25.5t-22 -64.5z
" />
    <glyph glyph-name="AEacute" unicode="&#x1fc;" horiz-adv-x="1614" 
d="M833 1356l-667 -1356h-136l740 1456h76zM918 504v-116h-592v116h592zM1561 105v-105h-616v105h616zM922 1456l53 -1456h-111l-52 1456h110zM1441 811v-104h-529v104h529zM1509 1456v-104h-615v104h615zM749 1576l191 280h145l-232 -280h-104z" />
    <glyph glyph-name="aeacute" unicode="&#x1fd;" horiz-adv-x="1495" 
d="M671 183v537q0 88 -23 150t-69 95t-114 33q-75 0 -128.5 -31.5t-82 -84t-28.5 -117.5l-112 13q0 70 25 129t71.5 103t111 68t143.5 24q95 0 165 -43t110 -128t40 -213v-500zM700 634v-99h-237q-88 0 -146 -34t-86.5 -89.5t-28.5 -121.5q0 -62 23 -109t68.5 -72.5
t113.5 -25.5q52 0 101.5 20.5t90 52.5t66 66.5t28.5 63.5l66 -80q-22 -51 -69.5 -103.5t-122.5 -87.5t-178 -35q-95 0 -162 39t-101.5 110t-34.5 166q0 78 23.5 140.5t70.5 106.5t116 68t160 24h239zM1082 -20q-99 0 -175 39t-127.5 110.5t-77.5 168.5t-26 212v54
q0 119 28.5 218t80 171t120.5 111t150 38q86 0 153 -32t113 -93t69.5 -146.5t23.5 -193.5v-100h-676v100h565v31q0 92 -26 166.5t-81 119t-141 44.5q-64 0 -115.5 -33.5t-86 -93.5t-53 -138.5t-18.5 -168.5v-53q0 -88 17 -166t54 -136.5t93.5 -91.5t135.5 -33q96 0 161 36
t110 82l43 -90q-23 -27 -64 -57.5t-102 -52.5t-148 -22zM671 1255l191 280h145l-232 -280h-104z" />
    <glyph glyph-name="Oslashacute" unicode="&#x1fe;" horiz-adv-x="1208" 
d="M1096 1507l-840 -1591h-94l841 1591h93zM1083 805v-153q0 -154 -33.5 -278t-96.5 -212t-151 -135t-197 -47q-86 0 -159.5 31t-133 88t-101 139.5t-64 186t-22.5 227.5v153q0 153 33.5 276.5t97 212t152 135.5t196.5 47q87 0 161 -30.5t133 -88t100 -140t63 -186.5
t22 -226zM970 652v155q0 103 -16 190t-46.5 155t-75 116t-102 73t-127.5 25q-84 0 -151 -39t-115 -112t-73 -176.5t-25 -231.5v-155q0 -104 16.5 -191.5t48 -156t76 -116.5t101.5 -73t124 -25q87 0 155 39t114.5 112t71 177t24.5 234zM548 1638l191 280h145l-232 -280h-104z
" />
    <glyph glyph-name="oslashacute" unicode="&#x1ff;" horiz-adv-x="1001" 
d="M828 1214l-556 -1354h-84l557 1354h83zM95 526v32q0 117 29 216.5t82.5 173t128 114t166.5 40.5q94 0 169.5 -40.5t129 -114t82 -173t28.5 -216.5v-32q0 -119 -28.5 -218.5t-82 -173t-128.5 -114t-168 -40.5t-168 40.5t-128.5 114t-82.5 173t-29 218.5zM207 557v-33
q0 -88 19 -167.5t57 -141t93 -96t127 -34.5q71 0 126.5 35t93.5 96t57 140.5t19 168.5v32q0 87 -19 166.5t-57 141t-93.5 97.5t-127.5 36t-127 -36t-93 -97.5t-56.5 -141t-18.5 -166.5zM391 1253l191 280h145l-232 -280h-104z" />
    <glyph glyph-name="uni0218" unicode="&#x218;" horiz-adv-x="1059" 
d="M857 360q0 59 -16 105.5t-53 83.5t-100.5 69.5t-156.5 64.5q-92 31 -165.5 68t-126 85t-80 112t-27.5 150q0 85 30.5 154.5t85.5 119.5t130 77t166 27q130 0 224.5 -58.5t145.5 -157t51 -219.5h-114q0 95 -35.5 169t-104 116.5t-166.5 42.5t-164.5 -36.5t-99.5 -97
t-33 -133.5q0 -52 16 -96t53.5 -81t99.5 -69.5t150 -60.5q99 -32 174.5 -70.5t127 -90t78 -118.5t26.5 -154q0 -90 -31 -160.5t-88 -120t-134 -75.5t-170 -26q-81 0 -162.5 25t-148 78t-106.5 136t-40 198h115q0 -91 30.5 -154.5t79.5 -102t110 -56t123 -17.5q94 0 162.5 34
t106 95.5t37.5 143.5zM602 -111v-78q0 -79 -26 -155t-76 -128l-65 52q30 54 45 107.5t15 121.5v80h107z" />
    <glyph glyph-name="uni0219" unicode="&#x219;" horiz-adv-x="915" 
d="M691 266q0 45 -23.5 82t-77 73t-145.5 78q-73 33 -131 64t-97.5 66t-61 79.5t-21.5 105.5t23 113t65.5 91.5t102 61.5t133.5 22q106 0 181 -40.5t116 -111.5t41 -164h-112q0 56 -26.5 104t-76.5 78t-123 30q-75 0 -122.5 -26.5t-69 -67.5t-21.5 -86q0 -33 10.5 -58.5
t36 -49t72 -49t115.5 -60.5q100 -43 172 -85.5t111 -99t39 -142.5q0 -67 -24 -121.5t-68 -93t-106.5 -59t-138.5 -20.5q-116 0 -196.5 44t-122 116t-41.5 156h111q4 -85 42.5 -131t94.5 -63t112 -17q73 0 124 24t77 65.5t26 91.5zM528 -113v-78q0 -79 -26 -155t-76 -128
l-65 52q30 54 45 107.5t15 121.5v80h107z" />
    <glyph glyph-name="uni021A" unicode="&#x21a;" horiz-adv-x="1067" 
d="M591 1456v-1456h-114v1456h114zM1005 1456v-107h-941v107h941zM588 -106v-78q0 -79 -26 -155t-76 -128l-65 52q30 54 45 107.5t15 121.5v80h107z" />
    <glyph glyph-name="uni021B" unicode="&#x21b;" horiz-adv-x="595" 
d="M500 1082v-100h-462v100h462zM204 1359h112v-1095q0 -75 16 -113t42 -50.5t56 -12.5q23 0 43.5 3t36.5 8l4 -102q-19 -8 -48.5 -12.5t-62.5 -4.5q-56 0 -101 26.5t-71.5 88.5t-26.5 170v1094zM441 -106v-78q0 -79 -26 -155t-76 -128l-65 52q30 54 45 107.5t15 121.5v80
h107z" />
    <glyph glyph-name="uni0237" unicode="&#x237;" horiz-adv-x="441" 
d="M169 1082h113v-1171q0 -112 -31.5 -190t-89 -118t-138.5 -40q-26 0 -48 4.5t-46 14.5l11 100q13 -6 40 -10t44 -4q46 0 78.5 28.5t49.5 83t17 131.5v1171z" />
    <glyph glyph-name="uni0259" unicode="&#x259;" horiz-adv-x="931" 
d="M445 1103q87 0 159.5 -39.5t126.5 -111t83.5 -168t29.5 -212.5v-54q0 -118 -30.5 -217t-84 -170.5t-122.5 -110.5t-147 -40q-86 0 -153 33t-113.5 94.5t-70.5 146.5t-24 189v102h679v-103h-567v-30q0 -90 29 -164t84 -118.5t136 -44.5q61 0 111.5 33.5t86.5 93t55.5 138
t19.5 168.5v54q0 89 -20.5 166t-57.5 136t-90 92t-120 33q-97 0 -162 -33t-109 -87l-46 85q46 58 123 98.5t194 40.5z" />
    <glyph glyph-name="uni02BC" unicode="&#x2bc;" horiz-adv-x="354" 
d="M259 1536v-116q0 -61 -14.5 -120t-42.5 -111t-66 -92l-66 53q39 62 59 125.5t20 142.5v118h110z" />
    <glyph glyph-name="circumflex" unicode="&#x2c6;" horiz-adv-x="794" 
d="M427 1528l204 -260v-10h-100l-139 183l-137 -183h-97v13l200 257h69z" />
    <glyph glyph-name="caron" unicode="&#x2c7;" horiz-adv-x="756" 
d="M238 1522l142 -193l141 193h98v-13l-201 -261h-78l-200 264v10h98z" />
    <glyph glyph-name="uni02C9" unicode="&#x2c9;" horiz-adv-x="786" 
d="M666 1442v-100h-529v100h529z" />
    <glyph glyph-name="breve" unicode="&#x2d8;" horiz-adv-x="867" 
d="M614 1492h103q0 -76 -35 -134.5t-99.5 -91.5t-154.5 -33q-135 0 -212.5 72.5t-77.5 186.5h103q0 -69 42 -119.5t144 -50.5q101 0 144 50.5t43 119.5z" />
    <glyph glyph-name="dotaccent" unicode="&#x2d9;" horiz-adv-x="460" 
d="M149 1381q0 36 21.5 59.5t60.5 23.5t61.5 -23.5t22.5 -58.5q0 -34 -22.5 -57t-61.5 -23t-60.5 23t-21.5 56z" />
    <glyph glyph-name="ring" unicode="&#x2da;" horiz-adv-x="637" 
d="M118 1396q0 54 25.5 97.5t69.5 69t98 25.5q82 0 138 -55.5t56 -136.5q0 -54 -25.5 -96.5t-70 -67t-98.5 -24.5q-82 0 -137.5 53t-55.5 135zM194 1397q0 -49 33 -82.5t84 -33.5t83.5 33t32.5 82q0 50 -32.5 84.5t-83.5 34.5t-84 -34.5t-33 -83.5z" />
    <glyph glyph-name="ogonek" unicode="&#x2db;" horiz-adv-x="477" 
d="M266 39l53 -39q-39 -33 -73.5 -69.5t-56 -77t-21.5 -87.5q0 -34 15.5 -59t55.5 -25q31 0 53 12t34 21l12 -86q-18 -15 -47.5 -29.5t-75.5 -14.5q-63 0 -104.5 42.5t-41.5 127.5q0 52 23.5 101.5t67.5 96.5t106 86z" />
    <glyph glyph-name="tilde" unicode="&#x2dc;" horiz-adv-x="801" 
d="M602 1493l81 -6q0 -64 -22.5 -113t-60 -75.5t-85.5 -26.5q-43 0 -72 16.5t-51.5 38t-47 38t-60.5 16.5q-38 0 -64 -31t-26 -87l-82 4q0 64 22 112t60 75.5t85 27.5q39 0 68 -17t53.5 -39t50.5 -38t60 -16q38 0 64.5 33t26.5 88z" />
    <glyph glyph-name="hungarumlaut" unicode="&#x2dd;" horiz-adv-x="688" 
d="M337 1232l211 304h130l-231 -304h-110zM117 1232l165 304h125l-191 -304h-99z" />
    <glyph glyph-name="uni02F3" unicode="&#x2f3;" horiz-adv-x="559" 
d="M148 -231q0 61 39 102.5t93 41.5q53 0 91.5 -41.5t38.5 -102.5t-38.5 -100.5t-91.5 -39.5q-54 0 -93 39.5t-39 100.5zM211 -231q0 -30 20 -51t48 -21q29 0 49 21t20 51q0 32 -20 53t-49 21q-28 0 -48 -21t-20 -53z" />
    <glyph glyph-name="gravecomb" unicode="&#x300;" horiz-adv-x="0" 
d="M-526 1536l160 -280h-99l-196 280h135z" />
    <glyph glyph-name="acutecomb" unicode="&#x301;" horiz-adv-x="0" 
d="M-504 1256l161 280h134l-200 -280h-95z" />
    <glyph glyph-name="tildecomb" unicode="&#x303;" horiz-adv-x="0" 
d="M-212 1493l81 -6q0 -64 -22.5 -113t-60 -75.5t-85.5 -26.5q-43 0 -72 16.5t-51.5 38t-47 38t-60.5 16.5q-38 0 -64 -31t-26 -87l-82 4q0 64 22 112t60 75.5t85 27.5q39 0 68 -17t53.5 -39t50.5 -38t60 -16q38 0 64.5 33t26.5 88z" />
    <glyph glyph-name="hookabovecomb" unicode="&#x309;" horiz-adv-x="0" 
d="M-426 1236h-84v125q48 5 78 15t44.5 29t14.5 51q0 26 -14 44t-37.5 28t-52.5 15t-60 5l6 79q58 0 104.5 -12.5t78.5 -34.5t49.5 -54.5t17.5 -72.5q0 -77 -44 -113t-102 -42z" />
    <glyph glyph-name="uni030F" unicode="&#x30f;" horiz-adv-x="0" 
d="M-439 1252l-223 266h-140l255 -266h108zM-232 1252l-177 266h-129l209 -266h97z" />
    <glyph glyph-name="dotbelowcomb" unicode="&#x323;" horiz-adv-x="0" 
d="M-672 -233q0 35 22 59t59 24q39 0 61.5 -24t22.5 -59q0 -33 -22.5 -56t-60.5 -23t-60 23t-22 56z" />
    <glyph glyph-name="tonos" unicode="&#x384;" horiz-adv-x="521" 
d="M200 1283l73 307h120l-110 -307h-83z" />
    <glyph glyph-name="dieresistonos" unicode="&#x385;" horiz-adv-x="875" 
d="M387 1413l32 253h121l-66 -253h-87zM143 1395q0 35 19.5 58.5t53.5 23.5q35 0 55 -23.5t20 -58.5q0 -34 -20 -57t-56 -23q-34 0 -53 23t-19 57zM577 1394q0 35 19.5 59t54.5 24t54.5 -24t19.5 -59q0 -34 -19.5 -57t-54.5 -23t-54.5 23t-19.5 57z" />
    <glyph glyph-name="Alphatonos" unicode="&#x386;" 
d="M584 1368l-420 -1368h-118l463 1456h81zM960 0l-420 1368l-5 88h80l464 -1456h-119zM895 515v-108h-657v108h657zM158 1281l73 307h120l-110 -307h-83z" />
    <glyph glyph-name="anoteleia" unicode="&#x387;" horiz-adv-x="468" 
d="M155 717q0 36 19.5 60.5t56.5 24.5q36 0 56 -24.5t20 -59.5t-20 -59t-56 -24q-37 0 -56.5 24t-19.5 58z" />
    <glyph glyph-name="Epsilontonos" unicode="&#x388;" horiz-adv-x="1119" 
d="M1036 107v-107h-680v107h680zM388 1456v-1456h-115v1456h115zM951 805v-108h-595v108h595zM1031 1456v-107h-675v107h675zM-63 1283l73 307h120l-110 -307h-83z" />
    <glyph glyph-name="Etatonos" unicode="&#x389;" horiz-adv-x="1359" 
d="M1090 805v-108h-727v108h727zM388 1456v-1456h-115v1456h115zM1185 1456v-1456h-115v1456h115zM-52 1284l73 307h120l-110 -307h-83z" />
    <glyph glyph-name="Iotatonos" unicode="&#x38a;" horiz-adv-x="600" 
d="M409 1456v-1456h-116v1456h116zM-40 1282l73 307h120l-110 -307h-83z" />
    <glyph glyph-name="Omicrontonos" unicode="&#x38c;" horiz-adv-x="1228" 
d="M1095 885v-315q0 -143 -32.5 -253.5t-94 -185.5t-148 -113.5t-195.5 -38.5q-107 0 -194 38.5t-149 113.5t-95.5 185.5t-33.5 253.5v315q0 144 33 255t94.5 185t148.5 112.5t194 38.5q110 0 197 -38.5t148.5 -112.5t94 -185t32.5 -255zM981 570v317q0 119 -23.5 209
t-68.5 150t-112 90t-154 30q-84 0 -150.5 -30t-112 -90.5t-69.5 -150t-24 -208.5v-317q0 -120 24.5 -209.5t70.5 -150t112.5 -90.5t150.5 -30q87 0 153.5 30t111.5 90.5t68 150t23 209.5zM20 1281l73 307h120l-110 -307h-83z" />
    <glyph glyph-name="Upsilontonos" unicode="&#x38e;" horiz-adv-x="1171" 
d="M273 1456l361 -790l363 790h132l-438 -908v-548h-114v548l-438 908h134zM-74 1281l73 307h120l-110 -307h-83z" />
    <glyph glyph-name="Omegatonos" unicode="&#x38f;" horiz-adv-x="1190" 
d="M937 729v117q0 119 -23.5 215t-68 165t-107.5 106t-141 37t-140 -37t-106 -106t-67 -165t-23 -215v-117q0 -139 22 -243.5t60 -178t87.5 -119t103.5 -66.5v-101q-78 23 -148.5 82.5t-124.5 151t-85.5 211.5t-31.5 263v115q0 142 32.5 258t92.5 199.5t143 129t184 45.5
q102 0 186 -45.5t144.5 -129t93.5 -199.5t33 -258v-115q0 -143 -31 -262.5t-84.5 -211.5t-123 -152t-146.5 -82v101q54 22 102.5 67.5t86 119t59 178t21.5 242.5zM668 0v107h389v-107h-389zM141 0v107h393v-107h-393zM28 1281l73 307h120l-110 -307h-83z" />
    <glyph glyph-name="iotadieresistonos" unicode="&#x390;" horiz-adv-x="565" 
d="M175 1082h112v-808q0 -75 16.5 -113t43 -50.5t56.5 -12.5q21 0 42.5 3.5t36.5 6.5l4 -101q-18 -8 -48.5 -12.5t-61.5 -4.5q-58 0 -103.5 25.5t-71.5 88t-26 171.5v807zM185 1390l32 253h121l-66 -253h-87zM-59 1372q0 35 19.5 58.5t53.5 23.5q35 0 55 -23.5t20 -58.5
q0 -34 -20 -57t-56 -23q-34 0 -53 23t-19 57zM375 1371q0 35 19.5 59t54.5 24t54.5 -24t19.5 -59q0 -34 -19.5 -57t-54.5 -23t-54.5 23t-19.5 57z" />
    <glyph glyph-name="Alpha" unicode="&#x391;" 
d="M584 1368l-420 -1368h-118l463 1456h81zM960 0l-420 1368l-5 88h80l464 -1456h-119zM895 515v-108h-657v108h657z" />
    <glyph glyph-name="Beta" unicode="&#x392;" horiz-adv-x="1098" 
d="M597 700h-338l-1 106h293q86 0 148 31t94.5 91.5t32.5 149.5q0 91 -31.5 151.5t-95 90t-158.5 29.5h-253v-1349h-115v1456h367q94 0 168 -22.5t126 -69t79.5 -118.5t27.5 -171q0 -90 -35 -162t-97.5 -118t-148.5 -57zM589 0h-369l61 107h308q88 0 150 36.5t95.5 104.5
t33.5 162q0 81 -29 147t-89.5 104.5t-152.5 38.5h-218l2 106h305l22 -38q84 -11 145.5 -61t95.5 -127t34 -169q0 -133 -49.5 -224.5t-138.5 -139t-206 -47.5z" />
    <glyph glyph-name="Gamma" unicode="&#x393;" horiz-adv-x="991" 
d="M915 1456v-107h-625v-1349h-116v1456h741z" />
    <glyph glyph-name="Delta" unicode="&#x394;" horiz-adv-x="1242" 
d="M635 1323l-460 -1323h-119l516 1456h78zM1060 0l-445 1327l-14 129h78l500 -1456h-119zM1085 107v-107h-942v107h942z" />
    <glyph glyph-name="Delta" unicode="&#x2206;" horiz-adv-x="1242" 
d="M635 1323l-460 -1323h-119l516 1456h78zM1060 0l-445 1327l-14 129h78l500 -1456h-119zM1085 107v-107h-942v107h942z" />
    <glyph glyph-name="Epsilon" unicode="&#x395;" horiz-adv-x="1019" 
d="M936 107v-107h-680v107h680zM288 1456v-1456h-115v1456h115zM851 805v-108h-595v108h595zM931 1456v-107h-675v107h675z" />
    <glyph glyph-name="Zeta" unicode="&#x396;" horiz-adv-x="1070" 
d="M977 107v-107h-839v107h839zM950 1366l-783 -1366h-72v96l782 1360h73v-90zM901 1456v-107h-786v107h786z" />
    <glyph glyph-name="Eta" unicode="&#x397;" horiz-adv-x="1259" 
d="M990 805v-108h-727v108h727zM288 1456v-1456h-115v1456h115zM1085 1456v-1456h-115v1456h115z" />
    <glyph glyph-name="Theta" unicode="&#x398;" horiz-adv-x="1201" 
d="M830 778v-103h-458v103h458zM1076 805v-153q0 -154 -33.5 -278t-96.5 -212t-151 -135t-198 -47q-86 0 -159.5 31t-132.5 88t-101 139.5t-64.5 186t-22.5 227.5v153q0 153 34.5 276.5t98 212t152 135.5t195.5 47q86 0 160.5 -30.5t132.5 -88t100 -140t64 -186.5t22 -226z
M962 652v155q0 103 -16.5 189.5t-47 155t-74.5 116t-101.5 73t-126.5 25.5q-85 0 -152.5 -39t-115 -112t-72.5 -176.5t-25 -231.5v-155q0 -104 16.5 -191t47.5 -156t75.5 -117t101.5 -73t125 -25q87 0 155 39t114.5 112t71 177t24.5 234z" />
    <glyph glyph-name="Iota" unicode="&#x399;" horiz-adv-x="500" 
d="M309 1456v-1456h-116v1456h116z" />
    <glyph glyph-name="Kappa" unicode="&#x39a;" 
d="M288 1456v-1456h-115v1456h115zM1040 1456l-523 -667l-270 -313l-13 141l213 264l451 575h142zM941 0l-503 746l69 103l573 -849h-139z" />
    <glyph glyph-name="Lambda" unicode="&#x39b;" horiz-adv-x="1158" 
d="M603 1353l-405 -1353h-123l446 1456h81zM953 0l-406 1357l2 99h81l447 -1456h-124z" />
    <glyph glyph-name="Mu" unicode="&#x39c;" horiz-adv-x="1531" 
d="M208 1456h115l441 -1280l443 1280h114l-512 -1456h-88zM173 1456h101l14 -822v-634h-115v1456zM1257 1456h101v-1456h-114v634z" />
    <glyph glyph-name="Nu" unicode="&#x39d;" horiz-adv-x="1263" 
d="M1089 1456v-1456h-115l-685 1241v-1241h-116v1456h116l686 -1241v1241h114z" />
    <glyph glyph-name="Xi" unicode="&#x39e;" horiz-adv-x="1006" 
d="M118 0v107h777v-107h-777zM198 680v108h609v-108h-609zM127 1349v107h746v-107h-746z" />
    <glyph glyph-name="Omicron" unicode="&#x39f;" horiz-adv-x="1208" 
d="M1075 885v-315q0 -143 -32.5 -253.5t-94 -185.5t-148 -113.5t-195.5 -38.5q-107 0 -194 38.5t-149 113.5t-95.5 185.5t-33.5 253.5v315q0 144 33 255t94.5 185t148.5 112.5t194 38.5q110 0 197 -38.5t148.5 -112.5t94 -185t32.5 -255zM961 570v317q0 119 -23.5 209
t-68.5 150t-112 90t-154 30q-84 0 -150.5 -30t-112 -90.5t-69.5 -150t-24 -208.5v-317q0 -120 24.5 -209.5t70.5 -150t112.5 -90.5t150.5 -30q87 0 153.5 30t111.5 90.5t68 150t23 209.5z" />
    <glyph glyph-name="Pi" unicode="&#x3a0;" horiz-adv-x="1260" 
d="M1082 1456v-1456h-115v1349h-674v-1349h-116v1456h905z" />
    <glyph glyph-name="Rho" unicode="&#x3a1;" horiz-adv-x="1104" 
d="M596 592h-345v108h345q107 0 173 42.5t96.5 115t30.5 162.5q0 88 -30.5 163t-96.5 120.5t-173 45.5h-308v-1349h-115v1456h423q135 0 227.5 -55t140 -153t47.5 -227q0 -134 -47.5 -230.5t-140 -147.5t-227.5 -51z" />
    <glyph glyph-name="Sigma" unicode="&#x3a3;" horiz-adv-x="1006" 
d="M923 107v-107h-805v107h805zM878 1456v-107h-766v107h766zM622 778v-35l-477 -743h-71v96l427 662l-427 603v95h71z" />
    <glyph glyph-name="Tau" unicode="&#x3a4;" horiz-adv-x="1067" 
d="M591 1456v-1456h-114v1456h114zM1005 1456v-107h-941v107h941z" />
    <glyph glyph-name="Upsilon" unicode="&#x3a5;" horiz-adv-x="1071" 
d="M173 1456l361 -790l363 790h132l-438 -908v-548h-114v548l-438 908h134z" />
    <glyph glyph-name="Phi" unicode="&#x3a6;" horiz-adv-x="1271" 
d="M682 192h-91q-114 0 -206 40t-157.5 113t-100 171t-34.5 213q0 154 61 276.5t172.5 193.5t262.5 71h96q113 0 204.5 -41t156.5 -113.5t100 -170.5t35 -214q0 -154 -61 -276t-173 -192.5t-265 -70.5zM591 300h93q126 0 211 55.5t128.5 152.5t43.5 223q0 94 -25 173
t-73.5 136t-119 89t-163.5 32h-97q-124 0 -208.5 -55.5t-129 -153t-44.5 -223.5q0 -94 24.5 -172.5t73 -136t120.5 -89t166 -31.5zM695 1456v-1456h-116v1456h116z" />
    <glyph glyph-name="Chi" unicode="&#x3a7;" horiz-adv-x="1098" 
d="M215 1456l335 -613l334 613h136l-401 -717l413 -739h-136l-346 633l-347 -633h-136l414 739l-401 717h135z" />
    <glyph glyph-name="Psi" unicode="&#x3a8;" horiz-adv-x="1234" 
d="M995 1456h115v-518q0 -177 -63.5 -300t-174 -187t-251.5 -64h-21q-105 0 -193 36.5t-153 107t-100.5 173t-35.5 234.5v518h115v-518q0 -104 27 -186t76.5 -139.5t116.5 -87.5t147 -30h22q110 0 194 53t131.5 152t47.5 238v518zM667 1456v-1456h-115v1456h115z" />
    <glyph glyph-name="Omega" unicode="&#x3a9;" horiz-adv-x="1170" 
d="M917 729v117q0 119 -23.5 215t-68 165t-107.5 106t-141 37t-140 -37t-106 -106t-67 -165t-23 -215v-117q0 -139 22 -243.5t60 -178t87.5 -119t103.5 -66.5v-101q-78 23 -148.5 82.5t-124.5 151t-85.5 211.5t-31.5 263v115q0 142 32.5 258t92.5 199.5t143 129t184 45.5
q102 0 186 -45.5t144.5 -129t93.5 -199.5t33 -258v-115q0 -143 -31 -262.5t-84.5 -211.5t-123 -152t-146.5 -82v101q54 22 102.5 67.5t86 119t59 178t21.5 242.5zM648 0v107h389v-107h-389zM121 0v107h393v-107h-393z" />
    <glyph glyph-name="Omega" unicode="&#x2126;" horiz-adv-x="1170" 
d="M917 729v117q0 119 -23.5 215t-68 165t-107.5 106t-141 37t-140 -37t-106 -106t-67 -165t-23 -215v-117q0 -139 22 -243.5t60 -178t87.5 -119t103.5 -66.5v-101q-78 23 -148.5 82.5t-124.5 151t-85.5 211.5t-31.5 263v115q0 142 32.5 258t92.5 199.5t143 129t184 45.5
q102 0 186 -45.5t144.5 -129t93.5 -199.5t33 -258v-115q0 -143 -31 -262.5t-84.5 -211.5t-123 -152t-146.5 -82v101q54 22 102.5 67.5t86 119t59 178t21.5 242.5zM648 0v107h389v-107h-389zM121 0v107h393v-107h-393z" />
    <glyph glyph-name="Iotadieresis" unicode="&#x3aa;" horiz-adv-x="500" 
d="M309 1456v-1456h-116v1456h116zM-48 1715q0 35 21.5 58.5t60.5 23.5t61 -23.5t22 -58.5q0 -34 -22 -57t-61 -23t-60.5 23t-21.5 57zM389 1714q0 35 22 59t60 24q39 0 61.5 -24t22.5 -59q0 -34 -22.5 -57t-61.5 -23q-38 0 -60 23t-22 57z" />
    <glyph glyph-name="Upsilondieresis" unicode="&#x3ab;" horiz-adv-x="1071" 
d="M173 1456l361 -790l363 790h132l-438 -908v-548h-114v548l-438 908h134zM237 1704q0 35 21.5 58.5t60.5 23.5t61 -23.5t22 -58.5q0 -34 -22 -57t-61 -23t-60.5 23t-21.5 57zM674 1703q0 35 22 59t60 24q39 0 61.5 -24t22.5 -59q0 -34 -22.5 -57t-61.5 -23q-38 0 -60 23
t-22 57z" />
    <glyph glyph-name="alphatonos" unicode="&#x3ac;" horiz-adv-x="1010" 
d="M112 511v21q0 128 23 232.5t67.5 180t110 116.5t149.5 41q63 0 114 -22t90.5 -63t68.5 -98.5t47.5 -130t28.5 -156.5v-198q-10 -100 -36 -183t-69 -144t-104.5 -94.5t-141.5 -33.5q-83 0 -147.5 38.5t-109.5 109t-68 168t-23 216.5zM224 532v-20q0 -92 15.5 -170.5
t47 -136t80 -89.5t116.5 -32q65 0 112.5 28.5t81.5 79t55.5 115.5t34.5 138v160q-9 66 -29.5 135t-54 127.5t-82.5 94.5t-117 36t-117.5 -36.5t-81 -100.5t-46.5 -148t-15 -181zM752 1082h94v-806q0 -55 6.5 -91t17.5 -57t25.5 -29.5t31.5 -8.5q12 0 21.5 3t18.5 5l15 -94
q-21 -17 -42.5 -21t-43.5 -4q-39 0 -69 16.5t-50.5 52t-31 92t-10.5 136.5v574zM491 1240l73 307h120l-110 -307h-83z" />
    <glyph glyph-name="epsilontonos" unicode="&#x3ad;" horiz-adv-x="974" 
d="M469 581h168v-79h-160q-82 0 -139.5 -21.5t-86.5 -66.5t-29 -117q0 -47 17 -86t50.5 -68t82 -44t110.5 -15q81 0 140.5 30.5t93.5 82t34 115.5h111q0 -85 -32.5 -147.5t-87 -103.5t-122 -61t-136.5 -20q-81 0 -149.5 21.5t-119.5 63t-78 100.5t-27 134q0 68 23 120.5
t69 88.5t113.5 54.5t154.5 18.5zM637 524h-168q-80 0 -143.5 21t-108.5 58.5t-68.5 86.5t-23.5 104q0 75 25 132t72.5 96.5t113.5 59.5t146 20q75 0 140.5 -22t116 -62.5t79 -98.5t28.5 -129h-110q0 61 -34 107.5t-91 74t-128 27.5q-84 0 -138.5 -28t-80.5 -74t-26 -101
q0 -43 13.5 -78t42 -60.5t74.5 -39.5t110 -14h159v-80zM429 1239l73 307h120l-110 -307h-83z" />
    <glyph glyph-name="etatonos" unicode="&#x3ae;" horiz-adv-x="1001" 
d="M262 851v-851h-111v1082h102zM241 565h-55q0 117 23 215t69 171t113 112t155 39q72 0 128 -22t95 -71t59.5 -128.5t20.5 -194.5v-1102h-111v1101q0 92 -15.5 152.5t-44.5 95.5t-69.5 50t-90.5 15q-78 0 -131 -37t-85 -98.5t-46.5 -139t-14.5 -158.5zM452 1240l73 307h120
l-110 -307h-83z" />
    <glyph glyph-name="iotatonos" unicode="&#x3af;" horiz-adv-x="565" 
d="M175 1082h112v-808q0 -75 16.5 -113t43 -50.5t56.5 -12.5q21 0 42.5 3.5t36.5 6.5l4 -101q-18 -8 -48.5 -12.5t-61.5 -4.5q-58 0 -103.5 25.5t-71.5 88t-26 171.5v807zM181 1219l73 307h120l-110 -307h-83z" />
    <glyph glyph-name="upsilondieresistonos" unicode="&#x3b0;" horiz-adv-x="964" 
d="M149 1082h111v-675q0 -87 14.5 -148.5t41.5 -100.5t62.5 -56.5t77.5 -17.5q71 0 122.5 38.5t86 105t51 148.5t16.5 166q-1 149 -29.5 284.5t-69.5 255.5h120q23 -65 43.5 -142.5t33.5 -175t13 -220.5q0 -117 -23.5 -219t-71.5 -179.5t-119.5 -121.5t-167.5 -44
q-71 0 -128.5 25t-98.5 76.5t-63 133t-22 194.5v673zM418 1390l32 253h121l-66 -253h-87zM174 1372q0 35 19.5 58.5t53.5 23.5q35 0 55 -23.5t20 -58.5q0 -34 -20 -57t-56 -23q-34 0 -53 23t-19 57zM608 1371q0 35 19.5 59t54.5 24t54.5 -24t19.5 -59q0 -34 -19.5 -57
t-54.5 -23t-54.5 23t-19.5 57z" />
    <glyph glyph-name="alpha" unicode="&#x3b1;" horiz-adv-x="1010" 
d="M112 511v21q0 128 23 232.5t67.5 180t110 116.5t149.5 41q63 0 114 -22t90.5 -63t68.5 -98.5t47.5 -130t28.5 -156.5v-198q-10 -100 -36 -183t-69 -144t-104.5 -94.5t-141.5 -33.5q-83 0 -147.5 38.5t-109.5 109t-68 168t-23 216.5zM224 532v-20q0 -92 15.5 -170.5
t47 -136t80 -89.5t116.5 -32q65 0 112.5 28.5t81.5 79t55.5 115.5t34.5 138v160q-9 66 -29.5 135t-54 127.5t-82.5 94.5t-117 36t-117.5 -36.5t-81 -100.5t-46.5 -148t-15 -181zM752 1082h94v-806q0 -55 6.5 -91t17.5 -57t25.5 -29.5t31.5 -8.5q12 0 21.5 3t18.5 5l15 -94
q-21 -17 -42.5 -21t-43.5 -4q-39 0 -69 16.5t-50.5 52t-31 92t-10.5 136.5v574z" />
    <glyph glyph-name="beta" unicode="&#x3b2;" horiz-adv-x="1059" 
d="M441 805h124q121 0 204 -53t126 -143.5t43 -203.5q0 -134 -48.5 -230t-134 -146t-197.5 -50q-63 0 -127 21.5t-117.5 65.5t-86.5 112t-33 161l49 31q0 -81 40.5 -145.5t110 -102.5t156.5 -38q89 0 150.5 39t93.5 111t32 167q0 90 -30.5 162t-89.5 114.5t-144 42.5h-121
v85zM521 1476q106 0 183.5 -49t120.5 -135.5t43 -198.5q0 -98 -42 -178.5t-120 -128.5t-185 -48h-80v87h77q84 0 137 34t77.5 95t24.5 143q0 69 -25.5 131.5t-78 103t-132.5 40.5q-68 0 -123 -40t-87.5 -109.5t-32.5 -158.5v-1461h-111v1461q0 118 48 210.5t129 147
t177 54.5z" />
    <glyph glyph-name="gamma" unicode="&#x3b3;" horiz-adv-x="886" 
d="M502 102v-518h-111v518h111zM462 240l257 842h115l-343 -1082h-79zM172 1082l262 -841l47 -241h-78l-345 1082h114z" />
    <glyph glyph-name="delta" unicode="&#x3b4;" horiz-adv-x="1001" 
d="M204 1289q0 81 38 143t108 97t163 35q66 0 124.5 -15.5t116.5 -50.5l-7 -106q-46 26 -103 46t-133 20q-55 0 -99 -19.5t-70 -56.5t-26 -91q0 -32 10.5 -62t35.5 -56.5t69 -51.5t110 -46q121 -42 201.5 -121.5t120.5 -186.5t40 -231v-31q0 -114 -28 -209t-80 -166.5
t-126 -110.5t-167 -39t-167.5 39t-127.5 110.5t-81 166.5t-28 209v31q0 133 42.5 234t109.5 163.5t140 78.5l-2 7q-63 31 -104 73t-60.5 92.5t-19.5 104.5zM211 536v-31q0 -84 18.5 -160.5t54.5 -135t91 -92t128 -33.5q71 0 125 33.5t90.5 92t55 135t18.5 161.5v31
q0 78 -22 148t-61 125.5t-90 92.5t-109 50q-74 0 -130 -34t-93.5 -93t-56.5 -133.5t-19 -156.5z" />
    <glyph glyph-name="epsilon" unicode="&#x3b5;" horiz-adv-x="974" 
d="M469 581h168v-79h-160q-82 0 -139.5 -21.5t-86.5 -66.5t-29 -117q0 -47 17 -86t50.5 -68t82 -44t110.5 -15q81 0 140.5 30.5t93.5 82t34 115.5h111q0 -85 -32.5 -147.5t-87 -103.5t-122 -61t-136.5 -20q-81 0 -149.5 21.5t-119.5 63t-78 100.5t-27 134q0 68 23 120.5
t69 88.5t113.5 54.5t154.5 18.5zM637 524h-168q-80 0 -143.5 21t-108.5 58.5t-68.5 86.5t-23.5 104q0 75 25 132t72.5 96.5t113.5 59.5t146 20q75 0 140.5 -22t116 -62.5t79 -98.5t28.5 -129h-110q0 61 -34 107.5t-91 74t-128 27.5q-84 0 -138.5 -28t-80.5 -74t-26 -101
q0 -43 13.5 -78t42 -60.5t74.5 -39.5t110 -14h159v-80z" />
    <glyph glyph-name="zeta" unicode="&#x3b6;" horiz-adv-x="896" 
d="M748 1456h55v-79l-324 -501q-69 -102 -112 -187.5t-63 -163t-20 -161.5q0 -50 12 -87.5t36 -65.5t60.5 -50t88.5 -38l95 -32q61 -19 106 -40.5t70 -59t25 -102.5q-1 -58 -24.5 -113t-56 -98.5t-60.5 -64.5l-62 58q25 25 46.5 56.5t35.5 68.5t14 79q0 31 -14.5 51.5
t-43.5 36t-74 29.5l-76 24q-78 24 -133 55t-89 71.5t-50 94.5t-16 126q0 71 20 158t68.5 190.5t130.5 223.5zM88 1456h675v-103h-675v103z" />
    <glyph glyph-name="eta" unicode="&#x3b7;" horiz-adv-x="1001" 
d="M262 851v-851h-111v1082h102zM241 565h-55q0 117 23 215t69 171t113 112t155 39q72 0 128 -22t95 -71t59.5 -128.5t20.5 -194.5v-1102h-111v1101q0 92 -15.5 152.5t-44.5 95.5t-69.5 50t-90.5 15q-78 0 -131 -37t-85 -98.5t-46.5 -139t-14.5 -158.5z" />
    <glyph glyph-name="theta" unicode="&#x3b8;" horiz-adv-x="1025" 
d="M825 777v-105h-641v105h641zM890 843v-225q0 -125 -16.5 -226t-48 -178t-77.5 -129t-105 -78.5t-130 -26.5q-70 0 -129 26.5t-105.5 78.5t-79 129t-49 178t-16.5 226v225q0 125 16.5 225.5t48.5 177t78.5 128t105.5 77.5t129 26t129.5 -26t105.5 -77.5t78 -128t48.5 -177
t16.5 -225.5zM779 604v255q0 95 -11.5 175t-32 142.5t-53 106.5t-75 67t-95.5 23q-67 0 -116 -35.5t-82.5 -102.5t-51 -162t-17.5 -214v-255q0 -94 11 -174.5t32.5 -143.5t54 -108t75 -69t95.5 -24t95.5 24t74.5 69t53.5 108t32 143.5t10.5 174.5z" />
    <glyph glyph-name="iota" unicode="&#x3b9;" horiz-adv-x="564" 
d="M175 1082h112v-808q0 -75 16.5 -113t43 -50.5t56.5 -12.5q21 0 42.5 3.5t36.5 6.5l4 -101q-18 -8 -48.5 -12.5t-61.5 -4.5q-58 0 -103.5 25.5t-71.5 88t-26 171.5v807z" />
    <glyph glyph-name="kappa" unicode="&#x3ba;" horiz-adv-x="978" 
d="M268 1082v-1082h-112v1082h112zM873 1082l-447 -587h-198l-13 110h158l365 477h135zM771 0l-407 511l71 94l478 -605h-142z" />
    <glyph glyph-name="lambda" unicode="&#x3bb;" horiz-adv-x="988" 
d="M470 903l-286 -903h-124l364 1102l80 -20zM234 1518q50 0 85 -19.5t58.5 -51t39.5 -69.5t27 -75l341 -1067q14 -47 28.5 -77.5t33 -45.5t43.5 -15q7 0 17.5 1.5l17.5 2.5l6 -103q-9 -4 -25.5 -7.5t-32.5 -3.5q-55 0 -90.5 25t-60 72.5t-45.5 112.5l-247 780l-93 281
q-15 49 -31.5 83.5t-39 53t-56.5 18.5q-6 0 -19 -1t-20 -3l-4 97q10 5 31.5 8t35.5 3z" />
    <glyph glyph-name="uni03BC" unicode="&#x3bc;" horiz-adv-x="1001" 
d="M736 1082h111v-1082h-101l-10 250v832zM754 503l52 2q0 -114 -18 -209.5t-56.5 -166.5t-99 -110t-145.5 -39q-67 0 -123.5 27t-96.5 90.5t-57 172.5l-15 181h71q0 -112 17 -184t46.5 -112t68.5 -55.5t82 -15.5q84 0 137 31.5t83 88.5t42 133.5t12 165.5zM156 1082h110
v-1498h-110v1498z" />
    <glyph glyph-name="nu" unicode="&#x3bd;" horiz-adv-x="869" 
d="M419 117l283 965h114l-336 -1082h-81zM167 1082l287 -967l16 -115h-80l-338 1082h115z" />
    <glyph glyph-name="xi" unicode="&#x3be;" horiz-adv-x="884" 
d="M790 1432l-15 -100q-32 13 -66 22t-69.5 14t-70.5 5q-97 0 -158.5 -31.5t-91 -83.5t-29.5 -116q0 -53 16.5 -97t52.5 -75t93 -47.5t137 -16.5h112v-86h-115q-95 0 -170.5 24.5t-128.5 68t-81 101.5t-28 124q0 82 27 144.5t78.5 106t123.5 65.5t161 22q40 0 79.5 -5
t76.5 -14.5t66 -24.5zM586 881h115v-81h-113q-105 0 -185.5 -37t-126.5 -115t-46 -203q0 -105 38 -173t103 -109.5t146 -67.5l81 -25q67 -20 111 -42.5t66.5 -57.5t22.5 -94q0 -56 -24.5 -107.5t-57 -90.5t-57.5 -60l-65 60q22 24 44.5 50t38 59t15.5 78q0 27 -13.5 46
t-42 34t-76.5 30l-56 17q-84 24 -154.5 58t-122.5 85t-80.5 128t-28.5 186q0 106 34.5 186.5t97 135t148.5 82.5t188 28z" />
    <glyph glyph-name="omicron" unicode="&#x3bf;" horiz-adv-x="1005" 
d="M107 485v112q0 123 28.5 217t81 158.5t125.5 97t160 32.5q89 0 161.5 -32.5t125 -97t81.5 -158.5t29 -217v-112q0 -123 -29 -217.5t-81.5 -158.5t-125 -97t-160.5 -33t-160.5 33t-125.5 97.5t-81.5 158.5t-28.5 217zM219 597v-112q0 -93 18.5 -167t55.5 -126t89.5 -80
t120.5 -28q72 0 125.5 28t89 80t53 126t17.5 167v112q0 91 -19 165t-56.5 126.5t-90.5 81t-120 28.5q-66 0 -119 -28.5t-89.5 -81t-55.5 -126.5t-19 -165z" />
    <glyph glyph-name="pi" unicode="&#x3c0;" horiz-adv-x="1065" 
d="M973 1082v-105h-911v105h911zM324 1082v-1082h-112v1082h112zM711 1082h111v-808q0 -75 15.5 -113t42 -50.5t56.5 -12.5q23 0 44 3.5t37 6.5l3 -101q-18 -8 -48 -12.5t-63 -4.5q-56 0 -101.5 25.5t-71 88t-25.5 171.5v807z" />
    <glyph glyph-name="rho" unicode="&#x3c1;" horiz-adv-x="1001" 
d="M151 -416v1023q0 122 28 214.5t79 155t117.5 94t141.5 31.5q90 0 159 -41t116.5 -116.5t71.5 -180t24 -232.5v-21q0 -119 -23 -216.5t-67 -167.5t-109 -108.5t-147 -38.5q-83 0 -147 29t-109 83t-72.5 130t-35.5 170l13.5 -6.5l27 -13l13.5 -6.5q16 -76 50 -140.5
t91 -102.5t141 -38q68 0 117.5 32t81 89.5t47.5 135t16 169.5v21q0 97 -15.5 181.5t-46.5 148.5t-80 100t-117 36q-69 0 -117.5 -36.5t-78.5 -96t-44 -130.5t-14 -140l-1 -1011h-111z" />
    <glyph glyph-name="sigma1" unicode="&#x3c2;" horiz-adv-x="961" 
d="M502 1102q96 0 173.5 -44t123.5 -130t46 -213h-106q0 89 -30 152.5t-83 97t-124 33.5q-72 0 -123.5 -35.5t-86.5 -97.5t-51.5 -140t-16.5 -163v-42q0 -112 38 -196t111 -141t177 -88q69 -20 116.5 -44t71.5 -64t24 -109q0 -47 -22.5 -98.5t-54 -93.5t-57.5 -62l-61 58
q23 23 43 50.5t32.5 60t12.5 73.5q0 39 -13 61.5t-43 37t-81 28.5q-126 33 -217 99.5t-140 172.5t-49 255v42q0 114 26 212t77 171.5t123 115t164 41.5z" />
    <glyph glyph-name="sigma" unicode="&#x3c3;" horiz-adv-x="1000" 
d="M98 526v32q0 113 28 208.5t80.5 166.5t127 110t166.5 39q24 -1 44 -12t43.5 -25t55.5 -25q81 -38 139 -108t89.5 -164.5t31.5 -208.5v-33q0 -109 -28.5 -204t-80 -168t-126 -113.5t-166.5 -40.5q-93 0 -167.5 40.5t-127.5 114t-81 173.5t-28 218zM210 557v-32
q0 -89 18 -168.5t55 -141t91.5 -96t127.5 -34.5q72 0 126 34.5t90.5 96t55 141t18.5 167.5v33q0 83 -19 158.5t-55 134.5t-91 93t-127 34t-126.5 -34t-91 -93t-54.5 -134.5t-18 -158.5zM974 1082v-105h-475v105h475z" />
    <glyph glyph-name="tau" unicode="&#x3c4;" horiz-adv-x="923" 
d="M837 1082v-103h-752v103h752zM392 1082h111v-808q0 -74 15.5 -115t42 -57t58.5 -16q25 0 44.5 6t37.5 13l24 -92q-32 -21 -64 -27.5t-65 -6.5q-66 0 -111.5 30t-69 96t-23.5 174v803z" />
    <glyph glyph-name="upsilon" unicode="&#x3c5;" horiz-adv-x="964" 
d="M149 1082h111v-675q0 -87 14.5 -148.5t41.5 -100.5t62.5 -56.5t77.5 -17.5q71 0 122.5 38.5t86 105t51 148.5t16.5 166q-1 149 -29.5 284.5t-69.5 255.5h120q23 -65 43.5 -142.5t33.5 -175t13 -220.5q0 -117 -23.5 -219t-71.5 -179.5t-119.5 -121.5t-167.5 -44
q-71 0 -128.5 25t-98.5 76.5t-63 133t-22 194.5v673z" />
    <glyph glyph-name="phi" unicode="&#x3c6;" horiz-adv-x="1226" 
d="M552 -479v1353q0 67 25 113.5t67.5 70.5t92.5 24q80 0 148.5 -39.5t121 -112t81.5 -171t29 -215.5q0 -111 -29.5 -212t-91 -181t-157 -126t-229.5 -46q-135 0 -230 44.5t-154 124t-86.5 184t-27.5 223.5q0 121 27 221t75.5 177.5t114.5 129.5l59 -90q-54 -47 -90 -117.5
t-55 -153t-20 -169.5q0 -86 19 -170t63.5 -151.5t119.5 -107.5t186 -40q140 0 227.5 67.5t128 173.5t40.5 219q-1 84 -19.5 162t-53.5 139.5t-84.5 97t-112.5 35.5q-32 0 -53 -28.5t-21 -72.5v-1356h-111z" />
    <glyph glyph-name="chi" unicode="&#x3c7;" horiz-adv-x="965" 
d="M877 1082l-646 -1497h-117l648 1497h115zM156 1095q55 0 93 -26t64 -66.5t43.5 -84.5t31.5 -79l359 -966q19 -49 37.5 -92t41 -69.5t51.5 -26.5q12 0 35 1.5t36 4.5l-21 -108q-9 -5 -27 -8t-30 -3q-42 0 -73 17t-55.5 50t-46.5 82.5t-48 114.5l-353 959q-18 53 -38 96.5
t-47 69.5t-69 26q-10 0 -28.5 -2.5t-28.5 -4.5l-4 102q13 5 36 9t41 4z" />
    <glyph glyph-name="psi" unicode="&#x3c8;" horiz-adv-x="1222" 
d="M118 1082h112v-491q0 -137 27.5 -233.5t78.5 -157t119.5 -88.5t149.5 -28q114 0 190.5 42t121.5 113.5t65 159t20 179.5q-2 138 -34.5 265t-80.5 239h120q27 -60 51 -133t39.5 -164t15.5 -206q0 -125 -27 -233t-86.5 -191t-155.5 -129t-234 -46q-111 0 -201.5 35.5
t-155.5 110t-100 190.5t-35 277v489zM548 1082h111v-1527h-111v1527z" />
    <glyph glyph-name="omega" unicode="&#x3c9;" horiz-adv-x="1458" 
d="M1090 1082h120q29 -66 55 -145t43 -178.5t17 -225.5q0 -115 -19 -215t-58.5 -176t-100 -119t-144.5 -43q-70 0 -126 30.5t-95.5 92.5t-60 156t-20.5 221v290h84v-292q0 -107 15.5 -182t44 -122t67.5 -68.5t85 -21.5q58 0 99 36.5t67 99t38.5 143t12.5 169.5
q-1 153 -36.5 290.5t-87.5 259.5zM248 1082h121q-53 -122 -88 -259.5t-37 -291.5q0 -70 8 -136t24 -122.5t41 -99t61 -66t82 -23.5t84.5 22t67.5 68.5t45 121.5t16 182v292h84v-290q0 -126 -21 -220.5t-60.5 -156.5t-95 -92.5t-125.5 -30.5q-67 0 -119 28.5t-91 79.5
t-63.5 120t-36.5 152t-12 173q0 127 16.5 226t43 178t55.5 145z" />
    <glyph glyph-name="iotadieresis" unicode="&#x3ca;" horiz-adv-x="565" 
d="M175 1082h112v-808q0 -75 16.5 -113t43 -50.5t56.5 -12.5q21 0 42.5 3.5t36.5 6.5l4 -101q-18 -8 -48.5 -12.5t-61.5 -4.5q-58 0 -103.5 25.5t-71.5 88t-26 171.5v807zM-65 1372q0 35 21.5 58.5t60.5 23.5t61 -23.5t22 -58.5q0 -34 -22 -57t-61 -23t-60.5 23t-21.5 57z
M372 1371q0 35 22 59t60 24q39 0 61.5 -24t22.5 -59q0 -34 -22.5 -57t-61.5 -23q-38 0 -60 23t-22 57z" />
    <glyph glyph-name="upsilondieresis" unicode="&#x3cb;" horiz-adv-x="964" 
d="M149 1082h111v-675q0 -87 14.5 -148.5t41.5 -100.5t62.5 -56.5t77.5 -17.5q71 0 122.5 38.5t86 105t51 148.5t16.5 166q-1 149 -29.5 284.5t-69.5 255.5h120q23 -65 43.5 -142.5t33.5 -175t13 -220.5q0 -117 -23.5 -219t-71.5 -179.5t-119.5 -121.5t-167.5 -44
q-71 0 -128.5 25t-98.5 76.5t-63 133t-22 194.5v673zM169 1372q0 35 21.5 58.5t60.5 23.5t61 -23.5t22 -58.5q0 -34 -22 -57t-61 -23t-60.5 23t-21.5 57zM606 1371q0 35 22 59t60 24q39 0 61.5 -24t22.5 -59q0 -34 -22.5 -57t-61.5 -23q-38 0 -60 23t-22 57z" />
    <glyph glyph-name="omicrontonos" unicode="&#x3cc;" horiz-adv-x="1005" 
d="M107 485v112q0 123 28.5 217t81 158.5t125.5 97t160 32.5q89 0 161.5 -32.5t125 -97t81.5 -158.5t29 -217v-112q0 -123 -29 -217.5t-81.5 -158.5t-125 -97t-160.5 -33t-160.5 33t-125.5 97.5t-81.5 158.5t-28.5 217zM219 597v-112q0 -93 18.5 -167t55.5 -126t89.5 -80
t120.5 -28q72 0 125.5 28t89 80t53 126t17.5 167v112q0 91 -19 165t-56.5 126.5t-90.5 81t-120 28.5q-66 0 -119 -28.5t-89.5 -81t-55.5 -126.5t-19 -165zM446 1240l73 307h120l-110 -307h-83z" />
    <glyph glyph-name="upsilontonos" unicode="&#x3cd;" horiz-adv-x="964" 
d="M149 1082h111v-675q0 -87 14.5 -148.5t41.5 -100.5t62.5 -56.5t77.5 -17.5q71 0 122.5 38.5t86 105t51 148.5t16.5 166q-1 149 -29.5 284.5t-69.5 255.5h120q23 -65 43.5 -142.5t33.5 -175t13 -220.5q0 -117 -23.5 -219t-71.5 -179.5t-119.5 -121.5t-167.5 -44
q-71 0 -128.5 25t-98.5 76.5t-63 133t-22 194.5v673zM413 1219l73 307h120l-110 -307h-83z" />
    <glyph glyph-name="omegatonos" unicode="&#x3ce;" horiz-adv-x="1458" 
d="M1090 1082h120q29 -66 55 -145t43 -178.5t17 -225.5q0 -115 -19 -215t-58.5 -176t-100 -119t-144.5 -43q-70 0 -126 30.5t-95.5 92.5t-60 156t-20.5 221v290h84v-292q0 -107 15.5 -182t44 -122t67.5 -68.5t85 -21.5q58 0 99 36.5t67 99t38.5 143t12.5 169.5
q-1 153 -36.5 290.5t-87.5 259.5zM248 1082h121q-53 -122 -88 -259.5t-37 -291.5q0 -70 8 -136t24 -122.5t41 -99t61 -66t82 -23.5t84.5 22t67.5 68.5t45 121.5t16 182v292h84v-290q0 -126 -21 -220.5t-60.5 -156.5t-95 -92.5t-125.5 -30.5q-67 0 -119 28.5t-91 79.5
t-63.5 120t-36.5 152t-12 173q0 127 16.5 226t43 178t55.5 145zM686 1217l73 307h120l-110 -307h-83z" />
    <glyph glyph-name="theta1" unicode="&#x3d1;" horiz-adv-x="1029" 
d="M972 775l8 -103q-33 -13 -79.5 -23.5t-91.5 -10.5q-159 0 -270 66t-168.5 178.5t-57.5 253.5v19q0 105 34.5 179.5t93 114t130.5 39.5q65 0 115.5 -27t85.5 -78t53.5 -124t18.5 -166v-663q0 -154 -43.5 -253.5t-122.5 -148t-186 -48.5q-80 0 -146.5 30t-114.5 86.5
t-74.5 140.5t-26.5 193v328l112 2v-330q0 -114 30.5 -190t86.5 -114.5t133 -38.5t130.5 34.5t82 110t28.5 198.5v663q0 71 -10 125t-30.5 90t-50.5 54t-71 18q-40 0 -73.5 -23.5t-53 -73t-19.5 -128.5v-21q0 -104 40 -192.5t124.5 -142.5t219.5 -54q45 0 88 9.5t75 20.5z
" />
    <glyph glyph-name="Upsilon1" unicode="&#x3d2;" horiz-adv-x="961" 
d="M543 676v-676h-114v676h114zM499 778l184 484q29 78 59 122.5t66 64t83 19.5q28 0 52 -7t45 -21l-27 -97q-5 5 -20 10t-34 5q-21 0 -42 -10t-41.5 -40t-42.5 -90l-246 -640l-82 11zM288 1261l183 -487l45 -185l-80 -11l-248 640q-22 60 -42.5 90t-41 40t-42.5 10
q-18 0 -33 -5t-21 -10l-26 97q22 14 45.5 21t51.5 7q45 0 82 -19t67.5 -64t59.5 -124z" />
    <glyph glyph-name="omega1" unicode="&#x3d6;" horiz-adv-x="1392" 
d="M1340 1083v-105h-1269v105h1269zM1041 1082h120q29 -66 55.5 -145t43 -178t16.5 -226q0 -90 -12 -173t-35 -152t-59 -120.5t-85.5 -79.5t-112.5 -28q-70 0 -126 30.5t-95 92.5t-60 156t-21 220v268h84v-268q0 -107 15.5 -182.5t44.5 -122.5t68 -68.5t85 -21.5
q42 0 74.5 23.5t56 65.5t38.5 98.5t22 123t7 136.5q-2 154 -37.5 291.5t-86.5 259.5zM236 1082h120q-51 -122 -86 -260t-37 -291q0 -70 7 -136t21.5 -122.5t38.5 -99t56 -66t74 -23.5q47 0 85.5 21.5t66.5 68.5t44 122t16 182v269h84v-268q0 -126 -20.5 -220t-59.5 -156
t-95 -92.5t-127 -30.5q-63 0 -112 28t-85 79.5t-59 120.5t-34.5 152t-11.5 173q0 126 16.5 225.5t43 178.5t54.5 145z" />
    <glyph glyph-name="uni0400" unicode="&#x400;" horiz-adv-x="1019" 
d="M936 107v-107h-680v107h680zM288 1456v-1456h-115v1456h115zM851 805v-108h-595v108h595zM931 1456v-107h-675v107h675zM424 1856l191 -280h-110l-227 280h146z" />
    <glyph glyph-name="uni0401" unicode="&#x401;" horiz-adv-x="1019" 
d="M936 107v-107h-680v107h680zM288 1456v-1456h-115v1456h115zM851 805v-108h-595v108h595zM931 1456v-107h-675v107h675zM241 1715q0 35 21.5 58.5t60.5 23.5t61 -23.5t22 -58.5q0 -34 -22 -57t-61 -23t-60.5 23t-21.5 57zM678 1714q0 35 22 59t60 24q39 0 61.5 -24
t22.5 -59q0 -34 -22.5 -57t-61.5 -23q-38 0 -60 23t-22 57z" />
    <glyph glyph-name="uni0402" unicode="&#x402;" horiz-adv-x="1322" 
d="M494 688v111q45 25 101 44.5t112.5 31t102.5 11.5q127 0 222 -49t147.5 -151.5t52.5 -260.5q0 -86 -24.5 -164.5t-74 -139.5t-126 -96.5t-180.5 -35.5l-1 103q77 0 132.5 26.5t90.5 73t51.5 106t16.5 127.5q0 121 -37.5 198t-106.5 114.5t-164 37.5q-55 0 -108.5 -10.5
t-105 -30t-101.5 -46.5zM539 1456v-1456h-115v1456h115zM1008 1456v-107h-944v107h944z" />
    <glyph glyph-name="uni0403" unicode="&#x403;" horiz-adv-x="991" 
d="M915 1456v-107h-625v-1349h-116v1456h741zM470 1576l191 280h145l-232 -280h-104z" />
    <glyph glyph-name="uni0404" unicode="&#x404;" horiz-adv-x="1181" 
d="M749 791v-107h-523v107h523zM932 455h115q-13 -148 -68 -254t-151.5 -163.5t-234.5 -57.5q-104 0 -189 47t-146.5 134t-94 208t-32.5 268v181q0 148 33 269t94.5 208t148.5 134t196 47q132 0 227 -56.5t150 -163t67 -256.5h-115q-12 117 -51 199.5t-107 126t-171 43.5
q-85 0 -150.5 -39t-112 -112t-70 -173.5t-23.5 -224.5v-183q0 -95 14.5 -179t42.5 -152t70.5 -117t97.5 -75.5t122 -26.5q108 0 178 41t108.5 123t51.5 204z" />
    <glyph glyph-name="uni0405" unicode="&#x405;" horiz-adv-x="1059" 
d="M857 360q0 59 -16 105.5t-53 83.5t-100.5 69.5t-156.5 64.5q-92 31 -165.5 68t-126 85t-80 112t-27.5 150q0 85 30 154.5t85 119.5t130.5 77t165.5 27q130 0 225 -58.5t146 -157t51 -219.5h-114q0 95 -36 169t-104.5 116.5t-166.5 42.5t-164.5 -36.5t-99.5 -97
t-33 -133.5q0 -52 16.5 -96.5t54.5 -81t99 -68.5t150 -61q99 -32 174.5 -71t127 -90t78 -118t26.5 -155q0 -89 -31 -159.5t-88 -120t-134 -75.5t-169 -26q-82 0 -163.5 25t-148 78t-106.5 136t-40 198h115q0 -91 30.5 -154.5t79.5 -102t109.5 -56t123.5 -17.5q94 0 162.5 34
t106 95.5t37.5 143.5z" />
    <glyph glyph-name="uni0406" unicode="&#x406;" horiz-adv-x="500" 
d="M309 1456v-1456h-116v1456h116z" />
    <glyph glyph-name="uni0407" unicode="&#x407;" horiz-adv-x="500" 
d="M309 1456v-1456h-116v1456h116zM-48 1715q0 35 21.5 58.5t60.5 23.5t61 -23.5t22 -58.5q0 -34 -22 -57t-61 -23t-60.5 23t-21.5 57zM389 1714q0 35 22 59t60 24q39 0 61.5 -24t22.5 -59q0 -34 -22.5 -57t-61.5 -23q-38 0 -60 23t-22 57z" />
    <glyph glyph-name="uni0408" unicode="&#x408;" horiz-adv-x="988" 
d="M708 434v1022h114v-1022q0 -147 -48.5 -248t-132.5 -153.5t-191 -52.5q-111 0 -195.5 46t-131 140t-46.5 236h116q0 -104 31 -174.5t88.5 -105.5t137.5 -35q72 0 130.5 39t93 116.5t34.5 191.5z" />
    <glyph glyph-name="uni0409" unicode="&#x409;" horiz-adv-x="1861" 
d="M357 1456h115l-30 -674q-9 -166 -22 -294t-36.5 -220.5t-60 -151.5t-91 -87.5t-131.5 -28.5h-37v107l32 1q49 2 84.5 23t61 68t42 126t27.5 195.5t18 277.5zM950 1456v-107h-552v107h552zM1007 851h336q134 0 225 -55.5t137.5 -151.5t46.5 -218q0 -91 -26.5 -169.5
t-78 -135.5t-127.5 -89t-176 -32h-415v1456h114v-1349h301q104 0 168.5 45.5t94.5 119t30 155.5q0 81 -30 153t-94.5 118t-168.5 46h-337v107z" />
    <glyph glyph-name="uni040A" unicode="&#x40a;" horiz-adv-x="1897" 
d="M986 787v-106h-720v106h720zM291 1456v-1456h-116v1456h116zM1043 829h337q133 0 224 -53t137.5 -145.5t46.5 -213.5q0 -90 -26.5 -165.5t-78 -132.5t-127.5 -88t-175 -31h-416v1456h115v-1345h301q104 0 168.5 43.5t94.5 113.5t30 150q0 79 -30 148.5t-94.5 112.5
t-168.5 43h-338v107z" />
    <glyph glyph-name="uni040B" unicode="&#x40b;" horiz-adv-x="1427" 
d="M1262 0h-115v415q0 126 -33 200.5t-99 107.5t-163 33q-48 0 -95 -4.5t-92.5 -14t-90 -22t-88.5 -28.5v107q42 15 84 28t86.5 22t92.5 14.5t102 5.5q131 0 222.5 -44.5t140 -142.5t48.5 -262v-415zM545 1456v-1456h-115v1456h115zM1010 1456v-107h-943v107h943z" />
    <glyph glyph-name="uni040C" unicode="&#x40c;" 
d="M288 1456v-1456h-115v1456h115zM1040 1456l-523 -667l-270 -313l-13 141l213 264l451 575h142zM941 0l-503 746l69 103l573 -849h-139zM456 1525l191 280h145l-232 -280h-104z" />
    <glyph glyph-name="uni040D" unicode="&#x40d;" horiz-adv-x="1263" 
d="M292 218l678 1238h114v-1456h-114v1241l-678 -1241h-115v1456h115v-1238zM521 1856l191 -280h-110l-227 280h146z" />
    <glyph glyph-name="uni040E" unicode="&#x40e;" horiz-adv-x="1120" 
d="M565 489l353 967h134l-461 -1206q-17 -43 -39.5 -90.5t-55.5 -88.5t-82.5 -66.5t-118.5 -25.5q-19 0 -44.5 3.5t-36.5 7.5l9 104q10 -3 34 -5.5t38 -2.5q52 0 86.5 28t58 72t42.5 92zM200 1456l398 -959l33 -112l-98 -21l-462 1092h129zM749 1815h103q0 -76 -35 -134.5
t-99.5 -91.5t-154.5 -33q-135 0 -212.5 72.5t-77.5 186.5h103q0 -69 42 -119.5t144 -50.5q101 0 144 50.5t43 119.5z" />
    <glyph glyph-name="uni040F" unicode="&#x40f;" horiz-adv-x="1256" 
d="M174 0v1456h116v-1349h674v1349h115v-1456h-905zM689 97v-451h-115v451h115z" />
    <glyph glyph-name="uni0410" unicode="&#x410;" 
d="M584 1368l-420 -1368h-118l463 1456h81zM960 0l-420 1368l-5 88h80l464 -1456h-119zM895 515v-108h-657v108h657z" />
    <glyph glyph-name="uni0411" unicode="&#x411;" horiz-adv-x="1121" 
d="M907 1456v-107h-625v-1349h-116v1456h741zM245 827h338q133 0 223.5 -51.5t137 -144t46.5 -215.5q0 -92 -26.5 -168.5t-78 -131.5t-127.5 -85.5t-175 -30.5h-416v1456h116v-1349h300q104 0 168.5 43t94 114t29.5 153q0 81 -29.5 149.5t-94 110.5t-168.5 42h-338v108z" />
    <glyph glyph-name="uni0412" unicode="&#x412;" horiz-adv-x="1098" 
d="M597 700h-338l-1 106h293q86 0 148 31t94.5 91.5t32.5 149.5q0 91 -31.5 151.5t-95 90t-158.5 29.5h-253v-1349h-115v1456h367q94 0 168 -22.5t126 -69t79.5 -118.5t27.5 -171q0 -90 -35 -162t-97.5 -118t-148.5 -57zM589 0h-369l61 107h308q88 0 150 36.5t95.5 104.5
t33.5 162q0 81 -29 147t-89.5 104.5t-152.5 38.5h-218l2 106h305l22 -38q84 -11 145.5 -61t95.5 -127t34 -169q0 -133 -49.5 -224.5t-138.5 -139t-206 -47.5z" />
    <glyph glyph-name="uni0413" unicode="&#x413;" horiz-adv-x="991" 
d="M915 1456v-107h-625v-1349h-116v1456h741z" />
    <glyph glyph-name="uni0414" unicode="&#x414;" horiz-adv-x="1295" 
d="M1122 107v-107h-954v107h954zM192 107v-461h-115v461h115zM1220 107v-460h-115v460h115zM991 1456v-107h-552v107h552zM1085 1456v-1456h-115v1456h115zM397 1456h115l-21 -527q-5 -140 -22.5 -260.5t-42 -220t-55 -177.5t-64.5 -134t-67.5 -91t-65.5 -46h-65v107h53
q21 26 52.5 83t65 154.5t60 241.5t35.5 343z" />
    <glyph glyph-name="uni0415" unicode="&#x415;" horiz-adv-x="1019" 
d="M936 107v-107h-680v107h680zM288 1456v-1456h-115v1456h115zM851 805v-108h-595v108h595zM931 1456v-107h-675v107h675z" />
    <glyph glyph-name="uni0416" unicode="&#x416;" horiz-adv-x="1563" 
d="M526 692l-455 764h138l373 -655h206l-15 -109h-247zM593 701l-407 -701h-146l481 810zM843 1456v-1456h-115v1456h115zM1495 1456l-455 -764h-243l-13 109h201l373 655h137zM1382 0l-409 701l74 109l479 -810h-144z" />
    <glyph glyph-name="uni0417" unicode="&#x417;" horiz-adv-x="1063" 
d="M532 709h-151v89h146q108 0 175.5 35t98.5 97.5t31 146.5q0 83 -32.5 149t-101 104.5t-176.5 38.5q-81 0 -148.5 -37t-107.5 -103t-40 -155h-114q0 93 32.5 167.5t89.5 127t131 80t157 27.5q97 0 175 -26t134 -76.5t86 -126t30 -174.5q0 -75 -28.5 -141t-82 -116
t-130.5 -78.5t-174 -28.5zM381 775h151q107 0 188 -25t135.5 -73t82.5 -118.5t28 -161.5q0 -100 -33 -177t-92.5 -131t-141 -82t-178.5 -28q-77 0 -153.5 25t-138 77t-98.5 132t-37 191h116q0 -90 39 -162t109.5 -114t163.5 -42q105 0 178.5 38t112 107t38.5 161
q0 78 -21.5 134t-62 92.5t-101 53.5t-139.5 17h-146v86z" />
    <glyph glyph-name="uni0418" unicode="&#x418;" horiz-adv-x="1263" 
d="M292 218l678 1238h114v-1456h-114v1241l-678 -1241h-115v1456h115v-1238z" />
    <glyph glyph-name="uni0419" unicode="&#x419;" horiz-adv-x="1263" 
d="M292 218l678 1238h114v-1456h-114v1241l-678 -1241h-115v1456h115v-1238zM823 1815h103q0 -76 -35 -134.5t-99.5 -91.5t-154.5 -33q-135 0 -212.5 72.5t-77.5 186.5h103q0 -69 42 -119.5t144 -50.5q101 0 144 50.5t43 119.5z" />
    <glyph glyph-name="uni041A" unicode="&#x41a;" horiz-adv-x="1140" 
d="M293 1456v-1456h-116v1456h116zM1056 1456l-540 -774h-270l-12 109h214l464 665h144zM950 0l-504 697l65 110l581 -807h-142z" />
    <glyph glyph-name="uni041B" unicode="&#x41b;" horiz-adv-x="1250" 
d="M981 1456v-107h-591v107h591zM1075 1456v-1456h-115v1456h115zM349 1456h116l-32 -674q-7 -166 -20 -294t-37 -220.5t-60.5 -151.5t-91 -87.5t-131.5 -28.5h-38v107l32 1q49 2 85 23t61 68t42 126t28 195.5t18 277.5z" />
    <glyph glyph-name="uni041C" unicode="&#x41c;" horiz-adv-x="1531" 
d="M208 1456h115l441 -1280l443 1280h114l-512 -1456h-88zM173 1456h101l14 -822v-634h-115v1456zM1257 1456h101v-1456h-114v634z" />
    <glyph glyph-name="uni041D" unicode="&#x41d;" horiz-adv-x="1259" 
d="M990 805v-108h-727v108h727zM288 1456v-1456h-115v1456h115zM1085 1456v-1456h-115v1456h115z" />
    <glyph glyph-name="uni041E" unicode="&#x41e;" horiz-adv-x="1208" 
d="M1075 885v-315q0 -143 -32.5 -253.5t-94 -185.5t-148 -113.5t-195.5 -38.5q-107 0 -194 38.5t-149 113.5t-95.5 185.5t-33.5 253.5v315q0 144 33 255t94.5 185t148.5 112.5t194 38.5q110 0 197 -38.5t148.5 -112.5t94 -185t32.5 -255zM961 570v317q0 119 -23.5 209
t-68.5 150t-112 90t-154 30q-84 0 -150.5 -30t-112 -90.5t-69.5 -150t-24 -208.5v-317q0 -120 24.5 -209.5t70.5 -150t112.5 -90.5t150.5 -30q87 0 153.5 30t111.5 90.5t68 150t23 209.5z" />
    <glyph glyph-name="uni041F" unicode="&#x41f;" horiz-adv-x="1260" 
d="M1082 1456v-1456h-115v1349h-674v-1349h-116v1456h905z" />
    <glyph glyph-name="uni0420" unicode="&#x420;" horiz-adv-x="1104" 
d="M596 592h-345v108h345q107 0 173 42.5t96.5 115t30.5 162.5q0 88 -30.5 163t-96.5 120.5t-173 45.5h-308v-1349h-115v1456h423q135 0 227.5 -55t140 -153t47.5 -227q0 -134 -47.5 -230.5t-140 -147.5t-227.5 -51z" />
    <glyph glyph-name="uni0421" unicode="&#x421;" horiz-adv-x="1158" 
d="M930 455h115q-10 -163 -65 -268.5t-152.5 -156.5t-235.5 -51q-105 0 -189 41t-143.5 119t-91 188.5t-31.5 249.5v312q0 137 31.5 245.5t92 185t146 116.5t194.5 40q132 0 227.5 -50t151 -155t65.5 -271h-115q-9 134 -48 215t-108.5 117.5t-172.5 36.5q-85 0 -149.5 -32.5
t-109 -94t-67.5 -150t-23 -201.5v-314q0 -111 22 -201.5t64.5 -155.5t106 -99.5t147.5 -34.5q108 0 179 34t110 114.5t49 220.5z" />
    <glyph glyph-name="uni0422" unicode="&#x422;" horiz-adv-x="1067" 
d="M591 1456v-1456h-114v1456h114zM1005 1456v-107h-941v107h941z" />
    <glyph glyph-name="uni0423" unicode="&#x423;" horiz-adv-x="1120" 
d="M565 489l353 967h134l-461 -1206q-17 -43 -39.5 -90.5t-55.5 -88.5t-82.5 -66.5t-118.5 -25.5q-19 0 -44.5 3.5t-36.5 7.5l9 104q10 -3 34 -5.5t38 -2.5q52 0 86.5 28t58 72t42.5 92zM200 1456l398 -959l33 -112l-98 -21l-462 1092h129z" />
    <glyph glyph-name="uni0424" unicode="&#x424;" horiz-adv-x="1327" 
d="M587 1309h158q110 0 202 -43.5t159.5 -121.5t104 -183t36.5 -229t-36.5 -229.5t-104 -184t-159.5 -122t-202 -43.5h-158q-111 0 -203 43t-158.5 121t-103 183t-36.5 230q0 123 36.5 228.5t103 184.5t158.5 122.5t203 43.5zM587 1205q-123 0 -211 -61.5t-133.5 -168.5
t-45.5 -245q0 -104 26 -190.5t76 -150t122.5 -98t165.5 -34.5h160q122 0 209.5 61.5t133.5 169t46 244.5q0 103 -26 189.5t-76.5 150t-123 98.5t-163.5 35h-160zM723 1517v-1577h-113v1577h113z" />
    <glyph glyph-name="uni0425" unicode="&#x425;" horiz-adv-x="1098" 
d="M215 1456l335 -613l334 613h136l-401 -717l413 -739h-136l-346 633l-347 -633h-136l414 739l-401 717h135z" />
    <glyph glyph-name="uni0426" unicode="&#x426;" horiz-adv-x="1274" 
d="M1196 110l-9 -461h-104v351h-122v110h235zM170 0v1456h116v-1349h674v1349h115v-1456h-905z" />
    <glyph glyph-name="uni0427" unicode="&#x427;" horiz-adv-x="1192" 
d="M162 1456h114v-404q0 -126 33.5 -201t99 -108t162.5 -33q48 0 94.5 4.5t92.5 14t90 22.5t89 29v-109q-42 -14 -84.5 -27t-86.5 -22t-92.5 -14t-103.5 -5q-129 0 -220.5 44t-139.5 142.5t-48 262.5v404zM902 1456h114v-1456h-114v1456z" />
    <glyph glyph-name="uni0428" unicode="&#x428;" horiz-adv-x="1638" 
d="M172 1456h117v-1349h474v1349h115v-1349h474v1349h114v-1456h-1294v1456z" />
    <glyph glyph-name="uni0429" unicode="&#x429;" horiz-adv-x="1670" 
d="M1584 105l-9 -456h-102v351h-109v105h220zM172 1456h117v-1349h474v1349h115v-1349h474v1349h114v-1456h-1294v1456z" />
    <glyph glyph-name="uni042A" unicode="&#x42a;" horiz-adv-x="1367" 
d="M17 1352v104h433v-104h-433zM491 827h338q133 0 223 -51.5t137 -144t47 -215.5q0 -92 -26.5 -168.5t-78 -131.5t-127.5 -85.5t-175 -30.5h-416v1456h115v-1349h301q104 0 168.5 43t94 114t29.5 153q0 81 -29.5 149.5t-94 110.5t-168.5 42h-338v108z" />
    <glyph glyph-name="uni042B" unicode="&#x42b;" horiz-adv-x="1486" 
d="M254 827h337q134 0 224 -51.5t136.5 -144t46.5 -215.5q0 -91 -26.5 -168t-77.5 -132t-127 -85.5t-175 -30.5h-417v1456h116v-1349h300q104 0 168 43t94 114t30 153q0 81 -30 149.5t-93.5 110.5t-167.5 42h-338v108zM1304 1456v-1456h-115v1456h115z" />
    <glyph glyph-name="uni042C" unicode="&#x42c;" horiz-adv-x="1098" 
d="M245 827h337q134 0 224.5 -51.5t137 -144t46.5 -215.5q0 -91 -26.5 -168t-78 -132t-127 -85.5t-175.5 -30.5h-416v1456h116v-1349h300q104 0 168.5 43t94 114t29.5 153q0 81 -29.5 149.5t-94 110.5t-168.5 42h-338v108z" />
    <glyph glyph-name="uni042D" unicode="&#x42d;" horiz-adv-x="1181" 
d="M955 786v-108h-519v108h519zM141 455h113q14 -122 52.5 -204t108.5 -123t177 -41q85 0 150 41t109.5 115t67 174.5t22.5 219.5v183q0 99 -15.5 183.5t-45.5 152t-73.5 115t-99 73t-123.5 25.5q-103 0 -171.5 -43.5t-107 -126t-51.5 -199.5h-113q13 150 67.5 256.5
t149 163t226.5 56.5q108 0 195 -47t148.5 -134t95 -208t33.5 -269v-181q0 -147 -33 -268t-94.5 -208t-146.5 -134t-191 -47q-136 0 -232.5 57.5t-151 163.5t-66.5 254z" />
    <glyph glyph-name="uni042E" unicode="&#x42e;" horiz-adv-x="1600" 
d="M306 1456v-1456h-115v1456h115zM598 788v-104h-305v104h305zM1472 885v-315q0 -143 -32.5 -253.5t-94 -185.5t-148 -113.5t-196.5 -38.5q-107 0 -193.5 38.5t-148.5 113.5t-95.5 185.5t-33.5 253.5v315q0 144 33 255t94.5 185t148.5 112.5t194 38.5q110 0 197 -38.5
t148.5 -112.5t94 -185t32.5 -255zM1358 570v317q0 119 -23.5 209t-68.5 150t-112 90t-154 30q-85 0 -151 -30t-111.5 -90.5t-69.5 -150t-24 -208.5v-317q0 -120 24 -209.5t70 -150t112.5 -90.5t150.5 -30q88 0 154.5 30t111.5 90t68 150t23 210z" />
    <glyph glyph-name="uni042F" unicode="&#x42f;" horiz-adv-x="1100" 
d="M860 593h-400l-55 28q-127 47 -194.5 148.5t-67.5 248.5q0 141 51 238.5t144.5 148.5t221.5 51h379v-1456h-115v1349h-262q-151 0 -227 -88t-76 -242q0 -93 32 -165t94 -112.5t152 -40.5h324zM521 668l-299 -668h-124l306 668h117z" />
    <glyph glyph-name="uni0430" unicode="&#x430;" horiz-adv-x="965" 
d="M699 194v589q0 76 -26 123.5t-76 69.5t-123 22q-69 0 -122.5 -27.5t-83 -76t-29.5 -111.5l-111 1q0 62 25 119.5t71 102t110.5 70.5t143.5 26q97 0 172 -31t117.5 -102t42.5 -188v-553q0 -57 7.5 -117t20.5 -98v-13h-118q-11 35 -16 89.5t-5 104.5zM722 632l3 -95h-192
q-78 0 -137 -17t-98.5 -49t-59.5 -76t-20 -100q0 -72 23 -117.5t67.5 -67t106.5 -21.5q82 0 144.5 32.5t102.5 87t52 115.5l30 -68q-10 -46 -37 -94t-70 -89.5t-102 -67.5t-133 -26q-89 0 -155.5 34t-103 103t-36.5 170q0 75 25.5 138t76.5 109.5t128 72.5t179 26h206z" />
    <glyph glyph-name="uni0431" unicode="&#x431;" horiz-adv-x="988" 
d="M738 1553h94q0 -76 -22.5 -126.5t-63.5 -81t-95 -48.5t-117 -29q-77 -15 -141.5 -62t-110 -128t-68.5 -200t-17 -277v-94h-95v94q0 175 29 311.5t83 233.5t129.5 154.5t167.5 76.5q81 16 131 38t73 56t23 82zM521 1012q89 0 160.5 -36t122 -101t77.5 -154.5t27 -194.5
v-32q0 -111 -28.5 -204.5t-80.5 -163t-127 -108t-168 -38.5q-92 0 -166 38.5t-126.5 108t-81 163t-28.5 204.5v32q0 29 6 56.5t14.5 55t17.5 55.5q30 90 83.5 162t129 114.5t168.5 42.5zM503 908q-95 0 -159.5 -53.5t-97.5 -140.5t-33 -187v-32q0 -82 19 -157t55.5 -131.5
t91 -89.5t126.5 -33t126.5 33t91 89.5t55 131.5t18.5 156v32q0 76 -19 144.5t-55.5 122t-91 84.5t-127.5 31z" />
    <glyph glyph-name="uni0432" unicode="&#x432;" horiz-adv-x="1006" 
d="M556 498h-315l-1 103h266q80 0 133.5 21t81 63.5t27.5 104.5q0 49 -16 84.5t-47.5 58.5t-78.5 34.5t-108 11.5h-226v-979h-112v1082h338q84 0 150.5 -17.5t113.5 -53t72 -89.5t25 -129q0 -49 -16 -92.5t-47.5 -78t-76.5 -56t-104 -26.5zM555 0h-350l46 104h305
q73 0 124 23t77.5 67.5t26.5 109.5q0 59 -26.5 102.5t-77.5 67.5t-124 24h-233l2 103h298l45 -39q70 -6 120.5 -43.5t78.5 -94.5t28 -123q0 -75 -24 -131.5t-68.5 -93.5t-107.5 -56.5t-140 -19.5z" />
    <glyph glyph-name="uni0433" unicode="&#x433;" horiz-adv-x="765" 
d="M719 1082v-105h-451v-977h-112v1082h563z" />
    <glyph glyph-name="uni0434" unicode="&#x434;" horiz-adv-x="1036" 
d="M311 1082h111l-15 -391q-6 -156 -29 -270t-57.5 -195t-76 -135.5t-83.5 -90.5h-60l3 103l26 2q25 34 51.5 78.5t50.5 109.5t41 161.5t23 236.5zM345 1082h512v-1082h-111v968h-401v114zM63 105h893v-423h-112v318h-673v-318h-108v423z" />
    <glyph glyph-name="uni0435" unicode="&#x435;" horiz-adv-x="938" 
d="M506 -21q-90 0 -165.5 29.5t-130 90t-84.5 153t-30 218.5v125q0 134 32 230.5t86.5 158t124.5 90t148 28.5q89 0 156.5 -29t113.5 -88t69 -148.5t23 -211.5v-93h-686v104h575v28q-2 106 -29.5 180.5t-82 114t-138.5 39.5q-62 0 -114 -22.5t-89.5 -70.5t-57 -125
t-19.5 -185v-125q0 -99 21.5 -171.5t61.5 -120t96 -71t124 -23.5q84 0 147 28.5t112 86.5l59 -74q-30 -39 -74 -72.5t-105 -53.5t-144 -20z" />
    <glyph glyph-name="uni0436" unicode="&#x436;" horiz-adv-x="1359" 
d="M446 499l-366 583h134l286 -472h172l-13 -111h-213zM510 511l-329 -511h-140l399 605zM730 1082v-1082h-111v1082h111zM1272 1082l-366 -583h-213l-14 111h171l287 472h135zM1170 0l-329 511l70 94l400 -605h-141z" />
    <glyph glyph-name="uni0437" unicode="&#x437;" horiz-adv-x="912" 
d="M468 524h-150v83h141q80 0 127 23t68 66t21 100q0 55 -22.5 101t-70.5 74t-128 28q-62 0 -113 -27t-82.5 -74t-31.5 -108h-111q0 96 47 166t124 108t167 38q78 0 139.5 -20t104.5 -59.5t66 -96.5t23 -132q0 -55 -21 -104t-62 -86.5t-100.5 -58.5t-135.5 -21zM318 581h150
q84 0 146.5 -18.5t104.5 -54.5t63 -89t21 -121q0 -75 -25 -134t-71.5 -99t-110.5 -62t-141 -22q-85 0 -166.5 35t-134.5 108.5t-53 187.5h111q0 -63 31.5 -115t86 -83t124.5 -31q79 0 131.5 27.5t79 75.5t26.5 110q0 72 -25.5 116.5t-77 65.5t-129.5 21h-141v82z" />
    <glyph glyph-name="uni0438" unicode="&#x438;" horiz-adv-x="1012" 
d="M268 197l476 885h112v-1082h-112v885l-476 -885h-111v1082h111v-885z" />
    <glyph glyph-name="uni0439" unicode="&#x439;" horiz-adv-x="1012" 
d="M268 197l476 885h112v-1082h-112v885l-476 -885h-111v1082h111v-885zM690 1472h103q0 -76 -35 -134.5t-99.5 -91.5t-154.5 -33q-135 0 -212.5 72.5t-77.5 186.5h103q0 -69 42 -119.5t144 -50.5q101 0 144 50.5t43 119.5z" />
    <glyph glyph-name="uni043A" unicode="&#x43a;" horiz-adv-x="939" 
d="M269 1082v-1082h-113v1082h113zM866 1082l-419 -587h-218l-12 110h182l328 477h139zM760 0l-370 511l71 94l444 -605h-145z" />
    <glyph glyph-name="uni043B" unicode="&#x43b;" horiz-adv-x="1014" 
d="M764 1082v-105h-456v105h456zM857 1082v-1082h-112v1082h112zM279 1082h112l-21 -508q-6 -124 -17 -218t-31.5 -162t-51.5 -110.5t-73.5 -63t-98.5 -20.5h-40v110l31 1q36 3 62.5 18.5t46 51t32.5 92t20 138.5t12 195z" />
    <glyph glyph-name="uni043C" unicode="&#x43c;" horiz-adv-x="1301" 
d="M656 166l351 916h110l-422 -1082h-79l-420 1082h109zM272 1082v-1082h-112v1082h112zM1033 0v1082h112v-1082h-112z" />
    <glyph glyph-name="uni043D" unicode="&#x43d;" horiz-adv-x="1012" 
d="M768 600v-105h-527v105h527zM269 1082v-1082h-112v1082h112zM855 1082v-1082h-111v1082h111z" />
    <glyph glyph-name="uni043E" unicode="&#x43e;" horiz-adv-x="1005" 
d="M107 485v112q0 123 28.5 217t81 158.5t125.5 97t160 32.5q89 0 161.5 -32.5t125 -97t81.5 -158.5t29 -217v-112q0 -123 -29 -217.5t-81.5 -158.5t-125 -97t-160.5 -33t-160.5 33t-125.5 97.5t-81.5 158.5t-28.5 217zM219 597v-112q0 -93 18.5 -167t55.5 -126t89.5 -80
t120.5 -28q72 0 125.5 28t89 80t53 126t17.5 167v112q0 91 -19 165t-56.5 126.5t-90.5 81t-120 28.5q-66 0 -119 -28.5t-89.5 -81t-55.5 -126.5t-19 -165z" />
    <glyph glyph-name="uni043F" unicode="&#x43f;" horiz-adv-x="1012" 
d="M763 1082v-105h-516v105h516zM269 1082v-1082h-112v1082h112zM856 1082v-1082h-112v1082h112z" />
    <glyph glyph-name="uni0440" unicode="&#x440;" horiz-adv-x="996" 
d="M259 874v-1290h-111v1498h103zM887 591v-101q0 -131 -23 -227t-68 -159t-109.5 -94t-146.5 -31q-81 0 -143 28t-105.5 79.5t-69.5 121t-36 153.5v333q11 92 38 167t70 129t103.5 83t139.5 29q84 0 149 -28.5t110 -90t68 -159t23 -233.5zM776 490v101q0 105 -16 180.5
t-48.5 125.5t-83 74.5t-118.5 24.5q-69 0 -118.5 -25.5t-82 -67.5t-52 -91.5t-28.5 -97.5v-379q17 -66 51 -124t91 -92.5t141 -34.5q68 0 117.5 24.5t82 75t48.5 126.5t16 180z" />
    <glyph glyph-name="uni0441" unicode="&#x441;" horiz-adv-x="929" 
d="M490 84q62 0 116.5 23t89.5 78t40 151h106q-4 -116 -53 -195.5t-127 -120.5t-172 -41q-97 0 -170 32t-122 95.5t-74 157t-25 216.5v123q0 122 25 215.5t74 156.5t122 95t170 32q99 0 177 -41.5t124.5 -126.5t50.5 -217h-106q-4 101 -37.5 162.5t-87.5 90t-121 28.5
q-77 0 -130.5 -26.5t-86.5 -77.5t-48 -124t-15 -167v-123q0 -95 15 -169t48.5 -124.5t87 -76.5t129.5 -26z" />
    <glyph glyph-name="uni0442" unicode="&#x442;" horiz-adv-x="859" 
d="M481 1082v-1082h-112v1082h112zM806 1082v-103h-751v103h751z" />
    <glyph glyph-name="uni0443" unicode="&#x443;" horiz-adv-x="857" 
d="M416 109l278 973h119l-381 -1255q-12 -37 -30.5 -82.5t-48 -87t-73 -68t-105.5 -26.5q-16 0 -42 4.5t-37 8.5l-1 102q9 -2 26 -4t24 -2q54 0 91 22t62.5 65.5t44.5 107.5zM168 1082l278 -926l30 -127l-81 -50l-349 1103h122z" />
    <glyph glyph-name="uni0444" unicode="&#x444;" horiz-adv-x="1287" 
d="M1176 532v-21q0 -119 -21.5 -216.5t-63.5 -168t-103 -109t-139 -38.5q-59 0 -104 17t-76 47t-50.5 68t-25.5 80v684q9 48 28 89.5t50 72t74 48t102 17.5q63 0 115.5 -26.5t92.5 -76t67 -119.5t40.5 -158t13.5 -190zM1065 511v21q0 78 -9 148t-28 128t-48 100.5t-69 66
t-92 23.5q-56 0 -91 -17.5t-53 -41t-25 -44.5v-730q10 -15 30.5 -34.5t55 -33t86.5 -13.5q63 0 108.5 31.5t75.5 89.5t44.5 136t14.5 170zM112 511v21q0 102 13.5 190t40.5 158t67 119.5t92 76t115 26.5q57 0 100 -17.5t73.5 -48t49.5 -72t28 -89.5v-675q-7 -44 -25.5 -84
t-49.5 -71t-75 -48.5t-102 -17.5q-79 0 -140 38.5t-102.5 109t-63 168t-21.5 216.5zM224 532v-21q0 -92 13.5 -170t42.5 -135.5t73.5 -89.5t107.5 -32q52 0 87 15.5t55 36.5t31 37v722q-8 21 -26 44.5t-53 41t-92 17.5q-65 0 -110 -36t-73.5 -100t-42 -148.5t-13.5 -181.5z
M585 -416v1952h111v-1952h-111z" />
    <glyph glyph-name="uni0445" unicode="&#x445;" horiz-adv-x="880" 
d="M202 1082l236 -435l238 435h130l-305 -531l318 -551h-130l-250 456l-249 -456h-131l319 551l-306 531h130z" />
    <glyph glyph-name="uni0446" unicode="&#x446;" horiz-adv-x="1028" 
d="M157 0v1082h112v-977h475v977h112v-1082h-699zM951 105l-9 -426h-101v321h-110v105h220z" />
    <glyph glyph-name="uni0447" unicode="&#x447;" horiz-adv-x="960" 
d="M803 1082v-1082h-111v1082h111zM765 590v-105q-40 -21 -89.5 -40.5t-104.5 -32t-112 -12.5q-111 0 -189 39t-118 128t-40 240v276h112v-276q0 -115 25.5 -180.5t78 -93.5t132.5 -28q59 1 115.5 14t105 31.5t84.5 39.5z" />
    <glyph glyph-name="uni0448" unicode="&#x448;" horiz-adv-x="1410" 
d="M157 1082h112v-977h390v977h111v-977h387v977h111v-1082h-1111v1082z" />
    <glyph glyph-name="uni0449" unicode="&#x449;" horiz-adv-x="1429" 
d="M1376 105l-9 -426h-101v321h-110v105h220zM151 1082h111v-977h391v977h112v-977h387v977h111v-1082h-1112v1082z" />
    <glyph glyph-name="uni044A" unicode="&#x44a;" horiz-adv-x="1121" 
d="M424 1082v-104h-374v104h374zM410 691h291q108 0 182.5 -45t112.5 -122.5t38 -176.5q0 -74 -21.5 -137t-64.5 -110t-104.5 -73.5t-142.5 -26.5h-366v1082h111v-977h255q80 0 129 34t71 89t22 116q0 60 -22 115.5t-71 91t-129 35.5h-291v105z" />
    <glyph glyph-name="uni044B" unicode="&#x44b;" horiz-adv-x="1340" 
d="M235 691h291q108 0 182.5 -45t113 -122.5t38.5 -176.5q0 -73 -22 -136.5t-64 -110.5t-104.5 -73.5t-144.5 -26.5h-365v1082h112v-977h255q80 0 128.5 34t70.5 89t22 116q0 60 -22 115.5t-70.5 91t-129.5 35.5h-291v105zM1171 1082v-1082h-112v1082h112z" />
    <glyph glyph-name="uni044C" unicode="&#x44c;" horiz-adv-x="963" 
d="M235 691h291q108 0 182.5 -45t113 -122.5t38.5 -176.5q0 -73 -22 -136.5t-64 -110.5t-104.5 -73.5t-144.5 -26.5h-365v1082h112v-977h255q80 0 128.5 34t70.5 89t22 116q0 60 -22 115.5t-70.5 91t-129.5 35.5h-291v105z" />
    <glyph glyph-name="uni044D" unicode="&#x44d;" horiz-adv-x="961" 
d="M455 998q-57 0 -111 -28.5t-89.5 -84.5t-35.5 -141h-107q0 106 49 186.5t127.5 126t166.5 45.5q92 0 164.5 -41.5t122.5 -115t76.5 -171.5t26.5 -212v-42q0 -114 -26.5 -212t-76.5 -171.5t-122.5 -115t-164.5 -41.5q-95 0 -172.5 47.5t-123.5 134t-46 206.5h106
q0 -90 32 -153.5t86 -97t119 -33.5q71 0 123 35.5t87 97.5t51.5 140t16.5 163v42q0 86 -17 164t-51 139t-86.5 97t-124.5 36zM785 599v-104h-450v104h450z" />
    <glyph glyph-name="uni044E" unicode="&#x44e;" horiz-adv-x="1440" 
d="M612 592v-105h-437v105h437zM272 1082v-1082h-112v1082h112zM521 526v32q0 117 29 216.5t83 173t128.5 114t166.5 40.5t168 -40.5t129.5 -114t82 -173t28.5 -216.5v-32q0 -119 -28.5 -218.5t-82 -173t-128.5 -114t-168 -40.5q-92 0 -167.5 40.5t-129 114t-82.5 173
t-29 218.5zM633 557v-33q0 -88 19 -167.5t56.5 -140.5t93 -96t127.5 -35q71 0 126.5 34.5t93 96.5t57 141t19.5 168v32q0 87 -19.5 166.5t-57 141t-93 97.5t-127.5 36t-127 -36t-92.5 -97.5t-56.5 -141t-19 -166.5z" />
    <glyph glyph-name="uni044F" unicode="&#x44f;" horiz-adv-x="977" 
d="M345 497h122l-254 -497h-122zM456 1082h362v-1082h-111v979h-251q-77 0 -125 -31.5t-70.5 -82.5t-22.5 -108q0 -55 19.5 -104.5t62 -81t110.5 -31.5h314v-105h-314q-73 0 -129.5 24t-95.5 67.5t-59 103t-20 129.5q0 69 22 128t64 103t103 68t141 24z" />
    <glyph glyph-name="uni0450" unicode="&#x450;" horiz-adv-x="938" 
d="M506 -21q-90 0 -165.5 29.5t-130 90t-84.5 153t-30 218.5v125q0 134 32 230.5t86.5 158t124.5 90t148 28.5q89 0 156.5 -29t113.5 -88t69 -148.5t23 -211.5v-93h-686v104h575v28q-2 106 -29.5 180.5t-82 114t-138.5 39.5q-62 0 -114 -22.5t-89.5 -70.5t-57 -125
t-19.5 -185v-125q0 -99 21.5 -171.5t61.5 -120t96 -71t124 -23.5q84 0 147 28.5t112 86.5l59 -74q-30 -39 -74 -72.5t-105 -53.5t-144 -20zM379 1535l191 -280h-110l-227 280h146z" />
    <glyph glyph-name="uni0451" unicode="&#x451;" horiz-adv-x="938" 
d="M506 -21q-90 0 -165.5 29.5t-130 90t-84.5 153t-30 218.5v125q0 134 32 230.5t86.5 158t124.5 90t148 28.5q89 0 156.5 -29t113.5 -88t69 -148.5t23 -211.5v-93h-686v104h575v28q-2 106 -29.5 180.5t-82 114t-138.5 39.5q-62 0 -114 -22.5t-89.5 -70.5t-57 -125
t-19.5 -185v-125q0 -99 21.5 -171.5t61.5 -120t96 -71t124 -23.5q84 0 147 28.5t112 86.5l59 -74q-30 -39 -74 -72.5t-105 -53.5t-144 -20zM196 1394q0 35 21.5 58.5t60.5 23.5t61 -23.5t22 -58.5q0 -34 -22 -57t-61 -23t-60.5 23t-21.5 57zM633 1393q0 35 22 59t60 24
q39 0 61.5 -24t22.5 -59q0 -34 -22.5 -57t-61.5 -23q-38 0 -60 23t-22 57z" />
    <glyph glyph-name="uni0452" unicode="&#x452;" horiz-adv-x="985" 
d="M729 435h111v-524q0 -112 -30.5 -190t-89 -118t-138.5 -40q-28 0 -52 4.5t-50 14.5l12 100q14 -6 42.5 -10t47.5 -4q47 0 79.5 28.5t50 83t17.5 131.5v524zM260 1536v-1536h-111v1536h111zM235 608l-49 29q4 96 31.5 180t75.5 148.5t113 100.5t144 36q67 0 121 -22
t91.5 -69t57.5 -123t20 -183v-705h-111v706q0 111 -25 174t-71.5 89.5t-111.5 26.5q-69 0 -121.5 -37t-89 -96t-55.5 -126.5t-20 -128.5zM516 1339v-104h-517v104h517z" />
    <glyph glyph-name="uni0453" unicode="&#x453;" horiz-adv-x="765" 
d="M719 1082v-105h-451v-977h-112v1082h563zM308 1233l191 280h145l-232 -280h-104z" />
    <glyph glyph-name="uni0454" unicode="&#x454;" horiz-adv-x="961" 
d="M621 594v-104h-477v104h477zM501 85q62 0 116 28.5t89.5 84.5t39.5 138h106q-4 -103 -52.5 -183.5t-127 -126.5t-171.5 -46q-98 0 -171 41.5t-122 115.5t-73.5 172t-24.5 211v42q0 114 25 212t74 171.5t122 115t169 41.5q99 0 177 -47.5t124.5 -133.5t50.5 -204h-106
q-4 87 -37 149.5t-87 97t-121 34.5q-77 0 -130.5 -35.5t-86.5 -97t-48 -139.5t-15 -164v-42q0 -86 15 -164.5t48 -139.5t86.5 -96t130.5 -35z" />
    <glyph glyph-name="uni0455" unicode="&#x455;" horiz-adv-x="915" 
d="M691 266q0 45 -23.5 82t-77 73t-145.5 78q-73 33 -131 64t-97.5 66t-61 79.5t-21.5 105.5t23 113t65.5 91.5t102 61.5t133.5 22q106 0 181 -40.5t116 -111.5t41 -164h-112q0 56 -26.5 104t-76.5 78t-123 30q-75 0 -122.5 -26.5t-69 -67.5t-21.5 -86q0 -33 10.5 -58.5
t36 -49t72 -49t115.5 -60.5q100 -43 172 -85.5t111 -99t39 -142.5q0 -67 -24 -121.5t-68 -93t-106.5 -59t-138.5 -20.5q-116 0 -196.5 44t-122 116t-41.5 156h111q4 -85 42.5 -131t94.5 -63t112 -17q73 0 124 24t77 65.5t26 91.5z" />
    <glyph glyph-name="uni0456" unicode="&#x456;" horiz-adv-x="432" 
d="M272 1082v-1082h-111v1082h111zM144 1393q0 36 19.5 59.5t54.5 23.5q34 0 53.5 -23.5t19.5 -59.5q0 -33 -19.5 -56t-53.5 -23q-35 0 -54.5 23t-19.5 56z" />
    <glyph glyph-name="uni0457" unicode="&#x457;" horiz-adv-x="431" 
d="M271 1082v-1082h-112v1082h112zM-81 1383q0 35 21.5 58.5t60.5 23.5t61 -23.5t22 -58.5q0 -34 -22 -57t-61 -23t-60.5 23t-21.5 57zM356 1382q0 35 22 59t60 24q39 0 61.5 -24t22.5 -59q0 -34 -22.5 -57t-61.5 -23q-38 0 -60 23t-22 57z" />
    <glyph glyph-name="uni0458" unicode="&#x458;" horiz-adv-x="436" 
d="M156 1082h113v-1211q0 -99 -27.5 -168t-80.5 -104.5t-132 -35.5q-21 0 -45.5 5t-43.5 14l1 101q14 -4 35 -8.5t39 -4.5q46 0 77 22.5t47.5 67t16.5 111.5v1211zM139 1394q0 35 19.5 58.5t53.5 23.5q35 0 55 -23.5t20 -58.5q0 -34 -20 -57t-55 -23q-34 0 -53.5 23
t-19.5 57z" />
    <glyph glyph-name="uni0459" unicode="&#x459;" horiz-adv-x="1508" 
d="M273 1082h111l-21 -508q-5 -124 -16.5 -218t-31.5 -162t-50.5 -110.5t-73 -63t-100.5 -20.5h-40v109l32 2q36 3 63.5 18.5t45.5 51t31.5 92t21 138.5t11.5 195zM746 1082v-105h-446v105h446zM801 651h292q109 0 183 -41.5t112.5 -115t38.5 -167.5q0 -69 -22 -129
t-64.5 -104.5t-105 -69t-143.5 -24.5h-365v1082h112v-978h255q80 0 129 32.5t71 84.5t22 108q0 55 -22 105t-71.5 81.5t-129.5 31.5h-292v104z" />
    <glyph glyph-name="uni045A" unicode="&#x45a;" horiz-adv-x="1522" 
d="M768 654v-104h-527v104h527zM269 1082v-1082h-112v1082h112zM818 651h292q108 0 182 -42t113 -115.5t39 -166.5q0 -69 -22 -128.5t-64 -104.5t-104.5 -69.5t-143.5 -24.5h-366v1082h111v-978h255q80 0 129 32.5t71 84.5t22 108q0 55 -22 105t-71 81.5t-129 31.5h-292v104
z" />
    <glyph glyph-name="uni045B" unicode="&#x45b;" horiz-adv-x="1001" 
d="M260 1536v-1536h-111v1536h111zM235 608l-49 29q4 96 31.5 180t75.5 148.5t113 100.5t144 36q67 0 121 -22t91.5 -69t57.5 -123t20 -183v-705h-111v706q0 111 -25 174t-71.5 89.5t-111.5 26.5q-69 0 -121.5 -37t-89 -96t-55.5 -126.5t-20 -128.5zM526 1350v-104h-518v104
h518z" />
    <glyph glyph-name="uni045C" unicode="&#x45c;" horiz-adv-x="939" 
d="M269 1082v-1082h-113v1082h113zM866 1082l-419 -587h-218l-12 110h182l328 477h139zM760 0l-370 511l71 94l444 -605h-145zM403 1232l191 280h145l-232 -280h-104z" />
    <glyph glyph-name="uni045D" unicode="&#x45d;" horiz-adv-x="1012" 
d="M268 197l476 885h112v-1082h-112v885l-476 -885h-111v1082h111v-885zM388 1513l191 -280h-110l-227 280h146z" />
    <glyph glyph-name="uni045E" unicode="&#x45e;" horiz-adv-x="857" 
d="M416 109l278 973h119l-381 -1255q-12 -37 -30.5 -82.5t-48 -87t-73 -68t-105.5 -26.5q-16 0 -42 4.5t-37 8.5l-1 102q9 -2 26 -4t24 -2q54 0 91 22t62.5 65.5t44.5 107.5zM168 1082l278 -926l30 -127l-81 -50l-349 1103h122zM637 1495h103q0 -76 -35 -134.5t-99.5 -91.5
t-154.5 -33q-135 0 -212.5 72.5t-77.5 186.5h103q0 -69 42 -119.5t144 -50.5q101 0 144 50.5t43 119.5z" />
    <glyph glyph-name="uni045F" unicode="&#x45f;" horiz-adv-x="1012" 
d="M453 105h112v-458h-112v458zM157 1082h112v-977h475v977h112v-1082h-699v1082z" />
    <glyph glyph-name="uni0460" unicode="&#x460;" horiz-adv-x="1565" 
d="M724 1456h96v-1043q0 -110 -24.5 -191t-69 -134.5t-104 -80.5t-130.5 -27t-131 27t-105 80.5t-70 135t-25 190.5v1043h116v-1043q0 -81 15.5 -142t45 -102t69 -62t85.5 -21q67 0 119.5 37t82.5 109.5t30 180.5v1043zM1290 1456h115v-1043q0 -146 -44.5 -242t-121 -143.5
t-173.5 -47.5q-69 0 -127.5 27t-102 80.5t-67 135t-23.5 190.5v1043h96v-1043q0 -81 16.5 -142t46.5 -102t71.5 -62t89.5 -21q64 0 115 37t80 109.5t29 180.5v1043z" />
    <glyph glyph-name="uni0461" unicode="&#x461;" horiz-adv-x="1440" 
d="M657 1082h93v-701q0 -101 -22.5 -176.5t-63.5 -125.5t-95.5 -75t-119.5 -25t-120 24.5t-95.5 75t-63 126t-22.5 176.5v701h112v-701q0 -73 13.5 -128.5t39 -93.5t60.5 -56.5t76 -18.5q60 0 107 33.5t74 100t27 163.5v701zM1167 1082h111v-701q0 -135 -40.5 -224
t-110.5 -133.5t-159 -44.5q-64 0 -117.5 25t-92.5 75t-61 125.5t-22 176.5v701h93v-701q0 -73 14.5 -128t42 -93.5t64 -57t79.5 -18.5t79 18.5t63 57t42 93.5t15 128v701z" />
    <glyph glyph-name="uni0462" unicode="&#x462;" horiz-adv-x="1098" 
d="M245 827h338q133 0 223.5 -51.5t137 -144t46.5 -215.5q0 -92 -26.5 -168.5t-78 -131.5t-127.5 -85.5t-175 -30.5h-416v1456h116v-1349h300q104 0 168.5 43t94 114t29.5 153q0 81 -29.5 149.5t-94 110.5t-168.5 42h-338v108zM528 1231v-105h-518v105h518z" />
    <glyph glyph-name="uni0463" unicode="&#x463;" horiz-adv-x="962" 
d="M234 710h291q108 0 182.5 -46t113 -125.5t38.5 -180.5q0 -102 -38.5 -183t-113 -128t-182.5 -47h-366v1549h112v-1444h254q80 0 128.5 35.5t71 92.5t22.5 121q0 62 -22 119.5t-70.5 94.5t-129.5 37h-291v105zM544 1187v-105h-550v105h550z" />
    <glyph glyph-name="uni0464" unicode="&#x464;" horiz-adv-x="1578" 
d="M1078 814v-104h-824v104h824zM1317 456h115q-13 -148 -68 -254t-151.5 -163.5t-234.5 -57.5q-104 0 -189 47t-146.5 134t-94 208t-32.5 268v181q0 148 32.5 268.5t94.5 208t149.5 134.5t195.5 47q132 0 226.5 -56.5t149.5 -163t68 -256.5h-115q-12 117 -50.5 199.5
t-107 126t-172.5 43.5q-84 0 -150.5 -39t-112.5 -111.5t-70 -173.5t-24 -225v-183q0 -95 14.5 -179t43 -152t71 -117t97.5 -75.5t123 -26.5q108 0 177.5 41.5t108.5 122.5t52 204zM307 1456v-1456h-114v1456h114z" />
    <glyph glyph-name="uni0465" unicode="&#x465;" horiz-adv-x="1321" 
d="M971 603v-105h-747v105h747zM859 85q62 0 116 28.5t89.5 84.5t40.5 138h106q-5 -103 -53.5 -183.5t-127 -126.5t-172.5 -46q-96 0 -169.5 41.5t-122.5 115.5t-73.5 172t-24.5 211v42q0 114 24.5 212t74 171.5t122.5 115t169 41.5q99 0 176.5 -47.5t124.5 -133.5t52 -204
h-107q-4 87 -37 149.5t-87 97t-122 34.5q-76 0 -129.5 -36t-86.5 -97.5t-48 -139t-15 -163.5v-42q0 -86 15 -164t48 -139t87 -96.5t130 -35.5zM269 1082v-1082h-111v1082h111z" />
    <glyph glyph-name="uni0466" unicode="&#x466;" horiz-adv-x="1074" 
d="M562 1302l-390 -1302h-120l447 1456h79zM932 0l-389 1307l-14 149h78l444 -1456h-119zM846 583v-110h-591v110h591zM604 546v-546h-114v546h114z" />
    <glyph glyph-name="uni0467" unicode="&#x467;" horiz-adv-x="950" 
d="M435 808l-280 -808h-115l378 1082h88zM780 0l-284 808l-69 274h88l379 -1082h-114zM713 449v-104h-487v104h487zM525 419v-419h-111v419h111z" />
    <glyph glyph-name="uni0468" unicode="&#x468;" horiz-adv-x="1552" 
d="M720 583v-109h-452v109h452zM1007 1302l-391 -1302h-120l448 1456h78zM1376 0l-389 1307l-14 149h79l443 -1456h-119zM1290 583v-110h-591v110h591zM1047 546v-546h-112v546h112zM322 1456v-1456h-114v1456h114z" />
    <glyph glyph-name="uni0469" unicode="&#x469;" horiz-adv-x="1336" 
d="M629 449v-104h-392v104h392zM810 808l-279 -808h-116l379 1082h87zM1155 0l-284 808l-69 274h88l380 -1082h-115zM1089 449v-104h-488v104h488zM900 419v-419h-111v419h111zM299 1082v-1082h-112v1082h112z" />
    <glyph glyph-name="uni046A" unicode="&#x46a;" horiz-adv-x="1455" 
d="M266 0h-116v379q0 146 45 234t131 128t204 40h394q120 0 205 -40t130 -128t45 -234v-379h-114v379q0 112 -29 176t-87.5 91t-149.5 27h-393q-134 0 -199.5 -64t-65.5 -231v-378zM1095 1456v-107h-726v107h726zM708 735l373 721h131l-428 -802h-78zM381 1456l374 -725
l1 -77h-78l-429 802h132zM787 755v-755h-116v755h116z" />
    <glyph glyph-name="uni046B" unicode="&#x46b;" horiz-adv-x="1265" 
d="M265 0h-113v194q0 146 43 234t124.5 128t193.5 40h239q112 0 193.5 -39.5t124.5 -128t43 -234.5v-194h-111v194q0 113 -27.5 177.5t-82.5 92t-140 27.5h-239q-85 0 -140 -27.5t-81.5 -92t-26.5 -177.5v-194zM947 1082v-104h-604v104h604zM615 548l286 534h126l-339 -612
h-73v78zM372 1082l289 -538l-3 -74h-72l-339 612h125zM690 580v-580h-111v580h111z" />
    <glyph glyph-name="uni046C" unicode="&#x46c;" horiz-adv-x="1915" 
d="M1036 782v-104h-758v104h758zM306 1456v-1456h-114v1456h114zM726 0h-116v379q0 146 45.5 234t131 128t204.5 40h393q120 0 205 -40t130 -128t45 -234v-379h-114v379q0 112 -29 176t-88 91t-149 27h-393q-135 0 -200 -64t-65 -231v-378zM1555 1456v-107h-726v107h726z
M1168 735l372 721h132l-429 -802h-78zM842 1456l373 -725l1 -77h-78l-429 802h133zM1246 755v-755h-115v755h115z" />
    <glyph glyph-name="uni046D" unicode="&#x46d;" horiz-adv-x="1652" 
d="M975 596v-105h-763v105h763zM271 1082v-1082h-112v1082h112zM651 0h-113v194q0 146 43 234t124.5 128t193.5 40h240q112 0 193 -40t124.5 -128t43.5 -234v-194h-112v194q0 113 -27.5 177.5t-82.5 92t-140 27.5h-239q-85 0 -140 -27.5t-81.5 -92t-26.5 -177.5v-194z
M1333 1082v-104h-603v104h603zM1001 548l286 534h126l-339 -612h-73v78zM758 1082l289 -538l-3 -74h-72l-339 612h125zM1077 580v-580h-112v580h112z" />
    <glyph glyph-name="uni046E" unicode="&#x46e;" horiz-adv-x="927" 
d="M147 1456h267q88 0 161.5 -25.5t127 -74.5t82.5 -120t29 -163q0 -75 -28.5 -140.5t-82.5 -114.5t-130.5 -77t-173.5 -28h-116v86h113q108 0 175.5 34.5t99 97t31.5 145.5q0 79 -30.5 141t-94 98.5t-163.5 36.5h-267v104zM283 775h116q108 0 188 -25t135 -73t82.5 -119
t27.5 -162q0 -97 -32 -172.5t-89 -127.5t-133 -78.5t-165 -26.5h-54q-76 0 -108 -34.5t-32 -91.5q0 -49 24 -87t57.5 -63t59.5 -36l-42 -90q-45 19 -93 57.5t-80 95t-33 126.5q0 72 28.5 123t84 77t137.5 26h50q72 0 128.5 21t97 60.5t62 94.5t21.5 123q0 77 -21.5 134
t-62.5 94t-101.5 54.5t-139.5 17.5h-113v82zM357 1913l141 -193l141 193h98v-13l-201 -261h-76l-201 264v10h98z" />
    <glyph glyph-name="uni046F" unicode="&#x46f;" horiz-adv-x="872" 
d="M135 1082h247q80 0 145 -19t112 -56t73.5 -91t26.5 -123q0 -58 -25.5 -108.5t-74 -88.5t-117.5 -59t-155 -21h-116v85h112q94 0 152.5 24t85 68.5t26.5 103.5q0 38 -15 71t-44.5 57.5t-76 38t-110.5 13.5h-246v105zM251 578h116q95 0 168 -18t122.5 -53t75 -86t25.5 -117
q0 -74 -29 -132.5t-80 -99t-119.5 -61t-148.5 -20.5h-38q-77 0 -108.5 -34.5t-31.5 -91.5q0 -49 24 -87t57.5 -63t60.5 -36l-43 -90q-44 19 -92 58t-81 95t-33 126q0 72 28.5 123t84.5 77t137 26h35q61 0 110 14.5t83.5 41.5t53 65t18.5 85q0 52 -18.5 89t-54 61t-88.5 35.5
t-122 11.5h-112v81zM261 1583l141 -193l142 193h98v-11l-201 -263h-77l-200 263v11h97z" />
    <glyph glyph-name="uni0470" unicode="&#x470;" horiz-adv-x="1234" 
d="M995 1456h115v-518q0 -177 -63.5 -300t-174 -187t-251.5 -64h-21q-105 0 -193 36.5t-153 107t-100.5 173t-35.5 234.5v518h115v-518q0 -104 27 -186t76.5 -139.5t116.5 -87.5t147 -30h22q110 0 194 53t131.5 152t47.5 238v518zM667 1456v-1456h-115v1456h115z" />
    <glyph glyph-name="uni0471" unicode="&#x471;" horiz-adv-x="1222" 
d="M118 1082h112v-491q0 -137 27.5 -233.5t78.5 -157t119.5 -88.5t149.5 -28q114 0 190.5 42t121.5 113.5t65 159t20 179.5q-2 138 -34.5 265t-80.5 239h120q27 -60 51 -133t39.5 -164t15.5 -206q0 -125 -27 -233t-86.5 -191t-155.5 -129t-234 -46q-111 0 -201.5 35.5
t-155.5 110t-100 190.5t-35 277v489zM548 1082h111v-1527h-111v1527z" />
    <glyph glyph-name="uni0472" unicode="&#x472;" horiz-adv-x="1201" 
d="M988 776v-105h-779v105h779zM1076 805v-153q0 -154 -33.5 -278t-96.5 -212t-151 -135t-198 -47q-86 0 -159.5 31t-132.5 88t-101 139.5t-64.5 186t-22.5 227.5v153q0 153 34.5 276.5t98 212t152 135.5t195.5 47q86 0 160.5 -30.5t132.5 -88t100 -140t64 -186.5t22 -226z
M962 652v155q0 103 -16.5 189.5t-47 155t-74.5 116t-101.5 73t-126.5 25.5q-85 0 -152.5 -39t-115 -112t-72.5 -176.5t-25 -231.5v-155q0 -104 16.5 -191t47.5 -156t75.5 -117t101.5 -73t125 -25q87 0 155 39t114.5 112t71 177t24.5 234z" />
    <glyph glyph-name="uni0473" unicode="&#x473;" horiz-adv-x="1014" 
d="M814 596v-105h-634v105h634zM95 526v32q0 117 29 216.5t82.5 173t128 114t166.5 40.5q94 0 169.5 -40.5t129 -114t82 -173t28.5 -216.5v-32q0 -119 -28.5 -218.5t-82 -173t-128.5 -114t-168 -40.5t-168 40.5t-128.5 114t-82.5 173t-29 218.5zM207 557v-33
q0 -88 19 -167.5t57 -141t93 -96t127 -34.5q71 0 126.5 35t93.5 96t57 140.5t19 168.5v32q0 87 -19 166.5t-57 141t-93.5 97.5t-127.5 36t-127 -36t-93 -97.5t-56.5 -141t-18.5 -166.5z" />
    <glyph glyph-name="uni0474" unicode="&#x474;" horiz-adv-x="1105" 
d="M537 260l248 945q27 99 61 158.5t79.5 86t105.5 26.5l26 -1v-110h-10q-30 0 -58 -12.5t-52.5 -51.5t-45.5 -120l-327 -1181h-92zM167 1456l317 -1195l64 -261h-92l-413 1456h124z" />
    </font>
</defs>
</svg>
